<?xml version="1.0" encoding="UTF-8"?>
<svg xmlns="http://www.w3.org/2000/svg" width="40" height="40" viewBox="0 0 40 40" fill="none">
  <path fill-rule="evenodd" clip-rule="evenodd" d="M33.837 17.3474C34.9745 16.0495 36.9607 15.7342 38.4713 16.7696C40.0706 17.8659 40.4815 20.0599 39.3865 21.6605L36.1165 26.4428C36.1101 26.4521 36.1049 26.4601 36.1001 26.4676L36.1 26.4677L36.0906 26.482C36.0314 26.5706 35.9485 26.6433 34.2797 28.1062L34.2786 28.1071C33.7104 28.6052 32.9585 29.2643 31.9613 30.14V38.8282C31.9613 39.4754 31.4366 40 30.7893 40C30.142 40 29.6174 39.4754 29.6174 38.8282V29.6094C29.6174 29.2722 29.7627 28.9514 30.016 28.7289L34.2649 24.9981L37.4515 20.3376C37.8174 19.8026 37.68 19.0692 37.1454 18.7028C36.6083 18.3346 35.8757 18.4719 35.5083 19.0095L33.632 21.7549C33.3421 22.1792 32.8095 22.3651 32.3184 22.2134C31.8273 22.0617 31.4924 21.6077 31.4924 21.0938V5.85938C31.4924 5.21321 30.9667 4.68751 30.3205 4.68751C29.7159 4.68751 29.1485 5.15797 29.1485 5.89844V14.2188C29.1485 14.866 28.6238 15.3906 27.9766 15.3906C27.3293 15.3906 26.8046 14.866 26.8046 14.2188V3.51563C26.8046 2.86946 26.2789 2.34375 25.6327 2.34375C24.9864 2.34375 24.4607 2.86946 24.4607 3.51563V16.246C26.0559 16.5786 27.2581 17.9952 27.2581 19.6875V30.8261C27.2581 33.1097 26.4294 35.2658 24.9141 36.9511V38.8282C24.9141 39.4754 24.3895 40 23.7422 40C23.0949 40 22.5702 39.4754 22.5702 38.8282V36.4844C22.5702 36.1736 22.6937 35.8755 22.9135 35.6557C24.2037 34.3657 24.9142 32.6506 24.9142 30.8261V19.6875C24.9142 19.0413 24.3885 18.5156 23.7423 18.5156C23.096 18.5156 22.5703 19.0413 22.5703 19.6875V23.5938C22.5703 24.241 22.0456 24.7657 21.3984 24.7657C20.7511 24.7657 20.2264 24.241 20.2264 23.5938V15.3906C20.2264 14.7445 19.7007 14.2188 19.0545 14.2188C18.4082 14.2188 17.8825 14.7445 17.8825 15.3906V23.5938C17.8825 24.241 17.3578 24.7657 16.7105 24.7657C16.0633 24.7657 15.5386 24.241 15.5386 23.5938V14.2188C15.5386 13.5726 15.0129 13.0469 14.3666 13.0469C13.7204 13.0469 13.1947 13.5726 13.1947 14.2188V23.5938C13.1947 24.241 12.67 24.7657 12.0227 24.7657C11.3755 24.7657 10.8508 24.241 10.8508 23.5938V16.6016C10.8508 15.8663 10.289 15.3906 9.67882 15.3906C9.03257 15.3906 8.50686 15.9163 8.50686 16.5625V29.4532C8.50686 29.9671 8.17202 30.421 7.68092 30.5728C7.19022 30.7246 6.65717 30.5387 6.36725 30.1143L4.491 27.3689C4.1235 26.8312 3.39092 26.694 2.85381 27.0621C2.31928 27.4286 2.18193 28.162 2.54779 28.697L5.7242 33.3424L10.4248 37.2212C10.6946 37.4438 10.8509 37.7753 10.8509 38.125V38.8282C10.8509 39.4754 10.3262 40 9.67889 40C9.03163 40 8.50694 39.4754 8.50694 38.8282V38.6773L4.10443 35.0445C4.09439 35.0362 4.08572 35.0295 4.07768 35.0232L4.06297 35.0116C3.97098 34.9377 3.90146 34.8359 2.49517 32.7754L2.49508 32.7753C2.03016 32.0941 1.41915 31.1988 0.612946 30.0198C-0.481508 28.4193 -0.0705702 26.2252 1.52873 25.1289C3.03842 24.0941 5.02483 24.408 6.16303 25.7067V16.5625C6.16303 14.0918 8.666 12.3764 10.9748 13.2954C11.2343 12.3436 11.8842 11.5517 12.7415 11.1028V8.20313C12.7415 5.78415 15.144 4.0786 17.4294 4.88907V4.68751C17.4294 1.9975 20.342 0.308672 22.6706 1.62602C23.2959 0.649298 24.3898 0 25.6332 0C27.2524 0 28.6185 1.10039 29.0252 2.59227C31.3328 1.67375 33.837 3.3868 33.837 5.85938V17.3474ZM15.0855 8.20313V10.7772C16.0253 10.9732 16.828 11.5459 17.3294 12.3292C17.3624 12.3105 17.3957 12.2924 17.4294 12.2747V8.20313C17.4294 7.55696 16.9037 7.03126 16.2574 7.03126C15.6112 7.03126 15.0855 7.55696 15.0855 8.20313ZM19.7733 4.68751V11.9491C20.7784 12.1586 21.6266 12.7988 22.1172 13.667V4.68751C22.1172 4.04133 21.5915 3.51563 20.9452 3.51563C20.299 3.51563 19.7733 4.04133 19.7733 4.68751ZM7.2333 7.23489C6.77565 7.69262 6.03346 7.69254 5.57588 7.23489L3.9351 5.59426C3.47736 5.1366 3.47736 4.39465 3.9351 3.93699C4.39276 3.47934 5.13487 3.47934 5.59252 3.93699L7.2333 5.57762C7.69104 6.03528 7.69104 6.77723 7.2333 7.23489ZM10.1773 3.87688C10.3449 4.50204 10.9875 4.87305 11.6128 4.70548C12.238 4.53798 12.609 3.8954 12.4415 3.27024L11.8415 1.03117C11.6739 0.40594 11.0316 0.03508 10.406 0.20258C9.78077 0.37008 9.40983 1.01266 9.57733 1.63782L10.1773 3.87688ZM3.26834 12.4414L1.02905 11.8414C0.403888 11.6739 0.0328721 11.0314 0.200372 10.4062C0.367951 9.78104 1.01092 9.41002 1.63584 9.5776L3.87514 10.1776C4.5003 10.3451 4.87132 10.9877 4.70381 11.6128C4.53631 12.2378 3.89381 12.609 3.26834 12.4414Z" fill="white"></path>
</svg>
