<svg xmlns:xlink="http://www.w3.org/1999/xlink" xmlns="http://www.w3.org/2000/svg" width="44" height="44" viewBox="0 0 44 44" fill="none">
  <path fill-rule="evenodd" clip-rule="evenodd" d="M16.0062 13.9278C15.2142 21.2806 12.9037 28.3889 9.22136 34.8022C9.94997 35.1541 10.6635 35.5323 11.3549 35.9496H43.0014V37.3602H13.4443C15.182 38.645 16.7548 40.139 18.1275 41.8079L17.0367 42.7015C14.7151 39.8761 11.8024 37.5941 8.50355 36.0162C7.99087 36.8532 7.46198 37.6746 6.90748 38.4661L5.75239 37.6578C10.8703 30.2379 13.9538 21.6058 14.6952 12.6225L14.0875 12.0182L13.2758 12.8248C12.7003 21.2248 9.46944 29.2242 4.04992 35.6677L2.96823 34.763C3.08519 34.6232 3.19903 34.48 3.31227 34.3375C3.34034 34.3022 3.36837 34.2669 3.39641 34.2318C2.69937 34.0705 1.99864 33.9279 1.29335 33.8269L0.882243 33.7868L1.02336 32.3828L1.46405 32.4272C2.43365 32.5689 3.3947 32.7649 4.34267 33.0138C8.4145 27.5678 10.9597 21.134 11.7159 14.3762L5.60843 20.4475C5.47642 20.579 5.29775 20.6527 5.1114 20.6527C5.073 20.6529 5.03487 20.6498 4.99703 20.6436C4.7737 20.6071 4.58137 20.4655 4.48009 20.2629C3.15088 17.6093 3.67153 14.4024 5.77231 12.3059L6.349 11.7289H1.3935C1.31725 11.7289 1.24157 11.7167 1.16959 11.6925C0.800021 11.569 0.600583 11.1696 0.724058 10.8003C1.66036 7.98367 4.2963 6.08432 7.26453 6.08716H8.19031L4.66445 2.5448C4.61124 2.49131 4.56686 2.42986 4.53329 2.36243C4.35917 2.01419 4.50057 1.59057 4.84909 1.41645C7.5021 0.0869603 10.709 0.607319 12.8053 2.70782L13.4787 3.38124C13.6966 3.6023 13.8992 3.83787 14.0847 4.08653C14.2725 3.83787 14.4764 3.6023 14.6961 3.38124L15.3695 2.70782C17.4674 0.605897 20.6761 0.0855378 23.3308 1.41645C23.3982 1.45002 23.4597 1.4944 23.5132 1.54761C23.7891 1.82244 23.7903 2.26883 23.5154 2.5448L19.9936 6.08716H20.9102C23.8785 6.08432 26.5141 7.98367 27.4507 10.8003C27.4746 10.8722 27.4871 10.9479 27.4868 11.0242C27.4868 11.4137 27.1708 11.7292 26.7813 11.7289H21.8209L22.3976 12.3059C24.4984 14.4024 25.019 17.6093 23.6896 20.2629C23.5886 20.4655 23.3962 20.6071 23.1726 20.6436C23.1351 20.6498 23.0966 20.6529 23.0585 20.6527C22.8733 20.6518 22.6961 20.5781 22.5649 20.4475L16.0062 13.9278ZM15.3484 11.2825L22.7996 18.6907C23.3501 16.7749 22.8164 14.7114 21.4056 13.3031L20.7321 12.6293C19.3187 11.2299 17.2543 10.7135 15.3484 11.2825ZM19.8661 10.3186H25.7053C24.7388 8.57515 22.9012 7.49461 20.9077 7.49774H19.9557C18.185 7.49745 16.524 8.35438 15.4978 9.79739C16.9718 9.48813 18.5062 9.67135 19.8661 10.3186ZM16.3647 3.70501L15.691 4.37843H15.6933C14.4585 5.62712 13.9174 7.40357 14.2454 9.1288C15.0531 7.92961 16.2179 7.01522 17.5747 6.51591L21.7552 2.31065C19.8385 1.75985 17.7741 2.29386 16.3647 3.70501ZM12.4795 4.37843L11.8061 3.70501H11.8081C10.3995 2.29415 8.33569 1.76013 6.41956 2.31065L10.6009 6.51591C11.3896 6.80611 12.1188 7.23798 12.7518 7.79106C12.7888 6.98364 12.9711 6.18958 13.2906 5.44674C13.0662 5.05811 12.7936 4.69906 12.4795 4.37843ZM8.21449 7.49774H7.26453C5.27186 7.49575 3.43567 8.57601 2.46949 10.3186H8.31094C9.67002 9.67164 11.2038 9.48842 12.6769 9.79653C11.6496 8.35267 9.98639 7.49603 8.21449 7.49774ZM6.7695 13.3031C5.35864 14.7114 4.82462 16.7749 5.37514 18.6907L12.8294 11.2797C12.3216 11.1311 11.7956 11.0558 11.2667 11.0555C9.83333 11.0509 8.45746 11.6174 7.44292 12.6293L6.7695 13.3031ZM31.7183 34.5394C27.8234 34.5394 24.666 31.3819 24.666 27.4871C24.6703 23.5942 27.8252 20.4393 31.7183 20.4351C35.6129 20.4351 38.7703 23.5925 38.7703 27.4871C38.7703 31.3819 35.6129 34.5394 31.7183 34.5394ZM37.36 27.4871C37.36 24.3712 34.8342 21.8453 31.7183 21.8453C28.6038 21.8488 26.08 24.3729 26.0766 27.4871C26.0766 30.603 28.6024 33.1288 31.7183 33.1288C34.8342 33.1288 37.36 30.603 37.36 27.4871ZM35.7474 41.5915H27.6873V43.0018H35.7474V41.5915ZM24.666 38.7705H38.7706V40.1811H24.666V38.7705ZM10.5607 38.7706H9.15017V40.1811H10.5607V38.7706ZM4.91993 40.1809H6.33022V41.5915H4.91993V40.1809Z" fill="white"/>
  <path d="M9.22136 34.8022L8.97793 34.6624L8.82783 34.9239L9.09927 35.055L9.22136 34.8022ZM16.0062 13.9278L16.2041 13.7287L15.7897 13.3168L15.7271 13.8978L16.0062 13.9278ZM11.3549 35.9496L11.2098 36.1899L11.2767 36.2303H11.3549V35.9496ZM43.0014 35.9496H43.2821V35.6689H43.0014V35.9496ZM43.0014 37.3602V37.6409H43.2821V37.3602H43.0014ZM13.4443 37.3602V37.0795H12.5924L13.2774 37.5859L13.4443 37.3602ZM18.1275 41.8079L18.3054 42.025L18.5229 41.8468L18.3443 41.6295L18.1275 41.8079ZM17.0367 42.7015L16.8198 42.8797L16.9978 43.0963L17.2146 42.9186L17.0367 42.7015ZM8.50355 36.0162L8.62467 35.763L8.39637 35.6538L8.26418 35.8696L8.50355 36.0162ZM6.90748 38.4661L6.74655 38.696L6.97641 38.8569L7.13738 38.6271L6.90748 38.4661ZM5.75239 37.6578L5.52133 37.4984L5.36302 37.7279L5.59146 37.8878L5.75239 37.6578ZM14.6952 12.6225L14.975 12.6456L14.9857 12.5155L14.8931 12.4235L14.6952 12.6225ZM14.0875 12.0182L14.2854 11.8192L14.0876 11.6224L13.8897 11.8191L14.0875 12.0182ZM13.2758 12.8248L13.078 12.6257L13.003 12.7002L12.9958 12.8056L13.2758 12.8248ZM4.04992 35.6677L3.86983 35.883L4.08455 36.0626L4.26473 35.8484L4.04992 35.6677ZM2.96823 34.763L2.75297 34.5828L2.57277 34.7981L2.78814 34.9783L2.96823 34.763ZM3.31227 34.3375L3.09253 34.1629L3.09253 34.1629L3.31227 34.3375ZM3.39641 34.2318L3.61587 34.4068L3.89346 34.0587L3.4597 33.9583L3.39641 34.2318ZM1.29335 33.8269L1.33318 33.5488L1.32061 33.5476L1.29335 33.8269ZM0.882243 33.7868L0.60295 33.7587L0.574797 34.0388L0.854982 34.0662L0.882243 33.7868ZM1.02336 32.3828L1.05148 32.1035L0.77214 32.0754L0.744064 32.3547L1.02336 32.3828ZM1.46405 32.4272L1.50468 32.1491L1.49218 32.1479L1.46405 32.4272ZM4.34267 33.0138L4.27138 33.2853L4.45426 33.3333L4.56748 33.1819L4.34267 33.0138ZM11.7159 14.3762L11.9949 14.4074L12.0835 13.6149L11.518 14.1771L11.7159 14.3762ZM5.60843 20.4475L5.41054 20.2485L5.41038 20.2486L5.60843 20.4475ZM5.1114 20.6527V20.372L5.10933 20.372L5.1114 20.6527ZM4.99703 20.6436L5.04283 20.3666L5.04221 20.3665L4.99703 20.6436ZM4.48009 20.2629L4.73115 20.1374L4.73106 20.1372L4.48009 20.2629ZM5.77231 12.3059L5.97059 12.5046L5.97084 12.5043L5.77231 12.3059ZM6.349 11.7289L6.54753 11.9273L7.02643 11.4482H6.349V11.7289ZM1.16959 11.6925L1.25899 11.4264L1.25854 11.4262L1.16959 11.6925ZM0.724058 10.8003L0.990272 10.8893L0.990426 10.8888L0.724058 10.8003ZM7.26453 6.08716L7.26427 6.36786H7.26453V6.08716ZM8.19031 6.08716V6.36786H8.86575L8.38926 5.88914L8.19031 6.08716ZM4.66445 2.5448L4.46543 2.74275L4.4655 2.74282L4.66445 2.5448ZM4.53329 2.36243L4.78457 2.23732L4.78436 2.2369L4.53329 2.36243ZM4.84909 1.41645L4.97454 1.66756L4.97485 1.6674L4.84909 1.41645ZM12.8053 2.70782L12.6066 2.9061L12.6068 2.9063L12.8053 2.70782ZM13.4787 3.38124L13.6786 3.18417L13.6772 3.18275L13.4787 3.38124ZM14.0847 4.08653L13.8597 4.25437L14.0833 4.55413L14.3087 4.25568L14.0847 4.08653ZM14.6961 3.38124L14.4976 3.18275L14.497 3.1834L14.6961 3.38124ZM15.3695 2.70782L15.568 2.9063L15.5682 2.90611L15.3695 2.70782ZM23.3308 1.41645L23.205 1.66738L23.2057 1.66773L23.3308 1.41645ZM23.5132 1.54761L23.7112 1.34871L23.7111 1.34859L23.5132 1.54761ZM23.5154 2.5448L23.3165 2.34672L23.3164 2.34689L23.5154 2.5448ZM19.9936 6.08716L19.7945 5.88925L19.3187 6.36786H19.9936V6.08716ZM20.9102 6.08716V6.36786H20.9105L20.9102 6.08716ZM27.4507 10.8003L27.7171 10.7118L27.7171 10.7117L27.4507 10.8003ZM27.4868 11.0242L27.2061 11.0231V11.0242H27.4868ZM26.7813 11.7289L26.7815 11.4482H26.7813V11.7289ZM21.8209 11.7289V11.4482H21.1435L21.6224 11.9273L21.8209 11.7289ZM22.3976 12.3059L22.1991 12.5043L22.1993 12.5046L22.3976 12.3059ZM23.6896 20.2629L23.4386 20.1372L23.4383 20.1376L23.6896 20.2629ZM23.1726 20.6436L23.1275 20.3665L23.1265 20.3667L23.1726 20.6436ZM23.0585 20.6527L23.0606 20.372L23.0598 20.372L23.0585 20.6527ZM22.5649 20.4475L22.763 20.2486L22.7628 20.2485L22.5649 20.4475ZM22.7996 18.6907L22.6017 18.8898L22.9383 19.2244L23.0694 18.7682L22.7996 18.6907ZM15.3484 11.2825L15.2681 11.0135L14.8157 11.1486L15.1505 11.4816L15.3484 11.2825ZM21.4056 13.3031L21.207 13.5015L21.2072 13.5017L21.4056 13.3031ZM20.7321 12.6293L20.9307 12.4309L20.9296 12.4299L20.7321 12.6293ZM25.7053 10.3186V10.5993H26.1818L25.9508 10.1825L25.7053 10.3186ZM19.8661 10.3186L19.7455 10.5721L19.8027 10.5993H19.8661V10.3186ZM20.9077 7.49774V7.77844L20.9081 7.77844L20.9077 7.49774ZM19.9557 7.49774L19.9557 7.77844H19.9557V7.49774ZM15.4978 9.79739L15.2691 9.63471L14.8532 10.2194L15.5554 10.0721L15.4978 9.79739ZM15.691 4.37843L15.4925 4.1799L15.0131 4.65913H15.691V4.37843ZM16.3647 3.70501L16.5631 3.90353L16.5633 3.90337L16.3647 3.70501ZM15.6933 4.37843L15.8929 4.5758L16.3656 4.09773H15.6933V4.37843ZM14.2454 9.1288L13.9697 9.18123L14.0971 9.85148L14.4782 9.28561L14.2454 9.1288ZM17.5747 6.51591L17.6716 6.77934L17.73 6.75788L17.7738 6.71381L17.5747 6.51591ZM21.7552 2.31065L21.9543 2.50855L22.2889 2.17195L21.8327 2.04087L21.7552 2.31065ZM11.8061 3.70501V3.42431H11.1284L11.6076 3.90349L11.8061 3.70501ZM12.4795 4.37843L12.68 4.18199L12.678 4.17994L12.4795 4.37843ZM11.8081 3.70501V3.98571H12.485L12.0067 3.50668L11.8081 3.70501ZM6.41956 2.31065L6.34204 2.04086L5.8858 2.17194L6.22051 2.50857L6.41956 2.31065ZM10.6009 6.51591L10.4019 6.71383L10.4457 6.75789L10.504 6.77934L10.6009 6.51591ZM12.7518 7.79106L12.5671 8.00244L13.0055 8.38552L13.0322 7.80391L12.7518 7.79106ZM13.2906 5.44674L13.5485 5.55765L13.6041 5.42829L13.5337 5.30635L13.2906 5.44674ZM7.26453 7.49774L7.26425 7.77844H7.26453V7.49774ZM8.21449 7.49774V7.77844H8.21477L8.21449 7.49774ZM2.46949 10.3186L2.224 10.1825L1.9929 10.5993H2.46949V10.3186ZM8.31094 10.3186V10.5993H8.37434L8.43159 10.572L8.31094 10.3186ZM12.6769 9.79653L12.6195 10.0713L13.3214 10.2181L12.9057 9.6338L12.6769 9.79653ZM5.37514 18.6907L5.10536 18.7682L5.23644 19.2244L5.57305 18.8898L5.37514 18.6907ZM6.7695 13.3031L6.9678 13.5017L6.96802 13.5015L6.7695 13.3031ZM12.8294 11.2797L13.0273 11.4787L13.3644 11.1436L12.9082 11.0102L12.8294 11.2797ZM11.2667 11.0555L11.2658 11.3362H11.2665L11.2667 11.0555ZM7.44292 12.6293L7.24468 12.4306L7.24439 12.4309L7.44292 12.6293ZM24.666 27.4871L24.3853 27.4868V27.4871H24.666ZM31.7183 20.4351V20.1544H31.718L31.7183 20.4351ZM31.7183 21.8453V21.5646H31.718L31.7183 21.8453ZM26.0766 27.4871L25.7959 27.4868V27.4871H26.0766ZM27.6873 41.5915V41.3108H27.4066V41.5915H27.6873ZM35.7474 41.5915H36.0281V41.3108H35.7474V41.5915ZM27.6873 43.0018H27.4066V43.2825H27.6873V43.0018ZM35.7474 43.0018V43.2825H36.0281V43.0018H35.7474ZM38.7706 38.7705H39.0513V38.4898H38.7706V38.7705ZM24.666 38.7705V38.4898H24.3853V38.7705H24.666ZM38.7706 40.1811V40.4618H39.0513V40.1811H38.7706ZM24.666 40.1811H24.3853V40.4618H24.666V40.1811ZM9.15017 38.7706V38.4899H8.86947V38.7706H9.15017ZM10.5607 38.7706H10.8414V38.4899H10.5607V38.7706ZM9.15017 40.1811H8.86947V40.4618H9.15017V40.1811ZM10.5607 40.1811V40.4618H10.8414V40.1811H10.5607ZM6.33022 40.1809H6.61092V39.9002H6.33022V40.1809ZM4.91993 40.1809V39.9002H4.63923V40.1809H4.91993ZM6.33022 41.5915V41.8722H6.61092V41.5915H6.33022ZM4.91993 41.5915H4.63923V41.8722H4.91993V41.5915ZM9.46478 34.942C13.1665 28.495 15.4891 21.3493 16.2853 13.9579L15.7271 13.8978C14.9392 21.2119 12.6409 28.2828 8.97793 34.6624L9.46478 34.942ZM11.4999 35.7093C10.7997 35.2866 10.0783 34.9044 9.34344 34.5495L9.09927 35.055C9.82168 35.4039 10.5273 35.7779 11.2098 36.1899L11.4999 35.7093ZM43.0014 35.6689H11.3549V36.2303H43.0014V35.6689ZM43.2821 37.3602V35.9496H42.7207V37.3602H43.2821ZM13.4443 37.6409H43.0014V37.0795H13.4443V37.6409ZM18.3443 41.6295C16.9569 39.9429 15.3674 38.433 13.6111 37.1345L13.2774 37.5859C14.9966 38.857 16.5526 40.335 17.9107 41.9862L18.3443 41.6295ZM17.2146 42.9186L18.3054 42.025L17.9496 41.5907L16.8588 42.4843L17.2146 42.9186ZM8.38243 36.2694C11.6442 37.8296 14.5243 40.086 16.8198 42.8797L17.2536 42.5233C14.906 39.6662 11.9605 37.3585 8.62467 35.763L8.38243 36.2694ZM7.13738 38.6271C7.69603 37.8297 8.22812 37.0033 8.74292 36.1628L8.26418 35.8696C7.75363 36.7031 7.22793 37.5194 6.67758 38.305L7.13738 38.6271ZM5.59146 37.8878L6.74655 38.696L7.06841 38.2361L5.91333 37.4278L5.59146 37.8878ZM14.4155 12.5994C13.6781 21.5338 10.6114 30.1189 5.52133 37.4984L5.98346 37.8172C11.1293 30.3569 14.2295 21.6777 14.975 12.6456L14.4155 12.5994ZM13.8896 12.2173L14.4973 12.8216L14.8931 12.4235L14.2854 11.8192L13.8896 12.2173ZM13.4737 13.0239L14.2854 12.2173L13.8897 11.8191L13.078 12.6257L13.4737 13.0239ZM4.26473 35.8484C9.72258 29.3593 12.9763 21.3034 13.5559 12.844L12.9958 12.8056C12.4243 21.1462 9.21631 29.0891 3.8351 35.487L4.26473 35.8484ZM2.78814 34.9783L3.86983 35.883L4.23001 35.4524L3.14832 34.5476L2.78814 34.9783ZM3.09253 34.1629C2.97893 34.3058 2.86727 34.4462 2.75297 34.5828L3.18349 34.9431C3.3031 34.8002 3.41914 34.6542 3.532 34.5122L3.09253 34.1629ZM3.17695 34.0568C3.14875 34.0921 3.12058 34.1276 3.09253 34.1629L3.532 34.5122C3.56009 34.4768 3.588 34.4417 3.61587 34.4068L3.17695 34.0568ZM1.25356 34.1048C1.94828 34.2043 2.64067 34.345 3.33312 34.5053L3.4597 33.9583C2.75808 33.7959 2.049 33.6516 1.33314 33.5491L1.25356 34.1048ZM0.854982 34.0662L1.26609 34.1063L1.32061 33.5476L0.909503 33.5074L0.854982 34.0662ZM0.744064 32.3547L0.60295 33.7587L1.16154 33.8149L1.30265 32.4109L0.744064 32.3547ZM1.49218 32.1479L1.05148 32.1035L0.99523 32.6621L1.43593 32.7065L1.49218 32.1479ZM4.41397 32.7423C3.45593 32.4907 2.48463 32.2926 1.50464 32.1494L1.42347 32.7049C2.38267 32.8451 3.33347 33.039 4.27138 33.2853L4.41397 32.7423ZM11.4369 14.345C10.6863 21.0532 8.15978 27.4397 4.11786 32.8457L4.56748 33.1819C8.66922 27.6959 11.2331 21.2149 11.9949 14.4074L11.4369 14.345ZM5.80633 20.6466L11.9138 14.5753L11.518 14.1771L5.41054 20.2485L5.80633 20.6466ZM5.1114 20.9334C5.37188 20.9334 5.62179 20.8303 5.80649 20.6464L5.41038 20.2486C5.33105 20.3276 5.22363 20.372 5.1114 20.372V20.9334ZM4.95123 20.9205C5.00422 20.9293 5.05836 20.9338 5.11348 20.9334L5.10933 20.372C5.08763 20.3721 5.06552 20.3704 5.04283 20.3666L4.95123 20.9205ZM4.22902 20.3884C4.37055 20.6715 4.63938 20.8696 4.95186 20.9206L5.04221 20.3665C4.90801 20.3446 4.79219 20.2594 4.73115 20.1374L4.22902 20.3884ZM5.57402 12.1072C3.38758 14.2892 2.84572 17.6269 4.22911 20.3886L4.73106 20.1372C3.45604 17.5918 3.95547 14.5156 5.97059 12.5046L5.57402 12.1072ZM6.15046 11.5305L5.57377 12.1074L5.97084 12.5043L6.54753 11.9273L6.15046 11.5305ZM1.3935 12.0096H6.349V11.4482H1.3935V12.0096ZM1.0802 11.9586C1.18137 11.9925 1.28726 12.0096 1.3935 12.0096V11.4482C1.34724 11.4482 1.30177 11.4408 1.25899 11.4264L1.0802 11.9586ZM0.457845 10.7113C0.285155 11.2277 0.56415 11.7861 1.08064 11.9587L1.25854 11.4262C1.03589 11.3519 0.916011 11.1114 0.990272 10.8893L0.457845 10.7113ZM7.2648 5.80646C4.17558 5.8035 1.43217 7.78028 0.45769 10.7117L0.990426 10.8888C1.88855 8.18706 4.41702 6.36513 7.26427 6.36786L7.2648 5.80646ZM8.19031 5.80646H7.26453V6.36786H8.19031V5.80646ZM4.4655 2.74282L7.99136 6.28518L8.38926 5.88914L4.86339 2.34677L4.4655 2.74282ZM4.28201 2.48754C4.32927 2.58245 4.39146 2.66838 4.46543 2.74275L4.86346 2.34684C4.83103 2.31423 4.80446 2.27727 4.78457 2.23732L4.28201 2.48754ZM4.72364 1.16534C4.23654 1.4087 4.0387 2.00091 4.28222 2.48796L4.78436 2.2369C4.67965 2.02748 4.76461 1.77244 4.97454 1.66756L4.72364 1.16534ZM13.0039 2.50953C10.8222 0.323362 7.48451 -0.218203 4.72333 1.1655L4.97485 1.6674C7.51968 0.392124 10.5958 0.891276 12.6066 2.9061L13.0039 2.50953ZM13.6772 3.18275L13.0037 2.50933L12.6068 2.9063L13.2802 3.57972L13.6772 3.18275ZM14.3097 3.91868C14.1164 3.65963 13.9054 3.4143 13.6786 3.18417L13.2788 3.5783C13.4878 3.79029 13.6819 4.01611 13.8597 4.25437L14.3097 3.91868ZM14.497 3.1834C14.2683 3.41355 14.056 3.65872 13.8607 3.91737L14.3087 4.25568C14.4889 4.01702 14.6846 3.79105 14.8952 3.57908L14.497 3.1834ZM15.171 2.50933L14.4976 3.18275L14.8946 3.57972L15.568 2.9063L15.171 2.50933ZM23.4566 1.16552C20.6937 -0.219632 17.3543 0.321932 15.1708 2.50952L15.5682 2.90611C17.5806 0.889862 20.6585 0.390708 23.205 1.66738L23.4566 1.16552ZM23.7111 1.34859C23.6367 1.27462 23.5508 1.21243 23.4559 1.16517L23.2057 1.66773C23.2456 1.68762 23.2826 1.71419 23.3152 1.74662L23.7111 1.34859ZM23.7143 2.74287C24.0987 2.35694 24.0969 1.73283 23.7112 1.34871L23.3151 1.7465C23.4813 1.91205 23.4819 2.18071 23.3165 2.34672L23.7143 2.74287ZM20.1926 6.28507L23.7145 2.7427L23.3164 2.34689L19.7945 5.88925L20.1926 6.28507ZM20.9102 5.80646H19.9936V6.36786H20.9102V5.80646ZM27.7171 10.7117C26.7423 7.78029 23.9992 5.8035 20.91 5.80646L20.9105 6.36786C23.7577 6.36513 26.2859 8.18705 27.1843 10.8888L27.7171 10.7117ZM27.7675 11.0252C27.7679 10.9176 27.7503 10.8117 27.7171 10.7118L27.1843 10.8887C27.1989 10.9328 27.2063 10.9783 27.2061 11.0231L27.7675 11.0252ZM26.7811 12.0096C27.3255 12.01 27.7675 11.5689 27.7675 11.0242H27.2061C27.2061 11.2584 27.016 11.4484 26.7815 11.4482L26.7811 12.0096ZM21.8209 12.0096H26.7813V11.4482H21.8209V12.0096ZM22.5962 12.1074L22.0195 11.5305L21.6224 11.9273L22.1991 12.5043L22.5962 12.1074ZM23.9405 20.3886C25.3242 17.6269 24.7823 14.2892 22.5959 12.1072L22.1993 12.5046C24.2145 14.5156 24.7139 17.5918 23.4386 20.1372L23.9405 20.3886ZM23.2177 20.9206C23.5304 20.8697 23.7995 20.6715 23.9408 20.3881L23.4383 20.1376C23.3776 20.2594 23.262 20.3446 23.1275 20.3665L23.2177 20.9206ZM23.0564 20.9334C23.1112 20.9338 23.1657 20.9293 23.2187 20.9204L23.1265 20.3667C23.1044 20.3704 23.0821 20.3721 23.0606 20.372L23.0564 20.9334ZM22.3669 20.6465C22.5503 20.8291 22.7982 20.9322 23.0572 20.9334L23.0598 20.372C22.9484 20.3714 22.8418 20.3271 22.763 20.2486L22.3669 20.6465ZM15.8083 14.1269L22.367 20.6466L22.7628 20.2485L16.2041 13.7287L15.8083 14.1269ZM22.9975 18.4917L15.5464 11.0834L15.1505 11.4816L22.6017 18.8898L22.9975 18.4917ZM21.2072 13.5017C22.5458 14.8378 23.0521 16.7955 22.5298 18.6132L23.0694 18.7682C23.6481 16.7542 23.0871 14.5849 21.6039 13.1044L21.2072 13.5017ZM20.5336 12.8278L21.207 13.5015L21.6041 13.1046L20.9307 12.4309L20.5336 12.8278ZM15.4287 11.5515C17.2363 11.0118 19.1941 11.5016 20.5346 12.8288L20.9296 12.4299C19.4433 10.9582 17.2724 10.4152 15.2681 11.0135L15.4287 11.5515ZM25.7053 10.0379H19.8661V10.5993H25.7053V10.0379ZM20.9081 7.77844C22.7994 7.77547 24.5428 8.80062 25.4598 10.4547L25.9508 10.1825C24.9348 8.34969 23.0029 7.21375 20.9072 7.21704L20.9081 7.77844ZM19.9557 7.77844H20.9077V7.21704H19.9557V7.77844ZM15.7266 9.96007C16.7001 8.5911 18.2758 7.77817 19.9557 7.77844L19.9558 7.21704C18.0941 7.21674 16.3479 8.11766 15.2691 9.63471L15.7266 9.96007ZM19.9867 10.0651C18.5713 9.39149 16.9744 9.20079 15.4402 9.52267L15.5554 10.0721C16.9693 9.77547 18.441 9.95121 19.7455 10.5721L19.9867 10.0651ZM15.8894 4.57695L16.5631 3.90353L16.1663 3.50648L15.4925 4.1799L15.8894 4.57695ZM15.6933 4.09773H15.691V4.65913H15.6933V4.09773ZM14.5212 9.07637C14.2104 7.4418 14.7231 5.75877 15.8929 4.5758L15.4937 4.18106C14.1939 5.49546 13.6244 7.36533 13.9697 9.18123L14.5212 9.07637ZM17.4778 6.25248C16.0655 6.77218 14.8533 7.72391 14.0126 8.97199L14.4782 9.28561C15.253 8.13532 16.3702 7.25825 17.6716 6.77934L17.4778 6.25248ZM21.5561 2.11275L17.3756 6.31801L17.7738 6.71381L21.9543 2.50855L21.5561 2.11275ZM16.5633 3.90337C17.9006 2.56449 19.8592 2.05785 21.6777 2.58043L21.8327 2.04087C19.8178 1.46185 17.6477 2.02323 16.1661 3.50664L16.5633 3.90337ZM11.6076 3.90349L12.281 4.57691L12.678 4.17994L12.0046 3.50652L11.6076 3.90349ZM11.8081 3.42431H11.8061V3.98571H11.8081V3.42431ZM6.49707 2.58043C8.31501 2.05813 10.273 2.56478 11.6094 3.90333L12.0067 3.50668C10.5259 2.02352 8.35638 1.46213 6.34204 2.04086L6.49707 2.58043ZM10.8 6.31799L6.61861 2.11273L6.22051 2.50857L10.4019 6.71383L10.8 6.31799ZM12.9365 7.57968C12.2775 7.00396 11.5186 6.55448 10.6979 6.25248L10.504 6.77934C11.2606 7.05773 11.96 7.47201 12.5671 8.00244L12.9365 7.57968ZM13.0328 5.33584C12.6999 6.10977 12.5099 6.93705 12.4714 7.77822L13.0322 7.80391C13.0676 7.03022 13.2424 6.2694 13.5485 5.55765L13.0328 5.33584ZM12.279 4.57486C12.5766 4.87866 12.8348 5.21887 13.0476 5.58714L13.5337 5.30635C13.2975 4.89735 13.0106 4.51947 12.68 4.182L12.279 4.57486ZM7.26453 7.77844H8.21449V7.21704H7.26453V7.77844ZM2.71499 10.4547C3.63164 8.80144 5.37371 7.77655 7.26425 7.77844L7.26481 7.21704C5.17002 7.21494 3.2397 8.35058 2.224 10.1825L2.71499 10.4547ZM8.31094 10.0379H2.46949V10.5993H8.31094V10.0379ZM12.7344 9.52178C11.2012 9.2011 9.60484 9.39178 8.19029 10.0652L8.43159 10.572C9.7352 9.95149 11.2064 9.77574 12.6195 10.0713L12.7344 9.52178ZM8.21477 7.77844C9.89575 7.77682 11.4736 8.58951 12.4482 9.95927L12.9057 9.6338C11.8256 8.11584 10.077 7.21524 8.21422 7.21704L8.21477 7.77844ZM5.64492 18.6132C5.12263 16.7955 5.62926 14.8378 6.9678 13.5017L6.57119 13.1044C5.08801 14.5849 4.52662 16.7542 5.10536 18.7682L5.64492 18.6132ZM12.6315 11.0806L5.17723 18.4917L5.57305 18.8898L13.0273 11.4787L12.6315 11.0806ZM11.2665 11.3362C11.7688 11.3364 12.2684 11.408 12.7507 11.5491L12.9082 11.0102C12.3748 10.8543 11.8223 10.7751 11.2668 10.7748L11.2665 11.3362ZM7.64115 12.8281C8.60286 11.8688 9.90707 11.3319 11.2658 11.3362L11.2676 10.7748C9.75958 10.77 8.31206 11.3659 7.24468 12.4306L7.64115 12.8281ZM6.96802 13.5015L7.64145 12.8278L7.24439 12.4309L6.57097 13.1046L6.96802 13.5015ZM24.3853 27.4871C24.3853 31.537 27.6684 34.8201 31.7183 34.8201V34.2587C27.9785 34.2587 24.9467 31.2269 24.9467 27.4871H24.3853ZM31.718 20.1544C27.6701 20.1588 24.3898 23.4391 24.3853 27.4868L24.9467 27.4874C24.9508 23.7493 27.9802 20.7199 31.7186 20.7158L31.718 20.1544ZM39.051 27.4871C39.051 23.4375 35.7679 20.1544 31.7183 20.1544V20.7158C35.4579 20.7158 38.4896 23.7475 38.4896 27.4871H39.051ZM31.7183 34.8201C35.7679 34.8201 39.051 31.537 39.051 27.4871H38.4896C38.4896 31.2269 35.4579 34.2587 31.7183 34.2587V34.8201ZM31.7183 22.126C34.6792 22.126 37.0793 24.5262 37.0793 27.4871H37.6407C37.6407 24.2162 34.9892 21.5646 31.7183 21.5646V22.126ZM26.3573 27.4874C26.3605 24.528 28.7589 22.1293 31.7186 22.126L31.718 21.5646C28.4487 21.5682 25.7995 24.2178 25.7959 27.4868L26.3573 27.4874ZM31.7183 32.8481C28.7574 32.8481 26.3573 30.4479 26.3573 27.4871H25.7959C25.7959 30.758 28.4474 33.4095 31.7183 33.4095V32.8481ZM37.0793 27.4871C37.0793 30.4479 34.6792 32.8481 31.7183 32.8481V33.4095C34.9892 33.4095 37.6407 30.758 37.6407 27.4871H37.0793ZM27.6873 41.8722H35.7474V41.3108H27.6873V41.8722ZM27.9681 43.0018V41.5915H27.4066V43.0018H27.9681ZM35.7474 42.7211H27.6873V43.2825H35.7474V42.7211ZM35.4667 41.5915V43.0018H36.0281V41.5915H35.4667ZM38.7706 38.4898H24.666V39.0512H38.7706V38.4898ZM39.0513 40.1811V38.7705H38.4899V40.1811H39.0513ZM24.666 40.4618H38.7706V39.9004H24.666V40.4618ZM24.3853 38.7705V40.1811H24.9467V38.7705H24.3853ZM9.15017 39.0513H10.5607V38.4899H9.15017V39.0513ZM9.43087 40.1811V38.7706H8.86947V40.1811H9.43087ZM10.5607 39.9004H9.15017V40.4618H10.5607V39.9004ZM10.28 38.7706V40.1811H10.8414V38.7706H10.28ZM6.33022 39.9002H4.91993V40.4616H6.33022V39.9002ZM6.61092 41.5915V40.1809H6.04952V41.5915H6.61092ZM4.91993 41.8722H6.33022V41.3108H4.91993V41.8722ZM4.63923 40.1809V41.5915H5.20063V40.1809H4.63923Z" fill="white"/>
</svg>