<?xml version="1.0" encoding="UTF-8"?>
<svg xmlns="http://www.w3.org/2000/svg" width="92" height="53" viewBox="0 0 92 53" fill="none">
  <path d="M34.5607 10.066C33.468 10.066 32.544 9.66267 31.7887 8.856L32.4047 8.13C32.676 8.46733 33.006 8.724 33.3947 8.9C33.7834 9.076 34.1757 9.164 34.5717 9.164C35.0557 9.164 35.4407 9.05767 35.7267 8.845C36.02 8.63233 36.1667 8.339 36.1667 7.965C36.1667 7.75967 36.13 7.58367 36.0567 7.437C35.9907 7.29033 35.8734 7.162 35.7047 7.052C35.536 6.93467 35.371 6.843 35.2097 6.777C35.0557 6.70367 34.832 6.612 34.5387 6.502C34.4874 6.48 34.447 6.46533 34.4177 6.458C34.1317 6.35533 33.897 6.26733 33.7137 6.194C33.5377 6.11333 33.3324 6.00333 33.0977 5.864C32.8704 5.72467 32.6907 5.58533 32.5587 5.446C32.434 5.29933 32.324 5.11967 32.2287 4.907C32.1334 4.687 32.0857 4.445 32.0857 4.181C32.0857 3.60167 32.3167 3.114 32.7787 2.718C33.2407 2.322 33.8054 2.12033 34.4727 2.113C35.3527 2.113 36.1777 2.41733 36.9477 3.026L36.3647 3.774C35.756 3.26067 35.1254 3.004 34.4727 3.004C34.0914 3.004 33.765 3.10667 33.4937 3.312C33.2224 3.51 33.0867 3.785 33.0867 4.137C33.0867 4.28367 33.116 4.41933 33.1747 4.544C33.2334 4.66133 33.2994 4.76033 33.3727 4.841C33.446 4.91433 33.5744 4.99867 33.7577 5.094C33.941 5.18933 34.084 5.26267 34.1867 5.314C34.2967 5.358 34.4837 5.43133 34.7477 5.534C35.5544 5.842 36.086 6.084 36.3427 6.26C36.8927 6.634 37.1677 7.16933 37.1677 7.866C37.1677 8.55533 36.911 9.09433 36.3977 9.483C35.8917 9.87167 35.2794 10.066 34.5607 10.066ZM42.3045 10.066C41.1458 10.066 40.1998 9.692 39.4665 8.944C38.7405 8.18867 38.3775 7.239 38.3775 6.095C38.3775 4.951 38.7405 4.00133 39.4665 3.246C40.1998 2.49067 41.1458 2.113 42.3045 2.113C43.4192 2.113 44.3468 2.48333 45.0875 3.224C45.8282 3.95733 46.1985 4.91433 46.1985 6.095C46.1985 7.26833 45.8282 8.22533 45.0875 8.966C44.3468 9.69933 43.4192 10.066 42.3045 10.066ZM42.3045 9.153C43.1258 9.153 43.8115 8.867 44.3615 8.295C44.9188 7.71567 45.1975 6.98233 45.1975 6.095C45.1975 5.20033 44.9188 4.467 44.3615 3.895C43.8115 3.31567 43.1258 3.026 42.3045 3.026C41.4465 3.026 40.7425 3.323 40.1925 3.917C39.6425 4.50367 39.3675 5.22967 39.3675 6.095C39.3675 6.96033 39.6425 7.68633 40.1925 8.273C40.7425 8.85967 41.4465 9.153 42.3045 9.153ZM48.9955 10V3.07H46.6525V2.19H52.3065V3.07H49.9525V10H48.9955ZM53.6502 10V2.19H55.9932C57.2178 2.19 58.1968 2.553 58.9302 3.279C59.6708 3.99767 60.0412 4.94 60.0412 6.106C60.0412 7.272 59.6782 8.21433 58.9522 8.933C58.2335 9.64433 57.2582 10 56.0262 10H53.6502ZM54.6072 9.131H55.9602C56.8915 9.131 57.6395 8.84867 58.2042 8.284C58.7762 7.71933 59.0622 6.99333 59.0622 6.106C59.0622 5.204 58.7798 4.47067 58.2152 3.906C57.6505 3.34133 56.9135 3.059 56.0042 3.059H54.6072V9.131ZM30.2449 23L29.7169 21.438H26.7139L26.1859 23H24.5689L27.4619 15.19H28.9469L31.8619 23H30.2449ZM27.1649 20.118H29.2659L28.2209 17.049H28.1989L27.1649 20.118ZM40.6296 15.19H42.2796L39.8156 23H38.3856L36.9226 17.445H36.8896L35.3716 23H33.9526L31.4886 15.19H33.1386L34.6566 20.47H34.6786L36.0646 15.19H37.7036L39.0896 20.47H39.1006L40.6296 15.19ZM47.5935 23L47.0655 21.438H44.0625L43.5345 23H41.9175L44.8105 15.19H46.2955L49.2105 23H47.5935ZM44.5135 20.118H46.6145L45.5695 17.049H45.5475L44.5135 20.118ZM56.2532 23H54.4272L52.6782 20.327H51.7762V23H50.2472V15.19H53.2062C54.1082 15.19 54.7865 15.4283 55.2412 15.905C55.6958 16.3743 55.9232 17.0013 55.9232 17.786C55.9232 19.0033 55.3878 19.788 54.3172 20.14L56.2532 23ZM51.7762 16.565V18.963H52.8542C53.3235 18.963 53.6865 18.8567 53.9432 18.644C54.1998 18.424 54.3282 18.127 54.3282 17.753C54.3282 17.3863 54.2035 17.0967 53.9542 16.884C53.7122 16.6713 53.3675 16.565 52.9202 16.565H51.7762ZM57.4337 23V15.19H60.0187C61.2434 15.19 62.226 15.553 62.9667 16.279C63.7074 16.9977 64.0777 17.94 64.0777 19.106C64.0777 20.272 63.7147 21.2143 62.9887 21.933C62.27 22.6443 61.291 23 60.0517 23H57.4337ZM58.9627 21.625H59.9527C60.7007 21.625 61.3057 21.3867 61.7677 20.91C62.237 20.4333 62.4717 19.832 62.4717 19.106C62.4717 18.3727 62.2444 17.7677 61.7897 17.291C61.335 16.8143 60.7557 16.576 60.0517 16.576H58.9627V21.625ZM20.2081 28.19H21.2311L18.7341 36H17.8101L16.0061 29.598H15.9951L14.1581 36H13.2341L10.7371 28.19H11.7601L13.6851 34.427H13.7071L15.4671 28.19H16.5121L18.2721 34.449H18.2831L20.2081 28.19ZM22.6656 36V28.19H23.6336V36H22.6656ZM31.0511 28.19H32.0081V36H31.0291L26.6511 29.84H26.6291V36H25.6721V28.19H26.6181L31.0291 34.416H31.0511V28.19ZM39.3656 28.19H40.3226V36H39.3436L34.9656 29.84H34.9436V36H33.9866V28.19H34.9326L39.3436 34.416H39.3656V28.19ZM42.301 36V28.19H47.086V29.07H43.269V31.677H46.404V32.557H43.269V35.12H47.317V36H42.301ZM54.4413 36H53.2863L51.3063 33.019H49.8323V36H48.8753V28.19H51.6473C52.5126 28.19 53.1579 28.41 53.5833 28.85C54.0159 29.29 54.2323 29.8767 54.2323 30.61C54.2323 31.2553 54.0673 31.7723 53.7373 32.161C53.4146 32.5497 52.9599 32.8063 52.3733 32.931V32.942L54.4413 36ZM49.8323 29.07V32.139H51.3943C52.0176 32.139 52.4796 31.9997 52.7803 31.721C53.0883 31.435 53.2423 31.0573 53.2423 30.588C53.2423 30.0967 53.0919 29.7227 52.7913 29.466C52.4906 29.202 52.0689 29.07 51.5263 29.07H49.8323ZM59.8736 35.153H63.2286V36H58.4766L58.4656 35.362L61.0506 32.722C61.432 32.326 61.718 31.974 61.9086 31.666C62.1066 31.358 62.2056 31.0353 62.2056 30.698C62.2056 30.28 62.0736 29.9353 61.8096 29.664C61.5456 29.3853 61.2046 29.246 60.7866 29.246C60.0606 29.246 59.518 29.5907 59.1586 30.28L58.4766 29.807C58.9606 28.8537 59.749 28.377 60.8416 28.377C61.4723 28.377 62.0113 28.5787 62.4586 28.982C62.906 29.3853 63.1296 29.9243 63.1296 30.599C63.1296 31.0317 63.0306 31.446 62.8326 31.842C62.6346 32.238 62.3046 32.6707 61.8426 33.14L59.8736 35.131V35.153ZM67.2269 36.066C66.3836 36.066 65.6979 35.7287 65.1699 35.054C64.6493 34.372 64.3889 33.4297 64.3889 32.227C64.3889 31.083 64.6419 30.1553 65.1479 29.444C65.6539 28.7327 66.3469 28.377 67.2269 28.377C68.0703 28.377 68.7523 28.718 69.2729 29.4C69.8009 30.0747 70.0649 31.017 70.0649 32.227C70.0649 33.371 69.8119 34.2987 69.3059 35.01C68.8073 35.714 68.1143 36.066 67.2269 36.066ZM67.2269 35.208C67.8283 35.208 68.2939 34.9403 68.6239 34.405C68.9613 33.8697 69.1299 33.1437 69.1299 32.227C69.1299 31.281 68.9539 30.5477 68.6019 30.027C68.2573 29.499 67.7989 29.235 67.2269 29.235C66.6329 29.235 66.1673 29.5063 65.8299 30.049C65.4926 30.5843 65.3239 31.3103 65.3239 32.227C65.3239 33.1657 65.4963 33.899 65.8409 34.427C66.1929 34.9477 66.6549 35.208 67.2269 35.208ZM72.8157 36V29.565L71.3087 30.698L70.8467 30.005L72.9697 28.443H73.7397V36H72.8157ZM78.1947 36.066C77.3514 36.066 76.6657 35.7287 76.1377 35.054C75.6171 34.372 75.3567 33.4297 75.3567 32.227C75.3567 31.083 75.6097 30.1553 76.1157 29.444C76.6217 28.7327 77.3147 28.377 78.1947 28.377C79.0381 28.377 79.7201 28.718 80.2407 29.4C80.7687 30.0747 81.0327 31.017 81.0327 32.227C81.0327 33.371 80.7797 34.2987 80.2737 35.01C79.7751 35.714 79.0821 36.066 78.1947 36.066ZM78.1947 35.208C78.7961 35.208 79.2617 34.9403 79.5917 34.405C79.9291 33.8697 80.0977 33.1437 80.0977 32.227C80.0977 31.281 79.9217 30.5477 79.5697 30.027C79.2251 29.499 78.7667 29.235 78.1947 29.235C77.6007 29.235 77.1351 29.5063 76.7977 30.049C76.4604 30.5843 76.2917 31.3103 76.2917 32.227C76.2917 33.1657 76.4641 33.899 76.8087 34.427C77.1607 34.9477 77.6227 35.208 78.1947 35.208Z" fill="white"></path>
  <g clip-path="url(#clip0_10152_9073)">
    <path d="M15.2766 47.7084C15.5071 46.5425 16.5674 45.7354 18.0426 45.7354C19.7482 45.7354 21.0851 46.4528 21.0851 48.695V52.8654H19.6099L19.4255 51.9685C18.9184 52.5963 18.227 52.9999 17.2128 52.9999C15.9681 52.9999 15 52.2376 15 50.8475C15 49.4573 16.2908 48.5605 18.0887 48.5605H19.2872V48.2466C19.2872 47.4394 18.6879 47.2152 17.9965 47.2152C17.4894 47.2152 16.9823 47.3945 16.7518 48.0223L15.2766 47.7084ZM17.6277 51.5201C18.4574 51.5201 19.2872 50.982 19.2872 50.0851V49.9506H18.1348C17.3511 49.9058 16.8901 50.2197 16.8901 50.8475C16.8901 51.1614 17.1667 51.5201 17.6277 51.5201Z" fill="white"></path>
    <path d="M50.0364 47.7084C50.2669 46.5425 51.3271 45.7354 52.8023 45.7354C54.508 45.7354 55.8449 46.4528 55.8449 48.695V52.8654H54.3697L54.1853 51.9685C53.6782 52.5963 52.9867 52.9999 51.9725 52.9999C50.7278 52.9999 49.7598 52.2376 49.7598 50.8475C49.7598 49.4573 51.0505 48.5605 52.8484 48.5605H54.047V48.2466C54.047 47.4394 53.4477 47.2152 52.7562 47.2152C52.2491 47.2152 51.742 47.3945 51.5115 48.0223L50.0364 47.7084ZM52.3874 51.5201C53.2172 51.5201 54.047 50.982 54.047 50.0851V49.9506H52.8484C52.0647 49.9506 51.6037 50.2197 51.6037 50.8475C51.6498 51.1614 51.9264 51.5201 52.3874 51.5201Z" fill="white"></path>
    <path d="M57.457 52.9102V45.825H59.2549V46.991C59.762 46.1389 60.5918 45.7354 61.3755 45.7354C61.6982 45.7354 61.9748 45.7802 62.2514 45.8699L61.9287 47.4842C61.6982 47.3497 61.4677 47.26 61.1911 47.26C60.1308 47.26 59.2549 48.112 59.2549 50.3542V52.8654L57.457 52.9102Z" fill="white"></path>
    <path d="M66.0777 45.7354C66.8153 45.7354 67.5068 46.0942 67.8295 46.4978V43H69.6274V52.9103H67.8295V52.1928C67.599 52.5516 66.9536 53.0448 66.0777 53.0448C63.9111 53.0448 62.8047 51.565 62.8047 49.4126C62.8047 47.2601 63.9111 45.7354 66.0777 45.7354ZM66.3543 51.5202C67.2763 51.5202 68.0139 50.7578 68.0139 49.3677C68.0139 47.9776 67.2763 47.2152 66.3543 47.2152C65.4323 47.2152 64.6948 47.9776 64.6948 49.3677C64.6948 50.7578 65.4323 51.5202 66.3543 51.5202Z" fill="white"></path>
    <path d="M76.0807 46.8563L75.0204 47.798C74.6977 47.3495 74.1906 47.1702 73.8218 47.1702C73.453 47.1702 73.1303 47.3944 73.1303 47.7531C73.1303 48.067 73.4069 48.2912 73.8218 48.4258C74.836 48.7845 76.4495 49.0984 76.4495 50.5782C76.4495 51.8787 75.4353 52.9101 73.8679 52.9101C72.3466 52.9101 71.3325 51.8787 71.0098 51.0267L72.4388 50.2643C72.7154 50.937 73.1764 51.4303 73.914 51.4303C74.4672 51.4303 74.836 51.1612 74.836 50.6679C74.836 50.085 73.914 49.9504 73.0381 49.5917C72.2544 49.2778 71.563 48.7845 71.563 47.7083C71.563 46.6321 72.4849 45.6455 73.8679 45.6455C74.7899 45.6904 75.6658 46.1836 76.0807 46.8563Z" fill="white"></path>
    <path d="M38.9255 45.8252L37.6347 50.7131L36.39 45.8252H34.7304L33.5318 50.7131L32.5177 47.888L32.3794 48.2019L31.8262 50.0404L32.7482 52.9104H34.3155L35.5602 48.3364L36.8049 52.9104H38.4184L40.7233 45.8252H38.9255Z" fill="white"></path>
    <path d="M47.5458 45.8252L46.255 50.7131L45.0103 45.8252H43.3507L42.1522 50.7131L41.138 47.888L40.9997 48.2019L40.4004 50.0404L41.3685 52.9104H42.9359L44.1805 48.3364L45.4252 52.9104H46.9926L49.3437 45.8252H47.5458Z" fill="white"></path>
    <path d="M32.1032 45.8252L29.7982 52.8656H28.2308L26.9862 48.3364L25.7415 52.9104H24.1741L21.8691 45.87H23.667L24.9578 50.7131L26.2025 45.87H27.862L29.1067 50.7131L30.3975 45.87L32.1032 45.8252Z" fill="white"></path>
    <path d="M78.8021 50.6235C79.4936 50.6235 80.0007 51.1168 80.0007 51.7895C80.0007 52.4621 79.4936 52.9554 78.8021 52.9554C78.1106 52.9554 77.6035 52.4621 77.6035 51.7895C77.6035 51.1168 78.1106 50.6235 78.8021 50.6235Z" fill="#27AE60"></path>
  </g>
  <defs>
    <clipPath id="clip0_10152_9073">
      <rect width="65" height="10" fill="white" transform="translate(15 43)"></rect>
    </clipPath>
  </defs>
</svg>
