<?xml version="1.0" encoding="UTF-8"?>
<svg xmlns="http://www.w3.org/2000/svg" width="71" height="57" viewBox="0 0 71 57" fill="none">
  <path d="M25.7983 10V3.07H23.4553V2.19H29.1093V3.07H26.7553V10H25.7983ZM33.5125 10.066C31.1695 10.066 29.5855 8.35 29.5855 6.095C29.5855 3.84 31.1695 2.113 33.5125 2.113C35.7125 2.113 37.4065 3.708 37.4065 6.095C37.4065 8.471 35.7125 10.066 33.5125 10.066ZM33.5125 9.153C35.1295 9.153 36.4055 7.888 36.4055 6.095C36.4055 4.28 35.1295 3.026 33.5125 3.026C31.7635 3.026 30.5755 4.401 30.5755 6.095C30.5755 7.789 31.7635 9.153 33.5125 9.153ZM39.0466 10V2.19H41.7856C43.6116 2.19 44.3706 3.224 44.3706 4.61C44.3706 6.26 43.2486 7.019 41.6206 7.019H40.0036V10H39.0466ZM40.0036 6.139H41.5326C42.8416 6.139 43.3696 5.479 43.3696 4.588C43.3696 3.598 42.7316 3.07 41.6866 3.07H40.0036V6.139ZM0.898039 23V15.19H3.48304C5.95804 15.19 7.54204 16.796 7.54204 19.106C7.54204 21.405 6.02404 23 3.51604 23H0.898039ZM2.42704 21.625H3.41704C4.93504 21.625 5.93604 20.536 5.93604 19.106C5.93604 17.643 4.92404 16.576 3.51604 16.576H2.42704V21.625ZM8.9332 23V15.19H13.9272V16.576H10.4512V18.446H13.2342V19.81H10.4512V21.625H14.1582V23H8.9332ZM20.4129 15.19H22.0739L19.1809 23H17.8169L14.9129 15.19H16.5959L18.4879 20.8H18.5099L20.4129 15.19ZM23.1451 23V15.19H28.1391V16.576H24.6631V18.446H27.4461V19.81H24.6631V21.625H28.3701V23H23.1451ZM29.7408 23V15.19H31.2918V21.625H34.7678V23H29.7408ZM39.3657 23.088C37.0007 23.088 35.3837 21.405 35.3837 19.095C35.3837 16.774 37.0007 15.091 39.3657 15.091C41.6647 15.091 43.3367 16.708 43.3367 19.095C43.3367 21.482 41.6647 23.088 39.3657 23.088ZM39.3767 21.647C40.7187 21.647 41.7307 20.558 41.7307 19.095C41.7307 17.621 40.7187 16.543 39.3767 16.543C37.9687 16.543 36.9897 17.676 36.9897 19.095C36.9897 20.514 37.9687 21.647 39.3767 21.647ZM44.7369 23V15.19H47.6299C49.5219 15.19 50.3469 16.29 50.3469 17.786C50.3469 19.502 49.2029 20.327 47.4869 20.327H46.2659V23H44.7369ZM46.2659 18.952H47.2889C48.2569 18.952 48.7409 18.479 48.7409 17.753C48.7409 17.038 48.2569 16.565 47.3549 16.565H46.2659V18.952ZM51.6012 23V15.19H56.5952V16.576H53.1192V18.446H55.9022V19.81H53.1192V21.625H56.8262V23H51.6012ZM64.2029 23H62.3769L60.6279 20.327H59.7259V23H58.1969V15.19H61.1559C63.0369 15.19 63.8729 16.29 63.8729 17.786C63.8729 19.04 63.2679 19.81 62.2669 20.14L64.2029 23ZM59.7259 16.565V18.963H60.8039C61.7609 18.963 62.2779 18.479 62.2779 17.753C62.2779 17.038 61.7719 16.565 60.8699 16.565H59.7259ZM67.7481 23.088C66.7361 23.088 65.7131 22.703 64.8991 21.856L65.8231 20.712C66.4061 21.394 67.1541 21.691 67.7701 21.691C68.5181 21.691 68.8921 21.35 68.8921 20.866C68.8921 20.294 68.4741 20.085 67.5281 19.766C66.3511 19.348 65.1741 18.798 65.1741 17.324C65.1741 16.07 66.2741 15.113 67.6821 15.091C68.6501 15.08 69.5521 15.443 70.3111 16.081L69.4201 17.247C68.7711 16.708 68.1991 16.477 67.7151 16.477C67.1761 16.477 66.7801 16.763 66.7801 17.258C66.7691 17.742 67.1981 17.951 68.0891 18.303C69.4421 18.831 70.5091 19.183 70.5091 20.69C70.5091 22.395 69.0241 23.088 67.7481 23.088ZM7.11386 35.153H10.4689V36H5.71686L5.70586 35.362L8.29086 32.722C8.92886 32.062 9.44586 31.446 9.44586 30.698C9.44586 29.862 8.86286 29.246 8.02686 29.246C7.31186 29.246 6.75086 29.598 6.39886 30.28L5.71686 29.807C6.13486 28.982 6.89386 28.377 8.08186 28.377C9.28086 28.377 10.3699 29.202 10.3699 30.599C10.3699 31.457 10.0179 32.194 9.08286 33.14L7.11386 35.131V35.153ZM14.4672 36.066C12.8282 36.066 11.6292 34.691 11.6292 32.227C11.6292 29.994 12.6632 28.377 14.4672 28.377C16.1062 28.377 17.3052 29.752 17.3052 32.227C17.3052 34.46 16.2712 36.066 14.4672 36.066ZM14.4672 35.208C15.6772 35.208 16.3702 34.031 16.3702 32.227C16.3702 30.291 15.5892 29.235 14.4672 29.235C13.2682 29.235 12.5642 30.412 12.5642 32.227C12.5642 34.141 13.3562 35.208 14.4672 35.208ZM20.056 36V29.565L18.549 30.698L18.087 30.005L20.21 28.443H20.98V36H20.056ZM25.116 28.377C26.601 28.377 27.767 29.554 27.767 31.347C27.756 34.097 25.787 35.901 23.818 36.264L23.554 35.472C24.907 35.131 26.249 34.24 26.7 32.568L26.678 32.557C26.205 32.975 25.534 33.228 24.797 33.228C23.499 33.228 22.498 32.326 22.498 30.852C22.498 29.444 23.62 28.377 25.116 28.377ZM24.995 32.37C25.765 32.37 26.48 31.952 26.865 31.325V31.27C26.865 30.038 26.128 29.235 25.127 29.235C24.104 29.235 23.433 29.983 23.433 30.852C23.433 31.754 24.06 32.37 24.995 32.37ZM37.2214 36L36.5944 35.252C36.0664 35.769 35.3734 36.066 34.4274 36.066C33.0414 36.066 31.9414 35.153 31.9414 33.767C31.9414 32.777 32.5574 31.93 33.4264 31.457L32.4804 30.324C32.5904 29.037 33.5144 28.113 34.8014 28.113C36.0554 28.113 36.7704 28.883 37.0784 29.587L36.3084 29.884C36.0774 29.378 35.6484 28.938 34.8674 28.927C33.9654 28.927 33.5034 29.488 33.4264 30.181L36.6054 33.976C36.8914 33.481 37.0234 32.898 37.0234 32.381L37.8924 32.359C37.8924 33.107 37.6944 33.987 37.1994 34.691L38.2994 36H37.2214ZM32.8764 33.723C32.8764 34.581 33.5364 35.208 34.5154 35.208C35.1754 35.208 35.6924 34.988 36.0774 34.636V34.625L33.9764 32.106C33.2834 32.436 32.8764 33.074 32.8764 33.723ZM43.4762 35.153H46.8312V36H42.0792L42.0682 35.362L44.6532 32.722C45.2912 32.062 45.8082 31.446 45.8082 30.698C45.8082 29.862 45.2252 29.246 44.3892 29.246C43.6742 29.246 43.1132 29.598 42.7612 30.28L42.0792 29.807C42.4972 28.982 43.2562 28.377 44.4442 28.377C45.6432 28.377 46.7322 29.202 46.7322 30.599C46.7322 31.457 46.3802 32.194 45.4452 33.14L43.4762 35.131V35.153ZM50.8295 36.066C49.1905 36.066 47.9915 34.691 47.9915 32.227C47.9915 29.994 49.0255 28.377 50.8295 28.377C52.4685 28.377 53.6675 29.752 53.6675 32.227C53.6675 34.46 52.6335 36.066 50.8295 36.066ZM50.8295 35.208C52.0395 35.208 52.7325 34.031 52.7325 32.227C52.7325 30.291 51.9515 29.235 50.8295 29.235C49.6305 29.235 48.9265 30.412 48.9265 32.227C48.9265 34.141 49.7185 35.208 50.8295 35.208ZM56.0875 35.153H59.4425V36H54.6905L54.6795 35.362L57.2645 32.722C57.9025 32.062 58.4195 31.446 58.4195 30.698C58.4195 29.862 57.8365 29.246 57.0005 29.246C56.2855 29.246 55.7245 29.598 55.3725 30.28L54.6905 29.807C55.1085 28.982 55.8675 28.377 57.0555 28.377C58.2545 28.377 59.3435 29.202 59.3435 30.599C59.3435 31.457 58.9915 32.194 58.0565 33.14L56.0875 35.131V35.153ZM61.8238 35.153H65.1788V36H60.4268L60.4158 35.362L63.0008 32.722C63.6388 32.062 64.1558 31.446 64.1558 30.698C64.1558 29.862 63.5728 29.246 62.7368 29.246C62.0218 29.246 61.4608 29.598 61.1088 30.28L60.4268 29.807C60.8448 28.982 61.6038 28.377 62.7918 28.377C63.9908 28.377 65.0798 29.202 65.0798 30.599C65.0798 31.457 64.7278 32.194 63.7928 33.14L61.8238 35.131V35.153Z" fill="white"></path>
  <path d="M26.4209 44H24.2598V56.6467H26.4209V44Z" fill="white"></path>
  <path d="M33.9266 56.6468H36.0878V48.0796H33.9266V52.6041H33.9656C33.9656 54.4958 32.2369 54.6806 31.7655 54.6806C30.5081 54.6806 30.2334 53.5307 30.2334 52.8265V48.0796H28.0723V52.9009C28.0723 54.0877 28.5047 55.0519 29.1329 55.7569C29.7222 56.3131 30.665 56.6468 31.7265 56.6468C32.4734 56.6468 33.4552 56.4611 33.9266 55.9418V56.6468Z" fill="white"></path>
  <path d="M38.1695 56.6466H40.3307V50.1192H41.9026V48.0794H40.3307V45.0386H38.1695V48.0794H36.5586V50.1192H38.1695V56.6466Z" fill="white"></path>
  <path d="M46.9327 56.61C48.151 56.61 49.2905 56.2019 50.1545 55.46L50.469 55.1632L48.976 53.754L48.6614 54.1245C48.19 54.5326 47.6008 54.755 46.9327 54.755C45.4396 54.755 44.3391 53.754 44.3391 52.2703C44.3391 50.7867 45.3998 49.8225 46.9327 49.8225C47.6008 49.8225 48.19 50.0081 48.6614 50.453L48.976 50.7123L50.3902 49.3775L50.0756 49.0807C49.1718 48.3756 48.1112 47.9307 46.9318 47.9307C44.2602 47.8939 42.2949 49.7112 42.2949 52.2695C42.2958 54.6814 44.3001 56.61 46.9327 56.61Z" fill="white"></path>
  <path d="M53.6522 51.8623C53.6522 49.9706 55.1453 49.7858 55.6167 49.7858C56.874 49.7858 56.874 50.9357 56.874 51.6399V56.6469H59.0352V51.6031C59.0742 50.4908 58.7995 49.4889 58.0924 48.8215C57.5031 48.2654 56.7172 47.9317 55.7345 47.9317C54.9875 47.9317 54.2025 48.1173 53.6123 48.6367V44.001H51.4512V56.6477H53.6123V51.8632H53.6522V51.8623Z" fill="white"></path>
  <path d="M45.2812 52.2702C45.2812 53.0864 45.9884 53.7162 46.8133 53.7162C47.6781 53.7162 48.3454 53.0488 48.3454 52.2702C48.3454 51.454 47.6383 50.8242 46.8133 50.8242C45.9884 50.8242 45.2812 51.4548 45.2812 52.2702Z" fill="#E52421"></path>
  <path d="M18.1689 56.61C19.8977 56.61 21.5485 55.9795 22.6481 54.8295L22.9627 54.5327L21.5485 53.1235L21.2738 53.494C20.4878 54.2358 19.3093 54.6807 18.1698 54.6807C15.7339 54.6807 14.0043 52.9002 14.0043 50.4899C14.0043 48.042 15.7331 46.2991 18.1299 46.2991C19.2695 46.2991 20.3301 46.7441 21.2339 47.4859L21.5485 47.7828L22.9627 46.448L22.6481 46.1511C21.4696 44.9644 19.8578 44.3706 18.1689 44.3706C14.6326 44.4074 12 47.0042 12 50.4899C12 53.9757 14.6326 56.61 18.1689 56.61Z" fill="white"></path>
</svg>
