<?xml version="1.0" encoding="UTF-8"?>
<svg xmlns="http://www.w3.org/2000/svg" width="78" height="53" viewBox="0 0 78 53" fill="none">
  <path d="M31.0384 2.19H31.9954V10H31.0384V4.016H31.0164L28.4754 8.427H27.8264L25.2854 4.016H25.2634V10H24.3064V2.19H25.2744L28.1454 7.239H28.1674L31.0384 2.19ZM37.5604 10.066C36.4017 10.066 35.4557 9.692 34.7224 8.944C33.9964 8.18867 33.6334 7.239 33.6334 6.095C33.6334 4.951 33.9964 4.00133 34.7224 3.246C35.4557 2.49067 36.4017 2.113 37.5604 2.113C38.675 2.113 39.6027 2.48333 40.3434 3.224C41.084 3.95733 41.4544 4.91433 41.4544 6.095C41.4544 7.26833 41.084 8.22533 40.3434 8.966C39.6027 9.69933 38.675 10.066 37.5604 10.066ZM37.5604 9.153C38.3817 9.153 39.0674 8.867 39.6174 8.295C40.1747 7.71567 40.4534 6.98233 40.4534 6.095C40.4534 5.20033 40.1747 4.467 39.6174 3.895C39.0674 3.31567 38.3817 3.026 37.5604 3.026C36.7024 3.026 35.9984 3.323 35.4484 3.917C34.8984 4.50367 34.6234 5.22967 34.6234 6.095C34.6234 6.96033 34.8984 7.68633 35.4484 8.273C35.9984 8.85967 36.7024 9.153 37.5604 9.153ZM45.3175 10.066C44.2249 10.066 43.3009 9.66267 42.5455 8.856L43.1615 8.13C43.4329 8.46733 43.7629 8.724 44.1515 8.9C44.5402 9.076 44.9325 9.164 45.3285 9.164C45.8125 9.164 46.1975 9.05767 46.4835 8.845C46.7769 8.63233 46.9235 8.339 46.9235 7.965C46.9235 7.75967 46.8869 7.58367 46.8135 7.437C46.7475 7.29033 46.6302 7.162 46.4615 7.052C46.2929 6.93467 46.1279 6.843 45.9665 6.777C45.8125 6.70367 45.5889 6.612 45.2955 6.502C45.2442 6.48 45.2039 6.46533 45.1745 6.458C44.8885 6.35533 44.6539 6.26733 44.4705 6.194C44.2945 6.11333 44.0892 6.00333 43.8545 5.864C43.6272 5.72467 43.4475 5.58533 43.3155 5.446C43.1909 5.29933 43.0809 5.11967 42.9855 4.907C42.8902 4.687 42.8425 4.445 42.8425 4.181C42.8425 3.60167 43.0735 3.114 43.5355 2.718C43.9975 2.322 44.5622 2.12033 45.2295 2.113C46.1095 2.113 46.9345 2.41733 47.7045 3.026L47.1215 3.774C46.5129 3.26067 45.8822 3.004 45.2295 3.004C44.8482 3.004 44.5219 3.10667 44.2505 3.312C43.9792 3.51 43.8435 3.785 43.8435 4.137C43.8435 4.28367 43.8729 4.41933 43.9315 4.544C43.9902 4.66133 44.0562 4.76033 44.1295 4.841C44.2029 4.91433 44.3312 4.99867 44.5145 5.094C44.6979 5.18933 44.8409 5.26267 44.9435 5.314C45.0535 5.358 45.2405 5.43133 45.5045 5.534C46.3112 5.842 46.8429 6.084 47.0995 6.26C47.6495 6.634 47.9245 7.16933 47.9245 7.866C47.9245 8.55533 47.6679 9.09433 47.1545 9.483C46.6485 9.87167 46.0362 10.066 45.3175 10.066ZM51.019 10V3.07H48.676V2.19H54.33V3.07H51.976V10H51.019ZM8.73251 23V15.19H11.6255C12.5348 15.19 13.2132 15.4283 13.6605 15.905C14.1152 16.3743 14.3425 17.0013 14.3425 17.786C14.3425 18.622 14.0858 19.2563 13.5725 19.689C13.0665 20.1143 12.3698 20.327 11.4825 20.327H10.2615V23H8.73251ZM10.2615 18.952H11.2845C11.7612 18.952 12.1205 18.8457 12.3625 18.633C12.6118 18.4203 12.7365 18.127 12.7365 17.753C12.7365 17.3863 12.6155 17.0967 12.3735 16.884C12.1315 16.6713 11.7905 16.565 11.3505 16.565H10.2615V18.952ZM21.6028 23H19.7768L18.0278 20.327H17.1258V23H15.5968V15.19H18.5558C19.4578 15.19 20.1361 15.4283 20.5908 15.905C21.0454 16.3743 21.2728 17.0013 21.2728 17.786C21.2728 19.0033 20.7374 19.788 19.6668 20.14L21.6028 23ZM17.1258 16.565V18.963H18.2038C18.6731 18.963 19.0361 18.8567 19.2928 18.644C19.5494 18.424 19.6778 18.127 19.6778 17.753C19.6778 17.3863 19.5531 17.0967 19.3038 16.884C19.0618 16.6713 18.7171 16.565 18.2698 16.565H17.1258ZM26.2207 23.088C25.0474 23.088 24.0904 22.714 23.3497 21.966C22.609 21.2107 22.2387 20.2537 22.2387 19.095C22.2387 17.929 22.609 16.972 23.3497 16.224C24.0904 15.4687 25.0474 15.091 26.2207 15.091C27.3794 15.091 28.329 15.4613 29.0697 16.202C29.8177 16.9427 30.1917 17.907 30.1917 19.095C30.1917 20.283 29.8177 21.2473 29.0697 21.988C28.329 22.7213 27.3794 23.088 26.2207 23.088ZM26.2317 21.647C26.9064 21.647 27.4674 21.405 27.9147 20.921C28.362 20.437 28.5857 19.8283 28.5857 19.095C28.5857 18.3617 28.362 17.753 27.9147 17.269C27.4674 16.785 26.9064 16.543 26.2317 16.543C25.535 16.543 24.963 16.7887 24.5157 17.28C24.0684 17.7713 23.8447 18.3763 23.8447 19.095C23.8447 19.8137 24.0684 20.4187 24.5157 20.91C24.963 21.4013 25.535 21.647 26.2317 21.647ZM37.9609 15.19H39.5119V23H37.9829V18.149H37.9609L36.0579 21.515H35.0569L33.1539 18.149H33.1319V23H31.5919V15.19H33.1539L35.5519 19.634H35.5739L37.9609 15.19ZM41.2826 23V15.19H42.8336V23H41.2826ZM46.9547 23.088C45.8473 23.088 44.8977 22.6773 44.1057 21.856L45.0297 20.712C45.3083 21.0347 45.62 21.2803 45.9647 21.449C46.3093 21.6103 46.6467 21.691 46.9767 21.691C47.3433 21.691 47.622 21.6177 47.8127 21.471C48.0033 21.317 48.0987 21.1153 48.0987 20.866C48.0987 20.5947 47.9997 20.3893 47.8017 20.25C47.6037 20.1033 47.248 19.942 46.7347 19.766C46.3827 19.6413 46.0893 19.524 45.8547 19.414C45.62 19.2967 45.378 19.1427 45.1287 18.952C44.8793 18.7613 44.6923 18.5303 44.5677 18.259C44.443 17.9877 44.3807 17.676 44.3807 17.324C44.3807 16.7007 44.6227 16.1763 45.1067 15.751C45.5907 15.3257 46.1847 15.1057 46.8887 15.091C47.842 15.0837 48.7183 15.4137 49.5177 16.081L48.6267 17.247C48.0107 16.7337 47.4423 16.477 46.9217 16.477C46.643 16.477 46.4157 16.5467 46.2397 16.686C46.071 16.8253 45.9867 17.016 45.9867 17.258C45.9793 17.4853 46.071 17.6687 46.2617 17.808C46.4523 17.94 46.797 18.105 47.2957 18.303C48.1023 18.6183 48.6303 18.8603 48.8797 19.029C49.437 19.4103 49.7157 19.964 49.7157 20.69C49.7157 21.4747 49.437 22.0723 48.8797 22.483C48.3223 22.8863 47.6807 23.088 46.9547 23.088ZM51.0795 23V15.19H52.6305V23H51.0795ZM59.4356 15.19H60.9866V23H59.4026L55.9596 17.819H55.9376V23H54.3976V15.19H55.9376L59.4246 20.47H59.4356V15.19ZM66.3753 23.077C65.2166 23.077 64.2596 22.7213 63.5043 22.01C62.7563 21.2987 62.3823 20.3307 62.3823 19.106C62.3823 17.94 62.7379 16.9793 63.4493 16.224C64.1606 15.4687 65.1139 15.091 66.3093 15.091C66.8886 15.091 67.4533 15.2047 68.0033 15.432C68.5533 15.6593 69.0226 15.993 69.4113 16.433L68.3113 17.357C67.7539 16.8217 67.0866 16.554 66.3093 16.554C65.6493 16.554 65.0993 16.785 64.6593 17.247C64.2193 17.709 63.9993 18.3287 63.9993 19.106C63.9993 19.8393 64.2156 20.448 64.6483 20.932C65.0809 21.416 65.6566 21.658 66.3753 21.658C66.9473 21.658 67.4753 21.5113 67.9593 21.218V20.063H66.1993V18.743H69.4443V22.109C69.0849 22.4023 68.6303 22.637 68.0803 22.813C67.5303 22.989 66.9619 23.077 66.3753 23.077ZM4.66659 36.055C3.55926 36.055 2.63159 35.7067 1.88359 35.01C1.14293 34.3133 0.772592 33.3527 0.772592 32.128C0.772592 30.9693 1.11726 30.0123 1.80659 29.257C2.50326 28.4943 3.45659 28.113 4.66659 28.113C5.89859 28.113 6.91426 28.6117 7.71359 29.609L6.99859 30.203C6.37526 29.4183 5.59793 29.026 4.66659 29.026C3.78659 29.026 3.08259 29.3157 2.55459 29.895C2.03393 30.467 1.77359 31.2113 1.77359 32.128C1.77359 33.0447 2.04493 33.778 2.58759 34.328C3.13026 34.8707 3.82326 35.142 4.66659 35.142C5.59793 35.142 6.37526 34.7533 6.99859 33.976L7.71359 34.581C6.92159 35.5637 5.90593 36.055 4.66659 36.055ZM12.3725 36.066C11.2139 36.066 10.2679 35.692 9.53452 34.944C8.80852 34.1887 8.44552 33.239 8.44552 32.095C8.44552 30.951 8.80852 30.0013 9.53452 29.246C10.2679 28.4907 11.2139 28.113 12.3725 28.113C13.4872 28.113 14.4149 28.4833 15.1555 29.224C15.8962 29.9573 16.2665 30.9143 16.2665 32.095C16.2665 33.2683 15.8962 34.2253 15.1555 34.966C14.4149 35.6993 13.4872 36.066 12.3725 36.066ZM12.3725 35.153C13.1939 35.153 13.8795 34.867 14.4295 34.295C14.9869 33.7157 15.2655 32.9823 15.2655 32.095C15.2655 31.2003 14.9869 30.467 14.4295 29.895C13.8795 29.3157 13.1939 29.026 12.3725 29.026C11.5145 29.026 10.8105 29.323 10.2605 29.917C9.71052 30.5037 9.43552 31.2297 9.43552 32.095C9.43552 32.9603 9.71052 33.6863 10.2605 34.273C10.8105 34.8597 11.5145 35.153 12.3725 35.153ZM24.3086 28.19H25.2656V36H24.3086V30.016H24.2866L21.7456 34.427H21.0966L18.5556 30.016H18.5336V36H17.5766V28.19H18.5446L21.4156 33.239H21.4376L24.3086 28.19ZM26.9146 36V28.19H29.6536C30.5263 28.19 31.1753 28.41 31.6006 28.85C32.0259 29.29 32.2386 29.8767 32.2386 30.61C32.2386 31.4093 31.9893 32.0107 31.4906 32.414C30.9993 32.8173 30.3319 33.019 29.4886 33.019H27.8716V36H26.9146ZM27.8716 32.139H29.4006C30.0239 32.139 30.4859 31.9997 30.7866 31.721C31.0873 31.4423 31.2376 31.0647 31.2376 30.588C31.2376 30.0967 31.0873 29.7227 30.7866 29.466C30.4933 29.202 30.0826 29.07 29.5546 29.07H27.8716V32.139ZM37.8677 36L37.1747 34.097H33.6877L32.9947 36H31.9827L34.9417 28.19H35.8987L38.8797 36H37.8677ZM33.9957 33.261H36.8667L35.4367 29.356H35.4147L33.9957 33.261ZM45.2117 28.19H46.1687V36H45.1897L40.8117 29.84H40.7897V36H39.8327V28.19H40.7787L45.1897 34.416H45.2117V28.19ZM52.1732 28.19H53.2842L50.6222 32.513V36H49.6652V32.513L47.0142 28.19H48.1142L50.1382 31.556H50.1602L52.1732 28.19ZM57.6722 35.153H61.0272V36H56.2752L56.2642 35.362L58.8492 32.722C59.2305 32.326 59.5165 31.974 59.7072 31.666C59.9052 31.358 60.0042 31.0353 60.0042 30.698C60.0042 30.28 59.8722 29.9353 59.6082 29.664C59.3442 29.3853 59.0032 29.246 58.5852 29.246C57.8592 29.246 57.3165 29.5907 56.9572 30.28L56.2752 29.807C56.7592 28.8537 57.5475 28.377 58.6402 28.377C59.2708 28.377 59.8098 28.5787 60.2572 28.982C60.7045 29.3853 60.9282 29.9243 60.9282 30.599C60.9282 31.0317 60.8292 31.446 60.6312 31.842C60.4332 32.238 60.1032 32.6707 59.6412 33.14L57.6722 35.131V35.153ZM64.6955 36.066C63.8521 36.066 63.1665 35.7287 62.6385 35.054C62.1178 34.372 61.8575 33.4297 61.8575 32.227C61.8575 31.083 62.1105 30.1553 62.6165 29.444C63.1225 28.7327 63.8155 28.377 64.6955 28.377C65.5388 28.377 66.2208 28.718 66.7415 29.4C67.2695 30.0747 67.5335 31.017 67.5335 32.227C67.5335 33.371 67.2805 34.2987 66.7745 35.01C66.2758 35.714 65.5828 36.066 64.6955 36.066ZM64.6955 35.208C65.2968 35.208 65.7625 34.9403 66.0925 34.405C66.4298 33.8697 66.5985 33.1437 66.5985 32.227C66.5985 31.281 66.4225 30.5477 66.0705 30.027C65.7258 29.499 65.2675 29.235 64.6955 29.235C64.1015 29.235 63.6358 29.5063 63.2985 30.049C62.9611 30.5843 62.7925 31.3103 62.7925 32.227C62.7925 33.1657 62.9648 33.899 63.3095 34.427C63.6615 34.9477 64.1235 35.208 64.6955 35.208ZM69.9543 36V29.565L68.4473 30.698L67.9853 30.005L70.1083 28.443H70.8783V36H69.9543ZM75.9273 31.908C76.3599 32.0473 76.7083 32.293 76.9723 32.645C77.2363 32.997 77.3683 33.4223 77.3683 33.921C77.3683 34.559 77.1153 35.076 76.6093 35.472C76.1033 35.868 75.4689 36.066 74.7063 36.066C73.9363 36.066 73.3019 35.8643 72.8033 35.461C72.3046 35.0503 72.0553 34.537 72.0553 33.921C72.0553 33.4223 72.1873 32.997 72.4513 32.645C72.7153 32.293 73.0599 32.0473 73.4853 31.908V31.897C73.2066 31.809 72.9609 31.6183 72.7483 31.325C72.5356 31.0317 72.4293 30.6907 72.4293 30.302C72.4293 29.708 72.6419 29.2387 73.0673 28.894C73.4926 28.5493 74.0389 28.377 74.7063 28.377C75.3883 28.377 75.9383 28.553 76.3563 28.905C76.7816 29.257 76.9943 29.7227 76.9943 30.302C76.9943 30.6833 76.8843 31.0243 76.6643 31.325C76.4516 31.6183 76.2059 31.809 75.9273 31.897V31.908ZM74.7063 29.202C74.2956 29.202 73.9619 29.3157 73.7053 29.543C73.4486 29.7703 73.3203 30.0453 73.3203 30.368C73.3203 30.7127 73.4486 30.9913 73.7053 31.204C73.9619 31.4093 74.2956 31.512 74.7063 31.512C75.1243 31.512 75.4616 31.4093 75.7183 31.204C75.9823 30.9913 76.1143 30.7127 76.1143 30.368C76.1143 30.0307 75.9786 29.752 75.7073 29.532C75.4433 29.312 75.1096 29.202 74.7063 29.202ZM74.7063 35.23C75.2123 35.23 75.6229 35.0943 75.9383 34.823C76.2536 34.5443 76.4113 34.2107 76.4113 33.822C76.4113 33.3893 76.2536 33.041 75.9383 32.777C75.6229 32.5057 75.2123 32.37 74.7063 32.37C74.1929 32.37 73.7786 32.5057 73.4633 32.777C73.1479 33.041 72.9903 33.3893 72.9903 33.822C72.9903 34.2253 73.1553 34.5627 73.4853 34.834C73.8153 35.098 74.2223 35.23 74.7063 35.23Z" fill="white"></path>
  <g clip-path="url(#clip0_9278_18750)">
    <path d="M11 49.3302H13.0903V51.1941C13.0903 51.4935 13.2023 51.6384 13.4449 51.6384C13.6876 51.6384 13.7995 51.3583 13.7995 50.7789C13.7995 50.0352 13.6596 49.5524 13.3703 49.3399C12.2785 48.7508 11.6252 48.3355 11.4013 48.1037C11.1773 47.8719 11.0653 47.5146 11.0653 47.051V45.8728C11.0653 44.6366 11.8772 44.0186 13.4916 44.0186C15.0687 44.0186 15.8619 44.6077 15.8619 45.8052V47.5436H13.8275L13.8742 46.4909C13.8742 45.7569 13.7435 45.3899 13.4823 45.3899C13.221 45.3899 13.0903 45.6217 13.0903 46.0756C13.0903 46.5488 13.1463 46.9062 13.2583 47.1476C13.3703 47.3891 14.0142 47.814 15.1713 48.4031C15.3998 48.5579 15.5864 48.7704 15.7138 49.0204C15.8411 49.2704 15.9049 49.5499 15.8992 49.8324V51.1459C15.8992 52.382 15.078 53.0001 13.4263 53.0001C11.8119 53.0001 11.0093 52.4013 11.0093 51.2135V49.3302H11Z" fill="white"></path>
    <path d="M16.8887 52.8745H18.979V44.0764H16.8887V52.8745ZM16.8887 43.5838H18.979V42H16.8887V43.5838Z" fill="white"></path>
    <path d="M22.104 42H20.0137V52.8648H22.104V42Z" fill="white"></path>
    <path d="M23.1406 52.8745H25.2309V44.0764H23.1406V52.8745ZM23.1406 43.5838H25.2309V42H23.1406V43.5838Z" fill="white"></path>
    <path d="M31.1286 47.9685H29.0382V45.8052C29.0382 45.5155 28.9263 45.3706 28.6836 45.3706C28.441 45.3706 28.3197 45.5155 28.3197 45.8052V51.1941C28.3197 51.4935 28.441 51.6384 28.6836 51.6384C28.9263 51.6384 29.0382 51.4935 29.0382 51.1941V49.0598H31.1286V51.2038C31.1286 52.3917 30.326 52.9905 28.721 52.9905C27.0692 52.9905 26.248 52.3724 26.248 51.1362V45.8728C26.248 44.6366 27.0692 44.0186 28.721 44.0186C30.326 44.0186 31.1286 44.6077 31.1286 45.7956V47.9685Z" fill="white"></path>
    <path d="M34.9647 51.194V45.8051C34.9647 45.5154 34.8434 45.3705 34.6101 45.3705C34.3768 45.3705 34.2461 45.5154 34.2461 45.8051V51.194C34.2461 51.4934 34.3674 51.6383 34.6101 51.6383C34.8527 51.6383 34.9647 51.4934 34.9647 51.194ZM32.1465 51.1361V45.8727C32.1465 44.6365 32.977 44.0184 34.6287 44.0184C35.2191 44.0049 35.8023 44.1549 36.3178 44.453C36.803 44.7427 37.0457 45.187 37.0457 45.7954V51.2133C37.0457 52.4012 36.2431 53 34.6287 53C32.977 52.9903 32.1465 52.3722 32.1465 51.1361Z" fill="white"></path>
    <path d="M42.9417 52.8746H40.8514V45.8052C40.8514 45.5348 40.7301 45.4093 40.4875 45.4093C40.2448 45.4093 40.1235 45.5348 40.1235 45.7956V52.8746H38.0332V44.0765H40.1235V44.3759C40.4035 44.1345 40.8327 44.0186 41.4206 44.0186C41.7916 44.0169 42.1549 44.1277 42.4658 44.3373C42.6177 44.4339 42.7419 44.5709 42.8256 44.7338C42.9093 44.8968 42.9494 45.08 42.9417 45.2644V52.8746Z" fill="white"></path>
    <path d="M44.0059 52.8745H46.0962V44.0764H44.0059V52.8745ZM44.0059 43.5838H46.0962V42H44.0059V43.5838Z" fill="#EE1C25"></path>
    <path d="M52.0042 52.8746H49.9139V45.8052C49.9139 45.5348 49.7926 45.4093 49.55 45.4093C49.3073 45.4093 49.186 45.5348 49.186 45.7956V52.8746H47.0957V44.0765H49.186V44.3759C49.466 44.1345 49.8952 44.0186 50.4831 44.0186C50.8541 44.0169 51.2174 44.1277 51.5283 44.3373C51.6802 44.4339 51.8044 44.5709 51.8881 44.7338C51.9718 44.8968 52.0119 45.08 52.0042 45.2644V52.8746Z" fill="#EE1C25"></path>
    <path d="M55.8482 51.223V45.7568C55.8482 45.5057 55.7269 45.3705 55.4936 45.3705C55.2603 45.3705 55.1297 45.5057 55.1297 45.7761V51.223C55.1297 51.4934 55.251 51.6286 55.4936 51.6286C55.7363 51.6286 55.8482 51.4934 55.8482 51.223ZM57.9386 52.8745H56.3615L56.1842 52.5751C55.8335 52.8519 55.4028 52.9982 54.9617 52.9903C54.4298 52.9903 53.9726 52.8648 53.5993 52.604C53.4253 52.4944 53.282 52.3396 53.1838 52.1549C53.0856 51.9702 53.0358 51.7621 53.0394 51.5514V45.2256C53.0351 45.0504 53.0739 44.8769 53.1523 44.7214C53.2307 44.566 53.3459 44.4338 53.4873 44.3371C53.8016 44.1112 54.1779 43.996 54.5605 44.0088C55.139 44.0088 55.5683 44.115 55.8482 44.3371V42H57.9386V52.8745Z" fill="#EE1C25"></path>
    <path d="M58.9551 52.8745H61.0454V44.0764H58.9551V52.8745ZM58.9551 43.5838H61.0454V42H58.9551V43.5838Z" fill="#EE1C25"></path>
    <path d="M64.9011 51.223V48.9535C64.4252 49.079 64.1826 49.3012 64.1826 49.6199V51.223C64.1826 51.4934 64.3039 51.6286 64.5558 51.6286C64.7891 51.6286 64.9011 51.4934 64.9011 51.223ZM66.9914 52.8745H65.1437V52.5364C64.9851 52.8455 64.5465 53 63.8093 53C62.6708 53 62.1016 52.5364 62.1016 51.619V49.8516C62.1009 49.4645 62.2485 49.0929 62.5122 48.8183C62.7921 48.5285 63.3427 48.1616 64.1826 47.7173C64.6678 47.4662 64.9104 47.2634 64.9104 47.1089V45.8051C64.9104 45.5154 64.7891 45.3705 64.5465 45.3705C64.2759 45.3705 64.1359 45.7182 64.1359 46.4232C64.1359 46.5487 64.1452 46.7419 64.1546 46.9833C64.1639 47.2248 64.1919 47.4179 64.1919 47.5435H62.1762V45.7954C62.1762 44.6076 63.0067 44.0088 64.6678 44.0088C66.2262 44.0088 67.0007 44.6269 67.0007 45.863V52.8745H66.9914Z" fill="#EE1C25"></path>
  </g>
  <defs>
    <clipPath id="clip0_9278_18750">
      <rect width="56" height="11" fill="white" transform="translate(11 42)"></rect>
    </clipPath>
  </defs>
</svg>
