<svg width="119" height="116" viewBox="0 0 119 116" fill="none" xmlns="http://www.w3.org/2000/svg">
<path fill-rule="evenodd" clip-rule="evenodd" d="M18.5812 85.6281L18.4124 85.3827C18.2859 85.215 18.1682 85.0409 18.0596 84.8611L17.5533 84.0633C17.5742 83.2845 17.6927 82.5114 17.9061 81.7622C18.4654 81.7594 19.0101 81.584 19.4659 81.26C19.9217 80.936 20.2664 80.4791 20.4528 79.9518C20.6671 79.0581 20.719 78.1332 20.6062 77.2211C20.6062 76.8703 20.5592 76.5274 20.5156 76.2091C20.4981 76.0819 20.4812 75.9586 20.4681 75.8404C20.4515 75.6913 20.4469 75.556 20.4427 75.4347C20.4354 75.2191 20.4295 75.0475 20.3607 74.9199C19.609 75.4108 16.7709 77.4205 16.2646 78.8166C16.1245 79.1087 16.0517 79.4285 16.0517 79.7524C16.0517 80.0764 16.1245 80.3962 16.2646 80.6882C16.498 81.0658 16.819 81.3816 17.2004 81.6087C17.0623 81.9616 16.8936 82.3912 16.6942 82.8207L16.2953 82.115C16.2183 81.9764 16.1292 81.8223 16.034 81.6574L16.0339 81.6573C15.8444 81.3294 15.6301 80.9585 15.4362 80.5808L14.6231 79.0467C14.5337 78.8808 14.4656 78.7255 14.4099 78.5985L14.3776 78.5251L14.2856 78.3257L13.5185 76.6228C13.6804 75.8612 13.9274 75.1201 14.2549 74.4137C14.806 74.4959 15.369 74.4094 15.8701 74.1658C16.3711 73.9221 16.7868 73.5325 17.0623 73.0483C17.4005 72.2381 17.6027 71.3777 17.6607 70.5016C17.6607 70.141 17.6953 69.8011 17.7273 69.4866C17.743 69.3329 17.758 69.1852 17.7681 69.0442C17.7901 68.7359 17.7805 68.4671 17.7733 68.2662L17.7733 68.2661C17.7705 68.1871 17.7681 68.1186 17.7681 68.0623C16.9396 68.4152 13.8714 69.9187 13.1657 71.2227C13.0038 71.4786 12.8991 71.7664 12.8588 72.0664C12.806 72.4576 12.8561 72.8557 13.004 73.2215C13.152 73.5874 13.3927 73.9084 13.7026 74.1528C13.5185 74.475 13.2731 74.8739 13.0123 75.2574C13.0123 75.2574 13.0122 75.0733 12.8435 74.7972C12.7031 74.4768 12.5802 74.149 12.4753 73.8153L11.9844 72.2812C11.9844 72.2812 11.877 71.9898 11.7849 71.6983C11.6929 71.4068 11.6162 71.1153 11.6162 71.1153L11.1099 69.3203C11.3885 68.5945 11.7433 67.9002 12.1685 67.2493C12.7012 67.4093 13.2698 67.4057 13.8004 67.2389C14.3311 67.072 14.7994 66.7496 15.1447 66.3135C15.632 65.5282 15.9702 64.6596 16.1419 63.7514C16.372 62.7849 16.5714 61.8798 16.6175 61.4963C15.743 61.7264 12.4906 62.7543 11.5088 63.9202C11.1609 64.3471 10.9799 64.8858 10.9997 65.4362C11.0195 65.9865 11.2385 66.5109 11.6162 66.9118L10.7724 67.8936C10.7724 67.8936 10.7724 67.5714 10.5883 67.1112C10.4712 66.8184 10.4224 66.4449 10.3708 66.0499C10.3412 65.824 10.3108 65.5911 10.2662 65.3623C10.1434 64.7333 10.036 64.089 9.99002 63.6134C9.944 63.1378 9.89798 62.8156 9.89798 62.8156L9.77522 61.8798V61.2355V60.944C10.1606 60.2721 10.6185 59.6445 11.1406 59.0724C11.6343 59.3244 12.1936 59.4183 12.7425 59.3414C13.2914 59.2646 13.8034 59.0207 14.2089 58.6428C14.8032 57.9933 15.2621 57.2319 15.5589 56.403C15.9036 55.6606 16.2007 54.8971 16.4487 54.1171C15.5436 54.2092 12.1685 54.7001 11.0486 55.6512C10.8077 55.8438 10.6093 56.0841 10.4656 56.357C10.3096 56.7186 10.2435 57.1126 10.2728 57.5053C10.3022 57.898 10.4262 58.2778 10.6343 58.6121L9.65251 59.4405V58.9497V57.8911V56.357V55.1143V54.1785V53.2427C10.1353 52.6398 10.6803 52.0896 11.2787 51.6012C11.732 51.9065 12.2662 52.0696 12.8128 52.0696C13.3594 52.0696 13.8936 51.9065 14.3469 51.6012C15.0658 51.0197 15.6605 50.2998 16.0958 49.4841C16.6328 48.6403 17.0777 47.8119 17.2464 47.4744C17.1855 47.4744 17.1131 47.474 17.0307 47.4736C15.8902 47.4681 12.8344 47.4534 11.6469 48.2261C11.3706 48.3857 11.1353 48.6074 10.9596 48.8736C10.7838 49.1399 10.6725 49.4434 10.6343 49.7602C10.592 50.2033 10.6551 50.6501 10.8185 51.0642L10.7741 51.0931L10.7739 51.0932C10.4736 51.2885 10.0937 51.5355 9.71389 51.7546L9.79058 50.9415C9.79058 50.6006 9.86153 50.1729 9.93562 49.7263C9.96488 49.55 9.99463 49.3707 10.0207 49.1926L10.0438 49.0347C10.1281 48.4571 10.2125 47.8795 10.2968 47.4437C10.3889 46.9681 10.4349 46.6459 10.4349 46.6459V46.3544C10.4349 46.2202 10.4834 46.0473 10.5341 45.8664C10.5472 45.8197 10.5604 45.7726 10.573 45.7254C10.6804 45.2652 10.7724 44.805 10.7724 44.805C11.3429 44.2783 11.9767 43.8248 12.6594 43.4549C13.0563 43.8447 13.5621 44.1046 14.11 44.2005C14.6579 44.2964 15.222 44.2237 15.7276 43.9919C16.0923 43.8201 16.4245 43.5865 16.7095 43.3015C16.9773 43.0581 17.2354 42.7857 17.4992 42.5073C17.5679 42.4348 17.637 42.3619 17.7067 42.289C18.4124 41.5066 18.9954 40.7548 19.2408 40.402C18.3655 40.2095 17.4791 40.0712 16.5868 39.9878C15.5604 39.8393 14.5142 39.9126 13.5185 40.2026C13.2422 40.3295 12.9883 40.5005 12.7668 40.7088C12.4334 41.0172 12.2258 41.4379 12.1838 41.8901C12.1334 42.2257 12.1334 42.567 12.1838 42.9026L10.9718 43.3782L11.4014 41.8441C11.4418 41.7055 11.4801 41.5669 11.5169 41.4333L11.517 41.4331L11.517 41.433C11.5781 41.2116 11.6355 41.0037 11.6929 40.8316L11.8463 40.3713L12.2452 39.2054V38.9753C12.2515 38.9192 12.2515 38.8626 12.2452 38.8065V38.7298L12.3833 38.331L12.7361 37.4565C13.3764 37.0224 14.0666 36.667 14.7919 36.3979C15.1311 36.8388 15.5936 37.1689 16.1207 37.3464C16.6479 37.524 17.2159 37.5409 17.7527 37.3951C19.253 36.6017 20.6113 35.5649 21.7721 34.3269C20.9284 33.9893 17.6607 32.9001 16.2339 33.299C15.9033 33.3557 15.5912 33.4913 15.3242 33.6943C15.0571 33.8972 14.843 34.1616 14.6998 34.4649C14.5316 34.8727 14.4582 35.3133 14.485 35.7536L14.3882 35.7789C14.0502 35.8673 13.6322 35.9766 13.227 36.0604L13.5492 35.324C13.6484 35.1256 13.7541 34.8913 13.8679 34.639L13.868 34.6389C14.0006 34.345 14.1441 34.0269 14.3009 33.7132L15.0987 32.1791C15.3134 31.7342 15.4822 31.458 15.4822 31.458L16.418 29.8319C17.1317 29.5165 17.8776 29.2799 18.6425 29.1262C18.8879 29.6324 19.283 30.051 19.7741 30.3254C20.2653 30.5998 20.8288 30.7167 21.3886 30.6603C22.2461 30.4713 23.0622 30.1282 23.7972 29.6478L25.0398 28.8807C25.3381 28.6943 25.5861 28.5179 25.7511 28.4005L25.7511 28.4005C25.7897 28.373 25.8238 28.3488 25.8529 28.3284C25.0858 27.8682 22.0636 26.2727 20.5448 26.3954C19.995 26.4371 19.4803 26.6814 19.1004 27.0811C18.7206 27.4808 18.5027 28.0073 18.4891 28.5585C18.3055 28.5585 18.0888 28.5793 17.8582 28.6014L17.8582 28.6014C17.6455 28.6218 17.4212 28.6432 17.2004 28.6506L17.4612 28.2517C17.5363 28.1426 17.6174 28.0152 17.7032 27.8804L17.7032 27.8804C17.8104 27.7121 17.9249 27.5323 18.0442 27.3619L18.9493 26.1039L19.3022 25.613L19.6857 25.1221L20.192 24.4624L20.8363 23.6493C21.5878 23.4435 22.3594 23.32 23.1375 23.2812C23.3202 23.8086 23.6583 24.2683 24.1074 24.5996C24.5566 24.931 25.0956 25.1185 25.6535 25.1374C26.5705 25.0759 27.4668 24.8362 28.2922 24.4318C29.0139 24.1516 29.7205 23.8341 30.4093 23.4806C29.7036 22.9129 26.9575 20.8879 25.454 20.7958C25.1301 20.7641 24.8032 20.8087 24.4995 20.9259C24.1958 21.0431 23.9238 21.2297 23.7051 21.4708C23.3993 21.7911 23.1871 22.1891 23.0915 22.6214L21.8028 22.5294L22.3244 21.9311C22.569 21.6516 22.8933 21.3189 23.2299 20.9735L23.23 20.9735C23.3367 20.864 23.4446 20.7532 23.5517 20.6425C23.6233 20.5658 23.6949 20.4874 23.7665 20.4089L23.7665 20.4089C23.9097 20.2521 24.0529 20.0952 24.1961 19.9521L24.7944 19.3845L25.3773 18.8321L26.0677 18.1725L26.7734 17.5742C27.5424 17.4745 28.3209 17.4745 29.0899 17.5742C29.1823 18.1247 29.4403 18.634 29.8295 19.0341C30.2187 19.4343 30.7207 19.7063 31.2684 19.814C31.6642 19.884 32.0692 19.884 32.465 19.814C32.7572 19.814 33.0626 19.7478 33.3726 19.6807C33.5346 19.6456 33.6978 19.6102 33.8611 19.5839C34.283 19.5158 34.7532 19.3753 35.1431 19.2588L35.2878 19.2157L36.2236 18.9549C35.6253 18.2645 33.232 15.7946 31.7746 15.5031C31.4759 15.4432 31.1682 15.4432 30.8695 15.5031C30.6317 15.5355 30.4025 15.6136 30.1945 15.7332C30.0127 15.836 29.8473 15.9652 29.7036 16.1167C29.4701 16.3624 29.2829 16.6482 29.1513 16.9605L27.8933 16.6383L29.1053 15.6872C29.7036 15.1963 30.3326 14.7667 30.3326 14.7667L31.3451 14.0457L31.5752 13.8769L31.8053 13.7235L31.928 13.6468H32.0201L32.8179 13.1405C33.5904 13.1637 34.3575 13.2769 35.1037 13.478C35.1087 14.0367 35.2849 14.5805 35.6086 15.0359C35.9324 15.4913 36.3879 15.8364 36.914 16.0247C37.813 16.2379 38.7428 16.2899 39.6601 16.1781C40.0271 16.1781 40.37 16.1297 40.6828 16.0856C40.8014 16.0688 40.9157 16.0527 41.0254 16.04L41.9459 15.9327C41.4703 15.1656 39.4606 12.3428 38.0646 11.8519C37.7738 11.7073 37.4535 11.632 37.1288 11.632C36.804 11.632 36.4837 11.7073 36.1929 11.8519C35.8082 12.0813 35.4866 12.4029 35.2571 12.7877L34.0452 12.2814L34.7508 11.8826C34.8829 11.8071 35.0252 11.7229 35.1753 11.634C35.5135 11.4339 35.8919 11.21 36.285 11.0081C36.6071 10.8547 39.2459 9.47397 41.4857 8.27735C41.8138 8.71981 42.2811 9.03907 42.8126 9.18377C43.3441 9.32846 43.9088 9.29019 44.4159 9.0751C46.0025 8.02132 47.3508 6.64688 48.3739 5.04033C46.5167 4.6037 44.5892 4.5567 42.713 4.90227C42.1658 5.12595 41.7136 5.53298 41.4337 6.05359C41.1538 6.57421 41.0637 7.17599 41.1788 7.75575C40.105 8.18531 39.0771 8.5995 38.7089 8.76826C38.3407 8.93701 35.6407 9.84217 35.6407 9.84217C35.6407 9.5141 35.7264 9.18603 35.8034 8.8913C35.8345 8.77255 35.8641 8.65922 35.8861 8.55348C36.3571 8.55779 36.8233 8.45829 37.2515 8.26202C37.5661 8.11234 37.8461 7.89854 38.0733 7.63435C38.3005 7.37016 38.47 7.06141 38.5709 6.72789C38.8126 5.72398 38.8749 4.68524 38.7549 3.65963C38.7549 2.72148 38.5873 1.82523 38.4858 1.28256L38.4858 1.28253L38.4858 1.28248C38.4645 1.1685 38.4461 1.07012 38.4328 0.990234C38.218 1.12831 37.8651 1.37376 37.4509 1.68059C37.0367 1.98741 36.5611 2.40164 36.1009 2.81585C35.2449 3.51834 34.5581 4.40447 34.0912 5.40853C33.9101 5.95216 33.9261 6.54218 34.1365 7.07516C34.3469 7.60814 34.7382 8.05003 35.2418 8.32337L34.8122 9.44328C34.6754 9.81784 34.5113 10.1819 34.3213 10.5325L33.815 10.824C33.5082 10.9928 33.094 11.2229 32.6951 11.4837L31.161 12.4962L30.8849 12.6803L30.2865 13.0945L29.4274 13.7082L29.0439 13.9843V13.2019V12.6803C29.5036 12.6106 29.9431 12.4433 30.3326 12.1894C30.6175 12.0021 30.8611 11.7584 31.0484 11.4735C31.2358 11.1886 31.3628 10.8684 31.4218 10.5325C31.4436 8.60137 31.1107 6.68261 30.4399 4.87158C30.2558 5.02499 29.9337 5.31648 29.5655 5.68467C29.1973 6.05286 28.7985 6.52843 28.4149 7.01935C27.6657 7.83396 27.1144 8.81044 26.8041 9.87283C26.7974 9.96476 26.7974 10.0571 26.8041 10.149C26.7747 10.6646 26.9066 11.1765 27.1815 11.6137C27.4564 12.0508 27.8607 12.3914 28.3382 12.5882C28.1906 13.37 28.0012 14.1433 27.7706 14.9048L27.1876 15.3497C26.9821 15.5085 26.7424 15.7128 26.486 15.9315C26.3212 16.0719 26.1496 16.2182 25.9756 16.3622L24.779 17.4054L24.2574 17.9117L23.3216 18.8015C23.1522 18.9497 22.9975 19.1125 22.8624 19.2546L22.8624 19.2546C22.8017 19.3185 22.7449 19.3782 22.6926 19.4305L22.4165 19.722C22.3398 19.2771 22.2784 18.7861 22.2477 18.4179C22.6973 18.2791 23.1109 18.0434 23.4597 17.7276C23.7046 17.4935 23.9 17.2127 24.0344 16.9018C24.1688 16.5908 24.2394 16.2561 24.2421 15.9173C23.9505 14.0047 23.3054 12.163 22.3397 10.4865C21.7414 11.2693 21.1931 12.0891 20.6982 12.9411C20.1104 13.8709 19.7334 14.9182 19.5937 16.0093C19.5876 16.5795 19.7827 17.1335 20.1446 17.574C20.5066 18.0145 21.0122 18.3133 21.5727 18.4179C21.5705 19.2147 21.5038 20.0099 21.3732 20.7958L20.9897 21.2407L20.1459 22.2226C19.8529 22.5352 19.5763 22.8629 19.3175 23.2044L18.9493 23.6647C18.9493 23.6647 18.6272 24.0942 18.2897 24.5084C18.134 24.6933 17.9905 24.888 17.8601 25.0914L17.6607 25.3522L17.3845 25.7511C17.367 25.6914 17.3494 25.6325 17.3321 25.5743L17.3317 25.573C17.2733 25.3772 17.217 25.1883 17.1697 24.9994L17.1697 24.9991L17.1696 24.999C17.1083 24.7538 17.0777 24.6311 17.0317 24.4778C17.4415 24.2562 17.8099 23.9655 18.1209 23.6186C18.3319 23.3503 18.4869 23.0422 18.5765 22.7128C18.6661 22.3833 18.6885 22.0392 18.6425 21.701C18.0645 19.8542 17.1547 18.1282 15.9578 16.6077C15.4704 17.4714 15.0449 18.3685 14.6845 19.2924C14.2336 20.2999 14.0134 21.3953 14.0401 22.4987V22.7595C14.1695 23.2688 14.4609 23.7223 14.8705 24.0515C15.28 24.3808 15.7854 24.5681 16.3106 24.5851C16.4137 25.3736 16.465 26.1679 16.464 26.9631L15.2214 28.9114L14.0555 30.9057L13.856 31.274C13.7486 31.4734 13.5952 31.7648 13.4572 32.0563L12.8588 33.2069C12.6973 32.9069 12.5531 32.5809 12.4263 32.294L12.4263 32.294C12.3845 32.1995 12.3446 32.1093 12.3066 32.0257C12.6892 31.753 13.0041 31.3961 13.227 30.9825C13.396 30.6875 13.5023 30.3609 13.5393 30.023C13.5762 29.6851 13.5431 29.3433 13.4418 29.0188C12.5713 27.2852 11.391 25.7254 9.95931 24.4164C9.86726 24.6465 9.72922 25.0454 9.56047 25.5516C9.39171 26.0579 9.26895 26.6562 9.14622 27.2545C8.86263 28.3267 8.82595 29.4492 9.03887 30.5376C9.21325 31.0822 9.57231 31.5488 10.0541 31.8569C10.5358 32.165 11.11 32.2952 11.6776 32.2251C11.9051 32.9863 12.0894 33.7597 12.2298 34.5417C12.2298 34.5417 12.1224 34.7564 11.9844 35.0786C11.9414 35.1789 11.8909 35.2896 11.8372 35.4075L11.8371 35.4078C11.7184 35.6685 11.5837 35.9642 11.4781 36.2599C11.1253 37.1343 10.7878 38.0088 10.7878 38.0088C10.7389 38.1129 10.6979 38.2207 10.665 38.331C10.665 38.4424 10.6088 38.5764 10.5474 38.7227L10.5474 38.7227C10.5074 38.818 10.4652 38.9184 10.4349 39.0213L10.0974 40.0185L9.944 40.4634L9.49909 39.8344C9.40704 39.6605 9.315 39.5071 9.22296 39.3742C9.56278 39.0509 9.82049 38.6512 9.97466 38.2082C10.1098 37.8985 10.1796 37.5643 10.1796 37.2264C10.1796 36.8885 10.1098 36.5542 9.97466 36.2445C8.85253 34.667 7.45444 33.3053 5.84785 32.2251C5.57171 33.2223 5.09613 37.0116 5.84785 38.3616C5.84785 38.4383 5.84788 38.5304 5.97061 38.5917C6.25549 39.0336 6.67394 39.3731 7.16508 39.5607C7.65621 39.7483 8.19442 39.7743 8.70136 39.6349C9.04388 40.352 9.34104 41.0898 9.59113 41.8441C9.59113 41.8441 9.51442 42.1356 9.39169 42.5345C9.31093 42.7969 9.23017 43.1391 9.14505 43.4998L9.14502 43.4999C9.10078 43.6873 9.05537 43.8797 9.00816 44.0686C8.93866 44.3466 8.87694 44.6285 8.81909 44.8927L8.81908 44.8927C8.762 45.1535 8.70867 45.397 8.65534 45.6027L8.53258 46.3084C8.53258 46.3084 8.40986 46.9528 8.30247 47.5818C8.21418 48.0077 8.14761 48.4378 8.10303 48.8704C7.78462 48.5643 7.48249 48.2417 7.1979 47.9039C7.48778 47.5301 7.6873 47.0943 7.78087 46.6306C7.8908 45.955 7.73703 45.263 7.35132 44.6976C5.97937 43.3335 4.37378 42.2268 2.61086 41.4299C2.58878 42.4181 2.62465 43.4067 2.71826 44.3907C2.80193 45.4919 3.11546 46.5633 3.6387 47.5357C3.97137 48.0123 4.46421 48.3535 5.02742 48.4971C5.59062 48.6408 6.18669 48.5772 6.70696 48.3181C7.1798 48.9608 7.59559 49.6435 7.9496 50.3585V50.9415V50.9419C7.9496 51.2947 7.9496 51.7547 7.84225 52.2302C7.78642 52.4774 7.78864 52.7205 7.79071 52.9466C7.79262 53.1553 7.7944 53.3494 7.75021 53.5188C7.65816 53.8717 7.75021 54.1171 7.75021 54.1171V56.2496V56.7098C7.55738 56.5858 7.36456 56.4372 7.18283 56.2971L7.12121 56.2496L6.72232 55.8967C6.94343 55.4841 7.07417 55.0291 7.10585 54.562C7.11893 53.88 6.86582 53.2196 6.40016 52.7211C4.84381 51.5592 3.08569 50.6958 1.2148 50.1744C1.34147 51.1561 1.52587 52.1294 1.76706 53.0893C2.01307 54.1599 2.47797 55.1679 3.13246 56.0501L3.33191 56.2342C3.73572 56.573 4.23951 56.77 4.76603 56.795C5.29255 56.8199 5.81272 56.6714 6.24674 56.3723C6.802 56.948 7.31473 57.5633 7.78087 58.2133V58.9343C7.78087 59.1838 7.81191 59.485 7.84395 59.7959C7.86707 60.0203 7.89072 60.2498 7.90358 60.4684C7.93426 60.99 7.9803 61.6344 8.057 62.0026L8.13374 62.7236L8.28711 64.0123C8.37916 64.6566 8.50191 65.3009 8.50191 65.3009C8.0877 65.0862 7.67348 64.856 7.35132 64.6566C7.55451 64.1204 7.58072 63.5334 7.42613 62.9812C7.27154 62.4291 6.94427 61.941 6.49221 61.5883C4.77896 60.703 2.91704 60.1413 1 59.9315C1.26911 60.8806 1.60753 61.8087 2.01253 62.7082C2.4125 63.7374 3.03606 64.6648 3.83815 65.4236C4.29308 65.7496 4.84626 65.9092 5.40491 65.8757C5.96356 65.8422 6.49371 65.6176 6.90641 65.2396C7.54743 65.6987 8.14795 66.212 8.70136 66.7737L9.13091 68.5993C9.21166 69.0236 9.31404 69.4435 9.43771 69.8573C9.52976 70.1948 9.60649 70.4249 9.60649 70.4249L9.88262 71.4374C9.95933 71.6982 10.0361 71.959 10.0974 72.1431L10.2048 72.45L10.3582 72.9102L9.62185 72.6494L9.11556 72.45C9.21285 71.9897 9.21285 71.5142 9.11556 71.0539C9.02018 70.7287 8.86124 70.4257 8.64794 70.1624C8.43464 69.899 8.17121 69.6806 7.87292 69.5198C6.04325 68.8929 4.11415 68.6069 2.18131 68.676C2.5837 69.5805 3.05555 70.4525 3.59268 71.284C4.14203 72.2451 4.90271 73.0687 5.81719 73.6926L6.0473 73.8153C6.53784 74.0073 7.07713 74.0364 7.58545 73.8982C8.09378 73.7601 8.54416 73.4621 8.87009 73.0483C9.56846 73.426 10.24 73.8515 10.8798 74.3216C10.8798 74.3216 11.3094 75.3955 11.7236 76.4847C11.8502 76.8014 11.9929 77.1074 12.1232 77.3869C12.2139 77.5814 12.2987 77.7632 12.3679 77.9268C12.5367 78.3257 12.6594 78.5865 12.6594 78.5865L12.8282 78.9547C12.8808 79.0675 12.9445 79.1913 13.012 79.3227L13.0121 79.3228L13.0122 79.323C13.0824 79.4595 13.1567 79.604 13.227 79.7524L13.8253 80.903C13.3917 80.8446 12.9615 80.7627 12.5367 80.6576C12.5386 80.1901 12.4336 79.7283 12.2298 79.3075C12.0976 78.9948 11.8987 78.7147 11.647 78.4868C11.3952 78.2589 11.0968 78.0887 10.7724 77.9882C9.77087 77.7322 8.73046 77.6646 7.70418 77.7888C6.55359 77.8655 5.46435 78.0189 5.01946 78.0956C5.15753 78.3103 5.40296 78.6785 5.70979 79.0927C5.96546 79.4379 6.2957 79.815 6.63837 80.2064L6.63849 80.2065C6.70701 80.2847 6.77602 80.3635 6.84503 80.4428C7.54752 81.2987 8.43364 81.9856 9.43771 82.4525C9.97931 82.6296 10.5658 82.6114 11.0954 82.4013C11.6251 82.1911 12.0644 81.8021 12.3372 81.3019L13.4572 81.7314C13.8714 81.9002 14.2549 82.069 14.5464 82.2224L14.8379 82.7287C14.9031 82.8373 14.9721 82.9595 15.0457 83.0897L15.0458 83.0898L15.0459 83.0899C15.18 83.3272 15.3292 83.5911 15.4975 83.8485L16.5101 85.3827L16.6942 85.6588L17.1084 86.2571L17.722 87.1316L18.7806 86.3645L18.5812 85.6281ZM99.5374 87.9754L98.5863 89.1874C98.5155 88.9222 98.4499 88.657 98.3894 88.4124L98.3891 88.411C98.3447 88.2316 98.303 88.0632 98.2641 87.914C98.5764 87.7824 98.8622 87.5953 99.1079 87.3618C99.2686 87.2228 99.4036 87.0566 99.5067 86.8708C99.6222 86.661 99.7001 86.4325 99.7369 86.1958C99.7887 85.8963 99.7887 85.5902 99.7369 85.2907C99.4454 83.8333 96.9601 81.44 96.2851 80.8417C96.2851 80.9652 96.216 81.1647 96.1335 81.403L96.1335 81.4032C96.093 81.5201 96.0493 81.6463 96.0089 81.7775C95.8862 82.1764 95.7635 82.6827 95.6561 83.2043C95.5487 83.7259 95.472 84.1554 95.4106 84.6003C95.356 84.9973 95.356 85.4 95.4106 85.797C95.5213 86.3459 95.7962 86.8483 96.199 87.2373C96.6018 87.6264 97.1133 87.8838 97.6658 87.9754C97.7502 88.7453 97.7502 89.5221 97.6658 90.292L97.0521 90.9977C96.73 91.3505 96.3925 91.688 96.3925 91.688L95.8402 92.271L95.2725 92.8693L94.5975 93.5137C94.4482 93.6534 94.3003 93.7946 94.1564 93.9321L94.1564 93.9321C93.8419 94.2325 93.5461 94.5151 93.2935 94.7256L92.6952 95.2625C92.6952 94.9845 92.6672 94.7008 92.6417 94.442V94.4419L92.6416 94.4415C92.6249 94.2721 92.6092 94.1134 92.6032 93.9739C93.0368 93.8694 93.4374 93.6585 93.7691 93.3602C94.0075 93.1401 94.1912 92.8674 94.3057 92.5638C94.4203 92.2602 94.4624 91.934 94.4288 91.6113C93.9062 89.7834 92.9899 88.0921 91.7441 86.6561C91.56 86.9936 91.161 87.8374 90.7929 88.7579C90.4042 89.5944 90.1654 90.4927 90.0872 91.4119C90.1102 91.9686 90.2993 92.5057 90.6301 92.9541C90.9609 93.4025 91.4183 93.7416 91.9435 93.9279C91.9058 94.7011 91.7823 95.4677 91.5753 96.2137L90.0412 97.3796L89.5502 97.7632L89.0593 98.116L87.8013 99.0058C87.4978 99.2226 87.1943 99.4122 86.9549 99.5617L86.9115 99.5888L86.4973 99.8496C86.4973 99.5351 86.5331 99.2206 86.5656 98.9355L86.5656 98.9353C86.5807 98.8032 86.595 98.6775 86.6047 98.5609C86.9999 98.5418 87.3837 98.4219 87.7194 98.2124C88.0551 98.0029 88.3315 97.7109 88.5224 97.3643C88.6623 97.0978 88.7458 96.8054 88.7678 96.5052C88.9059 94.9711 87.3104 91.9795 86.8502 91.1971C86.7275 91.3659 86.528 91.642 86.2979 92.0102L85.5154 93.2528C85.035 93.9878 84.692 94.8039 84.503 95.6614C84.44 96.2128 84.5455 96.7703 84.8056 97.2605C85.0658 97.7508 85.4684 98.1506 85.9604 98.4075C85.8137 99.1742 85.5768 99.9209 85.2547 100.632L83.6285 101.568C83.3998 101.703 83.1643 101.826 82.9228 101.936L81.3887 102.749C81.0445 102.921 80.7003 103.077 80.3845 103.22L80.3844 103.22L80.3843 103.22C80.1653 103.32 79.96 103.413 79.7778 103.501L79.0415 103.823L79.0425 103.819C79.1495 103.36 79.2565 102.901 79.3483 102.55C79.7927 102.592 80.2408 102.523 80.6523 102.35C80.9541 102.205 81.2172 101.99 81.4199 101.724C81.6226 101.457 81.7591 101.146 81.8182 100.816C82.2171 99.3893 81.1279 96.1217 80.7904 95.2625L80.1614 95.9529C79.8852 96.2444 79.563 96.5972 79.2409 96.9808C78.5974 97.651 78.078 98.4302 77.7067 99.282C77.5523 99.8183 77.5651 100.389 77.7433 100.918C77.9214 101.447 78.2565 101.909 78.704 102.243C78.4423 102.974 78.0809 103.666 77.6301 104.299L76.7556 104.651L76.1573 104.866L75.8811 104.958L74.7152 105.342L74.255 105.495L73.2424 105.802L71.7083 106.216C71.877 105.771 72.0458 105.342 72.1992 105.004C72.5291 105.062 72.8665 105.062 73.1964 105.004C73.6486 104.962 74.0693 104.755 74.3777 104.421C74.598 104.21 74.7706 103.953 74.8839 103.67C75.1715 102.7 75.2448 101.679 75.0987 100.678C75.0267 99.7903 74.8934 98.9086 74.6999 98.0393C74.5955 98.128 74.4344 98.2539 74.2365 98.4087L74.236 98.4091L74.2357 98.4092C73.8516 98.7095 73.3289 99.1181 72.8129 99.5734C72.46 99.8956 72.1072 100.218 71.8004 100.555C71.5159 100.844 71.2778 101.175 71.0946 101.537C70.8648 102.044 70.7946 102.609 70.8932 103.157C70.9918 103.705 71.2547 104.21 71.647 104.605C71.3126 105.344 70.8902 106.039 70.389 106.676L69.4685 106.876H69.1923C65.9707 107.229 60.4325 107.566 60.4325 107.566C60.4325 107.566 54.296 107.367 51.2277 106.968H50.9515C50.7674 106.968 50.5373 106.968 50.3072 106.845L49.4021 106.63C48.8742 106.063 48.4159 105.435 48.0367 104.759C48.4271 104.363 48.6887 103.858 48.7872 103.31C48.8858 102.763 48.8167 102.198 48.589 101.691C48.4118 101.329 48.1788 100.998 47.8986 100.709C47.7154 100.516 47.5104 100.319 47.3031 100.119C47.1631 99.9835 47.0221 99.8475 46.8861 99.7115C46.1037 99.0058 45.352 98.4228 44.9991 98.1774C44.8066 99.0527 44.6683 99.9391 44.5849 100.831C44.4468 101.828 44.52 102.842 44.7997 103.808C44.9176 104.09 45.0838 104.349 45.2906 104.575C45.6071 104.906 46.0316 105.112 46.4872 105.158C46.8171 105.216 47.1546 105.216 47.4844 105.158L47.9754 106.37L46.4412 105.94C46.3054 105.9 46.1675 105.863 46.0345 105.827C45.8068 105.765 45.5933 105.707 45.4287 105.649L44.9684 105.495L43.8025 105.096H43.6491H43.4803C43.3576 105.096 43.1956 105.018 43.0337 104.939L43.0327 104.939C42.9925 104.919 42.9523 104.9 42.9127 104.882L42.0382 104.544C41.601 103.9 41.2455 103.204 40.9797 102.473C41.4271 102.139 41.7622 101.677 41.9404 101.148C42.1185 100.619 42.1313 100.048 41.9769 99.5121C41.6132 98.6562 41.0929 97.8758 40.4428 97.2109C40.1206 96.8273 39.7984 96.4592 39.5223 96.183L38.8933 95.4927C38.5558 96.3364 37.4665 99.6041 37.8654 101.031C37.9263 101.358 38.0619 101.666 38.2614 101.932C38.461 102.198 38.7192 102.415 39.016 102.565C39.4275 102.738 39.8755 102.807 40.32 102.764C40.4121 103.117 40.5195 103.578 40.6269 104.038L39.8905 103.7L38.2796 102.964L36.7455 102.151C36.316 101.936 36.0398 101.767 36.0398 101.767L34.4136 100.831C34.0965 100.12 33.8647 99.3731 33.7233 98.6069C34.2181 98.3535 34.6232 97.9542 34.8839 97.4631C35.1445 96.972 35.2481 96.4128 35.1807 95.8609C34.9977 95.004 34.6598 94.1877 34.1835 93.4523L33.4164 92.2096L32.8642 91.3966C32.3886 92.1636 30.7931 95.1858 30.9312 96.7046C30.9725 97.2519 31.2147 97.7645 31.6112 98.144C32.0077 98.5235 32.5304 98.743 33.0789 98.7604C33.0789 98.9439 33.0997 99.1607 33.1218 99.3913C33.1421 99.6039 33.1636 99.8282 33.171 100.049L32.7721 99.7882C32.6761 99.7222 32.566 99.6539 32.4492 99.5813L32.449 99.5813C32.2672 99.4684 32.0691 99.3453 31.8823 99.2053L30.6243 98.3001L30.1334 97.9473L29.6425 97.5637L28.1084 96.3978C27.9075 95.6453 27.7842 94.8742 27.7402 94.0966C28.2693 93.9193 28.7318 93.5851 29.0662 93.1383C29.4005 92.6916 29.5909 92.1536 29.6118 91.596C29.5484 90.6743 29.3088 89.7734 28.9061 88.9419C28.6268 88.2249 28.3093 87.5233 27.9549 86.8402C27.3873 87.5305 25.3623 90.2766 25.2702 91.7954C25.2379 92.1157 25.2806 92.4393 25.3951 92.7402C25.5096 93.0411 25.6927 93.3112 25.9299 93.529C26.2575 93.8361 26.6593 94.0528 27.0958 94.158C27.0958 94.5262 27.0958 94.9864 27.0038 95.4313L26.3901 94.9097C26.1597 94.708 25.8992 94.4583 25.6199 94.1906L25.6198 94.1905L25.6197 94.1904C25.4529 94.0305 25.2793 93.8641 25.1015 93.6977L24.4265 93.038L23.8588 92.4398L23.3065 91.8568L22.6622 91.1664L22.0639 90.4607C21.9642 89.6917 21.9642 88.9132 22.0639 88.1442C22.6163 88.0526 23.1279 87.7951 23.5306 87.4061C23.9334 87.017 24.2084 86.5147 24.3191 85.9657C24.3739 85.5687 24.3739 85.1661 24.3191 84.7691C24.3191 84.4557 24.2429 84.127 24.1657 83.7938C24.1334 83.6541 24.1008 83.5136 24.0736 83.373C23.9816 82.8975 23.8435 82.3605 23.7207 81.9463C23.6589 81.7377 23.6088 81.5485 23.5664 81.3885C23.5246 81.231 23.4904 81.1018 23.46 81.0105C22.7696 81.5934 20.2996 84.0021 19.9928 85.4595C19.9407 85.7589 19.9407 86.0651 19.9928 86.3646C20.0345 86.6001 20.1121 86.8278 20.2229 87.0396C20.3257 87.2214 20.4549 87.3868 20.6065 87.5305C20.8586 87.7556 21.143 87.9418 21.4502 88.0828C21.3735 88.4357 21.2508 88.8959 21.1281 89.3408L20.1769 88.1289C19.686 87.5305 19.2565 86.9015 19.2565 86.9015L18.1979 87.6686L18.474 88.0521H17.707H17.17C17.1085 87.5855 16.9406 87.1394 16.6791 86.7481C16.2954 86.1844 15.7061 85.7934 15.0376 85.6589C13.1014 85.6359 11.1773 85.9688 9.3613 86.6407L9.41199 86.6961C9.58541 86.8857 9.85609 87.1815 10.1897 87.5152C10.5579 87.8833 11.0333 88.2821 11.5088 88.6808L11.5088 88.6809L11.5091 88.6811C12.334 89.3988 13.3089 89.923 14.3626 90.2152H14.6234C15.141 90.2567 15.6582 90.1297 16.0977 89.8532C16.5373 89.5767 16.8757 89.1656 17.0626 88.6811C17.8497 88.8338 18.6282 89.0284 19.3945 89.2641L19.8394 89.8317C20.0142 90.0682 20.2441 90.3392 20.4876 90.6261C20.6074 90.7673 20.7305 90.9123 20.8519 91.059L21.8952 92.2557L22.4014 92.7773L23.2912 93.7131C23.506 93.9432 23.7361 94.1733 23.9202 94.3421L24.2117 94.6182C23.7755 94.6998 23.335 94.7562 22.8923 94.787C22.7599 94.338 22.5293 93.924 22.2173 93.575C21.7383 93.087 21.0904 92.8015 20.4071 92.7773C18.5263 93.0019 16.6989 93.5522 15.0069 94.4034C15.7912 95.0044 16.6108 95.5577 17.4615 96.0603C18.3953 96.6428 19.4403 97.0242 20.5298 97.1802C21.1023 97.1802 21.6571 96.9814 22.0993 96.6176C22.5414 96.2538 22.8434 95.7477 22.9537 95.1859C23.7504 95.1887 24.5456 95.2554 25.3316 95.3853L25.7611 95.7841L26.743 96.6279C27.0958 96.9348 27.4487 97.2416 27.7248 97.4563L28.2004 97.8246L29.0442 98.4689C29.2291 98.6291 29.4238 98.7777 29.6271 98.9138L29.888 99.0979L30.2715 99.3894L29.5351 99.6042L29.0135 99.7422C28.7967 99.3248 28.5056 98.9505 28.1544 98.6376C27.8849 98.4293 27.5763 98.2771 27.2469 98.1902C26.9175 98.1032 26.574 98.0832 26.2367 98.1314C24.3897 98.7015 22.6632 99.6064 21.1434 100.801C22.0031 101.286 22.895 101.711 23.8128 102.074C24.8203 102.525 25.9157 102.745 27.0191 102.718H27.2953C27.8022 102.585 28.2529 102.292 28.5814 101.883C28.9099 101.475 29.099 100.972 29.1209 100.448C29.9093 100.345 30.7036 100.294 31.4988 100.294L33.4472 101.537L35.4415 102.703L35.7944 102.903L36.5921 103.317L37.7427 103.9C37.3584 104.103 36.9642 104.288 36.5614 104.452C36.2824 104.075 35.9269 103.761 35.5182 103.532C35.2229 103.363 34.8964 103.258 34.5586 103.221C34.2209 103.184 33.8791 103.216 33.5545 103.317C31.8253 104.188 30.2665 105.362 28.9521 106.784C29.1976 106.891 29.5965 107.029 30.0874 107.183C30.5783 107.336 31.192 107.49 31.8056 107.612C32.8714 107.903 33.9907 107.94 35.0733 107.72C35.6184 107.551 36.0864 107.195 36.3951 106.716C36.7038 106.236 36.8333 105.662 36.7608 105.096C37.5272 104.869 38.3057 104.684 39.0927 104.544L39.6297 104.789L39.76 104.848L39.7601 104.848C40.0525 104.981 40.426 105.15 40.811 105.296L42.5598 105.986L42.8667 106.109L43.5571 106.339L44.5696 106.676L45.0145 106.83L44.3701 107.275L43.9252 107.551C43.5951 107.216 43.1978 106.954 42.7593 106.784C42.4424 106.667 42.1054 106.616 41.7681 106.631C41.4309 106.647 41.1002 106.73 40.7956 106.876C39.2182 107.997 37.8521 109.389 36.7608 110.987C37.758 111.264 41.5473 111.739 42.8973 110.987L43.1275 110.849C43.5718 110.57 43.9136 110.155 44.1017 109.665C44.2898 109.176 44.314 108.638 44.1707 108.134C44.8947 107.795 45.6373 107.498 46.3952 107.244L47.0855 107.428C47.3893 107.529 47.7755 107.622 48.1776 107.719C48.3239 107.754 48.4723 107.79 48.6197 107.827L50.1538 108.18L50.8748 108.303C52.8002 108.662 54.748 108.887 56.7045 108.978L57.1188 109.1C50.1385 111.356 48.2975 115.728 48.2975 115.728H51.2737C52.1328 113.227 56.4437 111.125 59.6347 109.975C62.8103 111.187 67.1366 113.243 67.9804 115.743H70.9566C70.9566 115.743 69.131 111.371 62.1507 109.1H62.3348C65.0183 108.975 67.6868 108.626 70.3123 108.057L70.9719 107.904C71.1207 107.868 71.2683 107.832 71.4127 107.798L71.4138 107.798C71.8202 107.701 72.2007 107.611 72.5061 107.52L73.2118 107.321C73.5814 107.422 74.0623 107.635 74.5372 107.846C74.8508 107.985 75.1617 108.122 75.4363 108.226C75.2889 108.729 75.3095 109.266 75.495 109.756C75.6805 110.246 76.0207 110.662 76.4641 110.941L76.6789 111.079C78.1056 111.816 81.8949 111.356 82.8154 111.079C81.7309 109.476 80.3699 108.079 78.796 106.953C78.4914 106.807 78.1607 106.724 77.8235 106.708C77.4862 106.692 77.1492 106.744 76.8323 106.861C76.3878 107.019 75.988 107.282 75.6664 107.628L75.2061 107.336L74.5771 106.907L75.022 106.753L76.0345 106.416L76.7096 106.186L77.0317 106.063L78.7806 105.372C79.0868 105.256 79.3784 105.126 79.6355 105.01L79.6358 105.01C79.7522 104.958 79.8615 104.909 79.9619 104.866L80.4989 104.621C81.2855 104.763 82.0639 104.947 82.8307 105.173C82.7536 105.739 82.8791 106.315 83.1851 106.798C83.4911 107.281 83.9578 107.64 84.503 107.812C85.5907 108.032 86.715 107.996 87.786 107.704C88.3843 107.582 88.998 107.444 89.4889 107.29C89.8258 107.185 90.1266 107.08 90.3566 106.999C90.4617 106.962 90.552 106.931 90.6241 106.907C89.3203 105.465 87.7596 104.279 86.0217 103.409C85.4101 103.24 84.7569 103.311 84.1961 103.608C83.7874 103.838 83.432 104.152 83.1529 104.529L83.1167 104.512C83.0536 104.484 82.9876 104.454 82.9193 104.424C82.6281 104.293 82.2952 104.144 81.9716 103.976L83.1222 103.378L83.92 102.979L84.2728 102.78L86.2672 101.629L88.2155 100.387C89.0109 100.377 89.8058 100.429 90.5935 100.54C90.6187 101.065 90.8109 101.568 91.142 101.977C91.4731 102.385 91.9258 102.677 92.4344 102.81C92.5211 102.819 92.6085 102.819 92.6952 102.81C93.7976 102.844 94.8933 102.629 95.9015 102.181C96.8226 101.815 97.7194 101.389 98.5863 100.908C97.0639 99.714 95.3384 98.8046 93.4929 98.2234C92.812 98.133 92.1229 98.315 91.5753 98.7297C91.2195 99.0382 90.9277 99.4135 90.7162 99.8343L90.1946 99.6962L89.4429 99.466L89.8417 99.2053L90.1025 99.0058C90.3059 98.8697 90.5006 98.7211 90.6855 98.5609L91.5293 97.9166C91.5293 97.9166 91.698 97.7632 91.9895 97.5484C92.2208 97.3779 92.4812 97.1494 92.7552 96.909C92.8062 96.8643 92.8576 96.8192 92.9094 96.774C92.93 96.756 92.9506 96.738 92.9713 96.72L93.9532 95.8762L94.3981 95.4927C95.184 95.3621 95.9793 95.2954 96.776 95.2932C96.8802 95.8551 97.1784 96.3626 97.6186 96.7271C98.0588 97.0916 98.613 97.29 99.1845 97.2876C100.272 97.1333 101.316 96.7574 102.253 96.183C103.106 95.6842 103.926 95.1308 104.707 94.5261C103.031 93.5605 101.189 92.9154 99.2766 92.6238C98.5937 92.636 97.9431 92.9172 97.4663 93.4063C97.1561 93.7591 96.9212 94.1715 96.776 94.6182C96.4425 94.6182 96.0083 94.5427 95.5988 94.4715L95.472 94.4495L95.7635 94.1733C95.8158 94.121 95.8755 94.0643 95.9393 94.0035L95.9395 94.0034C96.0816 93.8683 96.2443 93.7136 96.3925 93.5443C96.8374 93.0687 97.2976 92.6085 97.2976 92.6085C97.2976 92.6085 97.4817 92.3937 97.7885 92.0869L98.8317 90.8903C98.9033 90.8073 98.9748 90.7248 99.0455 90.6433L99.0457 90.6431C99.3537 90.2881 99.6447 89.9528 99.8443 89.6783L100.304 89.1107C101.065 88.8732 101.839 88.6786 102.621 88.5277C102.808 89.0122 103.146 89.4233 103.586 89.6998C104.025 89.9762 104.543 90.1033 105.06 90.0619H105.321C106.377 89.7761 107.354 89.2512 108.175 88.5277C108.665 88.1442 109.126 87.73 109.509 87.3771C109.805 87.1052 110.037 86.8424 110.205 86.6519L110.205 86.6518C110.235 86.6179 110.262 86.5864 110.288 86.5574C110.306 86.538 110.322 86.5197 110.338 86.5027C108.521 85.8324 106.598 85.4946 104.661 85.5055C104.329 85.5698 104.014 85.699 103.732 85.886C103.45 86.0729 103.208 86.3138 103.02 86.5947C102.761 86.9815 102.593 87.4221 102.529 87.8834H101.992H101.21L101.294 87.7722L101.363 87.8218C101.363 87.8218 101.654 87.3923 101.976 86.9627L102.39 86.3644L102.575 86.0883L103.587 84.5541C103.738 84.323 103.874 84.0866 103.997 83.872C104.087 83.7164 104.169 83.5721 104.247 83.4496C104.431 83.1581 104.538 82.928 104.538 82.928C104.892 82.7498 105.256 82.591 105.627 82.4524L106.763 82.0075C107.023 82.5154 107.459 82.9117 107.989 83.1232C108.519 83.3347 109.108 83.3471 109.647 83.1581C110.659 82.7042 111.552 82.0214 112.255 81.1637C112.669 80.7035 113.068 80.2432 113.39 79.8137C113.712 79.3841 113.942 79.0466 114.081 78.8319C113.636 78.7552 112.546 78.5864 111.411 78.5097C110.386 78.3907 109.347 78.453 108.343 78.6938C108.009 78.7947 107.701 78.9642 107.436 79.1914C107.172 79.4186 106.958 79.6985 106.809 80.0131C106.613 80.436 106.513 80.8971 106.517 81.3632C106.149 81.4552 105.674 81.5473 105.229 81.624L105.827 80.458L106.226 79.6756C106.275 79.5498 106.331 79.4269 106.395 79.3074C106.395 79.3074 106.517 79.0467 106.686 78.6478C106.754 78.4874 106.837 78.3071 106.925 78.114C107.057 77.8269 107.202 77.5113 107.33 77.1903L108.19 75.0426C108.827 74.569 109.499 74.1434 110.199 73.7692C110.523 74.1818 110.97 74.4792 111.476 74.6173C111.982 74.7555 112.518 74.7271 113.007 74.5363L113.252 74.4289C114.167 73.8051 114.927 72.9814 115.477 72.0203C116.01 71.1892 116.487 70.323 116.903 69.4277C114.972 69.3459 113.043 69.6215 111.212 70.2407C110.606 70.5651 110.153 71.1169 109.954 71.7749C109.864 72.2359 109.864 72.7099 109.954 73.1709L109.447 73.3704L108.711 73.6311L108.864 73.1709L108.972 72.8641C108.972 72.7463 109.028 72.5971 109.089 72.4367C109.123 72.3463 109.159 72.2523 109.187 72.1584C109.325 71.6521 109.478 71.1459 109.478 71.1459L109.632 70.5782C109.954 69.8572 110.061 69.4123 110.169 68.9521L110.598 67.1265C111.155 66.5684 111.755 66.0555 112.393 65.5923C112.802 65.9753 113.332 66.2044 113.891 66.2408C114.451 66.2772 115.006 66.1185 115.461 65.7918C116.274 65.0358 116.908 64.1081 117.318 63.0763C117.718 62.1749 118.056 61.2472 118.33 60.2996C116.408 60.511 114.542 61.0725 112.823 61.9564C112.365 62.3047 112.035 62.7937 111.882 63.348C111.73 63.9024 111.764 64.4915 111.979 65.0247C111.641 65.2241 111.227 65.4543 110.813 65.6537C110.813 65.6537 110.936 65.0247 111.028 64.3803C111.12 63.736 111.196 63.0917 111.196 63.0917C111.196 63.0917 111.196 62.8156 111.288 62.386C111.362 61.8774 111.408 61.3653 111.426 60.8519C111.426 60.4991 111.466 60.1519 111.5 59.8477C111.523 59.6493 111.543 59.4692 111.549 59.3177C111.565 58.9342 111.549 58.5813 111.549 58.5813C112.012 57.9339 112.525 57.3235 113.083 56.7557C113.52 57.0476 114.039 57.1917 114.564 57.1669C115.088 57.142 115.591 56.9495 115.998 56.6177L116.182 56.4336C116.85 55.5572 117.321 54.5474 117.563 53.4727C117.804 52.5179 117.988 51.5497 118.115 50.5732C116.247 51.0859 114.489 51.9388 112.93 53.0892C112.468 53.5903 112.216 54.2489 112.224 54.9301C112.249 55.4033 112.38 55.8648 112.608 56.2801L112.209 56.6177L111.565 57.0932V56.6177V54.5006V53.9023V53.9022C111.565 53.5493 111.565 53.0891 111.473 52.6136C111.41 52.2906 111.397 51.9747 111.386 51.6947C111.38 51.5624 111.375 51.4382 111.365 51.3249C111.334 50.9721 111.365 50.742 111.365 50.742C111.734 50.0319 112.154 49.3499 112.623 48.7015C113.141 48.9654 113.737 49.0332 114.301 48.8922C114.865 48.7512 115.359 48.411 115.691 47.9345C116.213 46.9612 116.526 45.8903 116.612 44.7895C116.716 43.8062 116.757 42.8172 116.735 41.8287C114.964 42.6195 113.352 43.7268 111.979 45.0963C111.592 45.6611 111.438 46.3537 111.549 47.0294C111.65 47.4908 111.849 47.9251 112.132 48.3027C111.887 48.5788 111.549 48.9317 111.227 49.2539C111.227 49.2539 111.15 48.6095 111.028 47.9652L110.813 46.6918C110.813 46.6918 110.813 46.4157 110.69 45.9862C110.567 45.557 110.445 45.0053 110.322 44.4535L110.322 44.452C110.221 43.9342 110.093 43.4221 109.938 42.9179C109.816 42.4883 109.754 42.2122 109.754 42.2122C110.004 41.4579 110.302 40.7201 110.644 40.0031C111.149 40.1464 111.687 40.1239 112.179 39.9389C112.67 39.7539 113.09 39.4161 113.375 38.9752L113.513 38.7297C114.249 37.3336 113.789 33.529 113.513 32.5932C111.898 33.6625 110.494 35.0198 109.371 36.5973C109.225 36.9019 109.142 37.2326 109.126 37.5698C109.111 37.9071 109.162 38.2441 109.279 38.561C109.437 39.0019 109.694 39.4007 110.03 39.7269L109.754 40.1871L109.325 40.8161L109.171 40.3712C109.171 40.3712 108.987 39.865 108.834 39.3741C108.797 39.2709 108.763 39.1702 108.731 39.0738C108.681 38.9264 108.635 38.789 108.588 38.6684L108.481 38.3615C108.481 38.3615 108.143 37.4871 107.791 36.6126C107.674 36.3065 107.544 36.0149 107.429 35.7578C107.376 35.6413 107.327 35.5318 107.284 35.4313C107.146 35.1092 107.039 34.8791 107.039 34.8791C107.186 34.0973 107.376 33.3239 107.607 32.5625C108.173 32.6366 108.747 32.5098 109.229 32.2042C109.711 31.8987 110.071 31.4338 110.245 30.8903C110.458 29.8019 110.421 28.6794 110.138 27.6073C110.015 27.009 109.862 26.4107 109.724 25.9044C109.6 25.4506 109.451 25.083 109.356 24.846C109.345 24.8186 109.334 24.793 109.325 24.7691C107.893 26.0781 106.713 27.6379 105.842 29.3715C105.741 29.6952 105.706 30.0363 105.74 30.3739C105.774 30.7115 105.877 31.0386 106.042 31.3352C106.272 31.7439 106.585 32.0994 106.962 32.3784C106.824 32.7159 106.625 33.1455 106.41 33.5597L105.827 32.3937C105.736 32.2293 105.65 32.0594 105.569 31.9003C105.514 31.7922 105.462 31.6891 105.413 31.596L105.229 31.2585L104.063 29.2488L102.82 27.3005C102.817 26.5047 102.873 25.7098 102.989 24.9225C103.513 24.9006 104.016 24.7115 104.424 24.383C104.833 24.0545 105.125 23.6038 105.259 23.0969V22.8361C105.286 21.7327 105.066 20.6373 104.615 19.6298C104.261 18.7055 103.841 17.8082 103.357 16.9451C102.155 18.4589 101.24 20.1799 100.657 22.0231C100.609 22.3614 100.631 22.7059 100.72 23.0355C100.81 23.3652 100.966 23.6732 101.179 23.9407C101.478 24.3001 101.849 24.5927 102.268 24.7998L102.13 25.3214C102.102 25.4098 102.076 25.5001 102.051 25.5909C102.005 25.7526 101.958 25.916 101.9 26.0731L101.623 25.6896L101.439 25.4135L101.01 24.8305L100.35 24.0021L99.9819 23.5418C99.7227 23.1957 99.4462 22.8629 99.1535 22.5447L98.3097 21.5628L97.9262 21.1179C97.8037 20.331 97.737 19.5364 97.7267 18.74C98.2915 18.639 98.8025 18.3421 99.1701 17.9016C99.5376 17.4611 99.7382 16.9051 99.7364 16.3314C99.5801 15.2444 99.2043 14.2005 98.6319 13.2632C98.137 12.4112 97.5887 11.5913 96.9903 10.8086C96.0193 12.484 95.369 14.3257 95.0727 16.2394C95.0848 16.9223 95.366 17.5729 95.8551 18.0497C96.2079 18.3599 96.6203 18.5948 97.0671 18.74C97.0671 19.0735 96.9915 19.5077 96.9203 19.9172C96.9129 19.9598 96.9055 20.0021 96.8983 20.044C96.8983 20.044 96.7756 19.9366 96.6068 19.7525C96.438 19.5684 96.2233 19.3383 95.9932 19.1235L95.042 18.2184L94.5204 17.7275C94.3904 17.6099 94.2404 17.4797 94.0795 17.3402C93.8417 17.1339 93.58 16.9068 93.3238 16.6689C92.8942 16.27 92.4493 15.9172 92.0965 15.6564L91.5442 15.2115C91.3085 14.4452 91.1139 13.6668 90.9612 12.8796C91.4559 12.7045 91.8804 12.3734 92.1709 11.9363C92.4614 11.4992 92.6021 10.9797 92.572 10.4557C92.5796 10.3638 92.5796 10.2715 92.572 10.1796C92.2798 9.12594 91.7556 8.15099 91.0379 7.3261C90.6544 6.83518 90.2402 6.37493 89.8873 5.99139C89.6153 5.69576 89.3525 5.46394 89.162 5.29592C89.1053 5.24597 89.0551 5.20165 89.0129 5.16297C88.3367 6.97831 87.9987 8.90214 88.0157 10.8392C88.0748 11.1711 88.2004 11.4876 88.385 11.7697C88.5695 12.0518 88.8092 12.2937 89.0896 12.4808C89.4839 12.7392 89.9282 12.9116 90.3936 12.987V13.5086V14.291L90.0101 14.0149L89.151 13.4012L88.568 12.9717L88.2765 12.7876L86.7424 11.7751C86.3588 11.5143 85.9446 11.2842 85.6378 11.1154L85.1315 10.8239C84.9415 10.4733 84.7775 10.1092 84.6406 9.73467L84.2111 8.59943C84.7135 8.32887 85.1043 7.88972 85.3147 7.35934C85.5252 6.82896 85.5418 6.24133 85.3617 5.69991C84.9121 4.68961 84.2284 3.8009 83.3673 3.10725C82.907 2.69303 82.4468 2.27882 82.0172 1.95665L81.0354 1.28163C81.0354 1.48483 80.9842 1.82243 80.9213 2.23744C80.8464 2.73108 80.7549 3.33425 80.7132 3.951C80.592 4.97657 80.6543 6.01554 80.8973 7.01926C80.9928 7.35536 81.1603 7.66668 81.3881 7.9316C81.6159 8.19651 81.8986 8.40867 82.2167 8.55339C82.639 8.75276 83.0997 8.85749 83.5667 8.86023C83.6718 9.28503 83.7537 9.71521 83.8122 10.1489C83.8122 10.1489 81.3882 9.33581 80.7439 9.07501C80.4796 8.96803 80.1972 8.84814 79.882 8.71429C79.4287 8.52183 78.9074 8.3005 78.274 8.04714C78.3962 7.46491 78.3093 6.85824 78.0288 6.33363C77.7483 5.80902 77.2919 5.39999 76.7399 5.17831C74.8586 4.83059 72.9257 4.8776 71.0636 5.31637C72.1032 6.91397 73.4483 8.2904 75.0216 9.3665C75.5321 9.57464 76.097 9.6093 76.6291 9.46517C77.1613 9.32103 77.6314 9.00609 77.9671 8.56874L83.1525 11.3148C83.6349 11.5625 84.1062 11.8435 84.4911 12.073C84.5591 12.1135 84.6244 12.1524 84.6866 12.1893L85.3923 12.5882L85.392 12.5883C84.9625 12.7724 84.5331 12.9564 84.1957 13.0791C83.958 12.7009 83.6381 12.381 83.2599 12.1433C82.9678 12.0031 82.648 11.9304 82.3241 11.9304C82.0001 11.9304 81.6803 12.0031 81.3883 12.1433C79.9922 12.6495 77.9671 15.457 77.4916 16.2087L78.4121 16.3314C78.6322 16.3314 78.8758 16.3641 79.1324 16.3986C79.3407 16.4266 79.5575 16.4558 79.7774 16.4695C80.6938 16.5856 81.6234 16.5389 82.5235 16.3314C83.0476 16.1382 83.5018 15.7923 83.8272 15.3383C84.1527 14.8843 84.3345 14.3432 84.3491 13.7848C85.0951 13.5826 85.8624 13.4693 86.635 13.4473L87.4174 13.9535H87.5094C87.6549 14.0397 87.7934 14.1371 87.9236 14.245L88.1691 14.4138L89.1663 15.1195C89.1663 15.1195 89.7953 15.5644 90.4089 16.0553L91.6055 17.0064L90.3476 17.3286C90.2159 17.0163 90.0288 16.7304 89.7953 16.4848C89.6522 16.3284 89.4868 16.194 89.3043 16.086C89.0954 15.9714 88.8661 15.8984 88.6294 15.8712C88.3307 15.8109 88.0229 15.8109 87.7242 15.8712C86.2668 16.1627 83.8582 18.6326 83.2599 19.323L84.2111 19.5838C84.6253 19.7065 85.1008 19.8446 85.6224 19.952C86.144 20.0594 86.5736 20.1361 87.0185 20.1821C87.4195 20.2514 87.8295 20.2514 88.2305 20.1821C88.7764 20.0704 89.2761 19.7971 89.6646 19.3977C90.0531 18.9982 90.3125 18.4911 90.4089 17.9423C91.1779 17.8425 91.9565 17.8425 92.7255 17.9423L93.4311 18.5559L94.1062 19.2003L94.6891 19.7525L95.2875 20.3355L95.9471 21.0105C96.1494 21.2345 96.3585 21.455 96.5568 21.6642C96.7795 21.8992 96.9887 22.1197 97.1591 22.3146L97.6807 22.9128L96.3921 23.0049C96.294 22.5689 96.0822 22.1666 95.7784 21.839C95.5606 21.6018 95.2905 21.4187 94.9896 21.3042C94.6886 21.1897 94.3652 21.1469 94.0448 21.1793C92.5107 21.256 89.7799 23.2657 89.0742 23.8487C89.4117 24.0328 90.2555 24.4316 91.176 24.7998C92.0074 25.2026 92.9084 25.4421 93.83 25.5055C94.386 25.4878 94.9237 25.3025 95.3727 24.974C95.8216 24.6456 96.1609 24.1892 96.346 23.6646C97.1193 23.7023 97.8859 23.8257 98.6319 24.0328L99.7978 25.5669L100.181 26.0578L100.534 26.5641L101.424 27.8221C101.564 28.0089 101.687 28.207 101.8 28.3889C101.873 28.5057 101.941 28.6158 102.007 28.7118L102.268 29.1107C101.808 29.1107 101.332 29.1107 100.979 29.0187C100.96 28.6235 100.84 28.2397 100.631 27.904C100.421 27.5683 100.129 27.2919 99.7825 27.101C99.5136 26.9645 99.2228 26.8762 98.9234 26.8402C97.3892 26.7021 94.3977 28.2976 93.6153 28.7579C93.7687 28.8806 94.0602 29.0801 94.413 29.3102L95.6556 30.0926C96.3966 30.5616 97.2107 30.9039 98.0642 31.1051C98.6265 31.1647 99.1934 31.0494 99.6876 30.7749C100.182 30.5003 100.579 30.0798 100.826 29.571C101.588 29.7153 102.33 29.9524 103.035 30.2767L103.971 31.9029C103.971 31.9029 104.139 32.179 104.354 32.6239L105.152 34.158C105.368 34.5781 105.558 35.0149 105.723 35.394C105.782 35.5272 105.836 35.6532 105.888 35.7688L106.226 36.5052L104.952 36.1984C104.995 35.7539 104.926 35.3059 104.753 34.8944C104.608 34.5925 104.393 34.3294 104.126 34.1268C103.86 33.9241 103.549 33.7876 103.219 33.7285C101.792 33.3143 98.5245 34.4035 97.6807 34.741C98.8346 35.9802 100.188 37.0173 101.685 37.8092C102.222 37.9643 102.794 37.9535 103.325 37.7783C103.856 37.6031 104.321 37.2717 104.661 36.8274C105.383 37.0936 106.068 37.4492 106.701 37.886L107.054 38.7604C107.113 38.8986 107.16 39.0431 107.202 39.1736C107.225 39.2459 107.247 39.3139 107.269 39.3741C107.33 39.5428 107.361 39.6502 107.361 39.6502L107.76 40.8161L107.913 41.2764C107.971 41.4485 108.028 41.6565 108.089 41.8779C108.126 42.0116 108.164 42.1503 108.205 42.2889L108.634 43.823L107.422 43.3321C107.473 43.0016 107.473 42.6654 107.422 42.3349C107.38 41.8827 107.173 41.462 106.839 41.1537C106.625 40.9367 106.369 40.7646 106.088 40.6474C105.119 40.3529 104.097 40.2795 103.096 40.4326C102.205 40.5108 101.319 40.6389 100.442 40.8161C100.513 40.9041 100.609 41.0275 100.723 41.1764C101.029 41.5728 101.474 42.1497 101.976 42.7185C102.123 42.8647 102.266 43.0168 102.408 43.1671C102.593 43.3636 102.776 43.5571 102.958 43.731C103.249 44.0093 103.58 44.2421 103.94 44.4214C104.445 44.6553 105.01 44.7292 105.558 44.6333C106.107 44.5373 106.612 44.276 107.008 43.8844C107.683 44.265 108.311 44.7232 108.88 45.2498L109.095 46.1702L109.217 46.7992V47.0907C109.217 47.0907 109.217 47.4129 109.355 47.8885C109.493 48.364 109.57 48.9931 109.632 49.6374C109.665 49.9871 109.712 50.3322 109.755 50.6507C109.791 50.9192 109.825 51.1688 109.846 51.3863C109.892 51.8619 109.923 52.1994 109.923 52.1994L108.834 51.509C108.997 51.095 109.06 50.6481 109.018 50.205C108.978 49.8869 108.864 49.5824 108.686 49.316C108.507 49.0497 108.269 48.8287 107.99 48.6709C106.732 47.8578 103.388 47.8578 102.421 47.9038C102.754 48.5985 103.133 49.27 103.556 49.9135C103.982 50.7402 104.572 51.4712 105.29 52.0613C105.744 52.3647 106.278 52.5267 106.824 52.5267C107.37 52.5267 107.904 52.3647 108.358 52.0613C108.95 52.563 109.494 53.1176 109.984 53.7182V54.654V55.5898V56.8325V58.3666V59.4251V59.916L108.987 59.0723C109.199 58.7425 109.326 58.3659 109.359 57.9753C109.391 57.5848 109.326 57.1923 109.171 56.8325C109.019 56.5608 108.822 56.317 108.588 56.1114C107.468 55.1142 104.093 54.5773 103.188 54.5773C103.439 55.3564 103.736 56.1197 104.078 56.8631C104.364 57.6936 104.818 58.4561 105.413 59.1029C105.821 59.4757 106.331 59.7173 106.879 59.7966C107.426 59.876 107.984 59.7893 108.481 59.5479C108.993 60.1243 109.446 60.7514 109.831 61.4195V61.711V62.3553L109.708 63.2911C109.708 63.2911 109.708 63.6133 109.601 64.0889C109.545 64.3344 109.506 64.6249 109.465 64.935C109.426 65.2257 109.384 65.5335 109.325 65.8378C109.282 66.0552 109.244 66.2744 109.206 66.4872C109.135 66.8902 109.068 67.2702 108.987 67.5714C108.865 68.0316 108.818 68.3691 108.818 68.3691C108.512 68.0162 108.205 67.6634 107.975 67.3719C108.354 66.9752 108.575 66.4529 108.595 65.9042C108.615 65.3556 108.432 64.8187 108.082 64.3957C107.116 63.2144 103.863 62.1866 102.989 61.9564C102.989 62.2928 103.166 63.0304 103.365 63.8588C103.392 63.9749 103.421 64.0928 103.449 64.2116C103.624 65.1187 103.962 65.9866 104.446 66.7736C104.79 67.2125 105.257 67.5379 105.788 67.7075C106.319 67.8771 106.888 67.8831 107.422 67.7247C107.851 68.3739 108.206 69.0685 108.481 69.7958L107.959 71.5908C107.959 71.5908 107.959 71.8976 107.791 72.1891C107.622 72.4805 107.591 72.772 107.591 72.772L107.1 74.2295C106.995 74.5681 106.872 74.901 106.732 75.2267L106.548 75.6716C106.303 75.288 106.057 74.8892 105.873 74.567C106.182 74.3247 106.423 74.0068 106.574 73.644C106.724 73.2813 106.779 72.8858 106.732 72.4959C106.68 72.194 106.576 71.9033 106.425 71.6368C105.133 70.2678 103.564 69.1904 101.823 68.4765V69.4583C101.823 69.8879 101.823 70.3788 101.93 70.9158C101.978 71.7917 102.175 72.6531 102.513 73.4624C102.789 73.9467 103.204 74.3362 103.705 74.5799C104.207 74.8236 104.77 74.91 105.321 74.8278C105.648 75.5342 105.895 76.2753 106.057 77.0369L105.275 78.7551L105.183 78.9546C105.183 79.0462 105.106 79.1721 105.016 79.3194C104.985 79.3694 104.953 79.4218 104.922 79.4762L104.124 81.0103C103.94 81.3691 103.731 81.7218 103.544 82.0374C103.436 82.221 103.334 82.3921 103.25 82.5444L102.851 83.2502L102.85 83.2482C102.666 82.8193 102.482 82.3905 102.344 82.0382C102.738 81.8146 103.066 81.4919 103.296 81.1023C103.444 80.8177 103.529 80.5037 103.542 80.1828C103.555 79.8619 103.497 79.542 103.372 79.2461C102.866 77.85 100.043 75.8403 99.2915 75.3494C99.2915 75.4387 99.2735 75.5605 99.2514 75.7096C99.2279 75.8678 99.1999 76.0566 99.1841 76.2699C99.1701 76.4592 99.1433 76.6582 99.1153 76.8653C99.0821 77.1113 99.0474 77.3687 99.0308 77.6352C98.919 78.5525 98.9709 79.4822 99.1841 80.3813C99.3724 80.9073 99.7176 81.363 100.173 81.6867C100.628 82.0104 101.172 82.1866 101.731 82.1916C101.932 82.943 102.045 83.7153 102.068 84.4928L101.562 85.2752C101.439 85.4746 101.317 85.6741 101.209 85.8121L101.025 86.0576L100.504 86.7776L100.443 86.7328C100.443 86.7328 100.074 87.3771 99.5374 87.9754Z" fill="url(#paint0_linear_9442_9949)"/>
<defs>
<linearGradient id="paint0_linear_9442_9949" x1="60" y1="-19.0098" x2="70.6004" y2="131.745" gradientUnits="userSpaceOnUse">
<stop stop-color="#FFF3CC"/>
<stop offset="1" stop-color="#C0952E"/>
</linearGradient>
</defs>
</svg>
