<svg width="140" height="38" viewBox="0 0 140 38" fill="none" xmlns="http://www.w3.org/2000/svg">
<g clip-path="url(#clip0_762_13218)">
<path d="M72.2814 23.0303C72.489 22.3913 73.393 22.3913 73.6007 23.0303L74.5682 26.0081C74.6611 26.2939 74.9274 26.4874 75.2279 26.4874H78.359C79.0309 26.4874 79.3102 27.3472 78.7667 27.7422L76.2336 29.5826C75.9905 29.7592 75.8887 30.0723 75.9816 30.358L76.9492 33.3359C77.1568 33.9749 76.4254 34.5063 75.8818 34.1113L73.3487 32.2709C73.1056 32.0943 72.7764 32.0943 72.5333 32.2709L70.0002 34.1113C69.4567 34.5063 68.7253 33.9749 68.9329 33.3359L69.9004 30.358C69.9933 30.0723 69.8916 29.7592 69.6485 29.5826L67.1154 27.7422C66.5718 27.3472 66.8512 26.4874 67.5231 26.4874H70.6541C70.9546 26.4874 71.221 26.2939 71.3138 26.0081L72.2814 23.0303Z" fill="#EF4335"/>
<path d="M87.3107 23.0303C87.5183 22.3913 88.4224 22.3913 88.63 23.0303L89.5976 26.0081C89.6904 26.2939 89.9567 26.4874 90.2572 26.4874H93.3883C94.0602 26.4874 94.3396 27.3472 93.796 27.7422L91.2629 29.5826C91.0198 29.7592 90.9181 30.0723 91.0109 30.358L91.9785 33.3359C92.1861 33.9749 91.4547 34.5063 90.9111 34.1113L88.378 32.2709C88.1349 32.0943 87.8058 32.0943 87.5627 32.2709L85.0296 34.1113C84.486 34.5063 83.7546 33.9749 83.9622 33.3359L84.9298 30.358C85.0226 30.0723 84.9209 29.7592 84.6778 29.5826L82.1447 27.7422C81.6011 27.3472 81.8805 26.4874 82.5524 26.4874H85.6835C85.984 26.4874 86.2503 26.2939 86.3431 26.0081L87.3107 23.0303Z" fill="#EF4335"/>
<path d="M102.34 23.0303C102.548 22.3913 103.452 22.3913 103.66 23.0303L104.627 26.0081C104.72 26.2939 104.986 26.4874 105.287 26.4874H108.418C109.09 26.4874 109.369 27.3472 108.826 27.7422L106.293 29.5826C106.049 29.7592 105.948 30.0723 106.041 30.358L107.008 33.3359C107.216 33.9749 106.484 34.5063 105.941 34.1113L103.408 32.2709C103.165 32.0943 102.835 32.0943 102.592 32.2709L100.059 34.1113C99.5152 34.5063 98.7838 33.9749 98.9915 33.3359L99.959 30.358C100.052 30.0723 99.9501 29.7592 99.707 29.5826L97.174 27.7422C96.6304 27.3472 96.9097 26.4874 97.5817 26.4874H100.713C101.014 26.4874 101.28 26.2939 101.373 26.0081L102.34 23.0303Z" fill="#EF4335"/>
<path d="M117.37 23.0303C117.577 22.3913 118.481 22.3913 118.689 23.0303L119.657 26.0081C119.749 26.2939 120.016 26.4874 120.316 26.4874H123.447C124.119 26.4874 124.399 27.3472 123.855 27.7422L121.322 29.5826C121.079 29.7592 120.977 30.0723 121.07 30.358L122.037 33.3359C122.245 33.9749 121.514 34.5063 120.97 34.1113L118.437 32.2709C118.194 32.0943 117.865 32.0943 117.622 32.2709L115.089 34.1113C114.545 34.5063 113.814 33.9749 114.021 33.3359L114.989 30.358C115.082 30.0723 114.98 29.7592 114.737 29.5826L112.204 27.7422C111.66 27.3472 111.939 26.4874 112.611 26.4874H115.742C116.043 26.4874 116.309 26.2939 116.402 26.0081L117.37 23.0303Z" fill="#EF4335"/>
<path d="M132.399 23.0303C132.607 22.3913 133.511 22.3913 133.718 23.0303L134.686 26.0081C134.779 26.2939 135.045 26.4874 135.346 26.4874H138.477C139.149 26.4874 139.428 27.3472 138.884 27.7422L136.351 29.5826C136.108 29.7592 136.006 30.0723 136.099 30.358L137.067 33.3359C137.274 33.9749 136.543 34.5063 135.999 34.1113L133.466 32.2709C133.223 32.0943 132.894 32.0943 132.651 32.2709L130.118 34.1113C129.574 34.5063 128.843 33.9749 129.051 33.3359L130.018 30.358C130.111 30.0723 130.009 29.7592 129.766 29.5826L127.233 27.7422C126.689 27.3472 126.969 26.4874 127.641 26.4874H130.772C131.072 26.4874 131.339 26.2939 131.431 26.0081L132.399 23.0303Z" fill="#DDDDDD"/>
<path d="M132.399 23.0303C132.607 22.3913 133.511 22.3913 133.718 23.0303L134.686 26.0081C134.779 26.2939 135.045 26.4874 135.346 26.4874H138L138.5 28L136.351 29.5826C136.108 29.7592 136.006 30.0723 136.099 30.358L137.067 33.3359C137.274 33.9749 136.543 34.5063 135.999 34.1113L133.466 32.2709C133.223 32.0943 132.894 32.0943 132.651 32.2709L130.118 34.1113C129.574 34.5063 128.843 33.9749 129.051 33.3359L130.018 30.358C130.111 30.0723 130.009 29.7592 129.766 29.5826L127.233 27.7422C126.689 27.3472 126.969 26.4874 127.641 26.4874H130.772C131.072 26.4874 131.339 26.2939 131.431 26.0081L132.399 23.0303Z" fill="#EF4335"/>
<path d="M48.3962 32.9999V31.4417H44.3477V30.2313L48.7301 23.4421H50.2605V29.814H51.5404V31.4417H50.2605V32.9999H48.3962ZM46.4067 29.9113H48.5353V26.4889L46.4067 29.9113Z" fill="#EF4335"/>
<path d="M53.7579 33.1113C53.1318 33.1113 52.6309 32.6244 52.6309 32.0122C52.6309 31.4001 53.1318 30.8992 53.7579 30.8992C54.37 30.8992 54.8848 31.4001 54.8848 32.0122C54.8848 32.6244 54.37 33.1113 53.7579 33.1113Z" fill="#EF4335"/>
<path d="M59.2828 23.3308C61.2723 23.3308 62.7331 24.875 62.7331 27.1706C62.7331 30.3148 60.6323 32.7773 57.6272 33.3477L57.0707 31.8173C58.8098 31.3443 59.9923 30.5235 60.5628 29.1462L60.5488 29.1322C60.0202 29.4244 59.3941 29.5774 58.7681 29.5774C57.182 29.5774 55.8604 28.4645 55.8604 26.5167C55.8604 24.6246 57.349 23.3308 59.2828 23.3308ZM57.7107 26.5445C57.7107 27.3932 58.295 27.9914 59.2689 27.9914C59.9228 27.9914 60.5349 27.6158 60.9245 27.1428V27.0176C60.9245 25.8211 60.2289 25.042 59.3106 25.042C58.3368 25.042 57.7107 25.7376 57.7107 26.5445Z" fill="#EF4335"/>
<path d="M49.7291 14.0695C47.0657 14.0695 44.8184 12.3354 44.8184 9.11707C44.8184 6.31488 46.5663 4.05371 49.7291 4.05371C51.0886 4.05371 52.5036 4.6086 53.5717 5.94033L52.67 6.68943C51.9209 5.74612 50.8666 5.20511 49.7291 5.20511C47.4818 5.20511 46.0807 6.82815 46.0807 9.11707C46.0807 11.4615 47.6483 12.9181 49.7291 12.9181C51.0054 12.9181 51.9764 12.3077 52.67 11.4476L53.5717 12.2106C52.7116 13.2787 51.4631 14.0695 49.7291 14.0695Z" fill="#555770"/>
<path d="M55.2578 14V3.79004H56.3815V14H55.2578Z" fill="#555770"/>
<path d="M63.2622 7.24414H64.3858V13.9999H63.2622V12.8763H63.2483C62.7073 13.6531 61.9027 14.0831 61.0288 14.0831C59.4751 14.0831 58.4902 13.1953 58.4902 11.2671V7.24414H59.6138V10.948C59.6138 12.4878 60.1826 13.0566 61.2646 13.0566C62.3328 13.0566 63.2622 12.1272 63.2622 10.518V7.24414Z" fill="#555770"/>
<path d="M68.3737 14.0833C67.1669 14.0833 66.6121 13.3481 66.6121 11.9886V8.21534H65.752V7.24429H66.6121V4.9415L67.7356 4.81665V7.24429H69.9829V8.21534H67.7356V11.8222C67.7356 12.6268 67.9298 13.029 68.568 13.029C68.9702 13.029 69.3865 12.8626 69.7056 12.6822L70.0107 13.6672C69.6361 13.8753 69.1645 14.0833 68.3737 14.0833Z" fill="#555770"/>
<path d="M74.1274 14.0831C72.1853 14.0831 70.7842 12.682 70.7842 10.629C70.7842 8.58972 72.1853 7.16089 74.169 7.16089C75.1817 7.16089 76.2221 7.57705 76.888 8.36777L76.1111 9.0475C75.6949 8.53423 75.0291 8.2013 74.2245 8.2013C72.865 8.2013 71.9217 9.2001 71.9217 10.629C71.9217 12.0717 72.865 13.0566 74.2245 13.0566C75.0152 13.0566 75.7227 12.7098 76.1389 12.252L76.9157 12.9456C76.3469 13.5837 75.3343 14.0831 74.1274 14.0831Z" fill="#555770"/>
<path d="M82.0827 7.16099C83.5532 7.16099 84.5381 8.02106 84.5381 9.9493V14H83.4145V10.2684C83.4145 8.74242 82.7486 8.2014 81.7637 8.2014C80.4181 8.2014 79.5719 9.08922 79.5719 10.6013V14H78.4482V3.79004H79.5719V8.354H79.5996C80.1545 7.57715 81.0423 7.16099 82.0827 7.16099Z" fill="#555770"/>
<path d="M97.5691 13.9999H96.1125L93.6155 10.2405H91.7567V13.9999H90.5498V4.15063H94.0456C96.3206 4.15063 97.3056 5.45462 97.3056 7.20251C97.3056 8.88105 96.39 9.82436 94.9612 10.1296V10.1434L97.5691 13.9999ZM91.7567 5.2604V9.13075H93.7265C95.3634 9.13075 96.0571 8.29842 96.0571 7.17477C96.0571 5.92627 95.2386 5.2604 93.893 5.2604H91.7567Z" fill="#555770"/>
<path d="M105.181 10.518C105.181 10.6983 105.153 10.9341 105.153 10.9758H99.951C100.103 12.2381 100.991 13.0566 102.212 13.0566C103.058 13.0566 103.696 12.6682 104.112 12.141L104.903 12.8208C104.32 13.5699 103.405 14.0831 102.17 14.0831C100.256 14.0831 98.8135 12.682 98.8135 10.629C98.8135 8.58972 100.214 7.16089 102.045 7.16089C103.932 7.16089 105.181 8.57585 105.181 10.518ZM102.101 8.2013C101.047 8.2013 100.2 8.89491 99.9926 10.0463H104.071C103.89 8.93653 103.183 8.2013 102.101 8.2013Z" fill="#555770"/>
<path d="M111.219 7.24414H112.439L109.693 13.9999H108.611L105.85 7.24414H107.057L109.138 12.5711H109.179L111.219 7.24414Z" fill="#555770"/>
<path d="M114.512 5.99574C114.055 5.99574 113.708 5.64894 113.708 5.20503C113.708 4.77499 114.055 4.41431 114.512 4.41431C114.956 4.41431 115.317 4.77499 115.317 5.20503C115.317 5.64894 114.956 5.99574 114.512 5.99574ZM113.944 14V7.24424H115.067V14H113.944Z" fill="#555770"/>
<path d="M123.266 10.518C123.266 10.6983 123.238 10.9341 123.238 10.9758H118.036C118.189 12.2381 119.076 13.0566 120.297 13.0566C121.143 13.0566 121.782 12.6682 122.198 12.141L122.988 12.8208C122.406 13.5699 121.49 14.0831 120.256 14.0831C118.341 14.0831 116.899 12.682 116.899 10.629C116.899 8.58972 118.3 7.16089 120.131 7.16089C122.017 7.16089 123.266 8.57585 123.266 10.518ZM120.186 8.2013C119.132 8.2013 118.286 8.89491 118.078 10.0463H122.156C121.976 8.93653 121.268 8.2013 120.186 8.2013Z" fill="#555770"/>
<path d="M132.69 7.24414H133.827L131.483 13.9999H130.428L128.902 9.07527H128.889L127.349 13.9999H126.322L123.978 7.24414H125.115L126.835 12.2936H126.863L128.403 7.24414H129.374L130.942 12.2936H130.969L132.69 7.24414Z" fill="#555770"/>
<path d="M137.264 14.0831C136.154 14.0831 135.28 13.7086 134.614 13.1121L135.197 12.2659C135.724 12.7514 136.307 13.0705 137.264 13.0705C138.068 13.0705 138.54 12.6543 138.54 12.1688C138.54 11.5861 137.916 11.3919 136.931 11.059C135.835 10.6706 134.905 10.2128 134.905 8.97814C134.905 7.93773 135.849 7.16089 137.139 7.16089C137.944 7.16089 138.706 7.38284 139.456 7.99322L138.873 8.88104C138.276 8.36777 137.652 8.18743 137.083 8.18743C136.57 8.18743 136.043 8.49262 136.043 8.97814C136.043 9.50529 136.598 9.75499 137.319 10.0325C138.748 10.5873 139.691 10.8232 139.678 12.1549C139.678 13.2092 138.887 14.0831 137.264 14.0831Z" fill="#555770"/>
<path d="M26.5747 26.7551C24.6207 28.3061 21.8851 29.4694 19.1494 29.4694C12.8966 29.4694 8.5977 24.8163 8.5977 18.6122C8.5977 12.4082 12.8966 8.14285 19.1494 8.14285C21.8851 8.14285 24.6207 8.91836 26.5747 10.8571L27.7471 12.0204L34 6.20408L32.4368 5.04081C28.9195 1.93877 24.2299 0 19.1494 0C8.2069 0 0 8.14285 0 19C0 29.8571 8.2069 38 19.1494 38C24.2299 38 28.9195 36.0612 32.4368 32.9592L34 31.7959L27.7471 25.5918L26.5747 26.7551Z" fill="#17313B"/>
<path d="M18.7597 25.2035C22.2131 25.2035 25.0126 22.4259 25.0126 18.9995C25.0126 15.573 22.2131 12.7954 18.7597 12.7954C15.3064 12.7954 12.5068 15.573 12.5068 18.9995C12.5068 22.4259 15.3064 25.2035 18.7597 25.2035Z" fill="#EF4335"/>
</g>
<defs>
<clipPath id="clip0_762_13218">
<rect width="140" height="38" fill="white"/>
</clipPath>
</defs>
</svg>
