<svg xmlns:xlink="http://www.w3.org/1999/xlink" xmlns="http://www.w3.org/2000/svg" width="39" height="38" viewBox="0 0 39 38" fill="none">
  <path fill-rule="evenodd" clip-rule="evenodd" d="M37.7698 10.6283L20.3713 0.189209C19.9537 -0.0630696 19.4405 -0.0630696 19.0316 0.189209L1.63309 10.6283C1.24163 10.8632 0.998047 11.2895 0.998047 11.7505V15.2302C0.998047 15.9523 1.5809 16.5351 2.30294 16.5351H18.3966V22.6246H9.26234C8.5403 22.6246 7.95745 23.2074 7.95745 23.9295C7.95745 24.6515 8.5403 25.2344 9.26234 25.2344H18.3966V34.8036H13.612C12.8899 34.8036 12.3071 35.3864 12.3071 36.1084C12.3071 36.8305 12.8899 37.4133 13.612 37.4133H25.7909C26.513 37.4133 27.0958 36.8305 27.0958 36.1084C27.0958 35.3864 26.513 34.8036 25.7909 34.8036H21.0063V25.2344H30.1406C30.8626 25.2344 31.4454 24.6515 31.4454 23.9295C31.4454 23.2074 30.8626 22.6246 30.1406 22.6246H21.0063V16.5351H37.1C37.822 16.5351 38.4049 15.9523 38.4049 15.2302V11.7505C38.4049 11.2895 38.1613 10.8632 37.7698 10.6283ZM3.60782 13.9253V12.49L19.7014 2.83378L35.7951 12.49V13.9253H3.60782ZM2.30294 37.4134C3.02497 37.4134 3.60782 36.8305 3.60782 36.1085V29.5841H7.95745V36.1085C7.95745 36.8305 8.5403 37.4134 9.26234 37.4134C9.98438 37.4134 10.5672 36.8305 10.5672 36.1085V28.2792C10.5672 27.5571 9.98438 26.9743 9.26234 26.9743H3.60782V19.5799C3.60782 18.8579 3.02497 18.275 2.30294 18.275C1.5809 18.275 0.998047 18.8579 0.998047 19.5799V36.1085C0.998047 36.8305 1.5809 37.4134 2.30294 37.4134ZM35.7934 19.58C35.7934 18.858 36.3762 18.2751 37.0983 18.2751C37.8203 18.2751 38.4032 18.858 38.4032 19.58V36.1086C38.4032 36.8307 37.8203 37.4135 37.0983 37.4135C36.3762 37.4135 35.7934 36.8307 35.7934 36.1086V29.5842H31.4438V36.1086C31.4438 36.8307 30.8609 37.4135 30.1389 37.4135C29.4168 37.4135 28.834 36.8307 28.834 36.1086V28.2793C28.834 27.5573 29.4168 26.9744 30.1389 26.9744H35.7934V19.58Z" fill="white"/>
</svg>