<svg width="46" height="46" viewBox="0 0 46 46" fill="none" xmlns="http://www.w3.org/2000/svg">
<path fill-rule="evenodd" clip-rule="evenodd" d="M0 23C0 10.35 10.35 0 23 0C35.65 0 46 10.35 46 23C46 35.65 35.65 46 23 46C10.35 46 0 35.65 0 23ZM4.6 23C4.6 33.12 12.88 41.4 23 41.4C33.12 41.4 41.4 33.12 41.4 23C41.4 12.88 33.12 4.6 23 4.6C12.88 4.6 4.6 12.88 4.6 23ZM14.72 21.39L19.09 25.76L31.28 13.8L34.5 17.02L19.09 32.43L11.5 24.61L14.72 21.39Z" fill="url(#paint0_linear_2196_11768)"/>
<defs>
<linearGradient id="paint0_linear_2196_11768" x1="-14.8584" y1="14.8584" x2="14.8584" y2="60.8584" gradientUnits="userSpaceOnUse">
<stop stop-color="#00CFDE"/>
<stop offset="1" stop-color="#05A660"/>
</linearGradient>
</defs>
</svg>
