<?xml version="1.0" encoding="UTF-8"?>
<svg xmlns="http://www.w3.org/2000/svg" width="39" height="41" viewBox="0 0 39 41" fill="none">
  <path fill-rule="evenodd" clip-rule="evenodd" d="M8.15848 0.578613H31.7654L38.9986 7.81197V40.4206H8.1584V36.6803L4.34174 34.4276C1.98654 33.0374 0.523438 30.475 0.523438 27.7401V20.4757L8.15848 17.5466V0.578613ZM9.32573 19.5991L2.85801 22.0805V27.7401C2.85801 29.6528 3.88122 31.445 5.52844 32.4171L9.32573 34.6584L13.123 32.4171C14.7702 31.4449 15.7934 29.6528 15.7934 27.7401V22.0805L9.32573 19.5991ZM10.493 36.6802V38.0862H36.6642V10.4862H29.0912V2.91311H10.493V17.5465L17.0755 20.0718H27.4823V22.4063H18.1279V24.9353H23.5915V27.2698H18.1279V27.74C18.1279 28.4434 18.0304 29.1352 17.8466 29.7989H27.4824V32.1333H16.7591C16.1273 33.0549 15.2973 33.8446 14.3096 34.4275L10.493 36.6802ZM31.4257 8.15171H36.037L31.4257 3.54039V8.15171ZM32.3069 24.9354H29.9724V27.2699H32.3069V24.9354ZM14.8262 15.2083H23.5934V17.5427H14.8262V15.2083ZM17.1607 8.15161H14.8262V10.4861H17.1607V8.15161ZM29.9724 15.2083H32.3069V17.5428H29.9724V15.2083ZM32.3069 20.0719H29.9724V22.4064H32.3069V20.0719ZM29.9724 29.7989H32.3069V32.1334H29.9724V29.7989ZM13.4738 25.333L8.7933 30.535L5.25576 27.2781L6.83699 25.5607L8.63728 27.2182L11.7383 23.7715L13.4738 25.333Z" fill="white"></path>
</svg>
