 <svg xmlns="http://www.w3.org/2000/svg" width="178" height="263" viewBox="0 0 178 263" fill="none" css-inspector-installed="true">
<g opacity="1">
<path d="M88.6056 0C65.5047 0 48.1312 15.1264 48.1312 33.7835C48.1312 43.0898 50.1027 46.7107 52.027 48.5437C52.027 48.5437 52.1186 48.2232 52.3031 47.6267V47.5809C52.8525 45.7468 55.2831 38.3662 60.2332 30.7593C60.2332 30.7593 60.2332 30.7135 60.2776 30.7135C60.4621 30.4388 60.6452 30.1169 60.8741 29.8423C61.0587 29.5218 61.2876 29.2457 61.5165 28.9252C61.7454 28.6048 61.9286 28.3287 62.1575 28.0082C63.0287 26.7707 63.9915 25.5775 65.0001 24.3859V24.4317C65.0001 24.4317 65.0001 24.3859 65.0459 24.3859C70.5911 35.6151 76.7787 39.5123 82.0536 40.8886C82.098 40.8886 82.098 40.9343 82.1452 40.9343H82.1896C82.4185 40.9801 82.6946 41.0717 82.9235 41.1175H82.9693C83.1982 41.1632 83.4271 41.209 83.6574 41.2548H83.7018C85.8564 41.6225 87.8263 41.6225 89.4775 41.6225C89.064 41.209 88.652 40.8428 88.2843 40.4293C87.9167 40.0631 87.5518 39.6954 87.2299 39.3749L87.1855 39.3291C86.8651 38.9615 86.5432 38.641 86.2227 38.3206L86.1783 38.2748C86.0854 38.1832 86.041 38.1374 85.9494 38.0459C85.7205 37.8169 85.4916 37.5422 85.2613 37.312C84.9852 36.9901 84.7563 36.7154 84.4802 36.4407C84.4802 36.4407 84.4358 36.4407 84.4358 36.3949C81.6389 33.2789 80.6761 31.6279 80.6761 31.6279L80.7204 31.6737L80.6761 31.6279C80.6761 31.6279 85.7176 34.0558 93.0514 37.2203H93.0971C93.3261 37.3119 93.6021 37.4492 93.8754 37.5422C101.073 40.6124 110.242 44.2349 118.949 46.986C120.278 47.7199 121.334 48.5454 122.205 49.4624C122.298 49.554 122.389 49.6913 122.481 49.7829C122.481 49.7829 122.481 49.8287 122.527 49.8287C122.799 50.1492 123.074 50.4696 123.306 50.8373C125.278 53.7257 125.554 56.8875 125.828 58.7215V58.8589V58.9504C125.967 59.6844 126.057 60.1422 126.379 60.188C129.54 47.3534 130.598 40.2019 130.598 33.9226C130.598 15.2669 111.846 0.139118 88.7451 0.139118L88.6056 0Z" fill="#9DDCFF"/>
<path fill-rule="evenodd" clip-rule="evenodd" d="M89.0677 99.2804C98.0991 99.2804 106.396 94.6523 112.814 87.0426L112.946 87C113.085 88.834 113.175 90.8955 113.175 91.9957C113.175 92.2018 113.165 92.397 113.154 92.5923C113.144 92.7876 113.134 92.9828 113.134 93.1889C114.645 94.84 116.613 96.8086 119.364 99.0547C124.979 103.672 132.171 106.6 139.255 109.485C142.066 110.629 144.859 111.767 147.531 113H32.7321C35.4685 111.665 38.3118 110.406 41.1568 109.145C48.4846 105.899 55.8243 102.647 61.3818 98.0915C63.5349 96.3505 65.1401 94.8369 66.5149 93.462C66.4691 93.0014 66.4691 92.545 66.4691 92.0415V92.0413C66.4691 91.6556 66.5197 91.0452 66.5743 90.3867C66.6239 89.7873 66.6769 89.1481 66.6981 88.6021C72.934 95.293 80.6812 99.2804 89.0677 99.2804Z" fill="#9DDCFF"/>
</g>
<path d="M36.26 252H37.478V248.206H39.536C41.608 248.206 43.036 247.24 43.036 245.14C43.036 243.376 42.07 242.06 39.746 242.06H36.26V252ZM37.478 247.086V243.18H39.62C40.95 243.18 41.762 243.852 41.762 245.112C41.762 246.246 41.09 247.086 39.424 247.086H37.478ZM48.1063 245.098C47.1823 245.098 46.3843 245.574 45.8803 246.386H45.8663V245.182H44.7323V252H45.8663V248.71C45.8663 247.338 46.6503 246.344 47.9383 246.344C48.0503 246.344 48.2323 246.358 48.3863 246.372V245.112C48.3163 245.098 48.2183 245.098 48.1063 245.098ZM52.6255 252.084C54.6275 252.084 56.1255 250.67 56.1255 248.598C56.1255 246.526 54.6275 245.098 52.6255 245.098C50.4975 245.098 49.0975 246.638 49.0975 248.598C49.0975 250.558 50.4975 252.084 52.6255 252.084ZM52.6255 251.048C51.2115 251.048 50.2455 249.956 50.2455 248.598C50.2455 247.24 51.1975 246.148 52.6255 246.148C53.9415 246.148 54.9775 247.142 54.9775 248.598C54.9775 250.04 53.9415 251.048 52.6255 251.048ZM58.431 243.922C58.879 243.922 59.243 243.572 59.243 243.124C59.243 242.69 58.879 242.326 58.431 242.326C57.969 242.326 57.619 242.69 57.619 243.124C57.619 243.572 57.969 243.922 58.431 243.922ZM57.255 254.856C58.333 254.856 58.991 254.044 58.991 252.714V245.182H57.857V252.714C57.857 253.498 57.479 253.82 56.975 253.82C56.751 253.82 56.499 253.75 56.261 253.624L56.079 254.632C56.513 254.814 56.863 254.856 57.255 254.856ZM67.0625 248.486C67.0625 246.526 65.8025 245.098 63.8985 245.098C62.0505 245.098 60.6365 246.54 60.6365 248.598C60.6365 250.67 62.0925 252.084 64.0245 252.084C65.2705 252.084 66.1945 251.566 66.7825 250.81L65.9845 250.124C65.5645 250.656 64.9205 251.048 64.0665 251.048C62.8345 251.048 61.9385 250.222 61.7845 248.948H67.0345C67.0345 248.906 67.0625 248.668 67.0625 248.486ZM63.9545 246.148C65.0465 246.148 65.7605 246.89 65.9425 248.01H61.8265C62.0365 246.848 62.8905 246.148 63.9545 246.148ZM71.7351 252.084C72.9531 252.084 73.9751 251.58 74.5491 250.936L73.7651 250.236C73.3451 250.698 72.6311 251.048 71.8331 251.048C70.4611 251.048 69.5091 250.054 69.5091 248.598C69.5091 247.156 70.4611 246.148 71.8331 246.148C72.6451 246.148 73.3171 246.484 73.7371 247.002L74.5211 246.316C73.8491 245.518 72.7991 245.098 71.7771 245.098C69.7751 245.098 68.3611 246.54 68.3611 248.598C68.3611 250.67 69.7751 252.084 71.7351 252.084ZM78.0276 252.084C78.8256 252.084 79.3016 251.874 79.6796 251.664L79.3716 250.67C79.0496 250.852 78.6296 251.02 78.2236 251.02C77.5796 251.02 77.3836 250.614 77.3836 249.802V246.162H79.6516V245.182H77.3836V242.732L76.2496 242.858V245.182H75.3816V246.162H76.2496V249.97C76.2496 251.342 76.8096 252.084 78.0276 252.084ZM93.8007 242.06L90.1467 248.486H90.1187L86.4647 242.06H85.2327V252H86.4507V244.384H86.4787L89.7127 249.998H90.5387L93.7727 244.384H93.8007V252H95.0187V242.06H93.8007ZM102.647 245.182V246.204H102.633C102.059 245.49 101.219 245.098 100.281 245.098C98.3493 245.098 96.9493 246.624 96.9493 248.64C96.9493 250.726 98.4053 252.084 100.295 252.084C101.289 252.084 102.129 251.65 102.675 250.922H102.689V252H103.781V245.182H102.647ZM100.393 251.048C99.0073 251.048 98.0973 250.012 98.0973 248.64C98.0973 247.128 99.1193 246.148 100.407 246.148C101.723 246.148 102.689 247.24 102.689 248.64C102.689 250.082 101.625 251.048 100.393 251.048ZM109.499 245.098C108.491 245.098 107.595 245.56 107.021 246.372H107.007V245.182H105.873V252H107.007V248.598C107.007 247.058 107.861 246.148 109.149 246.148C110.143 246.148 110.815 246.68 110.815 248.276V252H111.949V247.954C111.949 246.008 110.969 245.098 109.499 245.098ZM119.286 245.182V246.204H119.272C118.698 245.49 117.858 245.098 116.92 245.098C114.988 245.098 113.588 246.624 113.588 248.64C113.588 250.726 115.044 252.084 116.934 252.084C117.928 252.084 118.768 251.65 119.314 250.922H119.328V252H120.42V245.182H119.286ZM117.032 251.048C115.646 251.048 114.736 250.012 114.736 248.64C114.736 247.128 115.758 246.148 117.046 246.148C118.362 246.148 119.328 247.24 119.328 248.64C119.328 250.082 118.264 251.048 117.032 251.048ZM127.692 245.182V246.134H127.664C127.076 245.462 126.222 245.098 125.312 245.098C123.464 245.098 122.064 246.568 122.064 248.5C122.064 250.53 123.548 251.874 125.368 251.874C126.348 251.874 127.146 251.482 127.678 250.824H127.706V251.776C127.706 252.882 126.95 253.778 125.41 253.778C124.444 253.778 123.758 253.512 122.96 253.064L122.694 254.114C123.506 254.604 124.444 254.856 125.466 254.856C127.846 254.856 128.812 253.456 128.812 251.482V245.182H127.692ZM125.452 250.81C124.234 250.81 123.226 249.914 123.226 248.458C123.226 247.142 124.15 246.162 125.452 246.162C126.74 246.162 127.734 247.072 127.734 248.444C127.734 249.802 126.824 250.81 125.452 250.81ZM136.898 248.486C136.898 246.526 135.638 245.098 133.734 245.098C131.886 245.098 130.472 246.54 130.472 248.598C130.472 250.67 131.928 252.084 133.86 252.084C135.106 252.084 136.03 251.566 136.618 250.81L135.82 250.124C135.4 250.656 134.756 251.048 133.902 251.048C132.67 251.048 131.774 250.222 131.62 248.948H136.87C136.87 248.906 136.898 248.668 136.898 248.486ZM133.79 246.148C134.882 246.148 135.596 246.89 135.778 248.01H131.662C131.872 246.848 132.726 246.148 133.79 246.148ZM141.991 245.098C141.067 245.098 140.269 245.574 139.765 246.386H139.751V245.182H138.617V252H139.751V248.71C139.751 247.338 140.535 246.344 141.823 246.344C141.935 246.344 142.117 246.358 142.271 246.372V245.112C142.201 245.098 142.103 245.098 141.991 245.098Z" fill="white"/>
<rect opacity="1" width="178" height="13" rx="4" transform="matrix(1 0 0 -1 0 225)" fill="#9DDCFF"/>
<path opacity="1" fill-rule="evenodd" clip-rule="evenodd" d="M9 116C4.02944 116 0 120.029 0 125V200C0 204.971 4.02944 209 9 209H169C173.971 209 178 204.971 178 200V125C178 120.029 173.971 116 169 116H9ZM89 169C92.3137 169 95 166.314 95 163C95 159.686 92.3137 157 89 157C85.6863 157 83 159.686 83 163C83 166.314 85.6863 169 89 169Z" fill="#9DDCFF"/>
</svg>