 <svg xmlns="http://www.w3.org/2000/svg" width="357" height="96" viewBox="0 0 357 96" fill="none" css-inspector-installed="true">
<path opacity="1" d="M23 95.4999C80.5 66.5 130 55 180.75 55C231.5 55 289 68 334 95.4999" stroke="#9DDCFF"/>
<path opacity="1" d="M1 47C66.6351 14.0618 123.138 1 181.068 1C238.998 1 304.633 15.7655 356 47" stroke="#9DDCFF"/>
<path d="M27.2931 76.2402L26.8399 76.4516L27.0513 76.9047L27.5044 76.6933L27.2931 76.2402ZM17.6914 55.6582L17.48 55.205L17.0269 55.4164L17.2383 55.8695L17.6914 55.6582ZM29.6321 70.7369L29.1789 70.9482L29.3903 71.4014L29.8434 71.19L29.6321 70.7369ZM23.4248 57.431L23.2134 56.9779L22.7603 57.1893L22.9717 57.6424L23.4248 57.431ZM27.5044 76.6933L34.4038 73.4748L33.981 72.5685L27.0817 75.7871L27.5044 76.6933ZM34.4038 73.4748C37.8064 71.8874 40.0751 69.5092 41.1112 66.7048C42.1471 63.9007 41.9287 60.7295 40.4681 57.5986L39.5619 58.0214C40.9277 60.9492 41.1027 63.8421 40.1731 66.3583C39.2436 68.8742 37.1879 71.0725 33.981 72.5685L34.4038 73.4748ZM40.4681 57.5986C38.9985 54.4484 36.6558 52.2513 33.8062 51.2495C30.9572 50.2479 27.6534 50.4591 24.2924 52.027L24.7152 52.9333C27.8766 51.4584 30.9085 51.2908 33.4745 52.1929C36.0399 53.0948 38.1915 55.0839 39.5619 58.0214L40.4681 57.5986ZM24.2924 52.027L17.48 55.205L17.9028 56.1113L24.7152 52.9333L24.2924 52.027ZM17.2383 55.8695L26.8399 76.4516L27.7462 76.0288L18.1445 55.4468L17.2383 55.8695ZM30.0852 70.5255L23.8779 57.2196L22.9717 57.6424L29.1789 70.9482L30.0852 70.5255ZM23.6362 57.8841L26.5061 56.5453L26.0833 55.6391L23.2134 56.9779L23.6362 57.8841ZM26.5061 56.5453C29.9466 54.9403 33.6382 56.3703 35.3295 59.9958L36.2357 59.5731C34.3298 55.4876 30.0639 53.7821 26.0833 55.6391L26.5061 56.5453ZM35.3295 59.9958C36.1585 61.7729 36.2575 63.6051 35.6993 65.2003C35.1421 66.7931 33.9172 68.1861 32.0297 69.0666L32.4524 69.9729C34.5654 68.9872 35.9903 67.3967 36.6432 65.5306C37.2953 63.6669 37.1648 61.5645 36.2357 59.5731L35.3295 59.9958ZM32.0297 69.0666L29.4207 70.2837L29.8434 71.19L32.4524 69.9729L32.0297 69.0666Z" fill="#9DDCFF"/>
<path d="M49.1027 66.4379L48.6368 66.6193L48.8182 67.0852L49.2842 66.9038L49.1027 66.4379ZM63.2612 60.9238L63.4426 61.3897L63.9085 61.2083L63.7271 60.7423L63.2612 60.9238ZM61.8101 57.1979L62.276 57.0164L62.0946 56.5505L61.6286 56.732L61.8101 57.1979ZM51.765 61.11L51.2991 61.2914L51.4806 61.7573L51.9465 61.5759L51.765 61.11ZM49.8496 56.1918L49.6682 55.7259L49.2022 55.9073L49.3837 56.3732L49.8496 56.1918ZM57.3909 53.2548L57.5723 53.7207L58.0382 53.5393L57.8568 53.0733L57.3909 53.2548ZM55.9514 49.5587L56.4173 49.3772L56.2359 48.9113L55.7699 49.0928L55.9514 49.5587ZM48.4101 52.4957L47.9442 52.6771L48.1257 53.143L48.5916 52.9616L48.4101 52.4957ZM46.4367 47.4284L46.2552 46.9625L45.7893 47.144L45.9708 47.6099L46.4367 47.4284ZM55.8558 43.7601L56.0372 44.226L56.5032 44.0446L56.3217 43.5787L55.8558 43.7601ZM54.3931 40.0044L54.859 39.8229L54.6776 39.357L54.2117 39.5385L54.3931 40.0044ZM40.8606 45.2747L40.6791 44.8088L40.2132 44.9902L40.3947 45.4561L40.8606 45.2747ZM49.2842 66.9038L63.4426 61.3897L63.0797 60.4579L48.9212 65.972L49.2842 66.9038ZM63.7271 60.7423L62.276 57.0164L61.3442 57.3793L62.7953 61.1052L63.7271 60.7423ZM61.6286 56.732L51.5836 60.6441L51.9465 61.5759L61.9916 57.6638L61.6286 56.732ZM52.2309 60.9285L50.3155 56.0103L49.3837 56.3732L51.2991 61.2914L52.2309 60.9285ZM50.0311 56.6577L57.5723 53.7207L57.2094 52.7889L49.6682 55.7259L50.0311 56.6577ZM57.8568 53.0733L56.4173 49.3772L55.4855 49.7401L56.925 53.4362L57.8568 53.0733ZM55.7699 49.0928L48.2287 52.0298L48.5916 52.9616L56.1329 50.0246L55.7699 49.0928ZM48.8761 52.3142L46.9026 47.247L45.9708 47.6099L47.9442 52.6771L48.8761 52.3142ZM46.6181 47.8943L56.0372 44.226L55.6743 43.2942L46.2552 46.9625L46.6181 47.8943ZM56.3217 43.5787L54.859 39.8229L53.9272 40.1858L55.3899 43.9416L56.3217 43.5787ZM54.2117 39.5385L40.6791 44.8088L41.042 45.7406L54.5746 40.4703L54.2117 39.5385ZM40.3947 45.4561L48.6368 66.6193L49.5686 66.2564L41.3265 45.0932L40.3947 45.4561Z" fill="#9DDCFF"/>
<path d="M68.3241 59.1956L67.8474 59.3464L67.9981 59.8231L68.4748 59.6723L68.3241 59.1956ZM61.4765 37.541L61.3257 37.0642L60.849 37.215L60.9997 37.6917L61.4765 37.541ZM71.358 54.0426L70.8812 54.1933L71.032 54.6701L71.5087 54.5193L71.358 54.0426ZM66.9311 40.0433L66.7804 39.5666L66.3036 39.7173L66.4544 40.1941L66.9311 40.0433ZM68.4748 59.6723L75.7337 57.3769L75.4322 56.4235L68.1733 58.7189L68.4748 59.6723ZM75.7337 57.3769C79.3136 56.2449 81.872 54.1814 83.2634 51.5354C84.6548 48.8895 84.85 45.7168 83.8084 42.4227L82.8549 42.7242C83.829 45.8046 83.6268 48.6958 82.3783 51.0699C81.13 53.4439 78.8062 55.3566 75.4322 56.4235L75.7337 57.3769ZM83.8084 42.4227C82.7603 39.1084 80.7228 36.6256 78.0273 35.2622C75.3325 33.8991 72.0293 33.6796 68.4931 34.7978L68.7946 35.7512C72.1208 34.6994 75.1488 34.9269 77.5759 36.1546C80.0024 37.3819 81.8776 39.6337 82.8549 42.7242L83.8084 42.4227ZM68.4931 34.7978L61.3257 37.0642L61.6272 38.0177L68.7946 35.7512L68.4931 34.7978ZM60.9997 37.6917L67.8474 59.3464L68.8008 59.0449L61.9532 37.3902L60.9997 37.6917ZM71.8347 53.8918L67.4078 39.8926L66.4544 40.1941L70.8812 54.1933L71.8347 53.8918ZM67.0819 40.5201L70.1013 39.5652L69.7998 38.6118L66.7804 39.5666L67.0819 40.5201ZM70.1013 39.5652C73.7211 38.4206 77.1957 40.3179 78.402 44.1323L79.3554 43.8308C77.9962 39.5325 73.9879 37.2874 69.7998 38.6118L70.1013 39.5652ZM78.402 44.1323C78.9932 46.0021 78.8534 47.8315 78.0928 49.3408C77.3334 50.8478 75.9381 52.0699 73.9522 52.6978L74.2537 53.6513C76.4767 52.9483 78.0961 51.5564 78.9858 49.7908C79.8744 48.0276 80.018 45.9261 79.3554 43.8308L78.402 44.1323ZM73.9522 52.6978L71.2072 53.5659L71.5087 54.5193L74.2537 53.6513L73.9522 52.6978Z" fill="#9DDCFF"/>
<path d="M91.4863 52.2883L91.0023 52.4136L91.1275 52.8976L91.6116 52.7724L91.4863 52.2883ZM95.8528 51.1584L95.9781 51.6425L96.4621 51.5172L96.3369 51.0332L95.8528 51.1584ZM90.1632 29.1711L90.6472 29.0459L90.522 28.5618L90.0379 28.6871L90.1632 29.1711ZM85.7967 30.301L85.6714 29.817L85.1874 29.9422L85.3126 30.4263L85.7967 30.301ZM91.6116 52.7724L95.9781 51.6425L95.7276 50.6744L91.3611 51.8043L91.6116 52.7724ZM96.3369 51.0332L90.6472 29.0459L89.6791 29.2964L95.3688 51.2837L96.3369 51.0332ZM90.0379 28.6871L85.6714 29.817L85.922 30.7851L90.2884 29.6552L90.0379 28.6871ZM85.3126 30.4263L91.0023 52.4136L91.9704 52.1631L86.2807 30.1758L85.3126 30.4263Z" fill="#9DDCFF"/>
<path d="M121.673 41.4444L122.117 41.6735L122.338 41.245L121.918 41.0086L121.673 41.4444ZM117.878 39.3093L118.123 38.8736L117.672 38.6201L117.434 39.0788L117.878 39.3093ZM116.103 30.5629L115.796 30.9572L116.19 31.2641L116.497 30.8708L116.103 30.5629ZM118.773 27.149L119.166 27.457L119.468 27.0708L119.088 26.7612L118.773 27.149ZM113.753 47.9351C117.867 47.1005 120.626 44.5642 122.117 41.6735L121.228 41.2152C119.861 43.8655 117.34 46.1869 113.554 46.9551L113.753 47.9351ZM121.918 41.0086L118.123 38.8736L117.633 39.7451L121.428 41.8801L121.918 41.0086ZM117.434 39.0788C116.505 40.8675 114.854 42.3503 112.708 42.7856L112.907 43.7656C115.401 43.2597 117.279 41.5457 118.321 39.5399L117.434 39.0788ZM112.708 42.7856C110.845 43.1635 109.151 42.7847 107.826 41.8476C106.498 40.9087 105.511 39.3866 105.113 37.4273L104.133 37.6261C104.575 39.8049 105.689 41.5612 107.248 42.6641C108.81 43.7688 110.788 44.1954 112.907 43.7656L112.708 42.7856ZM105.113 37.4273C104.684 35.3091 105.025 33.4789 105.894 32.0967C106.763 30.7153 108.183 29.7423 109.987 29.3762L109.789 28.3962C107.737 28.8124 106.073 29.9338 105.048 31.5643C104.023 33.1938 103.66 35.2927 104.133 37.6261L105.113 37.4273ZM109.987 29.3762C112.123 28.943 114.245 29.7483 115.796 30.9572L116.411 30.1685C114.705 28.8394 112.293 27.8882 109.789 28.3962L109.987 29.3762ZM116.497 30.8708L119.166 27.457L118.379 26.841L115.709 30.2549L116.497 30.8708ZM119.088 26.7612C115.914 24.1775 112.144 23.5447 108.936 24.1954L109.135 25.1754C112.072 24.5796 115.532 25.1563 118.457 27.5368L119.088 26.7612ZM108.936 24.1954C105.178 24.9578 102.475 26.8846 100.887 29.4795C99.3037 32.068 98.8585 35.2759 99.525 38.5611L100.505 38.3622C99.8805 35.2835 100.309 32.341 101.74 30.0013C103.168 27.6679 105.62 25.8886 109.135 25.1754L108.936 24.1954ZM99.525 38.5611C100.295 42.3541 102.26 45.0338 104.854 46.5953C107.439 48.1522 110.608 48.5731 113.753 47.9351L113.554 46.9551C110.617 47.5509 107.71 47.1479 105.369 45.7386C103.036 44.3339 101.224 41.9049 100.505 38.3622L99.525 38.5611Z" fill="#9DDCFF"/>
<path d="M141.127 42.9844L140.679 43.2052L140.837 43.5271L141.193 43.4801L141.127 42.9844ZM145.789 42.3682L145.854 42.8638L146.569 42.7694L146.23 42.1334L145.789 42.3682ZM134.409 20.9634L134.85 20.7287L134.687 20.4223L134.343 20.4677L134.409 20.9634ZM130.128 21.5294L130.062 21.0337L129.717 21.0793L129.64 21.4186L130.128 21.5294ZM124.764 45.1475L124.276 45.0368L124.117 45.7374L124.829 45.6432L124.764 45.1475ZM129.425 44.5313L129.491 45.027L129.847 44.98L129.916 44.628L129.425 44.5313ZM130.352 39.8269L130.287 39.3313L129.931 39.3783L129.862 39.7303L130.352 39.8269ZM139.01 38.6825L139.458 38.4617L139.3 38.1398L138.944 38.1868L139.01 38.6825ZM131.149 35.8496L130.659 35.7534L130.525 36.4365L131.215 36.3453L131.149 35.8496ZM132.961 26.6079L132.895 26.1122L132.539 26.1592L132.47 26.5117L132.961 26.6079ZM133.024 26.5995L133.472 26.3777L133.314 26.0569L132.959 26.1038L133.024 26.5995ZM137.207 35.0489L137.272 35.5446L137.964 35.4531L137.655 34.8271L137.207 35.0489ZM141.193 43.4801L145.854 42.8638L145.723 41.8725L141.062 42.4887L141.193 43.4801ZM146.23 42.1334L134.85 20.7287L133.967 21.1982L145.347 42.6029L146.23 42.1334ZM134.343 20.4677L130.062 21.0337L130.193 22.0251L134.474 21.4591L134.343 20.4677ZM129.64 21.4186L124.276 45.0368L125.251 45.2583L130.615 21.6401L129.64 21.4186ZM124.829 45.6432L129.491 45.027L129.36 44.0356L124.698 44.6518L124.829 45.6432ZM129.916 44.628L130.843 39.9236L129.862 39.7303L128.935 44.4346L129.916 44.628ZM130.418 40.3226L139.075 39.1782L138.944 38.1868L130.287 39.3313L130.418 40.3226ZM138.561 38.9033L140.679 43.2052L141.576 42.7636L139.458 38.4617L138.561 38.9033ZM131.64 35.9458L133.451 26.704L132.47 26.5117L130.659 35.7534L131.64 35.9458ZM133.026 27.1035L133.09 27.0952L132.959 26.1038L132.895 26.1122L133.026 27.1035ZM132.576 26.8213L136.758 35.2707L137.655 34.8271L133.472 26.3777L132.576 26.8213ZM137.141 34.5532L131.084 35.3539L131.215 36.3453L137.272 35.5446L137.141 34.5532Z" fill="#9DDCFF"/>
<path d="M154.255 41.874L153.756 41.9084L153.791 42.4072L154.29 42.3728L154.255 41.874ZM158.723 41.5665L158.757 42.0653L159.256 42.0309L159.222 41.5321L158.723 41.5665ZM157.44 22.9295L157.406 22.4307L156.907 22.4651L156.941 22.9639L157.44 22.9295ZM163.727 22.4968L163.761 22.9956L164.26 22.9613L164.226 22.4624L163.727 22.4968ZM163.45 18.4758L163.949 18.4415L163.915 17.9426L163.416 17.977L163.45 18.4758ZM146.441 19.6467L146.406 19.1479L145.908 19.1822L145.942 19.681L146.441 19.6467ZM146.717 23.6677L146.219 23.702L146.253 24.2008L146.752 24.1665L146.717 23.6677ZM152.972 23.2371L153.471 23.2028L153.437 22.7039L152.938 22.7383L152.972 23.2371ZM154.29 42.3728L158.757 42.0653L158.689 41.0676L154.221 41.3752L154.29 42.3728ZM159.222 41.5321L157.939 22.8952L156.941 22.9639L158.224 41.6008L159.222 41.5321ZM157.474 23.4284L163.761 22.9956L163.693 21.998L157.406 22.4307L157.474 23.4284ZM164.226 22.4624L163.949 18.4415L162.951 18.5101L163.228 22.5311L164.226 22.4624ZM163.416 17.977L146.406 19.1479L146.475 20.1455L163.484 18.9746L163.416 17.977ZM145.942 19.681L146.219 23.702L147.216 23.6333L146.939 19.6124L145.942 19.681ZM146.752 24.1665L153.007 23.7359L152.938 22.7383L146.683 23.1689L146.752 24.1665ZM152.474 23.2714L153.756 41.9084L154.754 41.8397L153.471 23.2028L152.474 23.2714Z" fill="#9DDCFF"/>
<path d="M169.279 41.0853L168.779 41.0901L168.784 41.5901L169.284 41.5853L169.279 41.0853ZM184.472 40.9387L184.477 41.4387L184.977 41.4339L184.972 40.9339L184.472 40.9387ZM184.434 36.9404L184.934 36.9356L184.929 36.4356L184.429 36.4404L184.434 36.9404ZM173.654 37.0444L173.154 37.0492L173.159 37.5492L173.659 37.5444L173.654 37.0444ZM173.603 31.7666L173.599 31.2666L173.099 31.2714L173.103 31.7714L173.603 31.7666ZM181.696 31.6885L181.701 32.1885L182.201 32.1837L182.196 31.6837L181.696 31.6885ZM181.658 27.7222L182.158 27.7174L182.153 27.2174L181.653 27.2222L181.658 27.7222ZM173.565 27.8003L173.065 27.8051L173.07 28.3051L173.57 28.3002L173.565 27.8003ZM173.513 22.3625L173.508 21.8626L173.008 21.8674L173.013 22.3674L173.513 22.3625ZM183.62 22.265L183.625 22.765L184.125 22.7602L184.12 22.2602L183.62 22.265ZM183.582 18.2347L184.082 18.2299L184.077 17.7299L183.577 17.7348L183.582 18.2347ZM169.06 18.3748L169.055 17.8748L168.555 17.8797L168.56 18.3796L169.06 18.3748ZM169.284 41.5853L184.477 41.4387L184.468 40.4387L169.274 40.5853L169.284 41.5853ZM184.972 40.9339L184.934 36.9356L183.934 36.9452L183.972 40.9435L184.972 40.9339ZM184.429 36.4404L173.649 36.5444L173.659 37.5444L184.439 37.4404L184.429 36.4404ZM174.154 37.0396L174.103 31.7618L173.103 31.7714L173.154 37.0492L174.154 37.0396ZM173.608 32.2666L181.701 32.1885L181.691 31.1886L173.599 31.2666L173.608 32.2666ZM182.196 31.6837L182.158 27.7174L181.158 27.727L181.196 31.6934L182.196 31.6837ZM181.653 27.2222L173.56 27.3003L173.57 28.3002L181.663 28.2222L181.653 27.2222ZM174.065 27.7954L174.013 22.3577L173.013 22.3674L173.065 27.8051L174.065 27.7954ZM173.517 22.8625L183.625 22.765L183.616 21.7651L173.508 21.8626L173.517 22.8625ZM184.12 22.2602L184.082 18.2299L183.082 18.2396L183.12 22.2699L184.12 22.2602ZM183.577 17.7348L169.055 17.8748L169.064 18.8748L183.586 18.7347L183.577 17.7348ZM168.56 18.3796L168.779 41.0901L169.779 41.0805L169.56 18.37L168.56 18.3796Z" fill="#9DDCFF"/>
<path d="M189.819 41.1143L189.32 41.0865L189.292 41.5858L189.791 41.6135L189.819 41.1143ZM191.078 18.4377L191.106 17.9384L190.607 17.9107L190.579 18.4099L191.078 18.4377ZM194.48 37.3684L193.981 37.3407L193.953 37.8399L194.453 37.8676L194.48 37.3684ZM195.294 22.7085L195.322 22.2092L194.823 22.1815L194.795 22.6807L195.294 22.7085ZM189.791 41.6135L197.393 42.0355L197.448 41.0371L189.847 40.615L189.791 41.6135ZM197.393 42.0355C201.142 42.2437 204.265 41.2192 206.503 39.2368C208.74 37.2545 210.046 34.3562 210.237 30.9067L209.239 30.8513C209.06 34.077 207.847 36.7095 205.84 38.4882C203.832 40.2667 200.982 41.2333 197.448 41.0371L197.393 42.0355ZM210.237 30.9067C210.43 27.436 209.403 24.3928 207.364 22.1637C205.326 19.9351 202.315 18.5608 198.612 18.3552L198.556 19.3536C202.039 19.547 204.791 20.8314 206.626 22.8386C208.462 24.8452 209.418 27.6149 209.239 30.8513L210.237 30.9067ZM198.612 18.3552L191.106 17.9384L191.051 18.9369L198.556 19.3536L198.612 18.3552ZM190.579 18.4099L189.32 41.0865L190.318 41.142L191.577 18.4654L190.579 18.4099ZM194.98 37.3961L195.794 22.7362L194.795 22.6807L193.981 37.3407L194.98 37.3961ZM195.267 23.2077L198.429 23.3832L198.484 22.3848L195.322 22.2092L195.267 23.2077ZM198.429 23.3832C202.219 23.5937 204.797 26.5979 204.576 30.5924L205.574 30.6478C205.824 26.1466 202.87 22.6283 198.484 22.3848L198.429 23.3832ZM204.576 30.5924C204.467 32.5503 203.689 34.2119 202.443 35.3544C201.2 36.495 199.462 37.1442 197.383 37.0288L197.327 38.0272C199.655 38.1565 201.662 37.4277 203.119 36.0913C204.574 34.7566 205.452 32.8419 205.574 30.6478L204.576 30.5924ZM197.383 37.0288L194.508 36.8692L194.453 37.8676L197.327 38.0272L197.383 37.0288Z" fill="#9DDCFF"/>
<path d="M247.043 24.7017L247.125 24.2085L246.83 24.1594L246.647 24.3959L247.043 24.7017ZM238.071 36.3075L237.988 36.8007L238.283 36.8499L238.466 36.6133L238.071 36.3075ZM238.007 36.297L237.534 36.4588L237.631 36.7411L237.925 36.7902L238.007 36.297ZM233.254 22.403L233.727 22.2412L233.631 21.9589L233.336 21.9098L233.254 22.403ZM228.774 21.6561L228.856 21.1629L228.363 21.0807L228.28 21.5739L228.774 21.6561ZM225.039 44.0584L224.546 43.9762L224.463 44.4694L224.957 44.5516L225.039 44.0584ZM229.456 44.7948L229.374 45.288L229.867 45.3703L229.949 44.8771L229.456 44.7948ZM231.776 30.8801L231.858 30.387L231.365 30.3047L231.283 30.7979L231.776 30.8801ZM231.839 30.8907L232.309 30.7195L232.209 30.4454L231.921 30.3975L231.839 30.8907ZM235.688 41.4558L235.218 41.6269L235.318 41.901L235.606 41.949L235.688 41.4558ZM238.559 41.9345L238.477 42.4276L238.765 42.4756L238.948 42.2488L238.559 41.9345ZM245.628 33.1894L245.71 32.6962L245.422 32.6482L245.239 32.8751L245.628 33.1894ZM245.691 33.1999L246.184 33.2821L246.266 32.7889L245.773 32.7067L245.691 33.1999ZM243.371 47.1146L242.878 47.0324L242.796 47.5256L243.289 47.6078L243.371 47.1146ZM247.757 47.8458L247.675 48.3389L248.168 48.4212L248.25 47.928L247.757 47.8458ZM251.492 25.4434L251.985 25.5256L252.067 25.0324L251.574 24.9502L251.492 25.4434ZM246.647 24.3959L237.675 36.0017L238.466 36.6133L247.438 25.0075L246.647 24.3959ZM238.153 35.8143L238.09 35.8038L237.925 36.7902L237.988 36.8007L238.153 35.8143ZM238.481 36.1351L233.727 22.2412L232.781 22.5649L237.534 36.4588L238.481 36.1351ZM233.336 21.9098L228.856 21.1629L228.691 22.1493L233.172 22.8962L233.336 21.9098ZM228.28 21.5739L224.546 43.9762L225.532 44.1406L229.267 21.7383L228.28 21.5739ZM224.957 44.5516L229.374 45.288L229.538 44.3016L225.121 43.5652L224.957 44.5516ZM229.949 44.8771L232.269 30.9624L231.283 30.7979L228.963 44.7126L229.949 44.8771ZM231.694 31.3733L231.757 31.3839L231.921 30.3975L231.858 30.387L231.694 31.3733ZM231.369 31.0618L235.218 41.6269L236.158 41.2846L232.309 30.7195L231.369 31.0618ZM235.606 41.949L238.477 42.4276L238.642 41.4413L235.77 40.9626L235.606 41.949ZM238.948 42.2488L246.016 33.5037L245.239 32.8751L238.171 41.6202L238.948 42.2488ZM245.545 33.6826L245.608 33.6931L245.773 32.7067L245.71 32.6962L245.545 33.6826ZM245.198 33.1177L242.878 47.0324L243.864 47.1968L246.184 33.2821L245.198 33.1177ZM243.289 47.6078L247.675 48.3389L247.839 47.3526L243.453 46.6214L243.289 47.6078ZM248.25 47.928L251.985 25.5256L250.998 25.3612L247.264 47.7635L248.25 47.928ZM251.574 24.9502L247.125 24.2085L246.96 25.1949L251.409 25.9366L251.574 24.9502Z" fill="#9DDCFF"/>
<path d="M262.755 52.3474C266.113 53.1863 269.334 52.7428 271.942 51.1914C274.55 49.6395 276.508 47.0005 277.379 43.5164L276.408 43.274C275.596 46.5244 273.789 48.929 271.431 50.332C269.071 51.7357 266.125 52.1585 262.997 51.3772L262.755 52.3474ZM277.379 43.5164C278.249 40.0324 277.764 36.7753 276.194 34.1716C274.624 31.5687 271.992 29.6542 268.633 28.8151L268.39 29.7853C271.517 30.5663 273.917 32.332 275.337 34.688C276.758 37.0432 277.22 40.0235 276.408 43.274L277.379 43.5164ZM268.633 28.8151C265.178 27.952 261.933 28.4502 259.334 30.0381C256.736 31.6253 254.817 34.2804 253.97 37.6694L254.941 37.9117C255.73 34.7525 257.502 32.329 259.855 30.8914C262.207 29.4546 265.173 28.9817 268.39 29.7853L268.633 28.8151ZM253.97 37.6694C253.128 41.0435 253.575 44.2815 255.123 46.8998C256.671 49.5192 259.3 51.4844 262.755 52.3474L262.997 51.3772C259.78 50.5736 257.385 48.7615 255.984 46.391C254.582 44.0194 254.155 41.0549 254.941 37.9117L253.97 37.6694ZM264.044 47.3194C260.38 46.4042 258.528 42.8213 259.472 39.0435L258.501 38.8012C257.445 43.0303 259.521 47.2204 263.801 48.2896L264.044 47.3194ZM259.472 39.0435C260.415 35.2657 263.734 32.9744 267.398 33.8896L267.641 32.9194C263.36 31.8501 259.558 34.5721 258.501 38.8012L259.472 39.0435ZM267.398 33.8896C270.883 34.7599 272.858 38.2164 271.877 42.1422L272.847 42.3846C273.944 37.9932 271.729 33.9405 267.641 32.9194L267.398 33.8896ZM271.877 42.1422C270.904 46.0385 267.527 48.1895 264.044 47.3194L263.801 48.2896C267.891 49.3111 271.759 46.7435 272.847 42.3846L271.877 42.1422Z" fill="#9DDCFF"/>
<path d="M278.099 55.7743L277.624 55.6178L277.468 56.0927L277.943 56.2492L278.099 55.7743ZM285.207 34.2038L285.364 33.7289L284.889 33.5724L284.732 34.0473L285.207 34.2038ZM283.574 53.3683L283.099 53.2118L282.942 53.6867L283.417 53.8432L283.574 53.3683ZM288.169 39.4234L288.325 38.9485L287.85 38.7921L287.694 39.2669L288.169 39.4234ZM277.943 56.2492L285.173 58.6319L285.486 57.6822L278.256 55.2994L277.943 56.2492ZM285.173 58.6319C288.739 59.8071 292.021 59.6292 294.697 58.2964C297.373 56.9637 299.387 54.5042 300.468 51.2229L299.518 50.9099C298.507 53.9783 296.653 56.2054 294.252 57.4013C291.851 58.597 288.847 58.7897 285.486 57.6822L285.173 58.6319ZM300.468 51.2229C301.556 47.9215 301.355 44.716 299.966 42.0337C298.577 39.3522 296.026 37.2424 292.503 36.0817L292.19 37.0314C295.504 38.1233 297.827 40.0785 299.078 42.4937C300.329 44.9083 300.533 47.8314 299.518 50.9099L300.468 51.2229ZM292.503 36.0817L285.364 33.7289L285.051 34.6787L292.19 37.0314L292.503 36.0817ZM284.732 34.0473L277.624 55.6178L278.574 55.9308L285.682 34.3603L284.732 34.0473ZM284.048 53.5248L288.644 39.5799L287.694 39.2669L283.099 53.2118L284.048 53.5248ZM288.012 39.8983L291.02 40.8894L291.333 39.9397L288.325 38.9485L288.012 39.8983ZM291.02 40.8894C294.626 42.0777 296.335 45.6486 295.083 49.4483L296.033 49.7612C297.444 45.4796 295.505 41.3144 291.333 39.9397L291.02 40.8894ZM295.083 49.4483C294.469 51.3107 293.286 52.713 291.786 53.4926C290.289 54.2709 288.443 54.4463 286.464 53.7945L286.151 54.7442C288.366 55.4739 290.493 55.2918 292.248 54.3798C293.999 53.4691 295.345 51.8483 296.033 49.7612L295.083 49.4483ZM286.464 53.7945L283.73 52.8934L283.417 53.8432L286.151 54.7442L286.464 53.7945Z" fill="#9DDCFF"/>
<path d="M300.702 63.5775L300.238 63.3904L300.051 63.8541L300.515 64.0412L300.702 63.5775ZM314.793 69.2619L314.606 69.7256L315.069 69.9126L315.256 69.4489L314.793 69.2619ZM316.288 65.5537L316.752 65.7408L316.939 65.2771L316.476 65.09L316.288 65.5537ZM306.291 61.5208L305.828 61.3337L305.641 61.7974L306.104 61.9845L306.291 61.5208ZM308.266 56.626L308.453 56.1623L307.989 55.9753L307.802 56.439L308.266 56.626ZM315.771 59.6537L315.584 60.1174L316.048 60.3045L316.235 59.8408L315.771 59.6537ZM317.255 55.9752L317.719 56.1623L317.906 55.6986L317.442 55.5116L317.255 55.9752ZM309.75 52.9476L309.286 52.7605L309.099 53.2242L309.563 53.4112L309.75 52.9476ZM311.784 47.9045L311.971 47.4408L311.508 47.2537L311.321 47.7174L311.784 47.9045ZM321.158 51.6861L320.971 52.1498L321.435 52.3368L321.622 51.8732L321.158 51.6861ZM322.666 47.9483L323.13 48.1353L323.317 47.6716L322.853 47.4846L322.666 47.9483ZM309.198 42.5152L309.385 42.0515L308.922 41.8644L308.735 42.3281L309.198 42.5152ZM300.515 64.0412L314.606 69.7256L314.98 68.7982L300.889 63.1138L300.515 64.0412ZM315.256 69.4489L316.752 65.7408L315.825 65.3667L314.329 69.0748L315.256 69.4489ZM316.476 65.09L306.478 61.0571L306.104 61.9845L316.101 66.0174L316.476 65.09ZM306.755 61.7078L308.73 56.8131L307.802 56.439L305.828 61.3337L306.755 61.7078ZM308.079 57.0897L315.584 60.1174L315.958 59.19L308.453 56.1623L308.079 57.0897ZM316.235 59.8408L317.719 56.1623L316.791 55.7882L315.307 59.4667L316.235 59.8408ZM317.442 55.5116L309.937 52.4839L309.563 53.4112L317.068 56.4389L317.442 55.5116ZM310.214 53.1346L312.248 48.0915L311.321 47.7174L309.286 52.7605L310.214 53.1346ZM311.597 48.3682L320.971 52.1498L321.345 51.2224L311.971 47.4408L311.597 48.3682ZM321.622 51.8732L323.13 48.1353L322.203 47.7612L320.695 51.499L321.622 51.8732ZM322.853 47.4846L309.385 42.0515L309.011 42.9789L322.479 48.412L322.853 47.4846ZM308.735 42.3281L300.238 63.3904L301.165 63.7645L309.662 42.7022L308.735 42.3281Z" fill="#9DDCFF"/>
<path d="M319.693 71.5299L319.241 71.3158L319.027 71.7677L319.479 71.9818L319.693 71.5299ZM332.903 77.7899L332.689 78.2418L333.141 78.4559L333.355 78.004L332.903 77.7899ZM334.615 74.1766L335.067 74.3907L335.281 73.9389L334.829 73.7247L334.615 74.1766ZM325.481 69.848L325.029 69.6339L324.815 70.0857L325.267 70.2999L325.481 69.848ZM333.494 52.9376L333.946 53.1517L334.16 52.6998L333.708 52.4857L333.494 52.9376ZM329.418 51.0061L329.632 50.5543L329.181 50.3402L328.966 50.792L329.418 51.0061ZM319.479 71.9818L332.689 78.2418L333.117 77.3381L319.907 71.0781L319.479 71.9818ZM333.355 78.004L335.067 74.3907L334.164 73.9625L332.451 77.5758L333.355 78.004ZM334.829 73.7247L325.695 69.3962L325.267 70.2999L334.401 74.6284L334.829 73.7247ZM325.933 70.0621L333.946 53.1517L333.042 52.7234L325.029 69.6339L325.933 70.0621ZM333.708 52.4857L329.632 50.5543L329.204 51.458L333.28 53.3894L333.708 52.4857ZM328.966 50.792L319.241 71.3158L320.145 71.7441L329.87 51.2203L328.966 50.792Z" fill="#9DDCFF"/>
</svg>