<svg xmlns="http://www.w3.org/2000/svg" width="158" height="222" viewBox="0 0 158 222" fill="none" css-inspector-installed="true">
<g opacity="1">
<path d="M83.0557 118.646L73.9239 123.864L70.3 144.81L85.9549 135.895L83.0557 118.646Z" fill="#9DDCFF"/>
<path d="M79.5106 181.192L92.049 171.553L90.0922 160.174L67.6248 172.858L79.5106 181.192Z" fill="#9DDCFF"/>
<path d="M69.5777 149.015L65.9539 170.033L89.5086 156.697L86.5371 139.448L69.5777 149.015Z" fill="#9DDCFF"/>
<path d="M89.7284 101.47L85.6697 91.9031H72.7688L68.2029 101.47L76.8278 107.051L74.6535 119.589L82.4084 115.168L81.0313 106.979L89.7284 101.47Z" fill="#9DDCFF"/>
<path d="M158 178.509V112.556C158 100.162 141.693 90.0884 127.415 90.0884H115.747L100.237 178.511L158 178.509Z" fill="#9DDCFF"/>
<path d="M57.7628 178.422L41.3108 90H29.6424C15.3646 90 0 100.074 0 112.467V178.42L57.7628 178.422Z" fill="#9DDCFF"/>
<path d="M114.876 35.8759C114.876 55.6901 98.8145 71.7517 78.9996 71.7517C59.1848 71.7517 43.1238 55.6907 43.1238 35.8759C43.1238 16.061 59.1848 0 78.9996 0C98.8145 0 114.876 16.061 114.876 35.8759Z" fill="#9DDCFF"/>
</g>
<rect opacity="1" x="44.5" y="192.5" width="67" height="27" rx="13.5" stroke="white"/>
<path d="M64.782 211.07C66.532 211.07 67.792 210.272 68.66 209.194L67.75 208.424C67.05 209.292 66.07 209.908 64.782 209.908C62.682 209.908 61.1 208.438 61.1 206.072C61.1 203.762 62.514 202.124 64.782 202.124C65.93 202.124 66.994 202.67 67.75 203.622L68.66 202.866C67.582 201.522 66.154 200.962 64.782 200.962C61.59 200.962 59.826 203.244 59.826 206.072C59.826 209.32 62.094 211.07 64.782 211.07ZM70.3615 211H71.4955V200.696H70.3615V211ZM74.4355 202.922C74.8835 202.922 75.2475 202.572 75.2475 202.124C75.2475 201.69 74.8835 201.326 74.4355 201.326C73.9735 201.326 73.6235 201.69 73.6235 202.124C73.6235 202.572 73.9735 202.922 74.4355 202.922ZM73.8615 211H74.9955V204.182H73.8615V211ZM83.2695 207.486C83.2695 205.526 82.0095 204.098 80.1055 204.098C78.2575 204.098 76.8435 205.54 76.8435 207.598C76.8435 209.67 78.2995 211.084 80.2315 211.084C81.4775 211.084 82.4015 210.566 82.9895 209.81L82.1915 209.124C81.7715 209.656 81.1275 210.048 80.2735 210.048C79.0415 210.048 78.1455 209.222 77.9915 207.948H83.2415C83.2415 207.906 83.2695 207.668 83.2695 207.486ZM80.1615 205.148C81.2535 205.148 81.9675 205.89 82.1495 207.01H78.0335C78.2435 205.848 79.0975 205.148 80.1615 205.148ZM88.6142 204.098C87.6062 204.098 86.7102 204.56 86.1362 205.372H86.1222V204.182H84.9882V211H86.1222V207.598C86.1222 206.058 86.9762 205.148 88.2642 205.148C89.2582 205.148 89.9302 205.68 89.9302 207.276V211H91.0642V206.954C91.0642 205.008 90.0842 204.098 88.6142 204.098ZM95.0413 211.084C95.8393 211.084 96.3153 210.874 96.6933 210.664L96.3853 209.67C96.0633 209.852 95.6433 210.02 95.2373 210.02C94.5933 210.02 94.3973 209.614 94.3973 208.802V205.162H96.6653V204.182H94.3973V201.732L93.2633 201.858V204.182H92.3953V205.162H93.2633V208.97C93.2633 210.342 93.8233 211.084 95.0413 211.084Z" fill="white"/>
</svg>
