 <svg xmlns="http://www.w3.org/2000/svg" width="357" height="96" viewBox="0 0 357 96" fill="none" css-inspector-installed="true">
<path d="M19.262 79.8035L18.8136 80.0248L19.035 80.4732L19.4833 80.2518L19.262 79.8035ZM23.2488 77.835L23.4702 78.2834L23.9185 78.062L23.6972 77.6137L23.2488 77.835ZM19.4394 70.1194L19.218 69.6711L18.7697 69.8924L18.9911 70.3408L19.4394 70.1194ZM27.3844 66.1967L27.6058 66.645L28.0541 66.4237L27.8328 65.9753L27.3844 66.1967ZM25.6001 62.5827L26.0484 62.3613L25.8271 61.913L25.3787 62.1344L25.6001 62.5827ZM17.655 66.5054L17.2067 66.7268L17.4281 67.1751L17.8764 66.9538L17.655 66.5054ZM14.9785 61.0844L14.7571 60.6361L14.3088 60.8575L14.5302 61.3058L14.9785 61.0844ZM24.5011 56.3828L24.7225 56.8311L25.1708 56.6098L24.9494 56.1614L24.5011 56.3828ZM22.7167 52.7688L23.1651 52.5474L22.9437 52.0991L22.4954 52.3205L22.7167 52.7688ZM9.20728 59.4389L8.98592 58.9906L8.53759 59.2119L8.75895 59.6602L9.20728 59.4389ZM19.4833 80.2518L23.4702 78.2834L23.0275 77.3867L19.0406 79.3551L19.4833 80.2518ZM23.6972 77.6137L19.8877 69.8981L18.9911 70.3408L22.8005 78.0564L23.6972 77.6137ZM19.6607 70.5678L27.6058 66.645L27.1631 65.7483L19.218 69.6711L19.6607 70.5678ZM27.8328 65.9753L26.0484 62.3613L25.1518 62.804L26.9361 66.418L27.8328 65.9753ZM25.3787 62.1344L17.4337 66.0571L17.8764 66.9538L25.8214 63.031L25.3787 62.1344ZM18.1034 66.2841L15.4268 60.8631L14.5302 61.3058L17.2067 66.7268L18.1034 66.2841ZM15.1999 61.5328L24.7225 56.8311L24.2797 55.9345L14.7571 60.6361L15.1999 61.5328ZM24.9494 56.1614L23.1651 52.5474L22.2684 52.9902L24.0528 56.6042L24.9494 56.1614ZM22.4954 52.3205L8.98592 58.9906L9.42864 59.8872L22.9381 53.2171L22.4954 52.3205ZM8.75895 59.6602L18.8136 80.0248L19.7103 79.5821L9.65561 59.2175L8.75895 59.6602Z" fill="#9DDCFF"/>
<path d="M38.2465 70.7774L37.788 70.9767L37.9873 71.4353L38.4458 71.236L38.2465 70.7774ZM42.383 68.9795L42.5823 69.4381L43.0409 69.2388L42.8416 68.7802L42.383 68.9795ZM33.3301 48.1503L33.7886 47.951L33.5893 47.4925L33.1308 47.6918L33.3301 48.1503ZM29.1936 49.9482L28.9943 49.4896L28.5357 49.6889L28.735 50.1475L29.1936 49.9482ZM38.4458 71.236L42.5823 69.4381L42.1837 68.521L38.0472 70.3188L38.4458 71.236ZM42.8416 68.7802L33.7886 47.951L32.8715 48.3496L41.9245 69.1789L42.8416 68.7802ZM33.1308 47.6918L28.9943 49.4896L29.3929 50.4067L33.5294 48.6089L33.1308 47.6918ZM28.735 50.1475L37.788 70.9767L38.7051 70.5781L29.6521 49.7489L28.735 50.1475Z" fill="#9DDCFF"/>
<path d="M63.0284 60.8959L62.7287 61.2961L62.9473 61.4598L63.2031 61.3644L63.0284 60.8959ZM67.9438 59.0628L68.1185 59.5313L68.9817 59.2094L68.2414 58.6611L67.9438 59.0628ZM57.0001 50.9561L56.5111 50.8516L56.4439 51.1663L56.7024 51.3578L57.0001 50.9561ZM59.7981 37.8612L60.2871 37.9656L60.4776 37.0741L59.6234 37.3927L59.7981 37.8612ZM54.9727 39.6607L54.798 39.1922L54.5409 39.2881L54.4837 39.5564L54.9727 39.6607ZM53.0355 48.7474L53.2102 49.2159L53.4673 49.12L53.5245 48.8517L53.0355 48.7474ZM52.9756 48.7698L52.6742 49.1688L52.8932 49.3341L53.1503 49.2383L52.9756 48.7698ZM45.5616 43.1704L45.8629 42.7714L45.6439 42.606L45.3868 42.7019L45.5616 43.1704ZM40.7361 44.9699L40.5614 44.5014L39.7072 44.8199L40.435 45.369L40.7361 44.9699ZM51.4253 53.035L51.9133 53.1438L51.9834 52.8297L51.7265 52.6359L51.4253 53.035ZM48.4622 66.3281L47.9741 66.2193L47.7737 67.1184L48.6369 66.7965L48.4622 66.3281ZM53.3775 64.495L53.5522 64.9635L53.8081 64.8681L53.8661 64.6013L53.3775 64.495ZM55.3899 55.2437L55.2152 54.7752L54.9593 54.8706L54.9013 55.1374L55.3899 55.2437ZM55.4498 55.2213L55.7495 54.8211L55.5309 54.6574L55.2751 54.7528L55.4498 55.2213ZM63.2031 61.3644L68.1185 59.5313L67.7691 58.5944L62.8537 60.4274L63.2031 61.3644ZM68.2414 58.6611L57.2977 50.5543L56.7024 51.3578L67.6462 59.4646L68.2414 58.6611ZM57.489 51.0605L60.2871 37.9656L59.3092 37.7567L56.5111 50.8516L57.489 51.0605ZM59.6234 37.3927L54.798 39.1922L55.1474 40.1292L59.9728 38.3296L59.6234 37.3927ZM54.4837 39.5564L52.5465 48.6432L53.5245 48.8517L55.4617 39.7649L54.4837 39.5564ZM52.8608 48.2789L52.8009 48.3013L53.1503 49.2383L53.2102 49.2159L52.8608 48.2789ZM53.2769 48.3708L45.8629 42.7714L45.2602 43.5693L52.6742 49.1688L53.2769 48.3708ZM45.3868 42.7019L40.5614 44.5014L40.9108 45.4384L45.7363 43.6388L45.3868 42.7019ZM40.435 45.369L51.1242 53.4342L51.7265 52.6359L41.0373 44.5708L40.435 45.369ZM50.9373 52.9262L47.9741 66.2193L48.9502 66.4368L51.9133 53.1438L50.9373 52.9262ZM48.6369 66.7965L53.5522 64.9635L53.2028 64.0265L48.2875 65.8596L48.6369 66.7965ZM53.8661 64.6013L55.8784 55.3499L54.9013 55.1374L52.8889 64.3887L53.8661 64.6013ZM55.5646 55.7121L55.6245 55.6898L55.2751 54.7528L55.2152 54.7752L55.5646 55.7121ZM55.1501 55.6215L62.7287 61.2961L63.3281 60.4957L55.7495 54.8211L55.1501 55.6215Z" fill="#9DDCFF"/>
<path d="M72.5131 57.7005L72.0343 57.8448L72.1787 58.3235L72.6574 58.1792L72.5131 57.7005ZM87.0605 53.3141L87.2048 53.7928L87.6835 53.6484L87.5392 53.1697L87.0605 53.3141ZM85.9061 49.4858L86.3849 49.3415L86.2405 48.8627L85.7618 49.0071L85.9061 49.4858ZM75.5851 52.5978L75.1064 52.7422L75.2508 53.2209L75.7295 53.0765L75.5851 52.5978ZM74.0614 47.5445L73.9171 47.0658L73.4384 47.2102L73.5827 47.6889L74.0614 47.5445ZM81.8098 45.2082L81.9542 45.6869L82.4329 45.5426L82.2886 45.0638L81.8098 45.2082ZM80.6648 41.4105L81.1435 41.2662L80.9991 40.7875L80.5204 40.9318L80.6648 41.4105ZM72.9164 43.7469L72.4376 43.8912L72.582 44.3699L73.0607 44.2256L72.9164 43.7469ZM71.3465 38.5404L71.2021 38.0617L70.7234 38.2061L70.8678 38.6848L71.3465 38.5404ZM81.0243 35.6223L81.1687 36.101L81.6474 35.9567L81.503 35.478L81.0243 35.6223ZM79.8608 31.7634L80.3395 31.6191L80.1952 31.1404L79.7164 31.2847L79.8608 31.7634ZM65.9565 35.9559L65.8122 35.4772L65.3335 35.6216L65.4778 36.1003L65.9565 35.9559ZM72.6574 58.1792L87.2048 53.7928L86.9161 52.8353L72.3687 57.2218L72.6574 58.1792ZM87.5392 53.1697L86.3849 49.3415L85.4274 49.6301L86.5817 53.4584L87.5392 53.1697ZM85.7618 49.0071L75.4408 52.1191L75.7295 53.0765L86.0505 49.9645L85.7618 49.0071ZM76.0638 52.4535L74.5402 47.4002L73.5827 47.6889L75.1064 52.7422L76.0638 52.4535ZM74.2058 48.0232L81.9542 45.6869L81.6655 44.7295L73.9171 47.0658L74.2058 48.0232ZM82.2886 45.0638L81.1435 41.2662L80.1861 41.5549L81.3311 45.3525L82.2886 45.0638ZM80.5204 40.9318L72.772 43.2682L73.0607 44.2256L80.8091 41.8893L80.5204 40.9318ZM73.3951 43.6025L71.8252 38.3961L70.8678 38.6848L72.4376 43.8912L73.3951 43.6025ZM71.4908 39.0192L81.1687 36.101L80.88 35.1436L71.2021 38.0617L71.4908 39.0192ZM81.503 35.478L80.3395 31.6191L79.3821 31.9078L80.5456 35.7667L81.503 35.478ZM79.7164 31.2847L65.8122 35.4772L66.1009 36.4346L80.0051 32.2422L79.7164 31.2847ZM65.4778 36.1003L72.0343 57.8448L72.9918 57.5561L66.4352 35.8116L65.4778 36.1003Z" fill="#9DDCFF"/>
<path d="M92.4258 51.9159L91.9387 52.0288L92.0515 52.5159L92.5386 52.403L92.4258 51.9159ZM87.3 29.7904L87.1871 29.3033L86.7 29.4161L86.8129 29.9032L87.3 29.7904ZM95.855 47.0171L95.3679 47.1299L95.4807 47.617L95.9678 47.5042L95.855 47.0171ZM92.5412 32.7134L92.4284 32.2263L91.9413 32.3391L92.0541 32.8262L92.5412 32.7134ZM92.5386 52.403L99.9554 50.6848L99.7297 49.7106L92.3129 51.4288L92.5386 52.403ZM99.9554 50.6848C103.613 49.8374 106.326 47.9812 107.921 45.4526C109.515 42.9242 109.959 39.7766 109.179 36.4109L108.205 36.6366C108.934 39.784 108.506 42.6503 107.075 44.9191C105.644 47.1877 103.177 48.912 99.7297 49.7106L99.9554 50.6848ZM109.179 36.4109C108.395 33.0245 106.559 30.3894 103.979 28.8185C101.399 27.248 98.1234 26.7697 94.5104 27.6067L94.7361 28.5809C98.1346 27.7936 101.135 28.2582 103.459 29.6727C105.781 31.0868 107.474 33.4789 108.205 36.6366L109.179 36.4109ZM94.5104 27.6067L87.1871 29.3033L87.4128 30.2775L94.7361 28.5809L94.5104 27.6067ZM86.8129 29.9032L91.9387 52.0288L92.9129 51.8031L87.7871 29.6776L86.8129 29.9032ZM96.3421 46.9042L93.0283 32.6006L92.0541 32.8262L95.3679 47.1299L96.3421 46.9042ZM92.6541 33.2005L95.7392 32.4858L95.5135 31.5116L92.4284 32.2263L92.6541 33.2005ZM95.7392 32.4858C99.4377 31.6289 102.753 33.7932 103.656 37.6907L104.63 37.465C103.612 33.0731 99.7927 30.5202 95.5135 31.5116L95.7392 32.4858ZM103.656 37.6907C104.098 39.601 103.815 41.4139 102.938 42.8588C102.063 44.3014 100.576 45.4102 98.5468 45.8802L98.7725 46.8544C101.044 46.3282 102.768 45.0678 103.793 43.3775C104.817 41.6895 105.126 39.6058 104.63 37.465L103.656 37.6907ZM98.5468 45.8802L95.7421 46.53L95.9678 47.5042L98.7725 46.8544L98.5468 45.8802Z" fill="#9DDCFF"/>
<path d="M146.926 38.3017L147.351 38.5641L147.604 38.1537L147.203 37.8859L146.926 38.3017ZM143.305 35.8833L143.582 35.4675L143.153 35.1804L142.88 35.6195L143.305 35.8833ZM142.203 27.0269L141.866 27.3967L142.236 27.7327L142.572 27.364L142.203 27.0269ZM145.125 23.8267L145.494 24.1639L145.825 23.8018L145.469 23.4642L145.125 23.8267ZM138.533 44.1691C142.699 43.6508 145.644 41.3326 147.351 38.5641L146.5 38.0393C144.935 40.5775 142.243 42.6998 138.41 43.1767L138.533 44.1691ZM147.203 37.8859L143.582 35.4675L143.027 36.2991L146.648 38.7175L147.203 37.8859ZM142.88 35.6195C141.817 37.3321 140.057 38.6846 137.885 38.9549L138.008 39.9472C140.533 39.633 142.537 38.0675 143.729 36.147L142.88 35.6195ZM137.885 38.9549C135.998 39.1895 134.338 38.6826 133.088 37.6471C131.836 36.6096 130.968 35.0166 130.721 33.0326L129.729 33.1561C130.003 35.3623 130.98 37.1984 132.45 38.4171C133.923 39.6378 135.863 40.2141 138.008 39.9472L137.885 38.9549ZM130.721 33.0326C130.454 30.8878 130.934 29.089 131.907 27.7771C132.878 26.4661 134.368 25.6043 136.195 25.377L136.072 24.3847C133.995 24.6431 132.25 25.6343 131.103 27.1817C129.957 28.7283 129.435 30.7934 129.729 33.1561L130.721 33.0326ZM136.195 25.377C138.358 25.108 140.412 26.0729 141.866 27.3967L142.539 26.6571C140.94 25.2018 138.608 24.0692 136.072 24.3847L136.195 25.377ZM142.572 27.364L145.494 24.1639L144.756 23.4896L141.834 26.6898L142.572 27.364ZM145.469 23.4642C142.501 20.6457 138.79 19.727 135.543 20.1311L135.666 21.1234C138.64 20.7534 142.046 21.5926 144.781 24.1893L145.469 23.4642ZM135.543 20.1311C131.738 20.6045 128.895 22.3193 127.114 24.7855C125.337 27.2457 124.649 30.4102 125.063 33.7366L126.055 33.6132C125.667 30.4957 126.319 27.5945 127.925 25.3709C129.526 23.1532 132.107 21.5662 135.666 21.1234L135.543 20.1311ZM125.063 33.7366C125.54 37.5773 127.296 40.3992 129.763 42.1541C132.222 43.9038 135.349 44.5652 138.533 44.1691L138.41 43.1767C135.436 43.5467 132.569 42.9231 130.342 41.3393C128.123 39.7606 126.501 37.2004 126.055 33.6132L125.063 33.7366Z" fill="#9DDCFF"/>
<path d="M162.995 42.2176C166.452 42.0456 169.406 40.6861 171.451 38.4448C173.497 36.2025 174.604 33.1088 174.426 29.5221L173.427 29.5718C173.593 32.9179 172.562 35.7436 170.712 37.7708C168.862 39.7988 166.165 41.0586 162.945 41.2189L162.995 42.2176ZM174.426 29.5221C174.247 25.9355 172.838 22.9594 170.58 20.9235C168.322 18.8882 165.248 17.8202 161.789 17.9923L161.839 18.9911C165.058 18.8309 167.867 19.824 169.91 21.6662C171.952 23.5078 173.26 26.2255 173.427 29.5718L174.426 29.5221ZM161.789 17.9923C158.232 18.1693 155.272 19.5877 153.246 21.8618C151.22 24.1348 150.155 27.2326 150.328 30.7214L151.327 30.6717C151.165 27.4194 152.158 24.5857 153.992 22.527C155.826 20.4694 158.527 19.1559 161.839 18.9911L161.789 17.9923ZM150.328 30.7214C150.501 34.1949 151.869 37.1635 154.11 39.2199C156.352 41.2772 159.438 42.3947 162.995 42.2176L162.945 41.2189C159.633 41.3837 156.815 40.3449 154.786 38.4832C152.757 36.6206 151.488 33.9074 151.327 30.6717L150.328 30.7214ZM162.769 37.032C158.997 37.2198 156.185 34.3286 155.991 30.4396L154.993 30.4893C155.209 34.8429 158.412 38.2501 162.819 38.0308L162.769 37.032ZM155.991 30.4396C155.798 26.5505 158.309 23.3944 162.081 23.2067L162.031 22.2079C157.624 22.4273 154.776 26.1356 154.993 30.4893L155.991 30.4396ZM162.081 23.2067C165.668 23.0282 168.561 25.7624 168.762 29.8039L169.761 29.7542C169.536 25.2335 166.239 21.9985 162.031 22.2079L162.081 23.2067ZM168.762 29.8039C168.962 33.8149 166.355 36.8536 162.769 37.032L162.819 38.0308C167.028 37.8213 169.985 34.2415 169.761 29.7542L168.762 29.8039Z" fill="#9DDCFF"/>
<path d="M187.394 27.5356L187.202 27.9971L187.204 27.9979L187.394 27.5356ZM183.646 24.4258L184.145 24.4465L184.146 24.4352L183.646 24.4258ZM191.322 24.538L190.995 24.9166L191.39 25.2567L191.714 24.849L191.322 24.538ZM193.976 21.1966L194.368 21.5076L194.665 21.1338L194.305 20.8199L193.976 21.1966ZM186.387 18.1745L186.39 17.6745L186.388 17.6745L186.387 18.1745ZM185.683 31.7586L185.507 32.2266L185.515 32.2293L185.683 31.7586ZM180.674 34.416L181.061 34.0983L180.678 33.6337L180.291 34.0946L180.674 34.416ZM177.925 37.6917L177.542 37.3703L177.259 37.7079L177.559 38.0313L177.925 37.6917ZM186.132 41.9293C188.067 41.9656 190.194 41.4817 191.864 40.3135C193.553 39.132 194.75 37.2637 194.8 34.6174L193.8 34.5986C193.757 36.9096 192.73 38.4868 191.291 39.4941C189.832 40.5147 187.926 40.9628 186.151 40.9294L186.132 41.9293ZM194.8 34.6174C194.844 32.2777 194.03 30.7639 192.659 29.6448C191.338 28.567 189.504 27.8641 187.585 27.0733L187.204 27.9979C189.19 28.8162 190.849 29.4587 192.026 30.4195C193.153 31.3388 193.839 32.5567 193.8 34.5986L194.8 34.6174ZM187.587 27.0741C186.287 26.5323 185.398 26.1293 184.834 25.7062C184.56 25.501 184.389 25.3083 184.285 25.1168C184.185 24.9307 184.134 24.7184 184.145 24.4465L183.146 24.405C183.128 24.8365 183.21 25.2306 183.405 25.5919C183.597 25.9479 183.884 26.2437 184.234 26.5061C184.916 27.0183 185.93 27.4668 187.202 27.9971L187.587 27.0741ZM184.146 24.4352C184.156 23.8626 184.387 23.4444 184.754 23.1611C185.133 22.8685 185.697 22.6929 186.397 22.706L186.416 21.7062C185.55 21.6899 184.746 21.9045 184.143 22.3693C183.529 22.8434 183.162 23.5497 183.146 24.4164L184.146 24.4352ZM186.397 22.706C187.645 22.7295 189.187 23.356 190.995 24.9166L191.649 24.1595C189.742 22.5149 187.984 21.7356 186.416 21.7062L186.397 22.706ZM191.714 24.849L194.368 21.5076L193.585 20.8856L190.931 24.227L191.714 24.849ZM194.305 20.8199C192.055 18.8554 189.34 17.6964 186.39 17.6745L186.383 18.6745C189.063 18.6944 191.553 19.7448 193.647 21.5732L194.305 20.8199ZM186.388 17.6745C182.087 17.6609 178.547 20.5391 178.473 24.5206L179.473 24.5393C179.535 21.2288 182.496 18.6622 186.385 18.6745L186.388 17.6745ZM178.473 24.5206C178.429 26.8231 179.33 28.447 180.693 29.6469C182.03 30.8241 183.805 31.5859 185.507 32.2266L185.86 31.2907C184.162 30.6517 182.542 29.942 181.353 28.8962C180.191 27.873 179.435 26.5225 179.473 24.5393L178.473 24.5206ZM185.515 32.2293C186.893 32.7233 187.802 33.1028 188.369 33.5359C188.642 33.7442 188.818 33.9525 188.927 34.1763C189.037 34.3995 189.096 34.669 189.089 35.022L190.089 35.0408C190.098 34.5623 190.018 34.1293 189.825 33.736C189.633 33.3431 189.342 33.0208 188.976 32.7412C188.266 32.1984 187.207 31.7732 185.852 31.2879L185.515 32.2293ZM189.089 35.022C189.079 35.5845 188.86 36.0295 188.441 36.3431C188.008 36.668 187.31 36.888 186.291 36.8689L186.272 37.8687C187.428 37.8904 188.371 37.6454 189.041 37.1432C189.726 36.6297 190.073 35.8855 190.089 35.0408L189.089 35.022ZM186.291 36.8689C184.654 36.8381 182.63 36.0061 181.061 34.0983L180.288 34.7337C182.034 36.8553 184.328 37.8322 186.272 37.8687L186.291 36.8689ZM180.291 34.0946L177.542 37.3703L178.308 38.0131L181.057 34.7374L180.291 34.0946ZM177.559 38.0313C179.975 40.642 183.059 41.8715 186.132 41.9293L186.151 40.9294C183.34 40.8766 180.517 39.7556 178.292 37.352L177.559 38.0313Z" fill="#9DDCFF"/>
<path d="M204.756 42.0563L204.258 42.0171L204.219 42.5155L204.717 42.5547L204.756 42.0563ZM209.221 42.4073L209.182 42.9058L209.68 42.9449L209.719 42.4465L209.221 42.4073ZM210.685 23.7837L210.724 23.2853L210.226 23.2461L210.187 23.7446L210.685 23.7837ZM216.967 24.2777L216.928 24.7761L217.427 24.8153L217.466 24.3169L216.967 24.2777ZM217.283 20.2596L217.782 20.2988L217.821 19.8003L217.322 19.7611L217.283 20.2596ZM200.286 18.9232L200.325 18.4247L199.827 18.3855L199.788 18.884L200.286 18.9232ZM199.97 22.9413L199.472 22.9021L199.433 23.4006L199.931 23.4397L199.97 22.9413ZM206.221 23.4327L206.719 23.4719L206.758 22.9734L206.26 22.9343L206.221 23.4327ZM204.717 42.5547L209.182 42.9058L209.26 41.9088L204.795 41.5578L204.717 42.5547ZM209.719 42.4465L211.184 23.8229L210.187 23.7446L208.722 42.3681L209.719 42.4465ZM210.646 24.2822L216.928 24.7761L217.007 23.7792L210.724 23.2853L210.646 24.2822ZM217.466 24.3169L217.782 20.2988L216.785 20.2204L216.469 24.2385L217.466 24.3169ZM217.322 19.7611L200.325 18.4247L200.247 19.4217L217.244 20.758L217.322 19.7611ZM199.788 18.884L199.472 22.9021L200.469 22.9805L200.785 18.9624L199.788 18.884ZM199.931 23.4397L206.181 23.9312L206.26 22.9343L200.009 22.4428L199.931 23.4397ZM205.722 23.3935L204.258 42.0171L205.255 42.0955L206.719 23.4719L205.722 23.3935Z" fill="#9DDCFF"/>
<path d="M254.459 26.0648L254.55 25.5731L254.256 25.5189L254.069 25.7523L254.459 26.0648ZM245.29 37.515L245.199 38.0068L245.493 38.061L245.68 37.8276L245.29 37.515ZM245.227 37.5034L244.751 37.6572L244.843 37.9411L245.136 37.9952L245.227 37.5034ZM240.712 23.53L241.188 23.3763L241.097 23.0924L240.803 23.0383L240.712 23.53ZM236.245 22.7063L236.336 22.2146L235.844 22.1239L235.754 22.6157L236.245 22.7063ZM232.127 45.0413L231.635 44.9506L231.545 45.4424L232.036 45.533L232.127 45.0413ZM236.531 45.8534L236.44 46.3451L236.932 46.4358L237.023 45.9441L236.531 45.8534ZM239.089 31.9805L239.18 31.4888L238.688 31.3982L238.597 31.8899L239.089 31.9805ZM239.152 31.9921L239.625 31.8291L239.53 31.5533L239.243 31.5004L239.152 31.9921ZM242.819 42.6217L242.347 42.7848L242.442 43.0605L242.729 43.1134L242.819 42.6217ZM245.682 43.1495L245.591 43.6413L245.878 43.6941L246.065 43.4705L245.682 43.1495ZM252.899 34.527L252.99 34.0353L252.703 33.9824L252.516 34.206L252.899 34.527ZM252.962 34.5386L253.454 34.6292L253.544 34.1375L253.053 34.0469L252.962 34.5386ZM250.404 48.4114L249.912 48.3208L249.822 48.8125L250.313 48.9031L250.404 48.4114ZM254.777 49.2177L254.686 49.7094L255.178 49.8001L255.268 49.3084L254.777 49.2177ZM258.895 26.8827L259.387 26.9734L259.477 26.4817L258.986 26.391L258.895 26.8827ZM254.069 25.7523L244.899 37.2025L245.68 37.8276L254.85 26.3774L254.069 25.7523ZM245.38 37.0233L245.317 37.0117L245.136 37.9952L245.199 38.0068L245.38 37.0233ZM245.703 37.3497L241.188 23.3763L240.237 23.6837L244.751 37.6572L245.703 37.3497ZM240.803 23.0383L236.336 22.2146L236.155 23.198L240.622 24.0217L240.803 23.0383ZM235.754 22.6157L231.635 44.9506L232.619 45.132L236.737 22.797L235.754 22.6157ZM232.036 45.533L236.44 46.3451L236.622 45.3617L232.218 44.5496L232.036 45.533ZM237.023 45.9441L239.581 32.0712L238.597 31.8899L236.039 45.7627L237.023 45.9441ZM238.999 32.4722L239.061 32.4838L239.243 31.5004L239.18 31.4888L238.999 32.4722ZM238.679 32.1552L242.347 42.7848L243.292 42.4586L239.625 31.8291L238.679 32.1552ZM242.729 43.1134L245.591 43.6413L245.773 42.6578L242.91 42.13L242.729 43.1134ZM246.065 43.4705L253.283 34.8479L252.516 34.206L245.299 42.8286L246.065 43.4705ZM252.808 35.0187L252.871 35.0303L253.053 34.0469L252.99 34.0353L252.808 35.0187ZM252.47 34.4479L249.912 48.3208L250.896 48.5021L253.454 34.6292L252.47 34.4479ZM250.313 48.9031L254.686 49.7094L254.867 48.726L250.495 47.9197L250.313 48.9031ZM255.268 49.3084L259.387 26.9734L258.403 26.7921L254.285 49.127L255.268 49.3084ZM258.986 26.391L254.55 25.5731L254.369 26.5566L258.804 27.3744L258.986 26.391Z" fill="#9DDCFF"/>
<path d="M270.172 54.0515C273.515 54.9478 276.744 54.5596 279.377 53.0532C282.012 51.5462 284.015 48.9411 284.945 45.4724L283.979 45.2134C283.111 48.4494 281.263 50.8227 278.881 52.1851C276.498 53.5481 273.545 53.9204 270.431 53.0856L270.172 54.0515ZM284.945 45.4724C285.875 42.0038 285.445 38.7389 283.92 36.1087C282.396 33.4793 279.797 31.52 276.452 30.6234L276.193 31.5893C279.306 32.4238 281.675 34.2304 283.055 36.6103C284.435 38.9895 284.846 41.9773 283.979 45.2134L284.945 45.4724ZM276.452 30.6234C273.012 29.7013 269.76 30.1437 267.134 31.6869C264.509 33.2293 262.545 35.8511 261.64 39.2251L262.606 39.4841C263.449 36.3388 265.263 33.946 267.641 32.549C270.017 31.1527 272.99 30.7306 276.193 31.5893L276.452 30.6234ZM261.64 39.2251C260.74 42.5843 261.132 45.8295 262.634 48.4739C264.137 51.1195 266.732 53.1294 270.172 54.0515L270.431 53.0856C267.228 52.227 264.864 50.3741 263.504 47.98C262.143 45.5847 261.767 42.6133 262.606 39.4841L261.64 39.2251ZM271.547 49.0464C267.899 48.0685 266.109 44.4544 267.117 40.6933L266.151 40.4344C265.023 44.6448 267.026 48.8698 271.288 50.0123L271.547 49.0464ZM267.117 40.6933C268.125 36.9322 271.483 34.6981 275.131 35.676L275.39 34.7101C271.128 33.5676 267.28 36.224 266.151 40.4344L267.117 40.6933ZM275.131 35.676C278.6 36.6059 280.516 40.0957 279.468 44.0042L280.434 44.2631C281.606 39.8912 279.46 35.8011 275.39 34.7101L275.131 35.676ZM279.468 44.0042C278.428 47.8832 275.014 49.976 271.547 49.0464L271.288 50.0123C275.359 51.1036 279.27 48.6028 280.434 44.2631L279.468 44.0042Z" fill="#9DDCFF"/>
<path d="M286.025 57.8842L285.553 57.7194L285.388 58.1914L285.861 58.3563L286.025 57.8842ZM293.513 36.4424L293.678 35.9703L293.205 35.8055L293.041 36.2775L293.513 36.4424ZM291.541 55.5751L291.069 55.4102L290.904 55.8823L291.376 56.0471L291.541 55.5751ZM296.382 41.7134L296.547 41.2413L296.075 41.0765L295.91 41.5485L296.382 41.7134ZM285.861 58.3563L293.048 60.8661L293.378 59.922L286.19 57.4122L285.861 58.3563ZM293.048 60.8661C296.593 62.1039 299.877 61.9839 302.577 60.6985C305.276 59.4132 307.332 56.9895 308.471 53.7278L307.527 53.3981C306.462 56.4482 304.568 58.6423 302.147 59.7956C299.725 60.9489 296.719 61.0886 293.378 59.922L293.048 60.8661ZM308.471 53.7278C309.617 50.446 309.473 47.2375 308.131 44.5312C306.789 41.8255 304.276 39.6712 300.774 38.4485L300.445 39.3926C303.738 40.5427 306.027 42.5385 307.235 44.9754C308.443 47.4117 308.596 50.338 307.527 53.3981L308.471 53.7278ZM300.774 38.4485L293.678 35.9703L293.348 36.9144L300.445 39.3926L300.774 38.4485ZM293.041 36.2775L285.553 57.7194L286.497 58.049L293.985 36.6072L293.041 36.2775ZM292.013 55.7399L296.854 41.8782L295.91 41.5485L291.069 55.4102L292.013 55.7399ZM296.217 42.1854L299.207 43.2294L299.536 42.2853L296.547 41.2413L296.217 42.1854ZM299.207 43.2294C302.791 44.481 304.437 48.0815 303.118 51.8585L304.062 52.1882C305.548 47.932 303.683 43.7334 299.536 42.2853L299.207 43.2294ZM303.118 51.8585C302.471 53.7098 301.264 55.0911 299.751 55.8441C298.24 56.5959 296.391 56.7388 294.424 56.0521L294.094 56.9962C296.296 57.7648 298.426 57.6202 300.196 56.7393C301.964 55.8596 303.338 54.2628 304.062 52.1882L303.118 51.8585ZM294.424 56.0521L291.706 55.103L291.376 56.0471L294.094 56.9962L294.424 56.0521Z" fill="#9DDCFF"/>
<path d="M309.2 66.3349L308.739 66.1397L308.544 66.6L309.004 66.7952L309.2 66.3349ZM323.188 72.2681L322.992 72.7284L323.453 72.9236L323.648 72.4633L323.188 72.2681ZM324.749 68.587L325.209 68.7822L325.405 68.3219L324.944 68.1267L324.749 68.587ZM314.825 64.3776L314.365 64.1824L314.169 64.6427L314.63 64.8379L314.825 64.3776ZM316.886 59.5186L317.081 59.0583L316.621 58.863L316.426 59.3233L316.886 59.5186ZM324.336 62.6788L324.141 63.1391L324.601 63.3343L324.797 62.874L324.336 62.6788ZM325.885 59.0271L326.345 59.2224L326.541 58.7621L326.08 58.5668L325.885 59.0271ZM318.435 55.867L317.974 55.6717L317.779 56.132L318.239 56.3273L318.435 55.867ZM320.558 50.8607L320.753 50.4004L320.293 50.2052L320.098 50.6655L320.558 50.8607ZM329.864 54.8078L329.669 55.2681L330.129 55.4634L330.324 55.0031L329.864 54.8078ZM331.438 51.0973L331.898 51.2925L332.093 50.8322L331.633 50.637L331.438 51.0973ZM318.068 45.4265L318.263 44.9662L317.803 44.7709L317.608 45.2312L318.068 45.4265ZM309.004 66.7952L322.992 72.7284L323.383 71.8078L309.395 65.8746L309.004 66.7952ZM323.648 72.4633L325.209 68.7822L324.289 68.3917L322.727 72.0728L323.648 72.4633ZM324.944 68.1267L315.02 63.9173L314.63 64.8379L324.554 69.0473L324.944 68.1267ZM315.285 64.5728L317.346 59.7138L316.426 59.3233L314.365 64.1824L315.285 64.5728ZM316.691 59.9789L324.141 63.1391L324.532 62.2185L317.081 59.0583L316.691 59.9789ZM324.797 62.874L326.345 59.2224L325.425 58.8319L323.876 62.4835L324.797 62.874ZM326.08 58.5668L318.63 55.4067L318.239 56.3273L325.69 59.4874L326.08 58.5668ZM318.895 56.0622L321.018 51.056L320.098 50.6655L317.974 55.6717L318.895 56.0622ZM320.363 51.321L329.669 55.2681L330.059 54.3475L320.753 50.4004L320.363 51.321ZM330.324 55.0031L331.898 51.2925L330.977 50.9021L329.404 54.6126L330.324 55.0031ZM331.633 50.637L318.263 44.9662L317.873 45.8868L331.242 51.5576L331.633 50.637ZM317.608 45.2312L308.739 66.1397L309.66 66.5302L318.528 45.6217L317.608 45.2312Z" fill="#9DDCFF"/>
<path d="M328.232 74.6894L327.784 74.4676L327.562 74.9156L328.01 75.1375L328.232 74.6894ZM341.333 81.1757L341.111 81.6238L341.559 81.8456L341.781 81.3976L341.333 81.1757ZM343.107 77.5924L343.555 77.8142L343.777 77.3661L343.329 77.1443L343.107 77.5924ZM334.048 73.1073L333.6 72.8854L333.379 73.3335L333.827 73.5554L334.048 73.1073ZM342.352 56.3372L342.8 56.559L343.021 56.111L342.573 55.8891L342.352 56.3372ZM338.31 54.3359L338.531 53.8879L338.083 53.666L337.861 54.1141L338.31 54.3359ZM328.01 75.1375L341.111 81.6238L341.555 80.7276L328.454 74.2413L328.01 75.1375ZM341.781 81.3976L343.555 77.8142L342.659 77.3705L340.885 80.9539L341.781 81.3976ZM343.329 77.1443L334.27 72.6592L333.827 73.5554L342.885 78.0404L343.329 77.1443ZM334.497 73.3291L342.8 56.559L341.903 56.1153L333.6 72.8854L334.497 73.3291ZM342.573 55.8891L338.531 53.8879L338.088 54.784L342.13 56.7853L342.573 55.8891ZM337.861 54.1141L327.784 74.4676L328.68 74.9113L338.758 54.5578L337.861 54.1141Z" fill="#9DDCFF"/>
<path opacity="1" d="M23 95.4999C80.5 66.5 130 55 180.75 55C231.5 55 289 68 334 95.4999" stroke="#9DDCFF"/>
<path opacity="1" d="M1 47C66.6351 14.0618 123.138 1 181.068 1C238.998 1 304.633 15.7655 356 47" stroke="#9DDCFF"/>
</svg>