 <svg xmlns="http://www.w3.org/2000/svg" width="360" height="96" viewBox="0 0 360 96" fill="none" css-inspector-installed="true">
<path d="M14.7279 79.8514L14.2782 80.07L14.4968 80.5197L14.9465 80.3011L14.7279 79.8514ZM18.2786 78.1255L18.4972 78.5752L18.9469 78.3566L18.7283 77.9069L18.2786 78.1255ZM14.888 71.1499L14.6694 70.7002L14.2197 70.9188L14.4383 71.3685L14.888 71.1499ZM22.2161 67.5879L22.6658 67.3693L22.4472 66.9196L21.9975 67.1382L22.2161 67.5879ZM25.6068 74.5634L25.1571 74.782L25.3757 75.2317L25.8254 75.0131L25.6068 74.5634ZM29.1575 72.8375L29.3761 73.2872L29.8258 73.0686L29.6072 72.6189L29.1575 72.8375ZM20.4667 54.9578L20.9163 54.7392L20.6978 54.2896L20.2481 54.5081L20.4667 54.9578ZM16.9159 56.6838L16.6973 56.2341L16.2476 56.4527L16.4662 56.9023L16.9159 56.6838ZM20.6738 64.4148L20.8924 64.8645L21.3421 64.6459L21.1235 64.1963L20.6738 64.4148ZM13.3456 67.9769L12.8959 68.1955L13.1145 68.6451L13.5642 68.4266L13.3456 67.9769ZM9.58774 60.2458L10.0374 60.0272L9.81885 59.5775L9.36916 59.7961L9.58774 60.2458ZM6.03699 61.9717L5.81841 61.522L5.36872 61.7406L5.5873 62.1903L6.03699 61.9717ZM14.9465 80.3011L18.4972 78.5752L18.06 77.6758L14.5093 79.4017L14.9465 80.3011ZM18.7283 77.9069L15.3376 70.9313L14.4383 71.3685L17.8289 78.3441L18.7283 77.9069ZM15.1065 71.5996L22.4347 68.0375L21.9975 67.1382L14.6694 70.7002L15.1065 71.5996ZM21.7664 67.8064L25.1571 74.782L26.0565 74.3449L22.6658 67.3693L21.7664 67.8064ZM25.8254 75.0131L29.3761 73.2872L28.9389 72.3878L25.3882 74.1138L25.8254 75.0131ZM29.6072 72.6189L20.9163 54.7392L20.017 55.1764L28.7078 73.0561L29.6072 72.6189ZM20.2481 54.5081L16.6973 56.2341L17.1345 57.1335L20.6852 55.4075L20.2481 54.5081ZM16.4662 56.9023L20.2241 64.6334L21.1235 64.1963L17.3656 56.4652L16.4662 56.9023ZM20.4552 63.9651L13.127 67.5272L13.5642 68.4266L20.8924 64.8645L20.4552 63.9651ZM13.7953 67.7583L10.0374 60.0272L9.13805 60.4644L12.8959 68.1955L13.7953 67.7583ZM9.36916 59.7961L5.81841 61.522L6.25557 62.4214L9.80633 60.6955L9.36916 59.7961ZM5.5873 62.1903L14.2782 80.07L15.1776 79.6328L6.48668 61.7531L5.5873 62.1903Z" fill="#9DDCFF"/>
<path d="M43.1804 67.7029C45.9968 66.5457 48.0502 64.5501 49.09 62.0869C50.1304 59.6225 50.1398 56.7289 48.9394 53.8074L48.0144 54.1875C49.1233 56.8861 49.0958 59.5019 48.1688 61.698C47.2413 63.8951 45.3968 65.7111 42.8003 66.7779L43.1804 67.7029ZM48.9394 53.8074C47.739 50.8861 45.6954 48.8289 43.221 47.8013C40.7473 46.7742 37.8811 46.7918 35.0638 47.9494L35.4438 48.8744C38.0394 47.8079 40.6301 47.8083 42.8375 48.7249C45.044 49.6411 46.9055 51.4887 48.0144 54.1875L48.9394 53.8074ZM35.0638 47.9494C32.1662 49.14 30.1248 51.1864 29.1099 53.6713C28.0955 56.155 28.1218 59.0396 29.2895 61.8814L30.2145 61.5014C29.1368 58.8786 29.1298 56.2673 30.0356 54.0494C30.941 51.8328 32.7731 49.9718 35.4438 48.8744L35.0638 47.9494ZM29.2895 61.8814C30.4521 64.7109 32.4592 66.774 34.9253 67.8235C37.3926 68.8735 40.2828 68.8935 43.1804 67.7029L42.8003 66.7779C40.1295 67.8753 37.518 67.8401 35.3169 66.9034C33.1145 65.9661 31.2866 64.1107 30.2145 61.5014L29.2895 61.8814ZM41.4321 63.3745C38.411 64.6159 35.2801 63.0735 33.9957 59.9477L33.0707 60.3278C34.5319 63.8838 38.2032 65.7824 41.8122 64.2995L41.4321 63.3745ZM33.9957 59.9477C32.7113 56.8218 33.8533 53.5238 36.8744 52.2824L36.4944 51.3574C32.8854 52.8404 31.6096 56.7717 33.0707 60.3278L33.9957 59.9477ZM36.8744 52.2824C39.7464 51.1023 42.8984 52.4926 44.2332 55.7412L45.1581 55.3611C43.641 51.6687 39.9417 49.9409 36.4944 51.3574L36.8744 52.2824ZM44.2332 55.7412C45.5579 58.9652 44.3029 62.195 41.4321 63.3745L41.8122 64.2995C45.2608 62.8825 46.6641 59.0262 45.1581 55.3611L44.2332 55.7412Z" fill="#9DDCFF"/>
<path d="M65.1117 37.8169L65.585 37.6557L65.4238 37.1824L64.9505 37.3436L65.1117 37.8169ZM61.3745 39.0899L61.2133 38.6166L60.74 38.7778L60.9012 39.2511L61.3745 39.0899ZM53.6087 41.7352L54.082 41.574L53.9208 41.1007L53.4475 41.2619L53.6087 41.7352ZM49.8716 43.0082L49.7104 42.5349L49.2371 42.6961L49.3983 43.1694L49.8716 43.0082ZM64.0954 59.9296C66.6245 59.0681 68.3975 57.5587 69.301 55.5761C70.2023 53.5985 70.206 51.2218 69.3408 48.6816L68.3942 49.004C69.1991 51.3671 69.1614 53.4711 68.3911 55.1614C67.623 56.8467 66.0942 58.1924 63.773 58.983L64.0954 59.9296ZM69.3408 48.6816L65.585 37.6557L64.6384 37.9781L68.3942 49.004L69.3408 48.6816ZM64.9505 37.3436L61.2133 38.6166L61.5358 39.5632L65.2729 38.2902L64.9505 37.3436ZM60.9012 39.2511L64.5758 50.0385L65.5224 49.716L61.8478 38.9287L60.9012 39.2511ZM64.5758 50.0385C65.0573 51.452 65.0336 52.6515 64.6688 53.5638C64.3073 54.4682 63.592 55.1401 62.5812 55.4844L62.9037 56.431C64.1723 55.9989 65.1204 55.1281 65.5974 53.9351C66.0711 52.7501 66.0611 51.2975 65.5224 49.716L64.5758 50.0385ZM62.5812 55.4844C61.4949 55.8545 60.5222 55.6918 59.7106 55.1524C58.8842 54.6031 58.1917 53.6387 57.7565 52.3613L56.8099 52.6838C57.2957 54.1098 58.1003 55.2828 59.1571 55.9852C60.2286 56.6974 61.5251 56.9006 62.9037 56.431L62.5812 55.4844ZM57.7565 52.3613L54.082 41.574L53.1354 41.8964L56.8099 52.6838L57.7565 52.3613ZM53.4475 41.2619L49.7104 42.5349L50.0328 43.4815L53.7699 42.2085L53.4475 41.2619ZM49.3983 43.1694L53.1541 54.1953L54.1007 53.8728L50.3449 42.847L49.3983 43.1694ZM53.1541 54.1953C54.0621 56.861 55.5866 58.7193 57.5228 59.6954C59.4596 60.6718 61.7411 60.7316 64.0954 59.9296L63.773 58.983C61.6215 59.7159 59.6254 59.6355 57.973 58.8025C56.3202 57.9693 54.9441 56.349 54.1007 53.8728L53.1541 54.1953Z" fill="#9DDCFF"/>
<path d="M91.1223 51.1133L91.2566 51.5949L92.1642 51.3419L91.4459 50.7321L91.1223 51.1133ZM84.4204 45.4241L84.142 45.0087L83.5923 45.377L84.0968 45.8053L84.4204 45.4241ZM71.0573 36.069L70.923 35.5874L70.4414 35.7216L70.5756 36.2033L71.0573 36.069ZM76.3959 55.2188L75.9142 55.353L76.0485 55.8347L76.5301 55.7004L76.3959 55.2188ZM80.1449 54.1736L80.2792 54.6552L80.7608 54.521L80.6265 54.0393L80.1449 54.1736ZM78.3178 47.6195L78.1835 47.1379L77.7019 47.2722L77.8361 47.7538L78.3178 47.6195ZM80.5294 47.0029L80.8589 46.6269L80.6556 46.4487L80.3952 46.5213L80.5294 47.0029ZM86.645 52.3615L86.3155 52.7375L86.5189 52.9157L86.7793 52.8431L86.645 52.3615ZM75.7462 38.3953L75.6119 37.9136L75.1303 38.0479L75.2646 38.5295L75.7462 38.3953ZM77.3854 44.2751L76.9038 44.4093L77.038 44.891L77.5197 44.7567L77.3854 44.2751ZM91.4459 50.7321L84.7439 45.0429L84.0968 45.8053L90.7987 51.4945L91.4459 50.7321ZM84.6987 45.8395C85.8861 45.0438 86.7599 44.0146 87.2127 42.7509C87.6651 41.4882 87.6812 40.0359 87.2307 38.4201L86.2675 38.6887C86.6742 40.1476 86.6403 41.3835 86.2713 42.4136C85.9026 43.4427 85.1834 44.3109 84.142 45.0087L84.6987 45.8395ZM87.2307 38.4201C86.6954 36.4997 85.6771 34.9246 84.1311 34.0121C82.5803 33.0967 80.5792 32.8954 78.1783 33.5647L78.4469 34.528C80.6582 33.9115 82.364 34.1302 83.6228 34.8732C84.8863 35.6191 85.7802 36.9409 86.2675 38.6887L87.2307 38.4201ZM78.1783 33.5647L70.923 35.5874L71.1915 36.5506L78.4469 34.528L78.1783 33.5647ZM70.5756 36.2033L75.9142 55.353L76.8775 55.0845L71.5389 35.9347L70.5756 36.2033ZM76.5301 55.7004L80.2792 54.6552L80.0106 53.692L76.2616 54.7371L76.5301 55.7004ZM80.6265 54.0393L78.7994 47.4852L77.8361 47.7538L79.6633 54.3079L80.6265 54.0393ZM78.452 48.1012L80.6637 47.4846L80.3952 46.5213L78.1835 47.1379L78.452 48.1012ZM80.1999 47.379L86.3155 52.7375L86.9746 51.9854L80.8589 46.6269L80.1999 47.379ZM86.7793 52.8431L91.2566 51.5949L90.988 50.6317L86.5108 51.8798L86.7793 52.8431ZM75.8805 38.8769L78.6855 38.0949L78.417 37.1316L75.6119 37.9136L75.8805 38.8769ZM78.6855 38.0949C79.7111 37.809 80.525 37.8716 81.1153 38.1516C81.6959 38.427 82.1232 38.9418 82.334 39.698L83.2973 39.4295C83.0194 38.4325 82.4203 37.6638 81.5438 37.2481C80.6771 36.837 79.603 36.801 78.417 37.1316L78.6855 38.0949ZM82.334 39.698C82.5482 40.4663 82.4466 41.1414 82.0738 41.6934C81.694 42.2559 80.9913 42.7507 79.8943 43.0565L80.1629 44.0198C81.4124 43.6715 82.3514 43.0692 82.9025 42.253C83.4608 41.4264 83.5794 40.4413 83.2973 39.4295L82.334 39.698ZM79.8943 43.0565L77.2511 43.7934L77.5197 44.7567L80.1629 44.0198L79.8943 43.0565ZM77.867 44.1408L76.2278 38.261L75.2646 38.5295L76.9038 44.4093L77.867 44.1408Z" fill="#9DDCFF"/>
<path d="M95.9022 50.0243L95.4142 50.1332L95.5231 50.6212L96.0111 50.5123L95.9022 50.0243ZM108.391 47.2374L108.5 47.7254L108.988 47.6165L108.879 47.1285L108.391 47.2374ZM107.629 43.8214L108.117 43.7125L108.008 43.2245L107.52 43.3334L107.629 43.8214ZM98.9931 45.7485L98.5051 45.8574L98.614 46.3454L99.102 46.2365L98.9931 45.7485ZM95.4257 29.7617L95.9137 29.6528L95.8048 29.1648L95.3168 29.2737L95.4257 29.7617ZM91.5724 30.6215L91.4635 30.1335L90.9755 30.2424L91.0844 30.7304L91.5724 30.6215ZM96.0111 50.5123L108.5 47.7254L108.282 46.7494L95.7933 49.5363L96.0111 50.5123ZM108.879 47.1285L108.117 43.7125L107.141 43.9303L107.903 47.3463L108.879 47.1285ZM107.52 43.3334L98.8842 45.2605L99.102 46.2365L107.738 44.3094L107.52 43.3334ZM99.4811 45.6396L95.9137 29.6528L94.9377 29.8706L98.5051 45.8574L99.4811 45.6396ZM95.3168 29.2737L91.4635 30.1335L91.6813 31.1095L95.5346 30.2497L95.3168 29.2737ZM91.0844 30.7304L95.4142 50.1332L96.3902 49.9154L92.0604 30.5126L91.0844 30.7304Z" fill="#9DDCFF"/>
<path d="M120.638 24.9094L120.555 24.4165L120.264 24.4659L120.166 24.7445L120.638 24.9094ZM117.905 32.7295L117.989 33.2225L118.28 33.1731L118.377 32.8945L117.905 32.7295ZM117.85 32.7389L117.461 33.0528L117.645 33.2809L117.934 33.2319L117.85 32.7389ZM112.633 26.2692L113.022 25.9554L112.838 25.7272L112.549 25.7763L112.633 26.2692ZM108.189 27.0242L108.105 26.5312L107.241 26.6779L107.807 27.3469L108.189 27.0242ZM116.542 36.9089L117.035 36.8251L117.012 36.6905L116.924 36.5862L116.542 36.9089ZM118.005 45.5215L117.512 45.6052L117.596 46.0982L118.089 46.0145L118.005 45.5215ZM121.925 44.8557L122.008 45.3486L122.501 45.2649L122.418 44.7719L121.925 44.8557ZM120.462 36.243L119.995 36.0628L119.946 36.1911L119.969 36.3268L120.462 36.243ZM125.138 24.1451L125.604 24.3254L125.921 23.5049L125.054 23.6522L125.138 24.1451ZM120.166 24.7445L117.433 32.5646L118.377 32.8945L121.11 25.0744L120.166 24.7445ZM117.821 32.2366L117.766 32.246L117.934 33.2319L117.989 33.2225L117.821 32.2366ZM118.239 32.4251L113.022 25.9554L112.244 26.5831L117.461 33.0528L118.239 32.4251ZM112.549 25.7763L108.105 26.5312L108.272 27.5171L112.717 26.7622L112.549 25.7763ZM107.807 27.3469L116.16 37.2316L116.924 36.5862L108.57 26.7014L107.807 27.3469ZM116.049 36.9926L117.512 45.6052L118.498 45.4378L117.035 36.8251L116.049 36.9926ZM118.089 46.0145L122.008 45.3486L121.841 44.3627L117.921 45.0286L118.089 46.0145ZM122.418 44.7719L120.955 36.1593L119.969 36.3268L121.432 44.9394L122.418 44.7719ZM120.928 36.4233L125.604 24.3254L124.671 23.9649L119.995 36.0628L120.928 36.4233ZM125.054 23.6522L120.555 24.4165L120.722 25.4024L125.222 24.6381L125.054 23.6522Z" fill="#9DDCFF"/>
<path d="M152.708 30.6034L152.21 30.6464L152.243 31.0353L152.629 31.0971L152.708 30.6034ZM152.705 30.5755L152.486 30.126L152.178 30.2764L152.207 30.6185L152.705 30.5755ZM141.277 22.2322L141.234 21.7341L140.736 21.7771L140.779 22.2752L141.277 22.2322ZM142.988 42.0384L142.49 42.0815L142.533 42.5796L143.031 42.5366L142.988 42.0384ZM145.425 25.3587L145.382 24.8606L144.884 24.9036L144.927 25.4018L145.425 25.3587ZM145.828 30.0174L145.33 30.0604L145.373 30.5586L145.871 30.5155L145.828 30.0174ZM146.539 38.2467L146.041 38.2898L146.084 38.7879L146.582 38.7449L146.539 38.2467ZM146.1 33.1696L146.057 32.6715L145.559 32.7145L145.602 33.2127L146.1 33.1696ZM153.206 30.5603L153.203 30.5324L152.207 30.6185L152.21 30.6464L153.206 30.5603ZM152.924 31.025C155.253 29.8904 155.973 27.7835 155.805 25.8391L154.809 25.9252C154.949 27.5515 154.365 29.2108 152.486 30.126L152.924 31.025ZM155.805 25.8391C155.658 24.1302 154.919 22.8183 153.603 22.0048C152.313 21.2073 150.535 20.9305 148.375 21.1171L148.461 22.1134C150.513 21.9361 152.044 22.2166 153.077 22.8554C154.085 23.4783 154.684 24.4818 154.809 25.9252L155.805 25.8391ZM148.375 21.1171L141.234 21.7341L141.32 22.7303L148.461 22.1134L148.375 21.1171ZM140.779 22.2752L142.49 42.0815L143.486 41.9954L141.775 22.1892L140.779 22.2752ZM143.031 42.5366L151.232 41.828L151.146 40.8317L142.945 41.5403L143.031 42.5366ZM151.232 41.828C153.48 41.6338 155.172 40.8805 156.266 39.6994C157.364 38.5136 157.805 36.9539 157.659 35.2625L156.663 35.3485C156.789 36.8093 156.407 38.0751 155.532 39.02C154.653 39.9696 153.222 40.6524 151.146 40.8317L151.232 41.828ZM157.659 35.2625C157.538 33.8568 157.042 32.6738 156.195 31.7838C155.348 30.8949 154.185 30.3335 152.787 30.1097L152.629 31.0971C153.853 31.2931 154.802 31.7717 155.471 32.4734C156.138 33.1738 156.558 34.132 156.663 35.3485L157.659 35.2625ZM145.468 25.8569L148.035 25.6351L147.949 24.6389L145.382 24.8606L145.468 25.8569ZM148.035 25.6351C149.124 25.5411 149.825 25.7032 150.252 25.9781C150.655 26.238 150.88 26.6414 150.93 27.2158L151.926 27.1298C151.855 26.3095 151.505 25.5961 150.793 25.1374C150.104 24.6937 149.147 24.5353 147.949 24.6389L148.035 25.6351ZM150.93 27.2158C150.985 27.8551 150.752 28.3144 150.355 28.6453C149.938 28.9921 149.316 29.2142 148.602 29.2758L148.688 30.2721C149.537 30.1988 150.376 29.9293 150.995 29.4137C151.633 28.8823 152.01 28.1085 151.926 27.1298L150.93 27.2158ZM148.602 29.2758L145.785 29.5192L145.871 30.5155L148.688 30.2721L148.602 29.2758ZM146.326 29.9743L145.923 25.3157L144.927 25.4018L145.33 30.0604L146.326 29.9743ZM149.676 37.4738L146.496 37.7486L146.582 38.7449L149.762 38.4701L149.676 37.4738ZM147.037 38.2037L146.598 33.1266L145.602 33.2127L146.041 38.2898L147.037 38.2037ZM146.143 33.6678L149.351 33.3906L149.265 32.3943L146.057 32.6715L146.143 33.6678ZM149.351 33.3906C150.461 33.2947 151.23 33.4693 151.721 33.7841C152.191 34.0861 152.463 34.5534 152.519 35.2007L153.515 35.1146C153.436 34.1998 153.025 33.4333 152.261 32.9426C151.516 32.4647 150.498 32.2878 149.265 32.3943L149.351 33.3906ZM152.519 35.2007C152.578 35.889 152.343 36.384 151.894 36.7458C151.42 37.1278 150.669 37.388 149.676 37.4738L149.762 38.4701C150.861 38.3752 151.833 38.0791 152.521 37.5245C153.235 36.9497 153.603 36.128 153.515 35.1146L152.519 35.2007Z" fill="#9DDCFF"/>
<path d="M175.127 40.1686L174.659 40.3432L174.784 40.6794L175.143 40.6683L175.127 40.1686ZM179.241 40.0419L179.257 40.5417L179.977 40.5195L179.704 39.8527L179.241 40.0419ZM171.213 20.3997L171.676 20.2105L171.545 19.8892L171.198 19.8999L171.213 20.3997ZM167.435 20.516L167.42 20.0162L167.072 20.0269L166.961 20.3568L167.435 20.516ZM160.686 40.6132L160.212 40.454L159.984 41.1351L160.702 41.113L160.686 40.6132ZM164.8 40.4865L164.816 40.9863L165.174 40.9752L165.279 40.632L164.8 40.4865ZM166.021 36.471L166.006 35.9713L165.647 35.9823L165.543 36.3256L166.021 36.471ZM173.662 36.2358L174.13 36.0612L174.005 35.725L173.646 35.736L173.662 36.2358ZM167.065 33.0773L166.587 32.9323L166.385 33.5985L167.081 33.5771L167.065 33.0773ZM169.456 25.188L169.44 24.6883L169.081 24.6993L168.977 25.043L169.456 25.188ZM169.512 25.1863L169.98 25.0106L169.854 24.6755L169.496 24.6865L169.512 25.1863ZM172.411 32.9127L172.426 33.4125L173.124 33.391L172.879 32.7371L172.411 32.9127ZM175.143 40.6683L179.257 40.5417L179.226 39.5421L175.112 39.6688L175.143 40.6683ZM179.704 39.8527L171.676 20.2105L170.75 20.5888L178.779 40.2311L179.704 39.8527ZM171.198 19.8999L167.42 20.0162L167.45 21.0157L171.229 20.8994L171.198 19.8999ZM166.961 20.3568L160.212 40.454L161.16 40.7724L167.909 20.6752L166.961 20.3568ZM160.702 41.113L164.816 40.9863L164.785 39.9868L160.671 40.1134L160.702 41.113ZM165.279 40.632L166.5 36.6165L165.543 36.3256L164.322 40.3411L165.279 40.632ZM166.037 36.9708L173.677 36.7356L173.646 35.736L166.006 35.9713L166.037 36.9708ZM173.193 36.4104L174.659 40.3432L175.596 39.994L174.13 36.0612L173.193 36.4104ZM167.544 33.2223L169.934 25.333L168.977 25.043L166.587 32.9323L167.544 33.2223ZM169.471 25.6878L169.527 25.6861L169.496 24.6865L169.44 24.6883L169.471 25.6878ZM169.044 25.3619L171.943 33.0884L172.879 32.7371L169.98 25.0106L169.044 25.3619ZM172.395 32.413L167.05 32.5775L167.081 33.5771L172.426 33.4125L172.395 32.413Z" fill="#9DDCFF"/>
<path d="M190.402 28.3688L190.208 28.8295L190.21 28.8304L190.402 28.3688ZM187.131 25.6343L187.63 25.6569L187.631 25.6455L187.131 25.6343ZM193.85 25.7579L193.522 26.1353L193.914 26.4769L194.24 26.0704L193.85 25.7579ZM196.184 22.8419L196.574 23.1544L196.873 22.7818L196.514 22.4665L196.184 22.8419ZM189.551 20.1715L189.556 19.6715L189.554 19.6715L189.551 20.1715ZM188.89 32.0596L188.712 32.5269L188.72 32.5297L188.89 32.0596ZM184.497 34.369L184.884 34.0528L184.504 33.5867L184.115 34.0462L184.497 34.369ZM182.08 37.2272L181.698 36.9044L181.413 37.2409L181.711 37.5655L182.08 37.2272ZM189.248 41.026C190.952 41.0644 192.828 40.6457 194.307 39.6195C195.805 38.5801 196.87 36.9306 196.923 34.5935L195.923 34.571C195.878 36.5728 194.985 37.9318 193.737 38.798C192.47 39.6773 190.814 40.0611 189.27 40.0262L189.248 41.026ZM196.923 34.5935C196.97 32.5272 196.254 31.1809 195.042 30.1843C193.881 29.2291 192.267 28.604 190.594 27.9072L190.21 28.8304C191.949 29.5549 193.389 30.119 194.407 30.9565C195.375 31.7525 195.963 32.8023 195.923 34.571L196.923 34.5935ZM190.596 27.908C189.458 27.4287 188.689 27.0759 188.204 26.7093C187.97 26.5323 187.827 26.3695 187.743 26.2118C187.662 26.0595 187.62 25.8849 187.63 25.6569L186.631 25.6116C186.614 25.9991 186.686 26.3557 186.861 26.6836C187.034 27.0061 187.291 27.2724 187.601 27.5068C188.204 27.963 189.098 28.3619 190.208 28.8295L190.596 27.908ZM187.631 25.6455C187.641 25.1628 187.836 24.8153 188.143 24.5805C188.462 24.3363 188.941 24.1867 189.544 24.2004L189.566 23.2006C188.797 23.1833 188.078 23.3708 187.535 23.7863C186.98 24.2111 186.648 24.8461 186.631 25.623L187.631 25.6455ZM189.544 24.2004C190.615 24.2245 191.949 24.7685 193.522 26.1353L194.178 25.3806C192.508 23.9295 190.958 23.232 189.566 23.2006L189.544 24.2004ZM194.24 26.0704L196.574 23.1544L195.794 22.5294L193.459 25.4455L194.24 26.0704ZM196.514 22.4665C194.542 20.731 192.155 19.7006 189.556 19.6715L189.545 20.6715C191.874 20.6976 194.037 21.6184 195.854 23.2173L196.514 22.4665ZM189.554 19.6715C185.764 19.6452 182.62 22.172 182.54 25.6987L183.54 25.7212C183.604 22.8655 186.169 20.648 189.547 20.6715L189.554 19.6715ZM182.54 25.6987C182.494 27.7339 183.286 29.1754 184.487 30.2412C185.663 31.2844 187.224 31.9604 188.712 32.5269L189.068 31.5923C187.585 31.0275 186.178 30.4042 185.151 29.4931C184.149 28.6047 183.501 27.4371 183.54 25.7212L182.54 25.6987ZM188.72 32.5297C189.926 32.9671 190.711 33.2995 191.197 33.6736C191.429 33.8523 191.575 34.0281 191.666 34.2138C191.756 34.3989 191.805 34.6248 191.798 34.926L192.798 34.9485C192.808 34.5219 192.738 34.1324 192.565 33.7769C192.393 33.4218 192.133 33.1316 191.807 32.8812C191.178 32.3969 190.243 32.0182 189.061 31.5895L188.72 32.5297ZM191.798 34.926C191.787 35.4007 191.602 35.7708 191.252 36.0316C190.886 36.3035 190.29 36.4923 189.407 36.4724L189.384 37.4721C190.404 37.4952 191.246 37.2823 191.848 36.834C192.466 36.3743 192.781 35.7055 192.798 34.9485L191.798 34.926ZM189.407 36.4724C187.993 36.4405 186.241 35.7146 184.884 34.0528L184.11 34.6853C185.642 36.5616 187.663 37.4333 189.384 37.4721L189.407 36.4724ZM184.115 34.0462L181.698 36.9044L182.462 37.5501L184.879 34.6919L184.115 34.0462ZM181.711 37.5655C183.83 39.8716 186.542 40.9649 189.248 41.026L189.27 40.0262C186.826 39.971 184.375 38.9873 182.448 36.889L181.711 37.5655Z" fill="#9DDCFF"/>
<path d="M201.182 40.759L200.684 40.7226L200.647 41.2213L201.146 41.2577L201.182 40.759ZM214.447 41.727L214.411 42.2256L214.909 42.262L214.946 41.7634L214.447 41.727ZM214.702 38.2362L215.201 38.2726L215.237 37.774L214.738 37.7376L214.702 38.2362ZM205.291 37.5495L204.792 37.5131L204.756 38.0118L205.254 38.0482L205.291 37.5495ZM205.627 32.9418L205.664 32.4431L205.165 32.4067L205.128 32.9054L205.627 32.9418ZM212.692 33.4573L212.656 33.956L213.155 33.9924L213.191 33.4937L212.692 33.4573ZM212.945 29.9945L213.444 30.0309L213.48 29.5322L212.981 29.4959L212.945 29.9945ZM205.88 29.479L205.381 29.4426L205.345 29.9413L205.843 29.9776L205.88 29.479ZM206.226 24.7316L206.263 24.2329L205.764 24.1965L205.728 24.6952L206.226 24.7316ZM215.051 25.3755L215.014 25.8742L215.513 25.9106L215.549 25.4119L215.051 25.3755ZM215.308 21.8569L215.806 21.8933L215.843 21.3946L215.344 21.3582L215.308 21.8569ZM202.629 20.9317L202.666 20.4331L202.167 20.3967L202.131 20.8953L202.629 20.9317ZM201.146 41.2577L214.411 42.2256L214.484 41.2283L201.219 40.2603L201.146 41.2577ZM214.946 41.7634L215.201 38.2726L214.203 38.1999L213.948 41.6906L214.946 41.7634ZM214.738 37.7376L205.327 37.0508L205.254 38.0482L214.665 38.7349L214.738 37.7376ZM205.79 37.5859L206.126 32.9781L205.128 32.9054L204.792 37.5131L205.79 37.5859ZM205.591 33.4404L212.656 33.956L212.729 32.9586L205.664 32.4431L205.591 33.4404ZM213.191 33.4937L213.444 30.0309L212.446 29.9581L212.194 33.4209L213.191 33.4937ZM212.981 29.4959L205.916 28.9803L205.843 29.9776L212.909 30.4932L212.981 29.4959ZM206.378 29.5154L206.725 24.768L205.728 24.6952L205.381 29.4426L206.378 29.5154ZM206.19 25.2303L215.014 25.8742L215.087 24.8769L206.263 24.2329L206.19 25.2303ZM215.549 25.4119L215.806 21.8933L214.809 21.8205L214.552 25.3391L215.549 25.4119ZM215.344 21.3582L202.666 20.4331L202.593 21.4304L215.271 22.3556L215.344 21.3582ZM202.131 20.8953L200.684 40.7226L201.681 40.7954L203.128 20.9681L202.131 20.8953Z" fill="#9DDCFF"/>
<path d="M219.765 42.2889L219.269 42.2249L219.205 42.7208L219.701 42.7848L219.765 42.2889ZM222.308 22.5721L222.372 22.0762L221.876 22.0123L221.812 22.5082L222.308 22.5721ZM224.073 39.3154L223.577 39.2514L223.513 39.7473L224.009 39.8113L224.073 39.3154ZM225.717 26.5689L225.781 26.073L225.285 26.0091L225.221 26.505L225.717 26.5689ZM219.701 42.7848L226.311 43.6371L226.438 42.6453L219.829 41.793L219.701 42.7848ZM226.311 43.6371C229.583 44.0591 232.392 43.3611 234.487 41.7612C236.582 40.1615 237.913 37.6983 238.302 34.6852L237.31 34.5573C236.95 37.3481 235.731 39.553 233.88 40.9665C232.03 42.3797 229.497 43.0397 226.438 42.6453L226.311 43.6371ZM238.302 34.6852C238.693 31.6529 237.987 28.9135 236.338 26.823C234.689 24.733 232.131 23.3347 228.898 22.9178L228.77 23.9096C231.785 24.2984 234.089 25.588 235.552 27.4424C237.015 29.2963 237.671 31.7578 237.31 34.5573L238.302 34.6852ZM228.898 22.9178L222.372 22.0762L222.244 23.068L228.77 23.9096L228.898 22.9178ZM221.812 22.5082L219.269 42.2249L220.261 42.3528L222.804 22.6361L221.812 22.5082ZM224.569 39.3793L226.212 26.6329L225.221 26.505L223.577 39.2514L224.569 39.3793ZM225.653 27.0648L228.402 27.4193L228.53 26.4276L225.781 26.073L225.653 27.0648ZM228.402 27.4193C231.661 27.8396 233.7 30.5927 233.256 34.0344L234.247 34.1623C234.756 30.2172 232.38 26.924 228.53 26.4276L228.402 27.4193ZM233.256 34.0344C233.038 35.7222 232.26 37.108 231.114 38.0151C229.97 38.9205 228.429 39.373 226.636 39.1418L226.508 40.1336C228.548 40.3966 230.364 39.8844 231.735 38.7992C233.104 37.7156 234 36.0847 234.247 34.1623L233.256 34.0344ZM226.636 39.1418L224.137 38.8195L224.009 39.8113L226.508 40.1336L226.636 39.1418Z" fill="#9DDCFF"/>
<path d="M271.661 31.3144L271.77 30.8267L271.479 30.7609L271.283 30.9868L271.661 31.3144ZM263.247 41.0143L263.137 41.5021L263.429 41.5678L263.624 41.3419L263.247 41.0143ZM263.192 41.002L262.711 41.1369L262.791 41.4242L263.082 41.4898L263.192 41.002ZM259.724 28.625L260.205 28.4901L260.125 28.2028L259.834 28.1372L259.724 28.625ZM255.845 27.7511L255.955 27.2633L255.467 27.1534L255.357 27.6412L255.845 27.7511ZM251.475 47.1449L250.988 47.035L250.878 47.5228L251.366 47.6327L251.475 47.1449ZM255.3 48.0065L255.19 48.4943L255.677 48.6042L255.787 48.1164L255.3 48.0065ZM258.014 35.9605L258.124 35.4727L257.636 35.3628L257.526 35.8506L258.014 35.9605ZM258.068 35.9728L258.547 35.8284L258.463 35.5491L258.178 35.485L258.068 35.9728ZM260.911 45.396L260.432 45.5404L260.516 45.8196L260.801 45.8837L260.911 45.396ZM263.396 45.956L263.286 46.4438L263.571 46.5079L263.767 46.2917L263.396 45.956ZM270.005 38.6622L270.115 38.1745L269.83 38.1103L269.634 38.3265L270.005 38.6622ZM270.06 38.6745L270.547 38.7844L270.657 38.2967L270.17 38.1868L270.06 38.6745ZM267.346 50.7206L266.858 50.6107L266.748 51.0985L267.236 51.2084L267.346 50.7206ZM271.142 51.576L271.033 52.0638L271.52 52.1737L271.63 51.6859L271.142 51.576ZM275.512 32.1822L276 32.2921L276.11 31.8043L275.622 31.6944L275.512 32.1822ZM271.283 30.9868L262.869 40.6867L263.624 41.3419L272.038 31.642L271.283 30.9868ZM263.357 40.5265L263.302 40.5142L263.082 41.4898L263.137 41.5021L263.357 40.5265ZM263.674 40.8671L260.205 28.4901L259.242 28.7599L262.711 41.1369L263.674 40.8671ZM259.834 28.1372L255.955 27.2633L255.735 28.2388L259.614 29.1128L259.834 28.1372ZM255.357 27.6412L250.988 47.035L251.963 47.2548L256.333 27.861L255.357 27.6412ZM251.366 47.6327L255.19 48.4943L255.409 47.5188L251.585 46.6572L251.366 47.6327ZM255.787 48.1164L258.501 36.0704L257.526 35.8506L254.812 47.8966L255.787 48.1164ZM257.904 36.4483L257.958 36.4606L258.178 35.485L258.124 35.4727L257.904 36.4483ZM257.59 36.1172L260.432 45.5404L261.389 45.2516L258.547 35.8284L257.59 36.1172ZM260.801 45.8837L263.286 46.4438L263.506 45.4682L261.02 44.9082L260.801 45.8837ZM263.767 46.2917L270.376 38.998L269.634 38.3265L263.026 45.6203L263.767 46.2917ZM269.895 39.15L269.95 39.1623L270.17 38.1868L270.115 38.1745L269.895 39.15ZM269.572 38.5646L266.858 50.6107L267.833 50.8305L270.547 38.7844L269.572 38.5646ZM267.236 51.2084L271.033 52.0638L271.252 51.0883L267.456 50.2328L267.236 51.2084ZM271.63 51.6859L276 32.2921L275.024 32.0723L270.655 51.4661L271.63 51.6859ZM275.622 31.6944L271.77 30.8267L271.551 31.8022L275.402 32.67L275.622 31.6944Z" fill="#9DDCFF"/>
<path d="M284.928 56.364C287.847 57.2327 290.698 56.9699 293.054 55.7064C295.412 54.4424 297.237 52.1968 298.138 49.1696L297.179 48.8843C296.347 51.6806 294.683 53.6987 292.582 54.8251C290.48 55.952 287.904 56.2064 285.214 55.4055L284.928 56.364ZM298.138 49.1696C299.039 46.1426 298.741 43.2582 297.461 40.9043C296.182 38.5512 293.941 36.7645 291.021 35.8955L290.736 36.854C293.425 37.6546 295.441 39.2822 296.583 41.382C297.724 43.481 298.012 46.0879 297.179 48.8843L298.138 49.1696ZM291.021 35.8955C288.019 35.0018 285.145 35.3117 282.794 36.6077C280.445 37.9031 278.653 40.164 277.777 43.1087L278.735 43.394C279.544 40.6763 281.179 38.6402 283.277 37.4834C285.374 36.3274 287.969 36.0302 290.736 36.854L291.021 35.8955ZM277.777 43.1087C276.904 46.0406 277.17 48.9066 278.429 51.2723C279.69 53.6392 281.926 55.4702 284.928 56.364L285.214 55.4055C282.446 54.5817 280.436 52.9139 279.312 50.8024C278.187 48.6897 277.93 46.0977 278.735 43.394L277.777 43.1087ZM286.287 51.8979C283.157 50.9661 281.689 47.7993 282.653 44.5603L281.695 44.275C280.598 47.9598 282.262 51.7432 286.002 52.8564L286.287 51.8979ZM282.653 44.5603C283.618 41.3213 286.578 39.4725 289.708 40.4044L289.994 39.4459C286.254 38.3327 282.792 40.5902 281.695 44.275L282.653 44.5603ZM289.708 40.4044C292.684 41.2902 294.263 44.3519 293.261 47.718L294.22 48.0033C295.359 44.1773 293.566 40.5092 289.994 39.4459L289.708 40.4044ZM293.261 47.718C292.267 51.0587 289.262 52.7834 286.287 51.8979L286.002 52.8564C289.575 53.9201 293.089 51.8011 294.22 48.0033L293.261 47.718Z" fill="#9DDCFF"/>
<path d="M299.045 60.1009L298.575 59.9285L298.403 60.3979L298.872 60.5702L299.045 60.1009ZM305.897 41.4392L306.069 40.9698L305.6 40.7974L305.427 41.2668L305.897 41.4392ZM303.904 58.1569L303.435 57.9845L303.263 58.4539L303.732 58.6262L303.904 58.1569ZM308.334 46.0925L308.507 45.6231L308.037 45.4508L307.865 45.9201L308.334 46.0925ZM298.872 60.5702L305.128 62.8672L305.472 61.9285L299.217 59.6315L298.872 60.5702ZM305.128 62.8672C308.226 64.0047 311.119 63.947 313.517 62.8517C315.915 61.7565 317.759 59.6498 318.806 56.7979L317.867 56.4533C316.897 59.0948 315.22 60.9744 313.102 61.9421C310.983 62.9097 308.367 62.9915 305.472 61.9285L305.128 62.8672ZM318.806 56.7979C319.86 53.9279 319.779 51.1002 318.634 48.6959C317.49 46.2923 315.306 44.3615 312.246 43.2378L311.901 44.1765C314.755 45.2243 316.716 46.993 317.731 49.1258C318.747 51.2579 318.84 53.8036 317.867 56.4533L318.806 56.7979ZM312.246 43.2378L306.069 40.9698L305.724 41.9085L311.901 44.1765L312.246 43.2378ZM305.427 41.2668L298.575 59.9285L299.514 60.2732L306.366 41.6115L305.427 41.2668ZM304.374 58.3292L308.804 46.2648L307.865 45.9201L303.435 57.9845L304.374 58.3292ZM308.162 46.5618L310.764 47.5173L311.109 46.5786L308.507 45.6231L308.162 46.5618ZM310.764 47.5173C313.849 48.6499 315.226 51.7866 314.03 55.0442L314.969 55.3889C316.34 51.6549 314.753 47.9166 311.109 46.5786L310.764 47.5173ZM314.03 55.0442C313.443 56.6416 312.377 57.8204 311.059 58.4507C309.742 59.0798 308.139 59.1792 306.442 58.5561L306.098 59.4948C308.028 60.2036 309.912 60.107 311.49 59.3529C313.065 58.6 314.3 57.2084 314.969 55.3889L314.03 55.0442ZM306.442 58.5561L304.077 57.6875L303.732 58.6262L306.098 59.4948L306.442 58.5561Z" fill="#9DDCFF"/>
<path d="M319.312 67.8179L318.853 67.6199L318.655 68.079L319.114 68.277L319.312 67.8179ZM331.524 73.0865L331.326 73.5456L331.785 73.7437L331.983 73.2846L331.524 73.0865ZM332.91 69.8729L333.37 70.0709L333.568 69.6118L333.108 69.4138L332.91 69.8729ZM324.246 66.1349L323.787 65.9369L323.589 66.396L324.048 66.594L324.246 66.1349ZM326.076 61.8929L326.275 61.4338L325.815 61.2357L325.617 61.6948L326.076 61.8929ZM332.581 64.6991L332.383 65.1582L332.842 65.3563L333.04 64.8972L332.581 64.6991ZM333.956 61.5112L334.415 61.7092L334.614 61.2501L334.154 61.0521L333.956 61.5112ZM327.452 58.7049L326.993 58.5069L326.795 58.966L327.254 59.164L327.452 58.7049ZM329.337 54.3343L329.536 53.8752L329.076 53.6772L328.878 54.1363L329.337 54.3343ZM337.462 57.8393L337.264 58.2984L337.723 58.4965L337.921 58.0374L337.462 57.8393ZM338.859 54.6L339.318 54.798L339.516 54.3389L339.057 54.1409L338.859 54.6ZM327.187 49.5643L327.385 49.1052L326.926 48.9071L326.728 49.3662L327.187 49.5643ZM319.114 68.277L331.326 73.5456L331.722 72.6275L319.51 67.3589L319.114 68.277ZM331.983 73.2846L333.37 70.0709L332.451 69.6748L331.065 72.8885L331.983 73.2846ZM333.108 69.4138L324.444 65.6758L324.048 66.594L332.712 70.332L333.108 69.4138ZM324.705 66.333L326.536 62.091L325.617 61.6948L323.787 65.9369L324.705 66.333ZM325.878 62.352L332.383 65.1582L332.779 64.24L326.275 61.4338L325.878 62.352ZM333.04 64.8972L334.415 61.7092L333.497 61.3131L332.122 64.501L333.04 64.8972ZM334.154 61.0521L327.65 58.2458L327.254 59.164L333.758 61.9702L334.154 61.0521ZM327.911 58.903L329.797 54.5324L328.878 54.1363L326.993 58.5069L327.911 58.903ZM329.139 54.7934L337.264 58.2984L337.66 57.3802L329.536 53.8752L329.139 54.7934ZM337.921 58.0374L339.318 54.798L338.4 54.4019L337.003 57.6413L337.921 58.0374ZM339.057 54.1409L327.385 49.1052L326.989 50.0234L338.661 55.0591L339.057 54.1409ZM326.728 49.3662L318.853 67.6199L319.771 68.016L327.646 49.7624L326.728 49.3662Z" fill="#9DDCFF"/>
<path d="M336.38 75.4088L335.931 75.1879L335.71 75.6365L336.159 75.8574L336.38 75.4088ZM347.86 81.0618L347.639 81.5103L348.087 81.7312L348.308 81.2827L347.86 81.0618ZM349.406 77.9218L349.854 78.1427L350.075 77.6942L349.627 77.4733L349.406 77.9218ZM341.468 74.013L341.019 73.7921L340.799 74.2407L341.247 74.4616L341.468 74.013ZM348.704 59.3181L349.153 59.539L349.374 59.0904L348.925 58.8695L348.704 59.3181ZM345.162 57.574L345.383 57.1254L344.935 56.9045L344.714 57.3531L345.162 57.574ZM336.159 75.8574L347.639 81.5103L348.08 80.6132L336.601 74.9603L336.159 75.8574ZM348.308 81.2827L349.854 78.1427L348.957 77.7009L347.411 80.8409L348.308 81.2827ZM349.627 77.4733L341.689 73.5645L341.247 74.4616L349.185 78.3704L349.627 77.4733ZM341.917 74.2339L349.153 59.539L348.256 59.0972L341.019 73.7921L341.917 74.2339ZM348.925 58.8695L345.383 57.1254L344.942 58.0225L348.483 59.7667L348.925 58.8695ZM344.714 57.3531L335.931 75.1879L336.828 75.6297L345.611 57.7948L344.714 57.3531Z" fill="#9DDCFF"/>
<path opacity="1" d="M24 95.4999C81.5 66.5 131 55 181.75 55C232.5 55 290 68 335 95.4999" stroke="#9DDCFF"/>
<path opacity="1" d="M2 47C67.6351 14.0618 124.138 1 182.068 1C239.998 1 305.633 15.7655 357 47" stroke="#9DDCFF"/>
</svg>