<svg xmlns="http://www.w3.org/2000/svg" xmlns:xlink="http://www.w3.org/1999/xlink" version="1.1" id="Layer_1" x="0px" y="0px" viewBox="0 0 140 106" style="enable-background:new 0 0 140 106;" xml:space="preserve" css-inspector-installed="true">
<style type="text/css">
	
		.st0{opacity:0.5;fill:none;stroke:#9DDCFF;stroke-width:3;stroke-linecap:round;stroke-linejoin:round;stroke-miterlimit:1.5;enable-background:new    ;}
</style>
<path class="st0" d="M127.5,2.5 M127.5,2.5 M127.5,2.5c6,37-13.5,69.7-40.4,77c-2.7,0.7-5.6,1.5-8.5,2 M78.6,81.5  c-4.7,0.9-9.6,1.1-13.9-0.6c-4-1.5-8.6-5.1-9.2-9.4c-1.2-7.9,8.7-12.8,15.8-8.9C77.4,65.9,81.2,75.3,78.6,81.5z M78.6,81.5  c-0.1,0.1-0.1,0.3-0.2,0.4C63.6,112.6,21.8,107.4,1.6,87"/>
</svg>