<svg xmlns="http://www.w3.org/2000/svg" width="223" height="221" viewBox="0 0 223 221" fill="none" css-inspector-installed="true">
<rect opacity="1" x="82.5" y="191.5" width="67" height="27" rx="13.5" stroke="white"/>
<path d="M101.416 210H102.634V201.18H105.63V200.06H98.434V201.18H101.416V210ZM111.893 206.486C111.893 204.526 110.633 203.098 108.729 203.098C106.881 203.098 105.467 204.54 105.467 206.598C105.467 208.67 106.923 210.084 108.855 210.084C110.101 210.084 111.025 209.566 111.613 208.81L110.815 208.124C110.395 208.656 109.751 209.048 108.897 209.048C107.665 209.048 106.769 208.222 106.615 206.948H111.865C111.865 206.906 111.893 206.668 111.893 206.486ZM108.785 204.148C109.877 204.148 110.591 204.89 110.773 206.01H106.657C106.867 204.848 107.721 204.148 108.785 204.148ZM118.903 203.182V204.204H118.889C118.315 203.49 117.475 203.098 116.537 203.098C114.605 203.098 113.205 204.624 113.205 206.64C113.205 208.726 114.661 210.084 116.551 210.084C117.545 210.084 118.385 209.65 118.931 208.922H118.945V210H120.037V203.182H118.903ZM116.649 209.048C115.263 209.048 114.353 208.012 114.353 206.64C114.353 205.128 115.375 204.148 116.663 204.148C117.979 204.148 118.945 205.24 118.945 206.64C118.945 208.082 117.881 209.048 116.649 209.048ZM130.235 203.098C129.199 203.098 128.303 203.574 127.757 204.442H127.743C127.379 203.532 126.623 203.098 125.573 203.098C124.691 203.098 123.837 203.546 123.277 204.358H123.263V203.182H122.143V210H123.263V206.612C123.263 205.086 124.131 204.148 125.237 204.148C126.301 204.148 126.861 204.792 126.861 206.304V210H127.995V206.612C127.995 205.086 128.849 204.148 129.899 204.148C130.977 204.148 131.495 204.778 131.495 206.318V210H132.629V206.01C132.629 203.994 131.789 203.098 130.235 203.098Z" fill="white"/>
<g opacity="1">
<path d="M48.6808 20.027C55.7062 34.2652 63.9495 34.1602 68.8191 34.1964C63.2481 28.8649 61.5904 25.9288 61.5904 25.9288C61.5904 25.9288 66.9218 28.4756 74.1488 31.5117C78.5308 23.3923 86.9604 17.1768 97.5819 14.6884C89.1211 1.00998 74.7002 0.0192126 68.1711 0.000244141C49.1321 0.000244141 34.7628 12.455 34.7628 27.8428C34.7628 35.5003 36.436 38.4643 38.023 39.965C38.0247 39.9633 41.1402 28.7264 48.6806 20.0265L48.6808 20.027Z" fill="#9DDCFF"/>
<path d="M73.8514 47.5046C73.8514 56.029 75.7142 59.3255 77.4821 60.9952C77.4821 60.9952 80.9508 48.4901 89.3475 38.8043C97.1687 54.6557 106.343 54.5384 111.762 54.5781C105.562 48.6436 103.713 45.3731 103.713 45.3731C103.713 45.3731 122.29 54.2989 138.773 59.4583C146.099 63.3491 144.388 71.5015 145.564 71.5756C148.466 59.8015 149.448 53.2587 149.448 47.5033C143.148 18.2496 120.166 16.5415 111.039 16.5142C89.8494 16.5142 73.8515 30.3805 73.8515 47.5051L73.8514 47.5046Z" fill="#9DDCFF"/>
<path d="M40.4494 135.893C47.6402 121.786 70.4632 118.883 83.0768 108.54C85.0205 106.944 86.5058 105.578 87.7377 104.341C87.7153 103.92 87.6912 103.476 87.6912 103.047C87.6912 102.373 87.817 100.932 87.8773 99.9086C87.9411 99.9759 88.0065 100.04 88.0703 100.107C84.2346 95.4631 81.1949 89.7333 79.1701 83.3268C75.7841 85.2223 72.1019 86.2906 68.2297 86.2906C61.4095 86.2906 55.1097 83.0442 50.0747 77.6265C50.023 78.5363 49.9076 79.8373 49.9076 80.4455C49.9076 80.8263 49.9317 81.2313 49.9524 81.5983C48.8461 82.7167 47.5124 83.9384 45.7651 85.3703C34.437 94.6631 13.9246 97.2754 7.46827 109.949C6.01736 112.787 1.14075 129.209 0 141.119C11.7124 142.793 24.2602 144.061 37.4146 144.89C38.6846 140.454 39.8408 137.089 40.4491 135.893L40.4494 135.893Z" fill="#9DDCFF"/>
<path d="M148.874 33.6887C151.026 34.178 152.985 34.1832 154.576 34.1953C149.005 28.8638 147.347 25.9277 147.347 25.9277C147.347 25.9277 164.036 33.9456 178.843 38.5827C185.424 42.079 183.89 49.4004 184.946 49.4662C187.555 38.891 188.432 33.0082 188.432 27.8408C182.777 1.55762 162.128 0.0238208 153.928 0C140.858 0 129.988 5.87404 124.456 14.5347C132.819 16.2906 142.885 21.0241 148.874 33.6893L148.874 33.6887Z" fill="#9DDCFF"/>
<path d="M173.454 81.3921C173.469 81.0733 173.454 80.7648 173.454 80.434C173.454 79.5397 173.312 77.8648 173.207 76.345C168.007 82.5309 161.321 86.291 153.975 86.291C150.346 86.291 146.875 85.3468 143.652 83.6719C141.756 89.5459 139.004 94.8394 135.567 99.2423C135.673 100.707 135.787 102.192 135.787 103.037C135.787 103.402 135.803 103.748 135.787 104.103C137.181 105.618 138.93 107.369 141.417 109.407C154.029 119.753 175.391 120.739 182.247 135.011C182.986 136.548 184.151 140.377 185.376 145.25C198.298 144.589 210.682 143.496 222.324 142.03C221.158 129.74 216.9 112.717 215.19 109.162C209.032 96.3423 189.839 95.4529 178.512 86.1584C176.278 84.3267 174.707 82.7552 173.454 81.392L173.454 81.3921Z" fill="#9DDCFF"/>
<path d="M138.406 112.425C135.918 110.385 134.169 108.636 132.776 107.122C132.792 106.763 132.776 106.42 132.776 106.052C132.776 105.059 132.623 103.188 132.502 101.492C126.714 108.379 119.272 112.562 111.097 112.562C103.507 112.562 96.4939 108.95 90.8885 102.921C90.8299 103.941 90.7024 105.382 90.7024 106.059C90.7024 106.488 90.7266 106.933 90.749 107.353C89.5169 108.59 88.0315 109.957 86.088 111.551C73.4762 121.896 50.6514 124.8 43.4624 138.907C41.8564 142.059 36.4269 160.347 35.1569 173.6C59.1378 177.025 86.1864 179 115.018 179C140.783 179 165.148 177.392 187.173 174.62C185.876 160.941 181.141 141.99 179.239 138.034C172.382 123.759 151.022 122.772 138.408 112.426L138.406 112.425Z" fill="#9DDCFF"/>
</g>
</svg>