<svg xmlns:xlink="http://www.w3.org/1999/xlink" xmlns="http://www.w3.org/2000/svg" width="43" height="42" viewBox="0 0 43 42" fill="none">
  <path fill-rule="evenodd" clip-rule="evenodd" d="M24.3272 17.761C23.8467 17.2805 23.8467 16.5015 24.3272 16.021C25.2968 15.0512 26.6662 15.2409 27.6451 15.4234C27.4624 14.4446 27.2727 13.0755 28.2425 12.1057C29.2122 11.1359 30.5813 11.3257 31.5603 11.5083C31.3776 10.5295 31.1878 9.16041 32.1576 8.1906C33.1273 7.22071 34.4965 7.41061 35.4753 7.5932C35.2927 6.61437 35.1029 5.24526 36.0727 4.27545C37.0425 3.30573 38.4116 3.49546 39.3904 3.67813C39.2077 2.6993 39.018 1.33019 39.9878 0.360386C40.4683 -0.120129 41.2474 -0.120129 41.7278 0.360386C42.2059 0.838521 42.2084 1.61212 41.7351 2.09312C41.6196 2.32544 41.7066 2.73917 41.8085 3.22401C41.984 4.05888 42.2038 5.10461 41.5105 5.79804C40.8207 6.48754 39.786 6.27245 38.9507 6.0988C38.4733 5.99955 38.061 5.91384 37.8154 6.01828C37.7107 6.2648 37.7966 6.67754 37.8961 7.15516C38.0701 7.99008 38.2853 9.02326 37.5952 9.71327C36.9056 10.4029 35.8739 10.1879 35.0393 10.014C34.5611 9.91443 34.1477 9.82829 33.9002 9.93343C33.7955 10.1799 33.8815 10.5927 33.981 11.0703C34.1549 11.9052 34.3701 12.9384 33.68 13.6284C32.9903 14.318 31.9581 14.103 31.1234 13.9292C30.6453 13.8296 30.232 13.7435 29.985 13.8486C29.8803 14.0951 29.9663 14.5078 30.0658 14.9855C30.2397 15.8204 30.4549 16.8535 29.7649 17.5435C29.0721 18.236 28.0294 18.0167 27.1953 17.8413C26.7092 17.7391 26.294 17.6517 26.0599 17.7683C25.5769 18.2434 24.8033 18.2372 24.3272 17.761ZM19.9756 13.4108C20.4561 13.8913 21.2351 13.8914 21.7157 13.4108C27.4081 7.71833 25.5739 1.95397 25.4931 1.71133C25.2782 1.06668 24.5813 0.718148 23.9367 0.933141C23.2921 1.14805 22.9437 1.84487 23.1585 2.48952C23.1735 2.53455 24.6046 7.04186 19.9756 11.6708C19.4951 12.1512 19.4951 12.9303 19.9756 13.4108ZM11.4781 12.4945C11.7925 11.6562 12.8692 11.4255 13.5002 12.0566L30.9007 29.4572C31.5351 30.0915 31.2972 31.1664 30.4627 31.4793L2.62185 41.9196C1.63375 42.2903 0.667881 41.3217 1.03774 40.3355L11.4781 12.4945ZM18.1674 20.204L13.1112 15.1478L11.9405 18.2697C11.4054 23.9468 13.4146 29.6725 17.3515 33.7678L22.6149 31.7939C20.075 28.451 18.5173 24.4088 18.1674 20.204ZM6.7839 32.0207C7.57062 33.687 8.58012 35.2233 9.79388 36.6019L14.8666 34.6995C12.3135 31.7753 10.4932 28.1498 9.75524 24.0969L6.7839 32.0207ZM7.34874 37.5189C6.72303 36.745 6.1513 35.9312 5.6365 35.0804L4.29233 38.665L7.34874 37.5189ZM21.153 23.1896C21.8637 26.0012 23.1882 28.642 25.0334 30.8871L27.8095 29.846L21.153 23.1896ZM31.2879 22.9813C30.8074 23.4618 30.0284 23.4618 29.5479 22.9813C29.0673 22.5009 29.0674 21.7217 29.548 21.2413C35.2404 15.5487 41.0048 17.383 41.2474 17.4638C41.8921 17.6787 42.2406 18.3757 42.0256 19.0202C41.8107 19.6649 41.1139 20.0132 40.4692 19.7984C40.4242 19.7835 35.9169 18.3524 31.2879 22.9813ZM31.286 5.58041C31.7665 5.09989 31.7665 4.32088 31.286 3.84037C30.8055 3.35985 30.0264 3.35985 29.5459 3.84037C29.0654 4.32088 29.0654 5.09989 29.5459 5.58041C30.0264 6.06092 30.8055 6.06092 31.286 5.58041ZM40.3456 13.4108C40.3456 14.0904 39.7947 14.6412 39.1152 14.6412C38.4356 14.6412 37.8848 14.0904 37.8848 13.4108C37.8848 12.7313 38.4356 12.1804 39.1152 12.1804C39.7947 12.1804 40.3456 12.7313 40.3456 13.4108ZM36.5071 24.7212C36.0266 25.2018 36.0266 25.9808 36.5071 26.4613C36.9876 26.9418 37.7666 26.9418 38.2471 26.4613C38.7276 25.9808 38.7276 25.2018 38.2471 24.7212C37.7667 24.2407 36.9876 24.2407 36.5071 24.7212ZM19.1063 5.5806C19.5868 6.06111 19.5868 6.84013 19.1063 7.32064C18.6259 7.80115 17.8468 7.80115 17.3662 7.32064C16.8857 6.84013 16.8857 6.06103 17.3662 5.5806C17.8468 5.10009 18.6258 5.10009 19.1063 5.5806Z" fill="white"/>
</svg>