<?xml version="1.0" encoding="UTF-8"?>
<svg xmlns="http://www.w3.org/2000/svg" width="68" height="68" viewBox="0 0 68 68" fill="none">
  <path d="M67.3698 64.3677L59.5306 56.5286C61.2673 54.1771 62.3269 51.3015 62.3269 48.1625C62.3269 40.3517 55.9723 33.9971 48.1615 33.9971C40.3507 33.9971 33.9961 40.3517 33.9961 48.1625C33.9961 55.9733 40.3507 62.3279 48.1615 62.3279C51.3005 62.3279 54.1761 61.2683 56.5276 59.5316L64.3667 67.3708C65.1968 68.2008 66.5425 68.2008 67.3726 67.3708C68.2027 66.5407 68.1999 65.1978 67.3698 64.3677ZM38.2457 48.1625C38.2457 42.6946 42.6936 38.2467 48.1615 38.2467C53.6293 38.2467 58.0773 42.6946 58.0773 48.1625C58.0773 53.6303 53.6293 58.0782 48.1615 58.0782C42.6936 58.0782 38.2457 53.6303 38.2457 48.1625Z" fill="url(#paint0_linear_2196_12049)"></path>
  <path d="M22.664 0C14.0712 0 7.08203 6.98921 7.08203 15.5819V23.3729C7.08203 26.1068 9.306 28.3308 12.0399 28.3308H22.664C17.1763 28.3308 12.7482 23.9027 12.7482 18.415C19.3578 18.415 22.664 13.4571 22.664 8.49924C22.664 13.4571 25.9702 18.415 32.5798 18.415C32.5798 23.9027 28.1516 28.3308 22.664 28.3308H33.288C36.0219 28.3308 38.2459 26.1068 38.2459 23.3729V15.5819C38.2459 6.98921 31.2567 0 22.664 0Z" fill="url(#paint1_linear_2196_12049)"></path>
  <path d="M29.7473 48.1625C29.7473 42.5558 32.2744 37.5328 36.2408 34.1529C35.7365 34.0792 10.624 33.9971 10.624 33.9971C4.76524 33.9971 0 38.7623 0 44.6211V54.5369C0 55.7098 0.951915 56.6617 2.12481 56.6617H31.8438C30.5123 54.1176 29.7473 51.2279 29.7473 48.1625Z" fill="url(#paint2_linear_2196_12049)"></path>
  <defs>
    <linearGradient id="paint0_linear_2196_12049" x1="33.9961" y1="50.9952" x2="67.9938" y2="50.9952" gradientUnits="userSpaceOnUse">
      <stop stop-color="#FF6900"></stop>
      <stop offset="1" stop-color="#E63535"></stop>
    </linearGradient>
    <linearGradient id="paint1_linear_2196_12049" x1="-2.98418" y1="9.73377" x2="15.7568" y2="39.7345" gradientUnits="userSpaceOnUse">
      <stop stop-color="#AC5DD9"></stop>
      <stop offset="1" stop-color="#004FC4"></stop>
    </linearGradient>
    <linearGradient id="paint2_linear_2196_12049" x1="-11.7061" y1="41.3179" x2="-0.548917" y2="68.9338" gradientUnits="userSpaceOnUse">
      <stop stop-color="#5B8DEF"></stop>
      <stop offset="1" stop-color="#0063F7"></stop>
    </linearGradient>
  </defs>
</svg>
