<svg xmlns:xlink="http://www.w3.org/1999/xlink" xmlns="http://www.w3.org/2000/svg" width="44" height="44" viewBox="0 0 44 44" fill="none">
  <path fill-rule="evenodd" clip-rule="evenodd" d="M24.3201 38.1312C22.7278 38.5471 21.0853 38.7578 19.4219 38.7578C8.7126 38.7578 0 30.0837 0 19.4219C0 8.734 8.73297 0 19.4219 0C30.0837 0 38.7578 8.7126 38.7578 19.4219C38.7578 21.0854 38.5471 22.7278 38.1312 24.3201C41.6018 25.9927 44 29.5245 44 33.6016C44 39.3019 39.3032 44 33.6016 44C29.5246 44 25.9928 41.6018 24.3201 38.1312ZM33.6016 41.4219C37.8406 41.4219 41.4219 37.8406 41.4219 33.6016C41.4219 29.3368 37.9137 25.8672 33.6016 25.8672C29.3368 25.8672 25.8672 29.3368 25.8672 33.6016C25.8672 37.9137 29.3368 41.4219 33.6016 41.4219ZM36.1797 19.4219C36.1797 10.1342 28.6621 2.57812 19.4219 2.57812C10.1342 2.57812 2.57812 10.1342 2.57812 19.4219C2.57812 28.6621 10.1342 36.1797 19.4219 36.1797C20.8049 36.1797 22.1703 36.0116 23.4963 35.6805C23.3605 35.0085 23.2891 34.3133 23.2891 33.6016C23.2891 27.9153 27.9153 23.2891 33.6016 23.2891C34.3133 23.2891 35.0085 23.3605 35.6805 23.4963C36.0117 22.1703 36.1797 20.8049 36.1797 19.4219ZM20.7109 7.82031V5.24219H18.1328V7.82031H20.7109ZM20.7109 31.0234V33.6016H18.1328V31.0234H20.7109ZM10.3052 8.48415L8.48242 10.3069L10.3052 12.1296L12.1279 10.3069L10.3052 8.48415ZM8.48047 28.5347L10.3032 26.7119L12.1259 28.5347L10.3032 30.3574L8.48047 28.5347ZM28.5337 8.48586L26.7109 10.3086L28.5337 12.1313L30.3564 10.3086L28.5337 8.48586ZM5.24219 18.1328H7.82031V20.7109H5.24219V18.1328ZM33.6016 18.1328H31.0234V20.7109H33.6016V18.1328ZM25.8672 18.1328H20.7109V10.3984H18.1328V20.7109H25.8672V18.1328ZM28.8223 34.5129L30.6452 32.69L32.3118 34.3566L36.5566 30.1118L38.3795 31.9348L32.3118 38.0026L28.8223 34.5129Z" fill="white"/>
</svg>