<?xml version="1.0" encoding="UTF-8"?>
<svg xmlns="http://www.w3.org/2000/svg" width="42" height="31" viewBox="0 0 42 31" fill="none">
  <path d="M41.9613 22.1463C41.8712 18.2524 40.6825 13.055 38.7806 8.24296C37.9117 6.03777 36.9689 4.1441 36.059 2.77508C34.8457 0.938794 33.7554 0.0862314 32.6078 0.0862314C31.9601 0.0862314 31.3781 0.0616384 30.8207 0.0370453C29.4107 -0.0203387 28.1892 -0.069525 27.1317 0.364954C26.0414 0.815828 25.4102 1.66019 25.0249 2.50456H16.9419C16.5566 1.66019 15.9254 0.815828 14.8351 0.364954C13.7694 -0.069525 12.5561 -0.0203387 11.1461 0.0370453C10.5805 0.0616384 9.99846 0.0862314 9.35904 0.0862314C8.21136 0.0862314 7.12106 0.938794 5.9078 2.77508C4.99785 4.1523 4.06331 6.04597 3.18616 8.25115C1.28429 13.055 0.0956207 18.2524 0.00544581 22.1545C-0.150311 28.9914 3.07139 30.1554 5.00605 30.2456H5.1782C7.11286 30.2456 9.23607 28.7618 11.6544 25.7287C12.7939 24.3023 13.712 22.8759 14.2121 22.0725H27.7547C28.2466 22.8759 29.1729 24.2941 30.3124 25.7287C32.8127 28.852 34.9851 30.3358 36.9607 30.2456C38.8954 30.1554 42.1171 28.9832 41.9613 22.1463ZM23.9674 5.12783C23.1558 6.43126 21.9753 6.92313 20.9834 6.92313C19.9915 6.92313 18.811 6.42307 17.9994 5.12783H23.9674ZM39.2233 24.5236C38.7806 27.5322 37.3706 27.5978 36.846 27.6224C36.4771 27.6388 35.0425 27.4338 32.3864 24.1137C30.8207 22.1545 29.6566 20.1296 29.6402 20.1132C29.4025 19.7034 28.9762 19.4492 28.5007 19.4492H13.4661C12.9988 19.4492 12.5643 19.7034 12.3266 20.105C12.3184 20.1214 11.1543 22.1463 9.58038 24.1055C6.92432 27.4256 5.48972 27.6306 5.12082 27.6142C4.58797 27.5896 3.18616 27.524 2.74348 24.5154C2.29261 21.4331 3.12058 16.3013 4.90768 11.1286C5.70286 8.84139 6.6292 6.71818 7.52275 5.14422C8.63764 3.18497 9.28526 2.76688 9.41642 2.7013C10.0886 2.7013 10.7035 2.67671 11.2445 2.65212C13.8432 2.54555 14.3105 2.52915 14.8433 4.39003C15.7369 7.52976 18.147 9.54639 20.9834 9.54639C23.8198 9.54639 26.2299 7.52156 27.1235 4.39003C27.6563 2.52915 28.1236 2.54555 30.7223 2.65212C31.2633 2.67671 31.8782 2.7013 32.5504 2.7013C32.6815 2.76688 33.3374 3.18497 34.444 5.14422C35.3376 6.71818 36.2639 8.84139 37.0591 11.1286C38.8462 16.3013 39.6742 21.4331 39.2233 24.5236ZM15.5565 12.9976C15.5565 13.719 14.9663 14.3093 14.2449 14.3093H12.5889V15.9652C12.5889 16.6866 11.9987 17.2768 11.2773 17.2768C10.5559 17.2768 9.96567 16.6866 9.96567 15.9652V14.3093H8.30973C7.58833 14.3093 6.9981 13.719 6.9981 12.9976C6.9981 12.2762 7.58833 11.686 8.30973 11.686H9.96567V10.0301C9.96567 9.30866 10.5559 8.71842 11.2773 8.71842C11.9987 8.71842 12.5889 9.30866 12.5889 10.0301V11.686H14.2449C14.9745 11.686 15.5565 12.268 15.5565 12.9976ZM32.0011 10.0219V10.3498C32.0011 11.0712 31.4109 11.6614 30.6895 11.6614C29.9681 11.6614 29.3779 11.0712 29.3779 10.3498V10.0219C29.3779 9.30046 29.9681 8.71023 30.6895 8.71023C31.4109 8.71023 32.0011 9.30046 32.0011 10.0219ZM32.0011 15.6455V15.9652C32.0011 16.6866 31.4109 17.2768 30.6895 17.2768C29.9681 17.2768 29.3779 16.6866 29.3779 15.9652V15.6455C29.3779 14.9241 29.9681 14.3339 30.6895 14.3339C31.4109 14.3339 32.0011 14.9159 32.0011 15.6455ZM34.9687 12.9976C34.9687 13.719 34.3785 14.3093 33.6571 14.3093H33.3292C32.6078 14.3093 32.0175 13.719 32.0175 12.9976C32.0175 12.2762 32.6078 11.686 33.3292 11.686H33.6571C34.3867 11.686 34.9687 12.268 34.9687 12.9976ZM29.3533 12.9976C29.3533 13.719 28.763 14.3093 28.0416 14.3093H27.7219C27.0005 14.3093 26.4103 13.719 26.4103 12.9976C26.4103 12.2762 27.0005 11.686 27.7219 11.686H28.0416C28.763 11.686 29.3533 12.268 29.3533 12.9976Z" fill="white"></path>
</svg>
