<?xml version="1.0" encoding="UTF-8"?>
<svg xmlns="http://www.w3.org/2000/svg" width="27" height="38" viewBox="0 0 27 38" fill="none">
  <path d="M21.149 10.1729C21.149 10.0684 21.2342 9.97929 21.3388 9.97929H26.2304C26.335 9.97929 26.4163 10.0722 26.4163 10.1768V31.9741C26.4163 34.8982 24.0615 37.2762 21.149 37.2762H5.33167C2.4153 37.2762 0.0566406 34.9059 0.0566406 31.9741H21.149V10.1729ZM5.33167 0.122498C2.4153 0.122498 0.0566406 2.50052 0.0566406 5.43239V27.2297C0.0566406 27.3342 0.14572 27.4233 0.250291 27.4233H5.13802C5.24259 27.4233 5.33167 27.3342 5.33167 27.2297V5.43239H26.4163C26.4163 2.50052 24.0615 0.122498 21.149 0.122498H5.33167Z" fill="#0CAA41"></path>
</svg>
