<svg width="149" height="38" viewBox="0 0 149 38" fill="none" xmlns="http://www.w3.org/2000/svg">
<g clip-path="url(#clip0_763_13288)">
<path d="M76.2813 23.0303C76.489 22.3913 77.393 22.3913 77.6007 23.0303L78.5682 26.0081C78.6611 26.2939 78.9274 26.4874 79.2279 26.4874H82.3589C83.0309 26.4874 83.3102 27.3472 82.7666 27.7422L80.2335 29.5826C79.9904 29.7592 79.8887 30.0723 79.9816 30.358L80.9491 33.3359C81.1568 33.9749 80.4254 34.5063 79.8818 34.1113L77.3487 32.2709C77.1056 32.0943 76.7764 32.0943 76.5333 32.2709L74.0002 34.1113C73.4566 34.5063 72.7252 33.9749 72.9329 33.3359L73.9004 30.358C73.9933 30.0723 73.8916 29.7592 73.6485 29.5826L71.1154 27.7422C70.5718 27.3472 70.8512 26.4874 71.5231 26.4874H74.6541C74.9546 26.4874 75.2209 26.2939 75.3138 26.0081L76.2813 23.0303Z" fill="#EF4335"/>
<path d="M91.3107 23.0303C91.5183 22.3913 92.4224 22.3913 92.63 23.0303L93.5975 26.0081C93.6904 26.2939 93.9567 26.4874 94.2572 26.4874H97.3883C98.0602 26.4874 98.3396 27.3472 97.796 27.7422L95.2629 29.5826C95.0198 29.7592 94.9181 30.0723 95.0109 30.358L95.9785 33.3359C96.1861 33.9749 95.4547 34.5063 94.9111 34.1113L92.378 32.2709C92.1349 32.0943 91.8057 32.0943 91.5626 32.2709L89.0296 34.1113C88.486 34.5063 87.7546 33.9749 87.9622 33.3359L88.9298 30.358C89.0226 30.0723 88.9209 29.7592 88.6778 29.5826L86.1447 27.7422C85.6011 27.3472 85.8805 26.4874 86.5524 26.4874H89.6835C89.984 26.4874 90.2503 26.2939 90.3431 26.0081L91.3107 23.0303Z" fill="#EF4335"/>
<path d="M106.34 23.0303C106.548 22.3913 107.452 22.3913 107.66 23.0303L108.627 26.0081C108.72 26.2939 108.986 26.4874 109.287 26.4874H112.418C113.09 26.4874 113.369 27.3472 112.826 27.7422L110.292 29.5826C110.049 29.7592 109.948 30.0723 110.04 30.358L111.008 33.3359C111.216 33.9749 110.484 34.5063 109.941 34.1113L107.408 32.2709C107.164 32.0943 106.835 32.0943 106.592 32.2709L104.059 34.1113C103.516 34.5063 102.784 33.9749 102.992 33.3359L103.959 30.358C104.052 30.0723 103.95 29.7592 103.707 29.5826L101.174 27.7422C100.631 27.3472 100.91 26.4874 101.582 26.4874H104.713C105.013 26.4874 105.28 26.2939 105.373 26.0081L106.34 23.0303Z" fill="#EF4335"/>
<path d="M121.37 23.0303C121.577 22.3913 122.481 22.3913 122.689 23.0303L123.656 26.0081C123.749 26.2939 124.016 26.4874 124.316 26.4874H127.447C128.119 26.4874 128.398 27.3472 127.855 27.7422L125.322 29.5826C125.079 29.7592 124.977 30.0723 125.07 30.358L126.037 33.3359C126.245 33.9749 125.514 34.5063 124.97 34.1113L122.437 32.2709C122.194 32.0943 121.865 32.0943 121.622 32.2709L119.088 34.1113C118.545 34.5063 117.813 33.9749 118.021 33.3359L118.989 30.358C119.081 30.0723 118.98 29.7592 118.737 29.5826L116.204 27.7422C115.66 27.3472 115.939 26.4874 116.611 26.4874H119.742C120.043 26.4874 120.309 26.2939 120.402 26.0081L121.37 23.0303Z" fill="#EF4335"/>
<path d="M136.399 23.0303C136.607 22.3913 137.511 22.3913 137.718 23.0303L138.686 26.0081C138.779 26.2939 139.045 26.4874 139.345 26.4874H142.476C143.148 26.4874 143.428 27.3472 142.884 27.7422L140.351 29.5826C140.108 29.7592 140.006 30.0723 140.099 30.358L141.067 33.3359C141.274 33.9749 140.543 34.5063 139.999 34.1113L137.466 32.2709C137.223 32.0943 136.894 32.0943 136.651 32.2709L134.118 34.1113C133.574 34.5063 132.843 33.9749 133.05 33.3359L134.018 30.358C134.111 30.0723 134.009 29.7592 133.766 29.5826L131.233 27.7422C130.689 27.3472 130.969 26.4874 131.641 26.4874H134.772C135.072 26.4874 135.338 26.2939 135.431 26.0081L136.399 23.0303Z" fill="#DDDDDD"/>
<path d="M136.399 23.0303C136.607 22.3913 137.511 22.3913 137.718 23.0303L138.686 26.0081C138.779 26.2939 139.045 26.4874 139.345 26.4874L140 26.5L140.496 29.4753L140.351 29.5826C140.108 29.7592 140.006 30.0723 140.099 30.358L141.067 33.3359C141.274 33.9749 140.543 34.5063 139.999 34.1113L137.466 32.2709C137.223 32.0943 136.894 32.0943 136.651 32.2709L134.118 34.1113C133.574 34.5063 132.843 33.9749 133.05 33.3359L134.018 30.358C134.111 30.0723 134.009 29.7592 133.766 29.5826L131.233 27.7422C130.689 27.3472 130.969 26.4874 131.641 26.4874H134.772C135.072 26.4874 135.338 26.2939 135.431 26.0081L136.399 23.0303Z" fill="#EF4335"/>
<path d="M53.5072 8.92286H57.5718V12.821C56.6562 13.5978 55.2551 14.0695 53.7431 14.0695C50.9131 14.0695 48.8184 12.1412 48.8184 9.08932C48.8184 6.17616 50.7328 4.05371 53.7015 4.05371C55.0332 4.05371 56.4065 4.5115 57.4608 5.6074L56.6007 6.34263C55.81 5.59353 54.839 5.20511 53.6876 5.20511C51.6206 5.20511 50.0808 6.73105 50.0808 9.08932C50.0808 11.3089 51.5374 12.9458 53.7431 12.9458C54.728 12.9458 55.6297 12.7239 56.3649 12.1967V10.0327H53.5072V8.92286Z" fill="#555770"/>
<path d="M62.7282 14.0831C60.6197 14.0831 59.2324 12.5711 59.2324 10.629C59.2324 8.68683 60.6197 7.16089 62.7282 7.16089C64.712 7.16089 66.1963 8.57585 66.1963 10.629C66.1963 12.682 64.712 14.0831 62.7282 14.0831ZM62.7282 13.0566C64.0322 13.0566 65.0588 12.0578 65.0588 10.629C65.0588 9.18623 64.0322 8.2013 62.7282 8.2013C61.3133 8.2013 60.37 9.28333 60.37 10.629C60.37 11.9746 61.3271 13.0566 62.7282 13.0566Z" fill="#555770"/>
<path d="M71.0056 14.0831C68.897 14.0831 67.5098 12.5711 67.5098 10.629C67.5098 8.68683 68.897 7.16089 71.0056 7.16089C72.9893 7.16089 74.4736 8.57585 74.4736 10.629C74.4736 12.682 72.9893 14.0831 71.0056 14.0831ZM71.0056 13.0566C72.3096 13.0566 73.3361 12.0578 73.3361 10.629C73.3361 9.18623 72.3096 8.2013 71.0056 8.2013C69.5906 8.2013 68.6473 9.28333 68.6473 10.629C68.6473 11.9746 69.6045 13.0566 71.0056 13.0566Z" fill="#555770"/>
<path d="M81.3354 7.24412H82.4452V13.4866C82.4452 15.4426 81.488 16.8298 79.1298 16.8298C78.1171 16.8298 77.1876 16.5801 76.3831 16.0946L76.6466 15.0542C77.4373 15.4981 78.1171 15.7617 79.0743 15.7617C80.6002 15.7617 81.3493 14.8738 81.3493 13.7779V12.8346H81.3216C80.7944 13.4866 80.0037 13.8751 79.0326 13.8751C77.2293 13.8751 75.7588 12.5433 75.7588 10.5318C75.7588 8.61747 77.146 7.16089 78.9772 7.16089C79.8788 7.16089 80.7251 7.52156 81.3077 8.18743H81.3354V7.24412ZM79.1159 12.8208C80.4754 12.8208 81.377 11.822 81.377 10.4764C81.377 9.11687 80.3921 8.21517 79.1159 8.21517C77.8258 8.21517 76.9102 9.18623 76.9102 10.4902C76.9102 11.9329 77.909 12.8208 79.1159 12.8208Z" fill="#555770"/>
<path d="M84.6045 14V3.79004H85.7281V14H84.6045Z" fill="#555770"/>
<path d="M93.9269 10.518C93.9269 10.6983 93.8992 10.9341 93.8992 10.9758H88.6971C88.8497 12.2381 89.7375 13.0566 90.9582 13.0566C91.8044 13.0566 92.4426 12.6682 92.8587 12.141L93.6494 12.8208C93.0668 13.5699 92.1512 14.0831 90.9166 14.0831C89.0023 14.0831 87.5596 12.682 87.5596 10.629C87.5596 8.58972 88.9606 7.16089 90.7918 7.16089C92.6784 7.16089 93.9269 8.57585 93.9269 10.518ZM90.8473 8.2013C89.793 8.2013 88.9468 8.89491 88.7387 10.0463H92.8171C92.6368 8.93653 91.9293 8.2013 90.8473 8.2013Z" fill="#555770"/>
<path d="M106.649 13.9999H105.193L102.696 10.2405H100.837V13.9999H99.6299V4.15063H103.126C105.401 4.15063 106.386 5.45462 106.386 7.20251C106.386 8.88105 105.47 9.82436 104.041 10.1296V10.1434L106.649 13.9999ZM100.837 5.2604V9.13075H102.807C104.444 9.13075 105.137 8.29842 105.137 7.17477C105.137 5.92627 104.319 5.2604 102.973 5.2604H100.837Z" fill="#555770"/>
<path d="M114.261 10.518C114.261 10.6983 114.233 10.9341 114.233 10.9758H109.031C109.183 12.2381 110.071 13.0566 111.292 13.0566C112.138 13.0566 112.776 12.6682 113.192 12.141L113.983 12.8208C113.4 13.5699 112.485 14.0831 111.25 14.0831C109.336 14.0831 107.893 12.682 107.893 10.629C107.893 8.58972 109.294 7.16089 111.125 7.16089C113.012 7.16089 114.261 8.57585 114.261 10.518ZM111.181 8.2013C110.127 8.2013 109.28 8.89491 109.072 10.0463H113.151C112.97 8.93653 112.263 8.2013 111.181 8.2013Z" fill="#555770"/>
<path d="M120.299 7.24414H121.519L118.773 13.9999H117.691L114.93 7.24414H116.137L118.218 12.5711H118.26L120.299 7.24414Z" fill="#555770"/>
<path d="M123.593 5.99574C123.135 5.99574 122.788 5.64894 122.788 5.20503C122.788 4.77499 123.135 4.41431 123.593 4.41431C124.036 4.41431 124.397 4.77499 124.397 5.20503C124.397 5.64894 124.036 5.99574 123.593 5.99574ZM123.024 14V7.24424H124.147V14H123.024Z" fill="#555770"/>
<path d="M132.346 10.518C132.346 10.6983 132.318 10.9341 132.318 10.9758H127.116C127.269 12.2381 128.156 13.0566 129.377 13.0566C130.223 13.0566 130.862 12.6682 131.278 12.141L132.068 12.8208C131.486 13.5699 130.57 14.0831 129.336 14.0831C127.421 14.0831 125.979 12.682 125.979 10.629C125.979 8.58972 127.38 7.16089 129.211 7.16089C131.097 7.16089 132.346 8.57585 132.346 10.518ZM129.266 8.2013C128.212 8.2013 127.366 8.89491 127.158 10.0463H131.236C131.056 8.93653 130.348 8.2013 129.266 8.2013Z" fill="#555770"/>
<path d="M141.77 7.24414H142.907L140.563 13.9999H139.508L137.982 9.07527H137.969L136.429 13.9999H135.402L133.058 7.24414H134.195L135.915 12.2936H135.943L137.483 7.24414H138.454L140.022 12.2936H140.049L141.77 7.24414Z" fill="#555770"/>
<path d="M146.344 14.0831C145.234 14.0831 144.36 13.7086 143.694 13.1121L144.277 12.2659C144.804 12.7514 145.387 13.0705 146.344 13.0705C147.148 13.0705 147.62 12.6543 147.62 12.1688C147.62 11.5861 146.996 11.3919 146.011 11.059C144.915 10.6706 143.986 10.2128 143.986 8.97814C143.986 7.93773 144.929 7.16089 146.219 7.16089C147.024 7.16089 147.787 7.38284 148.536 7.99322L147.953 8.88104C147.356 8.36777 146.732 8.18743 146.163 8.18743C145.65 8.18743 145.123 8.49262 145.123 8.97814C145.123 9.50529 145.678 9.75499 146.399 10.0325C147.828 10.5873 148.771 10.8232 148.758 12.1549C148.758 13.2092 147.967 14.0831 146.344 14.0831Z" fill="#555770"/>
<path d="M8.42137 22.9637L7.09868 27.9015L2.26428 28.0037C0.819501 25.324 0 22.258 0 18.9999C0 15.8493 0.766213 12.8783 2.12438 10.2622H2.12542L6.42939 11.0513L8.31479 15.3295C7.92018 16.4799 7.7051 17.7149 7.7051 18.9999C7.70525 20.3946 7.95789 21.7309 8.42137 22.9637Z" fill="#FBBB00"/>
<path d="M37.6678 15.4514C37.886 16.6007 37.9998 17.7876 37.9998 19.0007C37.9998 20.361 37.8568 21.6878 37.5844 22.9677C36.6595 27.3229 34.2427 31.1259 30.8949 33.8172L30.8939 33.8161L25.4728 33.5395L24.7055 28.75C26.927 27.4472 28.6631 25.4084 29.5776 22.9677H19.418V15.4514H37.6678Z" fill="#518EF8"/>
<path d="M30.894 33.8171L30.8953 33.8172C27.6393 36.4344 23.5032 38.0003 19.0008 38.0003C11.7653 38.0003 5.47467 33.9561 2.26562 28.0047L8.42272 22.9646C10.0272 27.2468 14.158 30.2951 19.0008 30.2951C21.0823 30.2951 23.0324 29.7324 24.7058 28.75L30.894 33.8171Z" fill="#28B446"/>
<path d="M31.1271 4.37452L24.9721 9.41354C23.2403 8.33102 21.1931 7.70567 18.9998 7.70567C14.0474 7.70567 9.83849 10.8939 8.31437 15.3296L2.125 10.2623C5.28707 4.16581 11.6568 0.000488281 18.9998 0.000488281C23.6098 0.000488281 27.8366 1.64261 31.1271 4.37452Z" fill="#F14336"/>
<path d="M52.4297 33V31.4277H48.3555V30.2178L52.7646 23.3887H54.2959V29.8008H55.5947V31.4277H54.2959V33H52.4297ZM50.4199 29.8965H52.5596V26.4443L50.4199 29.8965Z" fill="#EF4335"/>
<path d="M57.8096 33.1162C57.4883 33.1162 57.2148 33.0137 56.9961 32.7949C56.7773 32.5762 56.668 32.3164 56.668 32.002C56.668 31.6943 56.7773 31.4277 56.9961 31.209C57.2148 30.9902 57.4883 30.8809 57.8096 30.8809C58.1172 30.8809 58.3838 30.9971 58.6025 31.2158C58.8213 31.4346 58.9375 31.7012 58.9375 32.002C58.9375 32.3096 58.8213 32.5693 58.6025 32.7881C58.3838 33.0068 58.1172 33.1162 57.8096 33.1162Z" fill="#EF4335"/>
<path d="M65.5068 27.8047C66.0127 27.9961 66.4229 28.3037 66.7373 28.7412C67.0518 29.1787 67.209 29.7119 67.209 30.3408C67.209 30.9014 67.0518 31.3936 66.7373 31.8174C66.4229 32.2412 66.0059 32.5693 65.4795 32.7881C64.9463 33.0068 64.3584 33.1162 63.709 33.1162C63.0459 33.1162 62.4512 33.0068 61.9248 32.7744C61.3984 32.5488 60.9883 32.2207 60.6875 31.7969C60.3867 31.373 60.2363 30.8877 60.2363 30.3408C60.2363 29.7119 60.3867 29.1787 60.7012 28.7412C61.0156 28.3037 61.4189 27.9961 61.9248 27.8047V27.7842C61.6035 27.6475 61.3232 27.3945 61.084 27.0254C60.8447 26.6562 60.7285 26.2393 60.7285 25.7812C60.7285 25.2549 60.8584 24.7969 61.125 24.4141C61.3916 24.0312 61.7471 23.7441 62.1914 23.5527C62.6357 23.3682 63.1416 23.2725 63.709 23.2725C64.2832 23.2725 64.7959 23.375 65.2471 23.5664C65.6982 23.7646 66.0537 24.0518 66.3135 24.4346C66.5732 24.8174 66.7031 25.2686 66.7031 25.7812C66.7031 26.2393 66.5801 26.6494 66.3477 27.0186C66.1084 27.3877 65.8281 27.6475 65.5068 27.7842V27.8047ZM63.709 24.8447C63.4766 24.8447 63.2646 24.8994 63.0732 24.9951C62.8818 25.0977 62.7383 25.2344 62.6357 25.3984C62.5332 25.5693 62.4854 25.7539 62.4854 25.9521C62.4854 26.1641 62.5332 26.3555 62.6426 26.5195C62.7451 26.6836 62.8887 26.8135 63.0732 26.9023C63.2578 26.998 63.4697 27.0391 63.709 27.0391C64.0713 27.0391 64.3652 26.9434 64.5977 26.7383C64.8232 26.5332 64.9395 26.2734 64.9395 25.9521C64.9395 25.6377 64.8164 25.3711 64.584 25.1592C64.3516 24.9541 64.0576 24.8447 63.709 24.8447ZM63.709 31.4893C64.1602 31.4893 64.5293 31.3525 64.8232 31.0791C65.1104 30.8057 65.2607 30.4775 65.2607 30.0947C65.2607 29.8281 65.1924 29.5889 65.0625 29.3701C64.9326 29.1582 64.748 28.9941 64.5156 28.8711C64.2832 28.748 64.0098 28.6865 63.709 28.6865C63.251 28.6865 62.875 28.8232 62.5879 29.083C62.3008 29.3496 62.1572 29.6846 62.1572 30.0947C62.1572 30.4912 62.3008 30.8262 62.6016 31.0928C62.9023 31.3594 63.2715 31.4893 63.709 31.4893Z" fill="#EF4335"/>
</g>
<defs>
<clipPath id="clip0_763_13288">
<rect width="149" height="38" fill="white"/>
</clipPath>
</defs>
</svg>
