<?xml version="1.0" encoding="UTF-8"?>
<svg xmlns="http://www.w3.org/2000/svg" width="30" height="34" viewBox="0 0 30 34" fill="none">
  <path fill-rule="evenodd" clip-rule="evenodd" d="M0 0.134277L2.65759 29.9432L14.5837 33.2539L26.5427 29.9385L29.2031 0.134277H0ZM14.959 13.7986L10.1343 13.7986L9.80017 10.0549H14.959H14.972H23.7897L23.8631 9.23315L24.0297 7.37976L24.1171 6.39893H14.972H14.959H5.80469L5.8922 7.37976L6.79076 17.4545H14.959H14.972H19.4608L19.0364 22.196L14.959 23.2966V23.297L14.9561 23.2978L10.8844 22.1983L10.6241 19.2826H6.95411L7.46631 25.0229L14.9552 27.1019L14.972 27.0972V27.0965L22.4538 25.0229L22.5088 24.4053L23.3679 14.7804L23.4571 13.7986H22.4719L14.972 13.7986L14.959 13.7986Z" fill="white"></path>
  <path fill-rule="evenodd" clip-rule="evenodd" d="M24.265 28.0404L14.6016 30.7194V27.0037L14.9551 27.1019L14.9719 27.0972V27.0965L22.4536 25.0229L22.5086 24.4052L23.3677 14.7803L23.4569 13.7986H22.4718L14.9719 13.7986L14.9588 13.7986H14.6016V10.0549H14.9588H14.9719H23.7896L23.8629 9.23314L24.0295 7.37975L24.1169 6.39891H14.9719H14.9588H14.6016V2.57129H26.5386L24.265 28.0404ZM14.6016 17.4545H14.9588L14.9719 17.4545L19.4606 17.4545L19.0363 22.196L14.9588 23.2966V23.297L14.956 23.2978L14.6016 23.2021V17.4545Z" fill="#F2F2F2"></path>
</svg>
