<?xml version="1.0" encoding="UTF-8"?>
<svg xmlns="http://www.w3.org/2000/svg" width="44" height="44" viewBox="0 0 44 44" fill="none">
  <path fill-rule="evenodd" clip-rule="evenodd" d="M16.1832 8.59158C16.1832 12.7776 12.7776 16.1832 8.59158 16.1832C4.40561 16.1832 1 12.7776 1 8.59158C1 4.40561 4.40561 1 8.59158 1C12.7776 1 16.1832 4.40561 16.1832 8.59158ZM14.5425 8.59158C14.5425 5.31025 11.8729 2.64063 8.59158 2.64063C5.31025 2.64063 2.64063 5.31025 2.64063 8.59158C2.64063 11.8729 5.31025 14.5425 8.59158 14.5425C11.8729 14.5425 14.5425 11.8729 14.5425 8.59158ZM9.82386 10.634C9.61435 10.634 9.40484 10.5543 9.24472 10.3947L8.01852 9.17261C7.86421 9.01872 7.77734 8.80962 7.77734 8.59158V4.60938C7.77734 4.1564 8.14468 3.78906 8.59766 3.78906C9.05063 3.78906 9.41797 4.1564 9.41797 4.60938V8.25091L10.403 9.23266C10.7238 9.5525 10.7246 10.0719 10.4049 10.3928C10.2447 10.5536 10.0342 10.634 9.82386 10.634ZM42.1797 28.2346H37.1309C36.4369 27.2474 35.3941 26.5482 34.2048 26.2881L30.5984 25.4996C32.0742 24.5042 33.0467 22.817 33.0467 20.9068V18.9038V17.9771V17.7686C33.0467 14.7161 30.5633 12.2326 27.5108 12.2326C24.4582 12.2326 21.9748 14.7161 21.9748 17.7686V17.9771V18.9038V20.9068C21.9748 22.8145 22.9448 24.5 24.4175 25.4959L20.8134 26.2866C20.6594 26.3204 20.5081 26.3618 20.3594 26.4098V19.6213C20.3594 19.1683 19.992 18.801 19.5391 18.801H13.9609C13.508 18.801 13.1406 19.1683 13.1406 19.6213C13.1406 20.0743 13.508 20.4416 13.9609 20.4416H18.7188V31.926H13.1406V27.8244C13.1406 26.4674 12.0366 25.3635 10.6797 25.3635C9.32273 25.3635 8.21875 26.4674 8.21875 27.8244V31.926H2.64062V20.4416H7.39844C7.85141 20.4416 8.21875 20.0743 8.21875 19.6213C8.21875 19.1683 7.85141 18.801 7.39844 18.801H1.82031C1.36734 18.801 1 19.1683 1 19.6213V32.7463C1 33.1993 1.36734 33.5666 1.82031 33.5666H8.21875V35.1252H8.13672C6.73448 35.1252 5.59375 36.2659 5.59375 37.6681V38.0783H1.82031C1.36734 38.0783 1 38.4456 1 38.8986V42.1799C1 42.6328 1.36734 43.0002 1.82031 43.0002H42.1797C42.6327 43.0002 43 42.6328 43 42.1799V38.8986V35.6174V32.3361V29.0549C43 28.6019 42.6327 28.2346 42.1797 28.2346ZM37.1905 38.0783H32.5V36.4377H41.3594V38.0783H37.1905ZM41.3594 34.7971H32.5V33.1564H41.3594V34.7971ZM41.3594 31.5158H32.5V29.8752H36.6733L36.677 29.8754L36.6806 29.8757L36.6844 29.8754L36.6883 29.8752H41.3594V31.5158ZM23.6154 17.7687C23.6154 15.6208 25.3629 13.8733 27.5107 13.8733C29.556 13.8733 31.2381 15.4577 31.3942 17.4636L29.4873 16.3433C29.1419 16.1403 28.7004 16.2167 28.4431 16.5237C27.6124 17.515 26.3942 18.0837 25.1008 18.0837H23.6154V17.9773V17.7687H23.6154ZM23.6154 19.7242H25.1008C26.645 19.7242 28.1113 19.1353 29.2192 18.0885L31.4061 19.3734V20.9069C31.4061 23.0548 29.6586 24.8022 27.5108 24.8022C25.363 24.8022 23.6154 23.0547 23.6154 20.9069V19.7242ZM28.7958 26.2907L27.4985 29.7601L26.1988 26.2844C26.6196 26.3871 27.0587 26.4428 27.5107 26.4428C27.9532 26.4428 28.3831 26.3892 28.7958 26.2907ZM19.5391 33.5666C19.992 33.5666 20.3594 33.1993 20.3594 32.7463V28.1835C20.6124 28.0501 20.8822 27.9511 21.1649 27.8891L24.753 27.102L26.7302 32.3894C26.85 32.7099 27.1562 32.9224 27.4985 32.9224C27.8407 32.9224 28.1469 32.7099 28.2668 32.3894L30.2441 27.1015L33.8543 27.8909C34.1712 27.9602 34.4719 28.0775 34.7486 28.2345H31.6797C31.2267 28.2345 30.8594 28.6018 30.8594 29.0548V32.336V35.6173V38.0782H18.6514V33.5665H19.5391V33.5666ZM17.0108 33.5666V38.0783H15.7656V37.6681C15.7656 36.2659 14.6249 35.1252 13.2227 35.1252H13.1406V33.5666H17.0108ZM9.85938 27.8244C9.85938 27.3721 10.2274 27.0041 10.6797 27.0041C11.132 27.0041 11.5 27.3721 11.5 27.8244V35.1252H9.85938V27.8244ZM7.23438 37.6681C7.23438 37.1706 7.6392 36.7658 8.13672 36.7658H9.03906H12.3203H13.2227C13.7202 36.7658 14.125 37.1706 14.125 37.6681V38.0783H7.23438V37.6681ZM41.3594 41.3596H2.64062V39.7189H41.3594V41.3596ZM9.85938 19.6211C9.85938 19.4054 9.94715 19.1937 10.0997 19.0411C10.2523 18.8885 10.4639 18.8008 10.6797 18.8008C10.8954 18.8008 11.1071 18.8886 11.2596 19.0411C11.4122 19.1937 11.5 19.4054 11.5 19.6211C11.5 19.8368 11.4122 20.0485 11.2596 20.201C11.1071 20.3536 10.8954 20.4414 10.6797 20.4414C10.4639 20.4414 10.2523 20.3535 10.0997 20.201C9.94707 20.0485 9.85938 19.8368 9.85938 19.6211Z" fill="white"></path>
  <path d="M9.24472 10.3947L9.13883 10.501L9.13884 10.501L9.24472 10.3947ZM8.01852 9.17261L7.91259 9.27882L7.91263 9.27885L8.01852 9.17261ZM9.41797 8.25091H9.26797V8.31319L9.31208 8.35715L9.41797 8.25091ZM10.403 9.23266L10.5089 9.12643L10.5089 9.12641L10.403 9.23266ZM10.4049 10.3928L10.5111 10.4987H10.5111L10.4049 10.3928ZM37.1309 28.2346L37.0082 28.3208L37.053 28.3846H37.1309V28.2346ZM34.2048 26.2881L34.1727 26.4347L34.2048 26.2881ZM30.5984 25.4996L30.5145 25.3752L30.2238 25.5712L30.5663 25.6461L30.5984 25.4996ZM24.4175 25.4959L24.4497 25.6424L24.7912 25.5675L24.5016 25.3716L24.4175 25.4959ZM20.8134 26.2866L20.7813 26.14L20.7813 26.14L20.8134 26.2866ZM20.3594 26.4098H20.2094V26.6158L20.4054 26.5525L20.3594 26.4098ZM18.7188 20.4416H18.8687V20.2916H18.7188V20.4416ZM18.7188 31.926V32.076H18.8687V31.926H18.7188ZM13.1406 31.926H12.9906V32.076H13.1406V31.926ZM8.21875 31.926V32.076H8.36875V31.926H8.21875ZM2.64062 31.926H2.49063V32.076H2.64062V31.926ZM2.64062 20.4416V20.2916H2.49063V20.4416H2.64062ZM8.21875 33.5666H8.36875V33.4166H8.21875V33.5666ZM8.21875 35.1252V35.2752H8.36875V35.1252H8.21875ZM5.59375 38.0783V38.2283H5.74375V38.0783H5.59375ZM32.5 38.0783H32.35V38.2283H32.5V38.0783ZM32.5 36.4377V36.2877H32.35V36.4377H32.5ZM41.3594 36.4377H41.5094V36.2877H41.3594V36.4377ZM41.3594 38.0783V38.2283H41.5094V38.0783H41.3594ZM32.5 34.7971H32.35V34.9471H32.5V34.7971ZM41.3594 34.7971V34.9471H41.5094V34.7971H41.3594ZM32.5 33.1564V33.0064H32.35V33.1564H32.5ZM41.3594 33.1564H41.5094V33.0064H41.3594V33.1564ZM32.5 31.5158H32.35V31.6658H32.5V31.5158ZM41.3594 31.5158V31.6658H41.5094V31.5158H41.3594ZM32.5 29.8752V29.7252H32.35V29.8752H32.5ZM36.6733 29.8752L36.6833 29.7252H36.6733V29.8752ZM36.677 29.8754L36.6871 29.7258L36.687 29.7258L36.677 29.8754ZM36.6806 29.8757L36.6705 30.0253L36.6803 30.026L36.6901 30.0254L36.6806 29.8757ZM36.6844 29.8754L36.6939 30.0251L36.694 30.0251L36.6844 29.8754ZM36.6883 29.8752V29.7249L36.6787 29.7255L36.6883 29.8752ZM41.3594 29.8752H41.5094V29.7252H41.3594V29.8752ZM23.6154 17.7687H23.4654V17.9187H23.6154V17.7687ZM31.3942 17.4636L31.3182 17.5929L31.5661 17.7385L31.5438 17.452L31.3942 17.4636ZM29.4873 16.3433L29.4113 16.4726L29.4113 16.4726L29.4873 16.3433ZM28.4431 16.5237L28.3281 16.4273L28.3281 16.4274L28.4431 16.5237ZM23.6154 18.0837H23.4654V18.2337H23.6154V18.0837ZM23.6154 17.7687H23.7654V17.6187H23.6154V17.7687ZM23.6154 19.7242V19.5742H23.4654V19.7242H23.6154ZM29.2192 18.0885L29.2951 17.9592L29.198 17.9021L29.1161 17.9795L29.2192 18.0885ZM31.4061 19.3734H31.5561V19.2875L31.4821 19.244L31.4061 19.3734ZM27.4985 29.7601L27.358 29.8126L27.4985 30.1884L27.639 29.8126L27.4985 29.7601ZM28.7958 26.2907L28.9363 26.3432L29.035 26.0794L28.761 26.1448L28.7958 26.2907ZM26.1988 26.2844L26.2343 26.1387L25.959 26.0715L26.0583 26.337L26.1988 26.2844ZM19.5391 33.5666H19.3891V33.7166H19.5391V33.5666ZM20.3594 28.1835L20.2894 28.0508L20.2094 28.093V28.1835H20.3594ZM21.1649 27.8891L21.1971 28.0356H21.1971L21.1649 27.8891ZM24.753 27.102L24.8935 27.0494L24.8479 26.9276L24.7208 26.9554L24.753 27.102ZM26.7302 32.3894L26.5897 32.442H26.5897L26.7302 32.3894ZM28.2668 32.3894L28.1263 32.3368L28.1263 32.3368L28.2668 32.3894ZM30.2441 27.1015L30.2761 26.955L30.1491 26.9272L30.1036 27.049L30.2441 27.1015ZM33.8543 27.8909L33.8223 28.0375L33.8223 28.0375L33.8543 27.8909ZM34.7486 28.2345V28.3845H35.3169L34.8227 28.104L34.7486 28.2345ZM30.8594 38.0782V38.2282H31.0094V38.0782H30.8594ZM18.6514 38.0782H18.5014V38.2282H18.6514V38.0782ZM18.6514 33.5665V33.4165H18.5014V33.5665H18.6514ZM19.5391 33.5665H19.6891V33.4165H19.5391V33.5665ZM17.0108 38.0783V38.2283H17.1608V38.0783H17.0108ZM17.0108 33.5666H17.1608V33.4166H17.0108V33.5666ZM15.7656 38.0783H15.6156V38.2283H15.7656V38.0783ZM13.1406 35.1252H12.9906V35.2752H13.1406V35.1252ZM13.1406 33.5666V33.4166H12.9906V33.5666H13.1406ZM11.5 35.1252V35.2752H11.65V35.1252H11.5ZM9.85938 35.1252H9.70938V35.2752H9.85938V35.1252ZM14.125 38.0783V38.2283H14.275V38.0783H14.125ZM7.23438 38.0783H7.08437V38.2283H7.23438V38.0783ZM2.64062 41.3596H2.49063V41.5096H2.64062V41.3596ZM41.3594 41.3596V41.5096H41.5094V41.3596H41.3594ZM2.64062 39.7189V39.5689H2.49063V39.7189H2.64062ZM41.3594 39.7189H41.5094V39.5689H41.3594V39.7189ZM10.0997 19.0411L10.2058 19.1472L10.2058 19.1472L10.0997 19.0411ZM11.2596 19.0411L11.1535 19.1472L11.1535 19.1472L11.2596 19.0411ZM11.2596 20.201L11.1536 20.0949L11.1534 20.095L11.2596 20.201ZM10.0997 20.201L10.2058 20.0949L10.2057 20.0949L10.0997 20.201ZM8.59158 16.3332C12.8604 16.3332 16.3332 12.8604 16.3332 8.59158H16.0332C16.0332 12.6947 12.6947 16.0332 8.59158 16.0332V16.3332ZM0.85 8.59158C0.85 12.8604 4.32277 16.3332 8.59158 16.3332V16.0332C4.48845 16.0332 1.15 12.6947 1.15 8.59158H0.85ZM8.59158 0.85C4.32277 0.85 0.85 4.32277 0.85 8.59158H1.15C1.15 4.48845 4.48845 1.15 8.59158 1.15V0.85ZM16.3332 8.59158C16.3332 4.32277 12.8604 0.85 8.59158 0.85V1.15C12.6947 1.15 16.0332 4.48845 16.0332 8.59158H16.3332ZM8.59158 2.79063C11.7901 2.79063 14.3925 5.39309 14.3925 8.59158H14.6925C14.6925 5.22741 11.9558 2.49063 8.59158 2.49063V2.79063ZM2.79063 8.59158C2.79063 5.39309 5.39309 2.79063 8.59158 2.79063V2.49063C5.22741 2.49063 2.49063 5.22741 2.49063 8.59158H2.79063ZM8.59158 14.3925C5.39309 14.3925 2.79063 11.7901 2.79063 8.59158H2.49063C2.49063 11.9558 5.22741 14.6925 8.59158 14.6925V14.3925ZM14.3925 8.59158C14.3925 11.7901 11.7901 14.3925 8.59158 14.3925V14.6925C11.9558 14.6925 14.6925 11.9558 14.6925 8.59158H14.3925ZM9.13884 10.501C9.32821 10.6897 9.57628 10.784 9.82386 10.784V10.484C9.65242 10.484 9.48148 10.4189 9.35059 10.2885L9.13884 10.501ZM7.91263 9.27885L9.13883 10.501L9.35061 10.2885L8.1244 9.06637L7.91263 9.27885ZM7.62734 8.59158C7.62734 8.84951 7.7301 9.09681 7.91259 9.27882L8.12444 9.0664C7.99833 8.94063 7.92734 8.76974 7.92734 8.59158H7.62734ZM7.62734 4.60938V8.59158H7.92734V4.60938H7.62734ZM8.59766 3.63906C8.06184 3.63906 7.62734 4.07356 7.62734 4.60938H7.92734C7.92734 4.23924 8.22752 3.93906 8.59766 3.93906V3.63906ZM9.56797 4.60938C9.56797 4.07356 9.13348 3.63906 8.59766 3.63906V3.93906C8.96779 3.93906 9.26797 4.23924 9.26797 4.60938H9.56797ZM9.56797 8.25091V4.60938H9.26797V8.25091H9.56797ZM10.5089 9.12641L9.52386 8.14466L9.31208 8.35715L10.2971 9.3389L10.5089 9.12641ZM10.5111 10.4987C10.8894 10.1191 10.8884 9.50476 10.5089 9.12643L10.2971 9.33889C10.5593 9.60024 10.5599 10.0247 10.2986 10.2869L10.5111 10.4987ZM9.82386 10.784C10.0724 10.784 10.3216 10.6889 10.5111 10.4987L10.2986 10.2869C10.1677 10.4183 9.996 10.484 9.82386 10.484V10.784ZM37.1309 28.3846H42.1797V28.0846H37.1309V28.3846ZM34.1727 26.4347C35.3251 26.6866 36.3357 27.3642 37.0082 28.3208L37.2536 28.1483C36.5382 27.1306 35.4632 26.4097 34.2368 26.1416L34.1727 26.4347ZM30.5663 25.6461L34.1727 26.4347L34.2368 26.1416L30.6304 25.353L30.5663 25.6461ZM32.8967 20.9068C32.8967 22.7648 31.9509 24.4064 30.5145 25.3752L30.6822 25.6239C32.1975 24.602 33.1967 22.8691 33.1967 20.9068H32.8967ZM32.8967 18.9038V20.9068H33.1967V18.9038H32.8967ZM32.8967 17.9771V18.9038H33.1967V17.9771H32.8967ZM32.8967 17.7686V17.9771H33.1967V17.7686H32.8967ZM27.5108 12.3826C30.4805 12.3826 32.8967 14.7989 32.8967 17.7686H33.1967C33.1967 14.6332 30.6462 12.0826 27.5108 12.0826V12.3826ZM22.1248 17.7686C22.1248 14.7989 24.5411 12.3826 27.5108 12.3826V12.0826C24.3754 12.0826 21.8248 14.6332 21.8248 17.7686H22.1248ZM22.1248 17.9771V17.7686H21.8248V17.9771H22.1248ZM22.1248 18.9038V17.9771H21.8248V18.9038H22.1248ZM22.1248 20.9068V18.9038H21.8248V20.9068H22.1248ZM24.5016 25.3716C23.0682 24.4024 22.1248 22.7625 22.1248 20.9068H21.8248C21.8248 22.8666 22.8215 24.5976 24.3335 25.6201L24.5016 25.3716ZM20.8456 26.4331L24.4497 25.6424L24.3854 25.3493L20.7813 26.14L20.8456 26.4331ZM20.4054 26.5525C20.5499 26.5059 20.6966 26.4658 20.8456 26.4331L20.7813 26.14C20.6223 26.1749 20.4663 26.2176 20.3133 26.267L20.4054 26.5525ZM20.2094 19.6213V26.4098H20.5094V19.6213H20.2094ZM19.5391 18.951C19.9092 18.951 20.2094 19.2511 20.2094 19.6213H20.5094C20.5094 19.0855 20.0749 18.651 19.5391 18.651V18.951ZM13.9609 18.951H19.5391V18.651H13.9609V18.951ZM13.2906 19.6213C13.2906 19.2511 13.5908 18.951 13.9609 18.951V18.651C13.4251 18.651 12.9906 19.0855 12.9906 19.6213H13.2906ZM13.9609 20.2916C13.5908 20.2916 13.2906 19.9914 13.2906 19.6213H12.9906C12.9906 20.1571 13.4251 20.5916 13.9609 20.5916V20.2916ZM18.7188 20.2916H13.9609V20.5916H18.7188V20.2916ZM18.8687 31.926V20.4416H18.5688V31.926H18.8687ZM13.1406 32.076H18.7188V31.776H13.1406V32.076ZM12.9906 27.8244V31.926H13.2906V27.8244H12.9906ZM10.6797 25.5135C11.9538 25.5135 12.9906 26.5503 12.9906 27.8244H13.2906C13.2906 26.3846 12.1195 25.2135 10.6797 25.2135V25.5135ZM8.36875 27.8244C8.36875 26.5503 9.40557 25.5135 10.6797 25.5135V25.2135C9.23988 25.2135 8.06875 26.3846 8.06875 27.8244H8.36875ZM8.36875 31.926V27.8244H8.06875V31.926H8.36875ZM2.64062 32.076H8.21875V31.776H2.64062V32.076ZM2.49063 20.4416V31.926H2.79062V20.4416H2.49063ZM7.39844 20.2916H2.64062V20.5916H7.39844V20.2916ZM8.06875 19.6213C8.06875 19.9914 7.76857 20.2916 7.39844 20.2916V20.5916C7.93426 20.5916 8.36875 20.1571 8.36875 19.6213H8.06875ZM7.39844 18.951C7.76857 18.951 8.06875 19.2511 8.06875 19.6213H8.36875C8.36875 19.0855 7.93426 18.651 7.39844 18.651V18.951ZM1.82031 18.951H7.39844V18.651H1.82031V18.951ZM1.15 19.6213C1.15 19.2511 1.45018 18.951 1.82031 18.951V18.651C1.28449 18.651 0.85 19.0855 0.85 19.6213H1.15ZM1.15 32.7463V19.6213H0.85V32.7463H1.15ZM1.82031 33.4166C1.45018 33.4166 1.15 33.1164 1.15 32.7463H0.85C0.85 33.2821 1.28449 33.7166 1.82031 33.7166V33.4166ZM8.21875 33.4166H1.82031V33.7166H8.21875V33.4166ZM8.36875 35.1252V33.5666H8.06875V35.1252H8.36875ZM8.13672 35.2752H8.21875V34.9752H8.13672V35.2752ZM5.74375 37.6681C5.74375 36.3488 6.81732 35.2752 8.13672 35.2752V34.9752C6.65163 34.9752 5.44375 36.1831 5.44375 37.6681H5.74375ZM5.74375 38.0783V37.6681H5.44375V38.0783H5.74375ZM1.82031 38.2283H5.59375V37.9283H1.82031V38.2283ZM1.15 38.8986C1.15 38.5285 1.45018 38.2283 1.82031 38.2283V37.9283C1.28449 37.9283 0.85 38.3628 0.85 38.8986H1.15ZM1.15 42.1799V38.8986H0.85V42.1799H1.15ZM1.82031 42.8502C1.45018 42.8502 1.15 42.55 1.15 42.1799H0.85C0.85 42.7157 1.28449 43.1502 1.82031 43.1502V42.8502ZM42.1797 42.8502H1.82031V43.1502H42.1797V42.8502ZM42.85 42.1799C42.85 42.55 42.5498 42.8502 42.1797 42.8502V43.1502C42.7155 43.1502 43.15 42.7157 43.15 42.1799H42.85ZM42.85 38.8986V42.1799H43.15V38.8986H42.85ZM42.85 35.6174V38.8986H43.15V35.6174H42.85ZM42.85 32.3361V35.6174H43.15V32.3361H42.85ZM42.85 29.0549V32.3361H43.15V29.0549H42.85ZM42.1797 28.3846C42.5498 28.3846 42.85 28.6847 42.85 29.0549H43.15C43.15 28.5191 42.7155 28.0846 42.1797 28.0846V28.3846ZM32.5 38.2283H37.1905V37.9283H32.5V38.2283ZM32.35 36.4377V38.0783H32.65V36.4377H32.35ZM41.3594 36.2877H32.5V36.5877H41.3594V36.2877ZM41.5094 38.0783V36.4377H41.2094V38.0783H41.5094ZM37.1905 38.2283H41.3594V37.9283H37.1905V38.2283ZM32.5 34.9471H41.3594V34.6471H32.5V34.9471ZM32.35 33.1564V34.7971H32.65V33.1564H32.35ZM41.3594 33.0064H32.5V33.3064H41.3594V33.0064ZM41.5094 34.7971V33.1564H41.2094V34.7971H41.5094ZM32.5 31.6658H41.3594V31.3658H32.5V31.6658ZM32.35 29.8752V31.5158H32.65V29.8752H32.35ZM36.6733 29.7252H32.5V30.0252H36.6733V29.7252ZM36.687 29.7258L36.6833 29.7255L36.6632 30.0248L36.6669 30.0251L36.687 29.7258ZM36.6907 29.726L36.6871 29.7258L36.6669 30.0251L36.6705 30.0253L36.6907 29.726ZM36.6749 29.7257L36.6711 29.726L36.6901 30.0254L36.6939 30.0251L36.6749 29.7257ZM36.6787 29.7255L36.6748 29.7257L36.694 30.0251L36.6979 30.0249L36.6787 29.7255ZM41.3594 29.7252H36.6883V30.0252H41.3594V29.7252ZM41.5094 31.5158V29.8752H41.2094V31.5158H41.5094ZM27.5107 13.7233C25.28 13.7233 23.4654 15.5379 23.4654 17.7687H23.7654C23.7654 15.7036 25.4457 14.0233 27.5107 14.0233V13.7233ZM31.5438 17.452C31.3816 15.3686 29.635 13.7233 27.5107 13.7233V14.0233C29.477 14.0233 31.0946 15.5468 31.2447 17.4752L31.5438 17.452ZM29.4113 16.4726L31.3182 17.5929L31.4702 17.3343L29.5633 16.214L29.4113 16.4726ZM28.558 16.62C28.7683 16.3691 29.1291 16.3067 29.4113 16.4726L29.5633 16.214C29.1547 15.9738 28.6325 16.0642 28.3281 16.4273L28.558 16.62ZM25.1008 18.2337C26.4385 18.2337 27.6989 17.6454 28.558 16.62L28.3281 16.4274C27.5259 17.3847 26.3498 17.9337 25.1008 17.9337V18.2337ZM23.6154 18.2337H25.1008V17.9337H23.6154V18.2337ZM23.4654 17.9773V18.0837H23.7654V17.9773H23.4654ZM23.4654 17.7687V17.9773H23.7654V17.7687H23.4654ZM23.6154 17.9187H23.6154V17.6187H23.6154V17.9187ZM25.1008 19.5742H23.6154V19.8742H25.1008V19.5742ZM29.1161 17.9795C28.0361 19.0001 26.6066 19.5742 25.1008 19.5742V19.8742C26.6834 19.8742 28.1866 19.2706 29.3222 18.1975L29.1161 17.9795ZM31.4821 19.244L29.2951 17.9592L29.1432 18.2179L31.3301 19.5027L31.4821 19.244ZM31.5561 20.9069V19.3734H31.2561V20.9069H31.5561ZM27.5108 24.9522C29.7414 24.9522 31.5561 23.1376 31.5561 20.9069H31.2561C31.2561 22.9719 29.5758 24.6522 27.5108 24.6522V24.9522ZM23.4654 20.9069C23.4654 23.1375 25.2801 24.9522 27.5108 24.9522V24.6522C25.4458 24.6522 23.7654 22.9719 23.7654 20.9069H23.4654ZM23.4654 19.7242V20.9069H23.7654V19.7242H23.4654ZM27.639 29.8126L28.9363 26.3432L28.6553 26.2381L27.358 29.7076L27.639 29.8126ZM26.0583 26.337L27.358 29.8126L27.639 29.7076L26.3393 26.2319L26.0583 26.337ZM27.5107 26.2928C27.0711 26.2928 26.6439 26.2387 26.2343 26.1387L26.1632 26.4302C26.5953 26.5356 27.0463 26.5928 27.5107 26.5928V26.2928ZM28.761 26.1448C28.3592 26.2407 27.941 26.2928 27.5107 26.2928V26.5928C27.9654 26.5928 28.407 26.5377 28.8306 26.4366L28.761 26.1448ZM20.2094 32.7463C20.2094 33.1164 19.9092 33.4166 19.5391 33.4166V33.7166C20.0749 33.7166 20.5094 33.2821 20.5094 32.7463H20.2094ZM20.2094 28.1835V32.7463H20.5094V28.1835H20.2094ZM21.1328 27.7426C20.8369 27.8075 20.5544 27.9111 20.2894 28.0508L20.4293 28.3161C20.6705 28.189 20.9276 28.0948 21.1971 28.0356L21.1328 27.7426ZM24.7208 26.9554L21.1328 27.7426L21.1971 28.0356L24.7851 27.2485L24.7208 26.9554ZM26.8707 32.3369L24.8935 27.0494L24.6125 27.1545L26.5897 32.442L26.8707 32.3369ZM27.4985 32.7724C27.2188 32.7724 26.9686 32.5988 26.8707 32.3369L26.5897 32.442C26.7314 32.8211 27.0937 33.0724 27.4985 33.0724V32.7724ZM28.1263 32.3368C28.0283 32.5988 27.7781 32.7724 27.4985 32.7724V33.0724C27.9033 33.0724 28.2655 32.8211 28.4073 32.4419L28.1263 32.3368ZM30.1036 27.049L28.1263 32.3368L28.4073 32.4419L30.3846 27.1541L30.1036 27.049ZM33.8864 27.7444L30.2761 26.955L30.212 27.2481L33.8223 28.0375L33.8864 27.7444ZM34.8227 28.104C34.5333 27.9398 34.2185 27.8169 33.8864 27.7444L33.8223 28.0375C34.124 28.1034 34.4106 28.2151 34.6746 28.3649L34.8227 28.104ZM31.6797 28.3845H34.7486V28.0845H31.6797V28.3845ZM31.0094 29.0548C31.0094 28.6847 31.3096 28.3845 31.6797 28.3845V28.0845C31.1439 28.0845 30.7094 28.519 30.7094 29.0548H31.0094ZM31.0094 32.336V29.0548H30.7094V32.336H31.0094ZM31.0094 35.6173V32.336H30.7094V35.6173H31.0094ZM31.0094 38.0782V35.6173H30.7094V38.0782H31.0094ZM18.6514 38.2282H30.8594V37.9282H18.6514V38.2282ZM18.5014 33.5665V38.0782H18.8014V33.5665H18.5014ZM19.5391 33.4165H18.6514V33.7165H19.5391V33.4165ZM19.6891 33.5666V33.5665H19.3891V33.5666H19.6891ZM17.1608 38.0783V33.5666H16.8608V38.0783H17.1608ZM15.7656 38.2283H17.0108V37.9283H15.7656V38.2283ZM15.6156 37.6681V38.0783H15.9156V37.6681H15.6156ZM13.2227 35.2752C14.5421 35.2752 15.6156 36.3488 15.6156 37.6681H15.9156C15.9156 36.1831 14.7077 34.9752 13.2227 34.9752V35.2752ZM13.1406 35.2752H13.2227V34.9752H13.1406V35.2752ZM12.9906 33.5666V35.1252H13.2906V33.5666H12.9906ZM17.0108 33.4166H13.1406V33.7166H17.0108V33.4166ZM10.6797 26.8541C10.1445 26.8541 9.70938 27.2892 9.70938 27.8244H10.0094C10.0094 27.4549 10.3102 27.1541 10.6797 27.1541V26.8541ZM11.65 27.8244C11.65 27.2892 11.2149 26.8541 10.6797 26.8541V27.1541C11.0492 27.1541 11.35 27.4549 11.35 27.8244H11.65ZM11.65 35.1252V27.8244H11.35V35.1252H11.65ZM9.85938 35.2752H11.5V34.9752H9.85938V35.2752ZM9.70938 27.8244V35.1252H10.0094V27.8244H9.70938ZM8.13672 36.6158C7.55636 36.6158 7.08437 37.0878 7.08437 37.6681H7.38438C7.38438 37.2535 7.72204 36.9158 8.13672 36.9158V36.6158ZM9.03906 36.6158H8.13672V36.9158H9.03906V36.6158ZM12.3203 36.6158H9.03906V36.9158H12.3203V36.6158ZM13.2227 36.6158H12.3203V36.9158H13.2227V36.6158ZM14.275 37.6681C14.275 37.0878 13.803 36.6158 13.2227 36.6158V36.9158C13.6373 36.9158 13.975 37.2535 13.975 37.6681H14.275ZM14.275 38.0783V37.6681H13.975V38.0783H14.275ZM7.23438 38.2283H14.125V37.9283H7.23438V38.2283ZM7.08437 37.6681V38.0783H7.38438V37.6681H7.08437ZM2.64062 41.5096H41.3594V41.2096H2.64062V41.5096ZM2.49063 39.7189V41.3596H2.79062V39.7189H2.49063ZM41.3594 39.5689H2.64062V39.8689H41.3594V39.5689ZM41.5094 41.3596V39.7189H41.2094V41.3596H41.5094ZM9.99366 18.9351C9.81299 19.1157 9.70938 19.3655 9.70938 19.6211H10.0094C10.0094 19.4452 10.0813 19.2717 10.2058 19.1472L9.99366 18.9351ZM10.6797 18.6508C10.4241 18.6508 10.1743 18.7543 9.99363 18.9351L10.2058 19.1472C10.3303 19.0227 10.5037 18.9508 10.6797 18.9508V18.6508ZM11.3657 18.9351C11.1851 18.7544 10.9353 18.6508 10.6797 18.6508V18.9508C10.8556 18.9508 11.0291 19.0227 11.1535 19.1472L11.3657 18.9351ZM11.65 19.6211C11.65 19.3655 11.5464 19.1157 11.3656 18.935L11.1535 19.1472C11.2781 19.2717 11.35 19.4452 11.35 19.6211H11.65ZM11.3656 20.3071C11.5464 20.1265 11.65 19.8767 11.65 19.6211H11.35C11.35 19.797 11.2781 19.9705 11.1536 20.0949L11.3656 20.3071ZM10.6797 20.5914C10.9353 20.5914 11.1851 20.4878 11.3657 20.307L11.1534 20.095C11.0291 20.2195 10.8556 20.2914 10.6797 20.2914V20.5914ZM9.99366 20.307C10.1743 20.4877 10.4241 20.5914 10.6797 20.5914V20.2914C10.5038 20.2914 10.3303 20.2194 10.2058 20.0949L9.99366 20.307ZM9.70938 19.6211C9.70938 19.8766 9.81288 20.1265 9.99372 20.3071L10.2057 20.0949C10.0813 19.9705 10.0094 19.797 10.0094 19.6211H9.70938Z" fill="white"></path>
</svg>
