<svg xmlns:xlink="http://www.w3.org/1999/xlink" xmlns="http://www.w3.org/2000/svg" width="44" height="49" viewBox="0 0 44 49" fill="none">
  <path fill-rule="evenodd" clip-rule="evenodd" d="M40.358 25.0645C41.3295 25.0661 42.2445 25.4471 42.9345 26.1371C43.6207 26.8233 43.9983 27.7354 43.998 28.7055C43.9978 29.6757 43.6196 30.5876 42.9332 31.2733L40.0373 34.1662C39.6689 34.5343 39.0721 34.5339 38.7041 34.1656C38.3362 33.7972 38.3365 33.2003 38.7048 32.8323L41.6007 29.9394C41.9306 29.6098 42.1125 29.1714 42.1126 28.7051C42.1127 28.2387 41.9311 27.8002 41.6013 27.4705C40.9142 26.7833 39.8002 26.7791 39.1185 27.461L30.1602 36.4193C29.9941 37.0416 29.6676 37.6126 29.1999 38.0802C28.4993 38.7807 27.5678 39.1665 26.5771 39.1665H26.5764L18.0507 39.1654C17.5301 39.1653 17.108 38.7432 17.1081 38.2226C17.1082 37.702 17.5304 37.28 18.0508 37.28H18.0509L26.5767 37.281H26.577C27.0643 37.281 27.5224 37.0913 27.8669 36.7468C28.2114 36.4023 28.4012 35.9442 28.4012 35.4569C28.4012 34.9596 28.2097 34.4936 27.862 34.1447C27.516 33.7975 27.0551 33.6062 26.5644 33.6063L20.9846 33.6066C19.4944 33.6066 18.026 33.2025 16.7382 32.4378C15.7003 31.8215 14.5137 31.4957 13.3065 31.4957C11.2893 31.4957 9.39768 32.2808 7.98028 33.7064C7.50594 34.1835 6.41719 35.2944 5.25661 36.4786L5.20365 36.5327L5.11791 36.6202C4.09995 37.6589 3.06628 38.7136 2.32436 39.4661L9.97784 46.0412L12.9224 43.0966C13.0992 42.9199 13.339 42.8205 13.589 42.8205H25.9175C27.7158 42.8205 29.407 42.1205 30.6793 40.8495L32.7025 38.8286C33.0708 38.4606 33.6679 38.4607 34.0357 38.8293C34.4037 39.1976 34.4034 39.7945 34.0351 40.1625L32.0121 42.1834C30.3837 43.8101 28.2193 44.706 25.9177 44.706H13.9796L10.6932 47.9924C10.5098 48.1758 10.2684 48.2686 10.0264 48.2686C9.80815 48.2686 9.58953 48.1931 9.4122 48.0409L0.328405 40.2369C0.129488 40.066 0.0107039 39.82 0.000710927 39.558C-0.00947059 39.2959 0.0900818 39.0416 0.275329 38.8559C0.932979 38.1968 2.41957 36.6799 3.85715 35.2129L3.91137 35.1576C5.07392 33.9714 6.16448 32.8587 6.6433 32.377C6.77283 32.2467 6.90585 32.1213 7.04142 31.9997V30.9924C7.04142 29.4443 7.53107 27.9707 8.45759 26.7305C9.38411 25.4903 10.6585 24.6028 12.1429 24.1639L18.4739 22.292C18.9152 22.1615 19.2237 21.7494 19.225 21.2893C16.9667 20.0466 15.4233 17.6621 15.3747 14.9188L14.3432 10.919C13.7326 8.55141 14.1191 6.11124 15.4315 4.04817C16.7437 1.98509 18.7899 0.60078 21.1932 0.150248C22.2615 -0.0500827 23.3448 -0.0500827 24.4132 0.150248C26.8164 0.60078 28.8626 1.98518 30.1749 4.04826C31.4872 6.11134 31.8737 8.55151 31.263 10.9191L30.2045 14.9217C30.1551 17.6528 28.6239 20.0276 26.3811 21.274V21.2864C26.3811 21.7477 26.6901 22.1613 27.1326 22.2921L33.4634 24.164C34.9484 24.6031 36.246 25.5223 37.1608 26.7522L37.7852 26.1278C38.4711 25.442 39.3823 25.0645 40.3517 25.0645H40.358ZM21.5406 2.00338C19.656 2.35671 18.0513 3.44227 17.0222 5.06009C16.0016 6.66463 15.6951 8.56008 16.1572 10.4024C18.5302 10.2793 20.7399 8.9467 21.8872 6.85741C22.1156 6.44129 22.6179 6.25991 23.0596 6.43422C23.5012 6.60844 23.7444 7.08377 23.6272 7.54382C23.4349 8.29914 23.1728 9.02127 22.8432 9.70532C24.017 9.29937 25.1036 8.59628 26.0113 7.64007C26.1844 7.45775 26.4232 7.35207 26.6746 7.3466L26.695 7.34641C26.9392 7.34641 27.1741 7.44115 27.35 7.61113C28.1948 8.42725 28.9036 9.3763 29.4468 10.411C29.9127 8.5697 29.6072 6.66877 28.584 5.06019C27.5549 3.44236 25.9502 2.35671 24.0657 2.00338C23.2279 1.84632 22.3784 1.84632 21.5406 2.00338ZM17.2567 12.1818V14.7861C17.2567 17.8368 19.7388 20.3188 22.7896 20.3188C25.8404 20.3188 28.3224 17.8368 28.3224 14.7861V12.5508C27.9569 11.4852 27.3895 10.4901 26.6585 9.62754C25.0397 11.0331 23.0563 11.8601 20.9808 11.9791C20.6119 12.0003 20.2674 11.8054 20.0946 11.4806C20.0578 11.4115 20.0304 11.3394 20.0121 11.2655C19.162 11.719 18.2332 12.0309 17.2567 12.1818ZM22.8032 24.2355L24.6971 22.3415C24.6517 22.2251 24.6118 22.1063 24.5816 21.984C24.0074 22.127 23.4074 22.2042 22.7897 22.2042C22.181 22.2042 21.5899 22.1289 21.0235 21.9901C20.9933 22.1102 20.9538 22.2269 20.9091 22.3414L22.8032 24.2355ZM17.7009 30.8166C18.3598 31.2078 19.0795 31.4763 19.8244 31.6139H19.8245V28.8981L19.6249 29.0431C19.4619 29.1615 19.2676 29.2232 19.0707 29.2232C18.9811 29.2232 18.8911 29.2105 18.8031 29.1844C18.5222 29.1013 18.2959 28.8921 18.1907 28.6186L16.715 24.7783L12.6775 25.9721C10.5695 26.5955 9.06942 28.5051 8.93735 30.6804C10.2675 29.9813 11.7574 29.6103 13.3066 29.6103C14.8523 29.6103 16.3718 30.0273 17.7009 30.8166ZM18.5288 24.242L19.5101 26.7958L21.356 25.4549L19.695 23.7939C19.483 23.9232 19.2535 24.0277 19.0085 24.1002L18.5288 24.242ZM21.7099 31.7211L23.8963 31.721H23.8964V27.5283L22.8032 26.734L21.7099 27.5282V31.7211ZM26.5977 24.1001C26.3527 24.0276 26.1232 23.9231 25.9112 23.7938L24.2502 25.4548L26.0959 26.7958L27.0774 24.242L26.5977 24.1001ZM29.1975 32.8139C29.5272 33.1447 29.7863 33.5274 29.9695 33.9434L35.8084 28.1046C35.1319 27.0851 34.111 26.3218 32.9287 25.9723L28.8911 24.7784L27.4153 28.6187C27.3103 28.8922 27.0838 29.1013 26.8029 29.1844C26.715 29.2105 26.6249 29.2232 26.5354 29.2232C26.3385 29.2232 26.1442 29.1614 25.9812 29.0431L25.7817 28.8981V31.7209H26.564H26.5647C27.5601 31.7209 28.4951 32.109 29.1975 32.8139ZM37.3132 36.4972C37.3132 37.0179 36.8911 37.4399 36.3705 37.4399C35.8498 37.4399 35.4277 37.0179 35.4277 36.4972C35.4277 35.9765 35.8498 35.5544 36.3705 35.5544C36.8911 35.5544 37.3132 35.9765 37.3132 36.4972Z" fill="white"/>
</svg>