<svg xmlns:xlink="http://www.w3.org/1999/xlink" xmlns="http://www.w3.org/2000/svg" width="47" height="46" viewBox="0 0 47 46" fill="none">
  <path fill-rule="evenodd" clip-rule="evenodd" d="M45.0627 31.1427C46.2614 33.2189 46.31 35.7402 45.2218 37.8469L45.8517 38.9377C46.0987 39.3654 45.954 39.9124 45.5279 40.162L37.3499 44.9534C37.211 45.0348 37.0541 45.0767 36.8958 45.0767C36.8188 45.0767 36.7416 45.0668 36.666 45.0467C36.4347 44.9856 36.2374 44.8347 36.1177 44.6275L35.4544 43.4787C33.1119 43.3761 30.8448 42.5183 29.0201 41.0344L23.9884 36.9427C22.7926 35.9703 22.5725 34.2368 23.4874 32.9963C24.2423 31.9728 25.5599 31.5877 26.7178 31.9726L22.6236 24.8812C22.5202 24.7023 22.4393 24.5147 22.3797 24.322H14.1502C13.6541 24.322 13.2518 23.9198 13.2518 23.4236V22.5261H11.5688C11.0728 22.5261 10.6705 22.1239 10.6705 21.6277C10.6705 21.1315 11.0728 20.7294 11.5688 20.7294H13.2518V20.0982C13.2518 18.2047 14.4283 16.5498 16.1987 15.9223C16.0854 15.8685 15.969 15.8211 15.8485 15.784L11.5596 14.4614C11.2702 14.5803 10.9668 14.6713 10.6523 14.7316V16.2656C10.6523 16.7618 10.25 17.1639 9.75397 17.1639C9.25789 17.1639 8.85561 16.7618 8.85561 16.2656V14.7316C8.54738 14.6725 8.24985 14.5838 7.96561 14.4682L3.66355 15.7872C2.54922 16.1289 1.80062 17.1414 1.80062 18.3068V20.7294H3.48325C3.97932 20.7294 4.38161 21.1316 4.38161 21.6278C4.38161 22.124 3.97932 22.5262 3.48325 22.5262H0.902265C0.406191 22.5262 0.00390625 22.124 0.00390625 21.6278V18.3068C0.00390625 16.3468 1.26296 14.644 3.13711 14.0694L6.13682 13.1497C5.45425 12.354 5.02941 11.3319 4.99195 10.2127L4.37622 7.82533C3.9937 6.34205 4.24586 4.75016 5.06795 3.45769C5.89004 2.16522 7.225 1.26201 8.73065 0.97975C9.40981 0.852453 10.0983 0.852453 10.7776 0.97975C12.2831 1.26201 13.6182 2.16522 14.4403 3.45769C15.2623 4.75016 15.5145 6.34214 15.132 7.82533L14.5163 10.2128C14.4789 11.3283 14.0567 12.3474 13.3781 13.142L16.378 14.067C17.1127 14.2935 17.7777 14.7125 18.302 15.2696L19.3779 14.9378C18.6927 14.1356 18.2692 13.1044 18.239 11.9764L17.6173 9.62663C17.2333 8.13796 17.4855 6.54598 18.3076 5.25351C19.1297 3.96104 20.4647 3.05783 21.9703 2.77557C22.6495 2.64827 23.338 2.64827 24.0172 2.77557C25.5228 3.05783 26.8578 3.96104 27.6799 5.2536C28.502 6.54607 28.7541 8.13796 28.3715 9.62124L27.7651 11.9731C27.7354 13.1062 27.3091 14.1415 26.6193 14.9456L27.6961 15.2758C28.2213 14.7156 28.8886 14.2943 29.6257 14.067L32.6257 13.142C31.9144 12.3091 31.4835 11.23 31.4835 10.0515V7.32387C30.9903 6.65504 30.7314 5.85388 30.7474 5.01841C30.7869 2.94994 32.526 1.26714 34.6241 1.26714C35.6128 1.26714 36.6531 1.41258 37.7161 1.69943C38.8453 2.00406 40.1311 1.87937 41.0718 1.37413C41.35 1.22464 41.6867 1.23219 41.958 1.39452C42.2292 1.55677 42.3953 1.84954 42.3953 2.16558V4.88321C42.3953 6.09168 41.8605 7.17699 41.016 7.91714V10.0516C41.016 11.2337 40.5824 12.316 39.8671 13.1498L42.8669 14.0695C44.7408 14.644 45.9999 16.3468 45.9999 18.3068V21.6278C45.9999 22.124 45.5976 22.5262 45.1015 22.5262H32.752V23.4237C32.752 23.9199 32.3497 24.3221 31.8537 24.3221H28.5626L30.1067 26.9965C30.3029 26.7644 30.5414 26.5616 30.8194 26.4011C31.5423 25.9837 32.3796 25.9385 33.1083 26.2051C33.3415 25.7077 33.7196 25.2934 34.2053 25.0129C34.8324 24.6507 35.5632 24.5546 36.2629 24.742C36.5301 24.8136 36.7804 24.9236 37.0081 25.0668C37.2334 24.7199 37.5408 24.4194 37.9228 24.1989C38.5499 23.8367 39.2808 23.7406 39.9803 23.928C40.68 24.1154 41.2646 24.5642 41.6267 25.1914L45.0627 31.1427ZM6.58384 4.42208C6.15191 5.10115 5.95409 5.87517 6.00242 6.65746H13.5055C13.5538 5.87517 13.356 5.10115 12.9241 4.42208C12.3598 3.53486 11.4798 2.93952 10.4463 2.74574C9.987 2.65968 9.52093 2.65968 9.0616 2.74574C8.02813 2.93952 7.1481 3.53486 6.58384 4.42208ZM9.75397 13.0211C11.3914 13.0211 12.7236 11.689 12.7236 10.0516H12.7235V8.45418H6.78436V10.0516C6.78436 11.689 8.11653 13.0211 9.75397 13.0211ZM34.624 3.06394C33.4978 3.06394 32.5646 3.95619 32.5437 5.05291C32.5336 5.58536 32.7395 6.09428 33.1236 6.48579C33.52 6.88978 34.069 7.12156 34.63 7.12156H38.36C39.5944 7.12156 40.5986 6.11746 40.5986 4.88312V3.46443C39.5274 3.73412 38.3466 3.73043 37.248 3.43416C36.3375 3.18854 35.4547 3.06394 34.624 3.06394ZM39.2193 10.0515V8.82529C38.9423 8.88566 38.655 8.91836 38.3599 8.91836H34.6299C34.1676 8.91836 33.7101 8.83338 33.2801 8.67401V10.0515C33.2801 11.6889 34.6123 13.021 36.2497 13.021C37.8871 13.021 39.2193 11.6889 39.2193 10.0515ZM34.4442 14.4615L30.1551 15.7841C30.0328 15.8218 29.9144 15.87 29.7994 15.925C31.5733 16.5508 32.7519 18.2063 32.7519 20.1027V20.7294H44.2031V18.3068C44.2031 17.1414 43.4545 16.1289 42.3403 15.7873L38.0382 14.4683C37.754 14.5838 37.4564 14.6726 37.1481 14.7316V16.1982C37.1481 16.6944 36.7459 17.0966 36.2498 17.0966C35.7537 17.0966 35.3514 16.6944 35.3514 16.1982V14.7316C35.037 14.6715 34.7335 14.5804 34.4442 14.4615ZM19.8235 6.21799C19.3129 7.02058 19.1282 7.95595 19.2921 8.88081C21.5934 8.79709 23.6678 8.19024 24.7367 7.28227C25.0889 6.98294 25.6104 6.99992 25.9426 7.32072C26.2411 7.60919 26.5123 7.92119 26.7531 8.25169C26.7585 7.53849 26.5586 6.83866 26.1637 6.21808C25.5995 5.33077 24.7194 4.73543 23.686 4.54165C23.4563 4.49862 23.2249 4.47706 22.9936 4.47706C22.7623 4.47706 22.531 4.49862 22.3012 4.54165C21.2678 4.73543 20.3877 5.33077 19.8235 6.21799ZM23.0019 14.8169C24.6385 14.8169 25.9701 13.4861 25.9714 11.8498L25.9712 11.8473L25.9714 10.5696C25.7931 10.0702 25.528 9.59393 25.19 9.16254C23.9021 9.95507 22.0703 10.4809 20.0323 10.6381V11.8474C20.0323 13.4848 21.3644 14.8169 23.0019 14.8169ZM15.0484 22.5253H22.4517C22.6754 21.9585 23.0802 21.4865 23.6158 21.1774C24.2431 20.8151 24.9737 20.719 25.6734 20.9064C26.373 21.0939 26.9578 21.5426 27.3198 22.1699L27.5251 22.5254H30.9551V20.1028C30.9551 18.9374 30.2065 17.9249 29.0923 17.5832L24.7902 16.2642C24.506 16.3797 24.2084 16.4685 23.9001 16.5275V17.9941C23.9001 18.4903 23.4979 18.8925 23.0018 18.8925C22.5057 18.8925 22.1034 18.4903 22.1034 17.9941V16.5275C21.789 16.4674 21.4855 16.3764 21.1962 16.2574L16.9071 17.58C15.7954 17.9228 15.0484 18.9348 15.0484 20.0983V22.5253ZM43.8492 39.063L43.4092 38.3008C43.2437 38.0142 43.2493 37.6598 43.4235 37.3784C44.434 35.7477 44.4659 33.7025 43.5066 32.041L40.0707 26.0898C39.9484 25.8781 39.7512 25.7267 39.5151 25.6635C39.2794 25.6003 39.0326 25.6327 38.821 25.7549C38.3841 26.0071 38.2338 26.5678 38.4861 27.0047L39.7238 29.1485C39.972 29.5782 39.8247 30.1276 39.395 30.3757C38.9655 30.6239 38.416 30.4765 38.1679 30.0469L36.3532 26.9037C36.2309 26.692 36.0337 26.5407 35.7976 26.4774C35.5617 26.4143 35.315 26.4467 35.1034 26.5689C34.8918 26.691 34.7404 26.8884 34.6772 27.1244C34.614 27.3604 34.6465 27.607 34.7686 27.8186L36.5833 30.9617C36.8314 31.3914 36.6841 31.9409 36.2545 32.1889C35.825 32.4371 35.2755 32.2898 35.0273 31.8601L32.9672 28.292C32.8449 28.0803 32.6477 27.929 32.4116 27.8657C32.1757 27.8026 31.9291 27.8349 31.7175 27.9571C31.2807 28.2093 31.1304 28.7698 31.3826 29.2067L33.4427 32.7749C33.6908 33.2046 33.5436 33.754 33.1139 34.0021C32.9725 34.0837 32.818 34.1225 32.6656 34.1225C32.355 34.1225 32.0532 33.9615 31.8867 33.6733L25.7638 23.068C25.6415 22.8564 25.4443 22.705 25.2082 22.6418C24.9721 22.5785 24.7255 22.6111 24.514 22.7332C24.3024 22.8554 24.1511 23.0527 24.0878 23.2887C24.0246 23.5247 24.0571 23.7713 24.1793 23.9828L30.0381 34.1307C30.2457 34.4902 30.1799 34.9452 29.879 35.2311C29.578 35.517 29.1205 35.5596 28.7719 35.334L26.3963 33.7959C25.9156 33.4846 25.2729 33.6019 24.9332 34.0627C24.5886 34.5298 24.6716 35.1825 25.1219 35.5488L30.1536 39.6404C31.7936 40.9739 33.8587 41.7023 35.9744 41.6922H35.9789C36.2997 41.6922 36.5964 41.8633 36.7569 42.1414L37.2215 42.9461L43.8492 39.063ZM8.42374 21.628C8.42374 22.1242 8.02151 22.5264 7.52534 22.5264C7.02918 22.5264 6.62695 22.1242 6.62695 21.628C6.62695 21.1318 7.02918 20.7296 7.52534 20.7296C8.02151 20.7296 8.42374 21.1318 8.42374 21.628Z" fill="white"/>
</svg>