<svg xmlns:xlink="http://www.w3.org/1999/xlink" xmlns="http://www.w3.org/2000/svg" width="48" height="48" viewBox="0 0 48 48" fill="none">
  <path fill-rule="evenodd" clip-rule="evenodd" d="M0.9375 0H47.0625C47.5803 0 48 0.419719 48 0.9375V4.6875C48 5.20528 47.5803 5.625 47.0625 5.625H46.3125V38.4375C46.3125 38.9553 45.8928 39.375 45.375 39.375H24.9375V41.7659C26.2389 42.1672 27.1875 43.381 27.1875 44.8125C27.1875 46.5701 25.7576 48 24 48C22.2424 48 20.8125 46.5701 20.8125 44.8125C20.8125 43.3811 21.7611 42.1672 23.0625 41.7659V39.375H2.625C2.10722 39.375 1.6875 38.9553 1.6875 38.4375V5.625H0.9375C0.419719 5.625 0 5.20528 0 4.6875V0.9375C0 0.419719 0.419719 0 0.9375 0ZM24 46.125C24.7237 46.125 25.3125 45.5363 25.3125 44.8125C25.3125 44.0887 24.7237 43.5 24 43.5C23.2763 43.5 22.6875 44.0887 22.6875 44.8125C22.6875 45.5363 23.2763 46.125 24 46.125ZM28.2188 3.75H46.125V1.875H1.875V3.75H19.7812C20.299 3.75 20.7188 4.16972 20.7188 4.6875C20.7188 5.20528 20.299 5.625 19.7812 5.625H3.5625V37.5H44.4375V5.625H28.2188C27.701 5.625 27.2812 5.20528 27.2812 4.6875C27.2812 4.16972 27.701 3.75 28.2188 3.75ZM6.54883 32.6512H20.0544C20.5721 32.6512 20.992 33.071 20.992 33.5887C20.992 34.1065 20.5722 34.5262 20.0545 34.5262H6.54883C6.03105 34.5262 5.61133 34.1065 5.61133 33.5887C5.61133 33.071 6.03105 32.6512 6.54883 32.6512ZM20.0544 28.5262H6.54883C6.03105 28.5262 5.61133 28.946 5.61133 29.4637C5.61133 29.9815 6.03105 30.4012 6.54883 30.4012H20.0545C20.5722 30.4012 20.992 29.9815 20.992 29.4637C20.992 28.946 20.5721 28.5262 20.0544 28.5262ZM25.875 32.6513H42.0055C42.5233 32.6513 42.943 33.071 42.943 33.5888C42.943 34.1065 42.5233 34.5263 42.0055 34.5263H25.875C25.3572 34.5263 24.9375 34.1065 24.9375 33.5888C24.9375 33.071 25.3572 32.6513 25.875 32.6513ZM25.875 28.5263C25.3572 28.5263 24.9375 28.946 24.9375 29.4638C24.9375 29.9815 25.3572 30.4013 25.875 30.4013H42.0055C42.5233 30.4013 42.943 29.9815 42.943 29.4638C42.943 28.946 42.5233 28.5263 42.0055 28.5263H25.875ZM25.875 26.2762C25.3572 26.2762 24.9375 25.8565 24.9375 25.3387V17.8117C24.9375 17.294 25.3572 16.8742 25.875 16.8742H30.1875V14.8454C30.1875 14.3276 30.6072 13.9079 31.125 13.9079H35.4375V11.6917C35.4375 11.1739 35.8572 10.7542 36.375 10.7542H41.625C42.1428 10.7542 42.5625 11.1739 42.5625 11.6917V25.3387C42.5625 25.8565 42.1428 26.2762 41.625 26.2762H25.875ZM40.6875 12.6292H37.3125V24.4012H40.6875V12.6292ZM35.4375 15.7829H32.0625V24.4012H35.4375V15.7829ZM30.1875 18.7492H26.8125V24.4012H30.1875V18.7492ZM18.4024 19.4291L16.6996 18.907C17.3066 18.1658 17.6803 17.2272 17.7108 16.2038L18.279 14.0544C18.6379 12.6631 18.4014 11.1698 17.6302 9.95747C16.859 8.7451 15.6068 7.89788 14.1944 7.63313C13.5574 7.51369 12.9114 7.51369 12.2743 7.63313C10.8621 7.89788 9.60987 8.7451 8.83868 9.95747C8.06749 11.1698 7.83096 12.6631 8.18983 14.0544L8.74362 16.2019C8.77352 17.2237 9.1458 18.1609 9.75068 18.9019L8.04621 19.4274C6.50093 19.904 5.46274 21.3106 5.46274 22.9277V25.3388C5.46274 25.8565 5.88246 26.2763 6.40024 26.2763H20.0541C20.5719 26.2763 20.9916 25.8565 20.9916 25.3388V22.9311C20.9916 21.3113 19.9511 19.904 18.4024 19.4291ZM10.4207 10.9638C10.9216 10.1764 11.7026 9.64791 12.6199 9.47597C12.8238 9.43772 13.0291 9.41869 13.2344 9.41869C13.4397 9.41869 13.6451 9.43782 13.849 9.47597C14.7662 9.64791 15.5472 10.1764 16.0481 10.9638C16.3342 11.4134 16.505 11.91 16.5557 12.4206C16.3894 12.2144 16.2102 12.0182 16.0192 11.8336C15.6725 11.4986 15.1282 11.4812 14.7608 11.7934C13.8157 12.5963 11.9835 13.1379 9.93321 13.229C9.81715 12.4403 9.98562 11.6478 10.4207 10.9638ZM15.8392 16.069C15.8392 17.5092 14.6674 18.6809 13.2272 18.6809C11.787 18.6809 10.6152 17.5092 10.6152 16.069V15.0639C12.421 14.9127 14.0471 14.449 15.2185 13.7559C15.4802 14.1107 15.6901 14.5023 15.8391 14.9159L15.8392 16.069ZM19.1166 24.4013H7.33774V22.9277C7.33774 22.1384 7.84446 21.4518 8.59877 21.2192L11.6633 20.2742C11.8656 20.3497 12.0748 20.4108 12.2896 20.4566V21.4296C12.2896 21.9473 12.7093 22.3671 13.2271 22.3671C13.7449 22.3671 14.1646 21.9473 14.1646 21.4296V20.4566C14.3749 20.4117 14.5799 20.3526 14.7783 20.2793L17.8527 21.2217C18.6086 21.4536 19.1166 22.1405 19.1166 22.9311V24.4013ZM24.9375 4.68767C24.9375 5.20544 24.5178 5.62517 24 5.62517C23.4822 5.62517 23.0625 5.20544 23.0625 4.68767C23.0625 4.1699 23.4822 3.75017 24 3.75017C24.5178 3.75017 24.9375 4.1699 24.9375 4.68767Z" fill="white"/>
</svg>