<svg xmlns:xlink="http://www.w3.org/1999/xlink" xmlns="http://www.w3.org/2000/svg" width="46" height="46" viewBox="0 0 46 46" fill="none">
  <path fill-rule="evenodd" clip-rule="evenodd" d="M11.6815 13.6629H21.7211C22.4975 15.3814 24.4707 16.6459 26.5258 16.6459C26.8341 16.6459 27.1207 16.4879 27.2853 16.2275C27.4499 15.9669 27.4695 15.6401 27.3372 15.3618C27.0429 14.7426 26.8579 14.16 26.779 13.5991C30.1042 13.1418 32.674 10.2817 32.674 6.83294C32.6741 3.06676 29.6102 0.00292969 25.8441 0.00292969H11.6815C7.91539 0.00292969 4.85156 3.06676 4.85156 6.83285C4.85156 10.5989 7.91539 13.6629 11.6815 13.6629ZM11.6815 1.79969H25.8441C28.6194 1.79969 30.8772 4.05758 30.8772 6.83285C30.8772 9.60812 28.6193 11.866 25.8407 11.866C25.359 11.866 24.963 12.2459 24.9432 12.7273C24.9183 13.3297 24.982 13.9351 25.1368 14.5538C24.2031 14.1552 23.4375 13.3967 23.2277 12.5487C23.1285 12.1477 22.7687 11.866 22.3557 11.866H11.6815C8.90621 11.8661 6.64832 9.60821 6.64832 6.83285C6.64832 4.05749 8.90621 1.79969 11.6815 1.79969ZM45.997 31.6104C45.997 29.5401 44.6671 27.7415 42.6878 27.1347L39.589 26.1846C40.5082 25.2257 41.0836 23.9358 41.1166 22.5135L41.862 19.6949C42.3052 17.9765 42.0131 16.1324 41.0607 14.635C40.1082 13.1377 38.5617 12.0915 36.8176 11.7644C36.0309 11.6171 35.2329 11.6169 34.4463 11.7644C32.7021 12.0915 31.1556 13.1377 30.2032 14.635C29.2508 16.1324 28.9587 17.9765 29.4019 19.6949L30.128 22.5108C30.1604 23.9302 30.7327 25.2177 31.6482 26.1766L28.5497 27.1321C26.5747 27.741 25.2477 29.5389 25.2477 31.6056V33.8718H21.5364C22.8145 32.5295 23.6017 30.7155 23.6017 28.7199V25.5448C23.6017 21.421 20.2467 18.0661 16.1229 18.0661C11.9992 18.0661 8.64429 21.421 8.64429 25.5448V28.72C8.64429 30.7155 9.43145 32.5295 10.7096 33.8719H0.898378C0.402294 33.8719 0 34.2742 0 34.7703V40.1606C0 40.6566 0.402294 41.0589 0.898378 41.0589H3.49712V45.1016C3.49712 45.5977 3.89941 46 4.3955 46H12.0803C12.5764 46 12.9787 45.5977 12.9787 45.1016C12.9787 44.6056 12.5764 44.2033 12.0803 44.2033H5.29387V40.2297C5.29387 38.5595 6.36627 37.1065 7.96224 36.6144L12.4496 35.2307C13.5355 35.8458 14.7885 36.1988 16.123 36.1988C17.451 36.1988 18.6983 35.8492 19.7805 35.2398L24.2776 36.6185C25.8773 37.109 26.9521 38.5626 26.9521 40.2358V44.2032H20.1657C19.6696 44.2032 19.2673 44.6055 19.2673 45.1016C19.2673 45.5976 19.6696 45.9999 20.1657 45.9999H27.8504C28.3465 45.9999 28.7488 45.5976 28.7488 45.1016V41.0589H45.0986C45.5947 41.0589 45.997 40.6566 45.997 40.1605V31.6104ZM3.58076 39.2621H1.79676V35.6686H5.85653C4.65773 36.5102 3.83464 37.7958 3.58076 39.2621ZM16.123 34.4019C12.9899 34.4019 10.441 31.853 10.441 28.7199V25.5448C10.441 22.4118 12.9899 19.8629 16.123 19.8629C19.256 19.8629 21.8049 22.4118 21.8049 25.5448V28.72C21.8049 31.853 19.256 34.4019 16.123 34.4019ZM31.0913 19.0306C30.8426 17.8422 31.0625 16.6319 31.7192 15.5994C32.4157 14.5045 33.5018 13.7697 34.7774 13.5306C35.0609 13.4774 35.3464 13.4508 35.6319 13.4508C35.9174 13.4508 36.2029 13.4774 36.4866 13.5306C37.7621 13.7696 38.8481 14.5044 39.5446 15.5994C40.1275 16.5158 40.3663 17.5724 40.2395 18.6261C39.896 18.08 39.4864 17.5742 39.0203 17.1238C38.6882 16.8029 38.1666 16.7861 37.8145 17.0852C36.4959 18.2055 33.9259 18.948 31.0913 19.0306ZM39.3232 20.8353V22.3843C39.3232 24.4248 37.6631 26.0849 35.6224 26.0849C33.5817 26.0849 31.9216 24.4247 31.9216 22.3843V20.7887C34.4593 20.6151 36.7328 19.9623 38.2792 18.9689C38.7317 19.5263 39.0869 20.16 39.3232 20.8353ZM44.2002 39.2621H28.6641C28.4086 37.7943 27.5829 36.5087 26.3812 35.6686H44.2002V39.2621ZM44.2002 33.8718H27.0444V31.6056C27.0444 30.332 27.8621 29.2243 29.0791 28.849L33.5437 27.4722C33.9184 27.6259 34.3135 27.7392 34.7239 27.807V29.353C34.7239 29.8491 35.1262 30.2514 35.6223 30.2514C36.1184 30.2514 36.5207 29.8491 36.5207 29.353V27.8071C36.9246 27.7404 37.3135 27.6294 37.6828 27.4795L42.1611 28.8525C43.3808 29.2264 44.2002 30.3347 44.2002 31.6104V33.8718ZM19.9941 9.70762H11.6893C11.1932 9.70762 10.791 9.30533 10.791 8.80925C10.791 8.31316 11.1932 7.91087 11.6893 7.91087H19.9941C20.4902 7.91087 20.8925 8.31316 20.8925 8.80925C20.8925 9.30533 20.4902 9.70762 19.9941 9.70762ZM11.6893 5.75478H25.8373C26.3333 5.75478 26.7356 5.35248 26.7356 4.8564C26.7356 4.36032 26.3333 3.95802 25.8373 3.95802H11.6893C11.1932 3.95802 10.791 4.36032 10.791 4.8564C10.791 5.35248 11.1932 5.75478 11.6893 5.75478ZM17.0231 45.1015C17.0231 45.5977 16.6209 45.9999 16.1247 45.9999C15.6286 45.9999 15.2264 45.5977 15.2264 45.1015C15.2264 44.6054 15.6286 44.2032 16.1247 44.2032C16.6209 44.2032 17.0231 44.6054 17.0231 45.1015Z" fill="white"/>
</svg>