<svg xmlns:xlink="http://www.w3.org/1999/xlink" xmlns="http://www.w3.org/2000/svg" width="48" height="48" viewBox="0 0 48 48" fill="none">
  <path fill-rule="evenodd" clip-rule="evenodd" d="M42.0153 20.2681C42.0153 19.7503 42.435 19.3306 42.9528 19.3306C45.7358 19.3306 48 21.5948 48 24.3778V38.4528C48 41.2358 45.7358 43.5 42.9528 43.5H40.7621C40.5613 44.4993 40.099 45.398 39.45 46.125H40.375C40.8928 46.125 41.3125 46.5448 41.3125 47.0625C41.3125 47.5802 40.8928 48 40.375 48H5.625C2.52338 48 0 45.4766 0 42.375V39.9283C0 31.7765 6.63206 25.1444 14.7838 25.1445H15.893V24.5106C13.4773 22.9657 11.9999 20.2941 11.9999 17.4006V13.4292C11.6166 13.3773 11.2348 13.2939 10.8587 13.1753C10.4684 13.0524 10.203 12.6904 10.203 12.2812V9.64059C10.203 6.55341 12.5908 4.01512 15.6162 3.771C16.7192 1.53919 19.0189 0 21.6723 0C26.8156 0 31 4.18444 30.9999 9.32766V12.5657C30.9999 13.0834 30.5802 13.5032 30.0624 13.5032H28.8749V17.4005C28.8749 18.0569 28.7986 18.702 28.6512 19.3306H34.5013C35.0191 19.3306 35.4388 19.7503 35.4388 20.2681C35.4388 20.7858 35.0191 21.2056 34.5013 21.2056H20.9403C19.1911 21.2056 17.7681 22.6286 17.7681 24.3778V38.4528C17.7681 40.202 19.1911 41.625 20.9403 41.625H42.9528C44.702 41.625 46.125 40.202 46.125 38.4528V24.3778C46.125 22.6286 44.702 21.2056 42.9528 21.2056C42.435 21.2056 42.0153 20.7858 42.0153 20.2681ZM28.2903 46.125V43.5H22.2342C22.6117 44.1066 22.8306 44.8217 22.8306 45.5872V46.125H28.2903ZM29.1249 9.32766C29.1249 5.21822 25.7817 1.875 21.6723 1.875C18.9833 1.875 16.7957 4.06266 16.7957 6.7515C16.7957 9.44053 18.9833 11.6282 21.6723 11.6282H29.1249V9.32766ZM14.9916 5.78006C13.3118 6.26034 12.0781 7.80863 12.0781 9.64059V11.546C13.4926 11.7892 14.9524 11.4101 16.0715 10.5178C15.3452 9.44128 14.9207 8.14509 14.9207 6.75159C14.9207 6.42159 14.9456 6.0975 14.9916 5.78006ZM13.8749 13.4247V17.4005C13.8749 19.3851 14.7692 21.2351 16.269 22.4691C17.0233 20.6298 18.8325 19.3306 20.9403 19.3306H26.7113C26.9026 18.7087 26.9999 18.0621 26.9999 17.4005V13.5032H21.6723C20.0184 13.5032 18.5024 12.9044 17.3272 11.9137C16.3318 12.7334 15.1316 13.2504 13.8749 13.4247ZM1.875 42.375C1.875 44.4427 3.55725 46.125 5.625 46.125H15.8931V42H9.46875C8.95097 42 8.53125 41.5802 8.53125 41.0625C8.53125 40.5448 8.95097 40.125 9.46875 40.125H16.179C15.9945 39.6013 15.8931 39.0388 15.8931 38.4528V27.0194H14.7839C7.66594 27.0194 1.875 32.8102 1.875 39.9283V42.375ZM17.7681 43.5V46.125H20.9556V45.5872C20.9556 44.4363 20.0193 43.5 18.8684 43.5H17.7681ZM33.7278 43.5H30.1653V46.125H33.7278V43.5ZM35.6028 43.5V46.1083C37.1285 45.9675 38.3868 44.9219 38.8291 43.5H35.6028ZM17.6016 17.2988C17.8481 17.2988 18.09 17.1985 18.2644 17.0241C18.4397 16.8497 18.5391 16.6078 18.5391 16.3613C18.5391 16.1147 18.4397 15.8728 18.2644 15.6985C18.09 15.5242 17.8491 15.4238 17.6016 15.4238C17.355 15.4238 17.1131 15.5241 16.9388 15.6985C16.7644 15.8728 16.6641 16.1147 16.6641 16.3613C16.6641 16.6078 16.7644 16.8497 16.9388 17.0241C17.1131 17.1985 17.355 17.2988 17.6016 17.2988ZM23.4141 17.2988C23.6606 17.2988 23.9025 17.1985 24.0769 17.0241C24.2522 16.8497 24.3516 16.6078 24.3516 16.3613C24.3516 16.1147 24.2522 15.8728 24.0769 15.6985C23.9025 15.5242 23.6616 15.4238 23.4141 15.4238C23.1675 15.4238 22.9256 15.5241 22.7513 15.6985C22.5769 15.8728 22.4766 16.1147 22.4766 16.3613C22.4766 16.6078 22.5769 16.8497 22.7513 17.0241C22.9256 17.1985 23.1675 17.2988 23.4141 17.2988ZM31.9474 27.923C30.0217 27.923 28.4551 29.4897 28.4551 31.4153C28.4551 33.341 30.0217 34.9077 31.9474 34.9077C33.873 34.9077 35.4396 33.341 35.4396 31.4153C35.4396 29.4897 33.873 27.923 31.9474 27.923ZM31.9474 33.0327C31.0555 33.0327 30.3301 32.3072 30.3301 31.4153C30.3301 30.5235 31.0556 29.798 31.9474 29.798C32.8391 29.798 33.5646 30.5235 33.5646 31.4153C33.5646 32.3072 32.8391 33.0327 31.9474 33.0327ZM39.3845 20.9315C39.2101 21.1058 38.9682 21.2052 38.7207 21.2052C38.4741 21.2052 38.2323 21.1059 38.0579 20.9315C37.8835 20.7561 37.7832 20.5153 37.7832 20.2677C37.7832 20.0211 37.8835 19.7803 38.0579 19.605C38.2323 19.4306 38.4741 19.3312 38.7207 19.3312C38.9682 19.3312 39.2091 19.4306 39.3845 19.605C39.5588 19.7803 39.6591 20.0211 39.6591 20.2677C39.6591 20.5153 39.5588 20.7561 39.3845 20.9315Z" fill="white"/>
</svg>