<?xml version="1.0" encoding="UTF-8"?>
<svg xmlns="http://www.w3.org/2000/svg" width="814" height="360" viewBox="0 0 814 360" fill="none">
  <path fill-rule="evenodd" clip-rule="evenodd" d="M133.883 167.241C133.883 167.241 124.152 155.889 133.283 148.676C133.283 148.676 139.953 144.64 145.392 144.967C145.392 144.967 137.686 157.888 140.179 159.173C142.671 160.459 147.727 144.158 147.727 144.158C147.727 144.158 162.905 142.686 167.788 145.033C167.788 145.033 154.812 155.65 157.545 156.282C160.278 156.916 174.293 146.493 174.293 146.493C174.293 146.493 188.419 148.897 187.666 157.515C186.913 166.13 182.045 168.793 179.906 168.563C177.766 168.334 165.252 163.557 164.979 165.31C164.707 167.063 172.24 172.792 177.515 173.059C177.515 173.059 167.556 184.044 160.937 180.874C154.318 177.703 153.752 172.68 149.626 170.795C145.5 168.91 141.978 168.913 143.681 170.835C145.385 172.757 152.853 174.625 155.212 178.799C157.572 182.974 159.689 185.788 152.841 184.758C145.992 183.728 134.861 178.716 134.372 172.978C133.883 167.241 133.883 167.241 133.883 167.241Z" fill="url(#paint0_linear_2196_13244)"></path>
  <path fill-rule="evenodd" clip-rule="evenodd" d="M180.724 157.747C180.724 157.747 142.356 156.267 133.883 167.241C133.883 167.241 132.009 172.852 126.242 177.964L125.344 180.414C125.344 180.414 131.992 173.403 134.371 172.978C134.371 172.978 130.651 159.386 180.724 157.747Z" fill="url(#paint1_linear_2196_13244)"></path>
  <path fill-rule="evenodd" clip-rule="evenodd" d="M126.245 177.965C126.245 177.965 118.01 184.055 117.438 194.937L118.932 195.072C118.932 195.072 121.563 183.817 126.317 179.419C131.071 175.018 126.245 177.965 126.245 177.965Z" fill="#7ECA86"></path>
  <path fill-rule="evenodd" clip-rule="evenodd" d="M99.8579 152.962C99.8579 152.962 115.337 144.296 108.114 132.53C108.114 132.53 102.335 125.307 96.1427 123.449C96.1427 123.449 99.445 140.994 96.1427 141.407C92.8403 141.82 93.8725 121.592 93.8725 121.592C93.8725 121.592 77.5671 113.749 71.1689 114.368C71.1689 114.368 81.2822 131.498 77.9799 131.084C74.6775 130.674 63.326 113.336 63.326 113.336C63.326 113.336 46.6077 110.24 43.9247 120.147C41.2415 130.055 45.5758 135.006 48.0524 135.626C50.5294 136.246 66.4218 136.039 66.009 138.105C65.5961 140.167 54.8637 143.469 48.8781 141.613C48.8781 141.613 55.4828 157.917 64.1514 157.091C72.8199 156.267 75.5032 150.9 80.8694 150.487C86.2359 150.074 90.1574 151.519 87.4741 152.962C84.7909 154.408 75.7098 153.439 71.3752 157.122C67.0409 160.806 63.5323 163.078 71.5817 164.728C79.6312 166.38 94.0788 165.347 96.9683 159.156C99.8579 152.962 99.8579 152.962 99.8579 152.962Z" fill="url(#paint2_linear_2196_13244)"></path>
  <path fill-rule="evenodd" clip-rule="evenodd" d="M51.5625 123.242C51.5625 123.242 94.9056 137.278 99.859 152.962C99.859 152.962 99.6527 159.982 103.987 168.029V171.128C103.987 171.128 99.4462 160.599 96.9695 159.156C96.9695 159.156 106.67 145.534 51.5625 123.242Z" fill="url(#paint3_linear_2196_13244)"></path>
  <path fill-rule="evenodd" clip-rule="evenodd" d="M103.989 168.029C103.989 168.029 110.673 178.182 106.862 190.536L105.143 190.074C105.143 190.074 106.812 176.467 103.315 169.622C99.8179 162.776 103.989 168.029 103.989 168.029Z" fill="#09B8BF"></path>
  <path fill-rule="evenodd" clip-rule="evenodd" d="M124.485 141.008C124.485 141.008 104.08 129.581 113.602 114.074C113.602 114.074 121.22 104.552 129.382 102.103C129.382 102.103 125.029 125.229 129.382 125.773C133.735 126.317 132.375 99.6544 132.375 99.6544C132.375 99.6544 153.868 89.3159 162.303 90.1321C162.303 90.1321 148.971 112.714 153.324 112.17C157.677 111.625 172.641 88.7716 172.641 88.7716C172.641 88.7716 194.679 84.6907 198.215 97.7501C201.752 110.809 196.039 117.339 192.774 118.155C189.509 118.971 168.56 118.699 169.104 121.42C169.648 124.14 183.796 128.494 191.686 126.045C191.686 126.045 182.98 147.538 171.553 146.45C160.126 145.363 156.589 138.288 149.515 137.743C142.441 137.201 137.272 139.103 140.809 141.008C144.346 142.913 156.317 141.633 162.03 146.49C167.744 151.347 172.369 154.34 161.758 156.517C151.148 158.695 132.103 157.332 128.294 149.17C124.485 141.008 124.485 141.008 124.485 141.008Z" fill="url(#paint4_linear_2196_13244)"></path>
  <path fill-rule="evenodd" clip-rule="evenodd" d="M188.152 101.831C188.152 101.831 131.018 120.331 124.488 141.008C124.488 141.008 124.76 150.26 119.047 160.869V164.951C119.047 164.951 125.032 151.074 128.297 149.169C128.297 149.169 115.51 131.213 188.152 101.831Z" fill="url(#paint5_linear_2196_13244)"></path>
  <path fill-rule="evenodd" clip-rule="evenodd" d="M119.046 160.869C119.046 160.869 110.236 174.249 115.259 190.535L117.525 189.927C117.525 189.927 115.325 171.988 119.935 162.966C124.545 153.943 119.046 160.869 119.046 160.869Z" fill="#75C88A"></path>
  <path fill-rule="evenodd" clip-rule="evenodd" d="M123.799 225.857C145.874 225.857 163.769 207.961 163.769 185.885H83.8281C83.8281 207.961 101.724 225.857 123.799 225.857Z" fill="#28293D"></path>
  <path fill-rule="evenodd" clip-rule="evenodd" d="M164.318 227.891H83.2734C83.2734 225.166 85.4813 222.96 88.2047 222.96H159.387C162.11 222.96 164.318 225.166 164.318 227.891Z" fill="#D4E4F8"></path>
  <path fill-rule="evenodd" clip-rule="evenodd" d="M82.5156 187.11H164.679V185.885H82.5156V187.11Z" fill="#28293D"></path>
  <path fill-rule="evenodd" clip-rule="evenodd" d="M330.049 357.699L330.247 357.696C331.862 357.667 333.11 356.347 332.958 354.827L322.183 247.224L312.781 248.065L328.253 356.244C328.374 357.09 329.145 357.716 330.049 357.699Z" fill="#9DBFF9"></path>
  <path fill-rule="evenodd" clip-rule="evenodd" d="M226.303 357.699L226.106 357.696C224.491 357.667 223.244 356.347 223.395 354.827L234.171 247.224L243.572 248.065L228.1 356.244C227.979 357.09 227.207 357.716 226.303 357.699Z" fill="#9DBFF9"></path>
  <path fill-rule="evenodd" clip-rule="evenodd" d="M406.057 357.699L406.255 357.696C407.87 357.667 409.118 356.347 408.966 354.827L398.19 247.224L388.789 248.065L404.261 356.244C404.381 357.09 405.153 357.716 406.057 357.699Z" fill="#8CB4F4"></path>
  <path fill-rule="evenodd" clip-rule="evenodd" d="M229.511 231.575L210.386 137.129C207.932 124.342 218.527 112.65 232.285 112.964L269.17 113.806C281.894 114.097 292.956 122.613 296.494 134.839L324.474 231.575H229.511Z" fill="#9DBFF9"></path>
  <path fill-rule="evenodd" clip-rule="evenodd" d="M241.081 231.575L221.957 137.129C219.502 124.342 230.096 112.65 243.856 112.964L280.741 113.806C293.464 114.097 304.526 122.613 308.064 134.839L336.044 231.575H241.081Z" fill="#9DBFF9"></path>
  <path fill-rule="evenodd" clip-rule="evenodd" d="M234.842 248.8H380.77C383.702 248.8 386.1 246.401 386.1 243.469V236.905C386.1 233.973 383.702 231.575 380.77 231.575H229.512V243.469C229.512 246.401 231.91 248.8 234.842 248.8Z" fill="#9DBFF9"></path>
  <path fill-rule="evenodd" clip-rule="evenodd" d="M303.322 248.8H396.348C398.709 248.8 400.643 246.866 400.643 244.505V235.867C400.643 233.506 398.709 231.575 396.348 231.575H303.322C300.961 231.575 299.027 233.506 299.027 235.867V244.505C299.027 246.866 300.961 248.8 303.322 248.8Z" fill="#8CB4F4"></path>
  <path fill-rule="evenodd" clip-rule="evenodd" d="M185.97 230.344V233.566C185.97 234.693 185.604 235.614 185.159 235.614H67.5764C67.1308 235.614 66.7656 234.693 66.7656 233.566V230.344C66.7656 229.217 67.1308 228.296 67.5764 228.296H185.159C185.604 228.296 185.97 229.217 185.97 230.344Z" fill="#9ABFE2"></path>
  <path fill-rule="evenodd" clip-rule="evenodd" d="M185.969 230.344V233.566C185.969 234.693 185.634 235.614 185.225 235.614H91.8773C91.4682 235.614 91.1328 234.693 91.1328 233.566V230.344C91.1328 229.217 91.4682 228.296 91.8773 228.296H185.225C185.634 228.296 185.969 229.217 185.969 230.344Z" fill="#BAD4F4"></path>
  <path fill-rule="evenodd" clip-rule="evenodd" d="M72.7344 357.286H156.211V235.617H72.7344V357.286Z" fill="#C8DBF4"></path>
  <path fill-rule="evenodd" clip-rule="evenodd" d="M96.125 357.286H179.601V235.617H96.125V357.286Z" fill="#DFEBFD"></path>
  <path fill-rule="evenodd" clip-rule="evenodd" d="M101.418 349.763H174.314V239.857H101.418V349.763ZM100.613 350.57H175.118V239.054H100.613V350.57Z" fill="#B7D3F3"></path>
  <path fill-rule="evenodd" clip-rule="evenodd" d="M101.016 276.748H174.716V275.945H101.016V276.748Z" fill="#B7D3F3"></path>
  <path fill-rule="evenodd" clip-rule="evenodd" d="M101.016 314.356H174.716V313.553H101.016V314.356Z" fill="#B7D3F3"></path>
  <path fill-rule="evenodd" clip-rule="evenodd" d="M145.418 246.246H131.742C131.078 246.246 130.535 245.701 130.535 245.039C130.535 244.376 131.078 243.831 131.742 243.831H145.418C146.082 243.831 146.625 244.376 146.625 245.039C146.625 245.701 146.082 246.246 145.418 246.246Z" fill="#B7D3F3"></path>
  <path fill-rule="evenodd" clip-rule="evenodd" d="M145.418 283.022H131.742C131.078 283.022 130.535 282.48 130.535 281.817C130.535 281.152 131.078 280.61 131.742 280.61H145.418C146.082 280.61 146.625 281.152 146.625 281.817C146.625 282.48 146.082 283.022 145.418 283.022Z" fill="#B7D3F3"></path>
  <path fill-rule="evenodd" clip-rule="evenodd" d="M145.418 321.362H131.742C131.078 321.362 130.535 320.82 130.535 320.154C130.535 319.491 131.078 318.949 131.742 318.949H145.418C146.082 318.949 146.625 319.491 146.625 320.154C146.625 320.82 146.082 321.362 145.418 321.362Z" fill="#B7D3F3"></path>
  <path fill-rule="evenodd" clip-rule="evenodd" d="M356.633 211.809C348.738 225.55 338.809 230.852 338.809 230.852H297.5C297.5 230.852 362.655 201.329 356.633 211.809Z" fill="#233862"></path>
  <path fill-rule="evenodd" clip-rule="evenodd" d="M407.581 348.315C407.137 352.65 413.164 353.769 420.155 354.193C427.147 354.615 425.018 356.026 434.586 357.865C444.154 359.704 448.024 357.122 448.732 355.834C449.361 354.692 444.922 352.848 440.194 350.765C439.601 350.504 439.004 350.237 438.41 349.967C433.088 347.56 430.139 342.735 426.019 338.245C422.118 333.991 418.514 320.472 418.514 320.472L405.516 317.549C405.516 317.549 409.044 329.722 410.258 334.914C410.972 337.97 409.833 341.364 408.829 343.946C408.287 345.351 407.739 346.789 407.581 348.315Z" fill="#FFB27D"></path>
  <path fill-rule="evenodd" clip-rule="evenodd" d="M420.16 354.193C427.151 354.615 425.023 356.026 434.59 357.865C444.158 359.704 448.028 357.122 448.737 355.834C449.365 354.692 444.927 352.848 440.199 350.765L440.124 350.845C440.124 350.845 433.36 353.06 425.602 350.862C419.279 349.072 413.189 345.216 408.834 343.946C408.291 345.351 407.743 346.789 407.586 348.315C407.141 352.65 413.168 353.769 420.16 354.193Z" fill="#0F2549"></path>
  <path fill-rule="evenodd" clip-rule="evenodd" d="M387.895 197.734C380.904 192.825 334.64 184.069 311.03 181.536L284.937 158.883C284.937 158.883 262.724 191.783 262.548 216.952C262.468 228.686 267.873 229.85 267.873 229.853C267.873 229.853 351.527 230.476 355.193 230.852C361.195 231.471 369.11 246.424 371.089 260.042C373.069 273.661 407.951 329.05 407.951 329.05C407.951 329.05 415.227 331.383 418.589 331.185C422.207 330.972 423.882 329.759 423.882 329.759C423.882 329.759 403.668 208.81 387.895 197.734Z" fill="#233862"></path>
  <path fill-rule="evenodd" clip-rule="evenodd" d="M385.948 348.315C385.504 352.65 391.531 353.769 398.523 354.193C405.514 354.615 403.385 356.026 412.953 357.865C422.521 359.704 426.391 357.122 427.097 355.834C427.728 354.692 423.29 352.848 418.562 350.765C417.968 350.504 417.371 350.237 416.777 349.967C411.455 347.56 408.506 342.735 404.387 338.245C400.485 333.991 396.882 320.472 396.882 320.472L383.883 317.549C383.883 317.549 387.412 329.722 388.625 334.914C389.339 337.97 388.2 341.364 387.196 343.946C386.651 345.351 386.106 346.789 385.948 348.315Z" fill="#FFB27D"></path>
  <path fill-rule="evenodd" clip-rule="evenodd" d="M398.523 354.193C405.515 354.615 403.386 356.026 412.954 357.865C422.521 359.704 426.391 357.122 427.097 355.834C427.728 354.692 423.29 352.848 418.562 350.765L418.488 350.845C418.488 350.845 411.723 353.06 403.965 350.862C397.642 349.072 391.552 345.216 387.197 343.946C386.652 345.351 386.107 346.789 385.949 348.315C385.504 352.65 391.532 353.769 398.523 354.193Z" fill="#233862"></path>
  <path fill-rule="evenodd" clip-rule="evenodd" d="M366.066 197.734C359.99 193.467 341.715 190.16 321.544 187.707C315.967 187.027 311.385 182.973 310.026 177.522L263.105 158.883C263.105 158.883 240.894 191.783 240.716 216.952C240.636 228.686 246.041 229.85 246.041 229.853C246.041 229.853 329.694 230.476 333.361 230.852C339.363 231.471 347.281 246.424 349.257 260.042C351.237 273.661 386.119 329.05 386.119 329.05C386.119 329.05 393.395 331.383 396.757 331.185C400.378 330.972 402.05 329.759 402.05 329.759C402.05 329.759 381.836 208.81 366.066 197.734Z" fill="#25245D"></path>
  <path fill-rule="evenodd" clip-rule="evenodd" d="M303.284 22.1978C296.835 18.812 287.026 18.3541 285.431 18.1398C266.359 15.5768 254.88 43.2912 254.203 51.6886C252.961 67.1673 244.773 69.5273 233.246 79.2212C210.137 98.6583 216.913 121.244 229.551 129.638C237.131 134.673 250.497 129.635 250.497 129.635C250.686 129.767 287.046 109.31 304.968 99.4412C331.838 95.6216 319.714 30.8257 303.284 22.1978Z" fill="#233862"></path>
  <path fill-rule="evenodd" clip-rule="evenodd" d="M299.299 89.9077C299.385 89.9508 290.825 93.843 284.648 91.8018C278.836 89.8868 273.717 81.1368 273.798 81.1241C276.322 80.7584 278.884 78.2699 279.602 63.5239L280.718 63.8051L299.5 68.5522C299.5 68.5522 298.757 74.5022 298.45 80.1281C298.192 84.8514 298.246 89.3469 299.299 89.9077Z" fill="#FFB27D"></path>
  <path fill-rule="evenodd" clip-rule="evenodd" d="M299.502 68.5519C299.502 68.5519 299.502 69.7763 298.799 75.3118C288.178 72.6325 283.493 69.1101 280.191 65.0791L299.502 68.5519Z" fill="#ED975D"></path>
  <path fill-rule="evenodd" clip-rule="evenodd" d="M303.511 69.3012C303.511 69.3012 278.672 73.3448 276.394 57.8389C274.113 42.3332 269.371 32.4121 285.133 29.1746C300.894 25.9374 304.853 31.4 306.873 36.3904C308.893 41.3808 309.911 67.8495 303.511 69.3012Z" fill="#FFB27D"></path>
  <path fill-rule="evenodd" clip-rule="evenodd" d="M303.535 28.5251C303.535 28.5251 292.257 46.3293 282.188 50.5459C272.118 54.7626 267.172 52.6218 267.172 52.6218C267.172 52.6218 271.753 45.6763 272.947 36.3505C273.297 33.6015 275.09 31.2445 277.66 30.2143C284.887 27.3204 298.864 22.7572 303.535 28.5251Z" fill="#233862"></path>
  <path fill-rule="evenodd" clip-rule="evenodd" d="M293.625 30.2459C293.625 30.2459 300.235 33.6352 302.957 36.8116C305.585 39.877 308.621 48.1944 308.403 51.9296C308.403 51.9296 311.664 34.0288 304.871 27.8753C297.667 21.3504 293.625 30.2459 293.625 30.2459Z" fill="#233862"></path>
  <path fill-rule="evenodd" clip-rule="evenodd" d="M319.172 127.789C318.421 178.274 318.966 167.723 313.443 172.514C312.112 173.667 308.374 174.356 303.448 174.68C287.968 175.707 260.757 173.159 259.721 170.296C256.149 160.399 258.671 157.323 255.693 142.167C255.38 140.555 254.996 138.81 254.545 136.911C252.061 126.502 249.645 122.961 258.456 106.239C266.448 91.091 275.847 78.7859 276.593 79.2294C297.676 91.7451 298.399 81.254 298.399 81.254C298.399 81.254 319.542 103.163 319.172 127.789Z" fill="white"></path>
  <path fill-rule="evenodd" clip-rule="evenodd" d="M298.398 81.2539C298.398 81.2539 319.978 84.9117 322.526 94.2525C325.073 103.593 340.063 158.505 340.063 158.505C340.063 158.505 329.035 160.487 323.94 155.392C318.845 150.297 306.21 108.122 306.21 108.122L298.398 81.2539Z" fill="white"></path>
  <path fill-rule="evenodd" clip-rule="evenodd" d="M303.447 174.68C287.966 175.707 260.755 173.159 259.719 170.296C256.148 160.398 258.669 157.323 255.691 142.167L263.156 121.143C263.156 121.143 261.923 144.557 268.828 150.713C275.725 156.873 297.098 162.602 300.454 167.746C302.072 170.216 303.137 172.692 303.447 174.68Z" fill="#EBF3FF"></path>
  <path fill-rule="evenodd" clip-rule="evenodd" d="M285.711 164.833C285.711 164.833 300.982 161.434 303.446 162.788C305.911 164.142 311.935 169.079 312.687 170.798C313.441 172.513 307.202 169.492 305.173 168.947C303.857 168.594 300.397 169.799 298.684 170.37C291.477 172.772 287.059 171.535 287.059 171.535L285.711 164.833Z" fill="#FFB27D"></path>
  <path fill-rule="evenodd" clip-rule="evenodd" d="M276.593 79.2295C276.593 79.2295 254.979 80.4927 247.879 90.394C237.886 104.332 218.062 163.732 229.423 171.653C242.218 180.575 287.655 173.986 287.655 173.986C287.655 173.986 289.167 166.92 287.062 163.5C284.959 160.083 250.773 154.56 249.195 152.983C247.617 151.405 268.916 122.214 268.916 117.48C268.916 112.747 276.593 79.2295 276.593 79.2295Z" fill="white"></path>
  <path fill-rule="evenodd" clip-rule="evenodd" d="M304.188 167.04C304.188 167.04 307.386 171.165 308.436 171.659C309.486 172.152 310.163 172.029 310.163 172.029L308.006 168.147L304.188 167.04Z" fill="#FFB27D"></path>
  <path fill-rule="evenodd" clip-rule="evenodd" d="M303.445 162.788L312.749 167.307C312.749 167.307 312.353 167.955 311.208 167.9C310.064 167.849 307.175 166.793 307.175 166.793L303.445 162.788Z" fill="#FFB27D"></path>
  <path fill-rule="evenodd" clip-rule="evenodd" d="M337.723 173.498H294.512C294.512 171.596 296.055 170.055 297.957 170.055H337.723V173.498Z" fill="#4BA278"></path>
  <path fill-rule="evenodd" clip-rule="evenodd" d="M337.596 126.438H404.404L388.378 173.497H321.141L337.596 126.438Z" fill="#4BA278"></path>
  <path fill-rule="evenodd" clip-rule="evenodd" d="M405.388 126.438L389.363 173.498H322.125L338.584 126.438H405.388Z" fill="#64D09C"></path>
  <path fill-rule="evenodd" clip-rule="evenodd" d="M369.37 149.534C368.956 151.333 367.161 152.79 365.362 152.79C363.566 152.79 362.444 151.333 362.86 149.534C363.273 147.735 365.069 146.278 366.865 146.278C368.664 146.278 369.786 147.735 369.37 149.534Z" fill="white"></path>
  <path fill-rule="evenodd" clip-rule="evenodd" d="M279.577 184.087H572.342C573.572 184.087 574.571 183.088 574.571 181.857V175.727C574.571 174.496 573.572 173.498 572.342 173.498H279.577C278.346 173.498 277.348 174.496 277.348 175.727V181.857C277.348 183.088 278.346 184.087 279.577 184.087Z" fill="#182D4F"></path>
  <path fill-rule="evenodd" clip-rule="evenodd" d="M579.508 358.488L579.635 358.473C581.135 358.287 582.196 356.947 582.007 355.481L555.918 178.885L546.367 179.158L577.061 356.712C577.259 357.848 578.338 358.631 579.508 358.488Z" fill="#182D4F"></path>
  <path fill-rule="evenodd" clip-rule="evenodd" d="M269.771 358.488L269.644 358.473C268.144 358.287 267.083 356.947 267.272 355.481L293.361 178.885L302.912 179.158L272.215 356.712C272.02 357.848 270.941 358.631 269.771 358.488Z" fill="#182D4F"></path>
  <path fill-rule="evenodd" clip-rule="evenodd" d="M330.167 358.488L330.041 358.473C328.543 358.287 327.479 356.947 327.671 355.481L353.757 178.885L363.311 179.158L332.614 356.712C332.416 357.848 331.337 358.631 330.167 358.488Z" fill="#182D4F"></path>
  <path fill-rule="evenodd" clip-rule="evenodd" d="M812.077 359.942H1.25697C0.647333 359.942 0.148438 359.443 0.148438 358.835V357.928C0.148438 357.317 0.647333 356.818 1.25697 356.818H812.077C812.685 356.818 813.185 357.317 813.185 357.928V358.835C813.185 359.443 812.685 359.942 812.077 359.942Z" fill="#2E3552"></path>
  <path fill-rule="evenodd" clip-rule="evenodd" d="M484.082 358.344H535.854C538.344 355.306 537.426 344.095 537.05 340.434C536.97 339.697 536.918 339.266 536.918 339.266C536.918 339.266 519.24 325.126 516.81 335.953C516.735 336.291 516.647 336.624 516.549 336.951C513.491 347.078 499.766 351.683 491.842 352.962C486.69 353.8 484.788 356.477 484.082 358.344Z" fill="#233862"></path>
  <path fill-rule="evenodd" clip-rule="evenodd" d="M625.343 190.125C623.472 190.125 536.663 206.424 522.305 224.199C515.13 233.078 514.062 335.629 514.062 335.629C514.062 335.629 522.939 346.631 542.106 340.242C542.106 340.242 556.157 270.081 555.122 248.8C554.832 242.916 614.433 247.947 625.343 245.125C636.25 242.302 662.905 218.57 657.03 207.012C651.157 195.45 625.343 190.125 625.343 190.125Z" fill="#233862"></path>
  <path fill-rule="evenodd" clip-rule="evenodd" d="M522.676 165.015C522.676 165.015 505.168 165.25 501.025 167.026C496.885 168.799 488.482 172.872 490.732 173.498C492.981 174.123 503.707 173.243 506.025 173.595C508.343 173.951 511.201 173.498 512.621 173.498C514.041 173.498 520.662 173.498 520.662 173.498L522.676 165.015Z" fill="#FFB27D"></path>
  <path fill-rule="evenodd" clip-rule="evenodd" d="M502.205 122.991C502.205 122.991 496.235 118.725 490.437 117.897C487.132 117.424 483.916 116.835 481.973 116.15C476.623 114.265 465.919 104.642 466.731 103.512C469.325 99.8942 481.821 107.551 484.002 106.729C486.185 105.907 479.81 101.375 482.028 99.7814C483.184 98.9489 485.892 103.121 488.107 103.54C491.102 104.107 493.446 108.337 494.347 108.558C496.103 108.987 503.788 114.705 503.788 114.705L502.205 122.991Z" fill="#FFB27D"></path>
  <path fill-rule="evenodd" clip-rule="evenodd" d="M616.699 73.1699C616.699 73.1699 603.371 77.3011 590.237 113.466C577.103 149.631 572.114 151.585 567.341 153.005C562.567 154.422 520.664 162.765 520.664 162.765V173.497H585.231C585.231 173.497 609.441 150.469 616.699 134.966C623.958 119.461 616.699 73.1699 616.699 73.1699Z" fill="#5AB78A"></path>
  <path fill-rule="evenodd" clip-rule="evenodd" d="M461.203 358.344H512.972C515.462 355.306 514.544 344.095 514.168 340.434C514.091 339.697 514.039 339.266 514.039 339.266C514.039 339.266 496.358 325.126 493.931 335.953C493.857 336.291 493.768 336.624 493.67 336.951C490.609 347.078 476.887 351.683 468.963 352.962C463.811 353.8 461.906 356.477 461.203 358.344Z" fill="#1B3051"></path>
  <path fill-rule="evenodd" clip-rule="evenodd" d="M599.765 190.125C597.894 190.125 511.085 206.424 496.727 224.199C489.552 233.078 488.484 335.629 488.484 335.629C488.484 335.629 497.361 346.631 516.528 340.242C516.528 340.242 530.579 270.081 529.544 248.8C529.254 242.916 588.855 247.947 599.765 245.125C610.672 242.302 637.327 218.57 631.451 207.012C625.579 195.45 599.765 190.125 599.765 190.125Z" fill="#0063F7"></path>
  <path fill-rule="evenodd" clip-rule="evenodd" d="M605.195 84.6314C611.438 84.1155 617.988 82.451 623.645 80.6149C630.72 78.3196 636.423 74.9647 632.748 68.4989C629.36 62.5399 623.88 49.2278 624.25 38.2002L602.146 56.0133C602.146 56.0133 602.183 60.2609 603.158 67.7053C603.339 69.0623 603.546 70.5272 603.792 72.0927C603.993 73.3573 603.411 74.6207 602.324 75.2955C602.255 75.3374 602.189 75.3793 602.123 75.4214C597.679 78.2134 599.963 85.0631 605.195 84.6314Z" fill="#FFB27D"></path>
  <path fill-rule="evenodd" clip-rule="evenodd" d="M602.149 54.2604C602.149 54.2604 601.69 55.8028 602.476 61.498C610.448 60.1976 617.902 53.8393 617.902 53.8393C613.842 52.725 612.365 48.3397 609.344 48.7485L602.149 54.2604Z" fill="#ED975D"></path>
  <path fill-rule="evenodd" clip-rule="evenodd" d="M594.773 55.5591C594.773 55.5591 625.436 60.6533 628.316 41.5088C631.194 22.364 637.089 10.128 617.632 6.06598C598.176 2.00395 593.267 8.73604 590.751 14.8923C588.235 21.0489 586.87 53.7405 594.773 55.5591Z" fill="#FFB27D"></path>
  <path fill-rule="evenodd" clip-rule="evenodd" d="M586.244 6.41994C584.927 11.0299 588.45 16.6454 594.366 18.4938C603.147 21.2379 601.208 32.0091 605.158 31.8628C609.109 31.7165 610.704 25.6715 614.233 30.5012C617.245 34.6209 611.728 39.5049 612.107 41.7641C612.758 45.6422 618.834 53.5775 624.308 53.1796C629.785 52.7814 640.029 26.7628 637.978 18.7136C635.93 10.6641 627.734 2.17573 619.979 1.00466C612.222 -0.166121 601.449 3.18328 598.962 3.18328C596.474 3.18328 586.955 3.92976 586.244 6.41994Z" fill="#2B478B"></path>
  <path fill-rule="evenodd" clip-rule="evenodd" d="M657.443 99.7407C653.01 81.9024 640.76 63.1844 632.478 63.2002C618.366 63.2272 598.074 66.9516 589.884 87.1598C583.85 102.043 575.803 187.658 584.898 193.746C605.688 207.666 653.882 236.082 662.443 207.103C670.289 180.555 665.134 130.7 657.443 99.7407Z" fill="#64D09C"></path>
  <path fill-rule="evenodd" clip-rule="evenodd" d="M623.164 81.9895C619.139 71.5156 606.152 67.8951 597.296 74.785C592.505 78.5116 586.641 83.8184 579.555 91.3636C553.216 119.412 547.862 119.237 542.916 118.658C537.968 118.079 496.174 109.208 496.174 109.208C496.174 109.208 494.034 110.787 492.774 113.339C491.093 116.748 491.94 119.071 491.94 119.071C490.301 118.012 506.754 129.354 514.945 133.876C525.758 139.846 542.053 145.446 548.545 147.572C550.384 148.174 552.367 148.142 554.188 147.485C563.822 144.014 596.174 131.362 622.507 109.406C629.447 103.622 626.897 91.7007 623.164 81.9895Z" fill="#64D09C"></path>
  <path fill-rule="evenodd" clip-rule="evenodd" d="M633.901 63.3719L630.708 56.1733C630.708 56.1733 602.105 58.5057 597.297 74.7848C597.297 74.7848 619.468 63.721 633.901 63.3719Z" fill="white"></path>
  <path fill-rule="evenodd" clip-rule="evenodd" d="M703.342 357.699L703.54 357.696C705.155 357.667 706.4 356.347 706.248 354.827L695.476 247.224L686.074 248.065L701.543 356.244C701.667 357.09 702.438 357.716 703.342 357.699Z" fill="#8CB4F4"></path>
  <path fill-rule="evenodd" clip-rule="evenodd" d="M647.881 357.699L648.079 357.696C649.694 357.667 650.942 356.347 650.79 354.827L640.015 247.224L630.613 248.065L646.085 356.244C646.206 357.09 646.977 357.716 647.881 357.699Z" fill="#8CB4F4"></path>
  <path fill-rule="evenodd" clip-rule="evenodd" d="M543.77 357.699L543.572 357.696C541.96 357.667 540.712 356.347 540.864 354.827L551.637 247.224L561.038 248.065L545.569 356.244C545.449 357.09 544.674 357.716 543.77 357.699Z" fill="#73A2E5"></path>
  <path fill-rule="evenodd" clip-rule="evenodd" d="M700.297 231.982L710.522 142.112C711.861 129.161 707.529 116.479 688.839 115.498L655.962 113.495C636.473 112.691 627.675 128.91 625.207 141.395L605.688 240.187L700.297 231.982Z" fill="#8CB4F4"></path>
  <path fill-rule="evenodd" clip-rule="evenodd" d="M694.801 248.8H548.876C545.944 248.8 543.543 246.401 543.543 243.469V236.905C543.543 233.973 545.944 231.575 548.876 231.575H700.131V243.469C700.131 246.401 697.733 248.8 694.801 248.8Z" fill="#73A2E5"></path>
  <path fill-rule="evenodd" clip-rule="evenodd" d="M695.991 248.8H609.827C607.552 248.8 605.688 246.935 605.688 244.66V235.715C605.688 233.437 607.552 231.575 609.827 231.575H700.131V244.66C700.131 246.935 698.269 248.8 695.991 248.8Z" fill="#8CB4F4"></path>
  <defs>
    <linearGradient id="paint0_linear_2196_13244" x1="110.537" y1="157.881" x2="134.43" y2="207.019" gradientUnits="userSpaceOnUse">
      <stop stop-color="#FDDD48"></stop>
      <stop offset="1" stop-color="#00B7C4"></stop>
    </linearGradient>
    <linearGradient id="paint1_linear_2196_13244" x1="107.455" y1="165.491" x2="116.2" y2="196.493" gradientUnits="userSpaceOnUse">
      <stop stop-color="#FDDD48"></stop>
      <stop offset="1" stop-color="#00B7C4"></stop>
    </linearGradient>
    <linearGradient id="paint2_linear_2196_13244" x1="21.4507" y1="130.934" x2="53.7744" y2="190.867" gradientUnits="userSpaceOnUse">
      <stop stop-color="#FDDD48"></stop>
      <stop offset="1" stop-color="#00B7C4"></stop>
    </linearGradient>
    <linearGradient id="paint3_linear_2196_13244" x1="34.6289" y1="139.694" x2="66.3711" y2="190.267" gradientUnits="userSpaceOnUse">
      <stop stop-color="#FDDD48"></stop>
      <stop offset="1" stop-color="#00B7C4"></stop>
    </linearGradient>
    <linearGradient id="paint4_linear_2196_13244" x1="82.5612" y1="111.969" x2="125.171" y2="190.973" gradientUnits="userSpaceOnUse">
      <stop stop-color="#FDDD48"></stop>
      <stop offset="1" stop-color="#00B7C4"></stop>
    </linearGradient>
    <linearGradient id="paint5_linear_2196_13244" x1="96.7253" y1="123.517" x2="138.566" y2="190.181" gradientUnits="userSpaceOnUse">
      <stop stop-color="#FDDD48"></stop>
      <stop offset="1" stop-color="#00B7C4"></stop>
    </linearGradient>
  </defs>
</svg>
