<?xml version="1.0" encoding="UTF-8"?>
<svg xmlns="http://www.w3.org/2000/svg" width="114" height="114" viewBox="0 0 114 114" fill="none">
  <circle cx="57" cy="57" r="57" fill="#E5F0FF"></circle>
  <mask id="mask0_8281_37503" style="mask-type:alpha" maskUnits="userSpaceOnUse" x="27" y="27" width="60" height="60">
    <rect x="27" y="27" width="60" height="60" fill="#D9D9D9"></rect>
  </mask>
  <g mask="url(#mask0_8281_37503)">
    <path d="M83.9771 69.6369C83.7712 69.3015 83.5367 68.9373 83.2888 68.5517C81.9187 66.4218 80.0422 63.5051 80.0778 60.9492C80.1379 56.6293 78.9433 52.42 76.6274 48.7834C74.7161 45.6928 71.9025 43.2848 68.4909 41.8193C65.4539 40.5148 61.9878 39.963 58.4409 40.2111C56.5863 36.4298 52.6969 33.8201 48.2089 33.8201C41.9289 33.8201 36.82 38.9292 36.82 45.2091C36.82 47.3635 37.4249 49.4613 38.5692 51.2756C38.834 51.6945 39.1006 52.1123 39.3688 52.529C39.5529 52.8158 39.7306 53.0927 39.9025 53.3636C39.1785 55.8178 39.034 58.488 39.4768 61.3067C40.181 65.7907 42.5639 70.8196 46.5608 76.2569L46.4747 86.1219C46.4741 86.2045 46.4899 86.2864 46.5212 86.3628C46.5524 86.4393 46.5984 86.5088 46.6566 86.5674C46.7148 86.6261 46.784 86.6726 46.8603 86.7043C46.9365 86.7361 47.0183 86.7524 47.1009 86.7525H58.2767H69.4525C69.6186 86.7525 69.7779 86.6865 69.8953 86.5691C70.0127 86.4516 70.0787 86.2924 70.0787 86.1263V84.8392C72.5729 84.9316 76.3671 83.889 77.5938 82.6851C78.0857 82.2024 78.1513 81.7473 78.1161 81.4441L77.521 73.7632C78.5316 73.6241 79.3523 73.6072 80.0897 73.5921C80.9359 73.5747 81.6666 73.5597 82.3927 73.3582C83.6094 73.0204 84.0955 72.3627 84.2892 71.8703C84.5558 71.192 84.4449 70.3987 83.9771 69.6369ZM65.9402 46.7876C66.9694 47.4353 68.2108 48.6436 68.6022 50.8001C67.0597 50.6855 65.5125 50.9502 64.0959 51.5712C64.0206 51.6042 63.9525 51.6517 63.8955 51.711C63.8386 51.7703 63.7938 51.8402 63.7639 51.9168C63.734 51.9934 63.7194 52.0752 63.7211 52.1574C63.7227 52.2396 63.7405 52.3207 63.7735 52.396C63.8065 52.4713 63.854 52.5394 63.9133 52.5964C63.9726 52.6533 64.0426 52.6981 64.1192 52.728C64.1958 52.7579 64.2775 52.7725 64.3597 52.7708C64.4419 52.7692 64.523 52.7513 64.5983 52.7183C66.0477 52.0825 67.6497 51.8781 69.2123 52.1299C71.7963 52.6566 73.6708 54.9535 73.6708 57.5961C73.6708 60.6723 71.168 63.1753 68.0915 63.1753C67.1304 63.1756 66.1856 62.9276 65.3486 62.4553C65.2673 62.4094 65.1768 62.3822 65.0836 62.3758C64.9905 62.3693 64.8971 62.3838 64.8102 62.4181C64.7234 62.4524 64.6453 62.5056 64.5817 62.574C64.5181 62.6423 64.4705 62.724 64.4425 62.8131C63.8192 64.8038 62.158 66.2686 60.1069 66.6354L60.1032 66.6362L60.1012 66.6364C59.4003 66.768 58.6797 66.7511 57.9858 66.5866C57.292 66.4222 56.6403 66.1139 56.0731 65.6817C55.9408 65.5855 55.776 65.5448 55.6141 65.5685C55.4522 65.5922 55.306 65.6782 55.2067 65.8083C55.1074 65.9384 55.063 66.1022 55.083 66.2646C55.1029 66.427 55.1856 66.5752 55.3133 66.6774C56.4193 67.52 57.7713 67.9764 59.1617 67.9764C59.1702 67.9764 59.1787 67.9759 59.1872 67.9758C58.543 69.0741 57.5421 69.9187 56.351 70.369C56.2328 70.4136 56.1309 70.493 56.0587 70.5967C55.9865 70.7004 55.9473 70.8235 55.9464 70.9498C55.9301 73.0157 55.0099 74.9258 53.4709 76.2164C53.8051 74.4675 53.7798 72.7223 53.3932 71.0093C53.3681 70.8977 53.3128 70.7951 53.2334 70.7127C53.1541 70.6303 53.0536 70.5712 52.943 70.5419C50.9611 70.0163 49.4292 68.4183 48.9539 66.4563H51.7855C51.9516 66.4563 52.1108 66.3903 52.2283 66.2729C52.3457 66.1555 52.4117 65.9962 52.4117 65.8301V63.6696H53.0645C53.2306 63.6696 53.3898 63.6036 53.5073 63.4862C53.6247 63.3687 53.6907 63.2095 53.6907 63.0434V59.4169C54.4248 56.62 55.5276 54.8997 57.0495 52.5289C57.3177 52.1122 57.5842 51.6944 57.8491 51.2755C58.8413 49.7016 59.4311 47.9077 59.5665 46.052C61.6458 45.386 64.1572 45.6654 65.9402 46.7876ZM47.3506 58.7073V48.5233H49.0679V58.7073H47.3506ZM52.4383 59.9596V62.4175H43.98V59.9596H52.4383ZM45.2592 63.6698H51.1593V65.2042H45.2592V63.6698ZM38.0726 45.2092C38.0726 39.6199 42.62 35.0726 48.2092 35.0726C53.7984 35.0726 58.3458 39.62 58.3458 45.2092C58.3458 47.1268 57.8076 48.9938 56.7896 50.6078C56.5266 51.0238 56.2619 51.4387 55.9955 51.8525C54.5385 54.1222 53.3721 55.9419 52.5865 58.7072H50.3201V48.5231H51.714C53.173 48.5231 54.3601 47.336 54.3601 45.8771C54.3601 44.4181 53.173 43.2311 51.714 43.2311C50.255 43.2311 49.0678 44.4181 49.0678 45.8771V47.2708H47.3504V45.8771C47.3504 44.4181 46.1634 43.2311 44.7044 43.2311C43.2454 43.2311 42.0583 44.4181 42.0583 45.8771C42.0583 47.336 43.2454 48.5231 44.7044 48.5231H46.0981V58.7072H43.8317C43.0461 55.9419 41.8797 54.1222 40.4227 51.8525C40.1691 51.4574 39.9044 51.045 39.6286 50.6078C38.6106 48.9936 38.0726 47.1268 38.0726 45.2092ZM50.3203 45.8772C50.3203 45.1087 50.9455 44.4836 51.7141 44.4836C52.4827 44.4836 53.1078 45.1087 53.1078 45.8772C53.1078 46.6456 52.4827 47.2709 51.7141 47.2709H50.3203V45.8772ZM44.7045 47.2709C43.9359 47.2709 43.3108 46.6457 43.3108 45.8772C43.3108 45.1086 43.9359 44.4836 44.7045 44.4836C45.4731 44.4836 46.0982 45.1087 46.0982 45.8772V47.2709H44.7045ZM83.1237 71.4121C82.9619 71.8236 82.4547 72.0412 82.0579 72.1514C81.4837 72.3107 80.8572 72.3236 80.0641 72.34C79.1955 72.3578 78.1149 72.38 76.7454 72.6166C76.5918 72.6431 76.4536 72.726 76.3578 72.849C76.2621 72.972 76.2157 73.1264 76.2277 73.2818L76.8686 81.555C76.8697 81.5667 76.8707 81.5678 76.8722 81.5793C76.84 81.7823 76.1129 82.4209 74.1613 82.9952C72.4683 83.4935 70.6573 83.7059 69.5475 83.5359C69.4583 83.5223 69.3672 83.5281 69.2805 83.5529C69.1937 83.5778 69.1134 83.6211 69.0449 83.6798C68.9765 83.7386 68.9215 83.8115 68.8838 83.8934C68.8461 83.9754 68.8266 84.0645 68.8265 84.1548V85.5H58.2789H47.7314L47.8146 76.0571C47.8155 75.9215 47.7724 75.7893 47.6918 75.6803C43.7414 70.3424 41.3939 65.441 40.714 61.1124C40.3683 58.9114 40.4036 56.8136 40.8157 54.8558C41.6176 56.2369 42.2508 57.6005 42.7277 59.417V63.0435C42.7277 63.2096 42.7936 63.3689 42.9111 63.4863C43.0285 63.6037 43.1878 63.6697 43.3538 63.6697H44.0067V65.8302C44.0067 65.9963 44.0727 66.1556 44.1901 66.273C44.3075 66.3904 44.4668 66.4564 44.6329 66.4564H47.6723C48.1432 68.8648 49.9067 70.8718 52.246 71.641C52.6129 73.5452 52.4867 75.4947 51.8696 77.4416C51.8324 77.5595 51.8309 77.6858 51.8652 77.8045C51.8996 77.9233 51.9684 78.0293 52.0629 78.109C52.1574 78.1888 52.2734 78.2388 52.3962 78.2527C52.5191 78.2667 52.6433 78.244 52.7533 78.1875C55.3464 76.8521 57.016 74.2695 57.1848 71.3789C58.7604 70.6699 60.0084 69.3896 60.6769 67.7964C61.7142 67.5563 62.6807 67.0758 63.4983 66.3936C64.316 65.7115 64.9619 64.8469 65.3842 63.8693C66.2393 64.2376 67.1605 64.4276 68.0915 64.4276C71.8584 64.4276 74.9231 61.363 74.9231 57.5961C74.9231 54.5122 72.838 51.8125 69.9021 51.0075C69.5334 48.1389 67.9264 46.558 66.6072 45.7278C64.6077 44.4693 61.9391 44.111 59.5877 44.7403C59.5425 43.6126 59.3289 42.4979 58.954 41.4334C66.0434 41.0638 72.2083 44.0188 75.5667 49.449C77.7556 52.8859 78.8824 56.8566 78.8254 60.9317C78.7847 63.8651 80.7792 66.9654 82.2354 69.2291C82.4799 69.6091 82.7108 69.968 82.9098 70.2921C83.1671 70.7107 83.2429 71.1087 83.1237 71.4121ZM47.5829 31.1967V27.6262C47.5829 27.2803 47.8632 27 48.2091 27C48.5549 27 48.8352 27.2803 48.8352 27.6262V31.1967C48.8352 31.5426 48.5549 31.8229 48.2091 31.8229C47.8632 31.8229 47.5829 31.5426 47.5829 31.1967ZM38.8753 30.295C38.8342 30.2238 38.8075 30.1452 38.7968 30.0637C38.786 29.9822 38.7915 29.8993 38.8127 29.8199C38.834 29.7405 38.8707 29.666 38.9208 29.6008C38.9709 29.5355 39.0333 29.4808 39.1045 29.4397C39.1757 29.3985 39.2543 29.3718 39.3359 29.361C39.4174 29.3502 39.5003 29.3556 39.5797 29.3769C39.6592 29.3982 39.7336 29.435 39.7989 29.4851C39.8641 29.5351 39.9188 29.5976 39.9599 29.6689L41.7452 32.7609C41.8002 32.856 41.8292 32.964 41.8293 33.0739C41.8293 33.1838 41.8005 33.2917 41.7456 33.3869C41.6907 33.4822 41.6117 33.5612 41.5166 33.6162C41.4214 33.6712 41.3135 33.7002 41.2036 33.7003C41.0935 33.7004 40.9854 33.6716 40.8901 33.6166C40.7948 33.5616 40.7156 33.4824 40.6607 33.3871L38.8753 30.295ZM36.6164 38.516C36.5753 38.5873 36.5206 38.6497 36.4553 38.6998C36.3901 38.7499 36.3156 38.7866 36.2362 38.8079C36.1568 38.8292 36.0739 38.8346 35.9924 38.8239C35.9108 38.8131 35.8322 38.7864 35.761 38.7452L32.6689 36.96C32.5976 36.9189 32.5352 36.8642 32.4852 36.7989C32.4351 36.7337 32.3984 36.6592 32.3771 36.5798C32.3558 36.5004 32.3504 36.4175 32.3611 36.336C32.3719 36.2545 32.3986 36.1759 32.4397 36.1047C32.4808 36.0334 32.5355 35.971 32.6007 35.9209C32.666 35.8708 32.7404 35.8341 32.8199 35.8128C32.8993 35.7915 32.9822 35.7861 33.0637 35.7968C33.1452 35.8076 33.2238 35.8343 33.295 35.8755L36.3872 37.6607C36.4584 37.7018 36.5208 37.7565 36.5709 37.8218C36.621 37.887 36.6577 37.9615 36.679 38.0409C36.7003 38.1203 36.7057 38.2032 36.6949 38.2847C36.6842 38.3662 36.6575 38.4448 36.6164 38.516ZM34.1968 45.8354H30.6262C30.2803 45.8354 30 45.5551 30 45.2092C30 44.8633 30.2803 44.583 30.6262 44.583H34.1968C34.5427 44.583 34.823 44.8633 34.823 45.2092C34.823 45.5551 34.5427 45.8354 34.1968 45.8354ZM36.6164 51.9022C36.6575 51.9734 36.6842 52.052 36.6949 52.1335C36.7057 52.2151 36.7003 52.2979 36.679 52.3773C36.6577 52.4568 36.621 52.5312 36.5709 52.5965C36.5208 52.6617 36.4584 52.7164 36.3872 52.7575L33.295 54.5428C33.2238 54.584 33.1452 54.6107 33.0637 54.6215C32.9821 54.6323 32.8993 54.6269 32.8198 54.6056C32.7404 54.5843 32.6659 54.5475 32.6007 54.4974C32.5355 54.4473 32.4807 54.3849 32.4397 54.3136C32.3986 54.2424 32.3719 54.1638 32.3611 54.0822C32.3504 54.0007 32.3558 53.9179 32.3771 53.8384C32.3984 53.759 32.4351 53.6845 32.4852 53.6193C32.5352 53.5541 32.5976 53.4993 32.6689 53.4582L35.761 51.673C35.8322 51.6318 35.9108 51.6051 35.9924 51.5943C36.0739 51.5835 36.1568 51.5889 36.2362 51.6102C36.3157 51.6315 36.3901 51.6682 36.4554 51.7183C36.5206 51.7684 36.5753 51.8309 36.6164 51.9022ZM54.673 32.7609L56.4584 29.6689C56.4994 29.5976 56.5541 29.5351 56.6194 29.4851C56.6846 29.435 56.7591 29.3982 56.8385 29.3769C56.918 29.3556 57.0008 29.3502 57.0824 29.361C57.1639 29.3718 57.2425 29.3985 57.3137 29.4397C57.3849 29.4808 57.4474 29.5355 57.4974 29.6008C57.5475 29.666 57.5842 29.7405 57.6055 29.8199C57.6268 29.8993 57.6322 29.9822 57.6215 30.0637C57.6107 30.1452 57.584 30.2238 57.5429 30.295L55.7575 33.3871C55.7165 33.4583 55.6617 33.5208 55.5965 33.5708C55.5313 33.6209 55.4568 33.6577 55.3774 33.679C55.2979 33.7002 55.2151 33.7057 55.1335 33.6949C55.052 33.6841 54.9734 33.6574 54.9022 33.6162C54.831 33.5751 54.7685 33.5204 54.7185 33.4552C54.6684 33.3899 54.6317 33.3155 54.6104 33.236C54.5891 33.1566 54.5837 33.0738 54.5944 32.9922C54.6052 32.9107 54.6319 32.8321 54.673 32.7609ZM59.8019 38.5159C59.7607 38.4447 59.734 38.3661 59.7233 38.2846C59.7125 38.203 59.718 38.1202 59.7393 38.0408C59.7605 37.9613 59.7973 37.8869 59.8473 37.8216C59.8974 37.7564 59.9598 37.7017 60.031 37.6606L63.1232 35.8753C63.1944 35.8342 63.273 35.8074 63.3545 35.7967C63.4361 35.7859 63.5189 35.7913 63.5984 35.8126C63.6778 35.8339 63.7523 35.8706 63.8175 35.9207C63.8828 35.9708 63.9375 36.0333 63.9785 36.1045C64.0197 36.1757 64.0464 36.2543 64.0571 36.3359C64.0679 36.4174 64.0624 36.5002 64.0411 36.5797C64.0199 36.6591 63.9831 36.7336 63.9331 36.7988C63.883 36.864 63.8206 36.9188 63.7494 36.9599L60.6572 38.7451C60.586 38.7863 60.5074 38.813 60.4259 38.8238C60.3443 38.8346 60.2614 38.8292 60.182 38.8079C60.1026 38.7866 60.0281 38.7499 59.9629 38.6998C59.8976 38.6497 59.8429 38.5872 59.8019 38.5159Z" fill="#0063F7"></path>
  </g>
</svg>
