<?xml version="1.0" encoding="UTF-8"?>
<svg xmlns="http://www.w3.org/2000/svg" width="114" height="114" viewBox="0 0 114 114" fill="none">
  <circle cx="57" cy="57" r="57" fill="#FFF8E6"></circle>
  <mask id="mask0_8281_37503" style="mask-type:alpha" maskUnits="userSpaceOnUse" x="27" y="27" width="60" height="60">
    <rect x="27" y="27" width="60" height="60" fill="#D9D9D9"></rect>
  </mask>
  <g mask="url(#mask0_8281_37503)">
    <path d="M85.3214 66.032L85.3217 66.0328C85.3751 66.1641 85.3952 66.3065 85.3802 66.4474C85.3652 66.5883 85.3156 66.7233 85.2358 66.8403L85.2355 66.8408C85.1567 66.9574 85.0504 67.0528 84.9261 67.1187C84.8018 67.1846 84.6632 67.219 84.5225 67.2188H84.5222H81.4951H81.3451V67.3688V84.5228C81.3451 84.7506 81.2546 84.9691 81.0934 85.1302C80.9323 85.2913 80.7138 85.3819 80.486 85.3819H34.0693C33.8415 85.3819 33.623 85.2913 33.4619 85.1302C33.3008 84.9691 33.2102 84.7506 33.2102 84.5228V67.3688V67.2188H33.0602L28.015 67.2188L28.0141 67.2188C27.8612 67.2197 27.7108 67.1798 27.5785 67.1031C27.4461 67.0265 27.3367 66.9159 27.2614 66.7828C27.1861 66.6497 27.1477 66.4989 27.1501 66.346C27.1526 66.1931 27.1958 66.0436 27.2753 65.913L27.2758 65.9122L33.3276 55.8258C33.4127 55.7037 33.5239 55.6021 33.6532 55.5285C33.7824 55.4548 33.9264 55.411 34.0747 55.4H48.1961C48.424 55.4 48.6425 55.4905 48.8036 55.6516C48.9647 55.8127 49.0552 56.0312 49.0552 56.2591C49.0552 56.4869 48.9647 56.7054 48.8036 56.8665C48.6425 57.0276 48.424 57.1181 48.1961 57.1181H34.6445H34.5595L34.5158 57.1909L29.6724 65.2634L29.5361 65.4906H29.801H59.7297H59.8146L59.8583 65.4178L64.7018 57.3453L64.8381 57.1181H64.5731H64.3411C64.2283 57.1181 64.1165 57.0959 64.0123 57.0527C63.9081 57.0096 63.8134 56.9463 63.7336 56.8665C63.6538 56.7867 63.5906 56.692 63.5474 56.5878C63.5042 56.4836 63.482 56.3719 63.482 56.2591C63.482 56.1462 63.5042 56.0345 63.5474 55.9303C63.5906 55.8261 63.6538 55.7314 63.7336 55.6516C63.8134 55.5718 63.9081 55.5086 64.0123 55.4654C64.1165 55.4222 64.2283 55.4 64.3411 55.4H80.4793C80.7907 55.4285 80.941 55.5179 81.0357 55.6107C81.0864 55.6604 81.1263 55.716 81.1682 55.7796C81.1755 55.7906 81.183 55.8023 81.1908 55.8143C81.2211 55.8609 81.2552 55.9134 81.2935 55.9622L85.3214 66.032ZM35.0784 76.3003H34.9284V76.4503V79.4775V79.6275H35.0784H47.1871H47.3371V79.4775V76.4503V76.3003H47.1871H35.0784ZM35.0784 81.3456H34.9284V81.4956V83.5137V83.6637H35.0784H65.3501H65.5001V83.5137V59.9018V59.3589L65.2214 59.8247L61.0445 66.8064C61.0444 66.8066 61.0443 66.8067 61.0443 66.8068C60.9672 66.9333 60.8587 67.0377 60.7294 67.1099C60.5999 67.1821 60.454 67.2197 60.3057 67.2188H60.3048H35.0784H34.9284V67.3688V74.4322V74.5822H35.0784H48.1961C48.424 74.5822 48.6425 74.6727 48.8036 74.8338C48.9647 74.9949 49.0552 75.2134 49.0552 75.4413V80.4866C49.0552 80.7144 48.9647 80.9329 48.8036 81.094C48.6425 81.2551 48.424 81.3456 48.1961 81.3456H35.0784ZM35.2284 67.3688H60.3048C60.479 67.3698 60.6504 67.3257 60.8025 67.2409C60.9546 67.156 61.0821 67.0332 61.1726 66.8844L35.2284 67.3688ZM79.4769 83.6637H79.6269V83.5137V67.3688V67.2188H79.4769H70.3954H70.3953C70.2232 67.219 70.0551 67.1675 69.9126 67.071C69.7702 66.9745 69.66 66.8374 69.5963 66.6776L69.5963 66.6774L67.5075 61.4505L67.2182 61.5062V83.5137V83.6637H67.3682H79.4769ZM70.9423 65.4064L70.98 65.5007H71.0816H83.0288H83.2504L83.1681 65.295L79.9391 57.2225L79.9014 57.1282H79.7998H67.8526H67.631L67.7133 57.3339L70.9423 65.4064Z" fill="#FF8800" stroke="#FFF8E6" stroke-width="0.3"></path>
    <path d="M46.1065 52.8882C46.1065 52.8882 47.6907 50.6178 49.6382 50.4766C50.1739 50.4711 50.7036 50.5904 51.1852 50.8251C51.6669 51.0598 52.0873 51.4034 52.4131 51.8287C52.5039 51.9469 52.6198 52.0434 52.7524 52.1115C52.885 52.1795 53.031 52.2173 53.18 52.2222M46.1065 52.8882L55.5513 27.2985C55.6451 27.2039 55.7567 27.1288 55.8796 27.0776C56.0026 27.0264 56.1345 27 56.2677 27C56.4009 27 56.5328 27.0264 56.6557 27.0776C56.7787 27.1288 56.8903 27.2039 56.9841 27.2985C57.2767 27.5608 63.3311 33.7867 63.3311 41.6271C63.3327 42.2038 63.299 42.78 63.2302 43.3526C65.0667 43.9479 68.4369 45.9156 68.2755 52.3534M46.1065 52.8882C45.9751 53.0521 45.8009 53.1766 45.6033 53.2478C45.4056 53.319 45.1922 53.3343 44.9864 53.2918L46.1065 52.8882ZM53.18 52.2222H59.3554M53.18 52.2222L53.1849 52.0723C53.1841 52.0723 53.1833 52.0723 53.1825 52.0722M53.18 52.2222V52.0722H53.1825M59.3554 52.2222C59.5026 52.2159 59.6467 52.1773 59.7774 52.1094C59.9082 52.0414 60.0224 51.9456 60.1122 51.8287C60.4432 51.4091 60.8646 51.0695 61.3451 50.8354C61.8255 50.6013 62.3527 50.4786 62.8871 50.4766C64.8548 50.6077 66.4188 52.868 66.4289 52.8882M59.3554 52.2222V52.0722H59.352M59.3554 52.2222L59.3489 52.0724C59.35 52.0723 59.351 52.0723 59.352 52.0722M66.4289 52.8882C66.558 53.0549 66.7319 53.1814 66.9302 53.2529C67.1286 53.3244 67.3432 53.3379 67.549 53.2918M66.4289 52.8882L66.5631 52.8211C66.5606 52.8163 66.5584 52.8125 66.5579 52.8116L66.5556 52.8079L66.5528 52.8034L66.5513 52.8012M66.4289 52.8882L66.5475 52.7964C66.5488 52.798 66.55 52.7996 66.5513 52.8012M67.549 53.2918C67.7537 53.2322 67.9342 53.1093 68.0648 52.9407C68.1953 52.7721 68.2691 52.5665 68.2755 52.3534M67.549 53.2918L67.5162 53.1454C67.5146 53.1458 67.5131 53.1461 67.5115 53.1465M67.549 53.2918L67.507 53.1478C67.5085 53.1474 67.51 53.1469 67.5115 53.1465M68.2755 52.3534L68.1256 52.3489C68.1255 52.349 68.1255 52.3491 68.1255 52.3493M68.2755 52.3534L68.1255 52.3496C68.1255 52.3495 68.1255 52.3494 68.1255 52.3493M68.1255 52.3493C68.2055 49.1583 67.4104 47.0924 66.3831 45.7534C65.3546 44.4129 64.0822 43.7865 63.1839 43.4953L63.0665 43.4572L63.0813 43.3347C63.1494 42.7682 63.1827 42.1981 63.1811 41.6275V41.6271C63.1811 37.7445 61.6814 34.2552 60.1389 31.6985C58.5959 29.1411 57.0185 27.5307 56.884 27.4102L56.8774 27.4043L56.8776 27.4041C56.7978 27.3236 56.7027 27.2597 56.5981 27.2161C56.4934 27.1725 56.3811 27.15 56.2677 27.15C56.1543 27.15 56.042 27.1725 55.9373 27.2161C55.8326 27.2597 55.7376 27.3236 55.6578 27.4041L55.6516 27.4104L55.6514 27.4102C55.5169 27.5307 53.9395 29.1411 52.3965 31.6985C50.854 34.2551 49.3543 37.7443 49.3543 41.6268C49.356 42.1975 49.3927 42.7676 49.4641 43.3338L49.4797 43.4572L49.3613 43.4954C48.458 43.7866 47.1832 44.413 46.1548 45.7534C45.1275 47.0923 44.3349 49.1582 44.4199 52.3493C44.4248 52.5297 44.4864 52.7039 44.5958 52.8473C44.704 52.9889 44.8534 53.0934 45.0234 53.1463C45.2 53.1814 45.3829 53.1678 45.5524 53.1067C45.7227 53.0453 45.8729 52.9385 45.9866 52.7978L45.9888 52.7948L46.0033 52.7746C46.0159 52.7572 46.0345 52.732 46.0587 52.6999C46.107 52.6359 46.178 52.5448 46.2691 52.4353C46.4512 52.2164 46.7148 51.923 47.0407 51.6247C47.6879 51.0324 48.6023 50.4013 49.6273 50.3269L49.6366 50.3263L49.6366 50.3266C50.1957 50.3208 50.7484 50.4453 51.2509 50.6902C51.7535 50.9351 52.1922 51.2937 52.5322 51.7375M68.1255 52.3493C68.12 52.5306 68.0572 52.7055 67.9462 52.8489C67.836 52.9912 67.684 53.0953 67.5115 53.1465M67.5115 53.1465C67.335 53.1851 67.1511 53.1731 66.9811 53.1118C66.8115 53.0506 66.6625 52.943 66.5513 52.8012M66.5513 52.8012L66.5475 52.7955L66.5316 52.7727C66.5184 52.754 66.4994 52.7276 66.4749 52.6947C66.4259 52.6288 66.3548 52.5364 66.2637 52.4259C66.0816 52.2051 65.8188 51.9112 65.4934 51.6133C64.8468 51.0218 63.9322 50.3959 62.8971 50.3269L62.8971 50.3265L62.8865 50.3266C62.3295 50.3287 61.7801 50.4566 61.2794 50.7006C60.7786 50.9446 60.3394 51.2984 59.9944 51.7358L59.9932 51.7373C59.9168 51.8368 59.8195 51.9184 59.7082 51.9763C59.5978 52.0337 59.4763 52.0664 59.352 52.0722M59.352 52.0722H53.1825M53.1825 52.0722C53.0565 52.0677 52.9331 52.0356 52.8209 51.978C52.7081 51.9201 52.6095 51.838 52.5322 51.7375M52.5322 51.7375C52.5321 51.7374 52.5321 51.7373 52.532 51.7373L52.4133 51.8285L52.5322 51.7375ZM65.9733 49.7976L66.2897 50.045L66.2129 49.6507C65.6573 46.8006 64.0946 45.6704 62.8881 45.2298L62.7286 45.1715L62.6905 45.3371C62.4441 46.4079 62.1091 47.4564 61.689 48.4717L61.5817 48.731L61.8569 48.6762C62.2412 48.5997 62.6342 48.5767 63.0247 48.6078C64.0998 48.7195 65.1217 49.1319 65.9733 49.7976ZM56.3825 29.432L56.2677 29.2954L56.1529 29.432C54.6052 31.273 51.0724 36.0914 51.0724 41.6271H51.0723L51.0725 41.632C51.1714 44.6936 52.062 47.6773 53.6574 50.2923L53.7012 50.3642H53.7854H58.75H58.8342L58.878 50.2923C60.4717 47.6803 61.3622 44.7003 61.4629 41.6421L61.463 41.6421V41.6372C61.463 36.0915 57.9302 31.273 56.3825 29.432ZM49.7944 45.3371L49.7558 45.1691L49.5948 45.2306C48.4403 45.6714 46.8792 46.8002 46.2726 49.6481L46.1866 50.0517L46.5117 49.7976C47.3632 49.1319 48.3851 48.7195 49.4602 48.6078C49.8507 48.5767 50.2438 48.5997 50.628 48.6762L50.9032 48.731L50.7959 48.4717C50.3758 47.4564 50.0408 46.4079 49.7944 45.3371ZM51.624 75.8423C51.7851 75.6812 52.0036 75.5907 52.2314 75.5907C52.4593 75.5907 52.6778 75.6812 52.8389 75.8423C53 76.0034 53.0905 76.2219 53.0905 76.4497V80.486C53.0905 80.7138 53 80.9323 52.8389 81.0934C52.6778 81.2545 52.4593 81.345 52.2314 81.345C52.0036 81.345 51.7851 81.2545 51.624 81.0934C51.4629 80.9323 51.3724 80.7138 51.3724 80.486V76.4497C51.3724 76.2219 51.4629 76.0034 51.624 75.8423ZM55.6602 75.8423C55.8213 75.6812 56.0398 75.5907 56.2677 75.5907C56.4955 75.5907 56.714 75.6812 56.8751 75.8423C57.0362 76.0034 57.1267 76.2219 57.1267 76.4497V80.486C57.1267 80.7138 57.0362 80.9323 56.8751 81.0934C56.714 81.2545 56.4955 81.345 56.2677 81.345C56.0398 81.345 55.8213 81.2545 55.6602 81.0934C55.4991 80.9323 55.4086 80.7138 55.4086 80.486V76.4497C55.4086 76.2219 55.4991 76.0034 55.6602 75.8423Z" fill="#FF8800" stroke="#FFF8E6" stroke-width="0.3"></path>
    <path d="M55.2608 38.9648H55.1108V39.1148V41.1329V41.2829H55.2608H57.279H57.429V41.1329V39.1148V38.9648H57.279H55.2608ZM58.8955 42.7494C58.7344 42.9105 58.5159 43.001 58.288 43.001H54.2518C54.0239 43.001 53.8054 42.9105 53.6443 42.7494C53.4832 42.5883 53.3927 42.3698 53.3927 42.142V38.1057C53.3927 37.8779 53.4832 37.6594 53.6443 37.4983C53.8054 37.3372 54.0239 37.2467 54.2518 37.2467H58.288C58.5159 37.2467 58.7344 37.3372 58.8955 37.4983C59.0566 37.6594 59.1471 37.8779 59.1471 38.1057V42.142C59.1471 42.3698 59.0566 42.5883 58.8955 42.7494ZM55.4108 60.305V55.2597C55.4108 55.0319 55.5014 54.8134 55.6625 54.6523C55.8236 54.4912 56.0421 54.4007 56.2699 54.4007C56.4977 54.4007 56.7162 54.4912 56.8773 54.6523C57.0385 54.8134 57.129 55.0319 57.129 55.2597V60.305C57.129 60.5329 57.0385 60.7514 56.8773 60.9125C56.7162 61.0736 56.4977 61.1641 56.2699 61.1641C56.0421 61.1641 55.8236 61.0736 55.6625 60.9125C55.5014 60.7514 55.4108 60.5329 55.4108 60.305ZM59.4471 57.2779V54.2507C59.4471 54.0228 59.5376 53.8043 59.6987 53.6432C59.8598 53.4821 60.0783 53.3916 60.3061 53.3916C60.534 53.3916 60.7525 53.4821 60.9136 53.6432C61.0747 53.8043 61.1652 54.0228 61.1652 54.2507V57.2779C61.1652 57.5057 61.0747 57.7242 60.9136 57.8853C60.7525 58.0464 60.534 58.1369 60.3061 58.1369C60.0783 58.1369 59.8598 58.0464 59.6987 57.8853C59.5376 57.7242 59.4471 57.5057 59.4471 57.2779ZM51.6262 53.6432C51.7873 53.4821 52.0058 53.3916 52.2337 53.3916C52.4615 53.3916 52.68 53.4821 52.8411 53.6432C53.0022 53.8043 53.0927 54.0228 53.0927 54.2507V57.2779C53.0927 57.5057 53.0022 57.7242 52.8411 57.8853C52.68 58.0464 52.4615 58.1369 52.2337 58.1369C52.0058 58.1369 51.7873 58.0464 51.6262 57.8853C51.4651 57.7242 51.3746 57.5057 51.3746 57.2779V54.2507C51.3746 54.0228 51.4651 53.8043 51.6262 53.6432Z" fill="#FF8800" stroke="#FFF8E6" stroke-width="0.3"></path>
  </g>
</svg>
