<?xml version="1.0" encoding="UTF-8"?>
<svg xmlns="http://www.w3.org/2000/svg" width="114" height="114" viewBox="0 0 114 114" fill="none">
  <circle cx="57" cy="57" r="57" fill="#E3FFF1"></circle>
  <mask id="mask0_8281_37503" style="mask-type:alpha" maskUnits="userSpaceOnUse" x="27" y="27" width="60" height="60">
    <rect x="27" y="27" width="60" height="60" fill="#D9D9D9"></rect>
  </mask>
  <g mask="url(#mask0_8281_37503)">
    <mask id="path-3-inside-1_8281_37503" fill="white">
      <path d="M77.1836 73.0528V71.3679C79.8981 68.3726 79.1493 65.19 79.3365 64.254C79.8045 63.6924 80.2725 62.8499 80.2725 61.7267C80.2725 60.0418 79.1493 58.357 76.9964 56.7657C76.4348 56.3913 75.5923 56.6721 75.4987 57.4209C75.4987 57.4209 74.9371 59.761 69.3209 59.761H68.7593C67.7296 59.6674 66.9808 61.8203 67.168 62.85C67.2616 63.1308 67.3552 63.5052 67.5424 63.786C67.7296 65.0028 66.7936 68.279 69.6953 71.3679V73.0528C68.4784 73.5208 65.7639 74.644 63.5174 76.7969C62.4878 76.2353 61.5518 75.8609 60.8965 75.5801V73.8952C62.207 72.3975 63.0494 70.5255 63.0494 68.5598V66.7813C63.5174 66.2197 63.9855 65.3773 63.9855 64.254C63.9855 62.5691 62.8622 60.8843 60.7093 59.293C60.4285 59.1058 60.1477 59.1058 59.7733 59.1994C59.4925 59.293 59.2117 59.5738 59.2117 59.9482C59.2117 59.9482 58.7437 62.2883 53.0338 62.2883H52.4722C52.1914 62.2883 51.9106 62.3819 51.7234 62.6627C51.6298 62.7563 50.6937 64.0668 50.8809 65.4709C50.9745 65.7517 51.0681 66.1261 51.2554 66.4069V68.6534C51.2554 70.6191 52.0042 72.4911 53.4082 73.9888V75.6737C52.8466 75.8609 51.9106 76.3289 50.7873 76.8905C48.5408 74.7376 45.8263 73.6144 44.6095 73.1464V71.4615C47.4176 68.3726 46.5752 65.0964 46.7624 63.8796C46.9496 63.5052 47.1368 63.2244 47.1368 62.9436C47.4176 61.5395 46.388 60.3227 46.2944 60.1354C46.1072 59.9482 45.8263 59.761 45.5455 59.761C39.3677 59.9482 38.7125 57.4209 38.7125 57.4209C38.6189 56.6721 37.7764 56.3913 37.2148 56.7657C35.0619 58.357 33.9387 60.0418 33.9387 61.7267C33.9387 62.7563 34.4067 63.5988 34.8747 64.254C34.9683 65.19 34.2195 68.3726 37.0276 71.3679V73.0528C34.6875 73.8016 28.1352 76.7033 27.012 83.2556C26.9184 83.8172 27.3864 84.3788 27.948 84.3788H43.6735C43.4862 84.8468 43.3926 85.3149 43.299 85.8765C43.2054 86.4381 43.6735 86.9997 44.2351 86.9997H69.5081C70.0697 86.9997 70.5377 86.4381 70.4441 85.8765C70.3505 85.3149 70.2569 84.8468 70.0697 84.3788H85.9823C86.544 84.3788 87.012 83.8172 86.9184 83.2556C85.7951 76.7033 79.2429 73.8016 77.1836 73.0528ZM71.3802 72.8656C71.9418 73.24 72.597 73.4272 73.3458 73.4272C74.0011 73.4272 74.6563 73.24 75.3115 72.8656V73.5208C75.2179 73.8952 74.6563 75.5801 73.3458 76.3289C72.129 75.5801 71.5674 73.8952 71.3802 73.5208V72.8656ZM69.1337 61.5395C73.9075 61.5395 75.8731 60.0418 76.7156 58.9186C77.7452 59.8546 78.3068 60.7907 78.3068 61.6331C78.3068 62.5691 77.6516 63.2244 77.3708 63.5052C74.0011 63.318 67.5424 64.5348 69.1337 61.5395ZM69.3209 65.19C70.6313 65.6581 71.2866 65.3773 77.3708 65.4709C77.3708 65.6581 77.8388 69.1214 74.3755 71.2743C73.7203 71.6487 72.9714 71.6487 72.3162 71.2743C68.7593 69.0278 69.3209 65.4709 69.3209 65.19ZM54.9995 75.4865C55.5611 75.8609 56.2164 76.0481 56.9652 76.0481C57.6204 76.0481 58.2756 75.8609 58.9309 75.4865V76.1417C58.8373 76.5161 58.2756 78.201 56.9652 78.9498C55.7483 78.201 55.1867 76.5161 54.9995 76.1417V75.4865ZM52.753 64.1604C57.5268 64.1604 59.4925 62.6627 60.3349 61.5395C61.3646 62.4755 61.9262 63.4116 61.9262 64.254C61.9262 65.19 61.271 65.8453 60.9901 66.1261H54.5315C53.9699 66.1261 53.5018 66.0325 53.1274 65.7517C52.6594 65.4709 52.5658 65.19 52.5658 65.0964C52.4722 64.8156 52.5658 64.4412 52.753 64.1604ZM52.9402 67.8109C53.4082 67.9982 53.9699 68.0918 54.5315 68.0918H60.9901V68.6534C60.9901 70.7127 59.8669 72.6783 57.9948 73.8952C57.3396 74.2696 56.5908 74.2696 55.9355 73.8952C54.0635 72.6783 52.9402 70.7127 52.9402 68.6534V67.8109ZM38.6189 72.8656C39.1805 73.24 39.9293 73.4272 40.5845 73.4272C41.2398 73.4272 41.895 73.24 42.5502 72.8656V73.5208C42.4566 73.9888 41.895 75.5801 40.5845 76.3289C39.3677 75.5801 38.8061 73.8952 38.6189 73.5208V72.8656ZM37.2148 58.9186C38.0572 60.0418 40.0229 61.5395 44.7031 61.5395H44.7967C44.8903 61.8203 45.0775 62.1947 44.9839 62.4755C44.9839 62.5691 44.8903 62.85 44.4223 63.2244C44.0479 63.4116 43.5798 63.5988 43.0182 63.5988H36.5596C36.1852 63.318 35.6235 62.5691 35.6235 61.7267C35.6235 60.7907 36.1852 59.8546 37.2148 58.9186ZM36.5596 65.4709H43.0182C43.5798 65.4709 44.1415 65.3773 44.6095 65.19C44.5159 65.4709 45.1711 69.0278 41.6142 71.2743C39.4613 72.6783 36.5596 68.9342 36.5596 66.0325V65.4709ZM35.7171 82.4131V80.1666C35.7171 79.605 35.3427 79.2306 34.7811 79.2306C34.2195 79.2306 33.8451 79.605 33.8451 80.1666V82.4131H29.1649C30.5689 77.9202 35.2491 75.6737 37.2148 74.8312C37.87 76.4225 39.7421 78.7626 41.0525 78.2946C42.7374 77.6393 43.6735 75.9545 44.1415 74.8312C45.2647 75.2992 47.2304 76.2353 49.0089 77.7329C47.4176 78.8562 45.7327 80.3538 44.7031 82.3195H35.7171V82.4131ZM63.7047 85.034V82.7875C63.7047 82.2259 63.3302 81.8515 62.7686 81.8515C62.207 81.8515 61.8326 82.2259 61.8326 82.7875V85.034H52.0978V82.7875C52.0978 82.2259 51.7234 81.8515 51.1618 81.8515C50.6001 81.8515 50.2257 82.2259 50.2257 82.7875V85.034H45.4519C46.856 80.5411 51.5362 78.2946 53.5018 77.4521C53.9699 78.4818 54.9059 80.1666 56.5908 80.8219C56.6844 80.8219 56.778 80.9155 56.9652 80.9155C57.0588 80.9155 57.246 80.9155 57.3396 80.8219C59.0245 80.1666 59.9605 78.4818 60.4285 77.4521C62.3942 78.201 67.0744 80.5411 68.4784 85.034H63.7047ZM80.0853 82.4131V80.1666C80.0853 79.605 79.7109 79.2306 79.1493 79.2306C78.5876 79.2306 78.2132 79.605 78.2132 80.1666V82.4131H69.4145C68.2912 80.3539 66.7 78.8562 65.1087 77.8265C66.8872 76.3289 68.8529 75.3929 69.9761 74.9248C70.6313 76.4225 72.5034 78.8562 73.8139 78.3882C75.4987 77.7329 76.4348 76.0481 76.9028 74.9248C78.8685 75.6737 83.5486 78.0138 84.9527 82.5067H80.0853V82.4131Z"></path>
    </mask>
    <path d="M77.1836 73.0528V71.3679C79.8981 68.3726 79.1493 65.19 79.3365 64.254C79.8045 63.6924 80.2725 62.8499 80.2725 61.7267C80.2725 60.0418 79.1493 58.357 76.9964 56.7657C76.4348 56.3913 75.5923 56.6721 75.4987 57.4209C75.4987 57.4209 74.9371 59.761 69.3209 59.761H68.7593C67.7296 59.6674 66.9808 61.8203 67.168 62.85C67.2616 63.1308 67.3552 63.5052 67.5424 63.786C67.7296 65.0028 66.7936 68.279 69.6953 71.3679V73.0528C68.4784 73.5208 65.7639 74.644 63.5174 76.7969C62.4878 76.2353 61.5518 75.8609 60.8965 75.5801V73.8952C62.207 72.3975 63.0494 70.5255 63.0494 68.5598V66.7813C63.5174 66.2197 63.9855 65.3773 63.9855 64.254C63.9855 62.5691 62.8622 60.8843 60.7093 59.293C60.4285 59.1058 60.1477 59.1058 59.7733 59.1994C59.4925 59.293 59.2117 59.5738 59.2117 59.9482C59.2117 59.9482 58.7437 62.2883 53.0338 62.2883H52.4722C52.1914 62.2883 51.9106 62.3819 51.7234 62.6627C51.6298 62.7563 50.6937 64.0668 50.8809 65.4709C50.9745 65.7517 51.0681 66.1261 51.2554 66.4069V68.6534C51.2554 70.6191 52.0042 72.4911 53.4082 73.9888V75.6737C52.8466 75.8609 51.9106 76.3289 50.7873 76.8905C48.5408 74.7376 45.8263 73.6144 44.6095 73.1464V71.4615C47.4176 68.3726 46.5752 65.0964 46.7624 63.8796C46.9496 63.5052 47.1368 63.2244 47.1368 62.9436C47.4176 61.5395 46.388 60.3227 46.2944 60.1354C46.1072 59.9482 45.8263 59.761 45.5455 59.761C39.3677 59.9482 38.7125 57.4209 38.7125 57.4209C38.6189 56.6721 37.7764 56.3913 37.2148 56.7657C35.0619 58.357 33.9387 60.0418 33.9387 61.7267C33.9387 62.7563 34.4067 63.5988 34.8747 64.254C34.9683 65.19 34.2195 68.3726 37.0276 71.3679V73.0528C34.6875 73.8016 28.1352 76.7033 27.012 83.2556C26.9184 83.8172 27.3864 84.3788 27.948 84.3788H43.6735C43.4862 84.8468 43.3926 85.3149 43.299 85.8765C43.2054 86.4381 43.6735 86.9997 44.2351 86.9997H69.5081C70.0697 86.9997 70.5377 86.4381 70.4441 85.8765C70.3505 85.3149 70.2569 84.8468 70.0697 84.3788H85.9823C86.544 84.3788 87.012 83.8172 86.9184 83.2556C85.7951 76.7033 79.2429 73.8016 77.1836 73.0528ZM71.3802 72.8656C71.9418 73.24 72.597 73.4272 73.3458 73.4272C74.0011 73.4272 74.6563 73.24 75.3115 72.8656V73.5208C75.2179 73.8952 74.6563 75.5801 73.3458 76.3289C72.129 75.5801 71.5674 73.8952 71.3802 73.5208V72.8656ZM69.1337 61.5395C73.9075 61.5395 75.8731 60.0418 76.7156 58.9186C77.7452 59.8546 78.3068 60.7907 78.3068 61.6331C78.3068 62.5691 77.6516 63.2244 77.3708 63.5052C74.0011 63.318 67.5424 64.5348 69.1337 61.5395ZM69.3209 65.19C70.6313 65.6581 71.2866 65.3773 77.3708 65.4709C77.3708 65.6581 77.8388 69.1214 74.3755 71.2743C73.7203 71.6487 72.9714 71.6487 72.3162 71.2743C68.7593 69.0278 69.3209 65.4709 69.3209 65.19ZM54.9995 75.4865C55.5611 75.8609 56.2164 76.0481 56.9652 76.0481C57.6204 76.0481 58.2756 75.8609 58.9309 75.4865V76.1417C58.8373 76.5161 58.2756 78.201 56.9652 78.9498C55.7483 78.201 55.1867 76.5161 54.9995 76.1417V75.4865ZM52.753 64.1604C57.5268 64.1604 59.4925 62.6627 60.3349 61.5395C61.3646 62.4755 61.9262 63.4116 61.9262 64.254C61.9262 65.19 61.271 65.8453 60.9901 66.1261H54.5315C53.9699 66.1261 53.5018 66.0325 53.1274 65.7517C52.6594 65.4709 52.5658 65.19 52.5658 65.0964C52.4722 64.8156 52.5658 64.4412 52.753 64.1604ZM52.9402 67.8109C53.4082 67.9982 53.9699 68.0918 54.5315 68.0918H60.9901V68.6534C60.9901 70.7127 59.8669 72.6783 57.9948 73.8952C57.3396 74.2696 56.5908 74.2696 55.9355 73.8952C54.0635 72.6783 52.9402 70.7127 52.9402 68.6534V67.8109ZM38.6189 72.8656C39.1805 73.24 39.9293 73.4272 40.5845 73.4272C41.2398 73.4272 41.895 73.24 42.5502 72.8656V73.5208C42.4566 73.9888 41.895 75.5801 40.5845 76.3289C39.3677 75.5801 38.8061 73.8952 38.6189 73.5208V72.8656ZM37.2148 58.9186C38.0572 60.0418 40.0229 61.5395 44.7031 61.5395H44.7967C44.8903 61.8203 45.0775 62.1947 44.9839 62.4755C44.9839 62.5691 44.8903 62.85 44.4223 63.2244C44.0479 63.4116 43.5798 63.5988 43.0182 63.5988H36.5596C36.1852 63.318 35.6235 62.5691 35.6235 61.7267C35.6235 60.7907 36.1852 59.8546 37.2148 58.9186ZM36.5596 65.4709H43.0182C43.5798 65.4709 44.1415 65.3773 44.6095 65.19C44.5159 65.4709 45.1711 69.0278 41.6142 71.2743C39.4613 72.6783 36.5596 68.9342 36.5596 66.0325V65.4709ZM35.7171 82.4131V80.1666C35.7171 79.605 35.3427 79.2306 34.7811 79.2306C34.2195 79.2306 33.8451 79.605 33.8451 80.1666V82.4131H29.1649C30.5689 77.9202 35.2491 75.6737 37.2148 74.8312C37.87 76.4225 39.7421 78.7626 41.0525 78.2946C42.7374 77.6393 43.6735 75.9545 44.1415 74.8312C45.2647 75.2992 47.2304 76.2353 49.0089 77.7329C47.4176 78.8562 45.7327 80.3538 44.7031 82.3195H35.7171V82.4131ZM63.7047 85.034V82.7875C63.7047 82.2259 63.3302 81.8515 62.7686 81.8515C62.207 81.8515 61.8326 82.2259 61.8326 82.7875V85.034H52.0978V82.7875C52.0978 82.2259 51.7234 81.8515 51.1618 81.8515C50.6001 81.8515 50.2257 82.2259 50.2257 82.7875V85.034H45.4519C46.856 80.5411 51.5362 78.2946 53.5018 77.4521C53.9699 78.4818 54.9059 80.1666 56.5908 80.8219C56.6844 80.8219 56.778 80.9155 56.9652 80.9155C57.0588 80.9155 57.246 80.9155 57.3396 80.8219C59.0245 80.1666 59.9605 78.4818 60.4285 77.4521C62.3942 78.201 67.0744 80.5411 68.4784 85.034H63.7047ZM80.0853 82.4131V80.1666C80.0853 79.605 79.7109 79.2306 79.1493 79.2306C78.5876 79.2306 78.2132 79.605 78.2132 80.1666V82.4131H69.4145C68.2912 80.3539 66.7 78.8562 65.1087 77.8265C66.8872 76.3289 68.8529 75.3929 69.9761 74.9248C70.6313 76.4225 72.5034 78.8562 73.8139 78.3882C75.4987 77.7329 76.4348 76.0481 76.9028 74.9248C78.8685 75.6737 83.5486 78.0138 84.9527 82.5067H80.0853V82.4131Z" fill="#06C270" stroke="#E3FFF1" stroke-width="0.6" mask="url(#path-3-inside-1_8281_37503)"></path>
    <path d="M58.9291 55.5124H59.0649L59.0784 55.3773L59.2656 53.5052L59.2821 53.3403H59.1163H55.185H55.0108L55.0366 53.5125L55.3175 55.3846L55.3366 55.5124H55.4658H58.9291ZM56.9635 34.6195V34.6195L56.9596 34.6196C53.2285 34.7153 49.9845 37.962 49.7934 41.6885H49.7934L49.7933 41.6902C49.6979 44.0759 50.7469 46.4646 52.6613 47.9005L52.6613 47.9005L52.6641 47.9025C53.9371 48.8118 54.6688 50.1784 54.944 51.6459L54.9669 51.7682H55.0914H59.3036H59.4302L59.4514 51.6434C59.7781 49.7241 60.8103 48.7632 61.8873 47.7606C62.0119 47.6446 62.1371 47.5281 62.2618 47.4094C62.8619 46.8388 63.4499 46.2195 63.8857 45.3824C64.3224 44.5436 64.6018 43.4955 64.6018 42.0706C64.6018 37.9628 61.2585 34.6195 57.1507 34.6195H56.9635ZM53.8349 56.4585C53.6722 55.4819 53.5849 54.6443 53.5134 53.9101C53.5061 53.8351 53.4989 53.7612 53.4919 53.6882C53.4301 53.0481 53.3755 52.4835 53.2851 51.9779C53.1839 51.4125 53.0365 50.9123 52.7785 50.4497C52.5203 49.9868 52.1555 49.5688 51.6284 49.1611C49.4183 47.3184 48.1295 44.5558 48.221 41.6094C48.4981 36.9149 52.2714 33.233 56.9664 33.0475H57.2443C62.216 33.0475 66.2674 37.0989 66.2674 42.0706C66.2674 44.9246 64.9796 47.5014 62.6766 49.252C62.1938 49.6141 61.8571 49.9983 61.616 50.4374C61.3757 50.8752 61.2343 51.3606 61.1333 51.9191C61.0412 52.4285 60.9814 53.0065 60.9128 53.6701C60.9064 53.732 60.8999 53.7946 60.8933 53.858C60.816 54.6026 60.7228 55.4581 60.56 56.4587C60.4764 56.8716 60.152 57.178 59.7716 57.178H54.6234C54.2429 57.178 53.9184 56.8714 53.8349 56.4585Z" fill="#06C270" stroke="#E3FFF1" stroke-width="0.3"></path>
    <path d="M57.8468 39.3984L57.847 39.398L57.8361 39.3958C57.6551 39.3596 57.5006 39.2307 57.3996 39.0488C57.2984 38.8666 57.2593 38.6453 57.2986 38.4491C57.3359 38.2625 57.47 38.0849 57.6509 37.9743C57.831 37.8643 58.0387 37.8316 58.219 37.9037L58.2279 37.9073L58.2372 37.9097C61.0372 38.6322 62.3077 41.9797 60.7687 44.424L60.767 44.4267C60.5356 44.8124 60.0711 44.9014 59.6623 44.6561C59.2775 44.4252 59.1881 43.9624 59.4312 43.5544C60.4213 42.0646 59.6279 39.8931 57.8468 39.3984ZM63.1914 32.0891L63.1914 32.0891L63.19 32.0925C63.0389 32.4703 62.5733 32.639 62.1682 32.477C61.7908 32.326 61.6221 31.8614 61.7831 31.4567L62.9056 28.8376L62.9056 28.8376L62.907 28.8342C63.0581 28.4563 63.5238 28.2877 63.9288 28.4497C64.3062 28.6007 64.4749 29.0652 64.3139 29.4699L63.1914 32.0891ZM51.5809 31.9989L51.5806 31.998L50.5528 29.4753C50.4691 29.2216 50.475 29.0059 50.5491 28.8394C50.6225 28.6743 50.7724 28.5356 51.0211 28.4528L51.0367 28.4475L51.0508 28.4391C51.4206 28.2172 51.8893 28.4301 52.051 28.8338C52.0511 28.8339 52.0511 28.834 52.0512 28.8342L53.0805 31.4542L53.0808 31.4551C53.161 31.6554 53.1586 31.8705 53.083 32.0405C53.0095 32.2059 52.864 32.3363 52.6338 32.3747L52.6057 32.3793L52.5813 32.394C52.2113 32.616 51.7425 32.4029 51.5809 31.9989ZM72.4653 52.5538V52.4038H72.3153H70.6304C69.6836 52.4038 68.9083 51.6285 68.9083 50.6817V42.351C68.9083 41.4042 69.6836 40.6289 70.6304 40.6289H84.1093C85.0561 40.6289 85.8314 41.4042 85.8314 42.351V50.6817C85.8314 51.6285 85.0561 52.4038 84.1093 52.4038H77.4635H77.4138L77.374 52.4335L73.7257 55.1463C73.7254 55.1465 73.725 55.1468 73.7246 55.1471C73.1703 55.5418 72.4653 55.1478 72.4653 54.5195V52.5538ZM84.2593 42.351V42.201H84.1093H70.6304H70.5368H70.3868V42.351V50.6817V50.8317H70.5368H73.1577C73.4044 50.8317 73.5984 50.9133 73.7303 51.0452C73.8622 51.1771 73.9437 51.3711 73.9437 51.6178V52.6474V52.9428L74.1822 52.7685L76.6058 50.9975C76.7963 50.9024 76.9469 50.8317 77.0891 50.8317H84.1093H84.2593V50.6817V42.351ZM58.0311 30.7441C58.0311 30.9909 57.9495 31.1848 57.8176 31.3167C57.6857 31.4486 57.4918 31.5302 57.2451 31.5302C56.9983 31.5302 56.8044 31.4486 56.6725 31.3167C56.5406 31.1848 56.459 30.9909 56.459 30.7441V27.936C56.459 27.6893 56.5406 27.4954 56.6725 27.3635C56.8044 27.2316 56.9983 27.15 57.2451 27.15C57.4918 27.15 57.6857 27.2316 57.8176 27.3635C57.9495 27.4954 58.0311 27.6893 58.0311 27.936V30.7441Z" fill="#06C270" stroke="#E3FFF1" stroke-width="0.3"></path>
    <path d="M37.0235 52.434L36.9836 52.4044H36.934H30.2881C29.3413 52.4044 28.566 51.6291 28.566 50.6823V42.3516C28.566 41.4048 29.3413 40.6295 30.2881 40.6295H43.8606C44.8074 40.6295 45.5827 41.4048 45.5827 42.3516V50.6823C45.5827 51.6291 44.8074 52.4044 43.8606 52.4044H42.0822H41.9322V52.5544V54.5201C41.9322 54.666 41.8915 54.8091 41.8148 54.9333C41.738 55.0575 41.6282 55.1578 41.4977 55.2231C41.3671 55.2884 41.2209 55.316 41.0755 55.3029C40.9301 55.2898 40.7913 55.2365 40.6745 55.1489L40.674 55.1485L37.0235 52.434ZM30.2881 42.2016H30.1381V42.3516V50.6823V50.8323H30.2881H37.3084C37.4505 50.8323 37.6011 50.9029 37.7917 50.9981L40.2152 52.7691L40.4537 52.9434V52.648V51.6183C40.4537 51.3716 40.5353 51.1777 40.6672 51.0458C40.7991 50.9139 40.993 50.8323 41.2397 50.8323H43.8606H44.0106V50.6823V42.3516V42.2016H43.8606H30.2881ZM74.2446 45.6841H75.8167V47.2562H74.2446V45.6841ZM78.9248 45.6841H80.4969V47.2562H78.9248V45.6841Z" fill="#06C270" stroke="#E3FFF1" stroke-width="0.3"></path>
    <path d="M38.5802 45.6832H40.1523V47.2553H38.5802V45.6832ZM33.9 45.6832H35.4721V47.2553H33.9V45.6832Z" fill="#06C270" stroke="#E3FFF1" stroke-width="0.3"></path>
  </g>
</svg>
