<?xml version="1.0" encoding="UTF-8"?>
<svg xmlns="http://www.w3.org/2000/svg" width="38" height="38" viewBox="0 0 38 38" fill="none">
  <path fill-rule="evenodd" clip-rule="evenodd" d="M3.41406 20.1875H34.5859C35.2008 20.1875 35.6992 19.6891 35.6992 19.0742V1.11328C35.6992 0.498453 35.2008 0 34.5859 0H3.41406C2.79923 0 2.30078 0.498453 2.30078 1.11328V19.0742C2.30078 19.6891 2.79923 20.1875 3.41406 20.1875ZM4.52734 2.22656H33.4727V17.9609H4.52734V2.22656ZM37.756 27.3203C35.8385 24.9238 32.3286 24.5341 29.932 26.4513C28.8666 27.3034 28.1147 27.8777 27.5438 28.266C26.7507 26.1578 24.7024 24.6656 22.3398 24.6656C20.4361 24.6656 17.871 24.5777 14.9072 23.8922C12.0156 23.2286 10.4091 23.3854 7.62561 24.6406H1.11328C0.498453 24.6406 0 25.1391 0 25.7539V36.8867C0 37.5016 0.498453 38 1.11328 38H7.86719C8.48202 38 8.98047 37.5016 8.98047 36.8867V35.8024C10.7446 35.3124 12.2613 35.2622 13.8123 35.6319C16.2356 36.2094 18.5056 36.4972 20.667 36.4972C27.4428 36.4972 33.083 33.6247 37.693 28.7835C38.077 28.3803 38.1039 27.7551 37.756 27.3203ZM2.22656 35.7735V26.8673H6.75391V35.7735H2.22656ZM14.3285 33.4661C12.5718 33.0474 10.8755 33.055 8.98047 33.5038V26.4764C11.0368 25.5965 12.1351 25.5405 14.4073 26.062C17.5887 26.7978 20.3178 26.8922 22.3398 26.8922C23.7723 26.8922 25.0112 27.8052 25.4737 29.0885C25.4322 29.0905 16.7734 29.0938 16.7734 29.0938C16.1586 29.0938 15.6602 29.5923 15.6602 30.2071C15.6602 30.8219 16.1586 31.3204 16.7734 31.3204C16.7734 31.3204 25.3907 31.3202 25.4032 31.3198C27.2929 31.256 28.2727 30.6299 31.3228 28.1901C32.4965 27.2512 34.1152 27.2344 35.296 28.0416C27.6063 35.5258 19.6851 34.7426 14.3285 33.4661ZM11.207 5.56641C11.207 6.18123 10.7086 6.67969 10.0938 6.67969H8.98047V13.5078H10.0938C10.7086 13.5078 11.207 14.0063 11.207 14.6211C11.207 15.2359 10.7086 15.7344 10.0938 15.7344H7.86719C7.25236 15.7344 6.75391 15.2359 6.75391 14.6211V5.56641C6.75391 4.95158 7.25236 4.45312 7.86719 4.45312H10.0938C10.7086 4.45312 11.207 4.95158 11.207 5.56641ZM30.1328 4.45312H27.9062C27.2914 4.45312 26.793 4.95158 26.793 5.56641C26.793 6.18123 27.2914 6.67969 27.9062 6.67969H29.0195V13.5078H27.9062C27.2914 13.5078 26.793 14.0063 26.793 14.6211C26.793 15.2359 27.2914 15.7344 27.9062 15.7344H30.1328C30.7476 15.7344 31.2461 15.2359 31.2461 14.6211V5.56641C31.2461 4.95158 30.7476 4.45312 30.1328 4.45312ZM13.4336 10.0938C13.4336 7.01612 15.9232 4.45312 19 4.45312C22.0776 4.45312 24.5664 7.01679 24.5664 10.0938C24.5664 13.1714 22.0768 15.7344 19 15.7344C15.9224 15.7344 13.4336 13.1707 13.4336 10.0938ZM15.6602 10.0938C15.6602 11.9444 17.1896 13.5078 19 13.5078C20.8104 13.5078 22.3398 11.9444 22.3398 10.0938C22.3398 8.24311 20.8104 6.67969 19 6.67969C17.1896 6.67969 15.6602 8.24311 15.6602 10.0938Z" fill="white"></path>
</svg>
