<?xml version="1.0" encoding="UTF-8"?>
<svg xmlns="http://www.w3.org/2000/svg" width="226" height="61" viewBox="0 0 226 61" fill="none">
  <path fill-rule="evenodd" clip-rule="evenodd" d="M7.5529 33.4198V21.9342H22.801C23.7911 21.9342 24.6822 21.8352 25.5734 21.5382C26.4645 21.2411 27.1576 20.8451 27.8507 20.35C28.5438 19.8549 29.0388 19.1619 29.3359 18.4688C29.6329 17.7757 30.029 16.9836 30.128 16.0924C30.326 15.3003 30.425 14.4092 30.524 13.6171C30.6231 12.825 30.6231 12.0329 30.6231 11.4388C30.6231 10.7457 30.6231 10.0526 30.524 9.2605C30.524 8.46839 30.326 7.67628 30.227 6.98319C30.029 6.19108 29.831 5.49798 29.4349 4.80489C29.1379 4.11179 28.6428 3.51771 28.1477 2.92363C27.6527 2.42856 27.1576 2.03251 26.5635 1.83448C25.9694 1.53744 25.3753 1.33941 24.8803 1.2404C24.3852 1.14139 23.6921 0.943359 23.098 0.943359C22.603 0.943359 22.1079 0.943359 21.6128 0.943359H6.16671C5.57263 0.943359 4.97855 1.04237 4.28546 1.14139C3.59236 1.33941 2.99828 1.63645 2.50321 2.13152C1.90913 2.7256 1.61209 3.31968 1.51308 3.91377C1.41406 4.50785 1.41406 5.20094 1.41406 5.79502V33.4198H7.5529V33.4198ZM7.5529 16.9836V7.77529C7.5529 7.47825 7.5529 7.18121 7.5529 6.98319C7.5529 6.68615 7.75093 6.48812 7.94896 6.29009C8.246 5.99305 8.44402 5.89404 8.74107 5.89404C9.03811 5.89404 9.23613 5.89404 9.43416 5.89404H19.3355C19.8306 5.89404 20.5237 5.99305 21.2168 6.09206C22.0089 6.19108 22.603 6.48812 23.098 7.0822C23.5931 7.57727 23.9892 8.27036 24.0882 9.16148C24.1872 10.0526 24.2862 10.8447 24.2862 11.5378C24.2862 11.8349 24.2862 12.2309 24.2862 12.627C24.2862 13.023 24.1872 13.4191 24.1872 13.8151C24.0882 14.2112 23.9892 14.6072 23.8901 15.0033C23.7911 15.3993 23.5931 15.6964 23.2961 15.9934C22.801 16.5875 22.1079 16.9836 21.4148 17.0826C20.7217 17.1816 20.0286 17.1816 19.3355 17.1816H7.5529V16.9836Z" fill="#25245D"></path>
  <path d="M41.217 0.943359H35.0781V33.4198H41.217V0.943359Z" fill="#25245D"></path>
  <path fill-rule="evenodd" clip-rule="evenodd" d="M107.852 33.4198V28.5681H90.0293C89.5342 28.5681 89.1381 28.5681 88.9401 28.4691C88.7421 28.3701 88.5441 28.2711 88.445 28.2711C88.148 28.0731 88.049 27.776 88.049 27.578C88.049 27.281 88.049 27.0829 88.049 26.8849V0.943359H81.9102V29.8553C81.9102 30.5484 82.0092 31.1425 82.3062 31.5385C82.6032 31.9346 82.8013 32.3307 83.0983 32.5287C83.4944 32.8257 83.8904 33.0237 84.4845 33.2218C85.0786 33.3208 85.5737 33.4198 86.0687 33.4198H107.852Z" fill="#25245D"></path>
  <path fill-rule="evenodd" clip-rule="evenodd" d="M126.466 0.548828C125.476 0.548828 124.387 0.548828 123.298 0.548828C122.209 0.548828 121.021 0.746855 119.931 0.944882C118.842 1.14291 117.654 1.53896 116.565 1.93502C115.476 2.43009 114.486 3.02417 113.595 3.91529C112.703 4.7074 112.01 5.69753 111.515 6.78668C111.02 7.87583 110.624 8.96498 110.426 10.1531C110.228 11.3413 110.03 12.5295 109.931 13.7176C109.832 14.9058 109.832 16.094 109.832 17.1831C109.832 18.0742 109.832 19.1634 109.931 20.2525C110.03 21.3417 110.129 22.5298 110.327 23.718C110.525 24.9062 110.921 26.0943 111.416 27.1835C111.911 28.3716 112.604 29.3618 113.595 30.2529C114.486 31.144 115.476 31.7381 116.565 32.2332C117.654 32.7282 118.842 33.0253 119.931 33.2233C121.12 33.4213 122.209 33.5203 123.397 33.6194C124.486 33.6194 125.575 33.6194 126.565 33.6194C127.456 33.6194 128.546 33.6194 129.635 33.6194C130.823 33.6194 131.912 33.4213 133.1 33.2233C134.288 33.0253 135.378 32.6292 136.467 32.2332C137.556 31.7381 138.546 31.144 139.437 30.2529C140.229 29.4608 140.922 28.4706 141.417 27.3815C141.912 26.2923 142.308 25.2032 142.507 24.015C142.804 22.8269 142.903 21.6387 143.002 20.4505C143.101 19.2624 143.101 18.0742 143.101 17.0841C143.101 15.9949 143.101 14.9058 143.002 13.7176C142.903 12.5295 142.804 11.3413 142.507 10.1531C142.209 8.96498 141.912 7.87583 141.417 6.78668C140.922 5.69753 140.229 4.80641 139.437 3.91529C138.546 3.02417 137.556 2.43009 136.467 1.93502C135.378 1.43995 134.288 1.14291 133.1 0.944882C131.912 0.746855 130.823 0.647842 129.635 0.548828C128.546 0.548828 127.456 0.548828 126.466 0.548828ZM116.07 17.1831C116.07 14.7078 116.268 12.7275 116.565 11.3413C116.961 9.95511 117.456 8.86597 118.05 8.07386C119.04 6.88569 120.228 6.1926 121.714 5.89556C123.199 5.59852 124.783 5.4995 126.466 5.4995C128.15 5.4995 129.734 5.59852 131.219 5.89556C132.704 6.1926 133.892 6.88569 134.882 8.07386C135.18 8.3709 135.378 8.76695 135.675 9.26202C135.972 9.75709 136.17 10.3512 136.368 11.0443C136.566 11.7374 136.665 12.6285 136.764 13.6186C136.863 14.6088 136.962 15.7969 136.962 17.1831C136.962 18.4703 136.863 19.6584 136.764 20.6486C136.665 21.6387 136.467 22.5298 136.368 23.2229C136.17 23.916 135.972 24.5101 135.774 25.0052C135.576 25.5002 135.279 25.8963 134.981 26.2923C134.486 26.8864 133.892 27.3815 133.298 27.7776C132.704 28.1736 132.011 28.3716 131.318 28.5697C130.625 28.7677 129.833 28.8667 129.041 28.9657C128.249 28.9657 127.456 29.0647 126.565 29.0647C125.773 29.0647 124.882 29.0647 124.09 28.9657C123.298 28.9657 122.506 28.7677 121.813 28.5697C121.12 28.3716 120.426 28.0746 119.832 27.7776C119.238 27.3815 118.644 26.8864 118.248 26.2923C117.951 25.9953 117.753 25.5002 117.456 25.1042C117.258 24.6091 117.06 24.015 116.862 23.3219C116.664 22.6288 116.565 21.7377 116.466 20.7476C116.169 19.6584 116.07 18.4703 116.07 17.1831Z" fill="#25245D"></path>
  <path d="M176.569 17.3796H170.43V26.2908C170.43 26.5879 170.43 26.7859 170.331 27.0829C170.331 27.38 170.133 27.677 169.935 27.875C169.737 28.0731 169.44 28.2711 169.143 28.2711C168.846 28.2711 168.549 28.3701 168.351 28.3701L160.925 28.4691C159.638 28.4691 158.45 28.2711 157.361 27.776C156.271 27.281 155.38 26.3898 154.687 25.1027C154.588 24.8056 154.39 24.5086 154.291 24.1125C154.093 23.7165 153.994 23.1224 153.895 22.5283C153.796 21.9342 153.697 21.1421 153.598 20.251C153.499 19.3599 153.499 18.3697 153.499 17.1816C153.499 15.9934 153.499 15.0033 153.598 14.1122C153.697 13.221 153.796 12.5279 153.895 11.8348C153.994 11.1418 154.192 10.7457 154.291 10.2506C154.489 9.85458 154.588 9.45852 154.786 9.2605C155.38 8.07233 156.271 7.28023 157.559 6.68614C158.747 6.09206 160.232 5.79502 162.014 5.79502H176.47V0.943359H160.331C157.162 0.943359 154.489 1.63645 152.509 2.92363C151.321 3.71574 150.331 4.60686 149.637 5.69601C148.944 6.78516 148.449 7.97332 148.053 9.2605C147.657 10.5477 147.459 11.8348 147.36 13.221C147.261 14.6072 147.162 15.9934 147.162 17.2806C147.162 18.4688 147.162 19.6569 147.261 20.8451C147.36 22.0332 147.558 23.3204 147.756 24.5086C148.053 25.6967 148.449 26.8849 149.043 27.875C149.637 28.9642 150.43 29.9543 151.42 30.7464C152.212 31.3405 153.202 31.9346 154.39 32.5287C155.578 33.1228 157.162 33.3208 158.945 33.3208L172.312 33.2218C172.807 33.2218 173.302 33.1228 173.896 33.0237C174.49 32.8257 174.985 32.6277 175.48 32.2316C175.777 32.0336 176.074 31.6376 176.272 31.0435C176.569 30.5484 176.668 29.8553 176.668 28.9642V17.3796H176.569Z" fill="#25245D"></path>
  <path d="M187.262 0.943359H181.123V33.4198H187.262V0.943359Z" fill="#25245D"></path>
  <path d="M210.826 7.47825L215.777 0.943359H223.698L214.688 12.4289L210.826 7.47825ZM214.688 21.5382L223.698 33.4198H215.777L210.826 26.6869L214.688 21.5382Z" fill="#25245D"></path>
  <path d="M210.53 15.0033L199.737 0.943359H191.816L204.391 16.9836L191.915 33.4198H199.836L210.53 18.8648C211.421 17.5776 211.817 16.5875 210.53 15.0033Z" fill="#05A660"></path>
  <path d="M58.6413 7.47825L53.6906 0.943359H45.7695L54.8788 12.4289L58.6413 7.47825ZM54.8788 21.5382L45.8685 33.4198H53.7896L58.7403 26.6869L54.8788 21.5382Z" fill="#25245D"></path>
  <path d="M59.0392 15.0033L69.7327 0.943359H77.6538L65.1781 16.8845L77.6538 33.3208H69.7327L59.0392 18.8648C58.0491 17.5776 57.7521 16.5875 59.0392 15.0033Z" fill="#05A660"></path>
  <path fill-rule="evenodd" clip-rule="evenodd" d="M3.09627 43.1252H0.917969V59.9575H3.09627V43.1252ZM20.2256 43.1252H18.1463V56.9871L9.33412 43.1252H6.9578V59.9575H9.03708V46.2936L17.7503 59.9575H20.2256V43.1252ZM26.2654 52.3334H34.2855V50.4522H26.2654V45.0064H35.4737V43.1252H24.0871V59.9575H26.2654V52.3334V52.3334ZM53.3951 51.6403C53.3951 48.6699 52.306 46.0956 50.4247 44.6104C49.0386 43.4222 47.2563 42.8281 45.177 42.8281C40.3254 42.8281 37.0579 46.3926 37.0579 51.6403C37.0579 56.9871 40.3254 60.4525 45.177 60.4525C47.2563 60.4525 49.0386 59.8585 50.4247 58.6703C52.306 57.1851 53.3951 54.6107 53.3951 51.6403ZM51.2169 51.6403C51.2169 55.7989 48.8405 58.5713 45.177 58.5713C41.5135 58.5713 39.1372 55.7989 39.1372 51.6403C39.1372 47.4818 41.5135 44.7094 45.177 44.7094C48.8405 44.7094 51.2169 47.4818 51.2169 51.6403ZM62.3064 45.0064H67.8511V43.1252H54.5833V45.0064H60.1281V59.9575H62.3064V45.0064ZM72.6038 52.3334H81.812V50.4522H72.6038V45.0064H82.2081V43.1252H70.4255V59.9575H82.6041V58.0762H72.6038V52.3334ZM99.1394 48.3729C98.4463 44.6104 96.367 42.8281 92.6045 42.8281C90.3272 42.8281 88.545 43.5212 87.2578 44.9074C85.7726 46.5906 84.8815 48.967 84.8815 51.7393C84.8815 54.5117 85.7726 56.888 87.3568 58.5713C88.644 59.9575 90.3272 60.5515 92.6045 60.5515C96.6641 60.5515 98.9414 58.2742 99.5355 53.8186H97.3572C97.1591 55.0068 96.9611 55.6999 96.5651 56.393C95.872 57.7792 94.3868 58.5713 92.6045 58.5713C89.2381 58.5713 87.0598 55.8979 87.0598 51.6403C87.0598 47.2837 89.139 44.6104 92.4065 44.6104C93.7927 44.6104 95.0799 45.0064 95.773 45.6995C96.367 46.2936 96.7631 46.9867 96.9611 48.2739H99.1394V48.3729ZM113.397 52.3334V59.9575H115.576V43.1252H113.397V50.4522H104.684V43.1252H102.506V59.9575H104.684V52.2344H113.397V52.3334ZM128.051 52.8285H133.299C134.586 52.8285 135.675 52.4324 136.567 51.6403C137.557 50.7492 138.052 49.6601 138.052 48.0758C138.052 44.9074 136.17 43.1252 132.804 43.1252H125.873V59.9575H128.051V52.8285ZM128.051 50.9472V45.0064H132.507C134.586 45.0064 135.774 46.0956 135.774 47.9768C135.774 48.868 135.477 49.561 134.982 50.1551C134.388 50.7492 133.596 50.9472 132.507 50.9472H128.051ZM148.349 59.9575L154.191 43.0262H151.914L147.26 57.2841L142.309 43.0262H140.032L146.072 59.9575H148.349ZM162.904 45.0064H168.449V43.1252H155.181V45.0064H160.726V59.9575H162.904V45.0064V45.0064ZM170.726 57.5811H168.35V59.9575H170.726V57.5811ZM183.202 43.1252H181.024V59.9575H191.519V58.0762H183.202V43.1252ZM198.549 45.0064H204.094V43.1252H190.826V45.0064H196.371V59.9575H198.549V45.0064V45.0064ZM206.569 59.9575H213.104C217.362 59.9575 220.035 56.789 220.035 51.5413C220.035 46.2936 217.461 43.1252 213.104 43.1252H206.569V59.9575ZM208.747 58.0762V45.0064H212.708C214.391 45.0064 215.678 45.6005 216.569 46.6897C217.461 47.8778 217.857 49.363 217.857 51.5413C217.857 53.7196 217.461 55.3038 216.569 56.393C215.678 57.4821 214.391 58.0762 212.708 58.0762H208.747ZM225.679 57.5811H223.302V59.9575H225.679V57.5811Z" fill="#25245D"></path>
</svg>
