<?xml version="1.0" encoding="UTF-8"?>
<svg xmlns="http://www.w3.org/2000/svg" width="241" height="220" viewBox="0 0 241 220" fill="none">
  <path d="M233.717 129.812C226.259 149.802 210.988 171.467 189.526 177.859C157.055 187.55 153.199 213.73 95.0554 211.294C85.9736 210.939 77.6021 209.62 69.9409 207.591C65.7806 206.475 61.8739 205.155 58.1194 203.684C24.1769 189.935 6.46993 159.696 4.99858 128.036C3.07061 86.3819 32.0917 66.4933 51.0163 54.8747C69.8902 43.2561 92.6708 -1.79761 149.8 0.130364C158.526 0.434782 167.202 1.60171 175.624 3.88484C194.853 9.11067 214.387 20.6278 225.752 37.4215C226.614 38.6899 227.426 39.9583 228.187 41.2774C243.459 67.1529 243.915 102.567 233.717 129.812Z" fill="#92E3A9"></path>
  <path opacity="0.7" d="M233.717 129.812C226.259 149.802 210.988 171.467 189.526 177.859C157.055 187.55 153.199 213.73 95.0554 211.294C85.9736 210.939 77.6021 209.62 69.9409 207.591C65.7806 206.475 61.8739 205.155 58.1194 203.684C24.1769 189.935 6.46993 159.696 4.99858 128.036C3.07061 86.3819 32.0917 66.4933 51.0163 54.8747C69.8902 43.2561 92.6708 -1.79761 149.8 0.130364C158.526 0.434782 167.202 1.60171 175.624 3.88484C194.853 9.11067 214.387 20.6278 225.752 37.4215C226.614 38.6899 227.426 39.9583 228.187 41.2774C243.459 67.1529 243.915 102.567 233.717 129.812Z" fill="white"></path>
  <path d="M121.898 147.924C116.012 134.53 116.875 112.611 119.615 110.785C122.608 108.756 127.377 119.055 132.146 116.062C136.916 113.068 140.163 106.523 136.155 96.2237C132.146 85.9242 126.87 92.7229 123.115 95.209C119.361 97.695 116.367 95.4626 117.078 86.4316C117.636 79.7851 120.223 67.507 121.543 61.5708C122.151 61.8245 122.76 62.0782 123.318 62.3826C111.548 56.8524 98.5083 55.1273 92.9781 56.8524C87.4478 58.6281 88.4625 59.0848 91.2023 65.6297C96.9355 79.227 75.1696 83.8948 68.8784 73.4431C65.1239 67.1518 70.6541 63.651 69.132 59.1355C67.61 54.62 39.8065 59.8966 36.255 61.8753C36.255 61.8753 43.0029 82.1697 42.0389 89.4758C41.0242 96.731 37.5234 100.029 32.2468 94.7523C26.9703 89.4758 20.2223 94.245 19.9687 103.022C19.715 111.8 21.2371 118.801 27.2239 116.823C33.2108 114.844 38.0307 107.538 40.0095 116.823C42.0389 126.107 38.4874 138.132 36.5087 146.655C36.5087 146.655 52.2876 153.403 59.5936 152.947C66.8489 152.439 71.3644 152.186 69.132 147.67C66.8996 143.155 63.0944 140.161 65.8849 135.138C68.6247 130.115 79.6852 130.623 85.4691 131.891C91.253 133.16 93.7391 137.421 92.0141 142.191C90.2383 146.96 87.2449 151.729 92.7751 152.744C98.0009 153.708 111.192 151.526 124.232 147.264C123.471 147.417 122.709 147.67 121.898 147.924Z" stroke="#263238" stroke-width="0.466275" stroke-miterlimit="10"></path>
  <path d="M126.615 146.402C125.854 146.656 125.093 146.91 124.281 147.163" stroke="#263238" stroke-width="0.466275" stroke-miterlimit="10"></path>
  <path d="M218.195 92.4713C213.426 92.4713 213.172 96.2258 208.149 95.4648C203.127 94.7037 202.619 83.1866 207.896 62.8414C207.896 62.8414 202.112 67.1032 189.073 67.3569C176.033 67.6106 170.757 66.0885 174.004 61.3193C177.251 56.5501 179.788 52.7956 176.997 49.0411C174.258 45.2867 160.965 45.794 156.703 49.0411C152.441 52.2883 155.435 56.0427 158.479 60.3046C161.523 64.5664 157.971 67.0525 152.948 67.3062C147.926 67.5599 135.14 67.8135 123.369 62.2833C122.76 62.0296 122.202 61.7252 121.594 61.4715C120.274 67.4584 117.687 79.6858 117.129 86.3323C116.368 95.3633 119.361 97.5957 123.166 95.1096C126.921 92.6236 132.197 85.8249 136.206 96.1244C140.214 106.424 136.967 112.918 132.197 115.962C127.428 118.956 122.659 108.707 119.666 110.686C116.926 112.512 116.063 134.43 121.949 147.825C123.521 147.317 125.094 146.81 126.667 146.302C140.467 141.533 154.268 139.301 156.754 142.548C159.24 145.795 158.276 145.288 154.978 150.311C151.731 155.334 151.985 159.595 157.464 162.081C162.994 164.567 176.541 164.111 177.759 158.327C179.027 152.543 171.975 149.296 175.272 143.766C178.52 138.235 207.388 146.252 207.388 146.252C207.388 146.252 200.843 124.181 203.38 116.926C205.866 109.671 207.896 111.396 211.904 114.186C215.912 116.926 221.189 116.673 223.167 108.656C225.197 100.741 222.964 92.4713 218.195 92.4713Z" stroke="#263238" stroke-width="0.466275" stroke-miterlimit="10"></path>
  <path d="M203.261 39.3057C209.646 36.292 212.38 28.6724 209.366 22.2869C206.352 15.9014 198.733 13.1681 192.347 16.1818C185.962 19.1955 183.228 26.8151 186.242 33.2006C189.256 39.5861 196.875 42.3194 203.261 39.3057Z" fill="#92E3A9" stroke="#263238" stroke-width="0.466275" stroke-miterlimit="10"></path>
  <path d="M198.879 38.1885C204.649 37.5963 208.846 32.4386 208.254 26.6684C207.662 20.8983 202.504 16.7007 196.734 17.2929C190.964 17.8852 186.766 23.0429 187.358 28.813C187.951 34.5832 193.108 38.7807 198.879 38.1885Z" fill="white" stroke="#263238" stroke-width="0.466275" stroke-miterlimit="10"></path>
  <path d="M201.098 34.6542C204.919 32.8365 206.543 28.2657 204.725 24.4449C202.907 20.6242 198.336 19.0004 194.516 20.8181C190.695 22.6358 189.071 27.2067 190.889 31.0274C192.707 34.8481 197.277 36.4719 201.098 34.6542Z" fill="#92E3A9" stroke="#263238" stroke-width="0.466275" stroke-miterlimit="10"></path>
  <path d="M202.67 27.7321C202.67 25.043 200.488 22.9121 197.85 22.9121C195.161 22.9121 193.03 25.0938 193.03 27.7321C193.03 30.4211 195.212 32.552 197.85 32.552C200.488 32.552 202.67 30.3703 202.67 27.7321Z" fill="white" stroke="#263238" stroke-width="0.466275" stroke-miterlimit="10"></path>
  <path d="M200.032 27.7304C200.032 26.5128 199.017 25.498 197.8 25.498C196.582 25.498 195.567 26.5128 195.567 27.7304C195.567 28.9481 196.582 29.9628 197.8 29.9628C199.068 29.9628 200.032 28.9481 200.032 27.7304Z" fill="#92E3A9" stroke="#263238" stroke-width="0.466275" stroke-miterlimit="10"></path>
  <path d="M198.762 24.1797L197.798 27.7312L201.146 28.4415L198.762 24.1797Z" fill="#263238" stroke="#263238" stroke-width="0.466275" stroke-miterlimit="10"></path>
  <path d="M200.132 26.1551L214.693 18.2402" stroke="#263238" stroke-width="0.932551" stroke-miterlimit="10"></path>
  <path d="M210.025 20.831L210.228 17.0258L217.078 13.1191V17.4825L210.025 20.831Z" fill="#263238" stroke="#263238" stroke-width="0.466275" stroke-miterlimit="10"></path>
  <path d="M220.02 19.5117L217.027 17.3301L210.025 21.0338L213.374 22.9618L220.02 19.5117Z" fill="#263238" stroke="#263238" stroke-width="0.466275" stroke-miterlimit="10"></path>
  <path d="M130.775 28.4922H125.701V40.6181H130.775V28.4922Z" fill="#92E3A9" stroke="#263238" stroke-width="0.466275" stroke-miterlimit="10"></path>
  <path d="M138.285 24.8418H133.211V40.6208H138.285V24.8418Z" fill="#92E3A9" stroke="#263238" stroke-width="0.466275" stroke-miterlimit="10"></path>
  <path d="M145.792 28.4922H140.719V40.6181H145.792V28.4922Z" fill="#92E3A9" stroke="#263238" stroke-width="0.466275" stroke-miterlimit="10"></path>
  <path d="M153.251 24.0273H148.178V40.6181H153.251V24.0273Z" fill="#92E3A9" stroke="#263238" stroke-width="0.466275" stroke-miterlimit="10"></path>
  <path d="M160.761 17.9414H155.688V40.5698H160.761V17.9414Z" fill="#92E3A9" stroke="#263238" stroke-width="0.466275" stroke-miterlimit="10"></path>
  <path d="M154.012 8.35126L155.991 9.21378L142.495 22.1515L136.051 18.6507L125.854 24.8405V26.7178L136.102 20.4772L142.799 24.1302L157.107 10.3807L157.868 12.4102L160.709 5.81445L154.012 8.35126Z" fill="#263238" stroke="#263238" stroke-width="0.466275" stroke-miterlimit="10" stroke-linecap="round" stroke-linejoin="round"></path>
  <path d="M94.8258 40.0774C101.7 38.4639 105.965 31.5833 104.351 24.7092C102.738 17.8351 95.857 13.5705 88.9828 15.184C82.1087 16.7975 77.8441 23.678 79.4576 30.5522C81.0711 37.4263 87.9517 41.6909 94.8258 40.0774Z" fill="white" stroke="#263238" stroke-width="0.466275" stroke-miterlimit="10"></path>
  <path d="M94.4372 38.7095C100.556 37.3124 104.384 31.2192 102.987 25.1001C101.59 18.9809 95.4966 15.1531 89.3775 16.5502C83.2584 17.9474 79.4305 24.0406 80.8277 30.1597C82.2249 36.2789 88.318 40.1067 94.4372 38.7095Z" fill="#92E3A9" stroke="#263238" stroke-width="0.466275" stroke-miterlimit="10"></path>
  <path d="M93.4818 37.8564C99.0752 36.9898 102.907 31.753 102.04 26.1595C101.174 20.5661 95.937 16.7343 90.3436 17.6008C84.7502 18.4674 80.9183 23.7043 81.7849 29.2977C82.6515 34.8911 87.8883 38.723 93.4818 37.8564Z" fill="white" stroke="#263238" stroke-width="0.466275" stroke-miterlimit="10"></path>
  <path d="M91.7585 36.4569V34.8333C90.5408 34.7826 89.6783 34.3767 89.0695 33.6664C88.4606 32.9561 88.1562 31.8399 88.1055 30.4193L90.5915 30.0134C90.5915 30.6222 90.693 31.0789 90.7945 31.4847C90.896 31.8906 91.0482 32.1443 91.2511 32.3473C91.4541 32.5502 91.7077 32.6517 92.0122 32.6517C92.3673 32.6517 92.621 32.5502 92.7732 32.2965C92.9254 32.0428 92.9761 31.7892 92.9761 31.4847C92.9761 30.8759 92.8239 30.3685 92.5703 29.9627C92.3166 29.5568 91.9107 29.1509 91.4541 28.745L89.9827 27.4766C89.6276 27.1722 89.3231 26.817 89.0695 26.5126C88.8158 26.2082 88.6128 25.8023 88.4099 25.3964C88.2577 24.9905 88.1562 24.4831 88.1562 23.925C88.1562 22.8089 88.4606 21.9971 89.0695 21.3375C89.6783 20.7287 90.5408 20.3735 91.6063 20.272V18.6992H92.4688V20.272C93.0776 20.3228 93.6357 20.475 94.0416 20.6779C94.4475 20.9316 94.7519 21.236 94.9549 21.6419C95.1578 21.9971 95.31 22.4537 95.4115 22.9103C95.513 23.3669 95.5637 23.7728 95.5637 24.2295L93.0776 24.5846C93.0776 24.128 93.0269 23.7728 92.9761 23.4177C92.9254 23.0625 92.8239 22.8089 92.6717 22.6566C92.5195 22.4537 92.2658 22.403 91.9614 22.403C91.657 22.403 91.4033 22.5552 91.2004 22.8089C91.0482 23.0625 90.9467 23.3162 90.9467 23.6206C90.9467 24.1787 91.0989 24.5846 91.3526 24.9398C91.6063 25.2442 91.9107 25.5993 92.2151 25.9038L93.6865 27.1722C94.0923 27.5273 94.4475 27.8825 94.7519 28.2884C95.0563 28.6943 95.3608 29.1509 95.5637 29.6582C95.7666 30.1656 95.8681 30.7237 95.8681 31.3833C95.8681 31.9921 95.7666 32.5502 95.513 33.0576C95.2593 33.5649 94.9041 33.9708 94.4475 34.2752C93.9909 34.5797 93.4328 34.7826 92.7732 34.8333V36.4569H91.7585Z" fill="#263238"></path>
  <path d="M50.4594 17.7383H26.7148V40.0622H50.4594V17.7383Z" fill="white" stroke="#263238" stroke-width="0.466275" stroke-miterlimit="10"></path>
  <path d="M50.4594 17.7383H26.7148V23.4715H50.4594V17.7383Z" fill="#92E3A9" stroke="#263238" stroke-width="0.466275" stroke-miterlimit="10" stroke-linecap="round" stroke-linejoin="round"></path>
  <path d="M31.4848 26.668H28.6436V29.5092H31.4848V26.668Z" fill="#92E3A9" stroke="#263238" stroke-width="0.466275" stroke-miterlimit="10" stroke-linecap="round" stroke-linejoin="round"></path>
  <path d="M35.7465 26.668H32.9053V29.5092H35.7465V26.668Z" fill="#92E3A9" stroke="#263238" stroke-width="0.466275" stroke-miterlimit="10" stroke-linecap="round" stroke-linejoin="round"></path>
  <path d="M40.0092 26.668H37.168V29.5092H40.0092V26.668Z" fill="#92E3A9" stroke="#263238" stroke-width="0.466275" stroke-miterlimit="10" stroke-linecap="round" stroke-linejoin="round"></path>
  <path d="M44.2709 26.668H41.4297V29.5092H44.2709V26.668Z" fill="#92E3A9" stroke="#263238" stroke-width="0.466275" stroke-miterlimit="10" stroke-linecap="round" stroke-linejoin="round"></path>
  <path d="M48.5326 26.668H45.6914V29.5092H48.5326V26.668Z" fill="#92E3A9" stroke="#263238" stroke-width="0.466275" stroke-miterlimit="10" stroke-linecap="round" stroke-linejoin="round"></path>
  <path d="M31.4848 31.1348H28.6436V33.976H31.4848V31.1348Z" fill="#92E3A9" stroke="#263238" stroke-width="0.466275" stroke-miterlimit="10" stroke-linecap="round" stroke-linejoin="round"></path>
  <path d="M35.7455 31.1348H32.9043V33.976H35.7455V31.1348Z" fill="#92E3A9" stroke="#263238" stroke-width="0.466275" stroke-miterlimit="10" stroke-linecap="round" stroke-linejoin="round"></path>
  <path d="M40.0082 31.1348H37.167V33.976H40.0082V31.1348Z" fill="#92E3A9" stroke="#263238" stroke-width="0.466275" stroke-miterlimit="10" stroke-linecap="round" stroke-linejoin="round"></path>
  <path d="M44.2709 31.1348H41.4297V33.976H44.2709V31.1348Z" fill="#92E3A9" stroke="#263238" stroke-width="0.466275" stroke-miterlimit="10" stroke-linecap="round" stroke-linejoin="round"></path>
  <path d="M48.5326 31.1348H45.6914V33.976H48.5326V31.1348Z" fill="#92E3A9" stroke="#263238" stroke-width="0.466275" stroke-miterlimit="10" stroke-linecap="round" stroke-linejoin="round"></path>
  <path d="M31.4848 35.5938H28.6436V38.435H31.4848V35.5938Z" fill="#92E3A9" stroke="#263238" stroke-width="0.466275" stroke-miterlimit="10" stroke-linecap="round" stroke-linejoin="round"></path>
  <path d="M35.7455 35.5938H32.9043V38.435H35.7455V35.5938Z" fill="#92E3A9" stroke="#263238" stroke-width="0.466275" stroke-miterlimit="10" stroke-linecap="round" stroke-linejoin="round"></path>
  <path d="M40.0082 35.5938H37.167V38.435H40.0082V35.5938Z" fill="#92E3A9" stroke="#263238" stroke-width="0.466275" stroke-miterlimit="10" stroke-linecap="round" stroke-linejoin="round"></path>
  <path d="M44.2709 35.5938H41.4297V38.435H44.2709V35.5938Z" fill="#92E3A9" stroke="#263238" stroke-width="0.466275" stroke-miterlimit="10" stroke-linecap="round" stroke-linejoin="round"></path>
  <path d="M48.5326 35.5938H45.6914V38.435H48.5326V35.5938Z" fill="#92E3A9" stroke="#263238" stroke-width="0.466275" stroke-miterlimit="10" stroke-linecap="round" stroke-linejoin="round"></path>
  <path d="M31.9914 14.0859H29.9619V19.5654H31.9914V14.0859Z" fill="#263238"></path>
  <path d="M37.0646 14.0859H35.0352V19.5654H37.0646V14.0859Z" fill="#263238"></path>
  <path d="M42.1398 14.0859H40.1104V19.5654H42.1398V14.0859Z" fill="#263238"></path>
  <path d="M47.2111 14.0859H45.1816V19.5654H47.2111V14.0859Z" fill="#263238"></path>
  <path d="M6.0659 184.457C7.1821 184.914 9.87112 184.863 9.87112 184.863C9.92186 184.863 9.31302 183.087 9.26229 182.986C8.65345 181.768 6.82695 179.688 5.30486 179.891C4.18866 180.043 3.57983 181.159 3.83351 182.174C4.08719 183.29 5.15265 184.051 6.0659 184.457Z" fill="#92E3A9"></path>
  <path d="M7.02992 192.269C8.19685 192.422 10.5815 191.762 10.7844 191.661C11.1396 193.03 11.6469 194.35 12.2557 195.719C12.6109 196.48 12.9661 197.242 13.3212 198.003C13.1183 197.698 12.9153 197.394 12.8646 197.343C11.9513 196.328 9.61746 194.806 8.19685 195.415C7.18212 195.872 6.87771 197.089 7.38507 198.003C7.89243 198.967 9.16084 199.423 10.1756 199.575C11.1903 199.728 13.2705 199.169 13.8286 199.017C13.9808 199.322 14.133 199.575 14.2345 199.88C14.9448 201.25 15.6551 202.67 16.2639 204.04C16.4669 204.548 16.7205 205.004 16.9235 205.511C16.7205 205.207 16.5683 205.004 16.5176 204.953C15.6043 203.939 13.2705 202.417 11.8499 203.025C10.8351 203.482 10.5307 204.7 11.0381 205.613C11.5454 206.577 12.8138 207.034 13.8286 207.186C14.7926 207.338 16.7205 206.831 17.3801 206.678C17.583 207.186 17.786 207.693 17.9382 208.201C18.0397 208.556 18.1919 208.86 18.2426 209.215C18.3441 209.57 18.4456 209.875 18.547 210.23C18.6992 210.89 18.8515 211.549 19.0037 212.209C19.1051 212.665 19.2066 213.071 19.2573 213.528C19.0544 213.02 18.5978 212.107 18.547 212.006C17.8367 210.839 15.7058 209.012 14.2345 209.418C13.169 209.672 12.6616 210.839 13.0675 211.854C13.4227 212.868 14.5896 213.528 15.6043 213.832C16.6698 214.137 19.0544 213.883 19.3588 213.832C19.511 214.543 19.6125 215.253 19.7647 215.912C20.0184 217.384 20.2213 218.652 20.3735 219.768H21.3883C21.2361 218.652 20.9824 217.282 20.678 215.76C20.5258 215.05 20.3735 214.289 20.1706 213.477C20.3735 213.426 21.3883 212.97 22.2508 212.513C23.0118 213.376 25.0413 214.34 25.295 214.492C25.0413 215.151 24.7369 215.811 24.4832 216.42C23.9251 217.688 23.4177 218.855 22.9104 219.819H23.9758C24.3817 218.906 24.8383 217.891 25.295 216.775C25.5994 216.115 25.8531 215.354 26.1575 214.593C26.4619 214.644 28.7958 215.151 29.912 214.898C30.9267 214.695 32.1443 214.086 32.5502 213.122C33.0069 212.158 32.601 210.94 31.5355 210.636C30.0642 210.128 27.8825 211.803 27.0707 212.919C27.02 212.97 26.5634 213.731 26.3097 214.238C26.4112 213.934 26.5634 213.629 26.6648 213.325C26.9185 212.716 27.1215 212.056 27.3244 211.346C27.4259 210.991 27.5273 210.687 27.6288 210.331C27.7303 209.976 27.8318 209.621 27.8825 209.266C28.0854 208.454 28.2377 207.592 28.3899 206.729C28.948 206.932 30.9267 207.642 31.9414 207.541C32.9561 207.49 34.2245 207.084 34.8334 206.171C35.3915 205.258 35.1885 204.04 34.2245 203.533C32.8546 202.822 30.4193 204.142 29.4553 205.106C29.4046 205.156 28.7958 205.917 28.4406 206.374C28.5421 205.867 28.5928 205.359 28.6943 204.801C28.8972 203.279 29.0494 201.757 29.2016 200.184C29.2524 199.728 29.3031 199.22 29.3539 198.764C29.5568 198.814 31.8907 199.728 33.0576 199.626C34.0723 199.575 35.3407 199.169 35.9496 198.256C36.5077 197.343 36.3047 196.125 35.3407 195.618C33.9708 194.908 31.5355 196.227 30.5715 197.191C30.5208 197.241 29.6075 198.358 29.4046 198.662C29.5061 197.647 29.6075 196.582 29.8105 195.567C30.0134 194.147 30.3178 192.827 30.673 191.508C30.7745 191.559 33.2098 192.472 34.3767 192.371C35.3915 192.32 36.6599 191.914 37.2687 191.001C37.8268 190.088 37.6239 188.87 36.6599 188.363C35.29 187.652 32.8547 188.972 31.8907 189.935C31.8399 189.986 30.8759 191.204 30.7237 191.458C30.7237 191.356 30.7745 191.305 30.7745 191.204C31.1804 189.834 31.7892 188.566 32.398 187.348C32.7532 186.688 33.1083 186.029 33.5142 185.42C33.9708 185.623 35.9496 186.587 37.015 186.638C38.0297 186.688 39.3489 186.435 40.0592 185.623C40.7188 184.811 40.668 183.543 39.7548 182.934C38.4864 182.071 35.8988 183.086 34.8334 183.949C34.7826 183.999 34.2245 184.557 33.8694 184.913C34.0216 184.659 34.2245 184.355 34.3767 184.101C35.0363 183.137 35.6451 182.274 36.254 181.564C36.6091 181.158 36.9136 180.752 37.1672 180.448C37.7253 180.448 39.8562 180.397 40.8202 179.94C41.7335 179.484 42.799 178.672 43.0526 177.657C43.2556 176.643 42.6467 175.526 41.5305 175.425C40.0085 175.273 38.182 177.353 37.6239 178.621C37.5731 178.723 37.015 180.499 37.0658 180.499H37.1165C36.8121 180.803 36.5077 181.158 36.2032 181.564C35.5944 182.274 34.9348 183.137 34.2753 184.101C33.6157 185.065 32.9054 186.13 32.2966 187.297C31.637 188.464 31.0281 189.733 30.5715 191.153V191.204C30.5715 190.747 30.5715 189.479 30.5715 189.377C30.4193 188.008 29.2524 185.471 27.7303 185.217C26.6648 185.014 25.7008 185.877 25.6501 186.942C25.5486 188.008 26.3604 189.124 27.1215 189.783C27.984 190.544 30.3686 191.305 30.5715 191.356C30.1656 192.675 29.8105 194.096 29.5568 195.516C29.4046 196.328 29.3031 197.191 29.2016 198.003C29.2016 197.597 29.2016 197.242 29.2016 197.242C29.0494 195.872 27.8825 193.335 26.3604 193.081C25.295 192.878 24.331 193.741 24.2802 194.806C24.1788 195.872 24.9905 196.988 25.7516 197.647C26.5126 198.358 28.5421 199.017 29.1002 199.169C29.0494 199.474 28.9987 199.829 28.9987 200.133C28.7958 201.656 28.6435 203.228 28.4406 204.7C28.3391 205.207 28.2884 205.765 28.1869 206.273C28.1869 205.917 28.1869 205.613 28.1869 205.613C28.0347 204.243 26.8678 201.706 25.3457 201.453C24.2802 201.25 23.3162 202.112 23.2655 203.178C23.164 204.243 23.9758 205.359 24.7369 206.019C25.4979 206.678 27.3244 207.338 27.984 207.541C27.8825 208.048 27.781 208.606 27.6288 209.114C27.5273 209.469 27.4766 209.773 27.3244 210.128C27.2229 210.484 27.1215 210.788 27.02 211.143C26.7663 211.752 26.5634 212.412 26.3097 213.02C26.1575 213.426 26.0053 213.832 25.8023 214.238C25.9038 213.731 26.0053 212.665 26.0053 212.615C26.0053 211.701 25.7008 210.23 25.0413 209.165C25.0413 209.012 25.0413 208.911 25.0413 208.759C24.8891 207.693 23.8743 206.932 22.8089 207.237C21.3375 207.642 20.3735 210.23 20.3228 211.6C20.3228 211.701 20.3735 212.564 20.4243 213.122C20.3735 212.818 20.2721 212.462 20.2213 212.158C20.0691 211.498 19.8662 210.839 19.714 210.128C19.6125 209.773 19.511 209.469 19.4096 209.114C19.3081 208.759 19.1559 208.403 19.0544 208.099C18.75 207.287 18.4456 206.475 18.0904 205.714C18.6485 205.562 20.678 205.055 21.4897 204.446C22.3015 203.837 23.164 202.822 23.164 201.706C23.164 200.641 22.3015 199.728 21.1853 199.829C19.6632 199.981 18.3441 202.417 18.0397 203.786C18.0397 203.888 17.9382 204.852 17.8875 205.41C17.6845 204.953 17.4308 204.446 17.2279 203.989C16.5683 202.62 15.8073 201.25 15.097 199.88C14.894 199.474 14.6403 199.017 14.4374 198.611C14.6403 198.561 17.0757 198.003 17.9889 197.292C18.8007 196.683 19.6632 195.669 19.6632 194.552C19.6632 193.487 18.8007 192.574 17.6845 192.675C16.1624 192.827 14.8433 195.263 14.5389 196.633C14.5389 196.734 14.3867 198.155 14.3867 198.51C13.93 197.597 13.4227 196.683 13.0168 195.719C12.408 194.451 11.9006 193.132 11.4947 191.863C11.5962 191.863 14.133 191.255 15.0462 190.544C15.858 189.935 16.7205 188.921 16.7205 187.805C16.7205 186.739 15.858 185.826 14.7418 185.927C13.2197 186.08 11.9006 188.515 11.5962 189.885C11.5962 189.986 11.444 191.508 11.444 191.813C11.444 191.711 11.3932 191.661 11.3425 191.559C10.9366 190.189 10.7337 188.769 10.5815 187.449C10.48 186.688 10.48 185.978 10.4292 185.217C10.9366 185.166 13.1183 184.862 14.0315 184.304C14.894 183.796 15.858 182.832 16.0102 181.767C16.1117 180.701 15.3507 179.687 14.2852 179.687C12.7631 179.687 11.1903 181.97 10.7337 183.238C10.7337 183.289 10.5815 184.05 10.4292 184.608C10.4292 184.304 10.4292 183.949 10.4292 183.644C10.4292 182.477 10.48 181.412 10.5815 180.499C10.6322 179.94 10.6829 179.484 10.7337 179.027C11.1903 178.723 12.9661 177.454 13.5242 176.592C14.0823 175.729 14.4881 174.461 14.0823 173.446C13.6764 172.482 12.5602 171.924 11.5962 172.431C10.2263 173.142 9.87114 175.882 10.0741 177.251C10.0741 177.353 10.6322 179.179 10.6322 179.129C10.6322 179.129 10.6322 179.129 10.6829 179.129C10.6322 179.585 10.5815 180.042 10.5307 180.549C10.4292 181.513 10.3278 182.579 10.3278 183.695C10.277 184.862 10.277 186.13 10.4292 187.449C10.5307 188.769 10.7337 190.189 11.1396 191.61V191.661C10.8859 191.305 10.1756 190.24 10.1248 190.189C9.21157 189.174 6.87771 187.652 5.45709 188.261C4.44237 188.718 4.13795 189.935 4.64531 190.849C4.74679 191.661 6.01519 192.117 7.02992 192.269Z" fill="#92E3A9"></path>
  <path d="M33.3623 185.061C33.3623 185.061 33.8697 183.286 33.8697 183.133C34.0726 181.764 33.616 179.024 32.2461 178.364C31.2314 177.908 30.1152 178.466 29.7601 179.48C29.4049 180.495 29.8615 181.764 30.4196 182.626C31.0792 183.59 33.3623 185.061 33.3623 185.061Z" fill="#92E3A9"></path>
  <path d="M193.383 184.457C194.499 184.914 197.188 184.863 197.188 184.863C197.239 184.863 196.63 183.087 196.58 182.986C195.971 181.768 194.144 179.688 192.622 179.891C191.506 180.043 190.897 181.159 191.151 182.174C191.354 183.29 192.419 184.051 193.383 184.457Z" fill="#92E3A9"></path>
  <path d="M194.296 192.269C195.462 192.422 197.847 191.762 198.05 191.661C198.405 193.03 198.913 194.35 199.521 195.719C199.877 196.48 200.232 197.242 200.587 198.003C200.384 197.698 200.181 197.394 200.13 197.343C199.217 196.328 196.883 194.806 195.462 195.415C194.448 195.872 194.143 197.089 194.651 198.003C195.158 198.967 196.426 199.423 197.441 199.575C198.456 199.728 200.536 199.169 201.094 199.017C201.246 199.322 201.399 199.575 201.5 199.88C202.21 201.25 202.921 202.67 203.53 204.04C203.732 204.548 203.986 205.004 204.189 205.511C203.986 205.207 203.834 205.004 203.783 204.953C202.87 203.939 200.536 202.417 199.115 203.025C198.101 203.482 197.796 204.7 198.304 205.613C198.811 206.577 200.079 207.034 201.094 207.186C202.058 207.338 203.986 206.831 204.646 206.678C204.849 207.186 205.052 207.693 205.204 208.201C205.305 208.556 205.458 208.86 205.508 209.215C205.61 209.57 205.711 209.875 205.813 210.23C205.965 210.89 206.117 211.549 206.269 212.209C206.371 212.665 206.472 213.071 206.523 213.528C206.32 213.02 205.863 212.107 205.813 212.006C205.102 210.839 202.971 209.012 201.5 209.418C200.435 209.672 199.927 210.839 200.333 211.854C200.688 212.868 201.855 213.528 202.87 213.832C203.935 214.137 206.32 213.883 206.624 213.832C206.777 214.543 206.878 215.253 207.03 215.912C207.284 217.384 207.487 218.652 207.639 219.768H208.654C208.502 218.652 208.248 217.282 207.944 215.76C207.791 215.05 207.639 214.289 207.436 213.477C207.639 213.426 208.654 212.97 209.516 212.513C210.277 213.376 212.307 214.34 212.561 214.492C212.307 215.151 212.002 215.811 211.749 216.42C211.191 217.688 210.683 218.855 210.176 219.819H211.241C211.647 218.906 212.104 217.891 212.561 216.775C212.865 216.115 213.119 215.354 213.423 214.593C213.728 214.644 216.061 215.151 217.178 214.898C218.192 214.695 219.41 214.086 219.816 213.122C220.272 212.158 219.867 210.94 218.801 210.636C217.33 210.128 215.148 211.803 214.336 212.919C214.286 212.97 213.829 213.731 213.575 214.238C213.677 213.934 213.829 213.629 213.93 213.325C214.184 212.716 214.387 212.056 214.59 211.346C214.692 210.991 214.793 210.687 214.894 210.331C214.996 209.976 215.097 209.621 215.148 209.266C215.351 208.454 215.503 207.592 215.655 206.729C216.214 206.932 218.192 207.642 219.207 207.541C220.222 207.49 221.49 207.084 222.099 206.171C222.657 205.258 222.454 204.04 221.49 203.533C220.12 202.822 217.685 204.142 216.721 205.106C216.67 205.156 216.061 205.917 215.706 206.374C215.808 205.867 215.858 205.359 215.96 204.801C216.163 203.279 216.315 201.757 216.467 200.184C216.518 199.728 216.569 199.22 216.619 198.764C216.822 198.814 219.156 199.728 220.323 199.626C221.338 199.575 222.606 199.169 223.215 198.256C223.773 197.343 223.57 196.125 222.606 195.618C221.236 194.908 218.801 196.227 217.837 197.191C217.786 197.241 216.873 198.358 216.67 198.662C216.772 197.647 216.873 196.582 217.076 195.567C217.279 194.147 217.583 192.827 217.939 191.508C218.04 191.559 220.475 192.472 221.642 192.371C222.657 192.32 223.925 191.914 224.534 191.001C225.092 190.088 224.889 188.87 223.925 188.363C222.556 187.652 220.12 188.972 219.156 189.935C219.106 189.986 218.142 191.204 217.989 191.458C217.989 191.356 218.04 191.305 218.04 191.204C218.446 189.834 219.055 188.566 219.664 187.348C220.019 186.688 220.374 186.029 220.78 185.42C221.236 185.623 223.215 186.587 224.281 186.638C225.295 186.688 226.615 186.435 227.325 185.623C227.984 184.811 227.934 183.543 227.02 182.934C225.752 182.071 223.164 183.086 222.099 183.949C222.048 183.999 221.49 184.557 221.135 184.913C221.287 184.659 221.49 184.355 221.642 184.101C222.302 183.137 222.911 182.274 223.52 181.564C223.875 181.158 224.179 180.752 224.433 180.448C224.991 180.448 227.122 180.397 228.086 179.94C228.999 179.484 230.065 178.672 230.318 177.657C230.521 176.643 229.912 175.526 228.796 175.425C227.274 175.273 225.448 177.353 224.889 178.621C224.839 178.723 224.281 180.499 224.331 180.499H224.382C224.078 180.803 223.773 181.158 223.469 181.564C222.86 182.274 222.2 183.137 221.541 184.101C220.881 185.065 220.171 186.13 219.562 187.297C218.903 188.464 218.294 189.733 217.837 191.153V191.204C217.837 190.747 217.837 189.479 217.837 189.377C217.685 188.008 216.518 185.471 214.996 185.217C213.93 185.014 212.966 185.877 212.916 186.942C212.814 188.008 213.626 189.124 214.387 189.783C215.25 190.544 217.634 191.305 217.837 191.356C217.431 192.675 217.076 194.096 216.822 195.516C216.67 196.328 216.569 197.191 216.467 198.003C216.467 197.597 216.467 197.242 216.467 197.242C216.315 195.872 215.148 193.335 213.626 193.081C212.561 192.878 211.597 193.741 211.546 194.806C211.444 195.872 212.256 196.988 213.017 197.647C213.778 198.358 215.808 199.017 216.366 199.169C216.315 199.474 216.264 199.829 216.264 200.133C216.061 201.656 215.909 203.228 215.706 204.7C215.605 205.207 215.554 205.765 215.453 206.273C215.453 205.917 215.453 205.613 215.453 205.613C215.3 204.243 214.133 201.706 212.611 201.453C211.546 201.25 210.582 202.112 210.531 203.178C210.43 204.243 211.241 205.359 212.002 206.019C212.764 206.678 214.59 207.338 215.25 207.541C215.148 208.048 215.047 208.606 214.894 209.114C214.793 209.469 214.742 209.773 214.59 210.128C214.489 210.484 214.387 210.788 214.286 211.143C214.032 211.752 213.829 212.412 213.575 213.02C213.423 213.426 213.271 213.832 213.068 214.238C213.169 213.731 213.271 212.665 213.271 212.615C213.271 211.701 212.966 210.23 212.307 209.165C212.307 209.012 212.307 208.911 212.307 208.759C212.155 207.693 211.14 206.932 210.074 207.237C208.603 207.642 207.639 210.23 207.588 211.6C207.588 211.701 207.639 212.564 207.69 213.122C207.639 212.818 207.538 212.462 207.487 212.158C207.335 211.498 207.132 210.839 206.98 210.128C206.878 209.773 206.777 209.469 206.675 209.114C206.574 208.759 206.421 208.403 206.32 208.099C206.016 207.287 205.711 206.475 205.356 205.714C205.914 205.562 207.944 205.055 208.755 204.446C209.567 203.837 210.43 202.822 210.43 201.706C210.43 200.641 209.567 199.728 208.451 199.829C206.929 199.981 205.61 202.417 205.305 203.786C205.305 203.888 205.204 204.852 205.153 205.41C204.95 204.953 204.696 204.446 204.494 203.989C203.834 202.62 203.073 201.25 202.363 199.88C202.16 199.474 201.906 199.017 201.703 198.611C201.906 198.561 204.341 198.003 205.255 197.292C206.066 196.683 206.929 195.669 206.929 194.552C206.929 193.487 206.066 192.574 204.95 192.675C203.428 192.827 202.109 195.263 201.804 196.633C201.804 196.734 201.652 198.155 201.652 198.51C201.196 197.597 200.688 196.683 200.282 195.719C199.674 194.451 199.166 193.132 198.76 191.863C198.862 191.863 201.399 191.255 202.312 190.544C203.124 189.935 203.986 188.921 203.986 187.805C203.986 186.739 203.124 185.826 202.007 185.927C200.485 186.08 199.166 188.515 198.862 189.885C198.862 189.986 198.71 191.508 198.71 191.813C198.71 191.711 198.659 191.661 198.608 191.559C198.202 190.189 197.999 188.769 197.847 187.449C197.746 186.688 197.746 185.978 197.695 185.217C198.202 185.166 200.384 184.862 201.297 184.304C202.16 183.796 203.124 182.832 203.276 181.767C203.377 180.701 202.616 179.687 201.551 179.687C200.029 179.687 198.456 181.97 197.999 183.238C197.999 183.289 197.847 184.05 197.695 184.608C197.695 184.304 197.695 183.949 197.695 183.644C197.695 182.477 197.746 181.412 197.847 180.499C197.898 179.94 197.949 179.484 197.999 179.027C198.456 178.723 200.232 177.454 200.79 176.592C201.348 175.729 201.754 174.461 201.348 173.446C200.942 172.482 199.826 171.924 198.862 172.431C197.492 173.142 197.137 175.882 197.34 177.251C197.34 177.353 197.898 179.179 197.898 179.129C197.898 179.129 197.898 179.129 197.949 179.129C197.898 179.585 197.847 180.042 197.796 180.549C197.695 181.513 197.593 182.579 197.593 183.695C197.543 184.862 197.543 186.13 197.695 187.449C197.796 188.769 197.999 190.189 198.405 191.61V191.661C198.151 191.305 197.441 190.24 197.39 190.189C196.477 189.174 194.143 187.652 192.723 188.261C191.708 188.718 191.404 189.935 191.911 190.849C192.012 191.661 193.281 192.117 194.296 192.269Z" fill="#92E3A9"></path>
  <path d="M220.629 185.061C220.629 185.061 221.136 183.286 221.136 183.133C221.339 181.764 220.883 179.024 219.513 178.364C218.498 177.908 217.382 178.466 217.027 179.48C216.672 180.495 217.128 181.764 217.686 182.626C218.346 183.59 220.629 185.061 220.629 185.061Z" fill="#92E3A9"></path>
  <path d="M172.073 78.8692C172.073 78.8692 172.225 73.136 175.523 71.5125C178.821 69.8889 179.024 75.2669 179.024 75.2669C179.024 75.2669 186.584 70.447 188.207 74.1C189.831 77.753 187.548 79.478 187.548 79.478C187.548 79.478 194.245 79.2244 194.701 82.9281C195.158 86.6318 191.708 88.4076 191.708 88.4076C191.708 88.4076 195.868 91.8069 194.397 93.329C192.926 94.9019 189.729 95.0033 189.729 95.0033C189.729 95.0033 191.556 98.6563 188.41 99.9247C185.265 101.193 181.662 98.8085 181.662 98.8085C181.662 98.8085 182.22 100.483 179.836 100.026C177.451 99.6203 175.067 98.5041 173.595 95.0541C172.175 91.604 170.297 81.7612 172.073 78.8692Z" fill="#263238" stroke="#263238" stroke-width="0.466275" stroke-miterlimit="10" stroke-linecap="round" stroke-linejoin="round"></path>
  <path d="M137.167 189.477C137.167 189.477 135.29 196.681 135.29 197.442C135.341 198.254 134.681 200.03 135.239 200.537C135.797 201.044 138.233 202.769 138.537 202.82C138.791 202.922 139.603 202.617 139.856 202.414C140.11 202.211 140.262 201.755 140.262 201.501C140.262 201.247 139.501 200.08 139.4 199.827C139.298 199.573 140.769 196.123 141.328 194.398C141.886 192.673 142.241 189.73 142.241 189.73L137.167 189.477Z" fill="#BDBDBD" stroke="#263238" stroke-width="0.466275" stroke-miterlimit="10"></path>
  <path d="M139.196 194.5C139.196 194.5 138.13 197.037 138.029 197.493C137.978 197.95 136.507 199.168 136.71 200.132C136.913 201.096 139.043 200.842 140.109 197.95" fill="#BDBDBD"></path>
  <path d="M139.196 194.5C139.196 194.5 138.13 197.037 138.029 197.493C137.978 197.95 136.507 199.168 136.71 200.132C136.913 201.096 139.043 200.842 140.109 197.95" stroke="#263238" stroke-width="0.466275" stroke-miterlimit="10"></path>
  <path d="M144.018 150.459C144.018 150.459 143.104 165.122 142.8 166.39C142.445 167.709 138.386 179.48 137.473 183.133C136.559 186.735 136.306 189.982 136.306 189.982L141.785 191.149L144.88 177.654C144.88 177.654 148.888 165.375 148.076 159.592C147.265 153.757 144.018 150.459 144.018 150.459Z" fill="#92E3A9" stroke="#263238" stroke-width="0.466275" stroke-miterlimit="10"></path>
  <path d="M172.529 219.663C172.58 216.466 172.732 212.154 173.037 209.718C173.544 205.457 175.371 202.818 177.248 197.491C179.125 192.164 179.277 185.213 179.277 185.213L145.842 186.38C145.842 186.38 141.986 200.738 139.652 211.342C138.891 214.894 138.587 217.583 138.536 219.612" fill="#92E3A9"></path>
  <path d="M172.529 219.663C172.58 216.466 172.732 212.154 173.037 209.718C173.544 205.457 175.371 202.818 177.248 197.491C179.125 192.164 179.277 185.213 179.277 185.213L145.842 186.38C145.842 186.38 141.986 200.738 139.652 211.342C138.891 214.894 138.587 217.583 138.536 219.612" stroke="#263238" stroke-width="0.466275" stroke-miterlimit="10"></path>
  <path d="M150.206 191.858L178.01 192.619L178.618 190.488L150.206 191.858Z" fill="#263238" stroke="#263238" stroke-width="0.466275" stroke-miterlimit="10" stroke-linecap="round" stroke-linejoin="round"></path>
  <path d="M148.786 219.152C148.786 219.152 148.228 201.749 148.228 192.312Z" fill="white"></path>
  <path d="M148.786 219.152C148.786 219.152 148.228 201.749 148.228 192.312" stroke="#263238" stroke-width="0.466275" stroke-miterlimit="10"></path>
  <path d="M170.096 113.623L174.155 116.363C174.155 116.363 178.975 120.676 180.142 124.177C181.359 127.728 180.446 148.834 179.279 155.633C178.112 162.482 181.055 170.955 182.12 175.725C183.186 180.494 183.693 189.423 183.693 189.423C183.693 189.423 184.454 190.489 171.415 190.945C158.376 191.402 149.294 192.062 148.229 192.265C147.163 192.468 146.25 192.518 146.25 192.518L145.743 187.901L144.423 191.706L141.734 191.098C141.734 191.098 143.409 182.828 143.815 179.581C144.22 176.333 146.909 165.374 146.909 161.265C146.96 157.155 143.51 150.509 142.8 146.399C142.14 142.289 143.51 135.288 146.859 130.011C150.258 124.735 152.49 122.654 159.086 117.276C165.783 111.848 170.096 113.623 170.096 113.623Z" fill="#92E3A9" stroke="#263238" stroke-width="0.466275" stroke-miterlimit="10"></path>
  <path d="M159.543 175.472L173.14 176.994L172.379 173.443L163.906 172.732" stroke="#263238" stroke-width="0.466275" stroke-miterlimit="10"></path>
  <path d="M154.775 172.527L154.115 174.861L157.515 175.216" stroke="#263238" stroke-width="0.466275" stroke-miterlimit="10"></path>
  <path d="M159.898 149.19C159.188 148.53 158.579 147.82 158.122 147.262" stroke="#263238" stroke-width="0.466275" stroke-miterlimit="10"></path>
  <path d="M164.616 153.195C164.616 153.195 163.196 152.13 161.623 150.76" stroke="#263238" stroke-width="0.466275" stroke-miterlimit="10"></path>
  <path d="M170.095 113.625C170.095 113.625 165.783 111.849 159.187 117.227C152.591 122.656 150.359 124.685 146.959 129.962C144.879 133.26 143.56 137.166 143.002 140.667C143.103 141.073 143.154 141.479 143.256 141.885C145.133 149.85 147.264 153.706 147.264 153.706C147.264 153.706 150.917 135.543 157.259 128.186C163.601 120.829 174.154 116.364 174.154 116.364L170.095 113.625Z" fill="#92E3A9" stroke="#263238" stroke-width="0.466275" stroke-miterlimit="10"></path>
  <path d="M154.266 78.2104C154.266 78.2104 149.496 82.6752 149.141 86.176C148.786 89.6768 148.431 92.721 147.822 93.8372C147.213 94.9534 144.22 95.7144 145.234 97.4394C146.249 99.1645 147.213 99.1137 147.213 99.1137C147.213 99.1137 148.735 106.673 149.902 107.739C151.069 108.804 155.179 108.196 155.179 108.196L156.447 117.379C156.447 117.379 147.924 124.938 146.249 135.441C144.575 145.943 146.503 151.981 146.503 151.981C146.503 151.981 147.619 135.39 151.424 129.2C155.28 123.01 164.159 117.125 165.478 116.06C166.797 114.994 170.146 113.726 170.146 113.726C170.146 113.726 168.573 110.174 168.37 108.551C168.167 106.978 168.218 104.593 168.522 103.934C168.827 103.274 174.154 101.346 176.133 95.2578C178.162 89.1694 175.169 81.9649 172.074 78.9207C168.928 75.7751 158.223 74.253 154.266 78.2104Z" fill="#BDBDBD" stroke="#263238" stroke-width="0.466275" stroke-miterlimit="10"></path>
  <path d="M176.133 95.2049C178.163 89.1166 175.169 81.912 172.074 78.8678C168.929 75.8237 158.274 74.2508 154.266 78.2083C154.266 78.2083 154.012 78.462 153.606 78.8678C154.418 78.6649 156.042 78.3605 158.223 78.7156C161.42 79.223 161.369 81.7598 160.456 84.1951C159.593 86.6305 160.253 87.0364 161.876 88.254C163.5 89.4717 161.826 91.7548 162.993 92.6681C164.16 93.5813 165.073 88.6092 167.559 92.2115C170.045 95.763 168.371 97.4373 166.849 98.4013C165.276 99.416 164.058 99.7712 164.058 99.7712C164.058 99.7712 166.392 102.511 168.726 103.678C169.842 102.815 174.307 100.684 176.133 95.2049Z" fill="#263238" stroke="#263238" stroke-width="0.466275" stroke-miterlimit="10" stroke-linecap="round" stroke-linejoin="round"></path>
  <path d="M149.8 100.432C149.8 100.432 153.098 100.178 154.67 98.6562" stroke="#263238" stroke-width="0.466275" stroke-miterlimit="10"></path>
  <path d="M151.878 92.5691C151.929 93.3808 151.625 93.9897 151.219 94.0404C150.813 94.0404 150.508 93.4316 150.458 92.6198C150.407 91.808 150.711 91.1992 151.117 91.1484C151.523 91.1484 151.878 91.7573 151.878 92.5691Z" fill="#263238"></path>
  <path d="M150.46 89.3222C150.46 89.3222 151.525 87.9016 153.048 89.5759" stroke="#263238" stroke-width="0.466275" stroke-miterlimit="10"></path>
  <path d="M155.127 108.143L159.084 106.672L156.345 111.644L155.127 108.143Z" fill="#263238" stroke="#263238" stroke-width="0.466275" stroke-miterlimit="10"></path>
  <path d="M143.713 180.951L138.538 202.869L143.206 203.935L145.743 187.953L143.713 180.951Z" fill="white" stroke="#263238" stroke-width="0.466275" stroke-miterlimit="10"></path>
  <path d="M148.328 128.59C147.364 130.67 146.603 132.953 146.248 135.389C144.574 145.891 146.502 151.928 146.502 151.928C146.502 151.928 147.618 135.591 151.372 129.249C150.155 129.148 149.14 128.894 148.328 128.59Z" fill="white" stroke="#263238" stroke-width="0.466275" stroke-miterlimit="10"></path>
  <path d="M164.363 135.44L164.008 154.01L131.537 159.337L132.247 168.064C132.247 168.064 150.259 168.419 158.681 167.709C167.103 166.998 174.409 166.44 175.475 165.578C176.54 164.664 179.584 147.414 180.853 135.288C182.121 123.162 179.584 119.053 174.612 119.763" fill="#92E3A9"></path>
  <path d="M164.363 135.44L164.008 154.01L131.537 159.337L132.247 168.064C132.247 168.064 150.259 168.419 158.681 167.709C167.103 166.998 174.409 166.44 175.475 165.578C176.54 164.664 179.584 147.414 180.853 135.288C182.121 123.162 179.584 119.053 174.612 119.763" stroke="#263238" stroke-width="0.466275" stroke-miterlimit="10"></path>
  <path d="M112.104 158.576L109.517 166.491L112.053 167.861C112.053 167.861 115.25 170.347 117.026 171.717C118.801 173.087 120.12 173.087 121.084 172.63C121.998 172.224 126.26 166.187 126.818 165.02C127.376 163.853 124.839 160.454 122.353 158.982C119.867 157.511 117.787 157.511 116.315 157.968C114.844 158.373 112.104 158.576 112.104 158.576Z" fill="white" stroke="#263238" stroke-width="0.466275" stroke-miterlimit="10"></path>
  <path d="M131.536 159.339L127.427 158.984C127.427 158.984 124.585 158.273 123.52 158.273C122.454 158.273 121.034 159.339 120.323 159.897C119.613 160.455 111.749 168.979 111.749 168.979C111.749 168.979 112.459 170.399 113.525 170.044C114.59 169.689 116.569 168.776 116.569 168.776C116.569 168.776 114.438 170.907 115.504 171.972C116.569 173.038 118.345 173.038 118.345 173.038L119.613 172.327C119.613 172.327 120.526 173.038 121.389 173.241C122.302 173.444 123.723 173.038 124.94 172.327C126.209 171.617 129.354 167.913 129.354 167.913L132.094 166.848L131.536 159.339Z" fill="#BDBDBD" stroke="#263238" stroke-width="0.466275" stroke-miterlimit="10"></path>
  <path d="M113.475 158.882C113.475 158.882 118.65 155.888 120.933 156.7C123.216 157.512 126.209 162.636 125.398 163.347C124.586 164.057 123.216 163.752 122.506 163.042C121.795 162.332 120.527 161.571 120.527 161.571C120.527 161.571 118.447 162.839 116.062 162.839" fill="white"></path>
  <path d="M113.475 158.882C113.475 158.882 118.65 155.888 120.933 156.7C123.216 157.512 126.209 162.636 125.398 163.347C124.586 164.057 123.216 163.752 122.506 163.042C121.795 162.332 120.527 161.571 120.527 161.571C120.527 161.571 118.447 162.839 116.062 162.839" stroke="#263238" stroke-width="0.466275" stroke-miterlimit="10"></path>
  <path d="M128.998 170.703L127.324 169.841C126.766 169.536 126.563 168.826 126.867 168.319C127.171 167.761 127.882 167.558 128.389 167.862L130.063 168.725C130.621 169.029 130.824 169.739 130.52 170.247C130.216 170.805 129.556 171.008 128.998 170.703Z" fill="white" stroke="#263238" stroke-width="0.466275" stroke-miterlimit="10"></path>
  <path d="M127.528 172.479L125.854 171.616C125.296 171.312 125.093 170.601 125.397 170.094C125.702 169.536 126.412 169.333 126.919 169.637L128.594 170.5C129.152 170.804 129.355 171.515 129.05 172.022C128.797 172.529 128.086 172.732 127.528 172.479Z" fill="white" stroke="#263238" stroke-width="0.466275" stroke-miterlimit="10"></path>
  <path d="M125.854 174.002L124.18 173.14C123.622 172.835 123.419 172.125 123.723 171.618C124.028 171.059 124.738 170.857 125.246 171.161L126.92 172.023C127.478 172.328 127.681 173.038 127.376 173.546C127.123 174.104 126.412 174.307 125.854 174.002Z" fill="white" stroke="#263238" stroke-width="0.466275" stroke-miterlimit="10"></path>
  <path d="M122.353 174.102L121.896 173.849C121.338 173.544 121.135 172.834 121.439 172.327C121.744 171.768 122.454 171.566 122.961 171.87L123.418 172.124C123.976 172.428 124.179 173.138 123.875 173.646C123.621 174.204 122.911 174.407 122.353 174.102Z" fill="white" stroke="#263238" stroke-width="0.466275" stroke-miterlimit="10"></path>
  <path d="M112.106 158.578L90.2891 149.344L91.1008 163.804L109.112 167.913L112.106 158.578Z" fill="#263238" stroke="#263238" stroke-width="0.466275" stroke-miterlimit="10" stroke-linecap="round" stroke-linejoin="round"></path>
  <path d="M109.111 167.912L112.104 158.577L109.009 157.207L108.958 157.511L106.168 167.202L109.111 167.912Z" fill="white" stroke="#263238" stroke-width="0.466275" stroke-miterlimit="10"></path>
  <path d="M78.0615 100.785L83.6425 103.373C83.6425 103.373 85.9764 110.019 85.2153 110.222C84.4543 110.425 78.5689 105.707 78.5689 105.707L78.0615 100.785Z" fill="white" stroke="#263238" stroke-width="0.466275" stroke-miterlimit="10" stroke-linecap="round" stroke-linejoin="round"></path>
  <path d="M81.2572 99.4675L81.6631 97.2351C81.6631 97.2351 86.8382 97.5902 88.9183 97.5902C90.9985 97.5902 92.7743 97.2858 92.7743 95.1041C92.7743 92.9225 91.5566 85.4135 91.5566 85.4135C91.5566 85.4135 93.8905 84.9062 94.8037 83.8407C95.717 82.826 94.3979 81.5068 93.2309 79.9848C92.064 78.4627 90.9985 76.7884 90.8971 74.9619C90.7448 73.1354 87.5992 67.1992 87.5992 67.1992C87.5992 67.1992 88.1066 66.286 86.4323 64.358C84.758 62.43 76.0821 62.0749 70.5518 64.8654C65.0216 67.6051 63.7532 71.6133 63.7532 76.0273C63.8039 80.4414 66.29 86.6312 66.29 86.6312C66.29 86.6312 64.6664 93.3791 64.5142 93.7343C64.362 94.1402 62.9414 96.9814 62.9414 96.9814C62.9414 96.9814 69.8923 101.801 72.4291 103.983C74.9659 106.165 80.6991 109.868 80.6991 107.839C80.7498 105.809 80.9528 101.294 80.9528 101.294L81.2572 99.4675Z" fill="white" stroke="#263238" stroke-width="0.466275" stroke-miterlimit="10" stroke-linecap="round" stroke-linejoin="round"></path>
  <path d="M88.9182 78.4627C88.9689 79.2238 88.7659 79.8326 88.5123 79.8326C88.2586 79.8326 88.0556 79.2238 88.0049 78.5135C87.9542 77.7524 88.1571 77.1436 88.4108 77.1436C88.6645 77.0928 88.8674 77.7017 88.9182 78.4627Z" fill="#263238"></path>
  <path d="M85.2637 75.974C85.2637 75.974 86.4306 74.046 89.3733 75.1622" stroke="#263238" stroke-width="0.932551" stroke-miterlimit="10" stroke-linecap="round" stroke-linejoin="round"></path>
  <path d="M92.775 95.0553C92.775 92.8737 91.5573 85.3647 91.5573 85.3647C91.5573 85.3647 90.1367 84.6037 87.3969 85.2632C84.7079 85.9228 83.9469 90.3369 83.4395 90.8442C82.9321 91.3516 79.5328 88.3074 78.2137 86.2272C76.8945 84.147 75.9813 80.5448 75.8291 78.4646C75.6769 76.3844 80.5983 75.3189 81.3593 73.391C82.1204 71.463 78.4674 69.3828 79.7865 68.1144C81.0549 66.7953 83.6425 67.3026 84.9616 67.5563C86.2807 67.81 87.5491 67.1504 87.5491 67.1504C87.5491 67.1504 88.0565 66.2372 86.3822 64.3092C84.7079 62.3812 76.032 62.026 70.5018 64.8165C64.9715 67.5563 63.7031 71.5645 63.7031 75.9785C63.7031 79.53 65.3774 84.2992 65.9863 85.9735C66.4936 86.1765 67.3054 86.4302 67.6606 86.3287C68.1679 86.1765 68.5738 84.6544 68.8275 83.0816C69.0812 81.5088 72.8356 79.6822 72.8356 79.6822C72.8356 79.6822 73.4952 84.35 73.4952 85.2125C73.4952 86.1257 72.9879 90.6413 75.4739 92.8229C77.96 95.0046 81.7145 97.1862 81.7145 97.1862C81.7145 97.1862 86.8896 97.5414 88.9698 97.5414C90.9485 97.5414 92.775 97.2877 92.775 95.0553Z" fill="#263238" stroke="#263238" stroke-width="0.466275" stroke-miterlimit="10" stroke-linecap="round" stroke-linejoin="round"></path>
  <path d="M73.5448 82.9261C73.5448 82.9261 72.4793 76.7363 70.6528 76.99C68.8263 77.2437 67.8116 79.5776 68.7248 82.571C69.6381 85.5137 71.4646 85.26 72.4793 85.0063" fill="white"></path>
  <path d="M73.5448 82.9261C73.5448 82.9261 72.4793 76.7363 70.6528 76.99C68.8263 77.2437 67.8116 79.5776 68.7248 82.571C69.6381 85.5137 71.4646 85.26 72.4793 85.0063" stroke="#263238" stroke-width="0.466275" stroke-miterlimit="10" stroke-linecap="round" stroke-linejoin="round"></path>
  <path d="M86.2295 87.5996C86.2295 87.5996 87.295 88.868 89.984 88.868" stroke="white" stroke-width="0.466275" stroke-miterlimit="10" stroke-linecap="round" stroke-linejoin="round"></path>
  <path d="M57.2092 219.664H84.6067C84.7082 218.243 85.7737 212.662 85.7737 209.06C85.7737 204.849 88.6656 177.806 88.6656 177.806L53.0488 177.35L54.2158 193.94L57.2092 219.664Z" fill="#263238" stroke="#263238" stroke-width="0.466275" stroke-miterlimit="10" stroke-linecap="round" stroke-linejoin="round"></path>
  <path d="M60.8106 97.8965C60.8106 97.8965 54.5701 105.913 52.7943 110.378C51.0186 114.893 49.6487 115.654 50.0546 121.337C50.4605 127.019 53.2002 149.647 53.2002 149.647L47.7207 179.125C47.7207 179.125 56.4981 182.626 67.8122 182.626C79.1264 182.626 83.9971 181.662 84.8089 181.256C85.5699 180.85 92.4193 179.125 92.4193 179.125C92.4193 179.125 92.4193 145.741 90.2884 134.224C88.1575 122.706 85.4177 113.929 84.4537 111.747C83.4897 109.617 80.3441 102.564 80.3441 102.564L60.8106 97.8965Z" fill="#263238" stroke="#263238" stroke-width="0.466275" stroke-miterlimit="10" stroke-linecap="round" stroke-linejoin="round"></path>
  <path d="M84.4022 111.747C83.4382 109.617 80.2926 102.564 80.2926 102.564L60.7591 97.8965C60.7591 97.8965 59.44 99.5708 57.8164 101.854C62.0782 104.34 72.6314 110.428 73.2402 110.581C74.0013 110.783 77.9079 110.378 77.9079 110.378L76.1322 112.509C76.1322 112.509 80.7999 116.212 82.3727 117.785C83.1845 118.597 85.5691 120.779 87.6493 122.656C86.3302 117.075 85.011 113.117 84.4022 111.747Z" fill="#263238" stroke="#263238" stroke-width="0.466275" stroke-miterlimit="10" stroke-linecap="round" stroke-linejoin="round"></path>
  <path d="M75.4219 106.876L82.0683 112.153L87.5478 121.945L84.047 107.688L76.7918 103.578L75.4219 106.876Z" fill="white" stroke="#263238" stroke-width="0.466275" stroke-miterlimit="10" stroke-linecap="round" stroke-linejoin="round"></path>
  <path d="M62.1283 94.1914L82.6257 103.425V110.63L59.2363 98.7069L62.1283 94.1914Z" fill="white" stroke="#263238" stroke-width="0.466275" stroke-miterlimit="10" stroke-linecap="round" stroke-linejoin="round"></path>
  <path d="M89.1718 168.117H53.8594V196.682H89.1718V168.117Z" fill="#92E3A9" stroke="#263238" stroke-width="0.466275" stroke-miterlimit="10"></path>
  <path d="M73.6978 181.713C73.6978 181.713 76.3361 185.163 77.3508 185.467C78.3656 185.823 78.9744 186.634 79.431 187.294C79.8876 188.004 80.4457 193.129 80.8009 193.484C81.1561 193.839 81.156 194.651 79.8876 194.042C78.6192 193.484 77.8075 191.505 77.8075 191.505L78.2641 196.071C78.2641 196.071 79.2788 196.325 78.5178 196.883C77.706 197.441 77.0464 198.253 76.3361 197.898C75.6258 197.543 74.6111 196.629 74.6111 196.629C74.6111 196.629 73.3427 197.086 72.0743 196.883C70.8059 196.629 71.0595 197.137 69.8926 196.325C68.7257 195.513 68.7257 196.426 68.1676 194.955C67.6095 193.484 66.2396 188.309 65.9859 186.837C65.7322 185.366 65.5293 183.286 65.5293 183.286L73.6978 181.713Z" fill="white" stroke="#263238" stroke-width="0.466275" stroke-miterlimit="10" stroke-linecap="round" stroke-linejoin="round"></path>
  <path d="M74.1537 179.586L74.9655 183.087L65.1226 184.457L64.666 180.956L74.1537 179.586Z" fill="white" stroke="#263238" stroke-width="0.466275" stroke-miterlimit="10" stroke-linecap="round" stroke-linejoin="round"></path>
  <path d="M61.5717 104.949C61.5717 104.949 54.7224 107.08 54.5194 110.226C54.3165 113.371 52.0841 151.271 53.0481 153.808C54.012 156.345 63.6519 182.068 63.6519 182.068L74.7632 180.698C74.7632 180.698 69.0807 150.866 68.8778 150.307C68.6748 149.749 72.683 116.517 72.683 116.517" fill="#263238"></path>
  <path d="M61.5717 104.949C61.5717 104.949 54.7224 107.08 54.5194 110.226C54.3165 113.371 52.0841 151.271 53.0481 153.808C54.012 156.345 63.6519 182.068 63.6519 182.068L74.7632 180.698C74.7632 180.698 69.0807 150.866 68.8778 150.307C68.6748 149.749 72.683 116.517 72.683 116.517" stroke="#263238" stroke-width="0.466275" stroke-miterlimit="10" stroke-linecap="round" stroke-linejoin="round"></path>
  <path d="M71.4128 126.008L68.876 150.26L71.2606 165.328" stroke="#878787" stroke-width="0.466275" stroke-miterlimit="10" stroke-linecap="round" stroke-linejoin="round"></path>
  <path d="M71.7694 122.301L71.6172 123.569" stroke="#878787" stroke-width="0.466275" stroke-miterlimit="10" stroke-linecap="round" stroke-linejoin="round"></path>
  <path d="M53.7581 118.549L52.9971 141.329" stroke="#878787" stroke-width="0.466275" stroke-miterlimit="10" stroke-linecap="round" stroke-linejoin="round"></path>
  <path d="M79.2784 161.369L86.7874 161.064L87.447 163.804L75.0166 164.565" stroke="#878787" stroke-width="0.466275" stroke-miterlimit="10" stroke-linecap="round" stroke-linejoin="round"></path>
  <path d="M73.0381 161.57L77.0463 161.418" stroke="#878787" stroke-width="0.466275" stroke-miterlimit="10" stroke-linecap="round" stroke-linejoin="round"></path>
  <path d="M59.4902 102.516L73.2905 110.583L77.9582 110.43L76.2332 112.561L85.2642 119.766" stroke="#878787" stroke-width="0.466275" stroke-miterlimit="10" stroke-linecap="round" stroke-linejoin="round"></path>
  <path d="M0.636719 219.664H232.248" stroke="#263238" stroke-width="0.466275" stroke-miterlimit="10"></path>
  <path d="M66.0879 10.584V44.8817" stroke="#263238" stroke-width="0.466275" stroke-miterlimit="10"></path>
  <path d="M118.752 10.584V44.8817" stroke="#263238" stroke-width="0.466275" stroke-miterlimit="10"></path>
  <path d="M171.466 10.584V44.8817" stroke="#263238" stroke-width="0.466275" stroke-miterlimit="10"></path>
</svg>
