<?xml version="1.0" encoding="UTF-8"?>
<svg xmlns="http://www.w3.org/2000/svg" width="241" height="229" viewBox="0 0 241 229" fill="none">
  <path d="M12.1327 103.568C12.1327 103.568 12.3319 140.554 42.4748 165.595C72.6177 190.635 115.257 192.953 149.753 195.738C184.248 198.522 211.313 179.271 216.106 149.695C220.899 120.118 194.726 111.083 181.306 77.1745C167.887 43.2663 169.455 32.1961 139.695 11.0625C109.935 -10.0711 62.1768 2.05322 36.3865 37.2829C10.5961 72.5125 12.1327 103.568 12.1327 103.568Z" fill="#92E3A9"></path>
  <path opacity="0.7" d="M12.1327 103.568C12.1327 103.568 12.3319 140.554 42.4748 165.595C72.6177 190.635 115.257 192.953 149.753 195.738C184.248 198.522 211.313 179.271 216.106 149.695C220.899 120.118 194.726 111.083 181.306 77.1745C167.887 43.2663 169.455 32.1961 139.695 11.0625C109.935 -10.0711 62.1768 2.05322 36.3865 37.2829C10.5961 72.5125 12.1327 103.568 12.1327 103.568Z" fill="white"></path>
  <path d="M188.867 66.2192C188.419 66.0094 187.95 65.8493 187.467 65.742C184.64 65.0655 181.336 64.5359 181.336 64.5359C181.336 64.5359 186.292 59.5278 184.404 57.3463C182.516 55.1647 179.223 58.5209 179.223 58.5209C179.223 58.5209 182.522 49.4539 177.812 48.1115C173.103 46.769 167.922 56.8428 167.922 56.8428C167.922 56.8428 167.686 52.978 165.332 53.4814C162.977 53.9848 162.505 58.5209 162.505 58.5209C162.505 58.5209 158.97 56.5072 158.032 58.3531C157.093 60.199 159.206 63.8909 159.206 63.8909C159.206 63.8909 155.205 61.5415 154.733 63.723C154.555 64.5423 154.491 65.3824 154.544 66.2192H188.867Z" stroke="#263238" stroke-width="0.455731" stroke-linecap="round" stroke-linejoin="round"></path>
  <path d="M221.496 66.2192L212.319 64.9973C209.924 63.1423 207.03 62.0464 204.007 61.8509L202.958 61.7827C202.958 61.7827 205.449 58.7936 203.955 52.3119C202.46 45.8302 193.991 51.3155 193.991 51.3155C193.991 51.3155 200.205 45.4107 199.209 39.9254C198.212 34.4401 189.507 38.8766 189.507 38.8766C189.507 38.8766 190.524 24.0883 179.543 24.5865C168.562 25.0847 166.559 42.3639 166.559 42.3639C166.559 42.3639 158.835 32.9718 153.596 44.8601C152.821 46.6218 152.247 48.4654 151.886 50.3559L151.666 50.1356C151.666 50.1356 147.56 45.1328 144.324 48.7092C141.089 52.2857 141.466 57.6241 141.466 57.6241C141.466 57.6241 136.463 55.8412 135.215 57.986C133.967 60.1308 136.82 62.627 136.82 62.627C136.82 62.627 134.14 61.3789 132.174 63.1514C130.941 64.2684 129.646 65.4535 128.844 66.1877L221.496 66.2192Z" stroke="#263238" stroke-width="0.455731" stroke-linecap="round" stroke-linejoin="round"></path>
  <path d="M73.1921 117.077C72.7436 116.867 72.2743 116.705 71.7919 116.594C68.9654 115.923 65.6616 115.393 65.6616 115.393C65.6616 115.393 70.6172 110.385 68.7294 108.204C66.8415 106.022 63.5482 109.378 63.5482 109.378C63.5482 109.378 66.8468 100.311 62.1376 98.9689C57.4284 97.6264 52.2473 107.7 52.2473 107.7C52.2473 107.7 52.0113 103.835 49.6567 104.339C47.3021 104.842 46.8302 109.378 46.8302 109.378C46.8302 109.378 43.2957 107.365 42.357 109.211C41.4183 111.056 43.5316 114.748 43.5316 114.748C43.5316 114.748 39.5304 112.399 39.0584 114.58C38.8802 115.4 38.8167 116.24 38.8697 117.077H73.1921Z" stroke="#263238" stroke-width="0.455731" stroke-linecap="round" stroke-linejoin="round"></path>
  <path d="M105.822 117.073L96.6608 115.851C94.2633 114.005 91.3687 112.919 88.3489 112.731L87.3001 112.663C87.3001 112.663 89.791 109.674 88.2965 103.192C86.8019 96.7102 78.3327 102.196 78.3327 102.196C78.3327 102.196 84.547 96.2907 83.5506 90.8054C82.5542 85.3201 73.8491 89.7304 73.8491 89.7304C73.8491 89.7304 74.8664 74.9369 63.8853 75.4403C52.9043 75.9437 50.901 93.2177 50.901 93.2177C50.901 93.2177 43.187 83.8256 37.9482 95.6929C37.1732 97.4546 36.5997 99.2982 36.2386 101.189L36.0184 100.968C36.0184 100.968 31.9123 95.9656 28.6767 99.542C25.4411 103.118 25.8187 108.457 25.8187 108.457C25.8187 108.457 20.8158 106.674 19.5625 108.814C18.3091 110.953 21.1881 113.523 21.1881 113.523C21.1881 113.523 18.5084 112.275 16.5419 114.047C15.3095 115.164 14.0143 116.349 13.2119 117.083L105.822 117.073Z" stroke="#263238" stroke-width="0.455731" stroke-linecap="round" stroke-linejoin="round"></path>
  <path d="M218.691 174.804C214.472 174.804 210.388 176.289 207.154 178.999C204.927 176.541 201.828 175.048 198.517 174.839C195.206 174.629 191.944 175.719 189.424 177.877C187.732 176.439 185.743 175.394 183.599 174.815C181.456 174.236 179.211 174.139 177.025 174.53C174.839 174.921 172.767 175.79 170.957 177.076C169.147 178.362 167.644 180.032 166.555 181.967C165.632 181.472 164.597 181.224 163.55 181.249C162.503 181.273 161.481 181.569 160.582 182.107C159.684 182.645 158.941 183.406 158.425 184.318C157.909 185.229 157.639 186.258 157.64 187.306C157.64 187.542 157.654 187.778 157.682 188.014C157.306 187.971 156.928 187.95 156.549 187.951C154.216 187.947 151.959 188.777 150.183 190.289C148.675 188.995 146.753 188.284 144.766 188.286C144.505 188.287 144.244 188.301 143.984 188.328V106.311C144.386 105.553 144.881 104.848 145.458 104.213C146.197 103.556 146.719 102.69 146.954 101.729C147.189 100.769 147.127 99.7595 146.775 98.8352C146.424 97.9109 145.8 97.1153 144.986 96.5539C144.171 95.9925 143.206 95.6919 142.217 95.6919C141.228 95.6919 140.263 95.9925 139.448 96.5539C138.634 97.1153 138.01 97.9109 137.659 98.8352C137.307 99.7595 137.245 100.769 137.48 101.729C137.715 102.69 138.237 103.556 138.976 104.213C139.525 104.818 140 105.485 140.392 106.201V189.529C139.732 189.94 139.131 190.437 138.604 191.008C136.716 189.436 134.384 188.492 131.935 188.309C129.485 188.126 127.039 188.712 124.938 189.985C124.363 189.639 123.759 189.342 123.134 189.099V113.286C123.931 110.139 126.438 107.517 126.438 107.517C127.605 106.478 128.429 105.109 128.8 103.591C129.171 102.073 129.072 100.478 128.516 99.0171C127.96 97.5566 126.973 96.2996 125.687 95.4127C124.4 94.5257 122.874 94.0508 121.312 94.0508C119.749 94.0508 118.223 94.5257 116.936 95.4127C115.65 96.2996 114.663 97.5566 114.107 99.0171C113.551 100.478 113.452 102.073 113.823 103.591C114.195 105.109 115.018 106.478 116.185 107.517V107.543C116.185 107.543 118.808 110.302 119.552 113.584V188.297C119.321 188.297 119.085 188.297 118.844 188.297C116.086 188.293 113.414 189.26 111.298 191.029C110.125 189.734 108.575 188.842 106.866 188.478C105.158 188.115 103.378 188.299 101.78 189.005V106.311C102.182 105.553 102.677 104.848 103.254 104.213C103.993 103.556 104.514 102.69 104.75 101.729C104.985 100.769 104.923 99.7595 104.571 98.8352C104.22 97.9109 103.595 97.1153 102.781 96.5539C101.967 95.9925 101.002 95.6919 100.013 95.6919C99.0239 95.6919 98.0583 95.9925 97.2442 96.5539C96.4301 97.1153 95.8059 97.9109 95.4543 98.8352C95.1028 99.7595 95.0406 100.769 95.2759 101.729C95.5112 102.69 96.033 103.556 96.772 104.213C97.3206 104.818 97.7959 105.485 98.1879 106.201V189.214C96.3989 188.201 94.3364 187.775 92.2923 187.998C90.2481 188.221 88.3259 189.081 86.7977 190.457C86.8359 190.264 86.8552 190.067 86.8554 189.87C86.8554 189.084 86.5433 188.33 85.9876 187.775C85.432 187.219 84.6783 186.907 83.8925 186.907C83.6645 186.908 83.4375 186.937 83.216 186.991C83.1325 186.139 82.8416 185.32 82.3686 184.606C81.8957 183.892 81.2552 183.305 80.503 182.896C79.7508 182.487 78.9099 182.268 78.0537 182.259C77.1975 182.249 76.352 182.45 75.5912 182.843C74.5954 180.763 73.1358 178.94 71.3246 177.514C69.5134 176.087 67.399 175.096 65.1443 174.615C62.8895 174.134 60.5544 174.177 58.3189 174.741C56.0834 175.305 54.0071 176.374 52.2498 177.866C49.7298 175.709 46.4678 174.619 43.1569 174.828C39.8461 175.038 36.7474 176.53 34.5196 178.988C31.7396 176.653 28.3184 175.213 24.7051 174.857C21.0919 174.501 17.4555 175.246 14.2732 176.994C11.091 178.742 8.51156 181.411 6.87362 184.652C5.23568 187.892 4.61573 191.552 5.09516 195.151H236.574C236.672 194.382 236.723 193.608 236.726 192.833C236.724 188.051 234.824 183.465 231.442 180.084C228.06 176.703 223.473 174.804 218.691 174.804Z" fill="#C2C2C2"></path>
  <path d="M102.011 99.6122C102.011 98.49 101.104 96.707 99.9761 96.707C98.8486 96.707 97.9414 98.49 97.9414 99.6122C97.9414 100.734 99.672 102.979 99.9761 102.979C100.28 102.979 102.011 100.734 102.011 99.6122Z" fill="#92E3A9"></path>
  <path d="M144.256 99.6122C144.256 98.49 143.349 96.707 142.221 96.707C141.094 96.707 140.187 98.49 140.187 99.6122C140.187 100.734 141.917 102.979 142.221 102.979C142.525 102.979 144.256 100.734 144.256 99.6122Z" fill="#92E3A9"></path>
  <path d="M100.213 86.2254L114.561 73.5977V84.3113L101.167 90.6042L100.213 86.2254Z" fill="#263238" stroke="#263238" stroke-width="0.455731" stroke-miterlimit="10"></path>
  <path d="M103.103 96.6145H96.8727L95.5564 72.1614C95.5385 71.987 95.5385 71.8113 95.5564 71.637C95.7714 69.618 97.6541 63 99.9824 63C102.295 63 104.178 69.618 104.414 71.637C104.429 71.8114 104.429 71.9869 104.414 72.1614L103.103 96.6145Z" fill="white" stroke="#263238" stroke-width="0.455731" stroke-miterlimit="10"></path>
  <path d="M96.4258 68.0933H103.558C102.75 65.6391 101.46 62.9961 99.9917 62.9961C98.5234 62.9961 97.2334 65.6391 96.4258 68.0933Z" fill="#263238" stroke="#263238" stroke-width="0.455731" stroke-miterlimit="10"></path>
  <path d="M96.5938 91.457L96.8717 96.6172H103.102L103.38 91.457H96.5938Z" fill="#263238" stroke="#263238" stroke-width="0.455731" stroke-miterlimit="10"></path>
  <path d="M142.254 86.2254L127.891 73.5977V84.3113L141.284 90.6042L142.254 86.2254Z" fill="#263238" stroke="#263238" stroke-width="0.455731" stroke-miterlimit="10"></path>
  <path d="M139.364 96.6145H145.594L146.91 72.1614C146.928 71.987 146.928 71.8113 146.91 71.637C146.695 69.618 144.812 63 142.484 63C140.171 63 138.289 69.618 138.053 71.637C138.037 71.8114 138.037 71.9869 138.053 72.1614L139.364 96.6145Z" fill="white" stroke="#263238" stroke-width="0.455731" stroke-miterlimit="10"></path>
  <path d="M145.872 91.457L145.594 96.6172H139.364L139.086 91.457H145.872Z" fill="#263238" stroke="#263238" stroke-width="0.455731" stroke-miterlimit="10"></path>
  <path d="M138.902 68.0933H146.034C145.221 65.6391 143.937 62.9961 142.468 62.9961C141 62.9961 139.72 65.6391 138.902 68.0933Z" fill="#263238" stroke="#263238" stroke-width="0.455731" stroke-miterlimit="10"></path>
  <path d="M124.522 100.223C124.489 99.392 124.135 98.6064 123.536 98.0304C122.936 97.4545 122.137 97.1328 121.305 97.1328C120.474 97.1328 119.674 97.4545 119.075 98.0304C118.475 98.6064 118.121 99.392 118.088 100.223C118.088 102 120.82 105.545 121.303 105.545C121.68 105.545 124.522 101.99 124.522 100.223Z" fill="#92E3A9"></path>
  <path d="M129.463 88.0054H113.17L109.719 35.0823C109.674 34.6201 109.674 34.1548 109.719 33.6926C110.296 28.3961 115.272 11.0645 121.319 11.0645C127.371 11.0645 132.331 28.3961 132.919 33.6926C132.966 34.1546 132.966 34.6203 132.919 35.0823L129.463 88.0054Z" fill="white" stroke="#263238" stroke-width="0.455731" stroke-miterlimit="10"></path>
  <path d="M121.351 74.9434C119.46 74.9434 117.647 74.1928 116.31 72.8564C114.972 71.52 114.22 69.7074 114.219 67.8168V38.1091C114.22 36.2185 114.972 34.4058 116.31 33.0695C117.647 31.7331 119.46 30.9824 121.351 30.9824C123.24 30.9838 125.052 31.7351 126.388 33.0713C127.725 34.4075 128.476 36.2194 128.477 38.1091V67.8168C128.476 69.7065 127.725 71.5183 126.388 72.8546C125.052 74.1908 123.24 74.9421 121.351 74.9434Z" fill="#92E3A9" stroke="#263238" stroke-width="0.455731" stroke-miterlimit="10"></path>
  <path d="M127.046 95.6055H115.582L113.17 87.666H129.484L127.046 95.6055Z" fill="#263238" stroke="#263238" stroke-width="0.455731" stroke-miterlimit="10"></path>
  <path d="M123.167 43.8028C125.723 42.785 126.97 39.8877 125.952 37.3315C124.935 34.7752 122.037 33.5281 119.481 34.5458C116.925 35.5636 115.678 38.4609 116.695 41.0172C117.713 43.5734 120.61 44.8206 123.167 43.8028Z" fill="#263238"></path>
  <path d="M126.248 40.5633C126.681 37.8462 124.83 35.2924 122.113 34.8591C119.396 34.4259 116.842 36.2773 116.409 38.9944C115.975 41.7114 117.827 44.2653 120.544 44.6986C123.261 45.1318 125.815 43.2804 126.248 40.5633Z" fill="#92E3A9" stroke="#263238" stroke-width="0.455731" stroke-miterlimit="10"></path>
  <path d="M121.325 35.471C122.532 35.4714 123.692 35.939 124.562 36.7758C125.432 37.6126 125.944 38.7537 125.992 39.9599C125.992 39.897 125.992 39.834 125.992 39.7711C125.951 38.5583 125.441 37.4087 124.568 36.5652C123.696 35.7216 122.53 35.25 121.317 35.25C120.103 35.25 118.937 35.7216 118.065 36.5652C117.193 37.4087 116.682 38.5583 116.642 39.7711C116.642 39.834 116.642 39.897 116.642 39.9599C116.688 38.7505 117.202 37.6064 118.076 36.7689C118.949 35.9314 120.114 35.466 121.325 35.471Z" fill="#263238"></path>
  <path d="M124.995 40.3777C125.325 38.351 123.949 36.4406 121.922 36.1109C119.896 35.7812 117.985 37.1569 117.656 39.1837C117.326 41.2105 118.702 43.1208 120.728 43.4505C122.755 43.7802 124.665 42.4045 124.995 40.3777Z" fill="white" stroke="#263238" stroke-width="0.455731" stroke-miterlimit="10"></path>
  <path d="M121.325 43.1407C122.281 43.1404 123.2 42.7719 123.891 42.1118C124.583 41.4516 124.993 40.5506 125.038 39.5957C125.038 39.6534 125.038 39.7111 125.038 39.7688C125.038 40.7548 124.646 41.7005 123.949 42.3978C123.251 43.0951 122.306 43.4868 121.32 43.4868C120.334 43.4868 119.388 43.0951 118.691 42.3978C117.993 41.7005 117.602 40.7548 117.602 39.7688C117.602 39.7111 117.602 39.6534 117.602 39.5957C117.646 40.5524 118.058 41.455 118.752 42.1154C119.445 42.7758 120.367 43.1431 121.325 43.1407Z" fill="#263238"></path>
  <path d="M121.325 56.4598C124.076 56.4598 126.307 54.2294 126.307 51.478C126.307 48.7266 124.076 46.4961 121.325 46.4961C118.573 46.4961 116.343 48.7266 116.343 51.478C116.343 54.2294 118.573 56.4598 121.325 56.4598Z" fill="#263238"></path>
  <path d="M121.325 57.0536C124.076 57.0536 126.307 54.8231 126.307 52.0717C126.307 49.3203 124.076 47.0898 121.325 47.0898C118.573 47.0898 116.343 49.3203 116.343 52.0717C116.343 54.8231 118.573 57.0536 121.325 57.0536Z" fill="#92E3A9" stroke="#263238" stroke-width="0.455731" stroke-miterlimit="10"></path>
  <path d="M121.325 47.7737C122.532 47.7741 123.692 48.2417 124.562 49.0785C125.432 49.9153 125.944 51.0564 125.992 52.2626C125.992 52.1997 125.992 52.1368 125.992 52.0738C125.951 50.861 125.441 49.7115 124.568 48.8679C123.696 48.0243 122.53 47.5527 121.317 47.5527C120.103 47.5527 118.937 48.0243 118.065 48.8679C117.193 49.7115 116.682 50.861 116.642 52.0738C116.642 52.1368 116.642 52.1997 116.642 52.2626C116.688 51.0532 117.202 49.9091 118.076 49.0716C118.949 48.2341 120.114 47.7687 121.325 47.7737Z" fill="#263238"></path>
  <path d="M121.324 55.7916C123.378 55.7916 125.043 54.1269 125.043 52.0735C125.043 50.0201 123.378 48.3555 121.324 48.3555C119.271 48.3555 117.606 50.0201 117.606 52.0735C117.606 54.1269 119.271 55.7916 121.324 55.7916Z" fill="white" stroke="#263238" stroke-width="0.455731" stroke-miterlimit="10"></path>
  <path d="M121.325 55.4473C122.281 55.447 123.2 55.0785 123.891 54.4184C124.583 53.7583 124.993 52.8572 125.038 51.9023C125.038 51.96 125.038 52.0177 125.038 52.0754C125.038 53.0615 124.646 54.0072 123.949 54.7045C123.251 55.4017 122.306 55.7934 121.32 55.7934C120.334 55.7934 119.388 55.4017 118.691 54.7045C117.993 54.0072 117.602 53.0615 117.602 52.0754C117.602 52.0177 117.602 51.96 117.602 51.9023C117.646 52.859 118.058 53.7616 118.752 54.422C119.445 55.0824 120.367 55.4497 121.325 55.4473Z" fill="#263238"></path>
  <path d="M123.17 68.4083C125.726 67.3905 126.973 64.4932 125.955 61.937C124.938 59.3807 122.04 58.1335 119.484 59.1513C116.928 60.1691 115.681 63.0664 116.698 65.6226C117.716 68.1789 120.613 69.4261 123.17 68.4083Z" fill="#263238"></path>
  <path d="M126.251 65.1649C126.684 62.4478 124.833 59.8939 122.116 59.4607C119.399 59.0274 116.845 60.8788 116.411 63.5959C115.978 66.313 117.83 68.8669 120.547 69.3001C123.264 69.7334 125.818 67.882 126.251 65.1649Z" fill="#92E3A9" stroke="#263238" stroke-width="0.455731" stroke-miterlimit="10"></path>
  <path d="M121.325 60.0764C122.532 60.0769 123.692 60.5445 124.562 61.3813C125.432 62.2181 125.944 63.3591 125.992 64.5654C125.992 64.5024 125.992 64.4395 125.992 64.3766C125.951 63.1638 125.441 62.0142 124.568 61.1706C123.696 60.327 122.53 59.8555 121.317 59.8555C120.103 59.8555 118.937 60.327 118.065 61.1706C117.193 62.0142 116.682 63.1638 116.642 64.3766C116.642 64.4395 116.642 64.5024 116.642 64.5654C116.688 63.356 117.202 62.2118 118.076 61.3743C118.949 60.5368 120.114 60.0715 121.325 60.0764Z" fill="#263238"></path>
  <path d="M124.995 64.9734C125.325 62.9467 123.949 61.0363 121.922 60.7066C119.896 60.3769 117.985 61.7526 117.656 63.7794C117.326 65.8062 118.702 67.7165 120.728 68.0462C122.755 68.3759 124.665 67.0002 124.995 64.9734Z" fill="white" stroke="#263238" stroke-width="0.455731" stroke-miterlimit="10"></path>
  <path d="M121.325 67.7462C122.281 67.7458 123.2 67.3774 123.891 66.7172C124.583 66.0571 124.993 65.1561 125.038 64.2012C125.038 64.2589 125.038 64.3165 125.038 64.3742C125.038 65.3603 124.646 66.306 123.949 67.0033C123.251 67.7005 122.306 68.0923 121.32 68.0923C120.334 68.0923 119.388 67.7005 118.691 67.0033C117.993 66.306 117.602 65.3603 117.602 64.3742C117.602 64.3165 117.602 64.2589 117.602 64.2012C117.646 65.1579 118.058 66.0605 118.752 66.7209C119.445 67.3813 120.367 67.7485 121.325 67.7462Z" fill="#263238"></path>
  <path d="M113.071 21.4114H129.58C127.482 15.8684 124.572 10.7188 121.325 10.7188C118.085 10.745 115.158 15.8684 113.071 21.4114Z" fill="#263238" stroke="#263238" stroke-width="0.455731" stroke-miterlimit="10"></path>
  <path d="M187.018 114.387H67.0439V192.015H187.018V114.387Z" fill="#263238" stroke="#263238" stroke-width="0.455731" stroke-linecap="round" stroke-linejoin="round"></path>
  <path d="M187.018 167.961H67.0439V192.015H187.018V167.961Z" fill="#6B6B6B" stroke="#263238" stroke-width="0.455731" stroke-linecap="round" stroke-linejoin="round"></path>
  <path d="M111.171 147.291H69.9531V178.871H111.171V147.291Z" fill="#92E3A9" stroke="#263238" stroke-width="0.455731" stroke-linecap="round" stroke-linejoin="round"></path>
  <path d="M109.505 149.191H71.6113V176.969H109.505V149.191Z" fill="white" stroke="#263238" stroke-width="0.455731" stroke-linecap="round" stroke-linejoin="round"></path>
  <path d="M82.0899 173.184L80.2178 174.841" stroke="#263238" stroke-width="0.455731" stroke-linecap="round" stroke-linejoin="round"></path>
  <path d="M108.115 150.125L84.7793 170.797" stroke="#263238" stroke-width="0.455731" stroke-linecap="round" stroke-linejoin="round"></path>
  <path d="M102.799 157.904L89.4531 169.73" stroke="#263238" stroke-width="0.455731" stroke-linecap="round" stroke-linejoin="round"></path>
  <path d="M184.374 147.291H143.155V178.871H184.374V147.291Z" fill="#92E3A9" stroke="#263238" stroke-width="0.455731" stroke-linecap="round" stroke-linejoin="round"></path>
  <path d="M182.712 149.191H144.818V176.969H182.712V149.191Z" fill="white" stroke="#263238" stroke-width="0.455731" stroke-linecap="round" stroke-linejoin="round"></path>
  <path d="M155.296 173.184L153.424 174.841" stroke="#263238" stroke-width="0.455731" stroke-linecap="round" stroke-linejoin="round"></path>
  <path d="M181.318 150.125L157.987 170.797" stroke="#263238" stroke-width="0.455731" stroke-linecap="round" stroke-linejoin="round"></path>
  <path d="M176.005 157.904L162.659 169.73" stroke="#263238" stroke-width="0.455731" stroke-linecap="round" stroke-linejoin="round"></path>
  <path d="M145.253 187.269L143.155 183.991L146.433 185.171L146.04 182.025L147.744 184.647L147.875 179.927L148.793 183.073L150.89 177.174L151.152 183.336L153.643 181.893L152.201 184.647L154.037 183.467L153.906 185.433L156.265 184.253L154.692 187.138L145.253 187.269Z" fill="#92E3A9"></path>
  <path d="M159.02 187.269L156.922 183.991L160.199 185.171L159.806 182.025L161.51 184.647L161.642 179.927L162.559 183.073L164.657 177.174L164.919 183.336L167.41 181.893L165.968 184.647L167.803 183.467L167.672 185.433L170.032 184.253L168.459 187.138L159.02 187.269Z" fill="#92E3A9"></path>
  <path d="M172.653 187.269L170.556 183.991L173.833 185.171L173.44 182.025L175.144 184.647L175.275 179.927L176.193 183.073L178.291 177.174L178.553 183.336L181.044 181.893L179.602 184.647L181.437 183.467L181.306 185.433L183.666 184.253L182.093 187.138L172.653 187.269Z" fill="#92E3A9"></path>
  <path d="M71.1826 187.269L69.085 183.991L72.3625 185.171L71.9692 182.025L73.6735 184.647L73.8046 179.927L74.7223 183.073L76.82 177.174L77.0822 183.336L79.5731 181.893L78.131 184.647L79.9664 183.467L79.8353 185.433L82.1951 184.253L80.6219 187.138L71.1826 187.269Z" fill="#92E3A9"></path>
  <path d="M84.9463 187.269L82.8486 183.991L86.1262 185.171L85.7329 182.025L87.4372 184.647L87.5683 179.927L88.486 183.073L90.5836 177.174L90.8458 183.336L93.3368 181.893L91.8947 184.647L93.7301 183.467L93.599 185.433L95.9588 184.253L94.3856 187.138L84.9463 187.269Z" fill="#92E3A9"></path>
  <path d="M98.582 187.269L96.4844 183.991L99.7619 185.171L99.3686 182.025L101.073 184.647L101.204 179.927L102.122 183.073L104.219 177.174L104.482 183.336L106.973 181.893L105.53 184.647L107.366 183.467L107.235 185.433L109.595 184.253L108.021 187.138L98.582 187.269Z" fill="#92E3A9"></path>
  <path d="M187.018 186.453H67.0439V192.012H187.018V186.453Z" fill="#6B6B6B" stroke="#263238" stroke-width="0.455731" stroke-linecap="round" stroke-linejoin="round"></path>
  <path d="M139.875 144.6H113.864V192.011H139.875V144.6Z" fill="#92E3A9" stroke="#263238" stroke-width="0.455731" stroke-linecap="round" stroke-linejoin="round"></path>
  <path d="M137.814 171.599H115.511V146.904H137.814V171.599ZM137.814 174.221H115.511V189.365H137.814V174.221Z" fill="white" stroke="#263238" stroke-width="0.455731" stroke-linecap="round" stroke-linejoin="round"></path>
  <path d="M139.134 165.795H138.321V174.453H139.134V165.795Z" fill="#263238" stroke="#263238" stroke-width="0.455731" stroke-linecap="round" stroke-linejoin="round"></path>
  <path d="M118.953 166.582L117.663 167.725" stroke="#263238" stroke-width="0.455731" stroke-linecap="round" stroke-linejoin="round"></path>
  <path d="M136.895 150.693L120.807 164.941" stroke="#263238" stroke-width="0.455731" stroke-linecap="round" stroke-linejoin="round"></path>
  <path d="M133.23 156.049L124.032 164.203" stroke="#263238" stroke-width="0.455731" stroke-linecap="round" stroke-linejoin="round"></path>
  <path d="M123.092 186.881L122.101 187.762" stroke="#263238" stroke-width="0.455731" stroke-linecap="round" stroke-linejoin="round"></path>
  <path d="M136.894 174.648L124.518 185.614" stroke="#263238" stroke-width="0.455731" stroke-linecap="round" stroke-linejoin="round"></path>
  <path d="M134.074 178.775L127 185.047" stroke="#263238" stroke-width="0.455731" stroke-linecap="round" stroke-linejoin="round"></path>
  <path opacity="0.3" d="M187.018 132.662H67.3008V148.772H187.018V132.662Z" fill="black"></path>
  <path d="M188.806 123.357H65.3398V146.337H188.806V123.357Z" fill="white" stroke="#263238" stroke-width="0.455731" stroke-linecap="round" stroke-linejoin="round"></path>
  <path d="M77.6211 123.357H71.9365V146.337H77.6211V123.357Z" fill="#92E3A9" stroke="#263238" stroke-width="0.455731" stroke-linecap="round" stroke-linejoin="round"></path>
  <path d="M89.667 123.357H83.9824V146.337H89.667V123.357Z" fill="#92E3A9" stroke="#263238" stroke-width="0.455731" stroke-linecap="round" stroke-linejoin="round"></path>
  <path d="M101.719 123.357H96.0342V146.337H101.719V123.357Z" fill="#92E3A9" stroke="#263238" stroke-width="0.455731" stroke-linecap="round" stroke-linejoin="round"></path>
  <path d="M113.182 123.357H107.497V146.337H113.182V123.357Z" fill="#92E3A9" stroke="#263238" stroke-width="0.455731" stroke-linecap="round" stroke-linejoin="round"></path>
  <path d="M124.645 123.357H118.96V146.337H124.645V123.357Z" fill="#92E3A9" stroke="#263238" stroke-width="0.455731" stroke-linecap="round" stroke-linejoin="round"></path>
  <path d="M136.104 123.357H130.419V146.337H136.104V123.357Z" fill="#92E3A9" stroke="#263238" stroke-width="0.455731" stroke-linecap="round" stroke-linejoin="round"></path>
  <path d="M147.565 123.357H141.881V146.337H147.565V123.357Z" fill="#92E3A9" stroke="#263238" stroke-width="0.455731" stroke-linecap="round" stroke-linejoin="round"></path>
  <path d="M159.03 123.357H153.346V146.337H159.03V123.357Z" fill="#92E3A9" stroke="#263238" stroke-width="0.455731" stroke-linecap="round" stroke-linejoin="round"></path>
  <path d="M170.492 123.357H164.808V146.337H170.492V123.357Z" fill="#92E3A9" stroke="#263238" stroke-width="0.455731" stroke-linecap="round" stroke-linejoin="round"></path>
  <path d="M181.952 123.357H176.268V146.337H181.952V123.357Z" fill="#92E3A9" stroke="#263238" stroke-width="0.455731" stroke-linecap="round" stroke-linejoin="round"></path>
  <path d="M202.686 136.994C202.686 136.994 200.374 132.798 194.296 130.271C188.218 127.743 175.611 124.177 175.8 121.031C175.989 117.884 185.879 121.66 185.879 121.66C185.879 121.66 169.497 113.678 167.394 108.634C165.291 103.589 182.523 109.053 182.523 109.053C182.523 109.053 174.746 94.3697 176.849 90.9926C178.952 87.6154 186.514 93.9292 186.514 93.9292C186.514 93.9292 183.781 75.8634 197.002 73.9756C210.222 72.0877 210.448 85.9478 210.448 85.9478C210.448 85.9478 215.068 77.7565 220.322 79.6549C225.577 81.5532 219.897 92.0466 219.897 92.0466C219.897 92.0466 227.674 86.1628 229.772 94.9885C231.87 103.814 220.532 113.684 220.532 113.684C220.532 113.684 228.304 111.161 228.723 115.571C229.143 119.982 223.678 122.913 223.678 122.913C223.678 122.913 228.304 123.752 226.62 126.06C224.937 128.367 204.155 133.842 202.686 136.994Z" fill="#92E3A9"></path>
  <path d="M215.178 115.581C215.178 115.581 207.416 117.422 203.421 123.725L203.274 115.03C203.887 113.981 208.24 107.07 215.178 104.951C215.178 104.951 207.217 107.117 203.247 113.551L202.88 92.0508L202.77 118.213C198.863 112.146 191.632 110.384 191.632 110.384C198.134 112.445 202.036 118.706 202.765 119.96L202.728 128.555C198.806 122.566 191.632 120.804 191.632 120.804C198.014 122.828 201.889 128.89 202.718 130.301L202.466 190.22H204.564L203.641 135.818C204.364 134.606 208.418 128.293 215.178 126.221C215.178 126.221 207.642 128.009 203.599 134.087L203.452 125.424C204.223 124.139 208.423 117.642 215.178 115.581Z" fill="#263238"></path>
  <path d="M211.272 188.637H194.717V192.439H211.272V188.637Z" fill="white" stroke="#263238" stroke-width="0.455731" stroke-linecap="round" stroke-linejoin="round"></path>
  <path d="M215.118 191.969H41.0889V195.157H215.118V191.969Z" fill="white" stroke="#263238" stroke-width="0.455731" stroke-linecap="round" stroke-linejoin="round"></path>
  <path d="M0.636719 195.154H240.637" stroke="#263238" stroke-width="0.455731" stroke-miterlimit="10"></path>
  <path d="M48.2756 228.076C66.8635 228.076 81.932 224.775 81.932 220.703C81.932 216.631 66.8635 213.33 48.2756 213.33C29.6876 213.33 14.6191 216.631 14.6191 220.703C14.6191 224.775 29.6876 228.076 48.2756 228.076Z" fill="#92E3A9"></path>
  <path opacity="0.5" d="M48.2756 228.076C66.8635 228.076 81.932 224.775 81.932 220.703C81.932 216.631 66.8635 213.33 48.2756 213.33C29.6876 213.33 14.6191 216.631 14.6191 220.703C14.6191 224.775 29.6876 228.076 48.2756 228.076Z" fill="white"></path>
  <path d="M42.5 145.324C42.5 145.324 38.9288 156.3 38.1317 161.854C37.3346 167.407 35.7509 182.882 35.7509 182.882C32.9445 186.381 31.0991 190.551 30.3967 194.98C29.4055 202.06 29.7359 211.594 29.7359 211.594C29.7359 211.594 28.944 212.784 28.944 213.382C28.944 213.98 29.0752 215.301 29.0752 215.301C27.6192 216.434 26.2274 217.647 24.9061 218.935C23.4535 220.456 23.7157 223.104 23.7157 223.828C23.7157 224.552 24.5757 225.616 25.0425 225.616C25.5092 225.616 28.6766 225.018 30.2865 223.697C31.8965 222.375 31.9384 219.664 32.337 218.453C32.7355 217.241 35.4205 213.691 35.4205 213.691C35.8233 213.649 36.1993 213.47 36.4857 213.183C36.7721 212.897 36.9514 212.521 36.9937 212.118C37.1248 210.665 37.4552 208.085 37.5863 207.556C37.7174 207.026 43.2761 198.032 44.5294 192.61C45.7828 187.188 49.6896 179.059 51.0793 175.488C52.4689 171.917 55.4423 164.643 55.4423 164.643L56.0401 164.444C56.0401 164.444 54.9127 180.176 54.5823 185.142C54.2519 190.109 54.1837 191.357 54.1837 197.901C54.1837 204.446 56.7638 215.207 56.7638 215.207V218.579C56.7638 218.778 57.2882 218.977 58.2846 219.04C59.281 219.103 62.1967 219.119 62.9256 219.565C63.6545 220.01 66.6279 220.356 69.6695 220.225C72.711 220.094 74.3 219.564 73.9696 218.967C73.6392 218.369 68.4161 216.345 67.5561 215.794C66.6961 215.243 64.6981 213.927 64.6981 213.927C64.6981 213.927 64.8344 212.212 64.3677 211.415C63.901 210.618 63.707 210.692 63.707 209.842C63.707 208.992 65.6263 197.739 66.156 192.384C66.6856 187.03 69.5279 179.421 69.7272 173.737C69.9264 168.052 69.3968 163.684 68.9301 157.202C68.6586 153.328 67.9729 149.493 66.8849 145.765L42.5 145.324Z" fill="#263238" stroke="#263238" stroke-width="0.455731" stroke-linecap="round" stroke-linejoin="round"></path>
  <path d="M63.9927 145.732L54.7998 145.559V147.772H63.9927V145.732Z" fill="#595959" stroke="#263238" stroke-width="0.455731" stroke-linecap="round" stroke-linejoin="round"></path>
  <path d="M65.1143 147.771H67.4426C67.1332 146.512 66.9182 145.789 66.9182 145.789L65.13 145.752L65.1143 147.771Z" fill="#595959" stroke="#263238" stroke-width="0.455731" stroke-linecap="round" stroke-linejoin="round"></path>
  <path d="M46.9277 147.77H52.5494V145.515L46.9277 145.41V147.77Z" fill="#595959" stroke="#263238" stroke-width="0.455731" stroke-linecap="round" stroke-linejoin="round"></path>
  <path d="M45.7379 145.382L42.5023 145.324C42.5023 145.324 42.1877 146.279 41.7314 147.768H45.7379V145.382Z" fill="#595959" stroke="#263238" stroke-width="0.455731" stroke-linecap="round" stroke-linejoin="round"></path>
  <path d="M61.6115 145.656H57.9092V147.707H61.6115V145.656Z" fill="white" stroke="#263238" stroke-width="0.455731" stroke-linecap="round" stroke-linejoin="round"></path>
  <path d="M75.6288 154.32C75.6288 154.32 76.8192 159.407 76.4889 162.517C76.363 163.702 74.7688 167.147 74.4384 167.347C74.1161 167.45 73.7696 167.45 73.4473 167.347C73.6898 166.698 73.8878 166.034 74.0399 165.359C74.108 164.835 74.1762 163.377 74.1762 163.377C73.7939 164.224 73.3505 165.043 72.8495 165.826C72.4019 166.274 71.8892 166.653 71.3287 166.948C71.2115 166.941 71.0975 166.907 70.9949 166.85C70.8924 166.793 70.804 166.713 70.7361 166.618C70.605 166.418 71.2605 165.957 71.5961 165.228C71.9318 164.499 72.4562 163.13 72.4562 163.13C71.9789 163.743 71.4527 164.317 70.8829 164.845C70.3618 165.226 69.7803 165.517 69.1629 165.705C68.9636 165.705 68.5703 164.982 68.7696 164.913C68.9689 164.845 70.6207 163.922 70.8148 163.592C70.9964 163.315 71.1961 163.05 71.4126 162.8C70.6364 163.114 69.8412 163.378 69.0318 163.592C68.7014 163.592 68.5703 163.067 68.5703 163.067L70.7518 161.945L71.2762 160.618C71.007 159.601 71.007 158.531 71.2762 157.514C71.7377 155.993 71.937 154.934 71.937 154.934L75.6288 154.32Z" fill="white" stroke="#263238" stroke-width="0.455731" stroke-linecap="round" stroke-linejoin="round"></path>
  <path d="M73.3154 156.502C73.3154 156.502 73.3784 158.683 73.7769 159.124C74.1755 159.564 74.8991 160.115 74.8991 160.577C74.8991 161.038 74.1755 163.686 74.3747 163.886C74.435 163.965 74.5167 164.025 74.6101 164.06C74.7035 164.094 74.8048 164.102 74.9021 164.081C74.9995 164.06 75.0889 164.012 75.1599 163.942C75.2308 163.872 75.2805 163.783 75.3029 163.686C75.7221 162.238 76.01 160.755 76.163 159.255" fill="white"></path>
  <path d="M73.3154 156.502C73.3154 156.502 73.3784 158.683 73.7769 159.124C74.1755 159.564 74.8991 160.115 74.8991 160.577C74.8991 161.038 74.1755 163.686 74.3747 163.886C74.435 163.965 74.5167 164.025 74.6101 164.06C74.7035 164.094 74.8048 164.102 74.9021 164.081C74.9995 164.06 75.0889 164.012 75.1599 163.942C75.2308 163.872 75.2805 163.783 75.3029 163.686C75.7221 162.238 76.01 160.755 76.163 159.255" stroke="#263238" stroke-width="0.455731" stroke-linecap="round" stroke-linejoin="round"></path>
  <path d="M70.0068 118.081C70.0068 118.081 71.795 128.863 71.989 132.103C72.1831 135.344 72.1883 137.788 72.1883 137.788L75.6284 154.322L71.9261 154.915C71.9261 154.915 67.5631 146 66.682 144.951C65.801 143.903 65.3553 141.91 65.6909 139.067C66.0265 136.225 65.7539 120.682 66.4146 118.831C66.5321 118.478 66.7399 118.163 67.0172 117.916C67.2946 117.669 67.6318 117.5 67.9953 117.424C68.3587 117.348 68.7357 117.369 69.0887 117.484C69.4416 117.599 69.7582 117.805 70.0068 118.081Z" fill="white" stroke="#263238" stroke-width="0.455731" stroke-linecap="round" stroke-linejoin="round"></path>
  <path d="M71.4668 153.856L75.1691 152.865" stroke="#263238" stroke-width="0.455731" stroke-linecap="round" stroke-linejoin="round"></path>
  <path d="M48.8469 107.24C48.8469 107.24 34.3628 113.25 33.7021 113.533C33.0413 113.816 32.5798 113.533 32.2495 114.855C31.9191 116.176 26.4286 139.753 26.6803 141.62C26.932 143.487 30.9909 159.681 30.9909 159.681L35.5585 158.889L36.0829 139.381L38.5319 133.162C38.5319 133.162 41.7727 141.295 41.7045 141.961C41.6364 142.627 40.8445 144.143 41.3112 145.003C41.5434 145.472 41.883 145.88 42.3023 146.193H67.4739C67.4739 146.193 69.0471 145.669 69.1258 144.935C69.0752 143.869 68.9437 142.808 68.7325 141.762C68.7325 141.762 70.9769 132.899 70.9769 126.748C70.9769 120.597 70.2532 115.51 69.2569 114.052C68.2605 112.594 64.6945 111.142 61.4589 110.02C58.2233 108.897 55.5069 107.838 52.5965 107.576C49.686 107.314 48.8469 107.24 48.8469 107.24Z" fill="white" stroke="#263238" stroke-width="0.455731" stroke-linecap="round" stroke-linejoin="round"></path>
  <path d="M59.8242 112.195C59.8242 112.195 62.0687 122.274 62.0687 127.928C62.0687 133.581 62.2208 140.345 62.5249 141.421C62.8291 142.496 63.2958 144.331 62.2208 145.558" stroke="#263238" stroke-width="0.455731" stroke-linecap="round" stroke-linejoin="round"></path>
  <path d="M38.5322 133.155L42.5649 123.369" stroke="#263238" stroke-width="0.455731" stroke-linecap="round" stroke-linejoin="round"></path>
  <path d="M40.5811 128.66L44.3515 123.898" stroke="#263238" stroke-width="0.455731" stroke-linecap="round" stroke-linejoin="round"></path>
  <path d="M30.5303 157.625L35.5593 157.096" stroke="#263238" stroke-width="0.455731" stroke-linecap="round" stroke-linejoin="round"></path>
  <path d="M62.6029 109.09L64.1237 112.325L60.6836 110.411L62.6029 109.09Z" fill="white" stroke="#263238" stroke-width="0.455731" stroke-linecap="round" stroke-linejoin="round"></path>
  <path d="M59.8242 112.193L62.6036 109.088L59.8924 107.762L59.8242 112.193Z" fill="white" stroke="#263238" stroke-width="0.455731" stroke-linecap="round" stroke-linejoin="round"></path>
  <path d="M60.2896 87.0705C60.2896 87.0705 62.0726 89.0528 62.0726 89.6453C62.0584 90.1335 62.0146 90.6203 61.9415 91.1032C61.9415 91.1032 64.9149 92.5558 64.5636 93.1536C64.2122 93.7514 63.7717 94.8684 63.7717 94.8684C63.7717 94.8684 66.2154 100.228 65.8693 100.758C65.5232 101.287 62.167 104.523 61.5744 106.112C60.9819 107.701 59.7862 112.195 59.7862 112.195L48.4118 105.902C48.4118 105.902 49.8015 103.657 49.8697 102.137C49.9379 100.616 50.1319 99.4255 49.8697 98.4973C49.6075 97.5691 48.2178 95.1883 48.0815 92.8757C47.9451 90.563 50.4623 87.8519 53.7713 86.2629C57.0803 84.674 60.2896 87.0705 60.2896 87.0705Z" fill="white" stroke="#263238" stroke-width="0.455731" stroke-linecap="round" stroke-linejoin="round"></path>
  <path d="M58.7021 96.3867C59.0887 96.8247 59.6063 97.1261 60.178 97.2461C60.7497 97.3661 61.3448 97.2983 61.8748 97.0527" stroke="#263238" stroke-width="0.455731" stroke-linecap="round" stroke-linejoin="round"></path>
  <path d="M60.176 92.1816C60.3543 92.5644 60.2914 92.9682 60.0449 93.0783C59.7985 93.1885 59.4524 92.9787 59.2741 92.5959C59.0958 92.2131 59.1639 91.8093 59.4104 91.6992C59.6569 91.589 60.003 91.7988 60.176 92.1816Z" fill="#263238"></path>
  <path d="M57.4424 91.8909C57.6308 91.4109 57.974 91.0073 58.4175 90.7442C58.8611 90.4811 59.3797 90.3735 59.8914 90.4383" stroke="#263238" stroke-width="0.911463" stroke-linecap="round" stroke-linejoin="round"></path>
  <path d="M52.4183 98.0461C52.4183 98.0461 54.1384 98.0461 54.1384 97.1179C54.1384 96.1897 52.8169 94.3438 53.1472 93.4156C53.4776 92.4874 55.0613 91.8424 54.4687 90.8355C53.8762 89.8287 52.6805 89.8444 53.3465 89.1836C54.0125 88.5229 58.9 89.3829 60.5519 87.6104C62.2037 85.8379 62.8645 83.1163 61.6741 82.5918C60.4837 82.0674 58.9629 83.3837 58.9629 83.3837C58.9629 83.3837 58.171 81.5326 55.7902 82.1933C53.4094 82.8541 50.1057 85.4341 48.2545 88.0142C46.4034 90.5943 45.7374 91.5173 46.4663 93.2583C47.1952 94.9993 49.576 98.2192 50.499 98.7488C51.4219 99.2785 52.4183 98.0461 52.4183 98.0461Z" fill="#263238" stroke="#263238" stroke-width="0.455731" stroke-linecap="round" stroke-linejoin="round"></path>
  <path d="M53.4769 98.907C53.4769 98.907 51.6257 96.2587 50.0367 96.5891C48.4478 96.9195 48.8463 99.2373 49.9056 100.291C50.9649 101.345 52.8161 100.622 53.2094 100.36C53.2094 100.36 54.6673 103.863 56.1199 103.999C57.5725 104.135 61.6733 102.342 61.6733 102.342" fill="white"></path>
  <path d="M53.4769 98.907C53.4769 98.907 51.6257 96.2587 50.0367 96.5891C48.4478 96.9195 48.8463 99.2373 49.9056 100.291C50.9649 101.345 52.8161 100.622 53.2094 100.36C53.2094 100.36 54.6673 103.863 56.1199 103.999C57.5725 104.135 61.6733 102.342 61.6733 102.342" stroke="#263238" stroke-width="0.455731" stroke-linecap="round" stroke-linejoin="round"></path>
  <path d="M57.7715 108.619L59.8219 112.19L55.8574 110.208L57.7715 108.619Z" fill="white" stroke="#263238" stroke-width="0.455731" stroke-linecap="round" stroke-linejoin="round"></path>
  <path d="M48.6479 104.258L57.7726 108.621L55.6592 113.781L47.1953 107.43L48.6479 104.258Z" fill="white" stroke="#263238" stroke-width="0.455731" stroke-linecap="round" stroke-linejoin="round"></path>
  <path d="M61.2127 148.564C61.2127 148.564 62.0727 154.123 61.1445 157.165" stroke="#5C656A" stroke-width="0.455731" stroke-linecap="round" stroke-linejoin="round"></path>
  <path d="M58.2393 149.822C58.2393 149.822 59.0993 155.313 58.7637 159.146" stroke="#5C656A" stroke-width="0.455731" stroke-linecap="round" stroke-linejoin="round"></path>
  <path d="M61.293 158.107C61.0937 158.307 59.5729 159.036 59.1953 159.959C58.7767 160.842 58.3128 161.703 57.8057 162.539" stroke="#5C656A" stroke-width="0.455731" stroke-linecap="round" stroke-linejoin="round"></path>
  <path d="M50.8318 148.232L49.0488 153.655" stroke="#5C656A" stroke-width="0.455731" stroke-linecap="round" stroke-linejoin="round"></path>
  <path d="M51.5587 148.301L51.1602 156.833" stroke="#5C656A" stroke-width="0.455731" stroke-linecap="round" stroke-linejoin="round"></path>
  <path d="M65.9062 148.232L67.0337 153.13" stroke="#5C656A" stroke-width="0.455731" stroke-linecap="round" stroke-linejoin="round"></path>
  <path d="M65.6451 148.367C65.6451 148.367 65.1836 152.992 65.1836 153.192" stroke="#5C656A" stroke-width="0.455731" stroke-linecap="round" stroke-linejoin="round"></path>
  <path d="M37.5771 167.203H28.0906C27.8959 167.203 27.7092 167.28 27.5715 167.418C27.4338 167.556 27.3564 167.743 27.3564 167.937V171.807C27.3564 172.002 27.4338 172.189 27.5715 172.327C27.7092 172.464 27.8959 172.542 28.0906 172.542H29.2024C29.0076 172.542 28.8209 172.464 28.6832 172.327C28.5455 172.189 28.4682 172.002 28.4682 171.807V169.28C28.4682 169.085 28.5455 168.898 28.6832 168.761C28.8209 168.623 29.0076 168.546 29.2024 168.546H36.4654C36.6601 168.546 36.8468 168.623 36.9845 168.761C37.1222 168.898 37.1996 169.085 37.1996 169.28V171.807C37.1996 172.002 37.1222 172.189 36.9845 172.327C36.8468 172.464 36.6601 172.542 36.4654 172.542H37.5771C37.7718 172.542 37.9586 172.464 38.0963 172.327C38.234 172.189 38.3113 172.002 38.3113 171.807V167.937C38.3113 167.743 38.234 167.556 38.0963 167.418C37.9586 167.28 37.7718 167.203 37.5771 167.203Z" fill="#263238" stroke="#263238" stroke-width="0.455731" stroke-linecap="round" stroke-linejoin="round"></path>
  <path d="M30.9915 159.677C30.9915 159.677 29.6018 165.099 29.864 166.022C30.1262 166.945 30.8604 167.48 30.9128 167.679C30.9606 167.822 30.9604 167.977 30.9121 168.12C30.8638 168.263 30.7701 168.386 30.6454 168.471L30.315 168.67C30.315 168.67 30.0528 168.67 30.252 169.064C30.3326 169.279 30.4796 169.462 30.6716 169.588C31.1068 169.808 31.3743 169.363 31.7676 169.305C32.1609 169.247 32.4074 169.677 32.7797 169.651C33.152 169.625 33.3513 169.252 33.7131 169.284C34.075 169.315 34.311 169.971 34.8354 169.74C35.0609 169.635 35.2234 169.41 35.4489 169.294C35.7845 169.121 36.2617 169.168 36.5607 168.912C36.8009 168.66 36.9488 168.335 36.9802 167.989C37.1008 167.312 35.5433 158.869 35.5433 158.869L30.9915 159.677Z" fill="white" stroke="#263238" stroke-width="0.455731" stroke-linecap="round" stroke-linejoin="round"></path>
  <path d="M46.2675 170.859H18.1383C16.9827 170.859 16.0459 171.796 16.0459 172.952V190.824C16.0459 191.979 16.9827 192.916 18.1383 192.916H46.2675C47.4231 192.916 48.3598 191.979 48.3598 190.824V172.952C48.3598 171.796 47.4231 170.859 46.2675 170.859Z" fill="#92E3A9" stroke="#263238" stroke-width="0.455731" stroke-linecap="round" stroke-linejoin="round"></path>
  <path d="M16.1191 172.896L31.4004 183.689C31.8138 183.985 32.31 184.145 32.8189 184.145C33.3278 184.145 33.8239 183.985 34.2374 183.689L48.2758 173.473" stroke="#263238" stroke-width="0.455731" stroke-linecap="round" stroke-linejoin="round"></path>
  <path d="M34.102 182.234H31.501V185.889H34.102V182.234Z" fill="white" stroke="#263238" stroke-width="0.455731" stroke-linecap="round" stroke-linejoin="round"></path>
</svg>
