<svg xmlns:xlink="http://www.w3.org/1999/xlink" xmlns="http://www.w3.org/2000/svg" width="36" height="47" viewBox="0 0 36 47" fill="none">
  <path fill-rule="evenodd" clip-rule="evenodd" d="M0 17.9004C0 8.03011 8.03011 0 17.9004 0C27.7707 0 35.8008 8.03011 35.8008 17.9004C35.8008 24.2245 32.5042 29.7933 27.539 32.9784V45.623C27.539 46.1308 27.2595 46.5975 26.8118 46.837C26.3639 47.0768 25.8206 47.0503 25.3983 46.7687L17.9004 41.7701L10.4024 46.7687C9.97997 47.0504 9.43671 47.0767 8.98893 46.837C8.54123 46.5975 8.26171 46.1308 8.26171 45.623V32.9784C3.29661 29.7933 0 24.2245 0 17.9004ZM18.6641 38.9695L24.7851 43.0501V34.423C22.6646 35.3099 20.3389 35.8008 17.9004 35.8008C15.4619 35.8008 13.1361 35.3099 11.0156 34.423V43.0501L17.1365 38.9695C17.599 38.6612 18.2017 38.6612 18.6641 38.9695ZM2.7539 17.9004C2.7539 26.2521 9.54861 33.0469 17.9004 33.0469C26.2522 33.0469 33.0469 26.2521 33.0469 17.9004C33.0469 9.54861 26.2521 2.7539 17.9004 2.7539C9.54861 2.7539 2.7539 9.54861 2.7539 17.9004ZM27.7326 13.7357C28.2553 13.8099 28.6895 14.1764 28.8505 14.6791C29.0116 15.182 28.8708 15.7325 28.4884 16.0966L24.2037 20.1744L25.2136 25.9239C25.304 26.4387 25.0951 26.9604 24.6744 27.2705C24.2546 27.5801 23.6946 27.6263 23.2286 27.3871L17.9005 24.6521L12.5723 27.387C12.1073 27.6257 11.5472 27.5805 11.1265 27.2704C10.7057 26.9603 10.4969 26.4386 10.5873 25.9238L11.5972 20.1743L7.31253 16.0965C6.93011 15.7325 6.78938 15.1819 6.95039 14.6791C7.1114 14.1764 7.5457 13.8099 8.06839 13.7357L14.0172 12.8918L16.6716 7.64053C16.9059 7.17705 17.3811 6.88477 17.9005 6.88477C18.4199 6.88477 18.8951 7.17705 19.1294 7.64053L21.7838 12.8918L27.7326 13.7357ZM21.3636 19.924C21.2838 19.4699 21.4366 19.0061 21.7705 18.6883L24.5292 16.0627L20.6856 15.5174C20.2398 15.4543 19.8532 15.1771 19.6501 14.7753L17.9005 11.314L16.1508 14.7754C15.9478 15.1771 15.561 15.4543 15.1154 15.5175L11.2717 16.0628L14.0304 18.6883C14.3644 19.0061 14.5171 19.4699 14.4373 19.924L13.7789 23.6723L17.2717 21.8794C17.6664 21.6768 18.1345 21.6768 18.5293 21.8794L22.0221 23.6723L21.3636 19.924Z" fill="white"/>
</svg>