<?xml version="1.0" encoding="UTF-8"?>
<svg xmlns="http://www.w3.org/2000/svg" width="38" height="38" viewBox="0 0 38 38" fill="none">
  <path d="M30.9972 7.8336H30.2462L28.7734 4.24946C27.4146 0.922589 23.6193 -0.67663 20.2894 0.674464L4.56868 7.05235C2.94563 7.70399 1.65524 8.98462 0.991338 10.6027C0.326573 12.1795 0.327119 13.9579 0.992901 15.5342L7.30774 31.2377C7.3586 31.3756 7.42165 31.5088 7.4961 31.6356C7.66548 35.1171 10.5587 37.8408 14.0441 37.7999H30.9972C34.5524 37.8384 37.4654 34.9875 37.5038 31.4324C37.5043 31.386 37.5043 31.3396 37.5038 31.2933V14.3402C37.5423 10.7851 34.6913 7.87196 31.1363 7.83353C31.0899 7.83314 31.0435 7.83314 30.9972 7.8336ZM35.4659 12.2902H9.52446C10.3342 10.5286 12.1054 9.40907 14.044 9.4336H30.9971C32.9218 9.41415 34.6756 10.5352 35.4659 12.2902ZM2.47181 14.924C1.97009 13.7391 1.96923 12.4016 2.46946 11.216C2.97009 9.99439 3.94392 9.02751 5.16907 8.53556L20.8898 2.15759C23.402 1.1386 26.265 2.34407 27.2917 4.85314L28.5163 7.8336H14.0441C10.4368 7.82228 7.5011 10.7331 7.48157 14.3402V27.3817L2.47181 14.924ZM35.9038 31.2934C35.9329 33.9742 33.7832 36.1709 31.1024 36.2C31.0673 36.2004 31.0323 36.2004 30.9972 36.2H14.0441C11.3525 36.2391 9.13501 34.0964 9.08157 31.4051V14.3402C9.08157 14.1881 9.09071 14.0385 9.10384 13.8902H35.8818C35.8947 14.0385 35.9038 14.1881 35.9038 14.3402V31.2934Z" fill="#1C1C28"></path>
  <path d="M22.4934 21.5287C22.0516 21.5287 21.6934 21.8869 21.6934 22.3287V26.5549C21.6934 26.9967 22.0516 27.3549 22.4934 27.3549C22.9352 27.3549 23.2934 26.9967 23.2934 26.5549V22.3287C23.2934 21.8869 22.9352 21.5287 22.4934 21.5287Z" fill="#1C1C28"></path>
  <path d="M22.4917 20.6244C22.9326 20.6244 23.2901 20.2659 23.2901 19.8236C23.2901 19.3813 22.9326 19.0228 22.4917 19.0228C22.0508 19.0228 21.6934 19.3813 21.6934 19.8236C21.6934 20.2659 22.0508 20.6244 22.4917 20.6244Z" fill="#1C1C28"></path>
</svg>
