<?xml version="1.0" encoding="UTF-8"?>
<svg xmlns="http://www.w3.org/2000/svg" width="112" height="112" viewBox="0 0 112 112" fill="none">
  <path fill-rule="evenodd" clip-rule="evenodd" d="M30.8533 18.6973C29.8719 18.6973 29.0537 19.3957 28.8686 20.3227L28.8667 20.3229C27.8185 24.653 23.9174 27.869 19.2652 27.869C17.4639 27.869 15.7751 27.3868 14.321 26.5445C13.5259 25.8847 12.3443 25.9273 11.5992 26.6725L8.97538 29.2963C8.28091 29.9907 8.19662 31.0643 8.72249 31.8508L8.71729 31.8575C11.0147 35.6408 10.5092 40.662 7.21368 43.9575C5.91419 45.257 4.34633 46.1227 2.69184 46.5537C1.73204 46.7122 1 47.5459 1 48.5506V52.2612C1 53.2427 1.69869 54.061 2.62584 54.246L2.63177 54.2926C6.91939 55.3706 10.0939 59.2513 10.0939 63.8735C10.0939 65.7227 9.58573 67.4532 8.70147 68.9331L8.72272 68.9606C8.19661 69.7471 8.28083 70.8208 8.97539 71.5154L11.5992 74.1392C12.3199 74.86 13.4491 74.9235 14.2418 74.3296C18.0424 72.1372 22.9946 72.6755 26.2574 75.9385C27.5639 77.245 28.4335 78.8223 28.866 80.4881L28.8685 80.4884C29.0533 81.4157 29.8717 82.1145 30.8533 82.1145H34.5639C35.5799 82.1145 36.421 81.3659 36.5658 80.3901C37.83 76.2091 41.7362 73.1628 46.359 73.1628C48.1321 73.1628 49.7998 73.611 51.2534 74.3994L51.2634 74.3917C52.0499 74.9178 53.1236 74.8335 53.8181 74.139L56.4419 71.5152C57.1364 70.8207 57.2207 69.747 56.6947 68.9605L56.702 68.951C54.5756 65.0959 55.1601 60.1348 58.4471 56.8477C59.702 55.5928 61.2009 54.7319 62.7891 54.2652L62.7915 54.2459C63.7186 54.0609 64.4172 53.2426 64.4172 52.2612V48.5506C64.4172 47.5691 63.7186 46.7508 62.7916 46.5658L62.7892 46.5471C58.4824 45.4825 55.2891 41.5925 55.2891 36.9567C55.2891 35.0925 55.8055 33.349 56.703 31.8613L56.6949 31.8508C57.2207 31.0643 57.1363 29.9909 56.4419 29.2964L53.8181 26.6727C53.0739 25.9284 51.8943 25.885 51.0992 26.5422C47.3049 28.8209 42.3585 28.3664 39.1434 25.1513C37.8235 23.8314 36.9689 22.2197 36.5775 20.5157C36.4746 19.4944 35.6123 18.6973 34.5639 18.6973H30.8533ZM32.7087 66.0977C41.3751 66.0977 48.4007 59.0721 48.4007 50.4057C48.4007 41.7392 41.3751 34.7136 32.7087 34.7136C24.0422 34.7136 17.0166 41.7392 17.0166 50.4057C17.0166 59.0721 24.0422 66.0977 32.7087 66.0977Z" fill="url(#paint0_linear_10258_9471)"></path>
  <path fill-rule="evenodd" clip-rule="evenodd" d="M32.7093 68.8054C42.8718 68.8054 51.1101 60.5671 51.1101 50.4046C51.1101 40.2422 42.8718 32.0039 32.7093 32.0039C22.5469 32.0039 14.3086 40.2422 14.3086 50.4046C14.3086 60.5671 22.5469 68.8054 32.7093 68.8054ZM32.7091 66.1003C41.3756 66.1003 48.4011 59.0747 48.4011 50.4082C48.4011 41.7418 41.3756 34.7162 32.7091 34.7162C24.0426 34.7162 17.0171 41.7418 17.0171 50.4082C17.0171 59.0747 24.0426 66.1003 32.7091 66.1003Z" fill="url(#paint1_linear_10258_9471)"></path>
  <path d="M37.2128 50.4013C37.2128 54.0295 36.6684 57.2965 35.8011 59.642C35.3669 60.8164 34.8595 61.7387 34.3162 62.3602C33.7722 62.9825 33.2277 63.2658 32.7083 63.2658C32.1888 63.2658 31.6443 62.9825 31.1003 62.3602C30.5571 61.7387 30.0496 60.8164 29.6154 59.642C28.7481 57.2965 28.2037 54.0295 28.2037 50.4013C28.2037 46.7731 28.7481 43.5061 29.6154 41.1605C30.0496 39.9862 30.5571 39.0638 31.1003 38.4424C31.6443 37.8201 32.1888 37.5367 32.7083 37.5367C33.2277 37.5367 33.7722 37.8201 34.3162 38.4424C34.8595 39.0638 35.3669 39.9862 35.8011 41.1605C36.6684 43.5061 37.2128 46.7731 37.2128 50.4013Z" stroke="url(#paint2_linear_10258_9471)" stroke-width="0.8"></path>
  <path d="M32.7081 54.9071C29.0799 54.9071 25.8129 54.3627 23.4673 53.4955C22.293 53.0612 21.3707 52.5538 20.7492 52.0105C20.1269 51.4665 19.8435 50.922 19.8435 50.4026C19.8435 49.8832 20.1269 49.3387 20.7492 48.7947C21.3707 48.2514 22.293 47.7439 23.4673 47.3097C25.8129 46.4425 29.0799 45.898 32.7081 45.898C36.3363 45.898 39.6033 46.4425 41.9488 47.3097C43.1232 47.7439 44.0455 48.2514 44.667 48.7947C45.2893 49.3387 45.5727 49.8832 45.5727 50.4026C45.5727 50.922 45.2893 51.4665 44.667 52.0105C44.0455 52.5538 43.1232 53.0613 41.9488 53.4955C39.6033 54.3627 36.3363 54.9071 32.7081 54.9071Z" stroke="url(#paint3_linear_10258_9471)" stroke-width="0.8"></path>
  <path d="M32.7081 63.2658C31.0187 63.2658 29.3458 62.9331 27.785 62.2866C26.2242 61.6401 24.8061 60.6925 23.6115 59.4979C22.4169 58.3033 21.4693 56.8851 20.8228 55.3243C20.1763 53.7635 19.8435 52.0907 19.8435 50.4013" stroke="url(#paint4_linear_10258_9471)" stroke-width="0.8"></path>
  <path d="M19.8435 50.4034C19.8435 48.714 20.1763 47.0411 20.8228 45.4803C21.4693 43.9195 22.4169 42.5014 23.6115 41.3068C24.8061 40.1122 26.2242 39.1646 27.785 38.5181C29.3458 37.8716 31.0187 37.5388 32.7081 37.5388" stroke="url(#paint5_linear_10258_9471)" stroke-width="0.8"></path>
  <path d="M32.7079 37.5388C34.3973 37.5388 36.0702 37.8716 37.631 38.5181C39.1918 39.1646 40.61 40.1122 41.8045 41.3068C42.9991 42.5014 43.9467 43.9195 44.5932 45.4803C45.2397 47.0411 45.5725 48.714 45.5725 50.4034" stroke="url(#paint6_linear_10258_9471)" stroke-width="0.8"></path>
  <path d="M45.5725 50.4013C45.5725 52.0907 45.2397 53.7635 44.5932 55.3243C43.9467 56.8851 42.9991 58.3033 41.8045 59.4979C40.61 60.6925 39.1918 61.6401 37.631 62.2866C36.0702 62.9331 34.3973 63.2658 32.7079 63.2658" stroke="url(#paint7_linear_10258_9471)" stroke-width="0.8"></path>
  <rect x="44.7471" y="8" width="55.8109" height="83.7163" rx="4" fill="url(#paint8_linear_10258_9471)"></rect>
  <path d="M44.7471 87.6582V99.3277C44.7471 101.569 46.5644 103.387 48.806 103.387H96.499C98.7406 103.387 100.558 101.569 100.558 99.3277V87.6582C100.558 89.8998 98.7406 91.7172 96.499 91.7172H48.806C46.5644 91.7172 44.7471 89.8998 44.7471 87.6582Z" fill="url(#paint9_linear_10258_9471)"></path>
  <circle cx="72.6398" cy="16.0236" r="2.02949" fill="#FEF8EA"></circle>
  <path d="M83.1816 26.3828H111V46.1083H105.087V50.9165L100.234 46.1083H83.1816V26.3828Z" fill="url(#paint10_linear_10258_9471)"></path>
  <ellipse cx="101.053" cy="36.2206" rx="1.01157" ry="1.01157" fill="#FEF8EA"></ellipse>
  <ellipse cx="97.0887" cy="36.2206" rx="1.01157" ry="1.01157" fill="#FEF8EA"></ellipse>
  <ellipse cx="93.1258" cy="36.2206" rx="1.01157" ry="1.01157" fill="#FEF8EA"></ellipse>
  <defs>
    <linearGradient id="paint0_linear_10258_9471" x1="-19.4843" y1="39.1816" x2="54.1653" y2="88.9006" gradientUnits="userSpaceOnUse">
      <stop stop-color="#FF8800" stop-opacity="0.06"></stop>
      <stop offset="1" stop-color="#E63535"></stop>
    </linearGradient>
    <linearGradient id="paint1_linear_10258_9471" x1="2.42138" y1="43.8911" x2="45.1608" y2="72.7434" gradientUnits="userSpaceOnUse">
      <stop stop-color="#FF8800" stop-opacity="0.06"></stop>
      <stop offset="1" stop-color="#E63535"></stop>
    </linearGradient>
    <linearGradient id="paint2_linear_10258_9471" x1="27.8037" y1="49.1981" x2="37.9436" y2="51.2005" gradientUnits="userSpaceOnUse">
      <stop offset="0.218904" stop-color="#F37F62"></stop>
      <stop offset="0.505609" stop-color="#FF8800" stop-opacity="0.06"></stop>
      <stop offset="0.766032" stop-color="#F27E61"></stop>
    </linearGradient>
    <linearGradient id="paint3_linear_10258_9471" x1="33.9113" y1="45.498" x2="31.9089" y2="55.6379" gradientUnits="userSpaceOnUse">
      <stop offset="0.218904" stop-color="#F37F62"></stop>
      <stop offset="0.505609" stop-color="#FF8800" stop-opacity="0.06"></stop>
      <stop offset="0.766032" stop-color="#F27E61"></stop>
    </linearGradient>
    <linearGradient id="paint4_linear_10258_9471" x1="19.4435" y1="50.4013" x2="32.6482" y2="64.2329" gradientUnits="userSpaceOnUse">
      <stop stop-color="#FF8800" stop-opacity="0.06"></stop>
      <stop offset="1" stop-color="#F37F62"></stop>
    </linearGradient>
    <linearGradient id="paint5_linear_10258_9471" x1="32.7081" y1="37.1388" x2="18.8764" y2="50.3435" gradientUnits="userSpaceOnUse">
      <stop stop-color="#FF8800" stop-opacity="0.06"></stop>
      <stop offset="1" stop-color="#F37F62"></stop>
    </linearGradient>
    <linearGradient id="paint6_linear_10258_9471" x1="45.9725" y1="50.4034" x2="32.7678" y2="36.5718" gradientUnits="userSpaceOnUse">
      <stop stop-color="#FF8800" stop-opacity="0.06"></stop>
      <stop offset="1" stop-color="#F37F62"></stop>
    </linearGradient>
    <linearGradient id="paint7_linear_10258_9471" x1="32.7079" y1="63.6659" x2="46.5396" y2="50.4611" gradientUnits="userSpaceOnUse">
      <stop stop-color="#FF8800" stop-opacity="0.06"></stop>
      <stop offset="1" stop-color="#F37F62"></stop>
    </linearGradient>
    <linearGradient id="paint8_linear_10258_9471" x1="49.7142" y1="8" x2="106.066" y2="83.948" gradientUnits="userSpaceOnUse">
      <stop stop-color="#FF8800" stop-opacity="0.06"></stop>
      <stop offset="1" stop-color="#E63535"></stop>
    </linearGradient>
    <linearGradient id="paint9_linear_10258_9471" x1="12.3172" y1="86.681" x2="31.4208" y2="132.433" gradientUnits="userSpaceOnUse">
      <stop stop-color="#FF8800" stop-opacity="0.06"></stop>
      <stop offset="1" stop-color="#E63535"></stop>
    </linearGradient>
    <linearGradient id="paint10_linear_10258_9471" x1="74.1962" y1="34.3074" x2="103.851" y2="57.0064" gradientUnits="userSpaceOnUse">
      <stop stop-color="#FF8800" stop-opacity="0.06"></stop>
      <stop offset="1" stop-color="#E63535"></stop>
    </linearGradient>
  </defs>
</svg>
