<?xml version="1.0" encoding="UTF-8"?>
<svg xmlns="http://www.w3.org/2000/svg" width="112" height="112" viewBox="0 0 112 112" fill="none">
  <path d="M36.4891 65.6612L36.0938 25.0332H76.5382V42.5041H84.3211V67.5045C84.0289 70.8842 82.8222 73.3871 80.4087 76.8734L75.8051 84.3821C72.175 89.8349 72.175 91.9802 72.175 94.8929V108.845H42.8836V100.207C42.8836 96.7591 42.005 92.6471 41.4521 91.3301C41.4521 91.3301 38.6076 83.3896 37.7557 80.5429C36.9039 77.6962 36.4891 72.4304 36.4891 65.6612Z" fill="url(#paint0_linear_10258_9471)"></path>
  <path d="M47.7914 17.6289C47.7914 17.4173 47.7285 17.2204 47.6203 17.0559C46.7601 15.6528 46.2642 14.0022 46.2642 12.2358C46.2642 7.13502 50.3993 3 55.5001 3C60.6009 3 64.7359 7.13502 64.7359 12.2358C64.7359 13.9939 64.2447 15.6371 63.3921 17.036C63.2757 17.2044 63.2075 17.4087 63.2075 17.6289C63.2075 18.2055 63.675 18.673 64.2516 18.673L64.2721 18.6728H80.8178C82.7559 18.6728 84.3271 20.244 84.3271 22.1821V36.4989L84.327 36.5089C84.327 37.0855 84.7945 37.553 85.3711 37.553C85.5994 37.553 85.8105 37.4797 85.9823 37.3555V37.3572C87.3772 36.5115 89.0138 36.0245 90.7642 36.0245C95.865 36.0245 100 40.1596 100 45.2604C100 50.3612 95.865 54.4962 90.7642 54.4962C89.0138 54.4962 87.3772 54.0093 85.9823 53.1635V53.1665C85.8105 53.0422 85.5994 52.969 85.3711 52.969C84.7945 52.969 84.327 53.4364 84.327 54.0131L84.3271 54.0231V68.3395C84.3271 70.2777 82.7559 71.8488 80.8178 71.8488H60.9185C62.3842 70.4314 63.2955 68.4443 63.2955 66.2444C63.2955 61.9391 59.8053 58.4489 55.5 58.4489C51.1947 58.4489 47.7046 61.9391 47.7046 66.2444C47.7046 68.4443 48.6159 70.4314 50.0816 71.8488H30.1824C28.2442 71.8488 26.6731 70.2777 26.6731 68.3395V54.013C26.673 53.4364 26.2054 52.969 25.6288 52.969C25.416 52.969 25.2181 53.0327 25.053 53.142C23.6505 54.001 22.001 54.4962 20.2358 54.4962C15.135 54.4962 11 50.3612 11 45.2604C11 40.1596 15.135 36.0245 20.2358 36.0245C21.9934 36.0245 23.6362 36.5154 25.0348 37.3676C25.2034 37.4845 25.4081 37.553 25.6288 37.553C26.2054 37.553 26.6729 37.0855 26.6729 36.5089L26.6731 22.1821C26.6731 20.244 28.2442 18.6728 30.1824 18.6728H46.7268L46.7473 18.673C47.3239 18.673 47.7914 18.2055 47.7914 17.6289Z" fill="url(#paint1_linear_10258_9471)"></path>
  <ellipse cx="46.6579" cy="45.3083" rx="2.23899" ry="2.3024" fill="#FEF8EA"></ellipse>
  <ellipse cx="55.5007" cy="45.3083" rx="2.23899" ry="2.3024" fill="#FEF8EA"></ellipse>
  <ellipse cx="64.3435" cy="45.3083" rx="2.23899" ry="2.3024" fill="#FEF8EA"></ellipse>
  <path fill-rule="evenodd" clip-rule="evenodd" d="M84.3107 42.503C84.24 41.0043 83.7804 39.211 82.3065 39.1348C79.639 39.1348 74.337 40.7682 74.469 47.3023V51.4844H74.4933V60.5023C71.1673 60.5487 64.9747 61.3755 59.9973 69.2153C58.9358 70.8871 55.3927 79.855 59.6186 88.7978V105.046V108.844H72.1747V94.8919C72.1747 91.9792 72.1747 89.8338 75.8048 84.381L80.4084 76.8723C82.7954 73.4244 84.002 70.9383 84.3109 67.6144V43.7133C84.3144 43.6749 84.3177 43.6355 84.3208 43.5952V42.9564C84.3208 42.9428 84.3208 42.9293 84.3208 42.9157V42.503H84.3107Z" fill="url(#paint2_linear_10258_9471)"></path>
  <defs>
    <linearGradient id="paint0_linear_10258_9471" x1="39.8686" y1="21.6646" x2="75.7625" y2="109.542" gradientUnits="userSpaceOnUse">
      <stop offset="0.134138" stop-color="#FF8800" stop-opacity="0"></stop>
      <stop offset="0.885227" stop-color="#E63535"></stop>
    </linearGradient>
    <linearGradient id="paint1_linear_10258_9471" x1="7.49696" y1="5.14004" x2="62.3085" y2="90.8475" gradientUnits="userSpaceOnUse">
      <stop offset="0.0666544" stop-color="#FF8800" stop-opacity="0.06"></stop>
      <stop offset="0.932238" stop-color="#E63535"></stop>
    </linearGradient>
    <linearGradient id="paint2_linear_10258_9471" x1="82.0734" y1="25.8009" x2="64.6949" y2="111.867" gradientUnits="userSpaceOnUse">
      <stop offset="0.0454176" stop-color="#FFC98C"></stop>
      <stop offset="0.799651" stop-color="#E63535"></stop>
    </linearGradient>
  </defs>
</svg>
