<?xml version="1.0" encoding="UTF-8"?>
<svg xmlns="http://www.w3.org/2000/svg" width="112" height="112" viewBox="0 0 112 112" fill="none">
  <rect x="6" y="20.2168" width="100.245" height="83.2393" rx="1.1848" fill="url(#paint0_linear_10258_9471)"></rect>
  <circle cx="85.2113" cy="26.929" r="2.23762" fill="#FEF8EA"></circle>
  <circle cx="91.4769" cy="26.929" r="2.23762" fill="#FEF8EA"></circle>
  <circle cx="98.637" cy="26.929" r="2.23762" fill="#FEF8EA"></circle>
  <path d="M58.4453 79.5371H97.2922V94.3697H89.035H82.2582H58.4453V79.5371Z" fill="url(#paint1_linear_10258_9471)"></path>
  <ellipse cx="1.09789" cy="1.0595" rx="1.09789" ry="1.0595" transform="matrix(1 0 0 -1 81.0742 88.0078)" fill="#FEF8EA"></ellipse>
  <ellipse cx="1.09789" cy="1.0595" rx="1.09789" ry="1.0595" transform="matrix(1 0 0 -1 76.7705 88.0078)" fill="#FEF8EA"></ellipse>
  <ellipse cx="1.09789" cy="1.0595" rx="1.09789" ry="1.0595" transform="matrix(1 0 0 -1 72.4707 88.0078)" fill="#FEF8EA"></ellipse>
  <path fill-rule="evenodd" clip-rule="evenodd" d="M58.4453 59.3809H97.2923V61.4607H58.4453V59.3809ZM58.4453 63.7607H84.5602V64.9285H58.4453V63.7607ZM84.5602 67.2307H58.4453V68.3985H84.5602V67.2307Z" fill="url(#paint2_linear_10258_9471)"></path>
  <path fill-rule="evenodd" clip-rule="evenodd" d="M58.4453 45.9434H97.2923V48.0232H58.4453V45.9434ZM58.4453 50.3232H84.5602V51.491H58.4453V50.3232ZM84.5602 53.7932H58.4453V54.961H84.5602V53.7932Z" fill="url(#paint3_linear_10258_9471)"></path>
  <rect x="58.6353" y="72.145" width="9.32981" height="2.87842" stroke="url(#paint4_linear_10258_9471)" stroke-width="0.379885"></rect>
  <mask id="path-12-inside-1_10258_9471" fill="white">
    <path d="M65.502 73.2506L66.0254 73.774L66.1881 73.6114L65.6646 73.0879L65.502 73.2506Z"></path>
    <path d="M66.7014 73.0982L66.0254 73.774L66.1881 73.9369L66.8641 73.2609L66.7014 73.0982Z"></path>
  </mask>
  <path d="M65.502 73.2506L65.2333 72.9819L64.9647 73.2506L65.2333 73.5192L65.502 73.2506ZM66.1881 73.6114L66.4567 73.88L66.7253 73.6114L66.4567 73.3428L66.1881 73.6114ZM65.6646 73.0879L65.9332 72.8193L65.6646 72.5507L65.396 72.8193L65.6646 73.0879ZM66.7014 73.0982L66.9701 72.8296L66.7015 72.561L66.4329 72.8296L66.7014 73.0982ZM66.1881 73.9369L65.9193 74.2054L66.1879 74.4743L66.4567 74.2055L66.1881 73.9369ZM66.8641 73.2609L67.1327 73.5295L67.4013 73.2609L67.1327 72.9923L66.8641 73.2609ZM66.2941 73.5054L65.7706 72.9819L65.2333 73.5192L65.7568 74.0427L66.2941 73.5054ZM65.9195 73.3428L65.7568 73.5054L66.2941 74.0427L66.4567 73.88L65.9195 73.3428ZM65.396 73.3565L65.9195 73.88L66.4567 73.3428L65.9332 72.8193L65.396 73.3565ZM65.7706 73.5192L65.9332 73.3565L65.396 72.8193L65.2333 72.9819L65.7706 73.5192ZM66.294 74.0427L66.97 73.3669L66.4329 72.8296L65.7569 73.5054L66.294 74.0427ZM66.4569 73.6684L66.2942 73.5056L65.7567 74.0425L65.9193 74.2054L66.4569 73.6684ZM66.5955 72.9923L65.9195 73.6683L66.4567 74.2055L67.1327 73.5295L66.5955 72.9923ZM66.4328 73.3668L66.5955 73.5295L67.1327 72.9923L66.9701 72.8296L66.4328 73.3668Z" fill="url(#paint5_linear_10258_9471)" mask="url(#path-12-inside-1_10258_9471)"></path>
  <mask id="path-14-inside-2_10258_9471" fill="white">
    <path d="M60.73 73.9088V73.9072L60.9694 73.658C61.1111 73.5114 61.1551 73.4039 61.1551 73.2802C61.1551 73.0749 60.989 72.9512 60.8049 72.9512C60.6225 72.9512 60.5069 73.0424 60.4434 73.1629L60.5785 73.259C60.629 73.171 60.7023 73.1271 60.7919 73.1271C60.8929 73.1271 60.9629 73.202 60.9629 73.3013C60.9629 73.3974 60.8961 73.4805 60.8049 73.5766L60.445 73.956L60.4482 74.0814H61.1665V73.9088H60.73Z"></path>
  </mask>
  <path d="M60.73 73.9088H60.3501V74.2887H60.73V73.9088ZM60.73 73.9072L60.4561 73.644L60.3501 73.7543V73.9072H60.73ZM60.9694 73.658L60.6963 73.394L60.6955 73.3948L60.9694 73.658ZM60.4434 73.1629L60.1073 72.9858L59.9523 73.2799L60.2233 73.4725L60.4434 73.1629ZM60.5785 73.259L60.3584 73.5686L60.6996 73.8111L60.908 73.4481L60.5785 73.259ZM60.8049 73.5766L60.5294 73.315L60.5293 73.3151L60.8049 73.5766ZM60.445 73.956L60.1694 73.6946L60.0611 73.8087L60.0652 73.9659L60.445 73.956ZM60.4482 74.0814L60.0685 74.0913L60.0781 74.4613H60.4482V74.0814ZM61.1665 74.0814V74.4613H61.5464V74.0814H61.1665ZM61.1665 73.9088H61.5464V73.5289H61.1665V73.9088ZM61.1099 73.9088V73.9072H60.3501V73.9088H61.1099ZM61.0039 74.1704L61.2433 73.9212L60.6955 73.3948L60.4561 73.644L61.0039 74.1704ZM61.2425 73.922C61.4292 73.7289 61.535 73.5317 61.535 73.2802H60.7752C60.7752 73.2882 60.7745 73.2913 60.7744 73.2917C60.7744 73.2919 60.7741 73.2936 60.772 73.2981C60.767 73.3086 60.75 73.3384 60.6963 73.394L61.2425 73.922ZM61.535 73.2802C61.535 72.8198 61.1504 72.5713 60.8049 72.5713V73.3311C60.8141 73.3311 60.81 73.3344 60.7985 73.3243C60.7922 73.3188 60.7855 73.3104 60.7806 73.2998C60.7783 73.2947 60.7768 73.29 60.776 73.2862C60.7756 73.2844 60.7754 73.2829 60.7753 73.2818C60.7752 73.2813 60.7752 73.2809 60.7752 73.2806C60.7752 73.2803 60.7752 73.2802 60.7752 73.2802H61.535ZM60.8049 72.5713C60.4683 72.5713 60.2301 72.7527 60.1073 72.9858L60.7794 73.34C60.7824 73.3344 60.7846 73.3318 60.7852 73.3311C60.7856 73.3306 60.7849 73.3314 60.7832 73.3326C60.7813 73.3338 60.7805 73.3338 60.7823 73.3333C60.7842 73.3327 60.7912 73.3311 60.8049 73.3311V72.5713ZM60.2233 73.4725L60.3584 73.5686L60.7986 72.9494L60.6635 72.8533L60.2233 73.4725ZM60.908 73.4481C60.9071 73.4496 60.8963 73.4672 60.8692 73.4838C60.8408 73.5013 60.8118 73.5069 60.7919 73.5069V72.7472C60.5516 72.7472 60.3597 72.8772 60.2491 73.0699L60.908 73.4481ZM60.7919 73.5069C60.7446 73.5069 60.6872 73.4876 60.6422 73.4411C60.5984 73.3958 60.583 73.3422 60.583 73.3013H61.3428C61.3428 73.0042 61.1145 72.7472 60.7919 72.7472V73.5069ZM60.583 73.3013C60.583 73.2802 60.5869 73.2625 60.591 73.25C60.5949 73.2385 60.5983 73.2339 60.5963 73.2371C60.5942 73.2405 60.5886 73.2486 60.5768 73.2627C60.565 73.2768 60.5498 73.2935 60.5294 73.315L61.0805 73.8381C61.1559 73.7586 61.3428 73.5705 61.3428 73.3013H60.583ZM60.5293 73.3151L60.1694 73.6946L60.7206 74.2175L61.0805 73.838L60.5293 73.3151ZM60.0652 73.9659L60.0685 74.0913L60.828 74.0716L60.8247 73.9462L60.0652 73.9659ZM60.4482 74.4613H61.1665V73.7016H60.4482V74.4613ZM61.5464 74.0814V73.9088H60.7866V74.0814H61.5464ZM61.1665 73.5289H60.73V74.2887H61.1665V73.5289Z" fill="url(#paint6_linear_10258_9471)" mask="url(#path-14-inside-2_10258_9471)"></path>
  <rect x="13.1602" y="45.2754" width="36.6969" height="49.2276" fill="url(#paint7_linear_10258_9471)"></rect>
  <path d="M48.8861 16.9495C49.6531 16.1826 49.6531 14.9044 48.8861 14.1768L44.2845 9.5752C43.5569 8.80827 42.2787 8.80827 41.5118 9.5752L37.8934 13.1739L45.2678 20.5482M14.0596 37.0274L14.0596 44.4018L21.4339 44.4018L43.1833 22.6327L35.809 15.2584L14.0596 37.0274Z" fill="url(#paint8_linear_10258_9471)"></path>
  <line opacity="0.8" x1="11.3691" y1="33.4209" x2="100.874" y2="33.4209" stroke="url(#paint9_linear_10258_9471)" stroke-width="0.439467"></line>
  <defs>
    <linearGradient id="paint0_linear_10258_9471" x1="14.9217" y1="20.2168" x2="56.0722" y2="120.404" gradientUnits="userSpaceOnUse">
      <stop stop-color="#FF8800" stop-opacity="0.06"></stop>
      <stop offset="1" stop-color="#E63535"></stop>
    </linearGradient>
    <linearGradient id="paint1_linear_10258_9471" x1="52.7531" y1="76.1266" x2="79.8386" y2="131.902" gradientUnits="userSpaceOnUse">
      <stop offset="0.000656016" stop-color="#FEBF85" stop-opacity="0.06"></stop>
      <stop offset="1" stop-color="#FEDF6E"></stop>
    </linearGradient>
    <linearGradient id="paint2_linear_10258_9471" x1="58.4453" y1="53.271" x2="57.8487" y2="76.9377" gradientUnits="userSpaceOnUse">
      <stop stop-color="#FFBF75" stop-opacity="0.06"></stop>
      <stop offset="1" stop-color="#FEE39C"></stop>
    </linearGradient>
    <linearGradient id="paint3_linear_10258_9471" x1="58.4453" y1="39.8335" x2="57.8487" y2="63.5002" gradientUnits="userSpaceOnUse">
      <stop stop-color="#FFBF75" stop-opacity="0.06"></stop>
      <stop offset="1" stop-color="#FEE39C"></stop>
    </linearGradient>
    <linearGradient id="paint4_linear_10258_9471" x1="58.1121" y1="72.0971" x2="59.8051" y2="77.6302" gradientUnits="userSpaceOnUse">
      <stop stop-color="#FDF8EC" stop-opacity="0.06"></stop>
      <stop offset="1" stop-color="#FED5B0"></stop>
    </linearGradient>
    <linearGradient id="paint5_linear_10258_9471" x1="65.3415" y1="72.7078" x2="66.2844" y2="74.1583" gradientUnits="userSpaceOnUse">
      <stop stop-color="#FDF8EC" stop-opacity="0.06"></stop>
      <stop offset="1" stop-color="#FED5B0"></stop>
    </linearGradient>
    <linearGradient id="paint6_linear_10258_9471" x1="60.3582" y1="72.4451" x2="61.5826" y2="73.1962" gradientUnits="userSpaceOnUse">
      <stop stop-color="#FDF8EC" stop-opacity="0.06"></stop>
      <stop offset="1" stop-color="#FED5B0"></stop>
    </linearGradient>
    <linearGradient id="paint7_linear_10258_9471" x1="4.70449" y1="45.2754" x2="64.3012" y2="108.867" gradientUnits="userSpaceOnUse">
      <stop stop-color="#FFBF75" stop-opacity="0.06"></stop>
      <stop offset="1" stop-color="#FEE39C"></stop>
    </linearGradient>
    <linearGradient id="paint8_linear_10258_9471" x1="2.62449" y1="20.4351" x2="43.7383" y2="48.19" gradientUnits="userSpaceOnUse">
      <stop stop-color="#FF8800" stop-opacity="0.06"></stop>
      <stop offset="1" stop-color="#E63535"></stop>
    </linearGradient>
    <linearGradient id="paint9_linear_10258_9471" x1="-17.5417" y1="33.9636" x2="-17.5002" y2="36.4673" gradientUnits="userSpaceOnUse">
      <stop stop-color="#FF8800" stop-opacity="0.06"></stop>
      <stop offset="1" stop-color="#E63535"></stop>
    </linearGradient>
  </defs>
</svg>
