<?xml version="1.0" encoding="UTF-8"?>
<svg xmlns="http://www.w3.org/2000/svg" width="112" height="112" viewBox="0 0 112 112" fill="none">
  <circle cx="66.2463" cy="11.7825" r="2.23558" fill="#FEF8EA"></circle>
  <rect x="35.5215" y="3" width="61.4783" height="92.2175" rx="4" fill="url(#paint0_linear_10258_9471)"></rect>
  <circle cx="66.261" cy="11.9739" r="2.23558" fill="#FEF8EA"></circle>
  <path d="M35.5215 90.6934V103.548C35.5215 106.017 37.5233 108.019 39.9926 108.019H92.5287C94.998 108.019 96.9998 106.017 96.9998 103.548V90.6934C96.9998 93.1625 94.998 95.1645 92.5287 95.1645H39.9926C37.5233 95.1645 35.5215 93.1625 35.5215 90.6934Z" fill="url(#paint1_linear_10258_9471)"></path>
  <path d="M64.3994 79.5918H90.7785V87.7756H85.1714H80.5696H64.3994V79.5918Z" fill="url(#paint2_linear_10258_9471)"></path>
  <ellipse cx="0.577335" cy="0.557148" rx="0.577335" ry="0.557148" transform="matrix(1 0 0 -1 79.2744 84.2402)" fill="#FEF8EA"></ellipse>
  <ellipse cx="0.577335" cy="0.557148" rx="0.577335" ry="0.557148" transform="matrix(1 0 0 -1 77.0117 84.2402)" fill="#FEF8EA"></ellipse>
  <ellipse cx="0.577335" cy="0.557148" rx="0.577335" ry="0.557148" transform="matrix(1 0 0 -1 74.75 84.2402)" fill="#FEF8EA"></ellipse>
  <path fill-rule="evenodd" clip-rule="evenodd" d="M64.3994 64.7344H90.7785V66.1467H64.3994V64.7344ZM64.3996 67.7095H82.133V68.5025H64.3996V67.7095ZM82.133 70.0651H64.3996V70.8581H82.133V70.0651Z" fill="url(#paint3_linear_10258_9471)"></path>
  <rect x="64.599" y="72.2641" width="6.39339" height="2.01256" stroke="url(#paint4_linear_10258_9471)" stroke-width="0.2"></rect>
  <mask id="path-11-inside-1_10258_9471" fill="white">
    <path d="M69.2891 73.046L69.6445 73.4015L69.755 73.291L69.3995 72.9355L69.2891 73.046Z"></path>
    <path d="M70.1036 72.9426L69.6445 73.4015L69.755 73.5121L70.214 73.053L70.1036 72.9426Z"></path>
  </mask>
  <path d="M69.2891 73.046L69.1476 72.9046L69.0062 73.046L69.1476 73.1874L69.2891 73.046ZM69.755 73.291L69.8964 73.4324L70.0378 73.291L69.8964 73.1496L69.755 73.291ZM69.3995 72.9355L69.5409 72.7941L69.3995 72.6527L69.2581 72.7941L69.3995 72.9355ZM70.1036 72.9426L70.245 72.8011L70.1036 72.6597L69.9622 72.8011L70.1036 72.9426ZM69.755 73.5121L69.6135 73.6534L69.7549 73.795L69.8964 73.6535L69.755 73.5121ZM70.214 73.053L70.3555 73.1944L70.4969 73.053L70.3555 72.9116L70.214 73.053ZM69.786 73.2601L69.4305 72.9046L69.1476 73.1874L69.5031 73.5429L69.786 73.2601ZM69.6136 73.1496L69.5031 73.2601L69.786 73.5429L69.8964 73.4324L69.6136 73.1496ZM69.2581 73.077L69.6136 73.4324L69.8964 73.1496L69.5409 72.7941L69.2581 73.077ZM69.4305 73.1874L69.5409 73.077L69.2581 72.7941L69.1476 72.9046L69.4305 73.1874ZM69.7859 73.5429L70.245 73.084L69.9622 72.8011L69.5031 73.26L69.7859 73.5429ZM69.8965 73.3707L69.786 73.2601L69.503 73.5428L69.6135 73.6534L69.8965 73.3707ZM70.0726 72.9116L69.6136 73.3706L69.8964 73.6535L70.3555 73.1944L70.0726 72.9116ZM69.9622 73.084L70.0726 73.1944L70.3555 72.9116L70.245 72.8011L69.9622 73.084Z" fill="url(#paint5_linear_10258_9471)" mask="url(#path-11-inside-1_10258_9471)"></path>
  <mask id="path-13-inside-2_10258_9471" fill="white">
    <path d="M66.0501 73.4901V73.489L66.2127 73.3198C66.3089 73.2203 66.3388 73.1473 66.3388 73.0632C66.3388 72.9239 66.226 72.8398 66.101 72.8398C65.9771 72.8398 65.8986 72.9018 65.8555 72.9836L65.9473 73.0489C65.9815 72.9891 66.0313 72.9593 66.0921 72.9593C66.1607 72.9593 66.2083 73.0102 66.2083 73.0776C66.2083 73.1429 66.1629 73.1993 66.101 73.2645L65.8566 73.5222L65.8588 73.6074H66.3465V73.4901H66.0501Z"></path>
  </mask>
  <path d="M66.0501 73.4901H65.8501V73.6901H66.0501V73.4901ZM66.0501 73.489L65.9059 73.3505L65.8501 73.4085V73.489H66.0501ZM66.2127 73.3198L66.0689 73.1808L66.0685 73.1813L66.2127 73.3198ZM65.8555 72.9836L65.6785 72.8904L65.5969 73.0452L65.7396 73.1466L65.8555 72.9836ZM65.9473 73.0489L65.8314 73.2119L66.011 73.3396L66.1207 73.1484L65.9473 73.0489ZM66.101 73.2645L65.9559 73.1268L65.9559 73.1269L66.101 73.2645ZM65.8566 73.5222L65.7115 73.3846L65.6545 73.4446L65.6566 73.5274L65.8566 73.5222ZM65.8588 73.6074L65.6589 73.6126L65.6639 73.8074H65.8588V73.6074ZM66.3465 73.6074V73.8074H66.5465V73.6074H66.3465ZM66.3465 73.4901H66.5465V73.2901H66.3465V73.4901ZM66.2501 73.4901V73.489H65.8501V73.4901H66.2501ZM66.1943 73.6276L66.3569 73.4584L66.0685 73.1813L65.9059 73.3505L66.1943 73.6276ZM66.3565 73.4588C66.4764 73.3348 66.5388 73.2146 66.5388 73.0632H66.1388C66.1388 73.0788 66.1366 73.0884 66.131 73.1002C66.124 73.115 66.108 73.1404 66.0689 73.1808L66.3565 73.4588ZM66.5388 73.0632C66.5388 72.7896 66.3109 72.6398 66.101 72.6398V73.0398C66.1199 73.0398 66.1311 73.0463 66.1349 73.0497C66.1365 73.0511 66.1369 73.052 66.1372 73.0525C66.1374 73.0529 66.1388 73.0559 66.1388 73.0632H66.5388ZM66.101 72.6398C65.896 72.6398 65.7529 72.7493 65.6785 72.8904L66.0324 73.0769C66.0403 73.0619 66.0484 73.0542 66.0551 73.0499C66.061 73.0462 66.0738 73.0398 66.101 73.0398V72.6398ZM65.7396 73.1466L65.8314 73.2119L66.0631 72.8859L65.9713 72.8206L65.7396 73.1466ZM66.1207 73.1484C66.1241 73.1425 66.1232 73.1467 66.1143 73.1521C66.1102 73.1547 66.1056 73.1567 66.101 73.1579C66.0966 73.1591 66.0934 73.1593 66.0921 73.1593V72.7593C65.952 72.7593 65.8397 72.8344 65.7738 72.9493L66.1207 73.1484ZM66.0921 73.1593C66.075 73.1593 66.0512 73.1519 66.0322 73.1322C66.0137 73.1131 66.0083 73.0916 66.0083 73.0776H66.4083C66.4083 72.906 66.2774 72.7593 66.0921 72.7593V73.1593ZM66.0083 73.0776C66.0083 73.0611 66.0147 73.0548 66.0084 73.0648C66.0052 73.07 65.9996 73.0777 65.9905 73.0886C65.9814 73.0995 65.9701 73.1119 65.9559 73.1268L66.246 73.4022C66.2997 73.3457 66.4083 73.234 66.4083 73.0776H66.0083ZM65.9559 73.1269L65.7115 73.3846L66.0017 73.6598L66.2461 73.4022L65.9559 73.1269ZM65.6566 73.5274L65.6589 73.6126L66.0587 73.6022L66.0565 73.517L65.6566 73.5274ZM65.8588 73.8074H66.3465V73.4074H65.8588V73.8074ZM66.5465 73.6074V73.4901H66.1465V73.6074H66.5465ZM66.3465 73.2901H66.0501V73.6901H66.3465V73.2901Z" fill="url(#paint6_linear_10258_9471)" mask="url(#path-13-inside-2_10258_9471)"></path>
  <rect x="64.4961" y="35.9102" width="26.2827" height="17.9555" fill="url(#paint7_linear_10258_9471)"></rect>
  <path d="M64.4954 22.7766C64.4954 22.307 64.3055 21.8566 63.9673 21.5245C63.6292 21.1924 63.1706 21.0059 62.6924 21.0059H61.1129C58.4912 21.0059 56.9839 22.681 56.1112 24.3525C55.5162 25.4964 55.0871 26.8917 54.7301 28.1029H17.6051C17.0479 28.1031 16.4983 28.2301 15.9995 28.4739C15.5006 28.7177 15.0661 29.0717 14.73 29.5082C14.3939 29.9446 14.1653 30.4516 14.0623 30.9894C13.9592 31.5272 13.9845 32.0811 14.136 32.6076L19.5308 51.2888C19.9599 52.7709 20.8695 54.0752 22.1216 55.0038C23.3736 55.9324 24.8999 56.4347 26.4689 56.4345H44.7844C46.3665 56.4351 47.9049 55.9247 49.1625 54.982C50.4202 54.0394 51.3273 52.7168 51.7442 51.218L54.0593 42.8779C54.0726 42.8405 54.0846 42.8027 54.0954 42.7645L57.8133 30.3801L58.1739 29.1866C58.5345 27.9613 58.8518 26.8776 59.3279 25.9674C59.9012 24.8696 60.4277 24.5509 61.1165 24.5509H62.696C63.1742 24.5509 63.6328 24.3643 63.9709 24.0322C64.3091 23.7001 64.499 23.2498 64.499 22.7801L64.4954 22.7766Z" fill="url(#paint8_linear_10258_9471)"></path>
  <circle cx="19.2294" cy="36.5819" r="0.876868" fill="#FEF8EA"></circle>
  <circle cx="22.0937" cy="36.5819" r="0.876868" fill="#FEF8EA"></circle>
  <circle cx="24.9569" cy="36.5819" r="0.876868" fill="#FEF8EA"></circle>
  <path fill-rule="evenodd" clip-rule="evenodd" d="M29.2922 67.9074C28.301 67.9074 27.3503 67.5207 26.6494 66.8324C25.9485 66.144 25.5547 65.2104 25.5547 64.2369C25.5547 63.2634 25.9485 62.3298 26.6494 61.6415C27.3503 60.9531 28.301 60.5664 29.2922 60.5664C30.2835 60.5664 31.2341 60.9531 31.9351 61.6415C32.636 62.3298 33.0298 63.2634 33.0298 64.2369C33.0298 65.2104 32.636 66.144 31.9351 66.8324C31.2341 67.5207 30.2835 67.9074 29.2922 67.9074ZM41.7507 67.9074C40.7594 67.9074 39.8088 67.5207 39.1079 66.8324C38.4069 66.144 38.0132 65.2104 38.0132 64.2369C38.0132 63.2634 38.4069 62.3298 39.1079 61.6415C39.8088 60.9531 40.7594 60.5664 41.7507 60.5664C42.742 60.5664 43.6926 60.9531 44.3935 61.6415C45.0945 62.3298 45.4882 63.2634 45.4882 64.2369C45.4882 65.2104 45.0945 66.144 44.3935 66.8324C43.6926 67.5207 42.742 67.9074 41.7507 67.9074Z" fill="url(#paint9_linear_10258_9471)"></path>
  <defs>
    <linearGradient id="paint0_linear_10258_9471" x1="40.993" y1="3" x2="103.067" y2="86.6604" gradientUnits="userSpaceOnUse">
      <stop stop-color="#FF8800" stop-opacity="0.06"></stop>
      <stop offset="1" stop-color="#E63535"></stop>
    </linearGradient>
    <linearGradient id="paint1_linear_10258_9471" x1="35.5215" y1="94.2473" x2="48.8876" y2="133.908" gradientUnits="userSpaceOnUse">
      <stop stop-color="#FF8800" stop-opacity="0.06"></stop>
      <stop offset="1" stop-color="#E63535"></stop>
    </linearGradient>
    <linearGradient id="paint2_linear_10258_9471" x1="60.5341" y1="77.7101" x2="73.5187" y2="110.618" gradientUnits="userSpaceOnUse">
      <stop offset="0.000656016" stop-color="#FEBF85" stop-opacity="0.06"></stop>
      <stop offset="1" stop-color="#FEDF6E"></stop>
    </linearGradient>
    <linearGradient id="paint3_linear_10258_9471" x1="64.3994" y1="60.5855" x2="63.9943" y2="76.6562" gradientUnits="userSpaceOnUse">
      <stop stop-color="#FFBF75" stop-opacity="0.06"></stop>
      <stop offset="1" stop-color="#FEE39C"></stop>
    </linearGradient>
    <linearGradient id="paint4_linear_10258_9471" x1="64.2728" y1="72.2605" x2="65.4224" y2="76.0178" gradientUnits="userSpaceOnUse">
      <stop stop-color="#FDF8EC" stop-opacity="0.06"></stop>
      <stop offset="1" stop-color="#FED5B0"></stop>
    </linearGradient>
    <linearGradient id="paint5_linear_10258_9471" x1="69.1801" y1="72.6774" x2="69.8204" y2="73.6624" gradientUnits="userSpaceOnUse">
      <stop stop-color="#FDF8EC" stop-opacity="0.06"></stop>
      <stop offset="1" stop-color="#FED5B0"></stop>
    </linearGradient>
    <linearGradient id="paint6_linear_10258_9471" x1="65.7976" y1="72.4962" x2="66.629" y2="73.0062" gradientUnits="userSpaceOnUse">
      <stop stop-color="#FDF8EC" stop-opacity="0.06"></stop>
      <stop offset="1" stop-color="#FED5B0"></stop>
    </linearGradient>
    <linearGradient id="paint7_linear_10258_9471" x1="58.4401" y1="35.9102" x2="75.3757" y2="71.3939" gradientUnits="userSpaceOnUse">
      <stop stop-color="#FFBF75" stop-opacity="0.06"></stop>
      <stop offset="1" stop-color="#FEE39C"></stop>
    </linearGradient>
    <linearGradient id="paint8_linear_10258_9471" x1="16.0262" y1="18.5935" x2="57.3777" y2="46.2846" gradientUnits="userSpaceOnUse">
      <stop stop-color="#FF8800" stop-opacity="0.06"></stop>
      <stop offset="1" stop-color="#E63535"></stop>
    </linearGradient>
    <linearGradient id="paint9_linear_10258_9471" x1="25.5547" y1="54.2582" x2="38.1437" y2="73.5868" gradientUnits="userSpaceOnUse">
      <stop stop-color="#FF8800" stop-opacity="0.06"></stop>
      <stop offset="1" stop-color="#E63535"></stop>
    </linearGradient>
  </defs>
</svg>
