<?xml version="1.0" encoding="UTF-8"?>
<svg xmlns="http://www.w3.org/2000/svg" width="112" height="112" viewBox="0 0 112 112" fill="none">
  <rect x="4" y="31.5762" width="104.81" height="60.2989" rx="1.615" fill="url(#paint0_linear_10258_9471)"></rect>
  <path fill-rule="evenodd" clip-rule="evenodd" d="M46.3963 94.7246H4V101.548C4 103.06 5.22562 104.285 6.73749 104.285H106.072C107.584 104.285 108.81 103.06 108.81 101.548V94.7246H66.4141V94.8957C66.4141 96.4076 65.1885 97.6332 63.6767 97.6332H49.1338C47.6219 97.6332 46.3963 96.4076 46.3963 94.8957V94.7246Z" fill="url(#paint1_linear_10258_9471)"></path>
  <path d="M27.9986 59.0527L30.8571 59.6361L25.4026 85.3042L22.5441 84.7209L27.9986 59.0527ZM37.77 72.1785L32.5343 66.9428V62.8155L41.8973 72.1785L32.5343 81.5269V77.3996L37.77 72.1785ZM11.5039 72.1785L20.8669 62.8155V66.9428L15.6312 72.1785L20.8669 77.3996V81.5269L11.5039 72.1785Z" fill="url(#paint2_linear_10258_9471)"></path>
  <path fill-rule="evenodd" clip-rule="evenodd" d="M70.7065 7C69.7594 7 68.9698 7.67402 68.7912 8.56853L68.7894 8.56875C67.7778 12.7474 64.0132 15.8509 59.5238 15.8509C57.7854 15.8509 56.1557 15.3856 54.7525 14.5727C53.9852 13.936 52.8449 13.9772 52.1258 14.6962L49.5938 17.2282C48.9237 17.8984 48.8423 18.9344 49.3498 19.6934L49.3448 19.6999C51.5618 23.3508 51.074 28.1964 47.8938 31.3766C46.6397 32.6306 45.1267 33.466 43.5301 33.882C42.6039 34.0349 41.8975 34.8395 41.8975 35.809V39.3898C41.8975 40.337 42.5717 41.1267 43.4664 41.3051L43.4721 41.3501C47.6098 42.3904 50.6732 46.1354 50.6732 50.5959C50.6732 52.3804 50.1829 54.0504 49.3295 55.4785L49.35 55.505C48.8423 56.264 48.9236 57.3002 49.5939 57.9705L52.1258 60.5025C52.8214 61.198 53.9111 61.2593 54.6761 60.6863C58.3437 58.5706 63.1226 59.09 66.2713 62.2389C67.5321 63.4997 68.3713 65.0218 68.7886 66.6293L68.791 66.6296C68.9694 67.5244 69.7592 68.1988 70.7065 68.1988H74.2872C75.2677 68.1988 76.0794 67.4763 76.2191 66.5347C77.4391 62.4999 81.2086 59.5603 85.6697 59.5603C87.3808 59.5603 88.9902 59.9927 90.3929 60.7536L90.4025 60.7462C91.1615 61.2538 92.1977 61.1725 92.8679 60.5023L95.3999 57.9703C96.0701 57.3001 96.1514 56.264 95.6438 55.505L95.651 55.4957C93.5989 51.7755 94.1629 46.988 97.335 43.8158C98.546 42.6049 99.9924 41.774 101.525 41.3237L101.527 41.3051C102.422 41.1266 103.096 40.3369 103.096 39.3898V35.809C103.096 34.8619 102.422 34.0722 101.527 33.8937L101.525 33.8756C97.369 32.8483 94.2874 29.0944 94.2874 24.6206C94.2874 22.8217 94.7857 21.1392 95.6519 19.7035L95.644 19.6934C96.1514 18.9345 96.07 17.8985 95.3999 17.2284L92.8679 14.6964C92.1497 13.9782 91.0114 13.9363 90.2441 14.5705C86.5825 16.7695 81.8092 16.3309 78.7065 13.2282C77.4328 11.9545 76.6081 10.3992 76.2304 8.75482C76.1311 7.76928 75.299 7 74.2872 7H70.7065ZM72.4969 52.7423C80.8602 52.7423 87.64 45.9625 87.64 37.5992C87.64 29.2359 80.8602 22.4561 72.4969 22.4561C64.1336 22.4561 57.3538 29.2359 57.3538 37.5992C57.3538 45.9625 64.1336 52.7423 72.4969 52.7423Z" fill="url(#paint3_linear_10258_9471)"></path>
  <path fill-rule="evenodd" clip-rule="evenodd" d="M72.4973 55.3579C82.3042 55.3579 90.2543 47.4078 90.2543 37.6008C90.2543 27.7939 82.3042 19.8438 72.4973 19.8438C62.6903 19.8438 54.7402 27.7939 54.7402 37.6008C54.7402 47.4078 62.6903 55.3579 72.4973 55.3579ZM72.498 52.7446C80.8613 52.7446 87.6411 45.9648 87.6411 37.6015C87.6411 29.2382 80.8613 22.4584 72.498 22.4584C64.1347 22.4584 57.3549 29.2382 57.3549 37.6015C57.3549 45.9648 64.1347 52.7446 72.498 52.7446Z" fill="url(#paint4_linear_10258_9471)"></path>
  <defs>
    <linearGradient id="paint0_linear_10258_9471" x1="13.3279" y1="31.5762" x2="35.6577" y2="110.041" gradientUnits="userSpaceOnUse">
      <stop stop-color="#FF8800" stop-opacity="0.06"></stop>
      <stop offset="1" stop-color="#E63535"></stop>
    </linearGradient>
    <linearGradient id="paint1_linear_10258_9471" x1="-29.8545" y1="97.8128" x2="-26.6772" y2="121.327" gradientUnits="userSpaceOnUse">
      <stop stop-color="#FF8800" stop-opacity="0.06"></stop>
      <stop offset="1" stop-color="#E63535"></stop>
    </linearGradient>
    <linearGradient id="paint2_linear_10258_9471" x1="8.84399" y1="60.7351" x2="29.8476" y2="88.2554" gradientUnits="userSpaceOnUse">
      <stop stop-color="#FF8800" stop-opacity="0.23"></stop>
      <stop offset="1" stop-color="#E63535"></stop>
    </linearGradient>
    <linearGradient id="paint3_linear_10258_9471" x1="22.1297" y1="26.7677" x2="93.2029" y2="74.7475" gradientUnits="userSpaceOnUse">
      <stop stop-color="#FF8800" stop-opacity="0.06"></stop>
      <stop offset="1" stop-color="#E63535"></stop>
    </linearGradient>
    <linearGradient id="paint4_linear_10258_9471" x1="43.2689" y1="31.3151" x2="84.5132" y2="59.1582" gradientUnits="userSpaceOnUse">
      <stop stop-color="#FF8800" stop-opacity="0.06"></stop>
      <stop offset="1" stop-color="#E63535"></stop>
    </linearGradient>
  </defs>
</svg>
