<?xml version="1.0" encoding="UTF-8"?>
<svg xmlns="http://www.w3.org/2000/svg" width="112" height="112" viewBox="0 0 112 112" fill="none">
  <circle cx="47.0597" cy="98.4581" r="2.31162" fill="url(#paint0_linear_10258_9471)"></circle>
  <circle cx="55.586" cy="98.4581" r="2.31162" fill="url(#paint1_linear_10258_9471)"></circle>
  <circle cx="64.1105" cy="98.4581" r="2.31162" fill="url(#paint2_linear_10258_9471)"></circle>
  <circle cx="23.0262" cy="70.2743" r="18.1024" fill="url(#paint3_linear_10258_9471)"></circle>
  <circle cx="57.0783" cy="46.2638" r="31.1583" fill="url(#paint4_linear_10258_9471)"></circle>
  <circle cx="82.1689" cy="64.4961" r="23.8789" fill="url(#paint5_linear_10258_9471)"></circle>
  <path d="M53.7331 90.6674H23.2834C22.9695 90.6674 22.6556 90.6674 22.3416 90.6674C22.0277 90.6674 21.7766 90.6674 21.4627 90.6674H21.3371C10.4757 90.1651 2 81.2499 2 70.3885C2 59.1504 11.1035 50.0469 22.3416 50.0469C22.8439 50.0469 23.3462 50.0469 23.7856 50.1097" stroke="url(#paint6_linear_10258_9471)" stroke-width="1.67343" stroke-miterlimit="10"></path>
  <path d="M90.2734 39.2461C101.449 42.5108 109.171 52.6816 109.171 64.422C109.171 78.0459 98.9374 89.1584 85.6275 90.5397V90.6652H83.8068H83.744C83.4929 90.6652 83.2417 90.6652 82.9906 90.6652C82.865 90.6652 82.6767 90.6652 82.5511 90.6652H82.3628H53.8594" stroke="url(#paint7_linear_10258_9471)" stroke-width="1.67343" stroke-miterlimit="10"></path>
  <path d="M23.7863 50.0464C23.5979 48.6024 23.5352 47.1584 23.5352 45.7144C23.5352 27.1307 38.6658 12 57.2495 12C73.5103 12 87.1969 23.3637 90.3361 39.185" stroke="url(#paint8_linear_10258_9471)" stroke-width="1.67343" stroke-miterlimit="10"></path>
  <defs>
    <linearGradient id="paint0_linear_10258_9471" x1="43.2547" y1="97.6398" x2="48.6239" y2="101.264" gradientUnits="userSpaceOnUse">
      <stop stop-color="#FF8800" stop-opacity="0.06"></stop>
      <stop offset="1" stop-color="#E63535"></stop>
    </linearGradient>
    <linearGradient id="paint1_linear_10258_9471" x1="51.7811" y1="97.6398" x2="57.1503" y2="101.264" gradientUnits="userSpaceOnUse">
      <stop stop-color="#FF8800" stop-opacity="0.06"></stop>
      <stop offset="1" stop-color="#E63535"></stop>
    </linearGradient>
    <linearGradient id="paint2_linear_10258_9471" x1="60.3055" y1="97.6398" x2="65.6747" y2="101.264" gradientUnits="userSpaceOnUse">
      <stop stop-color="#FF8800" stop-opacity="0.06"></stop>
      <stop offset="1" stop-color="#E63535"></stop>
    </linearGradient>
    <linearGradient id="paint3_linear_10258_9471" x1="32.4502" y1="80.6241" x2="8.83844" y2="54.2798" gradientUnits="userSpaceOnUse">
      <stop stop-color="#FF8800" stop-opacity="0.06"></stop>
      <stop offset="1" stop-color="#E63535"></stop>
    </linearGradient>
    <linearGradient id="paint4_linear_10258_9471" x1="57.0783" y1="93.7571" x2="67.7691" y2="24.6202" gradientUnits="userSpaceOnUse">
      <stop offset="0.303527" stop-color="#FF8800" stop-opacity="0.06"></stop>
      <stop offset="1" stop-color="#E65F35"></stop>
    </linearGradient>
    <linearGradient id="paint5_linear_10258_9471" x1="71.2882" y1="64.4961" x2="105.486" y2="83.8168" gradientUnits="userSpaceOnUse">
      <stop stop-color="#FF8800" stop-opacity="0.06"></stop>
      <stop offset="1" stop-color="#E63535"></stop>
    </linearGradient>
    <linearGradient id="paint6_linear_10258_9471" x1="-4.24497" y1="70.3571" x2="44.3441" y2="111.083" gradientUnits="userSpaceOnUse">
      <stop stop-color="#FF8800" stop-opacity="0.06"></stop>
      <stop offset="1" stop-color="#E63535"></stop>
    </linearGradient>
    <linearGradient id="paint7_linear_10258_9471" x1="81.5152" y1="84.2376" x2="116.977" y2="51.6819" gradientUnits="userSpaceOnUse">
      <stop stop-color="#FF8800" stop-opacity="0.06"></stop>
      <stop offset="1" stop-color="#E63535"></stop>
    </linearGradient>
    <linearGradient id="paint8_linear_10258_9471" x1="79.1785" y1="31.0231" x2="21.9484" y2="16.3729" gradientUnits="userSpaceOnUse">
      <stop stop-color="#FF8800" stop-opacity="0.06"></stop>
      <stop offset="1" stop-color="#E63535"></stop>
    </linearGradient>
  </defs>
</svg>
