<?xml version="1.0" encoding="UTF-8"?>
<svg xmlns="http://www.w3.org/2000/svg" width="664" height="519" viewBox="0 0 664 519" fill="none">
  <path d="M38.6138 517.221H662.614" stroke="#263238" stroke-width="1.50885" stroke-linecap="round" stroke-linejoin="round"></path>
  <g opacity="0.28">
    <path d="M78.9336 409.9C84.6016 414.623 82.7123 442.396 100.434 430.446C118.157 418.496 87.9647 411.421 89.684 404.647C92.1024 395.2 131.977 406.537 125.289 388.399C118.601 370.261 94.7569 397.543 88.4937 390.789C82.7312 384.573 111.43 362.108 98.0538 358.292C84.6772 354.475 87.5207 386.963 78.9336 386.963C72.2264 386.963 73.4828 355.902 61.1548 366.888C48.8268 377.875 75.7689 388.71 72.2453 395.531C69.5624 400.717 48.3544 387.917 49.3086 399.867C50.2627 411.817 72.8877 404.902 78.9336 409.9Z" fill="#64D09C"></path>
    <path d="M82.712 395.691C82.712 395.691 69.8266 411.307 71.2626 453.865" stroke="#263238" stroke-width="0.944675" stroke-linecap="round" stroke-linejoin="round"></path>
    <path d="M107.868 417.825C105.582 413.225 86.6225 410.079 97.4768 400.094C108.331 390.109 108.293 411.515 113.121 411.43C119.875 411.317 118.562 382.693 129.709 390.08C140.856 397.468 118.694 409.153 122.246 414.434C125.505 419.299 145.173 403.58 145.617 413.187C146.061 422.794 124.665 415.681 123.295 421.472C122.227 425.978 143.312 430.078 133.96 436.587C124.608 443.096 121.613 423.295 116.474 424.58C112.554 425.525 117.787 441.858 109.909 439.307C102.03 436.757 110.268 422.643 107.868 417.825Z" fill="#64D09C"></path>
    <path opacity="0.3" d="M107.868 417.825C105.582 413.225 86.6225 410.079 97.4768 400.094C108.331 390.109 108.293 411.515 113.121 411.43C119.875 411.317 118.562 382.693 129.709 390.08C140.856 397.468 118.694 409.153 122.246 414.434C125.505 419.299 145.173 403.58 145.617 413.187C146.061 422.794 124.665 415.681 123.295 421.472C122.227 425.978 143.312 430.078 133.96 436.587C124.608 443.096 121.613 423.295 116.474 424.58C112.554 425.525 117.787 441.858 109.909 439.307C102.03 436.757 110.268 422.643 107.868 417.825Z" fill="black"></path>
    <path d="M117.665 418.024C117.665 418.024 80.9454 414.198 77.3179 453.865" stroke="#263238" stroke-width="0.944675" stroke-linecap="round" stroke-linejoin="round"></path>
    <path d="M47.6077 413.726C41.9396 418.449 43.829 446.222 26.1069 434.272C8.38475 422.322 38.586 415.237 36.8573 408.473C34.4483 399.026 -5.43585 410.363 1.26189 392.225C7.95964 374.087 31.7844 401.379 38.1042 394.615C43.8573 388.408 15.1675 365.944 28.5441 362.118C41.9207 358.292 39.0395 390.798 47.6549 390.798C54.3621 390.798 53.1151 359.728 65.4431 370.724C77.7712 381.72 50.8196 392.546 54.3527 399.367C57.0261 404.553 78.2435 391.752 77.2894 403.693C76.3353 415.634 53.6252 408.728 47.6077 413.726Z" fill="#64D09C"></path>
    <path opacity="0.3" d="M47.6077 413.726C41.9396 418.449 43.829 446.222 26.1069 434.272C8.38475 422.322 38.586 415.237 36.8573 408.473C34.4483 399.026 -5.43585 410.363 1.26189 392.225C7.95964 374.087 31.7844 401.379 38.1042 394.615C43.8573 388.408 15.1675 365.944 28.5441 362.118C41.9207 358.292 39.0395 390.798 47.6549 390.798C54.3621 390.798 53.1151 359.728 65.4431 370.724C77.7712 381.72 50.8196 392.546 54.3527 399.367C57.0261 404.553 78.2435 391.752 77.2894 403.693C76.3353 415.634 53.6252 408.728 47.6077 413.726Z" fill="white"></path>
    <path d="M43.5459 399.518C43.5459 399.518 60.2667 421.85 64.0926 459.117" stroke="#263238" stroke-width="0.944675" stroke-linecap="round" stroke-linejoin="round"></path>
    <path d="M55.515 517.432H81.588C84.0085 517.443 86.3439 516.54 88.1283 514.905C89.9126 513.269 91.0146 511.021 91.2143 508.609L95.3142 460.43C95.4211 459.107 95.2529 457.776 94.8201 456.521C94.3873 455.266 93.6993 454.114 92.7995 453.138C91.8997 452.161 90.8074 451.382 89.5916 450.849C88.3758 450.316 87.0628 450.04 85.7351 450.039H51.4151C50.0878 450.04 48.7751 450.315 47.5598 450.849C46.3444 451.382 45.2528 452.162 44.3537 453.138C43.4546 454.114 42.7675 455.266 42.3358 456.521C41.9042 457.777 41.7372 459.107 41.8455 460.43L45.9454 508.609C46.1422 511.012 47.2355 513.253 49.0083 514.888C50.7811 516.522 53.1037 517.431 55.515 517.432Z" fill="#92DEBA" stroke="#263238" stroke-width="0.944675" stroke-linecap="round" stroke-linejoin="round"></path>
  </g>
  <path d="M419.839 406.455C405.912 406.455 365.716 397.402 365.716 397.402H473.961C473.961 397.402 433.75 406.455 419.839 406.455Z" fill="#263238" stroke="#263238" stroke-width="1.50885" stroke-linecap="round" stroke-linejoin="round"></path>
  <path d="M432.242 401.914H407.436V418.919H432.242V401.914Z" fill="#858585" stroke="#263238" stroke-width="1.50885" stroke-linecap="round" stroke-linejoin="round"></path>
  <path d="M435.909 418.919H403.771V492.022H435.909V418.919Z" fill="#999999" stroke="#263238" stroke-width="1.50885" stroke-linecap="round" stroke-linejoin="round"></path>
  <path d="M480.208 375.69H459.25C461.574 361.295 463.294 346.629 464.35 332.099H485.233C484.237 346.629 482.532 361.295 480.208 375.69Z" fill="#858585" stroke="#263238" stroke-width="1.50885" stroke-linecap="round" stroke-linejoin="round"></path>
  <path d="M511.94 203.334H421.892C411.33 203.334 404.374 212.281 406.426 222.813C412.176 254.986 415.615 287.53 416.716 320.194C416.706 322.423 417.139 324.631 417.989 326.691C418.84 328.751 420.091 330.621 421.67 332.193C423.249 333.765 425.125 335.008 427.189 335.849C429.252 336.691 431.462 337.114 433.691 337.094H509.495C514.207 337.046 518.746 335.318 522.296 332.219C525.845 329.121 528.171 324.856 528.854 320.194C532.509 287.871 533.83 255.326 532.807 222.813C532.309 212.281 522.517 203.334 511.94 203.334Z" fill="#858585" stroke="#263238" stroke-width="1.50885" stroke-linecap="round" stroke-linejoin="round"></path>
  <path d="M516.844 222.813C517.867 255.326 516.546 287.871 512.891 320.194C512.208 324.856 509.882 329.121 506.333 332.219C502.783 335.318 498.244 337.046 493.532 337.094H433.692C431.463 337.114 429.253 336.691 427.19 335.849C425.126 335.008 423.25 333.765 421.671 332.193C420.092 330.621 418.84 328.751 417.99 326.691C417.14 324.631 416.707 322.423 416.717 320.194C415.621 287.53 412.187 254.987 406.442 222.813C404.39 212.251 411.315 203.334 421.907 203.334H495.977C506.554 203.334 516.346 212.281 516.844 222.813Z" fill="#999999" stroke="#263238" stroke-width="1.50885" stroke-linecap="round" stroke-linejoin="round"></path>
  <path d="M473.961 505.15C473.961 505.551 473.872 505.948 473.698 506.31C473.525 506.672 473.273 506.991 472.96 507.243C472.648 507.495 472.282 507.673 471.892 507.765C471.501 507.857 471.094 507.861 470.702 507.775C460.849 505.632 431.351 499.416 419.839 499.416C408.326 499.416 378.813 505.632 368.96 507.775C368.569 507.861 368.163 507.858 367.773 507.766C367.383 507.674 367.018 507.495 366.707 507.243C366.395 506.99 366.144 506.671 365.973 506.309C365.802 505.947 365.714 505.55 365.716 505.15C365.715 503.537 366.267 501.972 367.28 500.717C368.294 499.462 369.707 498.593 371.284 498.254C382.812 495.78 409.111 490.393 419.839 490.393C430.567 490.393 456.866 495.78 468.394 498.254C469.969 498.595 471.381 499.465 472.394 500.72C473.407 501.974 473.96 503.537 473.961 505.15Z" fill="#263238" stroke="#263238" stroke-width="1.50885" stroke-linecap="round" stroke-linejoin="round"></path>
  <path d="M365.702 499.717C363.868 499.714 362.075 500.256 360.549 501.272C359.023 502.289 357.834 503.736 357.13 505.429C356.427 507.123 356.243 508.987 356.6 510.785C356.957 512.584 357.839 514.236 359.136 515.532C360.432 516.829 362.085 517.712 363.883 518.069C365.682 518.426 367.546 518.241 369.239 517.538C370.932 516.835 372.379 515.645 373.396 514.119C374.413 512.593 374.954 510.8 374.951 508.967C374.947 506.515 373.971 504.164 372.238 502.431C370.504 500.697 368.154 499.721 365.702 499.717ZM365.702 513.991C364.707 513.994 363.735 513.702 362.906 513.152C362.078 512.601 361.432 511.818 361.049 510.9C360.666 509.982 360.565 508.971 360.757 507.996C360.949 507.02 361.426 506.123 362.129 505.419C362.831 504.715 363.726 504.235 364.701 504.04C365.676 503.845 366.687 503.943 367.606 504.323C368.525 504.703 369.311 505.347 369.863 506.174C370.416 507 370.711 507.972 370.711 508.967C370.711 510.297 370.184 511.572 369.245 512.514C368.306 513.456 367.032 513.987 365.702 513.991Z" fill="#858585" stroke="#263238" stroke-width="1.50885" stroke-linecap="round" stroke-linejoin="round"></path>
  <path d="M419.84 499.717C418.003 499.711 416.206 500.252 414.677 501.269C413.148 502.287 411.956 503.736 411.252 505.433C410.548 507.13 410.365 508.997 410.725 510.798C411.086 512.6 411.973 514.253 413.275 515.549C414.577 516.844 416.235 517.724 418.038 518.075C419.84 518.426 421.707 518.234 423.4 517.522C425.094 516.81 426.537 515.611 427.547 514.077C428.557 512.543 429.089 510.743 429.074 508.906C429.054 506.467 428.073 504.135 426.345 502.415C424.616 500.694 422.278 499.725 419.84 499.717ZM419.84 513.991C418.848 513.994 417.877 513.703 417.05 513.156C416.224 512.608 415.577 511.828 415.193 510.914C414.809 509.999 414.704 508.992 414.891 508.018C415.078 507.044 415.55 506.147 416.246 505.44C416.942 504.734 417.831 504.249 418.802 504.047C419.773 503.845 420.782 503.935 421.702 504.306C422.622 504.677 423.412 505.311 423.972 506.13C424.532 506.948 424.837 507.914 424.849 508.906C424.857 509.57 424.733 510.228 424.485 510.844C424.237 511.46 423.87 512.02 423.404 512.493C422.938 512.966 422.384 513.341 421.772 513.599C421.16 513.856 420.503 513.989 419.84 513.991Z" fill="#858585" stroke="#263238" stroke-width="1.50885" stroke-linecap="round" stroke-linejoin="round"></path>
  <path d="M472.83 499.717C470.997 499.717 469.206 500.261 467.682 501.28C466.158 502.298 464.97 503.746 464.27 505.44C463.569 507.134 463.386 508.997 463.745 510.795C464.104 512.592 464.988 514.243 466.285 515.538C467.582 516.833 469.234 517.714 471.032 518.07C472.83 518.426 474.693 518.24 476.386 517.536C478.079 516.833 479.524 515.643 480.541 514.118C481.557 512.592 482.098 510.8 482.095 508.967C482.095 507.751 481.855 506.547 481.389 505.424C480.923 504.3 480.241 503.28 479.38 502.421C478.52 501.562 477.498 500.881 476.374 500.417C475.25 499.953 474.046 499.715 472.83 499.717ZM472.83 513.991C471.836 513.991 470.865 513.696 470.039 513.144C469.213 512.592 468.569 511.807 468.188 510.889C467.808 509.971 467.708 508.961 467.902 507.986C468.096 507.012 468.575 506.116 469.277 505.414C469.98 504.711 470.875 504.232 471.85 504.039C472.825 503.845 473.835 503.944 474.753 504.325C475.671 504.705 476.456 505.349 477.008 506.175C477.56 507.001 477.855 507.973 477.855 508.967C477.855 510.299 477.325 511.577 476.383 512.519C475.441 513.462 474.163 513.991 472.83 513.991Z" fill="#858585" stroke="#263238" stroke-width="1.50885" stroke-linecap="round" stroke-linejoin="round"></path>
  <path d="M447.27 372.763C411.144 373.909 374.984 372.31 339.101 367.98C337.444 367.681 335.742 367.755 334.118 368.197C332.494 368.638 330.989 369.437 329.713 370.534C328.436 371.631 327.421 372.999 326.74 374.539C326.059 376.078 325.73 377.749 325.777 379.432V381.197C325.865 384.904 327.244 388.464 329.676 391.263C332.109 394.062 335.442 395.924 339.101 396.527C374.985 400.85 411.144 402.449 447.27 401.31V372.763Z" fill="#999999" stroke="#263238" stroke-width="1.50885" stroke-linecap="round" stroke-linejoin="round"></path>
  <path d="M504.003 396.06C481.581 398.866 459.356 400.722 436.783 401.688C435.483 401.729 434.188 401.506 432.975 401.035C431.763 400.563 430.658 399.852 429.727 398.943C428.795 398.034 428.057 396.947 427.556 395.747C427.055 394.546 426.801 393.257 426.81 391.956V383.28C426.836 380.629 427.891 378.092 429.751 376.203C431.612 374.315 434.133 373.222 436.783 373.156C459.416 372.175 481.581 370.319 504.003 367.513C505.231 367.282 506.495 367.329 507.702 367.652C508.909 367.974 510.028 368.563 510.978 369.375C511.928 370.187 512.683 371.202 513.189 372.344C513.695 373.487 513.938 374.728 513.901 375.977V384.653C513.827 387.407 512.801 390.049 510.995 392.13C509.19 394.21 506.718 395.599 504.003 396.06Z" fill="#858585" stroke="#263238" stroke-width="1.50885" stroke-linecap="round" stroke-linejoin="round"></path>
  <path d="M353.887 513.433C353.887 508.393 352.786 498.344 346.841 485.293L339.101 457.379L314.959 467.685L321.749 489.065C321.749 489.065 301.002 498.963 293.337 501.634C288.237 503.414 272.968 506.915 273.722 513.463C273.722 513.925 273.813 514.382 273.99 514.808C274.167 515.235 274.426 515.623 274.752 515.949C275.078 516.275 275.466 516.534 275.893 516.711C276.319 516.888 276.776 516.979 277.238 516.979H350.357C350.822 516.981 351.284 516.89 351.714 516.713C352.144 516.535 352.535 516.274 352.863 515.944C353.192 515.614 353.451 515.222 353.627 514.791C353.803 514.36 353.891 513.898 353.887 513.433Z" fill="white" stroke="#263238" stroke-width="1.50885" stroke-linecap="round" stroke-linejoin="round"></path>
  <path d="M340.595 497.092C336.822 499.868 316.709 503.384 321.749 499.355C326.789 495.327 321.749 489.05 321.749 489.05C321.749 489.05 301.002 498.948 293.337 501.619C288.237 503.399 272.968 506.9 273.722 513.448C273.722 513.91 273.813 514.367 273.99 514.793C274.167 515.22 274.426 515.607 274.752 515.934C275.078 516.26 275.466 516.519 275.893 516.696C276.319 516.873 276.776 516.964 277.238 516.964H350.357C350.822 516.966 351.282 516.875 351.712 516.697C352.141 516.519 352.531 516.258 352.858 515.928C353.185 515.598 353.443 515.206 353.618 514.775C353.792 514.344 353.878 513.882 353.872 513.418C353.625 505.774 352.064 498.23 349.255 491.117C345.106 491.162 344.367 494.331 340.595 497.092Z" fill="#64D09C" stroke="#263238" stroke-width="1.50885" stroke-linecap="round" stroke-linejoin="round"></path>
  <path d="M371.345 516.964H424.909C425.445 516.963 425.963 516.776 426.376 516.434C426.789 516.093 427.071 515.619 427.172 515.093C427.987 510.838 427.806 501.317 422.978 488.673L422.495 463.022L395.064 467.685L398.534 489.563C398.534 489.563 387.489 501.724 382.239 503.897C378.557 505.406 370.168 505.587 369.051 514.459C369.022 514.777 369.059 515.098 369.161 515.402C369.263 515.705 369.427 515.983 369.643 516.219C369.859 516.455 370.122 516.643 370.415 516.771C370.708 516.899 371.025 516.965 371.345 516.964Z" fill="white" stroke="#263238" stroke-width="1.50885" stroke-linecap="round" stroke-linejoin="round"></path>
  <path d="M413.985 497.198C408.326 501.151 404.147 501.618 406.787 495.689C409.428 489.759 398.594 489.548 398.594 489.548C398.594 489.548 387.549 501.709 382.299 503.882C378.617 505.391 370.228 505.572 369.111 514.444C369.073 514.767 369.103 515.095 369.201 515.405C369.299 515.715 369.462 516.001 369.679 516.244C369.896 516.487 370.162 516.68 370.46 516.812C370.757 516.944 371.079 517.011 371.405 517.009H424.969C425.505 517.008 426.023 516.821 426.436 516.479C426.849 516.138 427.131 515.664 427.232 515.138C428.047 510.883 427.866 501.362 423.038 488.718C418.843 489.683 419.597 493.229 413.985 497.198Z" fill="#64D09C" stroke="#263238" stroke-width="1.50885" stroke-linecap="round" stroke-linejoin="round"></path>
  <path d="M366.018 321.07C366.018 321.07 360.616 326.592 338.542 330.123C316.467 333.654 270.644 344.698 271.202 362.805C271.76 380.911 313.963 477.477 313.963 477.477C313.963 477.477 335.087 473.464 344.894 467.428C344.894 467.428 327.889 398.519 315.14 380.413C315.14 380.413 372.37 373.366 404.026 360.3C435.682 347.233 417.062 317.448 417.062 317.448L366.018 321.07Z" fill="#263238" stroke="#263238" stroke-width="1.50885" stroke-linecap="round" stroke-linejoin="round"></path>
  <path d="M401.915 318.519C401.915 318.519 410.033 332.099 403.967 339.643C397.902 347.187 363.454 361.265 367.347 378.375C371.24 395.486 384.096 419.612 392.47 476.948C392.47 476.948 411.979 473.931 425.046 468.393C425.046 468.393 427.218 410.061 412.055 384.909C412.055 384.909 455.479 376.866 459.885 362.276C464.291 347.685 456.053 325.384 455.887 317.418L401.915 318.519Z" fill="#263238" stroke="#263238" stroke-width="1.50885" stroke-linecap="round" stroke-linejoin="round"></path>
  <path d="M375.81 340.126C374.806 340.051 373.797 340.051 372.792 340.126" stroke="#7F7F7F" stroke-width="1.13164" stroke-linecap="round" stroke-linejoin="round"></path>
  <path d="M377.773 331.119C377.773 331.119 386.69 333.744 390.191 345.377C390.236 345.568 390.221 345.769 390.146 345.951C390.071 346.132 389.941 346.286 389.774 346.389C389.607 346.493 389.411 346.541 389.215 346.527C389.02 346.514 388.833 346.438 388.682 346.313C386.292 343.854 383.348 342.002 380.097 340.911" stroke="#7F7F7F" stroke-width="1.13164" stroke-linecap="round" stroke-linejoin="round"></path>
  <path d="M310.946 379.779C310.946 374.875 289.822 372.235 295.481 367.708C301.139 363.182 313.964 377.893 313.964 377.893" stroke="#7F7F7F" stroke-width="1.13164" stroke-linecap="round" stroke-linejoin="round"></path>
  <path d="M414.74 399.394C414.74 393.781 394.551 390.718 395.562 384.683C396.573 378.647 409.398 390.537 409.398 390.537" stroke="#7F7F7F" stroke-width="1.13164" stroke-linecap="round" stroke-linejoin="round"></path>
  <path d="M311.73 477.824L313.948 482.954C314.071 483.238 314.289 483.47 314.564 483.611C314.84 483.751 315.155 483.791 315.457 483.723C320.331 482.622 340.67 477.824 347.807 472.694C348.014 472.542 348.171 472.331 348.257 472.089C348.343 471.847 348.355 471.585 348.29 471.336L346.902 465.617C346.855 465.42 346.763 465.236 346.633 465.08C346.504 464.924 346.339 464.8 346.154 464.718C345.968 464.636 345.766 464.598 345.563 464.608C345.36 464.617 345.163 464.674 344.985 464.772C341.771 466.523 332.824 470.702 312.621 476.013C312.436 476.063 312.265 476.152 312.117 476.273C311.97 476.394 311.85 476.546 311.766 476.717C311.681 476.889 311.635 477.076 311.629 477.267C311.623 477.458 311.657 477.647 311.73 477.824Z" fill="#999999" stroke="#263238" stroke-width="1.50885" stroke-linecap="round" stroke-linejoin="round"></path>
  <path d="M390.07 473.599C390.045 473.422 390.065 473.242 390.13 473.075C390.194 472.908 390.301 472.761 390.439 472.647C390.576 472.534 390.741 472.457 390.917 472.426C391.093 472.395 391.274 472.409 391.443 472.468C393.895 473.233 396.516 473.269 398.988 472.573C404.585 471.306 420.594 466.236 425.362 464.712C425.519 464.662 425.685 464.65 425.847 464.676C426.009 464.703 426.162 464.767 426.295 464.864C426.427 464.962 426.535 465.089 426.609 465.235C426.683 465.382 426.721 465.544 426.72 465.708V472.377C426.722 472.579 426.664 472.777 426.554 472.946C426.444 473.115 426.287 473.248 426.102 473.328C422.36 475.003 402.307 483.588 391.82 481.249C391.616 481.201 391.431 481.092 391.29 480.935C391.15 480.779 391.061 480.583 391.036 480.374L390.07 473.599Z" fill="#999999" stroke="#263238" stroke-width="1.50885" stroke-linecap="round" stroke-linejoin="round"></path>
  <path d="M406.214 333.88C406.069 335.965 405.307 337.961 404.026 339.613C399.59 345.121 380.081 354.098 371.345 365.264" stroke="#7F7F7F" stroke-width="1.50885" stroke-linecap="round" stroke-linejoin="round"></path>
  <path d="M405.264 326.335C405.602 327.447 405.859 328.582 406.033 329.73" stroke="#7F7F7F" stroke-width="1.50885" stroke-linecap="round" stroke-linejoin="round"></path>
  <path d="M289.716 505.014C290.947 507.258 291.837 509.674 292.356 512.181H346.841C347.043 509.806 348.118 507.591 349.859 505.964" stroke="#263238" stroke-width="1.50885" stroke-linecap="round" stroke-linejoin="round"></path>
  <path d="M384.396 505.014C384.396 505.014 391.941 505.587 394.762 512.181H423.249C424.109 510.212 424.619 508.108 424.758 505.964" stroke="#263238" stroke-width="1.50885" stroke-linecap="round" stroke-linejoin="round"></path>
  <path d="M339.734 235.807C340.428 238.463 341.152 241.104 341.877 243.684C349.421 270.843 359.228 322.521 359.228 322.521C407.512 332.706 458.435 322.521 458.435 322.521C458.707 311.265 457.334 296.403 455.81 280.786C463.716 278.598 469.39 271.296 469.752 259.149C470.129 244.438 467.458 217.958 465.98 205.585C464.667 194.706 465.602 188.233 448.748 179.935C440.299 175.061 426.267 172.753 409.02 170.444C375.071 165.918 350.568 172.783 341.877 176.479C334.981 174.669 333.065 182.756 333.065 182.756C329.248 179.874 324.812 192.096 324.812 192.096C313.646 206.34 304.865 230.33 301.937 238.87C301.29 240.737 300.103 242.371 298.527 243.563C290.606 249.598 295.012 257.067 295.012 257.067L311.232 262.031C311.232 262.031 319.093 264.083 325.098 253.748C330.108 245.117 338.316 230.466 339.734 235.807Z" fill="#64D09C"></path>
  <mask id="mask0_7630_38937" style="mask-type:luminance" maskUnits="userSpaceOnUse" x="293" y="168" width="177" height="160">
    <path d="M339.734 235.807C340.428 238.463 341.152 241.104 341.877 243.684C349.421 270.843 359.228 322.521 359.228 322.521C407.512 332.706 458.435 322.521 458.435 322.521C458.707 311.265 457.334 296.403 455.81 280.786C463.716 278.598 469.39 271.296 469.752 259.149C470.129 244.438 467.458 217.958 465.98 205.585C464.667 194.706 465.602 188.233 448.748 179.935C440.299 175.061 426.267 172.753 409.02 170.444C375.071 165.918 350.568 172.783 341.877 176.479C334.981 174.669 333.065 182.756 333.065 182.756C329.248 179.874 324.812 192.096 324.812 192.096C313.646 206.34 304.865 230.33 301.937 238.87C301.29 240.737 300.103 242.371 298.527 243.563C290.606 249.598 295.012 257.067 295.012 257.067L311.232 262.031C311.232 262.031 319.093 264.083 325.098 253.748C330.108 245.117 338.316 230.466 339.734 235.807Z" fill="white"></path>
  </mask>
  <g mask="url(#mask0_7630_38937)">
    <path opacity="0.3" d="M314.22 255.226C314.22 255.226 313.843 247.682 307.807 246.369C301.772 245.057 309.497 242.793 314.22 243.925C318.943 245.057 317.841 240.907 321.885 234.117C325.929 227.328 327.92 221.956 331.33 225.864C334.74 229.772 338.286 230.391 339.735 235.732C341.183 241.073 334.016 253.838 334.016 253.838L322.76 262.574L317.042 265.773H308.517L305.589 258.395L314.22 255.226Z" fill="black"></path>
  </g>
  <path d="M339.734 235.807C340.428 238.463 341.152 241.104 341.877 243.684C349.421 270.843 359.228 322.521 359.228 322.521C407.512 332.706 458.435 322.521 458.435 322.521C458.707 311.265 457.334 296.403 455.81 280.786C463.716 278.598 469.39 271.296 469.752 259.149C470.129 244.438 467.458 217.958 465.98 205.585C464.667 194.706 465.602 188.233 448.748 179.935C440.299 175.061 426.267 172.753 409.02 170.444C375.071 165.918 350.568 172.783 341.877 176.479C334.981 174.669 333.065 182.756 333.065 182.756C329.248 179.874 324.812 192.096 324.812 192.096C313.646 206.34 304.865 230.33 301.937 238.87C301.29 240.737 300.103 242.371 298.527 243.563C290.606 249.598 295.012 257.067 295.012 257.067L311.232 262.031C311.232 262.031 319.093 264.083 325.098 253.748C330.108 245.117 338.316 230.466 339.734 235.807Z" stroke="#263238" stroke-width="1.50885" stroke-linecap="round" stroke-linejoin="round"></path>
  <path opacity="0.3" d="M458.436 322.443C458.474 312.747 457.996 303.057 457.002 293.413C458.647 316.392 410.801 323.59 409.292 311.126C407.784 298.663 455.81 280.708 429.677 286.985C406.878 292.462 362.684 287.226 351.82 285.808C356 305.423 359.229 322.443 359.229 322.443C407.512 332.628 458.436 322.443 458.436 322.443Z" fill="black"></path>
  <path opacity="0.3" d="M436.496 207.016C436.496 207.016 429.661 227.008 429.676 237.57C429.692 248.132 410.529 255.223 410.484 255.223C420.759 253.141 430.748 250.38 435.516 248.992C436.337 248.76 437.052 248.249 437.536 247.546C438.021 246.844 438.246 245.994 438.171 245.144C436.954 232.472 436.395 219.746 436.496 207.016Z" fill="black"></path>
  <path d="M333.413 201.991C333.478 211.412 335.178 220.749 338.437 229.588C338.532 229.847 338.541 230.13 338.464 230.395C338.387 230.66 338.228 230.893 338.009 231.061C337.791 231.229 337.524 231.324 337.248 231.33C336.973 231.336 336.702 231.255 336.476 231.097C333.881 229.241 330.214 225.469 326.91 217.864" stroke="#263238" stroke-width="1.13164" stroke-linecap="round" stroke-linejoin="round"></path>
  <path d="M461.453 263.598C457.47 250.395 450.575 247.091 445.233 246.759C445.068 246.735 444.914 246.664 444.79 246.553C444.666 246.442 444.577 246.296 444.535 246.135C444.493 245.974 444.5 245.804 444.554 245.646C444.609 245.489 444.708 245.351 444.841 245.25C447.949 243.575 454 242.232 461.438 250.471" stroke="#263238" stroke-width="1.13164" stroke-linecap="round" stroke-linejoin="round"></path>
  <path d="M384.909 225.816C384.845 226.371 384.579 226.884 384.162 227.255C383.744 227.627 383.205 227.833 382.646 227.833C382.087 227.833 381.548 227.627 381.13 227.255C380.713 226.884 380.447 226.371 380.383 225.816C380.346 225.497 380.377 225.174 380.474 224.867C380.571 224.561 380.731 224.278 380.945 224.039C381.159 223.799 381.421 223.607 381.714 223.475C382.007 223.344 382.325 223.276 382.646 223.276C382.967 223.276 383.285 223.344 383.578 223.475C383.871 223.607 384.133 223.799 384.347 224.039C384.561 224.278 384.721 224.561 384.818 224.867C384.915 225.174 384.946 225.497 384.909 225.816Z" fill="#999999" stroke="#263238" stroke-width="1.13164" stroke-linecap="round" stroke-linejoin="round"></path>
  <path d="M387.972 251.496C387.972 251.944 387.839 252.381 387.59 252.754C387.342 253.126 386.988 253.416 386.575 253.587C386.161 253.758 385.706 253.803 385.267 253.716C384.828 253.629 384.425 253.413 384.108 253.097C383.792 252.78 383.576 252.377 383.489 251.938C383.401 251.499 383.446 251.044 383.618 250.63C383.789 250.217 384.079 249.863 384.451 249.614C384.823 249.366 385.261 249.233 385.709 249.233C386.309 249.233 386.885 249.471 387.309 249.896C387.733 250.32 387.972 250.896 387.972 251.496Z" fill="#999999" stroke="#263238" stroke-width="1.13164" stroke-linecap="round" stroke-linejoin="round"></path>
  <path d="M395.563 313.389C395.566 313.841 395.434 314.283 395.186 314.659C394.937 315.036 394.583 315.33 394.167 315.505C393.751 315.68 393.292 315.727 392.849 315.641C392.406 315.555 391.999 315.339 391.679 315.021C391.358 314.703 391.14 314.297 391.051 313.855C390.962 313.412 391.006 312.953 391.178 312.536C391.35 312.119 391.642 311.762 392.017 311.511C392.392 311.26 392.833 311.126 393.284 311.126C393.886 311.126 394.463 311.364 394.89 311.788C395.317 312.212 395.559 312.788 395.563 313.389Z" fill="#999999" stroke="#263238" stroke-width="1.50885" stroke-linecap="round" stroke-linejoin="round"></path>
  <path d="M352.228 268.321C352.228 268.321 344.82 275.382 348.35 275.503C351.881 275.623 356.332 270.765 360.421 270.207C364.51 269.648 357.901 267.189 357.901 267.189L352.228 268.321Z" fill="white" stroke="#263238" stroke-width="1.50885" stroke-linecap="round" stroke-linejoin="round"></path>
  <path d="M395.486 260.369C395.154 260.071 394.765 259.845 394.342 259.705C393.918 259.565 393.471 259.514 393.027 259.554C389.406 259.856 378.995 260.64 375.072 260.399C368.101 259.961 347.565 255.616 347.565 255.616C347.093 255.535 346.608 255.561 346.147 255.691L333.427 259.433C332.964 259.567 332.54 259.811 332.19 260.142L324.495 267.204C324.242 267.44 324.028 267.715 323.861 268.019L322.262 270.946C321.932 271.547 321.807 272.24 321.908 272.918C322.009 273.597 322.329 274.224 322.82 274.703L335.525 275.035C336.31 275.072 337.079 274.801 337.667 274.28L341.439 271.051C341.691 270.833 341.91 270.579 342.088 270.297C343.009 268.788 346.615 263.809 352.197 264.262C352.197 264.262 340.127 270.674 342.405 273.315C344.683 275.955 353.918 268.411 356.935 269.165C359.953 269.92 360.149 277.328 376.55 274.642C377.284 274.519 378.035 274.555 378.753 274.748L393.691 278.928C394.134 279.05 394.597 279.083 395.052 279.025C395.508 278.966 395.948 278.818 396.346 278.587C396.743 278.357 397.091 278.049 397.368 277.683C397.646 277.316 397.847 276.898 397.961 276.453C399.123 272.168 400.149 264.624 395.486 260.369Z" fill="white" stroke="#263238" stroke-width="1.50885" stroke-linecap="round" stroke-linejoin="round"></path>
  <path d="M349.346 258.317L346.147 258.86C344.588 259.124 343.131 259.813 341.938 260.852L338.543 263.764C337.965 264.284 337.458 264.877 337.034 265.529L334.846 268.864C334.609 269.232 334.341 269.58 334.046 269.905C332.749 271.413 329.173 275.593 333.036 275.02" fill="white"></path>
  <path d="M349.346 258.317L346.147 258.86C344.588 259.124 343.131 259.813 341.938 260.852L338.543 263.764C337.965 264.284 337.458 264.877 337.034 265.529L334.846 268.864C334.609 269.232 334.341 269.58 334.046 269.905C332.749 271.413 329.173 275.593 333.036 275.02" stroke="#263238" stroke-width="1.50885" stroke-linecap="round" stroke-linejoin="round"></path>
  <path d="M340.338 259.448L337.033 260.353C336.001 260.606 335.054 261.126 334.287 261.862L331.707 264.337C331.453 264.562 331.225 264.815 331.028 265.091L326.788 270.719C326.788 270.719 324.525 274.702 326.788 274.778" fill="white"></path>
  <path d="M340.338 259.448L337.033 260.353C336.001 260.606 335.054 261.126 334.287 261.862L331.707 264.337C331.453 264.562 331.225 264.815 331.028 265.091L326.788 270.719C326.788 270.719 324.525 274.702 326.788 274.778" stroke="#263238" stroke-width="1.50885" stroke-linecap="round" stroke-linejoin="round"></path>
  <path d="M436.618 203.817C436.297 217.611 436.801 231.411 438.127 245.145C438.201 245.995 437.976 246.844 437.492 247.547C437.007 248.249 436.292 248.76 435.471 248.992C423.475 252.54 411.256 255.287 398.896 257.216" stroke="#263238" stroke-width="1.50885" stroke-linecap="round" stroke-linejoin="round"></path>
  <path d="M437.341 194.462C437.145 195.971 436.979 197.615 436.858 199.29" stroke="#263238" stroke-width="1.13164" stroke-linecap="round" stroke-linejoin="round"></path>
  <path d="M442.397 180.339C440.677 181.848 439.379 184.579 438.489 188.2" stroke="#263238" stroke-width="1.13164" stroke-linecap="round" stroke-linejoin="round"></path>
  <path d="M366.849 171.379C366.849 171.379 367.799 168.361 372.884 166.656C377.969 164.951 395.607 162.25 404.676 166.656C413.744 171.062 396.377 195.038 396.377 195.038L388.335 206.173L381.168 211.544L377.969 201.993L373.82 197.678C373.82 197.678 364.857 190.33 365.611 183.072C366.366 175.815 366.849 171.379 366.849 171.379Z" fill="white"></path>
  <path d="M411.375 170.746C409.956 165.782 403.483 164.393 403.483 164.393C372.552 159.112 366.019 170.429 366.019 170.429C362.226 180.65 362.226 191.893 366.019 202.115C366.019 202.115 374.815 198.463 376.324 202.115C377.833 205.766 380.594 213.552 380.594 213.552C384.793 211.185 388.456 207.974 391.352 204.121C396.135 197.83 407.361 204.121 407.361 204.121C414.634 191.553 411.375 170.746 411.375 170.746ZM403.83 170.384C391.85 207.984 381.288 209.614 381.288 209.614C377.773 195.793 374.755 198.81 369.972 190.165C366.139 183.224 367.437 174.442 368.101 171.228C368.179 170.845 368.341 170.483 368.576 170.17C368.811 169.857 369.112 169.6 369.459 169.418C381.349 163.382 395.894 165.6 401.884 166.913C402.255 166.99 402.605 167.144 402.912 167.366C403.219 167.587 403.475 167.871 403.665 168.199C403.854 168.526 403.972 168.89 404.011 169.267C404.05 169.644 404.009 170.024 403.891 170.384H403.83Z" fill="#64D09C"></path>
  <mask id="mask1_7630_38937" style="mask-type:luminance" maskUnits="userSpaceOnUse" x="363" y="162" width="50" height="52">
    <path d="M411.375 170.746C409.956 165.782 403.483 164.393 403.483 164.393C372.552 159.112 366.019 170.429 366.019 170.429C362.226 180.65 362.226 191.893 366.019 202.115C366.019 202.115 374.815 198.463 376.324 202.115C377.833 205.766 380.594 213.552 380.594 213.552C384.793 211.185 388.456 207.974 391.352 204.121C396.135 197.83 407.361 204.121 407.361 204.121C414.634 191.553 411.375 170.746 411.375 170.746ZM403.83 170.384C391.85 207.984 381.288 209.614 381.288 209.614C377.773 195.793 374.755 198.81 369.972 190.165C366.139 183.224 367.437 174.442 368.101 171.228C368.179 170.845 368.341 170.483 368.576 170.17C368.811 169.857 369.112 169.6 369.459 169.418C381.349 163.382 395.894 165.6 401.884 166.913C402.255 166.99 402.605 167.144 402.912 167.366C403.219 167.587 403.475 167.871 403.665 168.199C403.854 168.526 403.972 168.89 404.011 169.267C404.05 169.644 404.009 170.024 403.891 170.384H403.83Z" fill="white"></path>
  </mask>
  <g mask="url(#mask1_7630_38937)">
    <path opacity="0.4" d="M411.375 170.746C409.956 165.782 403.483 164.393 403.483 164.393C372.552 159.112 366.019 170.429 366.019 170.429C362.226 180.65 362.226 191.893 366.019 202.115C366.019 202.115 374.815 198.463 376.324 202.115C377.833 205.766 380.594 213.552 380.594 213.552C384.793 211.185 388.456 207.974 391.352 204.121C396.135 197.83 407.361 204.121 407.361 204.121C414.634 191.553 411.375 170.746 411.375 170.746ZM403.83 170.384C391.85 207.984 381.288 209.614 381.288 209.614C377.773 195.793 374.755 198.81 369.972 190.165C366.139 183.224 367.437 174.442 368.101 171.228C368.179 170.845 368.341 170.483 368.576 170.17C368.811 169.857 369.112 169.6 369.459 169.418C381.349 163.382 395.894 165.6 401.884 166.913C402.255 166.99 402.605 167.144 402.912 167.366C403.219 167.587 403.475 167.871 403.665 168.199C403.854 168.526 403.972 168.89 404.011 169.267C404.05 169.644 404.009 170.024 403.891 170.384H403.83Z" fill="white"></path>
  </g>
  <path d="M411.375 170.746C409.956 165.782 403.483 164.393 403.483 164.393C372.552 159.112 366.019 170.429 366.019 170.429C362.226 180.65 362.226 191.893 366.019 202.115C366.019 202.115 374.815 198.463 376.324 202.115C377.833 205.766 380.594 213.552 380.594 213.552C384.793 211.185 388.456 207.974 391.352 204.121C396.135 197.83 407.361 204.121 407.361 204.121C414.634 191.553 411.375 170.746 411.375 170.746ZM403.83 170.384C391.85 207.984 381.288 209.614 381.288 209.614C377.773 195.793 374.755 198.81 369.972 190.165C366.139 183.224 367.437 174.442 368.101 171.228C368.179 170.845 368.341 170.483 368.576 170.17C368.811 169.857 369.112 169.6 369.459 169.418C381.349 163.382 395.894 165.6 401.884 166.913C402.255 166.99 402.605 167.144 402.912 167.366C403.219 167.587 403.475 167.871 403.665 168.199C403.854 168.526 403.972 168.89 404.011 169.267C404.05 169.644 404.009 170.024 403.891 170.384H403.83Z" stroke="#263238" stroke-width="1.50885" stroke-linecap="round" stroke-linejoin="round"></path>
  <path d="M360.873 113.288C360.873 113.288 334.212 118.629 348.893 135.921C365.174 155.189 360.873 113.288 360.873 113.288Z" fill="#263238" stroke="#263238" stroke-width="1.50885" stroke-linecap="round" stroke-linejoin="round"></path>
  <path d="M350.357 155.596C350.357 155.596 344.02 129.946 356.091 117.618C368.162 105.291 381.243 102.786 391.051 108.822C400.859 114.857 404.932 129.946 403.424 137.731C401.915 145.517 402.639 173.431 389.195 185.004C375.751 196.576 367.483 193.725 358.596 177.957C352.696 167.622 349.905 164.649 350.357 155.596Z" fill="white" stroke="#263238" stroke-width="1.50885" stroke-linecap="round" stroke-linejoin="round"></path>
  <path d="M397.085 150.572C397.085 150.572 386.946 140.508 383.838 128.693C380.729 116.879 378.979 114.857 367.406 120.636C355.833 126.415 337.788 118.644 342.51 104.039C347.474 88.7089 362.638 108.565 377.214 103.541C391.789 98.5164 402.155 107.569 402.17 120.893C402.17 120.893 410.982 129.448 402.17 151.568L397.085 150.572Z" fill="#263238" stroke="#263238" stroke-width="1.50885" stroke-linecap="round" stroke-linejoin="round"></path>
  <path d="M393.903 148.882C393.903 148.882 396.468 134.82 403.59 136.117C410.711 137.415 405.627 158.177 397.237 155.913" fill="white"></path>
  <path d="M393.903 148.882C393.903 148.882 396.468 134.82 403.59 136.117C410.711 137.415 405.627 158.177 397.237 155.913" stroke="#263238" stroke-width="1.50885" stroke-linecap="round" stroke-linejoin="round"></path>
  <path d="M359.999 153.65C359.999 153.65 357.193 166.701 358.113 168.935C359.033 171.168 367.649 169.463 367.649 169.463" fill="white"></path>
  <path d="M359.999 153.65C359.999 153.65 357.193 166.701 358.113 168.935C359.033 171.168 367.649 169.463 367.649 169.463" stroke="#263238" stroke-width="1.50885" stroke-linecap="round" stroke-linejoin="round"></path>
  <path d="M368.855 175.151C368.855 175.151 375.615 177.822 381.575 168.935Z" fill="white"></path>
  <path d="M368.855 175.151C368.855 175.151 375.615 177.822 381.575 168.935" stroke="#263238" stroke-width="1.50885" stroke-linecap="round" stroke-linejoin="round"></path>
  <path d="M355.367 154.737C355.608 155.944 355.291 157.045 354.657 157.181C354.024 157.317 353.284 156.442 353.028 155.219C352.771 153.997 353.028 152.911 353.737 152.775C354.446 152.639 355.14 153.514 355.367 154.737Z" fill="#263238"></path>
  <path d="M371.903 153.409C372.16 154.616 371.903 155.717 371.194 155.853C370.485 155.989 369.836 155.098 369.58 153.891C369.323 152.684 369.58 151.583 370.289 151.447C370.998 151.311 371.737 152.186 371.903 153.409Z" fill="#263238"></path>
  <path d="M358.837 154.163C359.184 157.588 355.819 160.727 351.172 161.179C346.525 161.632 342.602 159.248 342.255 155.823C341.908 152.398 345.514 150.904 350.101 150.436C354.687 149.968 358.505 150.753 358.837 154.163Z" stroke="#263238" stroke-width="1.50885" stroke-linecap="round" stroke-linejoin="round"></path>
  <path d="M380.187 152.035C380.534 155.445 377.094 158.599 372.522 159.051C367.95 159.504 363.952 157.105 363.605 153.695C363.258 150.285 366.864 148.761 371.451 148.308C376.038 147.856 379.855 148.61 380.187 152.035Z" stroke="#263238" stroke-width="1.50885" stroke-linecap="round" stroke-linejoin="round"></path>
  <path d="M358.836 154.163L363.604 153.695" stroke="#263238" stroke-width="1.50885" stroke-linecap="round" stroke-linejoin="round"></path>
  <path d="M379.613 150.316L397.146 139.98" stroke="#263238" stroke-width="1.50885" stroke-linecap="round" stroke-linejoin="round"></path>
  <path d="M400.148 166.416L400.978 168.422" stroke="#263238" stroke-width="1.50885" stroke-linecap="round" stroke-linejoin="round"></path>
  <path d="M348.954 148.656C348.954 148.656 351.624 145.261 354.898 146.89Z" fill="white"></path>
  <path d="M348.954 148.656C348.954 148.656 351.624 145.261 354.898 146.89" stroke="#263238" stroke-width="1.50885" stroke-linecap="round" stroke-linejoin="round"></path>
  <path d="M376.263 147.132C376.263 147.132 371.571 142.606 367.044 145.804Z" fill="white"></path>
  <path d="M376.263 147.132C376.263 147.132 371.571 142.606 367.044 145.804" stroke="#263238" stroke-width="1.50885" stroke-linecap="round" stroke-linejoin="round"></path>
  <path d="M354.883 105.745C362.02 108.008 374.03 110.784 383.838 107.812C398.926 103.285 393.751 120.184 397.146 124.847" stroke="#7F7F7F" stroke-width="1.50885" stroke-linecap="round" stroke-linejoin="round"></path>
  <path d="M348.698 103.481C348.698 103.481 349.89 104.01 351.927 104.734" stroke="#7F7F7F" stroke-width="1.50885" stroke-linecap="round" stroke-linejoin="round"></path>
  <path d="M366.728 114.148C367.527 113.907 368.357 113.62 369.232 113.288" stroke="#7F7F7F" stroke-width="1.50885" stroke-linecap="round" stroke-linejoin="round"></path>
  <path d="M350.356 112.157C350.356 112.157 353.555 117.091 363.846 114.903" stroke="#7F7F7F" stroke-width="1.50885" stroke-linecap="round" stroke-linejoin="round"></path>
  <path d="M388.683 121.828C389.479 127.652 391.674 133.197 395.08 137.988" stroke="#7F7F7F" stroke-width="1.50885" stroke-linecap="round" stroke-linejoin="round"></path>
  <path d="M388.335 116.487C388.314 117.388 388.345 118.29 388.425 119.188" stroke="#7F7F7F" stroke-width="1.50885" stroke-linecap="round" stroke-linejoin="round"></path>
  <path opacity="0.3" d="M401.703 278.354C401.428 278.584 401.23 278.893 401.136 279.24C401.042 279.586 401.057 279.953 401.179 280.291C401.301 280.628 401.524 280.92 401.817 281.127C402.111 281.334 402.461 281.446 402.819 281.447C413.019 281.447 440.541 281.567 451.103 280.949C464.305 280.194 454.226 265.86 443.558 271.322C433.887 276.377 413.306 267.958 401.703 278.354Z" fill="black"></path>
  <path d="M286.805 264.201C286.805 264.201 292.976 247.77 308.457 250.38C323.937 252.99 312.108 265.951 304.654 267.098C304.654 267.098 303.523 262.587 286.805 264.201Z" fill="white" stroke="#263238" stroke-width="1.50885" stroke-linecap="round" stroke-linejoin="round"></path>
  <path d="M273.662 273.526C271.625 275.563 266.722 275.744 270.026 271.323C272.729 267.767 276.394 265.06 280.588 263.522C287.921 260.248 290.788 260.912 297.427 259.448C304.066 257.985 305.318 260.701 307.611 261.953C313.089 264.971 314.401 265.484 315.789 268.501C317.178 271.519 318.686 275.442 314.401 275.442C310.508 275.442 310.252 268.999 306.48 269.256C302.708 269.512 300.822 275.442 298.181 275.442H297.185C294.922 275.442 294.801 273.556 296.174 270.599C297.547 267.641 299.071 264.971 299.071 264.971C296.831 266.15 295.04 268.032 293.971 270.327C292.161 274.175 291.829 275.789 288.494 275.789C285.16 275.789 285.477 273.315 288.706 267.852C286.788 269.001 285.202 270.628 284.104 272.575C282.474 275.593 281.614 275.442 279.486 275.442C276.68 275.442 276.876 270.825 281.84 267.807C281.87 267.807 280.769 266.449 273.662 273.526Z" fill="white" stroke="#263238" stroke-width="1.50885" stroke-linecap="round" stroke-linejoin="round"></path>
  <path d="M293.096 262.496C293.096 262.496 291.149 262.405 289.912 265.695Z" fill="white"></path>
  <path d="M293.096 262.496C293.096 262.496 291.149 262.405 289.912 265.695" stroke="#263238" stroke-width="1.13164" stroke-linecap="round" stroke-linejoin="round"></path>
  <path d="M186.497 517.222H180.899L179.39 295.029H186.497V517.222Z" fill="#858585" stroke="#263238" stroke-width="1.50885" stroke-linecap="round" stroke-linejoin="round"></path>
  <path d="M192.079 517.222H186.497V295.029H193.588L192.079 517.222Z" fill="#999999" stroke="#263238" stroke-width="1.50885" stroke-linecap="round" stroke-linejoin="round"></path>
  <path d="M506.01 281.434H122.445V295.043H506.01V281.434Z" fill="#263238" stroke="#263238" stroke-width="1.50885" stroke-linecap="round" stroke-linejoin="round"></path>
  <path d="M586.161 281.434H500.277V295.043H586.161V281.434Z" fill="#858585" stroke="#263238" stroke-width="1.50885" stroke-linecap="round" stroke-linejoin="round"></path>
  <path d="M523.407 295.029H142.091V317.45H523.407V295.029Z" fill="#64D09C" stroke="#263238" stroke-width="1.50885" stroke-miterlimit="10"></path>
  <path d="M523.408 317.465H567.813V295.043H523.408V317.465Z" fill="#64D09C"></path>
  <mask id="mask2_7630_38937" style="mask-type:luminance" maskUnits="userSpaceOnUse" x="523" y="295" width="45" height="23">
    <path d="M523.408 317.465H567.813V295.044H523.408V317.465Z" fill="white"></path>
  </mask>
  <g mask="url(#mask2_7630_38937)">
    <path opacity="0.3" d="M523.408 317.465H567.813V295.044H523.408V317.465Z" fill="black"></path>
  </g>
  <path d="M523.408 317.465H567.813V295.043H523.408V317.465Z" stroke="#263238" stroke-width="1.50885" stroke-miterlimit="10"></path>
  <path d="M523.407 517.222H517.824L516.315 295.029H523.407V517.222Z" fill="#858585" stroke="#263238" stroke-width="1.50885" stroke-linecap="round" stroke-linejoin="round"></path>
  <path d="M529.005 517.222H523.407V295.029H530.514L529.005 517.222Z" fill="#999999" stroke="#263238" stroke-width="1.50885" stroke-linecap="round" stroke-linejoin="round"></path>
  <path d="M142.091 517.222H136.493L134.984 295.029H142.091V517.222Z" fill="#858585" stroke="#263238" stroke-width="1.50885" stroke-linecap="round" stroke-linejoin="round"></path>
  <path d="M147.674 517.222H142.091V295.029H149.182L147.674 517.222Z" fill="#999999" stroke="#263238" stroke-width="1.50885" stroke-linecap="round" stroke-linejoin="round"></path>
  <path d="M567.813 517.222H562.215L560.707 295.029H567.813V517.222Z" fill="#858585" stroke="#263238" stroke-width="1.50885" stroke-linecap="round" stroke-linejoin="round"></path>
  <path d="M573.396 517.222H567.813V295.029H574.905L573.396 517.222Z" fill="#999999" stroke="#263238" stroke-width="1.50885" stroke-linecap="round" stroke-linejoin="round"></path>
  <path d="M370.304 279.925H325.356C324.914 279.921 324.492 279.742 324.181 279.429C323.87 279.115 323.696 278.691 323.696 278.25V274.538L371.979 276.047V278.25C371.979 278.694 371.803 279.12 371.488 279.434C371.174 279.748 370.748 279.925 370.304 279.925Z" fill="#858585" stroke="#263238" stroke-width="1.50885" stroke-linecap="round" stroke-linejoin="round"></path>
  <path d="M318.672 279.925H228.307C227.563 279.897 226.847 279.64 226.255 279.188C225.664 278.737 225.226 278.114 225.002 277.405L205.599 214.425C205.453 214.058 205.402 213.66 205.448 213.267C205.495 212.875 205.639 212.5 205.866 212.177C206.093 211.854 206.398 211.592 206.751 211.416C207.105 211.239 207.497 211.154 207.892 211.166H298.257C298.999 211.191 299.715 211.445 300.307 211.894C300.899 212.342 301.337 212.963 301.561 213.671L320.965 276.65C321.11 277.019 321.161 277.417 321.114 277.81C321.067 278.203 320.924 278.578 320.697 278.903C320.47 279.227 320.166 279.49 319.813 279.668C319.459 279.846 319.067 279.934 318.672 279.925Z" fill="#999999" stroke="#263238" stroke-width="1.50885" stroke-linecap="round" stroke-linejoin="round"></path>
  <path d="M324.963 276.651L305.56 213.672C305.335 212.964 304.897 212.343 304.305 211.894C303.714 211.446 302.997 211.192 302.255 211.167H298.257C298.999 211.192 299.715 211.446 300.307 211.894C300.899 212.343 301.337 212.964 301.561 213.672L320.965 276.651C321.11 277.02 321.161 277.418 321.114 277.811C321.067 278.204 320.924 278.579 320.697 278.903C320.469 279.227 320.166 279.49 319.812 279.669C319.459 279.847 319.067 279.935 318.672 279.925H322.73C323.121 279.925 323.506 279.83 323.851 279.647C324.196 279.465 324.492 279.201 324.712 278.878C324.932 278.555 325.07 278.184 325.114 277.796C325.157 277.408 325.106 277.015 324.963 276.651Z" fill="#858585" stroke="#263238" stroke-width="1.50885" stroke-linecap="round" stroke-linejoin="round"></path>
  <path d="M268.88 245.538C268.991 246.239 268.946 246.957 268.749 247.639C268.552 248.321 268.207 248.951 267.739 249.485C267.271 250.02 266.691 250.444 266.041 250.729C265.391 251.015 264.686 251.153 263.976 251.136C262.436 251.097 260.96 250.513 259.811 249.488C258.661 248.463 257.913 247.063 257.699 245.538C257.588 244.837 257.633 244.121 257.83 243.439C258.027 242.758 258.372 242.128 258.84 241.595C259.309 241.062 259.888 240.639 260.539 240.356C261.189 240.072 261.894 239.935 262.603 239.955C264.14 239.996 265.612 240.579 266.761 241.601C267.909 242.622 268.66 244.017 268.88 245.538Z" fill="white" stroke="#263238" stroke-width="1.50885" stroke-linecap="round" stroke-linejoin="round"></path>
  <path d="M538.001 93.4692C546.88 100.446 555.333 107.949 563.315 115.937" stroke="#263238" stroke-width="1.03125" stroke-linecap="round" stroke-linejoin="round"></path>
  <path d="M528.403 86.2505C530.081 87.4605 531.758 88.6842 533.408 89.9355" stroke="#263238" stroke-width="1.03125" stroke-linecap="round" stroke-linejoin="round"></path>
  <path d="M518.82 79.665C520.543 80.7925 522.257 81.9475 523.962 83.13" stroke="#263238" stroke-width="1.03125" stroke-linecap="round" stroke-linejoin="round"></path>
  <path d="M448.475 46.3906C471.244 53.4731 493.01 63.45 513.237 76.0767" stroke="#263238" stroke-width="1.03125" stroke-linecap="round" stroke-linejoin="round"></path>
  <path d="M433.46 42.1553C436.21 42.8611 438.983 43.6036 441.779 44.3828" stroke="#263238" stroke-width="1.03125" stroke-linecap="round" stroke-linejoin="round"></path>
  <path d="M418.005 38.7319C421.03 39.3094 424.046 39.9419 427.053 40.6294" stroke="#263238" stroke-width="1.03125" stroke-linecap="round" stroke-linejoin="round"></path>
  <path d="M404.242 36.4351C406.855 36.8109 409.458 37.2142 412.052 37.6451" stroke="#263238" stroke-width="1.03125" stroke-linecap="round" stroke-linejoin="round"></path>
  <path d="M321.316 36.9849C346.8 33.0158 372.706 32.5532 398.316 35.6099" stroke="#263238" stroke-width="1.03125" stroke-linecap="round" stroke-linejoin="round"></path>
  <path d="M309.972 38.979C312.31 38.5253 314.661 38.0853 316.998 37.6865" stroke="#263238" stroke-width="1.03125" stroke-linecap="round" stroke-linejoin="round"></path>
  <path d="M298.958 41.3854C301.309 40.8217 303.647 40.2992 306.012 39.8042" stroke="#263238" stroke-width="1.03125" stroke-linecap="round" stroke-linejoin="round"></path>
  <path d="M285.428 44.988C287.821 44.2867 290.213 43.613 292.619 42.9805" stroke="#263238" stroke-width="1.03125" stroke-linecap="round" stroke-linejoin="round"></path>
  <path d="M203.602 84.3261C226.369 68.3664 251.396 55.9038 277.852 47.3525" stroke="#263238" stroke-width="1.03125" stroke-linecap="round" stroke-linejoin="round"></path>
  <path d="M192.602 92.48C194.747 90.8208 196.915 89.1891 199.106 87.585" stroke="#263238" stroke-width="1.03125" stroke-linecap="round" stroke-linejoin="round"></path>
  <path d="M181.465 101.555C183.817 99.5203 186.209 97.5403 188.615 95.6016" stroke="#263238" stroke-width="1.03125" stroke-linecap="round" stroke-linejoin="round"></path>
  <path d="M165.982 115.938C169.209 112.711 172.491 109.581 175.827 106.546" stroke="#263238" stroke-width="1.03125" stroke-linecap="round" stroke-linejoin="round"></path>
  <path d="M272.599 73.6634C276.981 55.2849 265.634 36.8341 247.256 32.4524C228.877 28.0706 210.426 39.4172 206.045 57.7956C201.663 76.1741 213.01 94.6249 231.388 99.0066C249.766 103.388 268.217 92.0418 272.599 73.6634Z" fill="#64D09C"></path>
  <mask id="mask3_7630_38937" style="mask-type:luminance" maskUnits="userSpaceOnUse" x="205" y="31" width="69" height="69">
    <path d="M272.599 73.6634C276.981 55.2849 265.634 36.8341 247.256 32.4524C228.877 28.0706 210.426 39.4172 206.045 57.7956C201.663 76.1741 213.01 94.6249 231.388 99.0066C249.766 103.388 268.217 92.0418 272.599 73.6634Z" fill="white"></path>
  </mask>
  <g mask="url(#mask3_7630_38937)">
    <path opacity="0.3" d="M272.599 73.6634C276.981 55.2849 265.634 36.8341 247.256 32.4524C228.877 28.0706 210.426 39.4172 206.045 57.7956C201.663 76.1741 213.01 94.6249 231.388 99.0066C249.766 103.388 268.217 92.0418 272.599 73.6634Z" fill="white"></path>
  </g>
  <path d="M272.599 73.6634C276.981 55.2849 265.634 36.8341 247.256 32.4524C228.877 28.0706 210.426 39.4172 206.045 57.7956C201.663 76.1741 213.01 94.6249 231.388 99.0066C249.766 103.388 268.217 92.0418 272.599 73.6634Z" stroke="#263238" stroke-width="1.03125" stroke-linecap="round" stroke-linejoin="round"></path>
  <path d="M173.023 109.378H153.292C144.209 109.378 136.847 116.741 136.847 125.823V145.555C136.847 154.637 144.209 161.999 153.292 161.999H173.023C182.105 161.999 189.468 154.637 189.468 145.555V125.823C189.468 116.741 182.105 109.378 173.023 109.378Z" fill="#92DEBA" stroke="#263238" stroke-width="1.03125" stroke-linecap="round" stroke-linejoin="round"></path>
  <path d="M144.079 136.961V134.417L154.597 129.879V132.629L147.351 135.696L154.597 138.748V141.498L144.079 136.961Z" fill="white"></path>
  <path d="M166.258 123.665H169.53L160.043 147.727H156.771L166.258 123.665Z" fill="white"></path>
  <path d="M171.703 138.748L178.949 135.696L171.703 132.602V129.852L182.222 134.39V136.933L171.703 141.471V138.748Z" fill="white"></path>
  <path d="M510.409 64.6092C514.08 48.9107 504.329 33.2091 488.631 29.5387C472.932 25.8682 457.231 35.6188 453.56 51.3172C449.89 67.0156 459.64 82.7172 475.339 86.3877C491.037 90.0581 506.739 80.3076 510.409 64.6092Z" fill="#64D09C"></path>
  <mask id="mask4_7630_38937" style="mask-type:luminance" maskUnits="userSpaceOnUse" x="452" y="28" width="60" height="60">
    <path d="M510.409 64.6092C514.079 48.9107 504.328 33.2091 488.63 29.5387C472.932 25.8682 457.23 35.6188 453.56 51.3172C449.889 67.0156 459.64 82.7172 475.338 86.3877C491.037 90.0581 506.738 80.3076 510.409 64.6092Z" fill="white"></path>
  </mask>
  <g mask="url(#mask4_7630_38937)">
    <path opacity="0.3" d="M510.409 64.6092C514.079 48.9107 504.328 33.2091 488.63 29.5387C472.932 25.8682 457.23 35.6188 453.56 51.3172C449.889 67.0156 459.64 82.7172 475.338 86.3877C491.037 90.0581 506.738 80.3076 510.409 64.6092Z" fill="white"></path>
  </g>
  <path d="M510.409 64.6092C514.08 48.9107 504.329 33.2091 488.631 29.5387C472.932 25.8682 457.231 35.6188 453.56 51.3172C449.89 67.0156 459.64 82.7172 475.339 86.3877C491.037 90.0581 506.739 80.3076 510.409 64.6092Z" stroke="#263238" stroke-width="1.03125" stroke-linecap="round" stroke-linejoin="round"></path>
  <path d="M370.073 0.933105H343.687C333.359 0.933105 324.987 9.30534 324.987 19.633V46.0192C324.987 56.3468 333.359 64.7191 343.687 64.7191H370.073C380.401 64.7191 388.773 56.3468 388.773 46.0192V19.633C388.773 9.30534 380.401 0.933105 370.073 0.933105Z" fill="#92DEBA" stroke="#263238" stroke-width="1.03125" stroke-linecap="round" stroke-linejoin="round"></path>
  <path d="M587.532 126.482C591.262 110.837 581.603 95.1302 565.957 91.4C550.312 87.6699 534.605 97.3291 530.875 112.974C527.145 128.62 536.804 144.327 552.449 148.057C568.095 151.787 583.802 142.128 587.532 126.482Z" fill="#64D09C"></path>
  <mask id="mask5_7630_38937" style="mask-type:luminance" maskUnits="userSpaceOnUse" x="530" y="90" width="59" height="59">
    <path d="M587.532 126.483C591.262 110.838 581.603 95.1306 565.957 91.4005C550.312 87.6704 534.605 97.3296 530.875 112.975C527.145 128.62 536.804 144.327 552.449 148.057C568.095 151.787 583.802 142.128 587.532 126.483Z" fill="white"></path>
  </mask>
  <g mask="url(#mask5_7630_38937)">
    <path opacity="0.3" d="M587.532 126.483C591.262 110.838 581.603 95.1306 565.957 91.4005C550.312 87.6704 534.605 97.3296 530.875 112.975C527.145 128.62 536.804 144.327 552.449 148.057C568.095 151.787 583.802 142.128 587.532 126.483Z" fill="white"></path>
  </g>
  <path d="M587.532 126.482C591.262 110.837 581.603 95.1302 565.957 91.4C550.312 87.6699 534.605 97.3291 530.875 112.974C527.145 128.62 536.804 144.327 552.449 148.057C568.095 151.787 583.802 142.128 587.532 126.482Z" stroke="#263238" stroke-width="1.03125" stroke-linecap="round" stroke-linejoin="round"></path>
  <path d="M481.984 66.8L490.821 57.9629L494.608 61.7502L485.771 70.5874L481.984 66.8Z" stroke="white" stroke-width="2.07787" stroke-linecap="round" stroke-linejoin="round"></path>
  <path d="M469.359 45.3384L487.665 49.7569L489.559 59.2253L483.246 65.5375L473.778 63.6439L469.359 45.3384ZM469.359 45.3384L478.936 54.9153" stroke="white" stroke-width="2.07787" stroke-linecap="round" stroke-linejoin="round"></path>
  <path d="M480.723 59.2261C482.117 59.2261 483.248 58.0956 483.248 56.7012C483.248 55.3067 482.117 54.1763 480.723 54.1763C479.328 54.1763 478.198 55.3067 478.198 56.7012C478.198 58.0956 479.328 59.2261 480.723 59.2261Z" stroke="white" stroke-width="2.07787" stroke-linecap="round" stroke-linejoin="round"></path>
  <path d="M235.833 61.5618C234.128 61.5618 232.668 60.9545 231.453 59.7401C230.239 58.5256 229.632 57.0657 229.632 55.3602C229.632 53.6548 230.239 52.1949 231.453 50.9804C232.668 49.7659 234.128 49.1587 235.833 49.1587C237.539 49.1587 238.999 49.7659 240.213 50.9804C241.428 52.1949 242.035 53.6548 242.035 55.3602C242.035 57.0657 241.428 58.5256 240.213 59.7401C238.999 60.9545 237.539 61.5618 235.833 61.5618ZM253.043 79.3912L248.081 74.43C247.539 74.74 246.957 74.9984 246.337 75.2052C245.717 75.4119 245.058 75.5152 244.36 75.5152C242.422 75.5152 240.775 74.8367 239.419 73.4796C238.063 72.1225 237.385 70.4755 237.384 68.5385C237.384 66.6005 238.062 64.953 239.419 63.5959C240.776 62.2388 242.423 61.5607 244.36 61.5618C246.298 61.5618 247.946 62.2403 249.303 63.5974C250.66 64.9545 251.338 66.6016 251.337 68.5385C251.337 69.2362 251.234 69.8951 251.027 70.5152C250.82 71.1354 250.562 71.7168 250.252 72.2594L255.213 77.2207L253.043 79.3912ZM244.36 72.4145C245.446 72.4145 246.363 72.0398 247.112 71.2904C247.862 70.5411 248.236 69.6238 248.236 68.5385C248.236 67.4532 247.862 66.5359 247.112 65.7866C246.363 65.0372 245.446 64.6625 244.36 64.6625C243.275 64.6625 242.358 65.0372 241.608 65.7866C240.859 66.5359 240.484 67.4532 240.484 68.5385C240.484 69.6238 240.859 70.5411 241.608 71.2904C242.358 72.0398 243.275 72.4145 244.36 72.4145ZM235.872 63.1122C234.787 64.7142 234.244 66.523 234.244 68.5385C234.244 70.554 234.787 72.3628 235.872 73.9649H223.43V69.6625C223.43 68.784 223.65 67.97 224.089 67.2207C224.528 66.4713 225.136 65.9029 225.911 65.5153C227.229 64.8434 228.714 64.2749 230.368 63.8098C232.022 63.3447 233.857 63.1122 235.872 63.1122Z" fill="white"></path>
  <mask id="path-150-inside-1_7630_38937" fill="white">
    <path d="M364.07 35.4148C364.207 34.2809 364.31 33.147 364.31 31.9788C364.31 30.8106 364.207 29.6767 364.07 28.5428H369.877C370.152 29.6423 370.323 30.7934 370.323 31.9788C370.323 33.1642 370.152 34.3153 369.877 35.4148M361.029 44.9669C362.06 43.0599 362.85 40.9983 363.4 38.8508H368.468C366.803 41.7169 364.163 43.8879 361.029 44.9669ZM360.599 35.4148H352.559C352.387 34.2809 352.284 33.147 352.284 31.9788C352.284 30.8106 352.387 29.6595 352.559 28.5428H360.599C360.754 29.6595 360.874 30.8106 360.874 31.9788C360.874 33.147 360.754 34.2809 360.599 35.4148ZM356.579 45.6541C355.153 43.5925 354.002 41.3075 353.298 38.8508H359.861C359.156 41.3075 358.005 43.5925 356.579 45.6541ZM349.707 25.1068H344.691C346.338 22.233 348.977 20.0585 352.113 18.9907C351.082 20.8977 350.309 22.9593 349.707 25.1068ZM344.691 38.8508H349.707C350.309 40.9983 351.082 43.0599 352.113 44.9669C348.983 43.8874 346.348 41.7159 344.691 38.8508ZM343.282 35.4148C343.007 34.3153 342.835 33.1642 342.835 31.9788C342.835 30.7934 343.007 29.6423 343.282 28.5428H349.089C348.951 29.6767 348.848 30.8106 348.848 31.9788C348.848 33.147 348.951 34.2809 349.089 35.4148M356.579 18.2864C358.005 20.348 359.156 22.6501 359.861 25.1068H353.298C354.002 22.6501 355.153 20.348 356.579 18.2864ZM368.468 25.1068H363.4C362.862 22.979 362.066 20.925 361.029 18.9907C364.19 20.0731 366.819 22.2549 368.468 25.1068ZM356.579 14.7988C347.079 14.7988 339.399 22.5298 339.399 31.9788C339.399 36.5352 341.209 40.905 344.431 44.1269C346.027 45.7222 347.921 46.9876 350.005 47.851C352.089 48.7144 354.323 49.1588 356.579 49.1588C361.136 49.1588 365.506 47.3487 368.727 44.1269C371.949 40.905 373.759 36.5352 373.759 31.9788C373.759 29.7227 373.315 27.4887 372.452 25.4043C371.588 23.3199 370.323 21.426 368.727 19.8307C367.132 18.2354 365.238 16.9699 363.154 16.1066C361.07 15.2432 358.835 14.7988 356.579 14.7988Z"></path>
  </mask>
  <path d="M364.07 35.4148C364.207 34.2809 364.31 33.147 364.31 31.9788C364.31 30.8106 364.207 29.6767 364.07 28.5428H369.877C370.152 29.6423 370.323 30.7934 370.323 31.9788C370.323 33.1642 370.152 34.3153 369.877 35.4148M361.029 44.9669C362.06 43.0599 362.85 40.9983 363.4 38.8508H368.468C366.803 41.7169 364.163 43.8879 361.029 44.9669ZM360.599 35.4148H352.559C352.387 34.2809 352.284 33.147 352.284 31.9788C352.284 30.8106 352.387 29.6595 352.559 28.5428H360.599C360.754 29.6595 360.874 30.8106 360.874 31.9788C360.874 33.147 360.754 34.2809 360.599 35.4148ZM356.579 45.6541C355.153 43.5925 354.002 41.3075 353.298 38.8508H359.861C359.156 41.3075 358.005 43.5925 356.579 45.6541ZM349.707 25.1068H344.691C346.338 22.233 348.977 20.0585 352.113 18.9907C351.082 20.8977 350.309 22.9593 349.707 25.1068ZM344.691 38.8508H349.707C350.309 40.9983 351.082 43.0599 352.113 44.9669C348.983 43.8874 346.348 41.7159 344.691 38.8508ZM343.282 35.4148C343.007 34.3153 342.835 33.1642 342.835 31.9788C342.835 30.7934 343.007 29.6423 343.282 28.5428H349.089C348.951 29.6767 348.848 30.8106 348.848 31.9788C348.848 33.147 348.951 34.2809 349.089 35.4148M356.579 18.2864C358.005 20.348 359.156 22.6501 359.861 25.1068H353.298C354.002 22.6501 355.153 20.348 356.579 18.2864ZM368.468 25.1068H363.4C362.862 22.979 362.066 20.925 361.029 18.9907C364.19 20.0731 366.819 22.2549 368.468 25.1068ZM356.579 14.7988C347.079 14.7988 339.399 22.5298 339.399 31.9788C339.399 36.5352 341.209 40.905 344.431 44.1269C346.027 45.7222 347.921 46.9876 350.005 47.851C352.089 48.7144 354.323 49.1588 356.579 49.1588C361.136 49.1588 365.506 47.3487 368.727 44.1269C371.949 40.905 373.759 36.5352 373.759 31.9788C373.759 29.7227 373.315 27.4887 372.452 25.4043C371.588 23.3199 370.323 21.426 368.727 19.8307C367.132 18.2354 365.238 16.9699 363.154 16.1066C361.07 15.2432 358.835 14.7988 356.579 14.7988Z" fill="white"></path>
  <path d="M364.07 28.5428V28.0233H363.484L363.554 28.6053L364.07 28.5428ZM369.877 28.5428L370.381 28.4168L370.282 28.0233H369.877V28.5428ZM361.029 44.9669L360.572 44.7198L359.939 45.8916L361.198 45.458L361.029 44.9669ZM363.4 38.8508V38.3313H362.997L362.897 38.722L363.4 38.8508ZM368.468 38.8508L368.917 39.1117L369.37 38.3313H368.468V38.8508ZM360.599 35.4148V35.9343H361.053L361.114 35.485L360.599 35.4148ZM352.559 35.4148L352.046 35.4926L352.113 35.9343H352.559V35.4148ZM352.559 28.5428V28.0233H352.114L352.046 28.4638L352.559 28.5428ZM360.599 28.5428L361.114 28.4716L361.052 28.0233H360.599V28.5428ZM356.579 45.6541L356.152 45.9496L356.579 46.5672L357.007 45.9496L356.579 45.6541ZM353.298 38.8508V38.3313H352.609L352.799 38.994L353.298 38.8508ZM359.861 38.8508L360.36 38.994L360.55 38.3313H359.861V38.8508ZM349.707 25.1068V25.6263H350.101L350.208 25.2469L349.707 25.1068ZM344.691 25.1068L344.24 24.8485L343.794 25.6263H344.691V25.1068ZM352.113 18.9907L352.57 19.2378L353.2 18.0718L351.945 18.499L352.113 18.9907ZM344.691 38.8508V38.3313H343.79L344.241 39.1109L344.691 38.8508ZM349.707 38.8508L350.208 38.7107L350.101 38.3313H349.707V38.8508ZM352.113 44.9669L351.943 45.4579L353.204 45.8927L352.57 44.7198L352.113 44.9669ZM343.282 28.5428V28.0233H342.876L342.778 28.4168L343.282 28.5428ZM349.089 28.5428L349.605 28.6053L349.675 28.0233H349.089V28.5428ZM356.579 18.2864L357.007 17.9909L356.579 17.3732L356.152 17.9909L356.579 18.2864ZM359.861 25.1068V25.6263H360.55L360.36 24.9636L359.861 25.1068ZM353.298 25.1068L352.799 24.9636L352.609 25.6263H353.298V25.1068ZM368.468 25.1068V25.6263H369.368L368.918 24.8468L368.468 25.1068ZM363.4 25.1068L362.896 25.2341L362.995 25.6263H363.4V25.1068ZM361.029 18.9907L361.197 18.4993L359.947 18.0711L360.571 19.2362L361.029 18.9907ZM356.579 14.7988V14.2794V14.7988ZM356.579 49.1588V49.6782V49.1588ZM364.586 35.4773C364.724 34.3341 364.83 33.1769 364.83 31.9788H363.791C363.791 33.1172 363.69 34.2278 363.554 35.3523L364.586 35.4773ZM364.83 31.9788C364.83 30.7807 364.724 29.6235 364.586 28.4803L363.554 28.6053C363.69 29.7298 363.791 30.8404 363.791 31.9788H364.83ZM364.07 29.0623H369.877V28.0233H364.07V29.0623ZM369.373 28.6688C369.639 29.7353 369.804 30.8435 369.804 31.9788H370.843C370.843 30.7432 370.664 29.5494 370.381 28.4168L369.373 28.6688ZM369.804 31.9788C369.804 33.1141 369.639 34.2223 369.373 35.2888L370.381 35.5408C370.664 34.4082 370.843 33.2144 370.843 31.9788H369.804ZM361.486 45.2139C362.538 43.267 363.344 41.1653 363.903 38.9796L362.897 38.722C362.357 40.8312 361.581 42.8528 360.572 44.7198L361.486 45.2139ZM363.4 39.3703H368.468V38.3313H363.4V39.3703ZM368.019 38.5899C366.417 41.3481 363.876 43.4374 360.86 44.4757L361.198 45.458C364.45 44.3385 367.19 42.0857 368.917 39.1117L368.019 38.5899ZM360.599 34.8953H352.559V35.9343H360.599V34.8953ZM353.073 35.337C352.904 34.2236 352.804 33.1161 352.804 31.9788H351.765C351.765 33.1779 351.871 34.3383 352.046 35.4926L353.073 35.337ZM352.804 31.9788C352.804 30.8409 352.904 29.7166 353.073 28.6218L352.046 28.4638C351.871 29.6025 351.765 30.7802 351.765 31.9788H352.804ZM352.559 29.0623H360.599V28.0233H352.559V29.0623ZM360.085 28.6141C360.238 29.7204 360.355 30.8448 360.355 31.9788H361.394C361.394 30.7763 361.27 29.5986 361.114 28.4716L360.085 28.6141ZM360.355 31.9788C360.355 33.1125 360.238 34.2195 360.085 35.3446L361.114 35.485C361.27 34.3423 361.394 33.1816 361.394 31.9788H360.355ZM357.007 45.3586C355.608 43.3365 354.484 41.1024 353.797 38.7076L352.799 38.994C353.521 41.5126 354.699 43.8484 356.152 45.9496L357.007 45.3586ZM353.298 39.3703H359.861V38.3313H353.298V39.3703ZM359.361 38.7076C358.675 41.1024 357.551 43.3365 356.152 45.3586L357.007 45.9496C358.46 43.8484 359.638 41.5126 360.36 38.994L359.361 38.7076ZM349.707 24.5873H344.691V25.6263H349.707V24.5873ZM345.142 25.3651C346.726 22.601 349.264 20.5094 352.28 19.4825L351.945 18.499C348.69 19.6075 345.95 21.865 344.24 24.8485L345.142 25.3651ZM351.656 18.7437C350.602 20.6925 349.816 22.7918 349.207 24.9667L350.208 25.2469C350.801 23.1268 351.561 21.103 352.57 19.2378L351.656 18.7437ZM344.691 39.3703H349.707V38.3313H344.691V39.3703ZM349.207 38.9908C349.816 41.1658 350.602 43.2651 351.656 45.2139L352.57 44.7198C351.561 42.8546 350.801 40.8307 350.208 38.7107L349.207 38.9908ZM352.282 44.4758C349.271 43.4371 346.735 41.3476 345.14 38.5906L344.241 39.1109C345.961 42.0842 348.696 44.3377 351.943 45.4579L352.282 44.4758ZM343.786 35.2888C343.519 34.2223 343.355 33.1141 343.355 31.9788H342.316C342.316 33.2144 342.495 34.4082 342.778 35.5408L343.786 35.2888ZM343.355 31.9788C343.355 30.8435 343.519 29.7353 343.786 28.6688L342.778 28.4168C342.495 29.5494 342.316 30.7432 342.316 31.9788H343.355ZM343.282 29.0623H349.089V28.0233H343.282V29.0623ZM348.573 28.4803C348.435 29.6235 348.329 30.7807 348.329 31.9788H349.368C349.368 30.8404 349.468 29.7298 349.605 28.6053L348.573 28.4803ZM348.329 31.9788C348.329 33.1769 348.435 34.3341 348.573 35.4773L349.605 35.3523C349.468 34.2278 349.368 33.1172 349.368 31.9788H348.329ZM356.152 18.5819C357.55 20.603 358.675 22.8542 359.361 25.25L360.36 24.9636C359.638 22.4459 358.461 20.093 357.007 17.9909L356.152 18.5819ZM359.861 24.5873H353.298V25.6263H359.861V24.5873ZM353.797 25.25C354.484 22.8542 355.609 20.603 357.007 18.5819L356.152 17.9909C354.698 20.093 353.521 22.4459 352.799 24.9636L353.797 25.25ZM368.468 24.5873H363.4V25.6263H368.468V24.5873ZM363.903 24.9795C363.355 22.8106 362.544 20.717 361.487 18.7453L360.571 19.2362C361.588 21.1331 362.369 23.1474 362.896 25.2341L363.903 24.9795ZM360.861 19.4822C363.902 20.5236 366.431 22.6228 368.018 25.3669L368.918 24.8468C367.206 21.887 364.478 19.6225 361.197 18.4993L360.861 19.4822ZM356.579 14.2794C346.791 14.2794 338.88 22.2439 338.88 31.9788H339.919C339.919 22.8157 347.367 15.3183 356.579 15.3183V14.2794ZM338.88 31.9788C338.88 36.673 340.745 41.1749 344.064 44.4942L344.799 43.7596C341.674 40.6351 339.919 36.3974 339.919 31.9788H338.88ZM344.064 44.4942C345.708 46.1377 347.659 47.4415 349.806 48.3309L350.204 47.3711C348.182 46.5338 346.346 45.3066 344.799 43.7596L344.064 44.4942ZM349.806 48.3309C351.953 49.2204 354.255 49.6782 356.579 49.6782V48.6393C354.391 48.6393 352.225 48.2084 350.204 47.3711L349.806 48.3309ZM356.579 49.6782C361.274 49.6782 365.775 47.8135 369.095 44.4942L368.36 43.7596C365.236 46.884 360.998 48.6393 356.579 48.6393V49.6782ZM369.095 44.4942C372.414 41.1749 374.279 36.673 374.279 31.9788H373.24C373.24 36.3974 371.485 40.6351 368.36 43.7596L369.095 44.4942ZM374.279 31.9788C374.279 29.6545 373.821 27.3529 372.932 25.2055L371.972 25.6031C372.809 27.6244 373.24 29.7909 373.24 31.9788H374.279ZM372.932 25.2055C372.042 23.0581 370.738 21.107 369.095 19.4634L368.36 20.198C369.907 21.7451 371.134 23.5818 371.972 25.6031L372.932 25.2055ZM369.095 19.4634C367.451 17.8199 365.5 16.5161 363.353 15.6267L362.955 16.5865C364.976 17.4238 366.813 18.651 368.36 20.198L369.095 19.4634ZM363.353 15.6267C361.205 14.7372 358.904 14.2794 356.579 14.2794V15.3183C358.767 15.3183 360.934 15.7492 362.955 16.5865L363.353 15.6267Z" fill="#64D09C" mask="url(#path-150-inside-1_7630_38937)"></path>
  <path d="M565.541 123.733C566.586 123.733 567.506 123.161 567.98 122.297L572.969 113.252C573.087 113.041 573.147 112.803 573.144 112.561C573.141 112.319 573.075 112.083 572.953 111.874C572.83 111.666 572.655 111.493 572.446 111.373C572.236 111.253 571.998 111.19 571.757 111.19H551.131L549.82 108.402H545.263V111.19H548.051L553.068 121.768L551.186 125.168C550.169 127.036 551.507 129.307 553.625 129.307H570.349V126.52H553.625L555.158 123.733H565.541ZM552.454 113.977H569.387L565.541 120.945H555.757L552.454 113.977ZM553.625 130.701C552.092 130.701 550.852 131.955 550.852 133.488C550.852 135.021 552.092 136.276 553.625 136.276C555.158 136.276 556.412 135.021 556.412 133.488C556.412 131.955 555.158 130.701 553.625 130.701ZM567.562 130.701C566.029 130.701 564.788 131.955 564.788 133.488C564.788 135.021 566.029 136.276 567.562 136.276C569.095 136.276 570.349 135.021 570.349 133.488C570.349 131.955 569.095 130.701 567.562 130.701Z" fill="white"></path>
</svg>
