<?xml version="1.0" encoding="UTF-8"?>
<svg xmlns="http://www.w3.org/2000/svg" width="112" height="112" viewBox="0 0 112 112" fill="none">
  <rect x="29.4277" y="12.416" width="64.5725" height="86.0103" rx="3.53975" fill="url(#paint0_linear_10258_9471)"></rect>
  <path d="M29.4277 94.8906V104.931C29.4277 106.859 31.5303 108.423 34.1239 108.423H89.3041C91.8977 108.423 94.0003 106.859 94.0003 104.931V94.8906C94.0003 96.8192 91.8977 98.3828 89.3041 98.3828H34.1239C31.5303 98.3828 29.4277 96.8192 29.4277 94.8906Z" fill="url(#paint1_linear_10258_9471)"></path>
  <path d="M57.8945 79.2129H86.3989V88.0561H80.3401H75.3675H57.8945V79.2129Z" fill="url(#paint2_linear_10258_9471)"></path>
  <ellipse cx="0.623849" cy="0.602036" rx="0.623849" ry="0.602036" transform="matrix(1 0 0 -1 73.9668 84.2344)" fill="#FEF8EA"></ellipse>
  <ellipse cx="0.623849" cy="0.602036" rx="0.623849" ry="0.602036" transform="matrix(1 0 0 -1 71.5225 84.2344)" fill="#FEF8EA"></ellipse>
  <ellipse cx="0.623849" cy="0.602036" rx="0.623849" ry="0.602036" transform="matrix(1 0 0 -1 69.0781 84.2344)" fill="#FEF8EA"></ellipse>
  <path fill-rule="evenodd" clip-rule="evenodd" d="M57.8945 63.1562H86.3989V64.6824H57.8945V63.1562ZM57.8945 66.3689H77.0566V67.2258H57.8945V66.3689ZM77.0566 68.917H57.8945V69.7739H77.0566V68.917Z" fill="url(#paint3_linear_10258_9471)"></path>
  <rect x="58.1244" y="71.308" width="6.87974" height="2.14596" stroke="url(#paint4_linear_10258_9471)" stroke-width="0.24486"></rect>
  <mask id="path-9-inside-1_10258_9471" fill="white">
    <path d="M63.1797 72.135L63.5638 72.5191L63.6832 72.3997L63.299 72.0156L63.1797 72.135Z"></path>
    <path d="M64.0598 72.0232L63.5638 72.5191L63.6832 72.6386L64.1792 72.1426L64.0598 72.0232Z"></path>
  </mask>
  <path d="M63.1797 72.135L63.0065 71.9618L62.8334 72.135L63.0065 72.3081L63.1797 72.135ZM63.6832 72.3997L63.8563 72.5729L64.0294 72.3997L63.8563 72.2266L63.6832 72.3997ZM63.299 72.0156L63.4722 71.8425L63.299 71.6693L63.1259 71.8425L63.299 72.0156ZM64.0598 72.0232L64.233 71.8501L64.0599 71.6769L63.8867 71.85L64.0598 72.0232ZM63.6832 72.6386L63.5099 72.8116L63.6831 72.985L63.8563 72.8117L63.6832 72.6386ZM64.1792 72.1426L64.3523 72.3157L64.5255 72.1426L64.3523 71.9694L64.1792 72.1426ZM63.7369 72.3459L63.3528 71.9618L63.0065 72.3081L63.3907 72.6922L63.7369 72.3459ZM63.51 72.2266L63.3907 72.3459L63.7369 72.6922L63.8563 72.5729L63.51 72.2266ZM63.1259 72.1888L63.51 72.5729L63.8563 72.2266L63.4722 71.8425L63.1259 72.1888ZM63.3528 72.3081L63.4722 72.1888L63.1259 71.8425L63.0065 71.9618L63.3528 72.3081ZM63.7369 72.6923L64.2329 72.1964L63.8867 71.85L63.3907 72.3459L63.7369 72.6923ZM63.8564 72.4655L63.737 72.346L63.3906 72.6921L63.5099 72.8116L63.8564 72.4655ZM64.006 71.9694L63.51 72.4654L63.8563 72.8117L64.3523 72.3157L64.006 71.9694ZM63.8867 72.1963L64.006 72.3157L64.3523 71.9694L64.233 71.8501L63.8867 72.1963Z" fill="url(#paint5_linear_10258_9471)" mask="url(#path-9-inside-1_10258_9471)"></path>
  <mask id="path-11-inside-2_10258_9471" fill="white">
    <path d="M59.6791 72.6206V72.6195L59.8547 72.4366C59.9587 72.3291 59.991 72.2502 59.991 72.1594C59.991 72.0088 59.8691 71.918 59.734 71.918C59.6002 71.918 59.5154 71.9849 59.4688 72.0733L59.5679 72.1438C59.605 72.0793 59.6588 72.047 59.7245 72.047C59.7986 72.047 59.85 72.102 59.85 72.1749C59.85 72.2454 59.801 72.3064 59.734 72.3769L59.4699 72.6553L59.4723 72.7473H59.9993V72.6206H59.6791Z"></path>
  </mask>
  <path d="M59.6791 72.6206H59.4342V72.8655H59.6791V72.6206ZM59.6791 72.6195L59.5025 72.4498L59.4342 72.5209V72.6195H59.6791ZM59.8547 72.4366L59.6787 72.2664L59.6782 72.267L59.8547 72.4366ZM59.4688 72.0733L59.2521 71.9592L59.1522 72.1487L59.3269 72.2729L59.4688 72.0733ZM59.5679 72.1438L59.4261 72.3434L59.646 72.4997L59.7803 72.2657L59.5679 72.1438ZM59.734 72.3769L59.5564 72.2083L59.5564 72.2084L59.734 72.3769ZM59.4699 72.6553L59.2923 72.4868L59.2225 72.5603L59.2252 72.6617L59.4699 72.6553ZM59.4723 72.7473L59.2276 72.7537L59.2338 72.9922H59.4723V72.7473ZM59.9993 72.7473V72.9922H60.2442V72.7473H59.9993ZM59.9993 72.6206H60.2442V72.3758H59.9993V72.6206ZM59.9239 72.6206V72.6195H59.4342V72.6206H59.9239ZM59.8556 72.7891L60.0313 72.6063L59.6782 72.267L59.5025 72.4498L59.8556 72.7891ZM60.0308 72.6068C60.1638 72.4692 60.2358 72.3326 60.2358 72.1594H59.7461C59.7461 72.1724 59.7445 72.1785 59.7405 72.187C59.7347 72.1992 59.7196 72.2241 59.6787 72.2664L60.0308 72.6068ZM60.2358 72.1594C60.2358 71.8443 59.9731 71.6731 59.734 71.6731V72.1628C59.7405 72.1628 59.7455 72.1639 59.7488 72.1651C59.752 72.1663 59.7527 72.1671 59.7517 72.1663C59.7505 72.1653 59.7485 72.163 59.747 72.1597C59.7455 72.1563 59.7461 72.1554 59.7461 72.1594H60.2358ZM59.734 71.6731C59.5008 71.6731 59.337 71.7982 59.2521 71.9592L59.6854 72.1875C59.6919 72.175 59.6975 72.1707 59.6999 72.1692C59.7014 72.1683 59.7038 72.167 59.7083 72.1657C59.7129 72.1644 59.7211 72.1628 59.734 72.1628V71.6731ZM59.3269 72.2729L59.4261 72.3434L59.7098 71.9443L59.6106 71.8737L59.3269 72.2729ZM59.7803 72.2657C59.782 72.2628 59.7778 72.2712 59.7635 72.2799C59.7484 72.2892 59.7333 72.2919 59.7245 72.2919V71.8022C59.5616 71.8022 59.4314 71.8899 59.3556 72.0219L59.7803 72.2657ZM59.7245 72.2919C59.6985 72.2919 59.6653 72.2811 59.639 72.2539C59.6135 72.2275 59.6051 72.1968 59.6051 72.1749H60.0948C60.0948 71.9745 59.9414 71.8022 59.7245 71.8022V72.2919ZM59.6051 72.1749C59.6051 72.15 59.6146 72.1379 59.6097 72.1458C59.607 72.15 59.6019 72.1572 59.5926 72.1683C59.5833 72.1794 59.5716 72.1923 59.5564 72.2083L59.9116 72.5454C59.9684 72.4856 60.0948 72.3569 60.0948 72.1749H59.6051ZM59.5564 72.2084L59.2923 72.4868L59.6476 72.8238L59.9117 72.5454L59.5564 72.2084ZM59.2252 72.6617L59.2276 72.7537L59.7171 72.741L59.7147 72.6489L59.2252 72.6617ZM59.4723 72.9922H59.9993V72.5025H59.4723V72.9922ZM60.2442 72.7473V72.6206H59.7545V72.7473H60.2442ZM59.9993 72.3758H59.6791V72.8655H59.9993V72.3758Z" fill="url(#paint6_linear_10258_9471)" mask="url(#path-11-inside-2_10258_9471)"></path>
  <rect x="58.001" y="32.0098" width="28.4002" height="19.4021" fill="url(#paint7_linear_10258_9471)"></rect>
  <path fill-rule="evenodd" clip-rule="evenodd" d="M56.3207 11.5492C56.143 10.9933 56.0471 10.4009 56.0471 9.78603C56.0471 6.5905 58.6376 4 61.8331 4C61.8334 4 61.8337 4 61.8339 4C65.0291 4.00045 67.6192 6.59077 67.6192 9.78603C67.6192 10.4003 67.5234 10.9922 67.3461 11.5477L77.7138 25.744H45.9541L56.3207 11.5492Z" fill="url(#paint8_linear_10258_9471)"></path>
  <circle cx="61.8928" cy="12.2268" r="2.6311" fill="#FEF8EA"></circle>
  <path d="M36.067 49.6079C36.0734 49.6141 36.08 49.6202 36.0867 49.6261C36.3069 49.8188 36.5918 49.9414 36.8952 49.948C36.9388 49.9601 36.9839 49.9663 37.0293 49.9663C37.1797 49.9663 37.3233 49.9423 37.4238 49.9255C37.4251 49.9253 37.4265 49.925 37.4278 49.9248C37.6675 49.8923 37.9308 49.7771 38.1225 49.5853L38.1243 49.5835C39.0427 48.6652 39.8743 47.8336 40.562 47.1278C40.5623 47.1274 40.5626 47.1271 40.5629 47.1268L41.6799 45.9919L41.6812 45.9905C42.4365 45.2172 43.3364 44.3173 44.2933 43.3604C44.4873 43.1664 44.4887 42.8524 44.2964 42.6567L43.286 41.6282C43.0926 41.4314 42.7763 41.4285 42.5794 41.6218C41.6034 42.5797 40.6989 43.4842 39.9382 44.263C39.938 44.2632 39.9378 44.2634 39.9376 44.2636L38.8216 45.3976C38.5339 45.6853 38.2266 45.9966 37.901 46.3263L37.8329 46.3953C37.5863 46.6451 37.329 46.9055 37.0608 47.1753L34.2211 44.3997C34.0241 44.2071 33.7083 44.2103 33.5152 44.4069L32.5048 45.4354C32.4116 45.5302 32.3601 45.6582 32.3615 45.7911C32.363 45.924 32.4173 46.0508 32.5125 46.1436L36.067 49.6079Z" fill="url(#paint9_linear_10258_9471)" stroke="url(#paint10_linear_10258_9471)" stroke-width="0.999653" stroke-linejoin="round"></path>
  <path fill-rule="evenodd" clip-rule="evenodd" d="M38.5485 37.3647C39.6044 37.3647 40.6499 37.5727 41.6254 37.9768C42.601 38.3808 43.4873 38.9731 44.2339 39.7197C44.9806 40.4663 45.5728 41.3527 45.9769 42.3282C46.381 43.3037 46.5889 44.3493 46.5889 45.4052C46.5889 46.461 46.381 47.5066 45.9769 48.4821C45.5728 49.4576 44.9806 50.344 44.2339 51.0906C43.4873 51.8372 42.601 52.4295 41.6254 52.8336C40.6499 53.2376 39.6044 53.4456 38.5485 53.4456C36.416 53.4456 34.3709 52.5985 32.8631 51.0906C31.3552 49.5827 30.5081 47.5376 30.5081 45.4052C30.5081 43.2727 31.3552 41.2276 32.8631 39.7197C34.3709 38.2118 36.416 37.3647 38.5485 37.3647ZM51.9492 45.4052C51.949 43.3155 51.4601 41.2549 50.5216 39.3879C49.5831 37.5209 48.221 35.8993 46.544 34.6525C44.8671 33.4057 42.9219 32.5684 40.8637 32.2074C38.8055 31.8464 36.6914 31.9717 34.6902 32.5733C32.6891 33.1749 30.8564 34.2362 29.3385 35.6724C27.8206 37.1085 26.6596 38.8797 25.9482 40.8446C25.2368 42.8094 24.9948 44.9133 25.2415 46.9883C25.4881 49.0633 26.2166 51.0519 27.3687 52.7952L18.7851 61.377C18.2823 61.8798 17.9999 62.5617 17.9999 63.2728C17.9999 63.9838 18.2823 64.6658 18.7851 65.1685C19.2879 65.6713 19.9698 65.9538 20.6809 65.9538C21.3919 65.9538 22.0738 65.6713 22.5766 65.1685L31.1585 56.5849C33.1782 57.9201 35.522 58.6832 37.9407 58.793C40.3594 58.9028 42.7626 58.3553 44.8951 57.2087C47.0275 56.062 48.8094 54.359 50.0515 52.2807C51.2936 50.2024 51.9494 47.8264 51.9492 45.4052Z" fill="url(#paint11_linear_10258_9471)"></path>
  <defs>
    <linearGradient id="paint0_linear_10258_9471" x1="35.1746" y1="12.416" x2="90.7594" y2="96.7793" gradientUnits="userSpaceOnUse">
      <stop stop-color="#FF8800" stop-opacity="0.06"></stop>
      <stop offset="1" stop-color="#E63535"></stop>
    </linearGradient>
    <linearGradient id="paint1_linear_10258_9471" x1="29.4277" y1="97.6664" x2="37.5616" y2="130.123" gradientUnits="userSpaceOnUse">
      <stop stop-color="#FF8800" stop-opacity="0.06"></stop>
      <stop offset="1" stop-color="#E63535"></stop>
    </linearGradient>
    <linearGradient id="paint2_linear_10258_9471" x1="53.7178" y1="77.1795" x2="67.7485" y2="112.738" gradientUnits="userSpaceOnUse">
      <stop offset="0.000656016" stop-color="#FEBF85" stop-opacity="0.06"></stop>
      <stop offset="1" stop-color="#FEDF6E"></stop>
    </linearGradient>
    <linearGradient id="paint3_linear_10258_9471" x1="57.8945" y1="58.6726" x2="57.4567" y2="76.0401" gradientUnits="userSpaceOnUse">
      <stop stop-color="#FFBF75" stop-opacity="0.06"></stop>
      <stop offset="1" stop-color="#FEE39C"></stop>
    </linearGradient>
    <linearGradient id="paint4_linear_10258_9471" x1="57.7575" y1="71.2898" x2="58.9997" y2="75.3498" gradientUnits="userSpaceOnUse">
      <stop stop-color="#FDF8EC" stop-opacity="0.06"></stop>
      <stop offset="1" stop-color="#FED5B0"></stop>
    </linearGradient>
    <linearGradient id="paint5_linear_10258_9471" x1="63.0619" y1="71.7367" x2="63.7538" y2="72.801" gradientUnits="userSpaceOnUse">
      <stop stop-color="#FDF8EC" stop-opacity="0.06"></stop>
      <stop offset="1" stop-color="#FED5B0"></stop>
    </linearGradient>
    <linearGradient id="paint6_linear_10258_9471" x1="59.4062" y1="71.5467" x2="60.3046" y2="72.0977" gradientUnits="userSpaceOnUse">
      <stop stop-color="#FDF8EC" stop-opacity="0.06"></stop>
      <stop offset="1" stop-color="#FED5B0"></stop>
    </linearGradient>
    <linearGradient id="paint7_linear_10258_9471" x1="51.457" y1="32.0098" x2="69.7572" y2="70.3523" gradientUnits="userSpaceOnUse">
      <stop stop-color="#FFBF75" stop-opacity="0.06"></stop>
      <stop offset="1" stop-color="#FEE39C"></stop>
    </linearGradient>
    <linearGradient id="paint8_linear_10258_9471" x1="35.6954" y1="11.0235" x2="62.9198" y2="37.8674" gradientUnits="userSpaceOnUse">
      <stop stop-color="#FF8800" stop-opacity="0.06"></stop>
      <stop offset="1" stop-color="#E63535"></stop>
    </linearGradient>
    <linearGradient id="paint9_linear_10258_9471" x1="29.2829" y1="44.3972" x2="38.659" y2="53.7619" gradientUnits="userSpaceOnUse">
      <stop stop-color="#FF8800" stop-opacity="0.06"></stop>
      <stop offset="1" stop-color="#E63535"></stop>
    </linearGradient>
    <linearGradient id="paint10_linear_10258_9471" x1="29.2829" y1="44.3972" x2="38.659" y2="53.7619" gradientUnits="userSpaceOnUse">
      <stop stop-color="#FF8800" stop-opacity="0.06"></stop>
      <stop offset="1" stop-color="#E63535"></stop>
    </linearGradient>
    <linearGradient id="paint11_linear_10258_9471" x1="54.2609" y1="64.5917" x2="38.765" y2="31.6071" gradientUnits="userSpaceOnUse">
      <stop stop-color="#FF8800" stop-opacity="0.06"></stop>
      <stop offset="1" stop-color="#E63535"></stop>
    </linearGradient>
  </defs>
</svg>
