<svg width="105" height="22" viewBox="0 0 105 22" fill="none" xmlns="http://www.w3.org/2000/svg">
<path d="M9.54894 3.82256C9.8483 2.90125 11.1517 2.90125 11.4511 3.82256L12.6329 7.45985C12.7668 7.87187 13.1507 8.15083 13.5839 8.15083H17.4084C18.3771 8.15083 18.7799 9.39044 17.9962 9.95985L14.9021 12.2078C14.5516 12.4625 14.405 12.9138 14.5389 13.3258L15.7207 16.9631C16.02 17.8844 14.9656 18.6506 14.1818 18.0812L11.0878 15.8332C10.7373 15.5786 10.2627 15.5786 9.91222 15.8332L6.81815 18.0812C6.03444 18.6506 4.97996 17.8844 5.27931 16.9631L6.46114 13.3258C6.59501 12.9138 6.44835 12.4625 6.09787 12.2078L3.00381 9.95985C2.22009 9.39045 2.62287 8.15083 3.59159 8.15083H7.41606C7.84929 8.15083 8.23324 7.87187 8.36712 7.45985L9.54894 3.82256Z" fill="#FECF28"/>
<path d="M30.5489 3.82256C30.8483 2.90125 32.1517 2.90125 32.4511 3.82256L33.6329 7.45985C33.7668 7.87187 34.1507 8.15083 34.5839 8.15083H38.4084C39.3771 8.15083 39.7799 9.39044 38.9962 9.95985L35.9021 12.2078C35.5516 12.4625 35.405 12.9138 35.5389 13.3258L36.7207 16.9631C37.02 17.8844 35.9656 18.6506 35.1818 18.0812L32.0878 15.8332C31.7373 15.5786 31.2627 15.5786 30.9122 15.8332L27.8182 18.0812C27.0344 18.6506 25.98 17.8844 26.2793 16.9631L27.4611 13.3258C27.595 12.9138 27.4484 12.4625 27.0979 12.2078L24.0038 9.95985C23.2201 9.39045 23.6229 8.15083 24.5916 8.15083H28.4161C28.8493 8.15083 29.2332 7.87187 29.3671 7.45985L30.5489 3.82256Z" fill="#FECF28"/>
<path d="M51.5489 3.82256C51.8483 2.90125 53.1517 2.90125 53.4511 3.82256L54.6329 7.45985C54.7668 7.87187 55.1507 8.15083 55.5839 8.15083H59.4084C60.3771 8.15083 60.7799 9.39044 59.9962 9.95985L56.9021 12.2078C56.5516 12.4625 56.405 12.9138 56.5389 13.3258L57.7207 16.9631C58.02 17.8844 56.9656 18.6506 56.1818 18.0812L53.0878 15.8332C52.7373 15.5786 52.2627 15.5786 51.9122 15.8332L48.8182 18.0812C48.0344 18.6506 46.98 17.8844 47.2793 16.9631L48.4611 13.3258C48.595 12.9138 48.4484 12.4625 48.0979 12.2078L45.0038 9.95985C44.2201 9.39045 44.6229 8.15083 45.5916 8.15083H49.4161C49.8493 8.15083 50.2332 7.87187 50.3671 7.45985L51.5489 3.82256Z" fill="#FECF28"/>
<path d="M72.5489 3.82256C72.8483 2.90125 74.1517 2.90125 74.4511 3.82256L75.6329 7.45985C75.7668 7.87187 76.1507 8.15083 76.5839 8.15083H80.4084C81.3771 8.15083 81.7799 9.39044 80.9962 9.95985L77.9021 12.2078C77.5516 12.4625 77.405 12.9138 77.5389 13.3258L78.7207 16.9631C79.02 17.8844 77.9656 18.6506 77.1818 18.0812L74.0878 15.8332C73.7373 15.5786 73.2627 15.5786 72.9122 15.8332L69.8182 18.0812C69.0344 18.6506 67.98 17.8844 68.2793 16.9631L69.4611 13.3258C69.595 12.9138 69.4484 12.4625 69.0979 12.2078L66.0038 9.95985C65.2201 9.39045 65.6229 8.15083 66.5916 8.15083H70.4161C70.8493 8.15083 71.2332 7.87187 71.3671 7.45985L72.5489 3.82256Z" fill="#FECF28"/>
<path d="M93.5489 3.82256C93.8483 2.90125 95.1517 2.90125 95.4511 3.82256L96.6329 7.45985C96.7668 7.87187 97.1507 8.15083 97.5839 8.15083H101.408C102.377 8.15083 102.78 9.39044 101.996 9.95985L98.9021 12.2078C98.5516 12.4625 98.405 12.9138 98.5389 13.3258L99.7207 16.9631C100.02 17.8844 98.9656 18.6506 98.1818 18.0812L95.0878 15.8332C94.7373 15.5786 94.2627 15.5786 93.9122 15.8332L90.8182 18.0812C90.0344 18.6506 88.98 17.8844 89.2793 16.9631L90.4611 13.3258C90.595 12.9138 90.4484 12.4625 90.0979 12.2078L87.0038 9.95985C86.2201 9.39045 86.6229 8.15083 87.5916 8.15083H91.4161C91.8493 8.15083 92.2332 7.87187 92.3671 7.45985L93.5489 3.82256Z" fill="#FECF28"/>
</svg>
