<svg width="46" height="26" viewBox="0 0 46 26" fill="none" xmlns="http://www.w3.org/2000/svg">
<path d="M34.8962 8.13728C33.9667 8.62721 33.0428 9.01091 32.3881 9.17822L32.3875 9.17839C32.0037 9.27681 31.8024 9.31703 31.4995 9.33467C31.1636 9.35422 30.7041 9.34572 29.8054 9.31929C27.3846 9.23818 25.7119 8.97848 22.6942 8.22666C20.4907 7.67577 19.0161 7.37408 17.7421 7.39585C16.42 7.41844 15.3705 7.78657 14.0151 8.41585C13.5272 8.6414 13.2597 8.75372 13.0491 8.81822C12.8633 8.8751 12.7074 8.89919 12.4395 8.91257L12.4352 8.91281C11.9222 8.94105 11.7569 8.86732 11.6961 8.82586C11.6424 8.78917 11.5233 8.67744 11.3858 8.21543C11.3857 8.21492 11.3855 8.21441 11.3854 8.2139L34.8962 8.13728ZM34.8962 8.13728C34.648 8.04892 34.3756 7.95513 34.0988 7.86398L34.8962 8.13728ZM10.4205 14.6044C10.4365 15.3981 10.4398 15.794 10.419 16.0616C10.4021 16.2782 10.3719 16.391 10.2885 16.6123C10.2398 16.7377 10.1692 16.8902 10.0954 17.0281C10.0586 17.0967 10.0243 17.1557 9.99503 17.2017C9.96985 17.2413 9.95528 17.2604 9.95196 17.2648C9.95107 17.2659 9.95099 17.266 9.95176 17.2652L9.94304 17.2751L9.93657 17.283C9.85892 17.287 9.75183 17.2882 9.58875 17.2882C8.9561 17.2882 8.39371 17.297 7.81785 17.6003C7.30596 17.8699 6.83051 18.3531 6.19208 19.0064L6.19077 19.0078C5.4003 19.8202 5.10178 20.0919 4.84317 20.2187C4.63526 20.3208 4.41435 20.3491 3.58501 20.3382C2.97338 20.3283 2.42806 20.3382 2.03206 20.471C1.80123 20.5483 1.53864 20.6925 1.35417 20.9689C1.17587 21.236 1.14539 21.5163 1.14539 21.7104C1.14539 22.2493 1.42874 22.6647 1.74632 22.9414C2.05935 23.2141 2.45667 23.4031 2.86031 23.5294C3.67123 23.7834 4.69729 23.844 5.68756 23.652L5.69091 23.6513C6.95543 23.4008 7.70765 23.0188 8.92696 22.1098L8.93109 22.1067C9.71739 21.5131 10.1304 21.2749 10.5017 21.1743C10.8575 21.0779 11.2627 21.0842 12.1012 21.2222C14.2666 21.5919 16.3455 21.3306 18.0778 20.4425C18.2 20.3815 18.2561 20.3634 18.3638 20.3497C18.5181 20.3301 18.7601 20.3248 19.2636 20.3354L19.2678 20.3355C20.6514 20.3578 22.1828 20.1772 25.0726 19.6537C27.7916 19.1659 28.9367 19.0548 30.3099 19.1229C31.3694 19.178 32.1589 19.3107 32.8531 19.555C33.5425 19.7976 34.1802 20.1651 34.9162 20.7403L34.917 20.7409C35.9385 21.5372 36.6883 22.0761 37.3998 22.4544C38.1333 22.8443 38.7983 23.0491 39.6335 23.2217L39.6335 23.2217L39.6388 23.2228C40.1226 23.3195 40.3432 23.3901 40.5026 23.4732C40.6518 23.5511 40.7999 23.6671 41.0841 23.9611C41.3283 24.215 41.6439 24.5346 42.0799 24.663C42.5371 24.7976 42.9699 24.6796 43.2957 24.5828L43.2958 24.5829L43.3046 24.5801C43.9681 24.3752 44.4159 23.849 44.4855 23.1781C44.5493 22.5627 44.2851 21.962 43.8734 21.4875L43.8684 21.4817L43.8632 21.476C43.689 21.2824 43.4162 21.0852 43.1671 20.9227C42.896 20.7459 42.5723 20.5587 42.2395 20.3894C41.1749 19.8427 40.2939 19.0315 39.8692 18.299C39.6939 17.9738 39.3911 17.4884 39.1845 17.1837C38.9565 16.8406 38.894 16.5547 38.9013 16.3864C38.9073 16.247 38.9498 16.2261 38.9652 16.2184C38.9656 16.2183 38.9659 16.2181 38.9662 16.218L38.9662 16.218C38.9663 16.2179 38.9664 16.2179 38.9665 16.2178C38.9668 16.2176 38.9671 16.2175 38.9674 16.2173L38.9674 16.2172C38.9721 16.2142 38.9886 16.2045 39.0695 16.1983C39.1858 16.1892 39.3753 16.1923 39.7302 16.2179C40.8973 16.3116 41.9952 16.1153 42.9149 15.5842L42.9234 15.5793L42.9318 15.5742C43.0012 15.5319 43.09 15.4896 43.1707 15.4596C43.2027 15.4478 43.2272 15.4401 43.2433 15.4358C43.4926 15.424 43.7001 15.3329 43.8408 15.2518C44.0011 15.1594 44.1419 15.0414 44.2575 14.9192C44.4227 14.7445 44.6449 14.4436 44.7102 14.0701C44.8085 13.962 44.9006 13.8242 44.9608 13.6497C45.0418 13.4146 45.0387 13.1882 45.0111 13.0002C44.9617 12.6629 44.8014 12.2653 44.604 11.8197C43.7009 9.77716 42.5849 8.25944 41.2226 7.57177L41.2197 7.57033C40.9953 7.45812 40.8929 7.38763 40.8062 7.30761C40.7074 7.21653 40.5935 7.08033 40.3849 6.78533C38.4467 4.03445 35.3905 2.00759 32.1445 1.3463C31.8634 1.2869 31.6026 1.23795 31.4059 1.20472C31.3081 1.18819 31.2206 1.17458 31.1517 1.16551C31.1189 1.16119 31.08 1.15651 31.0424 1.15356C31.0253 1.15223 30.9932 1.14998 30.9554 1.15006C30.9374 1.1501 30.9022 1.15063 30.8588 1.15539L30.8566 1.15563C30.8327 1.15814 30.7071 1.17132 30.5682 1.24079L30.4448 1.30247L30.3473 1.40001C30.1598 1.58753 30.1096 1.80686 30.1001 1.94273C30.0911 2.07194 30.1139 2.17314 30.1271 2.2225C30.1536 2.32182 30.1925 2.39331 30.2044 2.41502C30.2078 2.42121 30.2112 2.42722 30.2146 2.43303C30.0402 2.45892 29.8676 2.49399 29.718 2.55032C29.5894 2.59872 29.4331 2.67805 29.2929 2.81753C29.1482 2.96145 29.0673 3.1226 29.0217 3.26524C28.9173 3.58681 28.9814 3.89661 29.0319 4.07511C29.0912 4.28493 29.1859 4.49548 29.292 4.69005C29.505 5.08088 29.8141 5.49908 30.1645 5.85562L30.1644 5.85569L30.1743 5.86543C31.0136 6.69197 32.1077 7.21081 34.0987 7.86393L10.4205 14.6044Z" stroke="#1C1C28" stroke-width="1.7"/>
<circle cx="40" cy="11" r="1" fill="#1C1C28"/>
</svg>
