<svg width="30" height="26" viewBox="0 0 30 26" fill="none" xmlns="http://www.w3.org/2000/svg">
<path fill-rule="evenodd" clip-rule="evenodd" d="M23.8456 18.5423C25.3271 18.8425 26.5864 19.2093 27.5112 19.6125C28.0389 19.8425 29.6446 20.5425 29.6446 21.8654C29.6446 23.2397 28.0878 24.2717 24.8852 25.0203C22.1872 25.6509 18.6134 25.9983 14.8223 25.9983C11.0312 25.9983 7.45748 25.6509 4.75941 25.0203C1.55681 24.2717 0 23.2397 0 21.8654C0 20.5356 1.61387 19.838 2.14461 19.6086L2.14482 19.6085C3.06467 19.211 4.31869 18.8484 5.79761 18.5504C6.09516 16.9071 6.83854 15.363 7.9476 14.1041L7.9351 14.0915L7.93501 14.0914C7.13111 13.2761 6.55026 12.6871 5.81069 10.6373C4.13106 5.98181 5.93473 1.1498 6.01233 0.94636L6.37336 0L7.25549 0.497855C7.44509 0.604866 11.9184 3.17215 13.5981 7.82763C14.1817 9.44535 14.2292 10.0602 14.2142 11.0216C14.6191 10.9949 15.0254 10.9949 15.4303 11.0216C15.4153 10.0602 15.4628 9.44535 16.0464 7.82763C17.7262 3.17215 22.1995 0.604866 22.3891 0.497855L23.2712 0L23.6323 0.94636C23.7099 1.1498 25.5135 5.98181 23.8339 10.6373C23.0943 12.6871 22.5135 13.2761 21.7096 14.0914L21.7095 14.0915L21.697 14.1041C22.8042 15.361 23.547 16.9021 23.8456 18.5423ZM5.65131 20.3626C2.90802 20.964 1.93079 21.628 1.75688 21.8808C1.89133 22.122 2.76811 22.8027 5.48303 23.3961C5.53133 23.4067 5.58024 23.417 5.6292 23.4273L5.65131 23.432V20.3626ZM7.39511 20.1726V23.7448C9.58782 24.0761 12.1544 24.2544 14.8224 24.2544C17.4904 24.2544 20.0569 24.076 22.2496 23.7447V20.1725C22.2496 18.093 21.4119 16.1651 19.8908 14.7442L19.2593 14.1542C19.2593 14.1542 20.2838 13.0538 20.468 12.867C21.1876 12.1373 21.584 11.7353 22.1937 10.0454C23.2174 7.20823 22.7151 4.19047 22.321 2.63372C21.0242 3.57996 18.7106 5.58196 17.6868 8.41947C17.1512 9.90398 17.1588 10.2715 17.177 11.1591V11.1591L17.177 11.1594C17.1821 11.4031 17.172 13.049 17.172 13.049L16.1565 12.865C15.2808 12.7063 14.3639 12.7063 13.4882 12.865L12.4727 13.049C12.4727 13.049 12.4627 11.4031 12.4677 11.1594V11.1594C12.486 10.2716 12.4935 9.90414 11.9579 8.41947C10.9341 5.58219 8.62088 3.58025 7.32361 2.63378C6.92963 4.19 6.42724 7.208 7.45102 10.0455C8.0607 11.7353 8.45712 12.1373 9.17669 12.867L9.1767 12.867L9.17675 12.8671C9.36095 13.0539 10.3854 14.1543 10.3854 14.1543L9.75389 14.7443C8.23283 16.1653 7.39511 18.093 7.39511 20.1726ZM23.9933 23.432L24.0154 23.4273C24.0644 23.417 24.1133 23.4067 24.1616 23.3961C26.8735 22.8034 27.7514 22.1235 27.8873 21.8815C27.7107 21.6268 26.7311 20.9588 23.9933 20.3553V23.432ZM11.1599 17.6282C11.1388 17.1573 11.5758 16.7563 12.0318 16.7563C12.5206 16.7563 12.8826 17.1558 12.9037 17.6282C12.9248 18.0991 12.4879 18.5001 12.0318 18.5001C11.543 18.5001 11.1811 18.1006 11.1599 17.6282ZM17.6119 16.7563C17.1558 16.7563 16.7189 17.1573 16.74 17.6282C16.7612 18.1006 17.1231 18.5001 17.6119 18.5001C18.068 18.5001 18.5049 18.0991 18.4838 17.6282C18.4626 17.1558 18.1007 16.7563 17.6119 16.7563ZM13.9209 19.5463H15.6647V20.8251H16.7546V22.5689H12.8311V20.8251H13.9209V19.5463Z" fill="#1C1C28"/>
</svg>
