<svg width="24" height="30" viewBox="0 0 24 30" fill="none" xmlns="http://www.w3.org/2000/svg">
<path fill-rule="evenodd" clip-rule="evenodd" d="M22.0144 21.8795C21.9966 22.844 21.6832 23.9174 21.3219 24.786C22.3967 25.3277 23.122 26.4429 23.1219 27.7046V29.302H3.3131C1.48627 29.302 0 27.8158 0 25.9889C0 24.4867 1.00766 23.2127 2.38267 22.8092C2.16478 20.1473 3.08381 17.5699 4.9665 15.635C7.01752 13.527 9.86441 12.5518 12.7796 12.9575L12.7795 12.5984C12.7795 12.0534 12.8639 11.5175 13.0246 11.0078C12.0796 10.4055 11.3167 9.68616 10.7519 8.86245C9.03749 6.36248 9.39177 3.20781 9.40772 3.07473L9.52015 2.13505L10.4372 2.36877C10.4954 2.38355 11.5355 2.65496 12.7349 3.35318C12.8588 2.45551 13.0595 1.84996 13.0784 1.79461L13.3825 0.898438L14.2316 1.31655C14.3517 1.37578 17.1894 2.79884 18.3503 5.59911C18.5768 6.14537 18.7356 6.73614 18.8246 7.36261C19.9893 7.56655 21.1696 8.23592 22.1531 9.26783C23.3275 10.5001 24.001 12.0085 24.001 13.4064C24.001 15.1971 22.372 16.3734 21.6764 16.8757C21.1824 17.2324 21.0088 17.9153 21.2727 18.4641C21.7869 19.534 22.0365 20.6831 22.0144 21.8795ZM11.0402 4.35104C11.087 5.30954 11.3088 6.73813 12.1215 7.92321C12.5307 8.5199 13.0846 9.05238 13.7725 9.51289C13.8508 9.40362 13.9325 9.29661 14.0192 9.19321C13.681 8.72505 13.4059 8.23686 13.1978 7.73522C12.8564 6.91162 12.7019 6.0697 12.6548 5.28812C12.093 4.86602 11.5124 4.56018 11.0402 4.35104ZM13.2538 25.3976C13.7347 25.9366 14.0288 26.6899 14.1338 27.6414V27.6413H21.4601C21.4296 26.8628 20.8382 26.2111 20.0606 26.1123L18.8539 25.959L19.4363 24.8911C19.8658 24.1033 20.3363 22.8152 20.3541 21.8488C20.3713 20.9143 20.1769 20.0175 19.776 19.1836C19.1591 17.9 19.5495 16.3632 20.7044 15.5293C21.4661 14.9793 22.3404 14.2409 22.3404 13.4064C22.3404 12.4452 21.821 11.3264 20.951 10.4135C20.0854 9.50514 19.0174 8.96143 18.092 8.95733C18.0834 8.95761 18.0749 8.95772 18.0664 8.95772H17.2814L17.2373 8.17398C17.1975 7.46513 17.0559 6.81275 16.8164 6.23505C16.2624 4.89896 15.1889 3.93697 14.4125 3.37803C14.26 4.32557 14.1812 5.7705 14.7321 7.09923C14.9617 7.65285 15.3035 8.19186 15.7482 8.70125L16.2909 9.32302L15.6724 9.8695C14.8895 10.5613 14.4404 11.5559 14.4404 12.5983L14.4409 14.8689L12.5645 14.6044C12.2047 14.5536 11.8457 14.5286 11.4904 14.5286C9.48522 14.5286 7.58532 15.3251 6.15695 16.7931C4.45533 18.542 3.71394 20.932 4.12281 23.3504C4.12734 23.3771 4.13033 23.4002 4.13233 23.4193L4.22892 24.3344L3.30873 24.3368C2.39999 24.3391 1.66076 25.0803 1.66076 25.989C1.66076 26.9001 2.40204 27.6414 3.31316 27.6414H12.463C12.2371 26.0991 11.363 26.0987 10.9114 26.0987H8.91582L9.87703 24.7793C10.5625 23.8386 10.6956 22.898 10.2841 21.9038C9.95254 21.1028 9.37954 20.5747 9.37378 20.5695L10.4835 19.334C10.5671 19.4087 11.3138 20.0958 11.7898 21.2005C12.1505 22.0378 12.3994 23.2268 11.8833 24.5589C12.4281 24.7058 12.8869 24.9862 13.2538 25.3976ZM19.65 11.4647H17.9893V13.1155H19.65V11.4647Z" fill="#1C1C28"/>
</svg>
