<svg xmlns:xlink="http://www.w3.org/1999/xlink" xmlns="http://www.w3.org/2000/svg" width="36" height="43" viewBox="0 0 36 43" fill="none">
  <path fill-rule="evenodd" clip-rule="evenodd" d="M33.9519 0.163452H1.77202C1.19139 0.163452 0.722656 0.632182 0.722656 1.21282V14.5045C0.722656 15.0851 1.19139 15.5538 1.77202 15.5538H3.82876C3.62591 16.0995 3.52096 16.6871 3.52096 17.3027V20.8005C3.52096 21.3812 3.98969 21.8499 4.57033 21.8499H12.965C13.5457 21.8499 14.0144 21.3812 14.0144 20.8005V17.3027C14.0144 16.6871 13.9094 16.0994 13.7066 15.5538V15.5469C13.5247 15.0082 13.6087 14.4136 13.9864 13.9869L14.4481 13.4552L17.2463 10.3072C17.6311 9.87347 17.5961 9.20885 17.1624 8.8241C16.7287 8.43936 16.0641 8.47431 15.6793 8.90801L11.9297 13.1264C11.0483 12.4548 9.95698 12.056 8.76772 12.056C7.39656 12.056 6.14434 12.5877 5.21392 13.4552H2.82139V2.26211H32.9025V13.4551H16.4628C15.8822 13.4551 15.4135 13.9238 15.4135 14.5045C15.4135 15.0851 15.8822 15.5538 16.4628 15.5538H33.9519C34.5325 15.5538 35.0013 15.0851 35.0013 14.5045V1.21282C35.0012 0.632182 34.5325 0.163452 33.9519 0.163452ZM5.61962 17.3027C5.61962 16.6521 5.81551 16.0575 6.1513 15.5538C6.71794 14.7074 7.68332 14.1547 8.76764 14.1547C9.41826 14.1547 10.0268 14.3506 10.5305 14.7004C10.8663 14.9243 11.1531 15.2181 11.384 15.5538C11.5659 15.8196 11.7058 16.1205 11.7967 16.4423C11.8737 16.7151 11.9157 17.002 11.9157 17.3027V19.7512H5.61962V17.3027ZM8.41773 11.3566C6.48697 11.3566 4.91992 9.78953 4.91992 7.85877C4.91992 5.92794 6.48697 4.36096 8.41773 4.36096C10.3485 4.36096 11.9155 5.92801 11.9155 7.85877C11.9155 9.78953 10.3485 11.3566 8.41773 11.3566ZM8.41773 9.25793C9.1873 9.25793 9.81689 8.62826 9.81689 7.85877C9.81689 7.08921 9.1873 6.45962 8.41773 6.45962C7.64817 6.45962 7.01858 7.08921 7.01858 7.85877C7.01858 8.62834 7.64824 9.25793 8.41773 9.25793ZM12.8452 27.0964C12.8452 29.0272 11.2781 30.5943 9.34738 30.5943C7.42358 30.5943 5.84957 29.0272 5.84957 27.0964C5.84957 25.1657 7.42358 23.5986 9.34738 23.5986C11.2781 23.5986 12.8452 25.1657 12.8452 27.0964ZM10.7465 27.0964C10.7465 26.3269 10.1239 25.6973 9.34738 25.6973C8.57789 25.6973 7.9483 26.327 7.94823 27.0964C7.94823 27.866 8.57789 28.4956 9.34738 28.4956C10.1239 28.4956 10.7465 27.8659 10.7465 27.0964ZM14.5925 37.5898H16.3414C16.922 37.5898 17.3908 38.0585 17.3908 38.6392C17.3908 39.2198 16.922 39.6885 16.3414 39.6885H2.35015C1.76951 39.6885 1.30078 39.2198 1.30078 38.6392C1.30078 38.0585 1.76951 37.5898 2.35015 37.5898H4.09916V36.1906C4.09916 33.2945 6.45666 30.944 9.34584 30.944C12.242 30.944 14.5925 33.2944 14.5925 36.1906V37.5898ZM9.34577 33.0426C7.6109 33.0426 6.19774 34.4557 6.19774 36.1906V37.24H12.4938V36.1906C12.4938 34.4557 11.0806 33.0426 9.34577 33.0426ZM33.8315 37.5898H32.0826V36.1906C32.0826 33.2944 29.7321 30.944 26.8359 30.944C23.9467 30.944 21.5892 33.2945 21.5892 36.1906V37.5898H19.8404C19.2597 37.5898 18.791 38.0585 18.791 38.6392C18.791 39.2198 19.2597 39.6885 19.8404 39.6885H33.8316C34.4123 39.6885 34.881 39.2198 34.881 38.6392C34.8808 38.0585 34.4121 37.5898 33.8315 37.5898ZM23.6878 36.1906C23.6878 34.4557 25.101 33.0426 26.8359 33.0426C28.5707 33.0426 29.9839 34.4557 29.9839 36.1906V37.24H23.6878V36.1906ZM30.3335 27.0968C30.3335 29.0276 28.7665 30.5946 26.8357 30.5946C24.9119 30.5946 23.3379 29.0276 23.3379 27.0968C23.3379 25.166 24.9119 23.599 26.8357 23.599C28.7665 23.599 30.3335 25.166 30.3335 27.0968ZM28.2349 27.0968C28.2349 26.3272 27.6122 25.6977 26.8357 25.6977C26.0662 25.6977 25.4365 26.3273 25.4365 27.0968C25.4365 27.8664 26.0662 28.496 26.8357 28.496C27.6122 28.496 28.2349 27.8663 28.2349 27.0968ZM26.9564 42.8366H9.46733C8.8867 42.8366 8.41797 42.3679 8.41797 41.7873C8.41797 41.2066 8.8867 40.7379 9.46733 40.7379H26.9564C27.537 40.7379 28.0057 41.2066 28.0057 41.7873C28.0057 42.3679 27.537 42.8366 26.9564 42.8366ZM30.1024 4.71057C30.683 4.71057 31.1518 5.1793 31.1518 5.75994C31.1518 6.34057 30.683 6.8093 30.1024 6.8093H17.5103C16.9297 6.8093 16.4609 6.34057 16.4609 5.75994C16.4609 5.1793 16.9297 4.71057 17.5103 4.71057H30.1024Z" fill="white"/>
</svg>