<svg width="164" height="38" viewBox="0 0 164 38" fill="none" xmlns="http://www.w3.org/2000/svg">
<g clip-path="url(#clip0_763_13291)">
<path d="M78.2814 23.0303C78.489 22.3913 79.393 22.3913 79.6007 23.0303L80.5682 26.0081C80.6611 26.2939 80.9274 26.4874 81.2279 26.4874H84.359C85.0309 26.4874 85.3102 27.3472 84.7667 27.7422L82.2336 29.5826C81.9905 29.7592 81.8887 30.0723 81.9816 30.358L82.9492 33.3359C83.1568 33.9749 82.4254 34.5063 81.8818 34.1113L79.3487 32.2709C79.1056 32.0943 78.7764 32.0943 78.5333 32.2709L76.0002 34.1113C75.4567 34.5063 74.7253 33.9749 74.9329 33.3359L75.9004 30.358C75.9933 30.0723 75.8916 29.7592 75.6485 29.5826L73.1154 27.7422C72.5718 27.3472 72.8512 26.4874 73.5231 26.4874H76.6541C76.9546 26.4874 77.221 26.2939 77.3138 26.0081L78.2814 23.0303Z" fill="#00B67A"/>
<path d="M93.3107 23.0303C93.5183 22.3913 94.4224 22.3913 94.63 23.0303L95.5976 26.0081C95.6904 26.2939 95.9567 26.4874 96.2572 26.4874H99.3883C100.061 26.4874 100.34 27.3472 99.796 27.7422L97.2629 29.5826C97.0198 29.7592 96.9181 30.0723 97.0109 30.358L97.9785 33.3359C98.1861 33.9749 97.4547 34.5063 96.9111 34.1113L94.378 32.2709C94.1349 32.0943 93.8058 32.0943 93.5627 32.2709L91.0296 34.1113C90.486 34.5063 89.7546 33.9749 89.9622 33.3359L90.9298 30.358C91.0226 30.0723 90.9209 29.7592 90.6778 29.5826L88.1447 27.7422C87.6011 27.3472 87.8805 26.4874 88.5524 26.4874H91.6835C91.984 26.4874 92.2503 26.2939 92.3431 26.0081L93.3107 23.0303Z" fill="#00B67A"/>
<path d="M108.34 23.0303C108.548 22.3913 109.452 22.3913 109.66 23.0303L110.627 26.0081C110.72 26.2939 110.986 26.4874 111.287 26.4874H114.418C115.09 26.4874 115.369 27.3472 114.826 27.7422L112.293 29.5826C112.049 29.7592 111.948 30.0723 112.041 30.358L113.008 33.3359C113.216 33.9749 112.484 34.5063 111.941 34.1113L109.408 32.2709C109.165 32.0943 108.835 32.0943 108.592 32.2709L106.059 34.1113C105.516 34.5063 104.784 33.9749 104.992 33.3359L105.959 30.358C106.052 30.0723 105.951 29.7592 105.707 29.5826L103.174 27.7422C102.631 27.3472 102.91 26.4874 103.582 26.4874H106.713C107.014 26.4874 107.28 26.2939 107.373 26.0081L108.34 23.0303Z" fill="#00B67A"/>
<path d="M123.37 23.0303C123.577 22.3913 124.481 22.3913 124.689 23.0303L125.657 26.0081C125.749 26.2939 126.016 26.4874 126.316 26.4874H129.447C130.119 26.4874 130.399 27.3472 129.855 27.7422L127.322 29.5826C127.079 29.7592 126.977 30.0723 127.07 30.358L128.037 33.3359C128.245 33.9749 127.514 34.5063 126.97 34.1113L124.437 32.2709C124.194 32.0943 123.865 32.0943 123.622 32.2709L121.089 34.1113C120.545 34.5063 119.814 33.9749 120.021 33.3359L120.989 30.358C121.082 30.0723 120.98 29.7592 120.737 29.5826L118.204 27.7422C117.66 27.3472 117.939 26.4874 118.611 26.4874H121.742C122.043 26.4874 122.309 26.2939 122.402 26.0081L123.37 23.0303Z" fill="#00B67A"/>
<path d="M138.399 23.0303C138.607 22.3913 139.511 22.3913 139.718 23.0303L140.686 26.0081C140.779 26.2939 141.045 26.4874 141.346 26.4874H144.477C145.149 26.4874 145.428 27.3472 144.884 27.7422L142.351 29.5826C142.108 29.7592 142.006 30.0723 142.099 30.358L143.067 33.3359C143.274 33.9749 142.543 34.5063 141.999 34.1113L139.466 32.2709C139.223 32.0943 138.894 32.0943 138.651 32.2709L136.118 34.1113C135.574 34.5063 134.843 33.9749 135.051 33.3359L136.018 30.358C136.111 30.0723 136.009 29.7592 135.766 29.5826L133.233 27.7422C132.689 27.3472 132.969 26.4874 133.641 26.4874H136.772C137.072 26.4874 137.339 26.2939 137.431 26.0081L138.399 23.0303Z" fill="#DDDDDD"/>
<path d="M138.399 23.0303C138.607 22.3913 139.511 22.3913 139.718 23.0303L140.686 26.0081C140.779 26.2939 141.045 26.4874 141.346 26.4874L142.099 30.358L143.067 33.3359C143.274 33.9749 142.543 34.5063 141.999 34.1113L139.466 32.2709C139.223 32.0943 138.894 32.0943 138.651 32.2709L136.118 34.1113C135.574 34.5063 134.843 33.9749 135.051 33.3359L136.018 30.358C136.111 30.0723 136.009 29.7592 135.766 29.5826L133.233 27.7422C132.689 27.3472 132.969 26.4874 133.641 26.4874H136.772C137.072 26.4874 137.339 26.2939 137.431 26.0081L138.399 23.0303Z" fill="#00B67A"/>
<path d="M53.3845 13.9999V5.2604H50.4297V4.15063H57.56V5.2604H54.5914V13.9999H53.3845Z" fill="#555770"/>
<path d="M61.1987 7.16089C61.3097 7.16089 61.4068 7.16089 61.4762 7.17476V8.42326C61.3236 8.40938 61.1433 8.39551 61.0323 8.39551C59.756 8.39551 58.9792 9.38044 58.9792 10.7399V13.9999H57.8555V7.24412H58.9792V8.43713H58.9931C59.4925 7.63254 60.2832 7.16089 61.1987 7.16089Z" fill="#555770"/>
<path d="M67.4469 7.24414H68.5705V13.9999H67.4469V12.8763H67.433C66.892 13.6531 66.0874 14.0831 65.2135 14.0831C63.6598 14.0831 62.6748 13.1953 62.6748 11.2671V7.24414H63.7985V10.948C63.7985 12.4878 64.3673 13.0566 65.4493 13.0566C66.5174 13.0566 67.4469 12.1272 67.4469 10.518V7.24414Z" fill="#555770"/>
<path d="M72.7102 14.0831C71.6005 14.0831 70.7264 13.7086 70.0605 13.1121L70.6432 12.2659C71.1703 12.7514 71.7531 13.0705 72.7102 13.0705C73.5148 13.0705 73.9865 12.6543 73.9865 12.1688C73.9865 11.5861 73.3622 11.3919 72.3773 11.059C71.2814 10.6706 70.352 10.2128 70.352 8.97814C70.352 7.93773 71.2953 7.16089 72.5854 7.16089C73.39 7.16089 74.1528 7.38284 74.9019 7.99322L74.3194 8.88104C73.7229 8.36777 73.0985 8.18743 72.5298 8.18743C72.0165 8.18743 71.4894 8.49262 71.4894 8.97814C71.4894 9.50529 72.0443 9.75499 72.7656 10.0325C74.1945 10.5873 75.1378 10.8232 75.1239 12.1549C75.1239 13.2092 74.3333 14.0831 72.7102 14.0831Z" fill="#555770"/>
<path d="M78.6814 14.0833C77.4745 14.0833 76.9196 13.3481 76.9196 11.9886V8.21534H76.0596V7.24429H76.9196V4.9415L78.0433 4.81665V7.24429H80.2906V8.21534H78.0433V11.8222C78.0433 12.6268 78.2375 13.029 78.8756 13.029C79.2779 13.029 79.6941 12.8626 80.0131 12.6822L80.3183 13.6672C79.9438 13.8753 79.4721 14.0833 78.6814 14.0833Z" fill="#555770"/>
<path d="M85.2743 7.16089C87.1886 7.16089 88.5759 8.67296 88.5759 10.6706C88.5759 12.7375 87.1332 14.0831 85.2743 14.0831C84.3171 14.0831 83.5125 13.6808 82.9715 13.0011H82.9438V16.7466H81.834V7.24412H82.9576V8.24292H82.9715C83.5403 7.53544 84.3726 7.16089 85.2743 7.16089ZM85.1633 13.0566C86.5367 13.0566 87.4383 12.03 87.4383 10.6706C87.4383 9.17235 86.4395 8.2013 85.1494 8.2013C83.8732 8.2013 82.916 9.28333 82.916 10.6706C82.916 12.0994 83.9703 13.0566 85.1633 13.0566Z" fill="#555770"/>
<path d="M90.9666 5.99574C90.5089 5.99574 90.1621 5.64894 90.1621 5.20503C90.1621 4.77499 90.5089 4.41431 90.9666 4.41431C91.4105 4.41431 91.7712 4.77499 91.7712 5.20503C91.7712 5.64894 91.4105 5.99574 90.9666 5.99574ZM90.3979 14V7.24424H91.5215V14H90.3979Z" fill="#555770"/>
<path d="M93.8652 14V3.79004H94.9889V14H93.8652Z" fill="#555770"/>
<path d="M100.316 14.0831C98.2075 14.0831 96.8203 12.5711 96.8203 10.629C96.8203 8.68683 98.2075 7.16089 100.316 7.16089C102.3 7.16089 103.784 8.57585 103.784 10.629C103.784 12.682 102.3 14.0831 100.316 14.0831ZM100.316 13.0566C101.62 13.0566 102.647 12.0578 102.647 10.629C102.647 9.18623 101.62 8.2013 100.316 8.2013C98.9011 8.2013 97.9578 9.28333 97.9578 10.629C97.9578 11.9746 98.915 13.0566 100.316 13.0566Z" fill="#555770"/>
<path d="M107.36 14.0833C106.154 14.0833 105.599 13.3481 105.599 11.9886V8.21534H104.739V7.24429H105.599V4.9415L106.722 4.81665V7.24429H108.97V8.21534H106.722V11.8222C106.722 12.6268 106.917 13.029 107.555 13.029C107.957 13.029 108.373 12.8626 108.692 12.6822L108.997 13.6672C108.623 13.8753 108.151 14.0833 107.36 14.0833Z" fill="#555770"/>
<path d="M121.519 13.9999H120.063L117.566 10.2405H115.707V13.9999H114.5V4.15063H117.996C120.271 4.15063 121.256 5.45462 121.256 7.20251C121.256 8.88105 120.34 9.82436 118.911 10.1296V10.1434L121.519 13.9999ZM115.707 5.2604V9.13075H117.676C119.313 9.13075 120.007 8.29842 120.007 7.17477C120.007 5.92627 119.189 5.2604 117.843 5.2604H115.707Z" fill="#555770"/>
<path d="M129.13 10.518C129.13 10.6983 129.103 10.9341 129.103 10.9758H123.901C124.053 12.2381 124.941 13.0566 126.162 13.0566C127.008 13.0566 127.646 12.6682 128.062 12.141L128.853 12.8208C128.27 13.5699 127.355 14.0831 126.12 14.0831C124.206 14.0831 122.763 12.682 122.763 10.629C122.763 8.58972 124.164 7.16089 125.995 7.16089C127.882 7.16089 129.13 8.57585 129.13 10.518ZM126.051 8.2013C124.996 8.2013 124.15 8.89491 123.942 10.0463H128.021C127.84 8.93653 127.133 8.2013 126.051 8.2013Z" fill="#555770"/>
<path d="M135.169 7.24414H136.389L133.643 13.9999H132.561L129.8 7.24414H131.007L133.088 12.5711H133.129L135.169 7.24414Z" fill="#555770"/>
<path d="M138.462 5.99574C138.005 5.99574 137.658 5.64894 137.658 5.20503C137.658 4.77499 138.005 4.41431 138.462 4.41431C138.906 4.41431 139.267 4.77499 139.267 5.20503C139.267 5.64894 138.906 5.99574 138.462 5.99574ZM137.894 14V7.24424H139.017V14H137.894Z" fill="#555770"/>
<path d="M147.216 10.518C147.216 10.6983 147.188 10.9341 147.188 10.9758H141.986C142.138 12.2381 143.026 13.0566 144.247 13.0566C145.093 13.0566 145.731 12.6682 146.148 12.141L146.938 12.8208C146.356 13.5699 145.44 14.0831 144.205 14.0831C142.291 14.0831 140.848 12.682 140.848 10.629C140.848 8.58972 142.249 7.16089 144.081 7.16089C145.967 7.16089 147.216 8.57585 147.216 10.518ZM144.136 8.2013C143.082 8.2013 142.236 8.89491 142.028 10.0463H146.106C145.926 8.93653 145.218 8.2013 144.136 8.2013Z" fill="#555770"/>
<path d="M156.639 7.24414H157.777L155.432 13.9999H154.378L152.852 9.07527H152.838L151.299 13.9999H150.272L147.928 7.24414H149.065L150.785 12.2936H150.813L152.353 7.24414H153.324L154.891 12.2936H154.919L156.639 7.24414Z" fill="#555770"/>
<path d="M161.214 14.0831C160.104 14.0831 159.23 13.7086 158.564 13.1121L159.147 12.2659C159.674 12.7514 160.256 13.0705 161.214 13.0705C162.018 13.0705 162.49 12.6543 162.49 12.1688C162.49 11.5861 161.866 11.3919 160.881 11.059C159.785 10.6706 158.855 10.2128 158.855 8.97814C158.855 7.93773 159.799 7.16089 161.089 7.16089C161.893 7.16089 162.656 7.38284 163.405 7.99322L162.823 8.88104C162.226 8.36777 161.602 8.18743 161.033 8.18743C160.52 8.18743 159.993 8.49262 159.993 8.97814C159.993 9.50529 160.548 9.75499 161.269 10.0325C162.698 10.5873 163.641 10.8232 163.627 12.1549C163.627 13.2092 162.837 14.0831 161.214 14.0831Z" fill="#555770"/>
<path d="M39.8924 14.5224H24.6589L19.9534 0L15.2335 14.5224L0 14.5079L12.3369 23.4921L7.61651 38L19.9534 29.0303L32.2754 38L27.5699 23.4921L39.8924 14.5224Z" fill="#00B67A"/>
<path d="M28.6323 26.7769L27.5735 23.4922L19.957 29.0304L28.6323 26.7769Z" fill="#005128"/>
<path d="M54.4297 33V31.4277H50.3555V30.2178L54.7646 23.3887H56.2959V29.8008H57.5947V31.4277H56.2959V33H54.4297ZM52.4199 29.8965H54.5596V26.4443L52.4199 29.8965Z" fill="#00B67A"/>
<path d="M59.8096 33.1162C59.4883 33.1162 59.2148 33.0137 58.9961 32.7949C58.7773 32.5762 58.668 32.3164 58.668 32.002C58.668 31.6943 58.7773 31.4277 58.9961 31.209C59.2148 30.9902 59.4883 30.8809 59.8096 30.8809C60.1172 30.8809 60.3838 30.9971 60.6025 31.2158C60.8213 31.4346 60.9375 31.7012 60.9375 32.002C60.9375 32.3096 60.8213 32.5693 60.6025 32.7881C60.3838 33.0068 60.1172 33.1162 59.8096 33.1162Z" fill="#00B67A"/>
<path d="M61.9014 23.3887H67.8828V24.6328L64.54 33.2051L62.6465 32.8633L65.7979 25.1045H61.9014V23.3887Z" fill="#00B67A"/>
</g>
<defs>
<clipPath id="clip0_763_13291">
<rect width="164" height="38" fill="white"/>
</clipPath>
</defs>
</svg>
