<svg xmlns:xlink="http://www.w3.org/1999/xlink" xmlns="http://www.w3.org/2000/svg" width="39" height="39" viewBox="0 0 39 39" fill="none">
  <path fill-rule="evenodd" clip-rule="evenodd" d="M8.16616 17.3196C7.54935 17.9144 6.71146 18.2812 5.78906 18.2812C3.89905 18.2812 2.36133 16.7435 2.36133 14.8535C2.36133 12.9635 3.89905 11.4258 5.78906 11.4258C7.67908 11.4258 9.2168 12.9635 9.2168 14.8535C9.2168 14.9969 9.20698 15.1377 9.18972 15.2763L12.5526 16.9578C13.1694 16.363 14.0073 15.9961 14.9297 15.9961C15.4581 15.9961 15.9592 16.1166 16.4067 16.3311L20.9776 11.7602C20.7631 11.3127 20.6426 10.8116 20.6426 10.2832C20.6426 8.39319 22.1803 6.85547 24.0703 6.85547C24.7722 6.85547 25.425 7.06762 25.969 7.43092L29.94 4.45278C29.8382 4.12905 29.7832 3.78479 29.7832 3.42773C29.7832 1.53772 31.3209 0 33.2109 0C35.101 0 36.6387 1.53772 36.6387 3.42773C36.6387 5.31775 35.101 6.85547 33.2109 6.85547C32.509 6.85547 31.8562 6.64332 31.3123 6.28001L27.3412 9.25816C27.443 9.58189 27.498 9.92615 27.498 10.2832C27.498 12.1732 25.9603 13.7109 24.0703 13.7109C23.5419 13.7109 23.0408 13.5904 22.5933 13.3759L18.0224 17.9468C18.2369 18.3943 18.3574 18.8954 18.3574 19.4238C18.3574 21.3138 16.8197 22.8516 14.9297 22.8516C13.0397 22.8516 11.502 21.3138 11.502 19.4238C11.502 19.2804 11.5118 19.1397 11.529 19.001L8.16616 17.3196ZM34.3535 3.42773C34.3535 2.79783 33.8408 2.28516 33.2109 2.28516C32.581 2.28516 32.0684 2.79783 32.0684 3.42773C32.0684 4.05764 32.581 4.57031 33.2109 4.57031C33.8408 4.57031 34.3535 4.05764 34.3535 3.42773ZM25.2129 10.2832C25.2129 9.6533 24.7002 9.14062 24.0703 9.14062C23.4404 9.14062 22.9277 9.6533 22.9277 10.2832C22.9277 10.9131 23.4404 11.4258 24.0703 11.4258C24.7002 11.4258 25.2129 10.9131 25.2129 10.2832ZM16.0723 19.4238C16.0723 18.7939 15.5596 18.2812 14.9297 18.2812C14.2998 18.2812 13.7871 18.7939 13.7871 19.4238C13.7871 20.0537 14.2998 20.5664 14.9297 20.5664C15.5596 20.5664 16.0723 20.0537 16.0723 19.4238ZM6.93164 14.8535C6.93164 14.2236 6.41897 13.7109 5.78906 13.7109C5.15916 13.7109 4.64648 14.2236 4.64648 14.8535C4.64648 15.4834 5.15916 15.9961 5.78906 15.9961C6.41897 15.9961 6.93164 15.4834 6.93164 14.8535ZM36.6387 36.7148H37.8574C38.4885 36.7148 39 37.2263 39 37.8574C39 38.4885 38.4885 39 37.8574 39H1.14258C0.511482 39 0 38.4885 0 37.8574C0 37.2263 0.511482 36.7148 1.14258 36.7148H2.36133V23.9941C2.36133 23.363 2.87281 22.8516 3.50391 22.8516H8.07422C8.70531 22.8516 9.2168 23.363 9.2168 23.9941V36.7148H11.502V28.5645C11.502 27.9334 12.0134 27.4219 12.6445 27.4219H17.2148C17.8459 27.4219 18.3574 27.9334 18.3574 28.5645V36.7148H20.6426V19.4238C20.6426 18.7927 21.1541 18.2812 21.7852 18.2812H26.3555C26.9866 18.2812 27.498 18.7927 27.498 19.4238V36.7148H29.7832V12.5684C29.7832 11.9373 30.2947 11.4258 30.9258 11.4258H35.4961C36.1272 11.4258 36.6387 11.9373 36.6387 12.5684V36.7148ZM34.3535 36.7148V13.7109H32.0684V36.7148H34.3535ZM25.2129 20.5664H22.9277V36.7148H25.2129V20.5664ZM16.0723 36.7148V29.707H13.7871V36.7148H16.0723ZM6.93164 25.1367H4.64648V36.7148H6.93164V25.1367Z" fill="white"/>
</svg>