<?xml version="1.0" encoding="UTF-8"?>
<svg xmlns="http://www.w3.org/2000/svg" width="642" height="610" viewBox="0 0 642 610" fill="none">
  <style>
    .tri-path {
  stroke-dasharray: 4;
  animation: dash 7s linear infinite;
}

@keyframes dash {
  to {
    stroke-dashoffset: 80;
  }
}
</style>
  <g clip-path="url(#clip0_3448_25450)">
    <path d="M292.759 240.73C289.26 237.843 286.533 235.829 284.586 233.88C277.273 226.562 272.293 217.239 270.276 207.09C268.258 196.94 269.294 186.419 273.252 176.859C277.21 167.298 283.912 159.126 292.511 153.377C301.111 147.628 311.22 144.559 321.562 144.559C331.904 144.559 342.014 147.628 350.613 153.377C359.213 159.126 365.915 167.298 369.873 176.859C373.831 186.419 374.866 196.94 372.849 207.09C370.832 217.239 365.852 226.562 358.539 233.88C356.591 235.836 353.865 237.843 350.366 240.73H350.417L360.104 258.111L350.727 241.055C375.694 227.29 403.35 219.115 431.785 217.095C460.219 215.074 488.752 219.257 515.413 229.355C517.218 218.563 518.125 207.641 518.125 196.7C518.125 88.0678 430.119 0 321.562 0C213.005 0 125 88.075 125 196.7C124.982 230.68 133.754 264.087 150.463 293.669C167.171 323.252 191.247 348.004 220.349 365.516L292.708 240.73H292.759Z" fill="url(#paint0_linear_3448_25450)"></path>
    <path d="M445.431 216.557C412.243 216.509 379.588 224.906 350.536 240.961L420.096 366.989L419.693 367.711C427.529 363.229 436.405 360.887 445.431 360.918C455.75 360.919 465.838 363.975 474.426 369.701C483.013 375.427 489.715 383.568 493.688 393.097C497.661 402.627 498.727 413.12 496.752 423.255C494.778 433.39 489.85 442.714 482.59 450.053C475.331 457.391 466.063 462.416 455.955 464.495C445.847 466.574 435.35 465.613 425.787 461.735C416.223 457.856 408.02 451.233 402.21 442.699C396.401 434.165 393.245 424.102 393.139 413.776V413.964C392.952 442.987 386.349 471.608 373.804 497.776C361.259 523.944 343.082 547.01 320.578 565.32C355.728 594.306 399.882 610.115 445.431 610.022C553.987 610.022 641.993 521.918 641.993 413.286C641.993 304.654 553.987 216.557 445.431 216.557Z" fill="url(#paint1_linear_3448_25450)"></path>
    <path d="M248.846 413.163C248.697 424.535 244.847 435.548 237.878 444.532C230.91 453.517 221.204 459.982 210.232 462.949C199.259 465.915 187.62 465.221 177.077 460.971C166.535 456.721 157.666 449.147 151.814 439.397C145.961 429.648 143.446 418.255 144.648 406.946C145.851 395.637 150.706 385.029 158.478 376.731C166.249 368.432 176.513 362.895 187.713 360.96C198.913 359.025 210.438 360.797 220.54 366.007L220.144 365.336C195.664 350.621 174.679 330.749 158.648 307.1C142.617 283.452 131.924 256.595 127.312 228.395C52.9331 256.415 0 328.278 0 412.521C0 521.145 88.0055 609.387 196.562 609.387C304.766 609.387 392.533 521.514 393.11 413.964H249.221L248.846 413.163Z" fill="url(#paint2_linear_3448_25450)"></path>
    <mask id="mask0_3448_25450" style="mask-type:alpha" maskUnits="userSpaceOnUse" x="124" y="0" width="394" height="366">
      <path d="M292.554 240.73C289.055 237.843 286.328 235.829 284.381 233.88C277.068 226.563 272.088 217.239 270.071 207.09C268.053 196.94 269.089 186.419 273.047 176.859C277.005 167.298 283.707 159.126 292.306 153.377C300.905 147.628 311.015 144.559 321.357 144.559C331.699 144.559 341.809 147.628 350.408 153.377C359.008 159.126 365.71 167.298 369.668 176.859C373.626 186.419 374.661 196.94 372.644 207.09C370.627 217.239 365.647 226.563 358.334 233.88C356.386 235.836 353.66 237.843 350.161 240.73H350.212L359.899 258.111L350.522 241.055C375.489 227.29 403.145 219.115 431.58 217.095C460.014 215.074 488.547 219.257 515.207 229.355C517.013 218.563 517.92 207.641 517.92 196.7C517.92 88.0678 429.914 0 321.357 0C212.8 0 124.795 88.075 124.795 196.7C124.777 230.68 133.549 264.087 150.258 293.669C166.966 323.252 191.042 348.004 220.144 365.516L292.503 240.73H292.554Z" fill="url(#paint3_linear_3448_25450)"></path>
    </mask>
    <g mask="url(#mask0_3448_25450)">
      <g opacity="0.5" filter="url(#filter0_f_3448_25450)">
        <path d="M515.771 227.384C416.224 188.045 339.399 255.895 336.514 269.971C367.676 249.471 469.243 251.444 508.918 262.031L515.771 227.384Z" fill="#0A4641" style="mix-blend-mode:multiply"></path>
      </g>
    </g>
    <mask id="mask1_3448_25450" style="mask-type:alpha" maskUnits="userSpaceOnUse" x="320" y="216" width="322" height="395">
      <path d="M445.431 216.557C412.243 216.509 379.588 224.906 350.536 240.961L420.096 366.989L419.693 367.711C427.529 363.229 436.405 360.887 445.431 360.918C455.75 360.919 465.838 363.975 474.426 369.701C483.013 375.427 489.715 383.568 493.688 393.097C497.661 402.627 498.727 413.12 496.752 423.255C494.778 433.39 489.85 442.714 482.59 450.053C475.331 457.391 466.063 462.416 455.955 464.495C445.847 466.574 435.35 465.613 425.787 461.735C416.223 457.856 408.02 451.233 402.21 442.699C396.401 434.165 393.245 424.102 393.139 413.776V413.964C392.952 442.987 386.349 471.608 373.804 497.776C361.259 523.944 343.082 547.01 320.578 565.32C355.728 594.306 399.882 610.115 445.431 610.022C553.987 610.022 641.993 521.918 641.993 413.286C641.993 304.654 553.987 216.557 445.431 216.557Z" fill="url(#paint4_linear_3448_25450)"></path>
    </mask>
    <g mask="url(#mask1_3448_25450)">
      <g opacity="0.5" filter="url(#filter1_f_3448_25450)">
        <path d="M323.622 574.748C407.461 501.106 385.576 398.034 374.591 388.735C377.276 427.238 325.384 520.343 296.459 552.09L323.622 574.748Z" fill="#600834" style="mix-blend-mode:multiply"></path>
      </g>
    </g>
    <mask id="mask2_3448_25450" style="mask-type:alpha" maskUnits="userSpaceOnUse" x="0" y="228" width="394" height="382">
      <path d="M248.846 413.163C248.697 424.535 244.847 435.548 237.878 444.532C230.91 453.516 221.204 459.982 210.232 462.949C199.259 465.915 187.62 465.221 177.077 460.971C166.535 456.721 157.666 449.147 151.814 439.397C145.961 429.648 143.446 418.255 144.648 406.946C145.851 395.637 150.706 385.029 158.478 376.73C166.249 368.432 176.513 362.895 187.713 360.96C198.913 359.025 210.438 360.797 220.54 366.007L220.144 365.336C195.664 350.621 174.679 330.749 158.648 307.1C142.617 283.452 131.924 256.595 127.312 228.394C52.9331 256.415 0 328.278 0 412.52C0 521.145 88.0055 609.386 196.562 609.386C304.766 609.386 392.533 521.513 393.11 413.964H249.221L248.846 413.163Z" fill="url(#paint5_linear_3448_25450)"></path>
    </mask>
    <g mask="url(#mask2_3448_25450)">
      <g opacity="0.6" filter="url(#filter2_f_3448_25450)">
        <path d="M122.109 223.17C131.521 329.852 226.547 368.214 240.417 364.495C208.147 345.789 164.439 254.029 156.138 213.791L122.109 223.17Z" fill="#620444" style="mix-blend-mode:multiply"></path>
      </g>
    </g>
    <g filter="url(#filter3_d_3448_25450)">
      <path d="M317.036 272.136C304.629 271.847 303.332 271.655 300.086 275.745C256.516 294.223 249.47 336.497 256.804 354.783L267.984 393.761C316.748 411.95 358.275 402.543 370.778 393.761L390.975 369.941C407.134 332.985 365.488 284.647 347.694 275.745C338.461 265.929 324.009 270.933 317.036 272.136Z" fill="white"></path>
    </g>
    <path class="tri-path" d="M286.575 220H356.419L441 372.753L408.374 429H234.193L199 370.767L286.575 220Z" stroke="white" stroke-width="2"></path>
    <path d="M292.359 241.014H350.068L419.953 367.627L392.996 414.248H249.078L220 365.981L292.359 241.014Z" fill="#FAFAFC"></path>
    <path d="M298.483 328.294L295.187 340.966H295.091L292.115 328.294H285.715L282.675 340.966H282.579L279.283 328.294H272.787L279.859 351.014H285.395L288.947 337.19H289.01L292.371 351.014H297.907L304.979 328.294H298.483ZM331.108 328.294L327.812 340.966H327.716L324.74 328.294H318.34L315.3 340.966H315.204L311.908 328.294H305.412L312.484 351.014H318.02L321.572 337.19H321.635L324.996 351.014H330.532L337.604 328.294H331.108ZM363.733 328.294L360.437 340.966H360.341L357.365 328.294H350.965L347.925 340.966H347.829L344.533 328.294H338.037L345.109 351.014H350.645L354.197 337.19H354.26L357.621 351.014H363.157L370.229 328.294H363.733Z" fill="#25245D"></path>
    <path d="M300.613 367.336V367.3C301.927 366.814 302.593 365.608 302.593 364.33C302.593 362.098 300.883 361.234 298.525 361.234H294.583V374.014H298.885C301.837 374.014 303.223 372.61 303.223 370.594C303.223 368.686 301.963 367.624 300.613 367.336ZM295.591 362.188H298.273C300.613 362.188 301.531 363.07 301.531 364.492C301.531 366.328 300.001 366.922 298.669 366.922H295.591V362.188ZM298.615 373.042H295.591V367.876H298.723C300.919 367.876 302.143 368.848 302.143 370.558C302.143 372.25 300.721 373.042 298.615 373.042ZM305.921 374.014H313.931V373.042H306.929V368.128H312.437V367.156H306.929V362.188H313.553V361.234H305.921V374.014ZM316.468 374.014H324.172V373.042H317.476V361.234H316.468V374.014ZM326.472 374.014H327.48V361.234H326.472V374.014ZM330.899 374.014H338.909V373.042H331.907V368.128H337.415V367.156H331.907V362.188H338.531V361.234H330.899V374.014ZM341.446 374.014H342.454V368.254H348.412V367.282H342.454V362.188H349.42V361.234H341.446V374.014Z" fill="#555770"></path>
    <path d="M297.831 318.014H298.857V306.188H302.907V305.234H293.835V306.188H297.831V318.014ZM313.841 318.014L310.223 312.794C312.221 312.524 313.589 311.336 313.589 309.014C313.589 306.854 312.365 305.234 309.485 305.234H305.129V318.014H306.137V312.848H309.017L312.563 318.014H313.841ZM306.137 306.188H309.449C311.357 306.188 312.509 307.124 312.509 309.014C312.509 310.634 311.591 311.876 309.143 311.876H306.137V306.188ZM316.592 318.014H317.6V305.234H316.592V318.014ZM321.019 318.014H322.027V312.848H325.051C327.643 312.848 329.443 311.678 329.443 309.014C329.443 306.854 328.273 305.234 325.357 305.234H321.019V318.014ZM322.027 311.876V306.188H325.339C327.193 306.188 328.363 307.124 328.363 309.014C328.363 310.616 327.463 311.876 325.015 311.876H322.027ZM331.918 318.014H339.622V317.042H332.926V305.234H331.918V318.014ZM341.814 318.014H349.824V317.042H342.822V312.128H348.33V311.156H342.822V306.188H349.446V305.234H341.814V318.014Z" fill="#555770"></path>
    <g style="mix-blend-mode:multiply" opacity="0.6">
      <path d="M222.114 366.801L221.977 366.736L222.114 366.801Z" fill="url(#paint6_linear_3448_25450)"></path>
    </g>
    <g style="mix-blend-mode:multiply" opacity="0.6">
      <path d="M348.156 242.08L348.279 241.993L348.156 242.08Z" fill="url(#paint7_linear_3448_25450)"></path>
    </g>
    <path d="M320.937 263.954C356.8 263.954 385.873 234.863 385.873 198.977C385.873 163.091 356.8 134 320.937 134C285.073 134 256 163.091 256 198.977C256 234.863 285.073 263.954 320.937 263.954Z" fill="white"></path>
    <path d="M339.615 178.98L333.229 203.532H333.043L327.277 178.98H314.877L308.987 203.532H308.801L302.415 178.98H289.829L303.531 223H314.257L321.139 196.216H321.263L327.773 223H338.499L352.201 178.98H339.615Z" fill="url(#paint8_linear_3448_25450)"></path>
    <path d="M444.937 475.954C480.8 475.954 509.873 446.863 509.873 410.977C509.873 375.091 480.8 346 444.937 346C409.073 346 380 375.091 380 410.977C380 446.863 409.073 475.954 444.937 475.954Z" fill="white"></path>
    <path d="M463.615 389.98L457.229 414.532H457.043L451.277 389.98H438.877L432.987 414.532H432.801L426.415 389.98H413.829L427.531 434H438.257L445.139 407.216H445.263L451.773 434H462.499L476.201 389.98H463.615Z" fill="url(#paint9_linear_3448_25450)"></path>
    <path d="M196.937 477.954C232.8 477.954 261.873 448.863 261.873 412.977C261.873 377.091 232.8 348 196.937 348C161.073 348 132 377.091 132 412.977C132 448.863 161.073 477.954 196.937 477.954Z" fill="white"></path>
    <path d="M215.615 391.98L209.229 416.532H209.043L203.277 391.98H190.877L184.987 416.532H184.801L178.415 391.98H165.829L179.531 436H190.257L197.139 409.216H197.263L203.773 436H214.499L228.201 391.98H215.615Z" fill="url(#paint10_linear_3448_25450)"></path>
    <path d="M229.157 508.504C224.643 510.101 221.939 513.396 220.718 516.892L225.536 518.774C226.381 516.379 228.192 514.206 230.843 513.268C235.392 511.658 239.749 513.945 241.423 518.674C243.223 523.761 241.069 528.151 236.663 529.711C234.012 530.649 231.199 529.992 229.073 528.769L226.499 533.227C230.498 535.641 234.851 535.753 238.362 534.511C246.672 531.569 249.263 524.082 246.689 516.81C243.722 508.428 236.106 506.044 229.157 508.504Z" fill="white"></path>
    <path d="M204.049 513.453C196.127 514.004 190.749 519.939 191.322 528.165C191.894 536.392 198.043 541.563 205.966 541.012C214.117 540.445 219.286 534.258 218.729 526.259C218.176 518.298 212.2 512.886 204.049 513.453ZM204.357 518.422C209.209 518.084 212.855 521.754 213.195 526.644C213.535 531.534 210.433 535.674 205.58 536.011C200.955 536.333 197.209 532.86 196.856 527.781C196.506 522.739 199.732 518.743 204.357 518.422Z" fill="white"></path>
    <path d="M160.235 535.915L171.669 522.765L171.743 522.782L176.43 539.585L181.693 540.777L187.655 514.464L182.466 513.289L178.763 529.632L178.689 529.616L174.847 516.822L171.474 516.058L162.493 525.946L162.419 525.929L166.123 509.586L160.971 508.418L155.009 534.731L160.235 535.915Z" fill="white"></path>
    <path d="M158.336 506.781L153.656 504.333L149.376 512.515L145.639 510.56C140.386 507.813 135.563 508.506 132.815 513.759C130.42 518.339 131.184 523.027 136.976 526.056L145.832 530.688L158.336 506.781ZM147.175 516.724L143.353 524.031L140.019 522.287C137.258 520.843 136.534 518.62 137.679 516.432C138.841 514.209 141.08 513.536 144.043 515.086L147.175 516.724Z" fill="white"></path>
    <path d="M125.37 484.625L121.131 480.988L111.206 508.022L115.1 511.362L140.252 497.392L136.012 493.755L131.115 496.663L123.241 489.908L125.37 484.625ZM126.963 499.109L117.349 504.83L117.291 504.781L121.454 494.383L126.963 499.109Z" fill="white"></path>
    <path d="M88.2564 480.835L103.2 470.376L103.222 470.407L95.1851 490.735L98.2354 495.094L120.34 479.624L117.29 475.265L102.626 485.528L102.582 485.465L110.426 465.458L107.289 460.975L85.1843 476.445L88.2564 480.835Z" fill="white"></path>
    <path d="M75.6711 454.174L86.8124 455.679L86.8399 455.75L79.6583 464.448L81.8719 470.151L92.7402 456.354L103.793 452.065L101.841 447.034L90.7878 451.324L73.43 448.4L75.6711 454.174Z" fill="white"></path>
    <path d="M68.8786 401.57L87.1786 406.641L87.179 406.679L68.9957 411.678L69.0613 417.339L87.3555 421.916L87.3564 421.992L69.1783 427.447L69.2443 433.146L96.1239 424.322L96.0672 419.421L76.8177 414.399L76.8164 414.285L95.9466 409.009L95.8894 404.07L68.8126 395.871L68.8786 401.57Z" fill="white"></path>
    <path d="M97.6561 394.396L98.8055 389.163L72.4537 383.375L71.3042 388.608L97.6561 394.396Z" fill="white"></path>
    <path d="M81.2969 357.872L98.134 364.887L98.1194 364.922L76.6494 369.026L74.6034 373.937L99.5082 384.314L101.554 379.403L85.0329 372.519L85.0621 372.449L106.158 368.354L108.262 363.302L83.3576 352.926L81.2969 357.872Z" fill="white"></path>
    <path d="M235.933 146.257C238.383 142.144 238.357 137.882 237.062 134.412L232.153 136.044C233.034 138.426 233.03 141.255 231.591 143.67C229.121 147.817 224.308 148.842 219.999 146.275C215.363 143.513 214.214 138.759 216.606 134.744C218.045 132.328 220.628 131.036 223.045 130.618L222.175 125.544C217.557 126.243 214.137 128.939 212.231 132.138C207.719 139.712 210.513 147.126 217.14 151.074C224.779 155.625 232.16 152.59 235.933 146.257Z" fill="white"></path>
    <path d="M242.794 135.429L254.757 122.841L251.314 119.569L243.042 128.273L226.928 112.959L223.237 116.843L242.794 135.429Z" fill="white"></path>
    <path d="M256.59 121.698L260.793 118.375L244.06 97.2114L239.857 100.534L256.59 121.698Z" fill="white"></path>
    <path d="M264.341 115.424L279.982 106.416L277.612 102.299L266.515 108.691L263.385 103.257L271.716 98.4592L269.365 94.376L261.034 99.1742L257.81 93.5762L268.215 87.5833L265.826 83.4342L250.876 92.0443L264.341 115.424Z" fill="white"></path>
    <path d="M291.364 74.4481L296.533 91.9401L296.497 91.9509L279.775 77.873L274.673 79.3809L282.32 105.255L287.422 103.747L282.349 86.5826L282.422 86.5611L298.901 100.354L304.149 98.8031L296.502 72.9294L291.364 74.4481Z" fill="white"></path>
    <path d="M313.527 98.2809L318.839 97.9937L317.641 75.834L325.116 75.4298L324.858 70.6488L304.633 71.7424L304.892 76.5234L312.329 76.1213L313.527 98.2809Z" fill="white"></path>
    <path d="M372.236 80.8135L361.701 96.6122L361.664 96.6007L362.598 77.7659L357.2 76.0588L347.135 92.0064L347.063 91.9835L347.562 73.0112L342.128 71.2927L342.109 99.5836L346.783 101.062L357.569 84.3456L357.677 84.38L356.71 104.201L361.42 105.69L377.671 82.5321L372.236 80.8135Z" fill="white"></path>
    <path d="M369.595 110.166L374.208 112.891L387.931 89.6617L383.317 86.9365L369.595 110.166Z" fill="white"></path>
    <path d="M409.705 106.236L397.778 120.036L397.749 120.011L400.562 98.334L396.537 94.8554L378.895 115.268L382.92 118.747L394.624 105.205L394.681 105.255L391.977 126.574L396.117 130.152L413.759 109.739L409.705 106.236Z" fill="white"></path>
    <path d="M511.765 335.074L512.023 323.146C515.503 324.216 518.747 323.255 521.252 319.72C524.241 315.504 524.082 310.734 518.781 306.976L510.442 301.065L494.839 323.075L499.148 326.13L504.488 318.597L507.03 320.399L506.619 331.426L511.765 335.074ZM512.004 307.994L515.228 310.28C517.77 312.082 518.251 314.426 516.823 316.441C515.372 318.487 512.948 318.818 510.251 316.906L507.213 314.753L512.004 307.994Z" fill="white"></path>
    <path d="M512.869 336.526L525.079 349.82L528.577 346.607L519.915 337.175L524.533 332.934L531.036 340.015L534.506 336.828L528.003 329.747L532.761 325.377L540.883 334.221L544.41 330.982L532.74 318.276L512.869 336.526Z" fill="white"></path>
    <path d="M530.005 358.48C532.294 362.247 537.004 365.388 542.037 362.329C546.486 359.626 545.611 355.844 544.743 350.903C544.183 347.641 544.031 345.999 545.479 345.163C546.941 344.275 548.495 344.931 549.462 346.523C550.331 347.952 550.675 350.055 550.248 352.938L555.289 353.476C555.811 350.091 555.264 346.777 553.495 343.939C550.904 339.822 546.105 338.291 542.403 340.541C538.052 343.185 538.54 347.646 539.417 351.871C540.173 355.236 540.305 356.845 538.617 357.871C537.188 358.74 535.51 358.247 534.168 356.039C533.063 354.22 532.598 351.479 533.566 348.535L528.531 347.859C527.49 351.782 528.189 355.493 530.005 358.48Z" fill="white"></path>
    <path d="M539.914 380.178C542.326 387.744 549.367 391.563 557.223 389.058C565.08 386.554 568.648 379.354 566.236 371.788C563.754 364.003 556.519 360.447 548.879 362.882C541.276 365.306 537.433 372.393 539.914 380.178ZM544.669 378.702C543.192 374.068 545.894 369.657 550.564 368.168C555.235 366.679 559.991 368.713 561.468 373.347C562.876 377.764 560.39 382.226 555.538 383.772C550.723 385.307 546.077 383.119 544.669 378.702Z" fill="white"></path>
    <path d="M544.585 406.196C544.906 413.142 549.532 416.961 556.555 416.637L572.346 415.909L572.099 410.557L556.65 411.269C552.36 411.467 549.746 409.229 549.596 405.965C549.433 402.434 552.265 400.326 556.137 400.147L571.587 399.435L571.34 394.083L555.549 394.811C548.184 395.15 544.288 399.743 544.585 406.196Z" fill="white"></path>
    <path d="M541.025 441.588L551.978 436.859C552.454 440.469 554.677 443.019 558.933 443.826C564.011 444.79 568.282 442.661 569.494 436.277L571.4 426.234L544.893 421.204L543.908 426.393L552.98 428.115L552.399 431.176L542.201 435.391L541.025 441.588ZM565.748 430.538L565.011 434.421C564.431 437.482 562.499 438.895 560.073 438.434C557.609 437.967 556.299 435.9 556.915 432.652L557.61 428.993L565.748 430.538Z" fill="white"></path>
    <path d="M535.209 453.941C533.237 458.304 533.744 462.536 535.421 465.837L540.115 463.663C538.971 461.395 538.657 458.584 539.814 456.021C541.801 451.623 546.468 450.062 551.039 452.127C555.956 454.349 557.634 458.943 555.709 463.203C554.552 465.765 552.13 467.34 549.777 468.028L551.212 472.972C555.723 471.757 558.817 468.693 560.35 465.299C563.98 457.265 560.369 450.213 553.339 447.037C545.236 443.376 538.244 447.222 535.209 453.941Z" fill="white"></path>
    <path d="M528.993 466.255L518.041 480.603L521.817 483.485L529.587 473.306L534.571 477.11L528.737 484.752L532.483 487.611L538.316 479.969L543.451 483.889L536.165 493.434L539.971 496.339L550.439 482.626L528.993 466.255Z" fill="white"></path>
    <path d="M501.438 526.285L496.128 508.053L496.16 508.032L509.973 520.87L514.755 517.837L509.027 499.87L509.092 499.829L523.29 512.423L528.103 509.37L506.464 491.146L502.324 493.772L508.175 512.786L508.079 512.847L493.532 499.349L489.36 501.995L496.624 529.338L501.438 526.285Z" fill="white"></path>
    <path d="M480.234 505.479L475.172 507.237L484.023 532.724L489.084 530.967L480.234 505.479Z" fill="white"></path>
    <path d="M457.635 538.481L454.823 520.459L454.861 520.453L469.575 536.618L474.831 535.798L470.672 509.141L465.415 509.961L468.175 527.645L468.1 527.656L453.588 511.806L448.182 512.65L452.341 539.307L457.635 538.481Z" fill="white"></path>
    <path d="M224.309 327.426C224.376 327.694 224.647 327.858 224.915 327.792L229.284 326.714C229.552 326.648 229.715 326.377 229.649 326.109C229.583 325.84 229.312 325.677 229.044 325.743L225.161 326.701L224.202 322.818C224.136 322.55 223.865 322.386 223.597 322.452C223.329 322.518 223.165 322.789 223.231 323.057L224.309 327.426ZM225.043 325.929L224.367 327.048L225.223 327.565L225.899 326.446L225.043 325.929Z" fill="white"></path>
    <path d="M256.214 272.461C256.28 272.729 256.551 272.893 256.819 272.827L261.188 271.748C261.456 271.682 261.62 271.411 261.554 271.143C261.487 270.875 261.216 270.711 260.948 270.778L257.065 271.736L256.107 267.852C256.04 267.584 255.769 267.421 255.501 267.487C255.233 267.553 255.07 267.824 255.136 268.092L256.214 272.461ZM256.947 270.964L256.271 272.083L257.127 272.6L257.803 271.481L256.947 270.964Z" fill="white"></path>
    <path d="M382.62 267.66C382.355 267.584 382.078 267.737 382.001 268.002L380.753 272.326C380.677 272.591 380.83 272.868 381.095 272.945C381.36 273.021 381.637 272.868 381.714 272.603L382.823 268.76L386.667 269.869C386.932 269.946 387.209 269.793 387.286 269.528C387.362 269.262 387.209 268.985 386.944 268.908L382.62 267.66ZM383.551 269.043L382.919 267.899L382.044 268.382L382.676 269.527L383.551 269.043Z" fill="white"></path>
    <path d="M413.07 322.532C412.804 322.455 412.527 322.608 412.451 322.874L411.203 327.197C411.126 327.462 411.279 327.74 411.544 327.816C411.81 327.893 412.087 327.74 412.163 327.474L413.273 323.631L417.116 324.741C417.381 324.817 417.658 324.664 417.735 324.399C417.811 324.134 417.658 323.857 417.393 323.78L413.07 322.532ZM414 323.915L413.369 322.771L412.493 323.254L413.125 324.398L414 323.915Z" fill="white"></path>
    <path d="M358.317 428.876C358.519 428.687 358.53 428.371 358.341 428.169L355.268 424.882C355.08 424.68 354.763 424.669 354.561 424.858C354.36 425.047 354.349 425.363 354.538 425.565L357.269 428.487L354.347 431.218C354.146 431.407 354.135 431.723 354.324 431.925C354.512 432.127 354.828 432.137 355.03 431.949L358.317 428.876ZM356.653 428.966L357.959 429.01L357.993 428.011L356.687 427.967L356.653 428.966Z" fill="white"></path>
    <path d="M294.771 428.876C294.972 428.687 294.983 428.371 294.794 428.169L291.721 424.882C291.533 424.68 291.216 424.669 291.015 424.858C290.813 425.047 290.802 425.363 290.991 425.565L293.722 428.487L290.8 431.218C290.599 431.407 290.588 431.723 290.777 431.925C290.965 432.127 291.282 432.137 291.483 431.949L294.771 428.876ZM293.106 428.966L294.412 429.01L294.446 428.011L293.14 427.967L293.106 428.966Z" fill="white"></path>
  </g>
  <defs>
    <filter id="filter0_f_3448_25450" x="312.514" y="191.27" width="227.258" height="102.7" color-interpolation-filters="sRGB">
      <feFlood flood-opacity="0" result="BackgroundImageFix"></feFlood>
      <feBlend mode="normal" in="SourceGraphic" in2="BackgroundImageFix" result="shape"></feBlend>
      <feGaussianBlur stdDeviation="12" result="effect1_foregroundBlur_3448_25450"></feGaussianBlur>
    </filter>
    <filter id="filter1_f_3448_25450" x="272.459" y="364.735" width="137.105" height="234.013" color-interpolation-filters="sRGB">
      <feFlood flood-opacity="0" result="BackgroundImageFix"></feFlood>
      <feBlend mode="normal" in="SourceGraphic" in2="BackgroundImageFix" result="shape"></feBlend>
      <feGaussianBlur stdDeviation="12" result="effect1_foregroundBlur_3448_25450"></feGaussianBlur>
    </filter>
    <filter id="filter2_f_3448_25450" x="98.1094" y="189.791" width="166.307" height="198.948" color-interpolation-filters="sRGB">
      <feFlood flood-opacity="0" result="BackgroundImageFix"></feFlood>
      <feBlend mode="normal" in="SourceGraphic" in2="BackgroundImageFix" result="shape"></feBlend>
      <feGaussianBlur stdDeviation="12" result="effect1_foregroundBlur_3448_25450"></feGaussianBlur>
    </filter>
    <filter id="filter3_d_3448_25450" x="196.287" y="211.792" width="256.34" height="250.374" color-interpolation-filters="sRGB">
      <feFlood flood-opacity="0" result="BackgroundImageFix"></feFlood>
      <feColorMatrix in="SourceAlpha" type="matrix" values="0 0 0 0 0 0 0 0 0 0 0 0 0 0 0 0 0 0 127 0" result="hardAlpha"></feColorMatrix>
      <feOffset></feOffset>
      <feGaussianBlur stdDeviation="29"></feGaussianBlur>
      <feComposite in2="hardAlpha" operator="out"></feComposite>
      <feColorMatrix type="matrix" values="0 0 0 0 0 0 0 0 0 0 0 0 0 0 0 0 0 0 0.72 0"></feColorMatrix>
      <feBlend mode="normal" in2="BackgroundImageFix" result="effect1_dropShadow_3448_25450"></feBlend>
      <feBlend mode="normal" in="SourceGraphic" in2="effect1_dropShadow_3448_25450" result="shape"></feBlend>
    </filter>
    <linearGradient id="paint0_linear_3448_25450" x1="-1.98281" y1="118.065" x2="226.69" y2="498.774" gradientUnits="userSpaceOnUse">
      <stop stop-color="#00CFDE"></stop>
      <stop offset="1" stop-color="#05A660"></stop>
    </linearGradient>
    <linearGradient id="paint1_linear_3448_25450" x1="320.578" y1="413.289" x2="641.993" y2="413.289" gradientUnits="userSpaceOnUse">
      <stop stop-color="#FF6900"></stop>
      <stop offset="1" stop-color="#E63535"></stop>
    </linearGradient>
    <linearGradient id="paint2_linear_3448_25450" x1="-126.978" y1="359.294" x2="131.788" y2="747.851" gradientUnits="userSpaceOnUse">
      <stop stop-color="#AC5DD9"></stop>
      <stop offset="1" stop-color="#004FC4"></stop>
    </linearGradient>
    <linearGradient id="paint3_linear_3448_25450" x1="124.795" y1="182.769" x2="517.92" y2="182.769" gradientUnits="userSpaceOnUse">
      <stop stop-color="#00AEEF"></stop>
      <stop offset="1" stop-color="#00C4A7"></stop>
    </linearGradient>
    <linearGradient id="paint4_linear_3448_25450" x1="320.549" y1="413.286" x2="641.993" y2="413.286" gradientUnits="userSpaceOnUse">
      <stop stop-color="#EC008C"></stop>
      <stop offset="1" stop-color="#F15A22"></stop>
    </linearGradient>
    <linearGradient id="paint5_linear_3448_25450" x1="0" y1="418.887" x2="393.11" y2="418.887" gradientUnits="userSpaceOnUse">
      <stop stop-color="#EC008C"></stop>
      <stop offset="1" stop-color="#602D91"></stop>
    </linearGradient>
    <linearGradient id="paint6_linear_3448_25450" x1="222.051" y1="366.76" x2="222.044" y2="366.773" gradientUnits="userSpaceOnUse">
      <stop stop-color="white"></stop>
      <stop offset="1"></stop>
    </linearGradient>
    <linearGradient id="paint7_linear_3448_25450" x1="348.225" y1="242.046" x2="348.217" y2="242.034" gradientUnits="userSpaceOnUse">
      <stop stop-color="white"></stop>
      <stop offset="1"></stop>
    </linearGradient>
    <linearGradient id="paint8_linear_3448_25450" x1="268.327" y1="191.796" x2="298.657" y2="249.579" gradientUnits="userSpaceOnUse">
      <stop stop-color="#00CFDE"></stop>
      <stop offset="1" stop-color="#05A660"></stop>
    </linearGradient>
    <linearGradient id="paint9_linear_3448_25450" x1="413" y1="412" x2="477" y2="412" gradientUnits="userSpaceOnUse">
      <stop stop-color="#FF6900"></stop>
      <stop offset="1" stop-color="#E63535"></stop>
    </linearGradient>
    <linearGradient id="paint10_linear_3448_25450" x1="144.327" y1="404.796" x2="174.657" y2="462.579" gradientUnits="userSpaceOnUse">
      <stop stop-color="#3E7BFA"></stop>
      <stop offset="1" stop-color="#6600CC"></stop>
    </linearGradient>
    <clipPath id="clip0_3448_25450">
      <rect width="642" height="610" fill="white"></rect>
    </clipPath>
  </defs>
</svg>
