<svg xmlns:xlink="http://www.w3.org/1999/xlink" xmlns="http://www.w3.org/2000/svg" width="55" height="62" viewBox="0 0 55 62" fill="none">
  <path fill-rule="evenodd" clip-rule="evenodd" d="M0 23.8788C0.00052135 21.7673 1.71316 20.0505 3.82619 20.0516C4.84116 20.0514 5.81466 20.4542 6.53279 21.1715C7.25092 21.8887 7.65493 22.8618 7.65603 23.8767V39.9036C7.65685 40.4063 7.55848 40.9042 7.36654 41.3689C7.1746 41.8335 6.89286 42.2557 6.53748 42.6113C6.1821 42.9669 5.76005 43.2488 5.29551 43.441C4.83098 43.6332 4.33309 43.7319 3.83036 43.7313C3.32757 43.7316 2.82966 43.6327 2.3651 43.4404C1.90054 43.2481 1.47844 42.9662 1.12293 42.6106C0.767433 42.2551 0.485504 41.8329 0.293269 41.3683C0.101034 40.9037 0.00226414 40.4058 0.00260681 39.903L0 23.8788ZM27.4336 19.4409L8.99746 19.4432C8.99434 13.5232 12.5416 8.36707 17.7916 5.65969L15.1197 0.785589C15.0856 0.724679 15.064 0.65758 15.0561 0.588219C15.0483 0.518857 15.0543 0.448626 15.0739 0.381633C15.0935 0.31464 15.1263 0.25223 15.1703 0.198056C15.2144 0.143882 15.2687 0.0990301 15.3303 0.0661252C15.3913 0.032445 15.4583 0.0111986 15.5276 0.00361662C15.5968 -0.00396535 15.6669 0.00226778 15.7337 0.021955C15.8005 0.0416423 15.8628 0.0743924 15.9169 0.118308C15.9709 0.162224 16.0158 0.216432 16.0487 0.277793L18.7498 5.19361C21.0104 4.18896 23.5499 3.62434 26.2307 3.62695C26.6351 3.62656 27.0362 3.63904 27.4336 3.66398V19.4409ZM27.4336 20.7716L9.13823 20.7747L9.14396 45.6092C9.14335 46.1456 9.24854 46.6768 9.45353 47.1724C9.65852 47.6681 9.95927 48.1184 10.3386 48.4977C10.7179 48.8769 11.1682 49.1776 11.6639 49.3825C12.1596 49.5875 12.6908 49.6926 13.2272 49.6919L16.0075 49.6929L16.0107 58.1722C16.0101 60.2837 17.7264 61.9999 19.8348 61.9999C21.9494 61.9999 23.6625 60.2821 23.6631 58.1696L23.661 49.6924L27.4336 49.6913V20.7716ZM17.3688 12.7745C17.6397 13.0457 18.0073 13.1982 18.3906 13.1984C18.7742 13.1988 19.1423 13.0469 19.4139 12.776C19.6855 12.5051 19.8384 12.1374 19.8389 11.7538C19.8381 11.3704 19.6854 11.0029 19.4143 10.7319C19.1431 10.4608 18.7756 10.3082 18.3922 10.3075C18.0088 10.3073 17.6411 10.4594 17.3699 10.7303C17.0987 11.0013 16.9462 11.3688 16.946 11.7522C16.9458 12.1355 17.0979 12.5033 17.3688 12.7745Z" fill="#32316B"/>
  <path fill-rule="evenodd" clip-rule="evenodd" d="M29.2539 49.5584C29.5734 49.4361 29.8847 49.3032 30.1991 49.1692C31.4506 48.6352 32.7502 48.0808 34.8073 48.0808C36.7689 48.0808 38.0096 48.6179 39.2024 49.1343C40.3433 49.6283 41.4404 50.1032 43.083 50.0711C46.499 50.0082 48.6632 46.9659 50.7543 43.9098C53.0332 40.5806 54.0456 37.3551 54.2059 36.8443C54.2158 36.8128 54.2224 36.7916 54.2259 36.7814C54.2244 36.7807 54.2201 36.779 54.2131 36.7761C53.8819 36.6413 47.5635 34.0689 47.4983 26.6413L47.5075 26.6386H47.5076C47.4466 20.4798 52.3778 17.4292 52.8848 17.1156C52.9003 17.106 52.9117 17.0989 52.9186 17.0944C49.9735 12.7864 45.385 12.1942 43.7501 12.1276C41.3634 11.8867 39.0483 12.7997 37.1559 13.5459C35.9523 14.0206 34.9197 14.4278 34.1485 14.4278C33.2915 14.4278 32.2321 14.0072 31.0433 13.5353C30.4738 13.3093 29.8747 13.0715 29.2539 12.8624V49.5584ZM43.8047 0C44.1276 2.93958 42.946 5.88472 41.1973 8.00637L41.1945 8.01005C39.4448 10.1271 36.5718 11.7759 33.7581 11.5566C33.3787 8.67718 34.7972 5.67932 36.421 3.79825C38.2299 1.67935 41.2852 0.102702 43.8047 0Z" fill="#32316B"/>
</svg>