<svg xmlns:xlink="http://www.w3.org/1999/xlink" xmlns="http://www.w3.org/2000/svg" width="58" height="66" viewBox="0 0 58 66" fill="none">
  <path d="M50.7504 12.804C50.7125 12.4568 50.4031 12.3021 50.1727 12.3021C49.9423 12.3021 44.8898 11.917 44.8898 11.917C44.8898 11.917 41.3811 8.4082 40.9565 8.06095C40.5713 7.67584 39.8373 7.79104 39.5296 7.86839C39.4917 7.86839 38.7577 8.10045 37.5629 8.48555C36.3681 5.05249 34.324 1.92883 30.6606 1.92883H30.3133C29.3077 0.617161 27.9977 0 26.9181 0C18.4342 0 14.3461 10.6053 13.0739 16.005C9.75773 17.0468 7.40429 17.7397 7.13438 17.8565C5.2829 18.4342 5.24505 18.4737 5.01299 20.2083C4.82044 21.52 0 58.8113 0 58.8113L37.5234 65.8305L57.8864 61.4347C57.9243 61.3573 50.7899 13.1513 50.7504 12.804ZM35.4794 9.02372C34.5544 9.29362 33.4353 9.64088 32.3178 10.026V9.33312C32.3178 7.25123 32.0479 5.55445 31.546 4.20328C33.4732 4.43533 34.6696 6.55672 35.4794 9.02372ZM29.1925 4.62789C29.6945 5.93956 30.0418 7.79104 30.0418 10.3354V10.7205C27.9599 11.3755 25.7611 12.0322 23.485 12.7645C24.7572 7.90625 27.188 5.51495 29.1925 4.62789ZM26.7239 2.23659C27.109 2.23659 27.4958 2.39129 27.8035 2.6217C25.065 3.89388 22.1734 7.09488 20.9769 13.5743C19.1649 14.1519 17.4286 14.6539 15.7713 15.1937C17.1604 10.258 20.6313 2.23659 26.7239 2.23659Z" fill="#32316B"/>
  <path d="M50.1709 12.2246C49.9388 12.2246 44.8879 11.8395 44.8879 11.8395C44.8879 11.8395 41.3792 8.33077 40.9546 7.98352C40.7982 7.82882 40.6057 7.75146 40.4526 7.75146L37.6367 65.8304L57.9997 61.4346C57.9997 61.4346 50.8654 13.1512 50.8259 12.804C50.6712 12.4567 50.4013 12.302 50.1709 12.2246Z" fill="#32316B"/>
  <path d="M30.3046 24.0171L27.8771 31.3391C27.8771 31.3391 25.6768 30.1623 23.06 30.1623C19.1529 30.1623 18.9637 32.6277 18.9637 33.235C18.9637 36.5726 27.6879 37.8629 27.6879 45.7148C27.6879 51.8979 23.7808 55.8807 18.5078 55.8807C12.1354 55.8807 8.94922 51.9358 8.94922 51.9358L10.6559 46.3221C10.6559 46.3221 13.9935 49.2055 16.8012 49.2055C18.6592 49.2055 19.4179 47.7638 19.4179 46.7022C19.4179 42.3393 12.2868 42.1501 12.2868 34.9433C12.2868 28.9116 16.6119 23.0707 25.3739 23.0707C28.6342 23.0312 30.3046 24.0171 30.3046 24.0171Z" fill="white"/>
</svg>