<svg xmlns:xlink="http://www.w3.org/1999/xlink" xmlns="http://www.w3.org/2000/svg" width="68" height="55" viewBox="0 0 68 55" fill="none">
  <path d="M43.2368 15.1043L45.413 15.1415L51.3261 9.22842L51.6127 6.72306C46.9226 2.54464 40.7303 0 33.9637 0C21.713 0 11.3731 8.33562 8.3125 19.6267C8.95795 19.1766 10.338 19.5142 10.338 19.5142L22.1535 17.5715C22.1535 17.5715 22.7608 16.5661 23.0686 16.616C24.4502 15.0982 26.1337 13.8857 28.0112 13.0562C29.8886 12.2268 31.9187 11.7988 33.9712 11.7996C37.4744 11.807 40.7017 13.0448 43.2368 15.0927V15.1043Z" fill="#32316B"/>
  <path d="M59.6251 19.6502C58.2524 14.5864 55.4233 10.1149 51.6047 6.72314L43.232 15.0959C46.5866 17.803 48.7385 21.9453 48.7385 26.5823V28.0601C52.8118 28.0601 56.1208 31.3765 56.1208 35.4424C56.1208 39.5157 52.8043 42.8247 48.7385 42.8247H33.9738L32.4961 44.3109V53.171L33.9738 54.6413H48.7385C53.828 54.6343 58.707 52.6094 62.306 49.0107C65.9049 45.4119 67.93 40.533 67.9373 35.4435C67.9299 28.9094 64.6464 23.1279 59.6251 19.6502Z" fill="#32316B"/>
  <path d="M19.2094 54.6498H33.9655V42.8236H19.2094C18.161 42.8238 17.1248 42.5986 16.1711 42.1633L14.0405 42.8162L8.12743 48.7293L7.60938 50.7251C10.9416 53.2672 15.0172 54.6432 19.2083 54.6413L19.2094 54.6498Z" fill="#32316B"/>
  <path d="M19.1989 16.2524C14.1094 16.2595 9.23029 18.2843 5.63135 21.883C2.03242 25.4818 0.00730204 30.3607 0 35.4503C0 41.685 2.98626 47.2286 7.60737 50.7404L16.168 42.1797C14.8723 41.5954 13.7726 40.6498 13.0007 39.4562C12.2289 38.2626 11.8178 36.8717 11.8166 35.4503C11.8166 31.3769 15.133 28.068 19.1989 28.068C22.1926 28.068 24.7659 29.8727 25.9294 32.4205L34.4901 23.8598C30.9794 19.2387 25.4347 16.2524 19.2 16.2524H19.1989Z" fill="#32316B"/>
</svg>