<svg xmlns:xlink="http://www.w3.org/1999/xlink" xmlns="http://www.w3.org/2000/svg" width="58" height="58" viewBox="0 0 58 58" fill="none">
  <path d="M10.3631 29.1544L9.28012 28.0733C5.80008 24.5932 4.79413 19.7212 6.03208 15.3131C2.55203 14.5383 0 11.4452 0 7.73313C0 3.48005 3.48005 0 7.73313 0C11.6002 0 14.7721 2.78404 15.3883 6.49518C19.5644 5.48923 24.1274 6.64924 27.3755 9.89819L27.8395 10.3622L22.1164 16.0852L21.6524 15.6212C19.7964 13.7652 16.7803 13.7652 14.9243 15.6212C13.0683 17.4773 13.0683 20.4933 14.9243 22.3493L27.7633 35.1874L22.0403 40.9105L16.0082 34.8784L10.3631 29.1544Z" fill="#32316B"/>
  <path d="M16.7812 22.8139L29.6194 9.97576C33.0215 6.57365 37.9724 5.48976 42.3016 6.72862C42.8426 2.94045 46.0898 0.0766602 49.9577 0.0766602C54.2108 0.0766602 57.6908 3.55671 57.6908 7.80979C57.6908 11.7538 54.7518 15.0019 50.9627 15.4659C52.1998 19.7978 51.1168 24.669 47.7147 28.072L47.2507 28.536L41.6826 22.813L42.1466 22.349C44.0026 20.4929 44.0026 17.4769 42.1466 15.6209C40.2906 13.7648 37.2746 13.7648 35.4185 15.6209L22.5813 28.459L16.7812 22.8139Z" fill="#32316B"/>
  <path d="M42.5317 51.6583C38.1236 52.9724 33.1745 51.9664 29.6945 48.4864L29.2305 48.0224L34.9535 42.2993L35.4175 42.7633C37.2735 44.6194 40.2896 44.6194 42.1456 42.7633C44.0016 40.9073 44.0016 37.8913 42.1456 36.0352L29.3066 23.1999L35.0296 17.4768L47.9439 30.391C51.1919 33.6391 52.3519 38.2791 51.3469 42.5322C55.1351 43.0733 57.9988 46.3204 57.9988 50.1883C57.9988 54.4414 54.5188 57.9215 50.2657 57.9215C46.3987 57.8444 43.2286 55.1374 42.5326 51.6574L42.5317 51.6583Z" fill="#32316B"/>
  <path d="M40.2924 35.5735L27.4534 48.4098C24.1274 51.7358 19.4874 52.8179 15.3122 51.8128C14.5392 55.2929 11.4452 57.8449 7.73313 57.8449C3.48005 57.8458 0 54.3658 0 50.1136C0 46.4795 2.55203 43.3855 5.95414 42.6125C4.87116 38.2805 5.95414 33.6405 9.28012 30.3163L9.74413 29.8523L15.4672 35.5753L15.0032 36.0393C13.1471 37.8954 13.1471 40.9114 15.0032 42.7674C16.8592 44.6235 19.8752 44.6235 21.7313 42.7674L34.5685 29.9302L40.2924 35.5735Z" fill="#32316B"/>
</svg>