<svg xmlns:xlink="http://www.w3.org/1999/xlink" xmlns="http://www.w3.org/2000/svg" width="58" height="58" viewBox="0 0 58 58" fill="none">
  <path d="M33.6905 22.9053H31.2943C31.2969 23.8313 31.3039 26.9399 31.3084 27.8272C32.1671 27.8228 33.1408 27.8185 33.6906 27.8185C35.0664 27.8185 36.2287 26.6935 36.2287 25.3619C36.2287 24.0303 35.0663 22.9053 33.6905 22.9053ZM16.3047 30.6173H20.2669L18.2949 25.392L16.3047 30.6173Z" fill="#32316B"/>
  <path d="M57.15 33.5519L53.3592 31.3633C53.4795 30.3813 53.5384 29.4592 53.5384 28.5694C53.5384 27.6796 53.4795 26.7575 53.3592 25.7756L57.15 23.587C57.9627 23.1178 58.2413 22.0785 57.772 21.2658L49.7109 7.30369C49.2417 6.49101 48.2024 6.21246 47.3897 6.68178L43.6146 8.8612C42.1252 7.75954 40.4994 6.82689 38.7599 6.07595V1.69922C38.7599 0.760797 37.9991 0 37.0606 0H20.9391C20.0007 0 19.2399 0.760797 19.2399 1.69922V6.07584C17.5005 6.82667 15.8747 7.75954 14.3851 8.86108L10.6102 6.68167C9.79747 6.21246 8.75823 6.4909 8.28902 7.30358L0.22793 21.2658C-0.241281 22.0785 0.0371648 23.1178 0.849844 23.587L4.64046 25.7756C4.52016 26.7575 4.46125 27.6796 4.46125 28.5694C4.46125 29.4592 4.52016 30.3813 4.64046 31.3633L0.849844 33.5519C0.0371648 34.0211 -0.241281 35.0603 0.22793 35.873L8.28902 49.8351C8.75823 50.6478 9.79747 50.9264 10.6102 50.457L14.3851 48.2776C15.8747 49.3793 17.5005 50.312 19.2399 51.0629V55.4395C19.2399 56.3779 20.0007 57.1387 20.9391 57.1387H37.0608C37.9992 57.1387 38.76 56.3779 38.76 55.4395V51.0629C40.4995 50.3119 42.1253 49.3792 43.6147 48.2776L47.3898 50.4572C48.2025 50.9264 49.2418 50.6479 49.711 49.8352L57.7721 35.8731C58.2413 35.0603 57.9628 34.0211 57.15 33.5519ZM24.6878 37.5225C24.4903 37.597 24.2875 37.6324 24.0881 37.6324C23.4014 37.6324 22.7548 37.2131 22.4981 36.5326L21.5482 34.0159H15.0092L14.0488 36.5375C13.7147 37.4144 12.7332 37.8546 11.8561 37.5207C10.9791 37.1867 10.539 36.2049 10.873 35.328C10.873 35.328 16.4126 20.7833 16.4179 20.7706C16.5697 20.3967 16.8297 20.0768 17.1646 19.8516C17.4995 19.6265 17.8939 19.5065 18.2974 19.507H18.2997C18.7028 19.5061 19.0971 19.6255 19.432 19.8499C19.7669 20.0743 20.0272 20.3935 20.1797 20.7667C20.186 20.7821 25.6776 35.3329 25.6776 35.3329C26.009 36.2108 25.5659 37.1911 24.6878 37.5225ZM33.6894 31.217C33.1376 31.217 32.1509 31.2214 31.2881 31.2259V35.9327C31.2881 36.8711 30.5273 37.6319 29.5888 37.6319C28.6504 37.6319 27.8896 36.8711 27.8896 35.9327V21.2116C27.8889 20.988 27.9324 20.7664 28.0174 20.5597C28.1025 20.3529 28.2276 20.1649 28.3854 20.0066C28.5433 19.8482 28.7308 19.7225 28.9373 19.6368C29.1438 19.5511 29.3652 19.5069 29.5888 19.5069H33.6894C36.9628 19.5069 39.6259 22.1335 39.6259 25.362C39.6259 28.5905 36.9628 31.217 33.6894 31.217ZM45.1992 35.9327C45.1992 36.8711 44.4384 37.6319 43.5 37.6319C42.5616 37.6319 41.8008 36.8711 41.8008 35.9327V21.2061C41.8008 20.2677 42.5616 19.5069 43.5 19.5069C44.4384 19.5069 45.1992 20.2677 45.1992 21.2061V35.9327Z" fill="#32316B"/>
</svg>