<svg xmlns:xlink="http://www.w3.org/1999/xlink" xmlns="http://www.w3.org/2000/svg" width="54" height="54" viewBox="0 0 54 54" fill="none">
  <path d="M40.7539 37.3357C41.3691 37.335 41.9589 37.0903 42.3939 36.6554C42.8289 36.2204 43.0735 35.6306 43.0742 35.0154V29.9529C43.0742 29.3375 42.8298 28.7473 42.3946 28.3122C41.9595 27.877 41.3693 27.6326 40.7539 27.6326C40.1385 27.6326 39.5483 27.877 39.1132 28.3122C38.6781 28.7473 38.4336 29.3375 38.4336 29.9529V35.0154C38.4343 35.6306 38.6789 36.2204 39.1139 36.6554C39.5489 37.0903 40.1387 37.335 40.7539 37.3357Z" fill="#25245D"/>
  <path d="M0 48.3047C0.00511539 49.8136 0.606798 51.2593 1.67377 52.3262C2.74074 53.3932 4.1864 53.9949 5.69531 54H48.3047C49.8136 53.9949 51.2593 53.3932 52.3262 52.3262C53.3932 51.2593 53.9949 49.8136 54 48.3047V12.6562H0V48.3047ZM35.4797 29.9531C35.4797 28.5545 36.0353 27.2132 37.0242 26.2242C38.0132 25.2353 39.3545 24.6797 40.7531 24.6797C42.1517 24.6797 43.493 25.2353 44.482 26.2242C45.471 27.2132 46.0266 28.5545 46.0266 29.9531V35.0156C46.0266 36.4142 45.471 37.7555 44.482 38.7445C43.493 39.7335 42.1517 40.2891 40.7531 40.2891C39.3545 40.2891 38.0132 39.7335 37.0242 38.7445C36.0353 37.7555 35.4797 36.4142 35.4797 35.0156V29.9531ZM21.7266 28.6875C21.7278 27.6249 22.1504 26.6063 22.9018 25.8549C23.6531 25.1036 24.6718 24.6809 25.7344 24.6797H30.7969C31.1885 24.6797 31.5641 24.8353 31.841 25.1122C32.1179 25.3891 32.2734 25.7646 32.2734 26.1562C32.2734 26.5479 32.1179 26.9234 31.841 27.2003C31.5641 27.4772 31.1885 27.6328 30.7969 27.6328H25.7344C25.4547 27.6328 25.1864 27.7439 24.9886 27.9417C24.7908 28.1395 24.6797 28.4078 24.6797 28.6875V31.0078H30.7969C31.1885 31.0078 31.5641 31.1634 31.841 31.4403C32.1179 31.7172 32.2734 32.0928 32.2734 32.4844C32.2734 32.876 32.1179 33.2516 31.841 33.5285C31.5641 33.8054 31.1885 33.9609 30.7969 33.9609H24.6797V36.2812C24.6797 36.561 24.7908 36.8292 24.9886 37.027C25.1864 37.2248 25.4547 37.3359 25.7344 37.3359H30.7969C31.1885 37.3359 31.5641 37.4915 31.841 37.7684C32.1179 38.0453 32.2734 38.4209 32.2734 38.8125C32.2734 39.2041 32.1179 39.5797 31.841 39.8566C31.5641 40.1335 31.1885 40.2891 30.7969 40.2891H25.7344C24.6718 40.2878 23.6531 39.8652 22.9018 39.1138C22.1504 38.3625 21.7278 37.3438 21.7266 36.2812V28.6875ZM13.8797 33.9609H12.6141C11.3833 33.9609 10.2029 33.472 9.33265 32.6017C8.46236 31.7314 7.97344 30.5511 7.97344 29.3203C7.97344 28.0895 8.46236 26.9092 9.33265 26.0389C10.2029 25.1686 11.3833 24.6797 12.6141 24.6797H14.5125C15.5751 24.6809 16.5938 25.1036 17.3451 25.8549C18.0964 26.6063 18.5191 27.6249 18.5203 28.6875C18.5203 29.0791 18.3647 29.4547 18.0878 29.7316C17.8109 30.0085 17.4354 30.1641 17.0438 30.1641C16.6521 30.1641 16.2766 30.0085 15.9997 29.7316C15.7228 29.4547 15.5672 29.0791 15.5672 28.6875C15.5672 28.4078 15.4561 28.1395 15.2583 27.9417C15.0605 27.7439 14.7922 27.6328 14.5125 27.6328H12.6141C12.1665 27.6328 11.7373 27.8106 11.4208 28.1271C11.1044 28.4435 10.9266 28.8728 10.9266 29.3203C10.9266 29.7679 11.1044 30.1971 11.4208 30.5136C11.7373 30.83 12.1665 31.0078 12.6141 31.0078H13.8797C15.1105 31.0078 16.2908 31.4967 17.1611 32.367C18.0314 33.2373 18.5203 34.4177 18.5203 35.6484C18.5203 36.8792 18.0314 38.0596 17.1611 38.9299C16.2908 39.8001 15.1105 40.2891 13.8797 40.2891H11.9812C10.9187 40.2878 9.9 39.8652 9.14865 39.1138C8.39731 38.3625 7.97467 37.3438 7.97344 36.2812C7.97344 35.8896 8.129 35.5141 8.40591 35.2372C8.68282 34.9603 9.05839 34.8047 9.45 34.8047C9.84161 34.8047 10.2172 34.9603 10.4941 35.2372C10.771 35.5141 10.9266 35.8896 10.9266 36.2812C10.9266 36.561 11.0377 36.8292 11.2355 37.027C11.4333 37.2248 11.7015 37.3359 11.9812 37.3359H13.8797C14.3272 37.3359 14.7565 37.1581 15.0729 36.8417C15.3894 36.5252 15.5672 36.096 15.5672 35.6484C15.5672 35.2009 15.3894 34.7717 15.0729 34.4552C14.7565 34.1387 14.3272 33.9609 13.8797 33.9609ZM48.3047 0H5.69531C4.18619 0.00445172 2.74015 0.605921 1.67304 1.67304C0.605921 2.74015 0.00445172 4.18619 0 5.69531L0 11.3906H54V5.69531C53.9955 4.18619 53.3941 2.74015 52.327 1.67304C51.2598 0.605921 49.8138 0.00445172 48.3047 0ZM6.53906 7.80469C6.28875 7.80469 6.04405 7.73046 5.83592 7.59139C5.62779 7.45232 5.46557 7.25466 5.36978 7.0234C5.27399 6.79213 5.24892 6.53766 5.29776 6.29215C5.34659 6.04664 5.46713 5.82113 5.64413 5.64413C5.82113 5.46713 6.04664 5.34659 6.29215 5.29776C6.53766 5.24892 6.79213 5.27399 7.0234 5.36978C7.25466 5.46557 7.45232 5.62779 7.59139 5.83592C7.73046 6.04405 7.80469 6.28875 7.80469 6.53906C7.80469 6.87473 7.67135 7.19664 7.43399 7.43399C7.19664 7.67135 6.87473 7.80469 6.53906 7.80469ZM13.2891 7.80469C13.0387 7.80469 12.7941 7.73046 12.5859 7.59139C12.3778 7.45232 12.2156 7.25466 12.1198 7.0234C12.024 6.79213 11.9989 6.53766 12.0478 6.29215C12.0966 6.04664 12.2171 5.82113 12.3941 5.64413C12.5711 5.46713 12.7966 5.34659 13.0422 5.29776C13.2877 5.24892 13.5421 5.27399 13.7734 5.36978C14.0047 5.46557 14.2023 5.62779 14.3414 5.83592C14.4805 6.04405 14.5547 6.28875 14.5547 6.53906C14.5547 6.87473 14.4213 7.19664 14.184 7.43399C13.9466 7.67135 13.6247 7.80469 13.2891 7.80469ZM20.0391 7.80469C19.7887 7.80469 19.5441 7.73046 19.3359 7.59139C19.1278 7.45232 18.9656 7.25466 18.8698 7.0234C18.774 6.79213 18.7489 6.53766 18.7978 6.29215C18.8466 6.04664 18.9671 5.82113 19.1441 5.64413C19.3211 5.46713 19.5466 5.34659 19.7922 5.29776C20.0377 5.24892 20.2921 5.27399 20.5234 5.36978C20.7547 5.46557 20.9523 5.62779 21.0914 5.83592C21.2305 6.04405 21.3047 6.28875 21.3047 6.53906C21.3047 6.87473 21.1713 7.19664 20.934 7.43399C20.6966 7.67135 20.3747 7.80469 20.0391 7.80469ZM47.0391 7.80469H40.2891C39.9534 7.80469 39.6315 7.67135 39.3941 7.43399C39.1568 7.19664 39.0234 6.87473 39.0234 6.53906C39.0234 6.2034 39.1568 5.88148 39.3941 5.64413C39.6315 5.40678 39.9534 5.27344 40.2891 5.27344H47.0391C47.3747 5.27344 47.6966 5.40678 47.934 5.64413C48.1713 5.88148 48.3047 6.2034 48.3047 6.53906C48.3047 6.87473 48.1713 7.19664 47.934 7.43399C47.6966 7.67135 47.3747 7.80469 47.0391 7.80469Z" fill="#25245D"/>
</svg>