<svg xmlns:xlink="http://www.w3.org/1999/xlink" xmlns="http://www.w3.org/2000/svg" width="90" height="55" viewBox="0 0 90 55" fill="none">
  <path d="M25.2466 19.6241C25.2466 20.7368 25.3659 21.6371 25.5746 22.2987C25.8132 22.9604 26.1095 23.6817 26.527 24.4626C26.6761 24.703 26.7358 24.9435 26.7358 25.1541C26.7358 25.4542 26.5568 25.7542 26.171 26.0562L24.296 27.318C24.0276 27.4988 23.7611 27.5882 23.5225 27.5882C23.2243 27.5882 22.928 27.4373 22.6298 27.167C22.2123 26.716 21.8563 26.2351 21.5581 25.7542C21.2599 25.2435 20.9635 24.6732 20.6355 23.9817C18.315 26.7458 15.3982 28.1287 11.8867 28.1287C9.38734 28.1287 7.39305 27.4074 5.93554 25.9648C4.47804 24.5222 3.73438 22.5988 3.73438 20.1945C3.73438 17.641 4.62714 15.5666 6.4425 14.0047C8.25786 12.4428 10.6678 11.66 13.7319 11.66C14.744 11.66 15.7858 11.7495 16.8855 11.9005C17.9851 12.0514 19.1165 12.2919 20.3075 12.5621V10.3684C20.3075 8.08524 19.8322 6.49167 18.9096 5.55977C17.9572 4.62786 16.3506 4.17681 14.0599 4.17681C13.0181 4.17681 11.9482 4.2961 10.8467 4.56822C9.74519 4.83847 8.67536 5.16836 7.63348 5.58959C7.15821 5.8002 6.80036 5.91948 6.59161 5.98099C6.38286 6.04063 6.23376 6.07045 6.11634 6.07045C5.69884 6.07045 5.49196 5.77038 5.49196 5.13854V3.66613C5.49196 3.18526 5.5516 2.82555 5.7007 2.61494C5.84981 2.40432 6.1182 2.19371 6.53383 1.9831C7.57571 1.44259 8.82446 0.991551 10.2838 0.629971C11.7413 0.238569 13.2883 0.0596414 14.9247 0.0596414C18.466 0.0596414 21.0548 0.870403 22.7211 2.49379C24.3575 4.11717 25.1907 6.58114 25.1907 9.88569V19.6223L25.2466 19.6241ZM13.1653 24.1905C14.1475 24.1905 15.1596 24.0097 16.2294 23.65C17.3011 23.2903 18.2535 22.6286 19.0568 21.7265C19.5321 21.1562 19.89 20.5244 20.0689 19.8031C20.2478 19.0818 20.3671 18.2095 20.3671 17.1881V15.9263C19.5041 15.7157 18.5816 15.5349 17.6291 15.4156C16.6767 15.2963 15.7541 15.2348 14.8316 15.2348C12.8373 15.2348 11.3798 15.6262 10.3975 16.437C9.41529 17.2478 8.94002 18.3903 8.94002 19.8925C8.94002 21.3053 9.29787 22.3565 10.0415 23.0778C10.7554 23.8308 11.7973 24.1905 13.1653 24.1905ZM37.0595 27.4373C36.5245 27.4373 36.1667 27.3478 35.9281 27.1372C35.6895 26.9564 35.4827 26.537 35.3037 25.9648L28.3107 2.73608C28.1318 2.13594 28.0423 1.74453 28.0423 1.53392C28.0423 1.05306 28.2809 0.782803 28.7561 0.782803H31.673C32.2378 0.782803 32.6254 0.872267 32.8342 1.08288C33.0727 1.26367 33.2498 1.68303 33.4287 2.25522L38.4275 22.1496L43.0684 2.25522C43.2175 1.65507 43.3964 1.26367 43.6331 1.08288C43.8717 0.902088 44.2873 0.782803 44.8241 0.782803H47.2042C47.769 0.782803 48.1566 0.872267 48.3952 1.08288C48.6338 1.26367 48.8406 1.68303 48.9599 2.25522L53.6605 22.39L58.8084 2.25522C58.9873 1.65507 59.196 1.26367 59.4029 1.08288C59.6415 0.902088 60.0273 0.782803 60.5641 0.782803H63.3318C63.8071 0.782803 64.0755 1.02324 64.0755 1.53392C64.0755 1.68489 64.0457 1.834 64.0159 2.01479C63.986 2.19558 63.9264 2.43601 63.8071 2.76591L56.637 25.9947C56.4581 26.5948 56.2493 26.9862 56.0126 27.167C55.7759 27.3478 55.3882 27.4671 54.8813 27.4671H52.3223C51.7575 27.4671 51.3699 27.3776 51.1313 27.167C50.8927 26.9564 50.6858 26.5669 50.5665 25.9648L45.9555 6.58114L41.3742 25.935C41.2251 26.5352 41.0462 26.9266 40.8095 27.1372C40.5709 27.3478 40.1553 27.4373 39.6185 27.4373H37.0595ZM75.2938 28.248C73.7469 28.248 72.1999 28.0672 70.7126 27.7075C69.2252 27.3478 68.0641 26.9564 67.2906 26.5053C66.8153 26.2351 66.4873 25.935 66.368 25.6648C66.2487 25.3945 66.1891 25.0944 66.1891 24.8242V23.2921C66.1891 22.6603 66.4276 22.3602 66.8731 22.3602C67.052 22.3602 67.2309 22.39 67.408 22.4497C67.5869 22.5093 67.8535 22.6305 68.1517 22.7498C69.1637 23.2008 70.2634 23.5605 71.4245 23.8009C72.6155 24.0414 73.7748 24.1607 74.9658 24.1607C76.8408 24.1607 78.2983 23.8308 79.3104 23.1691C80.3224 22.5075 80.8573 21.5457 80.8573 20.3137C80.8573 19.4732 80.5889 18.7817 80.054 18.2095C79.5191 17.6392 78.507 17.1285 77.0495 16.6476L72.7348 15.2945C70.5635 14.603 68.9568 13.5816 67.9746 12.2285C66.9924 10.9071 66.4873 9.43464 66.4873 7.8709C66.4873 6.6091 66.7557 5.4964 67.2906 4.53467C67.8255 3.57294 68.5412 2.73236 69.4321 2.0707C70.3249 1.37922 71.3369 0.868538 72.5261 0.508822C73.717 0.150969 74.9658 0 76.2761 0C76.9303 0 77.6143 0.0298213 78.2703 0.119285C78.9544 0.208748 79.5787 0.329896 80.205 0.44918C80.7995 0.600149 81.3661 0.749254 81.9011 0.930044C82.436 1.11083 82.8535 1.28976 83.1517 1.47055C83.5692 1.71098 83.8655 1.95142 84.0445 2.22167C84.2234 2.4621 84.3128 2.792 84.3128 3.21322V4.626C84.3128 5.25783 84.0743 5.58772 83.6288 5.58772C83.3903 5.58772 83.0044 5.46844 82.4975 5.22801C80.8014 4.44707 78.8966 4.05567 76.7849 4.05567C75.0888 4.05567 73.7506 4.32592 72.828 4.89625C71.9054 5.46658 71.4301 6.33884 71.4301 7.57083C71.4301 8.41141 71.7283 9.13271 72.3229 9.7049C72.9175 10.2752 74.019 10.8474 75.5958 11.3581L79.821 12.7112C81.9626 13.4027 83.5114 14.3644 84.4321 15.5964C85.3529 16.8284 85.8002 18.2412 85.8002 19.8031C85.8002 21.0947 85.5318 22.267 85.0267 23.2884C84.4918 24.3098 83.7761 25.2119 82.8553 25.9332C81.9327 26.6843 80.8312 27.2248 79.5527 27.6162C78.2088 28.0374 76.811 28.248 75.2938 28.248Z" fill="#32316B"/>
  <path d="M80.8836 42.8507C71.0948 50.1531 56.872 54.0299 44.6416 54.0299C27.5038 54.0299 12.0602 47.6295 0.396451 36.9909C-0.52614 36.1503 0.306987 35.0078 1.4085 35.6694C14.0247 43.0613 29.5857 47.5401 45.6835 47.5401C56.544 47.5401 68.4762 45.2569 79.454 40.5675C81.0923 39.8164 82.4902 41.6485 80.8836 42.8507ZM84.9598 38.1632C83.7091 36.5398 76.6881 37.3823 73.5047 37.7718C72.5523 37.8911 72.4032 37.0505 73.2662 36.4187C78.8595 32.4525 88.0537 33.5931 89.1254 34.9164C90.1971 36.2696 88.8272 45.5551 83.5917 50.0022C82.7884 50.6936 82.0149 50.3321 82.3709 49.4318C83.5619 46.4572 86.2104 39.7549 84.9598 38.1632Z" fill="#32316B"/>
</svg>