<svg xmlns:xlink="http://www.w3.org/1999/xlink" xmlns="http://www.w3.org/2000/svg" width="62" height="55" viewBox="0 0 62 55" fill="none">
  <path d="M31.0001 33.0153C33.9881 33.0153 36.4103 30.5931 36.4103 27.6051C36.4103 24.6171 33.9881 22.1948 31.0001 22.1948C28.0121 22.1948 25.5898 24.6171 25.5898 27.6051C25.5898 30.5931 28.0121 33.0153 31.0001 33.0153Z" fill="#32316B"/>
  <path fill-rule="evenodd" clip-rule="evenodd" d="M31.0005 16.6062C38.2645 16.6062 45.0125 17.6485 50.1005 19.4001C56.2308 21.5106 60 24.7096 60 27.6063C60 30.6249 56.0054 34.0234 49.4223 36.2046C44.4452 37.8535 37.8958 38.7143 31.0005 38.7143C23.9308 38.7143 17.2363 37.9064 12.2032 36.1865C5.83538 34.0099 2 30.5674 2 27.6063C2 24.7332 5.59877 21.5589 11.6429 19.4516C16.7499 17.6711 23.6646 16.6062 30.9995 16.6062H31.0005Z" stroke="#32316B" stroke-width="3"/>
  <path fill-rule="evenodd" clip-rule="evenodd" d="M21.4245 22.1372C25.0535 15.8446 29.3274 10.5197 33.3866 6.98716C38.2774 2.73096 42.9316 1.06412 45.4408 2.51107C48.0559 4.01906 49.0042 9.17737 47.605 15.9696C46.5481 21.105 44.0209 27.2083 40.5761 33.1816C37.0442 39.3059 33 44.7016 28.9961 48.2014C23.9295 52.6303 19.0312 54.2331 16.4661 52.7538C13.9771 51.3195 13.0252 46.6153 14.2193 40.3266C15.2282 35.013 17.7601 28.4912 21.4233 22.1371L21.4245 22.1372Z" stroke="#32316B" stroke-width="3"/>
  <path fill-rule="evenodd" clip-rule="evenodd" d="M21.4301 33.1981C17.7909 26.9127 15.3132 20.5493 14.279 15.2684C13.034 8.90554 13.9142 4.04067 16.4212 2.58951C19.0336 1.0771 23.9762 2.83151 29.1619 7.43605C33.0827 10.9173 37.1088 16.1539 40.5636 22.1216C44.1056 28.2399 46.7603 34.4385 47.7931 39.6552C49.0998 46.2566 48.0422 51.3006 45.4795 52.7842C42.9929 54.2237 38.4426 52.6996 33.5907 48.5243C29.4912 44.9967 25.1053 39.5459 21.4301 33.198V33.1981Z" stroke="#32316B" stroke-width="3"/>
</svg>