<svg xmlns:xlink="http://www.w3.org/1999/xlink" xmlns="http://www.w3.org/2000/svg" width="58" height="68" viewBox="0 0 58 68" fill="none">
  <path d="M29 67.1579C12.9737 67.1579 0 54.3368 0 38.7684C0 26.4053 8.08947 15.4158 20.1474 11.7526C22.7421 10.8368 24.7263 5.18947 25.1842 3.51053L25.9474 0L27.9316 2.9C29.6105 5.49474 32.8158 10.5316 34.9526 10.8368C48.2316 13.5842 58 25.3368 58 38.7684C58 54.3368 45.0263 67.1579 29 67.1579Z" fill="#32316B"/>
  <path d="M37.3962 50.6737C38.312 50.6737 39.3804 50.6737 40.1435 51.1316C40.9067 51.5895 41.3646 52.6579 41.5172 53.2684C41.8225 53.879 41.5172 54.1842 41.0593 54.4895C40.6014 54.7948 40.6014 54.6421 40.1435 53.879C39.6856 53.1158 39.3804 52.3526 37.2435 52.3526C35.1067 52.3526 34.4962 53.1158 33.4278 53.879C32.3593 54.6421 32.0541 54.9474 31.7488 54.4895C31.4435 54.0316 31.4435 53.5737 32.2067 52.9632C32.8172 52.3526 33.8856 51.4369 34.9541 50.979C35.8699 50.5211 36.4804 50.6737 37.3962 50.6737ZM27.3225 57.3895C28.5435 58.3053 30.3751 59.0684 34.1909 59.0684C38.0067 59.0684 40.7541 58 41.9751 57.0842C42.5856 56.6263 42.7383 57.0842 42.8909 57.2369C42.8909 57.5421 43.0435 57.8474 42.5857 58.3053C42.2804 58.6105 39.533 60.4421 36.1751 60.7474C32.9699 61.0526 28.5435 61.2053 25.7962 58.9158C25.3383 58.4579 25.4909 57.8474 25.7962 57.6947C26.1014 57.3895 26.4067 57.2369 26.712 57.2369C27.0172 57.2369 27.1699 57.2369 27.3225 57.3895ZM13.7383 45.179C13.7383 40.7526 18.1646 36.6316 23.812 36.6316C30.833 36.6316 35.8699 43.1948 39.3804 43.0421C42.433 43.0421 48.233 37.3947 51.133 37.3947C54.1856 37.3947 54.9488 40.2948 54.9488 42.1263C54.9488 43.8053 54.3383 47.0105 52.812 48.9947C51.2856 50.979 50.5225 51.7421 48.6909 51.5895C46.5541 51.4369 42.1278 45.179 39.3804 45.0263C35.8699 44.8737 28.2383 51.8947 22.2857 51.8947C18.6225 51.8947 17.5541 51.4369 16.333 50.6737C14.6541 49.4526 13.7383 47.6211 13.7383 45.179Z" fill="white"/>
</svg>