<svg xmlns:xlink="http://www.w3.org/1999/xlink" xmlns="http://www.w3.org/2000/svg" width="58" height="58" viewBox="0 0 58 58" fill="none">
  <path fill-rule="evenodd" clip-rule="evenodd" d="M28.9989 58C13.0095 58 0 44.9883 0 28.9989C0 13.0072 13.0095 0 29.0011 0C44.9928 0 58 13.0095 58 28.9989C58 44.9883 44.9928 58 28.9989 58ZM28.9989 1.32891C13.741 1.32891 1.32891 13.7433 1.32891 28.9989C1.32891 44.2545 13.7455 56.6689 29.0011 56.6689C44.2567 56.6689 56.6711 44.2545 56.6711 28.9989C56.6711 13.7433 44.2567 1.32891 28.9989 1.32891ZM18.1457 51.3889C9.84558 47.3552 4.125 38.8448 4.125 28.9988C4.125 25.3924 4.89908 21.9672 6.27721 18.8753L18.1457 51.3889ZM43.744 20.8821C44.6926 22.5377 45.7955 24.6675 45.7955 27.7414C45.7955 29.8735 45.1646 32.5515 43.9028 35.7843L41.4195 44.0754L32.4303 17.3339C33.9248 17.2556 35.2761 17.099 35.2761 17.099C36.6162 16.9401 36.4596 14.9691 35.1172 15.0474C35.1172 15.0474 31.088 15.3651 28.4861 15.3651C26.0431 15.3651 21.9355 15.0474 21.9355 15.0474C20.5954 14.9669 20.4366 17.0184 21.7789 17.099C21.7789 17.099 23.0497 17.2556 24.3898 17.3339L28.2646 27.954L22.8192 44.2812L13.7607 17.3339C15.2574 17.2556 16.6065 17.099 16.6065 17.099C17.9466 16.9401 17.7877 14.9691 16.4476 15.0474C16.4476 15.0474 12.4206 15.3651 9.81873 15.3651C9.35115 15.3651 8.8008 15.3539 8.21688 15.336C12.6645 8.57963 20.3113 4.12085 29.0029 4.12085C35.4774 4.12085 41.3748 6.59522 45.8022 10.6513C45.758 10.6495 45.7146 10.6462 45.6713 10.643C45.6071 10.6382 45.5433 10.6334 45.4778 10.6334C43.0348 10.6334 41.3009 12.7632 41.3009 15.0474C41.3009 16.9326 42.3003 18.5477 43.4397 20.389C43.5402 20.5515 43.6418 20.7158 43.744 20.8821ZM21.9736 52.8632L29.4392 31.1756L37.086 52.1249C37.1375 52.2458 37.2001 52.3599 37.265 52.4672C34.6787 53.3755 31.8979 53.8767 29.0029 53.8767C26.5599 53.8767 24.2041 53.5187 21.9736 52.8632ZM50.9993 19.6226C50.9993 18.7053 50.9411 17.8552 50.8315 17.0632C52.7734 20.6047 53.8786 24.672 53.8786 28.9988C53.8786 38.1759 48.9052 46.1874 41.509 50.5007L49.1066 28.5312C50.525 24.983 50.9993 22.1462 50.9993 19.6226Z" fill="#32316B"/>
</svg>