<svg xmlns:xlink="http://www.w3.org/1999/xlink" xmlns="http://www.w3.org/2000/svg" width="58" height="58" viewBox="0 0 58 58" fill="none">
  <path d="M27.1007 0.015608C26.976 0.0269455 26.5791 0.0666269 26.2219 0.0949707C17.984 0.837579 10.2676 5.28189 5.38045 12.1128C2.65904 15.9108 0.918475 20.2191 0.260802 24.7824C0.028348 26.3754 0 26.8459 0 29.0057C0 31.1655 0.028348 31.636 0.260802 33.2289C1.83695 44.1186 9.58729 53.268 20.0987 56.6579C21.981 57.2645 23.9654 57.6783 26.2219 57.9277C27.1007 58.0241 30.8993 58.0241 31.7781 57.9277C35.6731 57.4969 38.9728 56.5332 42.2272 54.8723C42.7261 54.6172 42.8225 54.5491 42.7544 54.4925C42.7091 54.4584 40.583 51.6071 38.0317 48.1604L33.3939 41.8965L27.5826 33.2969C24.3849 28.5692 21.7543 24.7031 21.7316 24.7031C21.7089 24.6974 21.6862 28.5182 21.6749 33.1836C21.6579 41.3523 21.6522 41.681 21.5501 41.8738C21.4027 42.1515 21.2893 42.2649 21.0512 42.3896C20.8698 42.4803 20.711 42.4973 19.8549 42.4973H18.8741L18.6133 42.3329C18.4432 42.2252 18.3185 42.0835 18.2334 41.9191L18.1144 41.664L18.1257 30.2982L18.1427 18.9266L18.3185 18.7055C18.4092 18.5865 18.602 18.4334 18.738 18.3597C18.9705 18.2464 19.0612 18.235 20.042 18.235C21.1986 18.235 21.3914 18.2804 21.6919 18.6092C21.7769 18.6999 24.9236 23.439 28.6882 29.1474C32.4528 34.8558 37.6008 42.6504 40.1294 46.4768L44.7218 53.4324L44.9543 53.2793C47.0123 51.9415 49.1894 50.0368 50.913 48.0527C54.5812 43.8408 56.9455 38.7049 57.7392 33.2289C57.9717 31.636 58 31.1655 58 29.0057C58 26.8459 57.9717 26.3754 57.7392 24.7824C56.1631 13.8927 48.4127 4.74336 37.9013 1.35344C36.0473 0.752548 34.0743 0.338728 31.8631 0.089302C31.3189 0.0326143 27.5713 -0.0297421 27.1007 0.015608ZM38.9728 17.5548C39.245 17.6908 39.4661 17.9516 39.5455 18.2237C39.5908 18.3711 39.6021 21.5229 39.5908 28.6259L39.5738 38.8183L37.7765 36.0633L35.9736 33.3083V25.8992C35.9736 21.1091 35.9963 18.4164 36.0303 18.286C36.121 17.9686 36.3195 17.7192 36.5916 17.5718C36.8241 17.4527 36.9091 17.4414 37.7992 17.4414C38.6383 17.4414 38.7857 17.4527 38.9728 17.5548Z" fill="#32316B"/>
</svg>