<svg xmlns:xlink="http://www.w3.org/1999/xlink" xmlns="http://www.w3.org/2000/svg" width="77" height="54" viewBox="0 0 77 54" fill="none">
  <path d="M65.552 31.0141C62.8895 31.0283 60.5841 31.6333 58.6505 32.5342C57.9365 31.1972 57.2226 30.0289 57.1037 29.1564C56.9698 28.143 56.8062 27.5236 56.9698 26.3134C57.1333 25.1028 57.877 23.3858 57.877 23.245C57.862 23.1184 57.7133 22.4991 56.1814 22.485C54.6495 22.471 53.3256 22.7665 53.1768 23.1465C53.0281 23.5265 52.7306 24.3991 52.5373 25.2999C52.2695 26.6229 49.4732 31.3096 47.8817 33.7726C47.3611 32.8156 46.9149 31.9711 46.8255 31.2954C46.6918 30.2822 46.528 29.6628 46.6918 28.4525C46.8554 27.242 47.5991 25.5251 47.5991 25.3843C47.5842 25.2577 47.4355 24.6384 45.9036 24.6243C44.3714 24.6102 43.0478 24.9058 42.8991 25.2858C42.7503 25.6658 42.5867 26.5666 42.2595 27.4392C41.947 28.3118 38.2285 36.1371 37.2617 38.1779C36.7708 39.2194 36.3396 40.0498 36.0271 40.6127C35.7148 41.1757 36.0123 40.655 35.9825 40.7113C35.7148 41.1898 35.566 41.4572 35.566 41.4572V41.4714C35.3578 41.8233 35.1347 42.1609 35.0304 42.1609C34.9561 42.1609 34.8073 41.2179 35.0602 39.9232C35.6105 37.2068 36.9492 32.9705 36.9344 32.8157C36.9344 32.7453 37.1871 31.9993 36.0716 31.6194C34.9858 31.2394 34.5992 31.8727 34.5098 31.8727C34.4206 31.8727 34.3462 32.0979 34.3462 32.0979C34.3462 32.0979 35.551 27.3269 32.0407 27.3269C29.8394 27.3269 26.8051 29.5928 25.3028 31.6618C24.3509 32.1544 22.328 33.1957 20.1862 34.3077C19.3681 34.73 18.5203 35.1803 17.7171 35.5885L17.5536 35.4193C13.2997 31.1267 5.43134 28.0866 5.75856 22.3161C5.87755 20.2191 6.651 14.6879 20.8707 7.98849C32.517 2.49951 41.843 4.00546 43.4641 7.35515C45.7696 12.1404 38.4813 21.0354 26.3741 22.3161C21.7631 22.8087 19.3385 21.1198 18.7288 20.4865C18.0892 19.825 18 19.7968 17.762 19.9235C17.3753 20.1205 17.6133 20.7117 17.762 21.0635C18.119 21.9502 19.6064 23.5265 22.135 24.3147C24.351 25.0043 29.7653 25.3843 36.3099 22.9917C43.6428 20.3035 49.3692 12.8441 47.6885 6.60921C45.978 0.261697 34.8522 -1.8213 24.3363 1.71135C18.0742 3.8225 11.2917 7.11588 6.41302 11.4367C0.612164 16.5597 -0.310024 21.0354 0.0766999 22.8932C1.43038 29.5222 11.0835 33.843 14.9507 37.0379C14.7573 37.1362 14.5788 37.2348 14.4152 37.3193C12.4816 38.22 5.11898 41.8654 3.27461 45.7216C1.19225 50.0846 3.60184 53.2233 5.20823 53.6455C10.1761 54.9545 15.263 52.604 18.0147 48.7336C20.7514 44.8632 20.4243 39.8386 19.16 37.5445L19.1153 37.4601L20.6324 36.6156C21.6142 36.0667 22.581 35.5601 23.4287 35.1236C22.9529 36.3481 22.6106 37.7977 22.4323 39.9089C22.2241 42.3861 23.295 45.5949 24.708 46.8616C25.3327 47.4103 26.0764 47.4246 26.5375 47.4246C28.1737 47.4246 28.9174 46.1437 29.7354 44.6097C30.7469 42.7378 31.6393 40.5704 31.6393 40.5704C31.6393 40.5704 30.5238 46.4394 33.5729 46.4394C34.6885 46.4394 35.804 45.0742 36.3097 44.3704V44.3845C36.3097 44.3845 36.3395 44.3423 36.399 44.2438C36.4614 44.1564 36.5209 44.0673 36.5775 43.9765V43.9483C37.0237 43.2165 38.0202 41.5416 39.5076 38.769C41.4262 35.1941 43.2708 30.7185 43.2708 30.7185C43.2708 30.7185 43.4492 31.8163 43.9996 33.6178C44.3267 34.6876 45.0406 35.8556 45.591 36.9956C45.1447 37.5868 44.877 37.9247 44.877 37.9247L44.8919 37.9388C44.535 38.3891 44.1333 38.8678 43.717 39.3462C42.1998 41.0633 40.3852 43.0197 40.1472 43.5827C39.8646 44.244 39.9241 44.7367 40.4744 45.1309C40.876 45.4124 41.59 45.4685 42.3486 45.4124C43.717 45.3278 44.6689 45.0042 45.1449 44.807C45.8886 44.5537 46.7364 44.1737 47.5545 43.6107C49.0419 42.5694 49.9492 41.0915 49.8599 39.1211C49.8153 38.0374 49.4435 36.9678 48.9824 35.9544C49.1162 35.7715 49.2502 35.5883 49.384 35.3914C51.7341 32.1401 53.5487 28.5654 53.5487 28.5654C53.5487 28.5654 53.7272 29.6632 54.2775 31.4647C54.56 32.3795 55.1253 33.379 55.631 34.3642C53.4297 36.0672 52.0464 38.0376 51.5704 39.3324C50.6929 41.725 51.3771 42.8088 52.6711 43.0621C53.2511 43.1747 54.0841 42.9213 54.7087 42.668C55.4822 42.4287 56.4192 42.0204 57.2821 41.4154C58.7695 40.3739 60.1974 38.9242 60.123 36.9679C60.0784 36.0672 59.8255 35.1805 59.4834 34.336C61.3575 33.6042 63.7818 33.1819 66.8609 33.5338C73.4798 34.2656 74.7887 38.1783 74.536 39.8109C74.2832 41.4437 72.8999 42.3443 72.4386 42.6258C71.9776 42.8932 71.8288 42.9919 71.8734 43.1888C71.9329 43.4845 72.1412 43.4702 72.5428 43.4141C73.0931 43.3295 76.0233 42.077 76.1423 39.0653C76.3208 35.1943 72.4387 30.972 65.552 31.0141ZM14.5045 47.298C12.318 49.564 9.23908 50.4225 7.93017 49.6907C6.51714 48.9166 7.06732 45.581 9.75967 43.1743C11.3958 41.7105 13.5228 40.3594 14.9209 39.529C15.2333 39.3461 15.7093 39.0788 16.2745 38.7549C16.3637 38.6988 16.4232 38.6705 16.4232 38.6705C16.5273 38.6142 16.6463 38.5438 16.7653 38.4734C17.7619 41.9076 16.8099 44.9195 14.5045 47.298ZM30.494 37.0097C29.7354 38.769 28.129 43.2869 27.1622 43.0335C26.3291 42.8224 25.8236 39.4023 26.9985 36.0245C27.5934 34.3214 28.8577 32.2948 29.6014 31.5065C30.8064 30.2398 32.1151 29.8176 32.4425 30.3384C32.8292 31.0141 30.97 35.9119 30.494 37.0097ZM43.6872 42.9772C43.36 43.1322 43.0625 43.2446 42.9287 43.1603C42.8245 43.104 43.0624 42.8929 43.0624 42.8929C43.0624 42.8929 44.7134 41.2181 45.3678 40.444C45.7397 39.9938 46.1859 39.473 46.6619 38.8817V39.0506C46.662 41.0772 44.6094 42.4283 43.6872 42.9772ZM53.8609 40.7816C53.6229 40.6127 53.6528 40.092 54.4558 38.4594C54.7683 37.812 55.4822 36.7282 56.7167 35.7008C56.8654 36.123 56.9548 36.531 56.9398 36.9112C56.9251 39.4446 55.0212 40.3876 53.8609 40.7816Z" fill="#32316B"/>
</svg>