<svg xmlns:xlink="http://www.w3.org/1999/xlink" xmlns="http://www.w3.org/2000/svg" width="101" height="43" viewBox="0 0 101 43" fill="none">
  <path d="M4.28264 27.2853C4.28264 25.5724 3.18113 23.7373 0 23.6151V19.3336C3.16981 19.2113 4.28264 17.3751 4.28264 15.6634C4.28264 12.6045 3.79359 10.6483 3.79359 7.09924C3.79359 1.71623 5.75208 0.00339652 10.1558 0.00339652H21.9011V3.91811H12.3577C10.2781 3.91811 9.66566 4.65169 9.66566 7.34377L9.91019 15.4189C9.91019 19.2113 8.68755 20.6796 6.24 21.2921V21.5366C8.68755 22.1479 9.91019 23.6162 9.91019 27.4098L9.66566 35.4849C9.66566 38.177 10.277 39.0328 12.3577 39.0328H13.337V42.8253H10.1672C5.7634 42.8253 3.80491 41.1124 3.80491 35.7294C3.80491 32.1815 4.29396 30.3464 4.29396 27.2875L4.28264 27.2853ZM14.683 0.367925H22.0245V27.8966C22.0245 29.4872 22.7581 29.9762 23.3717 29.9762C23.6162 29.9762 23.8608 29.9762 24.2287 29.8539L25.0857 35.237C24.2287 35.6038 23.006 35.8483 21.4155 35.8483C16.4004 35.8483 14.6864 32.5449 14.6864 27.5275L14.683 0.367925ZM35.3604 9.91131C42.334 9.91131 45.883 15.0509 45.883 21.7789C45.883 23.126 45.7608 24.2264 45.6385 24.8377H30.5887C31.2 28.6302 33.7585 30.2207 37.0732 30.2207C38.9072 30.2207 40.6211 29.7317 42.4562 28.6302L44.9038 33.0339C42.334 34.7468 39.0306 35.8483 36.094 35.8483C28.9981 35.8483 23.614 31.0766 23.614 22.8792C23.4917 14.9264 29.3649 9.91018 35.3592 9.91018L35.3604 9.91131ZM39.643 20.3117C39.643 17.4973 38.4204 15.4177 35.4826 15.4177C33.1585 15.4177 31.2 17.0083 30.7109 20.3117H39.643ZM50.0434 27.8966C52.2453 29.6094 54.326 30.4664 56.4057 30.4664C58.6076 30.4664 59.5755 29.6094 59.5755 28.3868C59.5755 26.7962 57.1279 25.9392 54.5604 24.9611C51.6238 23.8596 48.0759 21.7913 48.0759 17.7419C48.0759 13.2136 51.8683 10.0324 57.497 10.0324C61.2894 10.0324 64.1038 11.623 66.1834 13.2023L62.88 17.606C61.046 16.2589 59.4543 15.5264 57.6192 15.5264C55.7842 15.5264 54.8049 16.26 54.8049 17.4849C54.8049 19.0755 57.1291 19.6868 59.6989 20.6547C62.8687 21.7562 66.4279 23.5913 66.4279 28.1185C66.4279 32.6456 62.88 36.0713 56.2732 36.0713C53.1034 36.0713 49.2996 34.7241 46.8521 32.6456L50.0434 27.8966ZM69.9872 27.8966C72.1891 29.6094 74.2698 30.4664 76.3494 30.4664C78.5513 30.4664 79.5192 29.6094 79.5192 28.3868C79.5192 26.7962 77.0717 25.9392 74.5042 24.9611C71.5676 23.8596 68.0196 21.7913 68.0196 17.7419C68.0196 13.2136 71.8121 10.0324 77.4408 10.0324C81.2332 10.0324 84.0475 11.623 86.1272 13.2023L82.8238 17.606C80.9898 16.2589 79.3981 15.5264 77.563 15.5264C75.7279 15.5264 74.7487 16.26 74.7487 17.4849C74.7487 19.0755 77.0728 19.6868 79.5204 20.6547C82.6902 21.7562 86.2494 23.5913 86.2494 28.1185C86.2494 32.6456 82.7015 36.0713 76.0947 36.0713C72.9249 36.0713 69.1211 34.7241 66.6736 32.6456L69.9872 27.8966ZM88.0936 38.9071C90.1732 38.9071 90.7857 38.1736 90.7857 35.3592C90.7857 32.6671 90.5411 30.2196 90.5411 27.2841C90.5411 23.4917 91.7638 22.0234 94.2113 21.4109V21.1664C91.7638 20.5551 90.5411 19.0868 90.5411 15.2932C90.5411 12.3566 90.7857 9.78792 90.7857 7.21811C90.7857 4.52604 90.2966 3.79245 88.0936 3.79245H87.1143V0H90.2842C94.6879 0 96.6464 1.71283 96.6464 7.09584C96.6464 10.5215 96.1574 12.4789 96.1574 15.66C96.1574 17.3728 97.2589 19.2079 100.44 19.3302V23.6128C97.2702 23.7351 96.1574 25.5713 96.1574 27.283C96.1574 30.4528 96.6464 32.2981 96.6464 35.8471C96.6464 41.2302 94.6879 42.943 90.2842 42.943H87.1143V39.0317L88.0936 38.9071Z" fill="#32316B"/>
</svg>