<svg width="51" height="51" viewBox="0 0 51 51" fill="none" xmlns="http://www.w3.org/2000/svg">
<path fill-rule="evenodd" clip-rule="evenodd" d="M47.8125 0H28.6875C27.8421 0 27.0314 0.335825 26.4336 0.933597C25.8358 1.53137 25.5 2.34212 25.5 3.1875V15.9375C25.5 16.7829 25.8358 17.5936 26.4336 18.1914C27.0314 18.7892 27.8421 19.125 28.6875 19.125H34V23.375H14.875V11.6875C14.875 11.4057 14.7631 11.1355 14.5638 10.9362C14.3645 10.7369 14.0943 10.625 13.8125 10.625H1.0625C0.780707 10.625 0.510456 10.7369 0.311199 10.9362C0.111942 11.1355 0 11.4057 0 11.6875V49.9375C0 50.2193 0.111942 50.4895 0.311199 50.6888C0.510456 50.8881 0.780707 51 1.0625 51H5.3125C5.59429 51 5.86454 50.8881 6.0638 50.6888C6.26306 50.4895 6.375 50.2193 6.375 49.9375V48.875H20.1875C20.4693 48.875 20.7395 48.7631 20.9388 48.5638C21.1381 48.3645 21.25 48.0943 21.25 47.8125V31.875H44.625V49.9375C44.625 50.2193 44.7369 50.4895 44.9362 50.6888C45.1355 50.8881 45.4057 51 45.6875 51H49.9375C50.2193 51 50.4895 50.8881 50.6888 50.6888C50.8881 50.4895 51 50.2193 51 49.9375V24.4375C51 24.1557 50.8881 23.8855 50.6888 23.6862C50.4895 23.4869 50.2193 23.375 49.9375 23.375H42.5V19.125H47.8125C48.6579 19.125 49.4686 18.7892 50.0664 18.1914C50.6642 17.5936 51 16.7829 51 15.9375V3.1875C51 2.34212 50.6642 1.53137 50.0664 0.933597C49.4686 0.335825 48.6579 0 47.8125 0ZM28.6875 2.125H47.8125C48.0943 2.125 48.3645 2.23694 48.5638 2.4362C48.7631 2.63546 48.875 2.90571 48.875 3.1875V12.75H27.625V3.1875C27.625 2.90571 27.7369 2.63546 27.9362 2.4362C28.1355 2.23694 28.4057 2.125 28.6875 2.125ZM12.75 23.375H10.625V12.75H12.75V23.375ZM8.5 23.375H6.375V12.75H8.5V23.375ZM2.125 12.75H4.25V23.375H2.125V12.75ZM4.25 48.875H2.125V31.875H4.25V48.875ZM6.375 46.75V40.375H19.125V46.75H6.375ZM6.375 38.25V31.875H19.125V38.25H6.375ZM48.875 29.75H2.125V25.5H48.875V29.75ZM40.375 23.375H36.125V19.125H40.375V23.375ZM47.8125 17H28.6875C28.4057 17 28.1355 16.8881 27.9362 16.6888C27.7369 16.4895 27.625 16.2193 27.625 15.9375V14.875H48.875V15.9375C48.875 16.2193 48.7631 16.4895 48.5638 16.6888C48.3645 16.8881 48.0943 17 47.8125 17ZM12.75 36.125C13.0318 36.125 13.302 36.0131 13.5013 35.8138C13.7006 35.6145 13.8125 35.3443 13.8125 35.0625C13.8125 34.7807 13.7006 34.5105 13.5013 34.3112C13.302 34.1119 13.0318 34 12.75 34C12.4682 34 12.198 34.1119 11.9987 34.3112C11.7994 34.5105 11.6875 34.7807 11.6875 35.0625C11.6875 35.3443 11.7994 35.6145 11.9987 35.8138C12.198 36.0131 12.4682 36.125 12.75 36.125ZM48.875 48.875H46.75V31.875H48.875V48.875ZM13.5013 44.3138C13.302 44.5131 13.0318 44.625 12.75 44.625C12.4682 44.625 12.198 44.5131 11.9987 44.3138C11.7994 44.1145 11.6875 43.8443 11.6875 43.5625C11.6875 43.2807 11.7994 43.0105 11.9987 42.8112C12.198 42.6119 12.4682 42.5 12.75 42.5C13.0318 42.5 13.302 42.6119 13.5013 42.8112C13.7006 43.0105 13.8125 43.2807 13.8125 43.5625C13.8125 43.8443 13.7006 44.1145 13.5013 44.3138Z" fill="#1C1C28"/>
</svg>
