<?xml version="1.0" encoding="UTF-8"?>
<svg xmlns="http://www.w3.org/2000/svg" width="15" height="20" viewBox="0 0 15 20" fill="none">
  <path fill-rule="evenodd" clip-rule="evenodd" d="M0.266318 6.74566C0.265857 6.70778 0.265625 6.66984 0.265625 6.63184H0.274482C0.270259 6.66961 0.267529 6.70755 0.266318 6.74566ZM0.269318 6.89439C0.362999 10.2201 2.2301 13.046 4.84896 14.2306V17.3428C4.84896 18.6965 6.2832 19.5769 7.50218 18.9715L9.33552 18.061C9.95662 17.7526 10.349 17.122 10.349 16.4323V14.2306C13.0365 13.015 14.9323 10.0708 14.9323 6.63184H14.9234C14.9276 6.66984 14.9304 6.70801 14.9316 6.74635C14.931 6.79557 14.93 6.84469 14.9286 6.89371C14.8048 8.61817 11.5706 9.99951 7.59893 9.99951C3.62778 9.99951 0.393868 8.61854 0.269318 6.89439Z" fill="#64D09C"></path>
  <ellipse opacity="0.4" cx="7.59896" cy="6.79134" rx="7.33333" ry="3.20833" fill="#64D09C"></ellipse>
  <path fill-rule="evenodd" clip-rule="evenodd" d="M9.43164 2.89551C9.81134 2.89551 10.1191 3.20331 10.1191 3.58301V5.41634C10.1191 5.79604 9.81134 6.10384 9.43164 6.10384C9.05194 6.10384 8.74414 5.79604 8.74414 5.41634V3.58301C8.74414 3.20331 9.05194 2.89551 9.43164 2.89551Z" fill="#64D09C"></path>
  <path fill-rule="evenodd" clip-rule="evenodd" d="M5.76563 4.72852C6.14532 4.72852 6.45313 5.03632 6.45313 5.41602V6.33268C6.45313 6.71238 6.14532 7.02018 5.76563 7.02018C5.38593 7.02018 5.07812 6.71238 5.07812 6.33268V5.41602C5.07812 5.03632 5.38593 4.72852 5.76563 4.72852Z" fill="#64D09C"></path>
  <path fill-rule="evenodd" clip-rule="evenodd" d="M5.76563 0.145508C6.14532 0.145508 6.45313 0.453312 6.45313 0.833008V2.66634C6.45313 3.04604 6.14532 3.35384 5.76563 3.35384C5.38593 3.35384 5.07812 3.04604 5.07812 2.66634V0.833008C5.07812 0.453312 5.38593 0.145508 5.76563 0.145508Z" fill="#64D09C"></path>
</svg>
