<?xml version="1.0" encoding="UTF-8"?>
<svg xmlns="http://www.w3.org/2000/svg" width="18" height="18" viewBox="0 0 18 18" fill="none">
  <path d="M2.94003 5.63459C2.51104 5.63459 2.16327 5.28682 2.16327 4.85782C2.16327 4.42882 2.51104 4.08105 2.94003 4.08105C3.36903 4.08105 3.7168 4.42882 3.7168 4.85782C3.7168 5.28682 3.36903 5.63459 2.94003 5.63459Z" fill="#64D09C"></path>
  <path opacity="0.4" d="M2.94003 8.11994C2.51104 8.11994 2.16327 7.77217 2.16327 7.34317C2.16327 6.91418 2.51104 6.56641 2.94003 6.56641C3.36903 6.56641 3.7168 6.91418 3.7168 7.34317C3.7168 7.77217 3.36903 8.11994 2.94003 8.11994Z" fill="#64D09C"></path>
  <path opacity="0.4" fill-rule="evenodd" clip-rule="evenodd" d="M4.41602 4.31408C4.41602 4.18539 4.52035 4.08105 4.64905 4.08105H6.51328C6.64198 4.08105 6.74631 4.18539 6.74631 4.31408C6.74631 4.44278 6.64198 4.54711 6.51328 4.54711H4.64905C4.52035 4.54711 4.41602 4.44278 4.41602 4.31408Z" fill="#64D09C"></path>
  <path fill-rule="evenodd" clip-rule="evenodd" d="M4.41602 6.79944C4.41602 6.67074 4.52035 6.56641 4.64905 6.56641H6.51328C6.64198 6.56641 6.74631 6.67074 6.74631 6.79944C6.74631 6.92813 6.64198 7.03247 6.51328 7.03247H4.64905C4.52035 7.03247 4.41602 6.92813 4.41602 6.79944Z" fill="#64D09C"></path>
  <path opacity="0.4" fill-rule="evenodd" clip-rule="evenodd" d="M4.41602 5.40198C4.41602 5.27328 4.51 5.16895 4.62594 5.16895L7.98471 5.16895C8.10065 5.16895 8.19463 5.27328 8.19463 5.40198C8.19463 5.53067 8.10065 5.635 7.98471 5.635L4.62594 5.635C4.51 5.635 4.41602 5.53067 4.41602 5.40198Z" fill="#64D09C"></path>
  <path fill-rule="evenodd" clip-rule="evenodd" d="M4.41602 7.88733C4.41602 7.75863 4.51 7.6543 4.62594 7.6543H7.98471C8.10065 7.6543 8.19463 7.75863 8.19463 7.88733C8.19463 8.01603 8.10065 8.12036 7.98471 8.12036H4.62594C4.51 8.12036 4.41602 8.01603 4.41602 7.88733Z" fill="#64D09C"></path>
  <path opacity="0.4" d="M12.9211 3.30371H12.3279C12.0003 3.30371 11.7347 3.55411 11.7347 3.86298C11.7347 4.21645 11.3565 4.44117 11.0461 4.27217L11.0146 4.25501C10.7309 4.10057 10.3681 4.19222 10.2043 4.45972L9.90769 4.94406C9.74389 5.21155 9.8411 5.5536 10.1248 5.70804C10.4354 5.87711 10.4354 6.32302 10.1248 6.4921C9.8411 6.64654 9.74389 6.98858 9.90769 7.25608L10.2043 7.74042C10.3681 8.00791 10.7309 8.09956 11.0146 7.94513L11.0461 7.92796C11.3565 7.75897 11.7347 7.98369 11.7347 8.33715C11.7347 8.64603 12.0003 8.89642 12.3279 8.89642H12.9211C13.2487 8.89642 13.5142 8.64603 13.5142 8.33715C13.5142 7.98369 13.8924 7.75896 14.2029 7.92796L14.2344 7.94512C14.5181 8.09956 14.8809 8.00791 15.0447 7.74041L15.3413 7.25607C15.5051 6.98858 15.4079 6.64653 15.1242 6.49209C14.8136 6.32302 14.8136 5.87711 15.1242 5.70804C15.4079 5.5536 15.5051 5.21156 15.3413 4.94406L15.0447 4.45972C14.8809 4.19222 14.5181 4.10057 14.2344 4.25501L14.2029 4.27218C13.8924 4.44117 13.5142 4.21645 13.5142 3.86298C13.5142 3.55411 13.2487 3.30371 12.9211 3.30371Z" fill="#64D09C"></path>
  <circle cx="12.6235" cy="6.10009" r="0.932119" fill="#64D09C"></circle>
  <path opacity="0.4" fill-rule="evenodd" clip-rule="evenodd" d="M8.99964 12.5215C9.34284 12.5215 9.62105 12.7997 9.62105 13.1429V16.0428H11.4853C11.8285 16.0428 12.1067 16.321 12.1067 16.6642C12.1067 17.0074 11.8285 17.2856 11.4853 17.2856H6.51399C6.17079 17.2856 5.89258 17.0074 5.89258 16.6642C5.89258 16.321 6.17079 16.0428 6.51399 16.0428H8.37823V13.1429C8.37823 12.7997 8.65644 12.5215 8.99964 12.5215Z" fill="#64D09C"></path>
  <path opacity="0.4" d="M0.714844 3.20049C0.714844 1.82771 1.82771 0.714844 3.20049 0.714844H14.8002C16.173 0.714844 17.2858 1.82771 17.2858 3.20049V11.486C17.2858 12.8588 16.173 13.9716 14.8002 13.9716H3.20049C1.82771 13.9716 0.714844 12.8588 0.714844 11.486V3.20049Z" fill="#64D09C"></path>
  <path d="M3.20049 13.9714H14.8002C16.173 13.9714 17.2858 12.8586 17.2858 11.4858V10.6572H0.714844V11.4858C0.714844 12.8586 1.82771 13.9714 3.20049 13.9714Z" fill="#64D09C"></path>
</svg>
