<?xml version="1.0" encoding="UTF-8"?>
<svg xmlns="http://www.w3.org/2000/svg" width="18" height="18" viewBox="0 0 18 18" fill="none">
  <path opacity="0.4" d="M8.24098 17.822L0.75219 14.418C0.0357274 14.0923 0.0357286 13.0747 0.752192 12.749L8.24098 9.34499C8.72301 9.12589 9.27623 9.12589 9.75826 9.34499L17.247 12.749C17.9635 13.0747 17.9635 14.0923 17.247 14.418L9.75826 17.822C9.27623 18.0411 8.72301 18.0411 8.24098 17.822Z" fill="#64D09C"></path>
  <path d="M8.24098 13.238L0.75219 9.83401C0.0357274 9.50834 0.0357286 8.49067 0.752192 8.165L8.24098 4.76101C8.72301 4.5419 9.27623 4.5419 9.75826 4.76101L17.247 8.165C17.9635 8.49067 17.9635 9.50834 17.247 9.83401L9.75826 13.238C9.27623 13.4571 8.72301 13.4571 8.24098 13.238Z" fill="#64D09C"></path>
  <path opacity="0.4" d="M8.24098 8.65499L0.75219 5.251C0.0357274 4.92533 0.0357286 3.90766 0.752192 3.58199L8.24098 0.178C8.72301 -0.0411043 9.27623 -0.041104 9.75826 0.178L17.247 3.58199C17.9635 3.90766 17.9635 4.92534 17.247 5.251L9.75826 8.65499C9.27623 8.8741 8.72301 8.8741 8.24098 8.65499Z" fill="#64D09C"></path>
</svg>
