<?xml version="1.0" encoding="UTF-8"?>
<svg xmlns="http://www.w3.org/2000/svg" width="20" height="18" viewBox="0 0 20 18" fill="none">
  <path opacity="0.4" fill-rule="evenodd" clip-rule="evenodd" d="M6.53255 1.29199C5.89973 1.29199 5.38672 1.75836 5.38672 2.33366V4.83366C5.38672 5.17884 5.07891 5.45866 4.69922 5.45866C4.31952 5.45866 4.01172 5.17884 4.01172 4.83366V2.33366C4.01172 1.06801 5.14033 0.0419922 6.53255 0.0419922H13.8659C15.2581 0.0419922 16.3867 1.06801 16.3867 2.33366V4.83366C16.3867 5.17884 16.0789 5.45866 15.6992 5.45866C15.3195 5.45866 15.0117 5.17884 15.0117 4.83366V2.33366C15.0117 1.75836 14.4987 1.29199 13.8659 1.29199H6.53255Z" fill="#64D09C"></path>
  <path opacity="0.4" d="M17.3678 14.4507C17.0197 15.9995 15.5332 17.1107 13.8096 17.1107H5.7425C4.01884 17.1107 2.53242 15.9995 2.18425 14.4507L0.68557 7.78401C0.220652 5.71588 1.94224 3.77734 4.24383 3.77734L15.3083 3.77734C17.6098 3.77734 19.3314 5.71588 18.8665 7.784L17.3678 14.4507Z" fill="#64D09C"></path>
  <path d="M15.7301 4H4.6657C2.61651 4 1.02709 5.53668 1.03126 7.33333H19.3646C19.3687 5.53668 17.7793 4 15.7301 4Z" fill="#64D09C"></path>
  <path fill-rule="evenodd" clip-rule="evenodd" d="M7.44922 10.042C7.82891 10.042 8.13672 10.3218 8.13672 10.667L8.13672 14.0003C8.13672 14.3455 7.82891 14.6253 7.44922 14.6253C7.06952 14.6253 6.76172 14.3455 6.76172 14.0003L6.76172 10.667C6.76172 10.3218 7.06952 10.042 7.44922 10.042Z" fill="#64D09C"></path>
  <path fill-rule="evenodd" clip-rule="evenodd" d="M12.9492 10.042C13.3289 10.042 13.6367 10.3218 13.6367 10.667L13.6367 14.0003C13.6367 14.3455 13.3289 14.6253 12.9492 14.6253C12.5695 14.6253 12.2617 14.3455 12.2617 14.0003L12.2617 10.667C12.2617 10.3218 12.5695 10.042 12.9492 10.042Z" fill="#64D09C"></path>
</svg>
