<?xml version="1.0" encoding="UTF-8"?>
<svg xmlns="http://www.w3.org/2000/svg" width="23" height="22" viewBox="0 0 23 22" fill="none">
  <path opacity="0.4" d="M2.23438 5.49967V16.4997C2.23438 18.5247 3.876 20.1663 5.90104 20.1663H11.401V1.83301H5.90104C3.876 1.83301 2.23438 3.47463 2.23438 5.49967Z" fill="#64D09C"></path>
  <path fill-rule="evenodd" clip-rule="evenodd" d="M4.75391 5.5C4.75391 5.1203 5.06171 4.8125 5.44141 4.8125L8.19141 4.8125C8.5711 4.8125 8.87891 5.1203 8.87891 5.5C8.87891 5.8797 8.5711 6.1875 8.19141 6.1875L5.44141 6.1875C5.06171 6.1875 4.75391 5.8797 4.75391 5.5Z" fill="#64D09C"></path>
  <path fill-rule="evenodd" clip-rule="evenodd" d="M4.75391 9.16699C4.75391 8.7873 5.06171 8.47949 5.44141 8.47949H8.19141C8.5711 8.47949 8.87891 8.7873 8.87891 9.16699C8.87891 9.54669 8.5711 9.85449 8.19141 9.85449H5.44141C5.06171 9.85449 4.75391 9.54669 4.75391 9.16699Z" fill="#64D09C"></path>
  <path fill-rule="evenodd" clip-rule="evenodd" d="M20.5671 5.49967V16.4997C20.5671 18.5247 18.9254 20.1663 16.9004 20.1663H11.4004V1.83301H16.9004C18.9254 1.83301 20.5671 3.47463 20.5671 5.49967ZM14.6087 4.81217C14.229 4.81217 13.9212 5.11998 13.9212 5.49967C13.9212 5.87937 14.229 6.18717 14.6087 6.18717H17.3587C17.7384 6.18717 18.0462 5.87937 18.0462 5.49967C18.0462 5.11998 17.7384 4.81217 17.3587 4.81217H14.6087ZM13.9212 9.16634C13.9212 8.78665 14.229 8.47884 14.6087 8.47884H17.3587C17.7384 8.47884 18.0462 8.78665 18.0462 9.16634C18.0462 9.54604 17.7384 9.85384 17.3587 9.85384H14.6087C14.229 9.85384 13.9212 9.54604 13.9212 9.16634ZM15.9837 16.958C16.49 16.958 16.9004 16.5476 16.9004 16.0413C16.9004 15.5351 16.49 15.1247 15.9837 15.1247C15.4775 15.1247 15.0671 15.5351 15.0671 16.0413C15.0671 16.5476 15.4775 16.958 15.9837 16.958Z" fill="#64D09C"></path>
  <path d="M7.73372 16.0417C7.73372 16.5479 7.32332 16.9583 6.81706 16.9583C6.3108 16.9583 5.90039 16.5479 5.90039 16.0417C5.90039 15.5354 6.3108 15.125 6.81706 15.125C7.32332 15.125 7.73372 15.5354 7.73372 16.0417Z" fill="#64D09C"></path>
</svg>
