<?xml version="1.0" encoding="UTF-8"?>
<svg xmlns="http://www.w3.org/2000/svg" xmlns:xlink="http://www.w3.org/1999/xlink" class="logo-svg" version="1.1" id="Layer_1" x="0px" y="0px" viewBox="0 0 204.1 31" style="enable-background:new 0 0 204.1 31;" xml:space="preserve" width="204.10000610351562" height="31">
    <style type="text/css">
        .logo-svg .st0{fill:#25245D;}
        .logo-svg .st1{fill:#05A660;}
        
    </style>
    <path class="st0 svg-elem-1" d="M6.1,30.2V19.8h13.9c0.9,0,1.7-0.1,2.5-0.4c0.8-0.3,1.5-0.6,2-1c0.6-0.5,1.1-1,1.4-1.7c0.3-0.7,0.6-1.4,0.8-2.1         c0.2-0.7,0.3-1.5,0.3-2.2c0.1-0.7,0.1-1.4,0.1-2c0-0.6,0-1.3-0.1-2c0-0.7-0.1-1.4-0.3-2.1c-0.2-0.7-0.4-1.4-0.7-2         c-0.3-0.6-0.7-1.2-1.2-1.7c-0.5-0.4-0.9-0.8-1.5-1c-0.5-0.2-1-0.4-1.6-0.5c-0.5-0.1-1-0.2-1.5-0.2c-0.5,0-0.9,0-1.3,0H4.9         C4.3,0.8,3.8,0.9,3.2,1C2.5,1.2,2,1.5,1.5,2C1,2.5,0.7,3,0.6,3.6C0.5,4.1,0.5,4.7,0.5,5.2v25L6.1,30.2L6.1,30.2z M6.1,15.4V7         c0-0.3,0-0.5,0-0.7c0-0.2,0.1-0.5,0.3-0.6c0.2-0.2,0.5-0.3,0.7-0.4c0.2,0,0.4,0,0.6,0h9c0.5,0,1.1,0,1.7,0.1         c0.7,0.1,1.3,0.4,1.7,0.9c0.5,0.5,0.8,1.1,0.9,1.9c0.1,0.8,0.2,1.5,0.2,2.1c0,0.3,0,0.6,0,1c0,0.4-0.1,0.7-0.1,1.1         c-0.1,0.4-0.2,0.7-0.3,1.1s-0.3,0.7-0.5,0.9c-0.5,0.6-1,0.9-1.7,1c-0.7,0.1-1.3,0.1-1.9,0.1L6.1,15.4L6.1,15.4z"></path>
    <path class="st0 svg-elem-2" d="M36.8,30.2V0.8h-5.6v29.4H36.8z"></path>
    <path class="st0 svg-elem-3" d="M52.7,6.7l-4.5-5.9h-7.2l8.2,10.4L52.7,6.7L52.7,6.7z M49.2,19.4L41,30.2h7.2l4.5-6.1L49.2,19.4z"></path>
    <path class="st1 svg-elem-4" d="M53,13.6l9.8-12.7H70L58.6,15.3L70,30.2h-7.2L53,17C52.1,15.9,51.8,15,53,13.6z"></path>
    <path class="st0 svg-elem-5" d="M97.4,30.2v-4.4H81.2c-0.5,0-0.8,0-1-0.1c-0.2-0.1-0.3-0.2-0.4-0.2c-0.2-0.2-0.3-0.4-0.4-0.6c0-0.2,0-0.4,0-0.6         V0.8h-5.6V27c0,0.6,0.1,1.2,0.4,1.6c0.2,0.4,0.5,0.7,0.7,0.9c0.3,0.3,0.8,0.5,1.3,0.6c0.5,0.1,1,0.2,1.5,0.2L97.4,30.2L97.4,30.2z"></path>
    <path class="st0 svg-elem-6" d="M114.5,0.5c-0.9,0-1.9,0-2.9,0c-1,0-2.1,0.1-3.1,0.3s-2.1,0.5-3.1,0.9c-1,0.4-1.9,1-2.7,1.8         c-0.8,0.8-1.5,1.6-1.9,2.6c-0.5,1-0.8,2-1,3c-0.2,1-0.4,2.1-0.4,3.2c-0.1,1.1-0.1,2.1-0.1,3.1c0,0.8,0,1.8,0.1,2.8         c0,1,0.2,2.1,0.4,3.2c0.2,1.1,0.5,2.1,1,3.2c0.5,1,1.1,2,2,2.8c0.8,0.8,1.7,1.4,2.7,1.8c1,0.4,2,0.7,3.1,0.9         c1.1,0.2,2.1,0.3,3.1,0.3c1,0,2,0,2.9,0c0.8,0,1.8,0,2.8,0c1,0,2.1-0.1,3.2-0.3c1.1-0.2,2.1-0.5,3.1-0.9c1-0.4,1.9-1,2.7-1.8         c0.8-0.7,1.4-1.6,1.8-2.6c0.5-1,0.8-2,1-3.1c0.2-1.1,0.4-2.1,0.4-3.2c0.1-1.1,0.1-2.1,0.1-3.1c0-1,0-2-0.1-3.1         c-0.1-1.1-0.2-2.2-0.4-3.2c-0.2-1.1-0.6-2.1-1-3.1c-0.5-1-1.1-1.8-1.8-2.6c-0.8-0.8-1.7-1.4-2.7-1.8c-1-0.4-2-0.7-3.1-0.9         s-2.1-0.3-3.1-0.3C116.3,0.5,115.3,0.5,114.5,0.5L114.5,0.5z M105,15.5c0-2.3,0.2-4,0.5-5.3c0.3-1.2,0.8-2.2,1.3-3         c0.9-1.1,2-1.7,3.3-2c1.3-0.3,2.8-0.4,4.3-0.4c1.5,0,3,0.1,4.3,0.4c1.4,0.3,2.5,0.9,3.3,2c0.2,0.3,0.5,0.6,0.7,1         c0.2,0.4,0.4,1,0.6,1.6c0.2,0.6,0.3,1.4,0.4,2.3c0.1,0.9,0.1,2,0.1,3.3c0,1.2-0.1,2.2-0.1,3.1c-0.1,0.9-0.2,1.7-0.4,2.3         c-0.2,0.6-0.4,1.2-0.6,1.6c-0.2,0.4-0.4,0.8-0.7,1.1c-0.5,0.6-1,1-1.5,1.3c-0.6,0.3-1.2,0.6-1.8,0.7c-0.7,0.2-1.4,0.3-2.1,0.3         c-0.7,0-1.5,0.1-2.2,0.1c-0.8,0-1.5,0-2.2-0.1c-0.7,0-1.4-0.1-2.1-0.3c-0.6-0.2-1.3-0.4-1.8-0.7c-0.6-0.3-1.1-0.8-1.5-1.3         c-0.3-0.3-0.5-0.7-0.7-1.1c-0.2-0.4-0.4-1-0.6-1.6c-0.2-0.7-0.3-1.4-0.4-2.3C105,17.8,105,16.7,105,15.5L105,15.5z"></path>
    <path class="st0 svg-elem-7" d="M160,15.7h-5.6v8c0,0.2,0,0.5-0.1,0.8c0,0.3-0.2,0.5-0.4,0.8c-0.2,0.2-0.5,0.4-0.7,0.4c-0.3,0-0.5,0.1-0.8,0.1         l-6.8,0.1c-1.2,0-2.3-0.2-3.3-0.6c-1-0.4-1.8-1.2-2.4-2.5c-0.1-0.2-0.2-0.5-0.4-0.9c-0.1-0.4-0.3-0.9-0.4-1.4         c-0.1-0.6-0.2-1.3-0.3-2.1c-0.1-0.8-0.1-1.7-0.1-2.8c0-1.1,0-2,0.1-2.8c0.1-0.8,0.2-1.5,0.3-2c0.1-0.6,0.2-1,0.4-1.4         c0.1-0.4,0.3-0.7,0.4-0.9c0.6-1,1.4-1.8,2.5-2.4c1.1-0.5,2.5-0.8,4.1-0.8h13.1V0.8h-14.7c-2.9,0-5.3,0.6-7.1,1.8         c-1.1,0.7-2,1.5-2.6,2.5c-0.6,1-1.1,2.1-1.4,3.2c-0.3,1.2-0.5,2.4-0.6,3.6c-0.1,1.2-0.1,2.5-0.1,3.7c0,1,0,2.1,0.1,3.2         c0.1,1.1,0.2,2.2,0.5,3.3c0.3,1.1,0.6,2.1,1.2,3.1c0.5,1,1.2,1.8,2.1,2.6c0.7,0.6,1.6,1.1,2.7,1.6c1.1,0.5,2.5,0.8,4.2,0.7l12.2-0.1         c0.4,0,0.9-0.1,1.5-0.2c0.5-0.1,1-0.4,1.4-0.7c0.3-0.2,0.5-0.6,0.8-1c0.2-0.5,0.3-1.1,0.3-1.8V15.7L160,15.7z"></path>
    <path class="st0 svg-elem-8" d="M169.8,30.2V0.8h-5.6v29.4H169.8z"></path>
    <path class="st0 svg-elem-9" d="M191.3,6.7l4.5-5.9h7.2l-8.2,10.4L191.3,6.7L191.3,6.7z M194.8,19.4l8.2,10.8h-7.2l-4.5-6.1L194.8,19.4z"></path>
    <path class="st1 svg-elem-10" d="M191,13.6l-9.8-12.7H174l11.4,14.5L174,30.2h7.2L191,17C191.8,15.9,192.1,15,191,13.6z"></path>
 
    </svg>
