<?xml version="1.0" encoding="UTF-8"?>
<svg xmlns="http://www.w3.org/2000/svg" width="13" height="18" viewBox="0 0 13 18" fill="none">
  <path opacity="0.4" d="M0.400391 2.7C0.400391 1.20883 1.55166 0 2.97182 0H9.82896C11.2491 0 12.4004 1.20883 12.4004 2.7V15.3C12.4004 16.7912 11.2491 18 9.82896 18H2.97182C1.55166 18 0.400391 16.7912 0.400391 15.3V2.7Z" fill="#64D09C"></path>
  <path fill-rule="evenodd" clip-rule="evenodd" d="M4.40039 15.6875C4.40039 15.3078 4.70819 15 5.08789 15H6.92122C7.30092 15 7.60872 15.3078 7.60872 15.6875C7.60872 16.0672 7.30092 16.375 6.92122 16.375H5.08789C4.70819 16.375 4.40039 16.0672 4.40039 15.6875Z" fill="#64D09C"></path>
  <rect x="2.40039" y="2" width="7.91015" height="10.0342" rx="1" fill="#64D09C"></rect>
</svg>
