<svg width="50" height="51" viewBox="0 0 50 51" fill="none" xmlns="http://www.w3.org/2000/svg">
<path fill-rule="evenodd" clip-rule="evenodd" d="M18.3768 0.997955H30.6278C31.7538 0.997955 32.6696 1.91372 32.6696 3.03976V9.16528C32.6696 10.2913 31.7538 11.2071 30.6278 11.2071H18.3768C17.2507 11.2071 16.335 10.2913 16.335 9.16528V3.03976C16.335 1.91372 17.2507 0.997955 18.3768 0.997955ZM18.3768 9.16221L30.6278 9.16528V3.03976H18.3768V9.16221ZM35.7329 5.08167H41.8584C43.0896 5.08167 44.9211 5.89732 44.9212 8.14442V16.3117C44.9212 17.543 44.1055 19.3745 41.8585 19.3745H38.1974L39.5173 20.6944C39.9165 21.0936 39.9165 21.7388 39.5173 22.138C39.3182 22.337 39.0569 22.4371 38.7955 22.4371C38.5342 22.4371 38.2728 22.337 38.0738 22.138L35.0121 19.0763C34.9171 18.9813 34.8426 18.869 34.7905 18.7435C34.6874 18.4944 34.6874 18.2127 34.7905 17.9635C34.8426 17.838 34.9171 17.7246 35.0121 17.6307L38.0738 14.569C38.473 14.1698 39.1182 14.1698 39.5174 14.569C39.9166 14.9682 39.9166 15.6134 39.5174 16.0126L38.1973 17.3327H41.8584C42.6813 17.3327 42.8671 16.7712 42.8793 16.2995V8.14442C42.8793 7.32255 42.3178 7.13572 41.8461 7.12347H35.7329C35.1684 7.12347 34.7119 6.66616 34.7119 6.10262C34.7119 5.53907 35.1683 5.08167 35.7329 5.08167ZM46.9622 14.2699C46.9622 13.7064 47.4186 13.249 47.9832 13.249C48.5478 13.249 49.0041 13.7064 49.004 14.2699V35.7092C49.004 35.9797 48.8968 36.2401 48.7049 36.431L35.434 49.7019C35.3401 49.7958 35.2288 49.8704 35.1043 49.9224C34.9807 49.9745 34.848 50.0021 34.7112 50.0021H5.10456C2.28989 50.0021 0 47.7122 0 44.8975V14.2699C0 12.5047 1.06689 9.16528 5.10456 9.16528H13.2719C13.8365 9.16528 14.2928 9.62269 14.2928 10.1862C14.2928 10.7498 13.8365 11.2072 13.2719 11.2072H5.10456C2.22251 11.2072 2.04793 13.7625 2.04181 14.275V44.8974C2.04181 46.586 3.41593 47.9602 5.10456 47.9602H33.6903V39.7929C33.6903 36.9782 35.9802 34.6883 38.7949 34.6883H41.8576C42.4222 34.6883 42.8786 35.1456 42.8786 35.7091C42.8786 36.2727 42.4222 36.7301 41.8576 36.7301H38.7949C37.1063 36.7301 35.7321 38.1042 35.7321 39.7929V46.5167L46.9622 35.2866V14.2699ZM13.993 29.8818L10.9313 26.82C10.532 26.4208 9.88686 26.4208 9.48765 26.82C9.08843 27.2193 9.08843 27.8644 9.48765 28.2637L10.8077 29.5837H7.14674C6.32382 29.5837 6.13804 29.0222 6.12579 28.5628V20.3954C6.12579 19.5736 6.68733 19.3867 7.14674 19.3745H13.2723C13.8369 19.3745 14.2932 18.9171 14.2932 18.3535C14.2932 17.79 13.8369 17.3326 13.2723 17.3326H7.14674C5.91551 17.3326 4.08398 18.1483 4.08398 20.3953V28.5628C4.08398 29.794 4.89973 31.6255 7.14674 31.6255H10.8078L9.48774 32.9456C9.08853 33.3448 9.08853 33.99 9.48774 34.3892C9.68682 34.5882 9.94821 34.6883 10.2095 34.6883C10.4708 34.6883 10.7322 34.5882 10.9313 34.3892L13.993 31.3275C14.0879 31.2336 14.1625 31.1203 14.2145 30.9947C14.3176 30.7455 14.3176 30.4638 14.2145 30.2147C14.1625 30.0891 14.0879 29.9767 13.993 29.8818ZM24.5025 42.8556H25.5235C26.0881 42.8556 26.5444 43.313 26.5445 43.8766C26.5445 44.4402 26.0881 44.8976 25.5235 44.8976H24.5025C23.9378 44.8976 23.4814 44.4402 23.4814 43.8766C23.4814 43.313 23.9378 42.8556 24.5025 42.8556ZM29.6075 42.8556H28.5865C28.0218 42.8556 27.5654 43.313 27.5654 43.8766C27.5654 44.4402 28.0218 44.8976 28.5865 44.8976H29.6075C30.1721 44.8976 30.6285 44.4402 30.6285 43.8766C30.6285 43.313 30.1721 42.8556 29.6075 42.8556ZM30.6278 13.249H18.3768C17.2507 13.249 16.335 14.1647 16.335 15.2908V21.4163C16.335 22.5423 17.2507 23.4581 18.3768 23.4581H30.6278C31.7538 23.4581 32.6696 22.5423 32.6696 21.4163V15.2908C32.6696 14.1647 31.7538 13.249 30.6278 13.249ZM30.6278 21.4163L18.3768 21.4132V15.2908H30.6278V21.4163ZM18.3768 25.5H30.6278C31.7538 25.5 32.6696 26.4158 32.6696 27.5418V33.6673C32.6696 34.7934 31.7538 35.7091 30.6278 35.7091H18.3768C17.2507 35.7091 16.335 34.7934 16.335 33.6673V27.5418C16.335 26.4158 17.2507 25.5 18.3768 25.5ZM18.3768 33.6643L30.6278 33.6673V27.5418H18.3768V33.6643ZM19.3983 38.772H7.14727C6.02123 38.772 5.10547 39.6877 5.10547 40.8138V42.8556C5.10547 43.9816 6.02123 44.8974 7.14727 44.8974H19.3983C20.5243 44.8974 21.4401 43.9816 21.4401 42.8556V40.8138C21.4401 39.6877 20.5243 38.772 19.3983 38.772ZM19.3983 42.8556L7.14727 42.8525V40.8138H19.3983V42.8556ZM24.5025 38.772H29.6074C30.1721 38.772 30.6285 39.2293 30.6285 39.793C30.6285 40.3566 30.1721 40.814 29.6074 40.814H24.5025C23.9378 40.814 23.4814 40.3566 23.4814 39.793C23.4814 39.2294 23.9378 38.772 24.5025 38.772Z" fill="#1C1C28"/>
</svg>
