<svg width="52" height="50" viewBox="0 0 52 50" fill="none" xmlns="http://www.w3.org/2000/svg">
<path fill-rule="evenodd" clip-rule="evenodd" d="M34.038 6.53189C33.9186 6.16412 33.6008 5.89633 33.218 5.84079L28.8373 5.20483L26.8759 1.1947C26.7057 0.845978 26.3518 0.625 25.9638 0.625C25.5758 0.625 25.2219 0.845978 25.0513 1.19431L23.0903 5.20483L18.7096 5.84039C18.3268 5.89594 18.009 6.16412 17.8896 6.53189C17.7701 6.89966 17.8697 7.30313 18.1466 7.57291L21.3189 10.6646L20.5703 15.0306C20.5048 15.4115 20.6615 15.7967 20.9745 16.0236C21.2856 16.2498 21.6997 16.2819 22.0441 16.101L25.9638 14.04L29.885 16.101C30.227 16.2811 30.6416 16.2509 30.9546 16.0236C31.2672 15.7963 31.424 15.4115 31.3585 15.0302L30.6091 10.6646L33.7809 7.57291C34.0578 7.30313 34.1574 6.89966 34.038 6.53189ZM28.8083 9.58273C28.5691 9.81601 28.4596 10.1524 28.5163 10.4817L29.0079 13.3457L26.4363 11.9937C26.1403 11.8381 25.7868 11.8381 25.4909 11.9937L22.9201 13.3457L23.4112 10.4817C23.4676 10.152 23.3581 9.81601 23.1188 9.58273L21.0384 7.55505L23.9127 7.1377C24.2451 7.08969 24.532 6.88022 24.6792 6.5787L25.9638 3.95236L27.248 6.5787C27.3956 6.88062 27.6824 7.08969 28.0145 7.1377L30.8892 7.55505L28.8083 9.58273ZM26 18.9062C30.4803 18.9062 34.125 22.551 34.125 27.0312C34.125 31.5115 30.4803 35.1562 26 35.1562C21.5197 35.1562 17.875 31.5115 17.875 27.0312C17.875 22.551 21.5197 18.9062 26 18.9062ZM42.5547 37.1875C39.9954 37.1875 37.4432 38.2499 35.7048 39.9725C33.4164 36.9653 29.8879 35.1562 26 35.1562C22.2767 35.1562 18.6689 36.855 16.2956 39.9725C14.5568 38.2503 12.005 37.1875 9.44531 37.1875C12.8056 37.1875 15.5391 34.454 15.5391 31.0938C15.5391 27.7335 12.8056 25 9.44531 25C6.08502 25 3.35156 27.7335 3.35156 31.0938C3.35156 34.454 6.08502 37.1875 9.44531 37.1875C4.32553 37.1875 0 41.3734 0 46.3281V48.3594C0 48.9203 0.454651 49.375 1.01562 49.375H50.9844C51.5453 49.375 52 48.9203 52 48.3594V46.3281C52 41.3734 47.6745 37.1875 42.5547 37.1875ZM42.5547 37.1875C39.1944 37.1875 36.4609 34.454 36.4609 31.0938C36.4609 27.7335 39.1944 25 42.5547 25C45.915 25 48.6484 27.7335 48.6484 31.0938C48.6484 34.454 45.915 37.1875 42.5547 37.1875ZM19.9062 27.0312C19.9062 30.3915 22.6397 33.125 26 33.125C29.3603 33.125 32.0938 30.3915 32.0938 27.0312C32.0938 23.671 29.3603 20.9375 26 20.9375C22.6397 20.9375 19.9062 23.671 19.9062 27.0312ZM42.5547 35.1562C40.3148 35.1562 38.4922 33.3337 38.4922 31.0938C38.4922 28.8538 40.3148 27.0312 42.5547 27.0312C44.7946 27.0312 46.6172 28.8538 46.6172 31.0938C46.6172 33.3337 44.7946 35.1562 42.5547 35.1562ZM27.0156 40.2344C27.0156 40.7953 26.561 41.25 26 41.25C25.439 41.25 24.9844 40.7953 24.9844 40.2344C24.9844 39.6734 25.439 39.2188 26 39.2188C26.561 39.2188 27.0156 39.6734 27.0156 40.2344ZM9.44531 39.2188C5.42645 39.2188 2.03125 42.4743 2.03125 46.3281V47.3438H13.8125C13.8125 45.3879 14.2826 43.4661 15.1753 41.7419C13.8252 40.1931 11.6444 39.2188 9.44531 39.2188ZM36.1562 47.3438C36.1562 41.7729 31.6514 37.1875 26 37.1875C20.4406 37.1875 15.8438 41.6987 15.8438 47.3438H36.1562ZM38.1875 47.3438H49.9688V46.3281C49.9688 42.4743 46.5735 39.2188 42.5547 39.2188C40.3556 39.2188 38.1748 40.1931 36.8247 41.7419C37.7174 43.4661 38.1875 45.3879 38.1875 47.3438ZM9.44531 35.1562C7.20538 35.1562 5.38281 33.3337 5.38281 31.0938C5.38281 28.8538 7.20538 27.0312 9.44531 27.0312C11.6852 27.0312 13.5078 28.8538 13.5078 31.0938C13.5078 33.3337 11.6852 35.1562 9.44531 35.1562ZM48.3984 13.4528C48.7812 13.5084 49.099 13.7762 49.2184 14.1439C49.3378 14.5117 49.2386 14.9152 48.9617 15.1849L46.8138 17.2793L47.3208 20.2349C47.3859 20.6158 47.2296 21.001 46.917 21.2279C46.6043 21.4552 46.1894 21.4854 45.8474 21.3057L43.1925 19.9104L40.5368 21.3057C40.1948 21.4854 39.7802 21.4552 39.4676 21.2279C39.1546 21.0006 38.9983 20.6158 39.0633 20.2349L39.5704 17.2793L37.4229 15.1849C37.1459 14.9152 37.0464 14.5117 37.1662 14.1439C37.2856 13.7762 37.6034 13.5084 37.9858 13.4528L40.9541 13.0216L42.282 10.3318C42.453 9.98502 42.8061 9.76562 43.1925 9.76562H43.1929C43.5797 9.76562 43.9324 9.98502 44.1034 10.3318L45.4304 13.0216L48.3984 13.4528ZM44.7219 17.0964C44.6651 16.7671 44.7742 16.4311 45.0139 16.1978L46.0704 15.1671L44.61 14.9552C44.2791 14.9072 43.9931 14.6993 43.8451 14.3994L43.1925 13.0767L42.5395 14.3998C42.3915 14.6993 42.1054 14.9072 41.7746 14.9552L40.3142 15.1671L41.3711 16.1978C41.6103 16.4311 41.7194 16.7671 41.6631 17.0964L41.4136 18.5504L42.7204 17.864C43.0159 17.7085 43.3694 17.7085 43.6654 17.864L44.971 18.55L44.7219 17.0964ZM14.6871 14.1439C14.5677 13.7762 14.2499 13.5084 13.8671 13.4528L10.8992 13.0216L9.57212 10.3318C9.40113 9.98502 9.04844 9.76562 8.66163 9.76562C8.27482 9.76562 7.92173 9.98502 7.75074 10.3318L6.42289 13.0216L3.45457 13.4528C3.07212 13.5084 2.75434 13.7762 2.63493 14.1439C2.51511 14.5117 2.61469 14.9152 2.89161 15.1849L5.0391 17.2793L4.53248 20.2349C4.46702 20.6158 4.62373 21.0006 4.93635 21.2279C5.24897 21.4552 5.66355 21.4854 6.00593 21.3057L8.66123 19.9104L11.3161 21.3057C11.6605 21.4866 12.0747 21.454 12.3857 21.2279C12.6983 21.001 12.855 20.6158 12.7896 20.2349L12.2826 17.2793L14.4305 15.1849C14.7074 14.9152 14.8066 14.5117 14.6871 14.1439ZM10.4822 16.1978C10.243 16.4311 10.1339 16.7671 10.1902 17.0964L10.4398 18.55L9.13374 17.864C8.83817 17.7085 8.48469 17.7085 8.18913 17.864L6.8819 18.5504L7.13145 17.0964C7.18818 16.7671 7.07868 16.4311 6.83945 16.1978L5.78257 15.1671L7.24332 14.9552C7.5738 14.9072 7.85984 14.6993 8.00782 14.3998L8.66084 13.0767L9.31345 14.3994C9.46143 14.6993 9.74747 14.9072 10.0783 14.9552L11.5387 15.1671L10.4822 16.1978ZM29.044 40.8398C29.3519 40.3709 29.9815 40.2403 30.4504 40.5486C31.7001 41.3694 32.6995 42.5148 33.3398 43.8605C33.5806 44.3667 33.3656 44.9729 32.859 45.2137C32.3515 45.4553 31.7461 45.2391 31.5057 44.7333C31.0249 43.7232 30.2743 42.8631 29.3352 42.2462C28.8663 41.9379 28.7358 41.3083 29.044 40.8398Z" fill="#1C1C28"/>
</svg>
