<svg width="61" height="38" viewBox="0 0 61 38" fill="none" xmlns="http://www.w3.org/2000/svg">
<path fill-rule="evenodd" clip-rule="evenodd" d="M15.0042 2.87909C12.8331 0.821954 4.15127 0.155638 1.54194 0.00114214C1.18225 -0.0165519 0.850334 0.102438 0.597037 0.343148C0.343621 0.581245 0.199219 0.915649 0.199219 1.26525V24.0656C0.199219 24.7648 0.766733 25.3323 1.46594 25.3323H9.06605C9.61326 25.3323 10.0997 24.9802 10.2694 24.4583L10.2695 24.4577C10.2955 24.378 10.4016 24.0524 10.5666 23.5332C10.7738 23.7473 10.9964 23.9797 11.228 24.2214L11.2283 24.2217L11.5034 24.5088L11.5248 24.5311C12.6481 25.7046 13.8061 26.9145 14.5866 27.5691C19.3038 31.5187 24.9734 35.7823 26.1032 36.5245C27.0356 37.1376 29.0445 37.9989 30.6 37.9989C31.8489 37.9989 32.8091 37.7126 33.4753 37.1528C34.3671 37.5 35.3805 37.5024 36.3558 37.1224C37.5085 36.6765 38.4559 35.7772 38.993 34.6879C39.9911 34.9007 41.1338 34.7512 42.1724 34.2294C43.1883 33.7177 43.9229 32.9349 44.2877 32.0203C45.296 32.0735 46.3346 31.7163 47.1934 30.9791C48.3518 29.9884 48.8414 28.5589 48.5678 27.1361L50.5722 25.7898C50.7134 26.2452 50.8284 26.6324 50.9122 26.9359C51.0642 27.4856 51.5633 27.8656 52.1333 27.8656H59.7335C60.4327 27.8656 61.0002 27.2981 61.0002 26.5989V3.79858C61.0002 3.09687 60.4327 2.53197 59.7335 2.53197C49.7874 2.53197 44.2697 5.07801 44.0392 5.18441C43.7099 5.33891 43.4641 5.62522 43.3628 5.97233C43.2741 6.27629 43.3019 6.59965 43.4377 6.88283C41.5233 6.15726 38.852 5.10204 36.1836 3.90748C31.6126 1.86416 28.6651 2.48749 25.3983 5.06531H15.2647C15.3187 4.66063 15.3624 4.2736 15.3943 3.9076C15.4273 3.52249 15.2854 3.14248 15.0042 2.87909ZM44.9635 10.1481C43.6407 9.67444 39.3905 8.12053 35.1475 6.22302C30.6634 4.21908 28.5405 5.25021 24.4237 9.36946C22.6935 11.0998 21.3584 13.6889 21.6244 14.801C21.6624 14.9631 21.7333 15.133 22.1285 15.2647C23.3673 15.68 25.2217 15.908 27.0129 13.2303C27.2232 12.9162 27.5626 12.7135 27.9401 12.6755C28.7911 12.5897 29.0053 12.4937 29.6338 12.2122L29.64 12.2094L29.6962 12.1844C30.103 12.0032 30.6204 11.7727 31.4361 11.4773C31.8946 11.3126 32.4139 11.4241 32.7611 11.7737C34.1468 13.1594 36.3204 14.9175 38.6207 16.7771L38.6232 16.7791C42.11 19.5998 45.6996 22.5037 47.4463 24.8371L49.7605 23.2827C48.4599 19.3822 46.4502 13.7621 44.9635 10.1481ZM13.3351 22.7556C12.58 21.9672 11.8782 21.2389 11.4134 20.8026C12.4718 17.3094 14.0012 11.9567 14.8432 7.59876H22.6122C20.8817 9.33942 18.5514 12.8261 19.1567 15.3863C19.4176 16.4807 20.1879 17.2914 21.3329 17.6688C24.2032 18.6163 26.8226 17.7093 28.7734 15.1203C29.579 14.9962 30.0173 14.8138 30.6759 14.5173C30.914 14.4109 31.1927 14.2869 31.5626 14.1373C33.0117 15.4978 34.9675 17.0811 37.0271 18.7455L37.0343 18.7513L37.0343 18.7513L37.0344 18.7514C40.7566 21.7621 44.9749 25.174 45.9243 27.1487C46.393 28.124 45.8888 28.7599 45.5468 29.0512C45.0671 29.4632 44.4182 29.6063 44.0368 29.3896C43.0965 28.6371 39.0756 24.5205 36.5833 21.9224C36.0993 21.4157 35.2963 21.398 34.7921 21.8844C34.2854 22.3684 34.2702 23.1714 34.7541 23.6756C35.3418 24.2884 40.078 29.2252 41.9767 30.956C41.8301 31.5049 41.2963 31.8327 41.0374 31.9621C40.243 32.3642 39.4146 32.3043 39.0836 32.0251C39.0547 31.997 39.0242 31.9701 38.992 31.9444C37.4745 30.7308 33.6618 26.68 32.8004 25.7427C32.3241 25.2259 31.5261 25.1955 31.0093 25.6667C30.495 26.1404 30.4596 26.9435 30.9333 27.4578L30.9605 27.487L30.9605 27.487L30.9606 27.4871C31.3048 27.8571 34.787 31.5999 36.7963 33.3996C36.5575 34.0003 36.0549 34.5192 35.4436 34.7563C35.064 34.9002 34.5167 34.9882 34.0208 34.5586C33.9986 34.5369 33.9754 34.5159 33.9513 34.4955C32.1449 32.973 28.4488 29.0386 27.7268 28.2659C27.248 27.7542 26.4449 27.7263 25.9357 28.2051C25.424 28.6839 25.3985 29.4844 25.8748 29.9963C26.7316 30.9135 29.2876 33.625 31.2046 35.4311C31.0428 35.4527 30.8442 35.4656 30.5999 35.4656C29.7563 35.4656 28.2387 34.8956 27.4966 34.4041C26.6073 33.8189 21.0314 29.6591 16.2155 25.626C15.5391 25.056 14.3687 23.8348 13.3351 22.7556ZM8.14133 22.799H2.73255V2.62318C6.80371 2.94488 11.1966 3.64409 12.7926 4.4193C12.1213 9.96738 9.08374 19.8247 8.14133 22.799ZM53.0809 25.3323H58.4668V5.08062C52.44 5.22241 48.2877 6.34984 46.3548 7.00594C48.3333 11.2214 51.88 21.4207 53.0809 25.3323Z" fill="#1C1C28"/>
</svg>
