<?xml version="1.0" encoding="UTF-8"?>
<svg xmlns="http://www.w3.org/2000/svg" width="18" height="21" viewBox="0 0 18 21" fill="none">
  <path fill-rule="evenodd" clip-rule="evenodd" d="M2.33248 3.21069L7.37079 0.864193C8.41343 0.378603 9.60358 0.378602 10.6462 0.864192L15.6646 3.20139C17.1321 3.88485 18.0953 5.42095 17.9925 7.10032C17.5981 13.5419 15.8406 16.4539 11.0899 19.8322C9.83612 20.7238 8.18227 20.7216 6.92759 19.8315C2.1914 16.4715 0.368711 13.6001 0.00616513 7.07773C-0.0865699 5.40939 0.875149 3.88942 2.33248 3.21069ZM13.8182 7.63746C14.0799 7.35765 14.0563 6.92683 13.7655 6.67499C13.4747 6.42315 13.0268 6.44583 12.7651 6.72565L9.15725 11.7608C8.73888 12.2081 8.03058 12.2639 7.54222 11.8879L6.15088 10.6091C5.8454 10.3739 5.39964 10.4216 5.15525 10.7155C4.91086 11.0095 4.96039 11.4383 5.26587 11.6734L6.65721 12.9523C7.7316 13.7793 9.28986 13.6567 10.2103 12.6726L13.8182 7.63746Z" fill="url(#paint0_linear_2886_21329)"></path>
  <defs>
    <linearGradient id="paint0_linear_2886_21329" x1="-5.81416" y1="6.96018" x2="7.6143" y2="25.668" gradientUnits="userSpaceOnUse">
      <stop stop-color="#00CFDE"></stop>
      <stop offset="1" stop-color="#05A660"></stop>
    </linearGradient>
  </defs>
</svg>
