<svg width="43" height="43" viewBox="0 0 43 43" fill="none" xmlns="http://www.w3.org/2000/svg">
<path d="M41.5779 25.8794C41.8764 24.4804 42.025 23.0536 42.021 21.623C42.0059 19.0083 41.4755 16.4221 40.4602 14.0124C39.4449 11.6027 37.9645 9.41668 36.1038 7.57927C34.243 5.74187 32.0383 4.28912 29.6157 3.30406C27.1931 2.31901 24.6 1.82096 21.9848 1.83839C20.8406 1.8349 19.6984 1.93399 18.5719 2.13446C16.823 1.03573 14.813 0.42262 12.7485 0.358198C10.684 0.293776 8.63962 0.780367 6.82562 1.76792C5.01162 2.75548 3.49349 4.20834 2.42738 5.97708C1.36126 7.74582 0.785658 9.76658 0.759766 11.8315C0.760686 13.8671 1.30676 15.8654 2.34124 17.6187C2.08433 18.9219 1.95142 20.2465 1.9443 21.5748C1.96622 24.1716 2.50381 26.7382 3.52586 29.1256C4.5479 31.5131 6.03405 33.6737 7.89804 35.4823C9.76203 37.2908 11.9667 38.7112 14.3842 39.661C16.8017 40.6108 19.3838 41.071 21.9806 41.015C23.2095 41.0242 24.4361 40.9074 25.6413 40.6665C27.3045 41.675 29.1927 42.2538 31.1355 42.3505C33.0947 42.3872 35.0304 41.9188 36.756 40.9905C38.4817 40.0621 39.9391 38.7051 40.9879 37.0501C42.0367 35.3951 42.6415 33.498 42.7441 31.5415C42.8467 29.5849 42.4436 27.635 41.5737 25.8794H41.5779ZM31.0872 29.7368C30.2181 30.902 29.0339 31.7945 27.6743 32.3091C25.9923 32.9785 24.1914 33.2978 22.3817 33.2477C20.279 33.3159 18.1909 32.875 16.2952 31.9626C15.1862 31.3721 14.2354 30.5238 13.5229 29.489C12.8907 28.6246 12.5296 27.5919 12.4854 26.522C12.4804 26.2499 12.5357 25.98 12.6471 25.7317C12.7586 25.4835 12.9235 25.2628 13.1302 25.0857C13.5747 24.6823 14.16 24.4696 14.7599 24.4935C15.2454 24.473 15.7215 24.6314 16.0978 24.9387C16.5105 25.3238 16.8314 25.7967 17.0366 26.3225C17.2905 26.9816 17.6408 27.5994 18.0762 28.1556C18.475 28.6776 19.0036 29.0859 19.6094 29.34C20.4386 29.6897 21.3329 29.8586 22.2326 29.8355C23.505 29.9052 24.7675 29.5772 25.845 28.8969C26.2611 28.6539 26.6073 28.3076 26.8501 27.8915C27.093 27.4754 27.2242 27.0037 27.2312 26.522C27.2451 26.1817 27.186 25.8424 27.0577 25.5269C26.9295 25.2114 26.7351 24.9271 26.4877 24.693C25.9427 24.1765 25.2792 23.8015 24.5555 23.6011C23.7658 23.3554 22.6757 23.1076 21.3421 22.8116C19.8079 22.4872 18.3021 22.0407 16.8392 21.4761C15.7157 21.0257 14.7275 20.293 13.9703 19.3489C13.2538 18.3963 12.8867 17.2264 12.9306 16.0354C12.9293 14.8194 13.3294 13.6369 14.069 12.6714C14.9065 11.6276 16.0196 10.839 17.2823 10.3952C18.8866 9.83001 20.5805 9.56244 22.2809 9.60568C23.6202 9.58815 24.9545 9.77075 26.2398 10.1474C27.2392 10.4372 28.1773 10.9069 29.008 11.5333C29.6706 12.0272 30.2264 12.6501 30.6419 13.3644C30.9592 13.9216 31.1298 14.5502 31.1376 15.1912C31.1386 15.4701 31.0818 15.7462 30.9708 16.0021C30.8599 16.2579 30.6971 16.4881 30.4928 16.6779C30.2896 16.8907 30.0436 17.058 29.771 17.1688C29.4984 17.2795 29.2054 17.3312 28.9113 17.3205C28.4334 17.3486 27.9607 17.2081 27.5756 16.9236C27.1783 16.5525 26.8442 16.1192 26.5864 15.6406C26.1926 14.8551 25.6355 14.1628 24.9524 13.6101C24.0373 13.038 22.9614 12.7779 21.8861 12.8688C20.7756 12.817 19.6743 13.0922 18.7189 13.6605C18.3756 13.8451 18.0859 14.1154 17.878 14.4451C17.67 14.7748 17.551 15.1526 17.5323 15.5419C17.5345 15.9693 17.6728 16.3848 17.9271 16.7283C18.2336 17.0956 18.6241 17.3837 19.0654 17.5683C19.5166 17.8146 19.9992 17.9983 20.4999 18.1142C20.9956 18.2612 21.7873 18.4586 22.9236 18.7064C24.3097 19.0046 25.5972 19.3489 26.7355 19.6954C27.766 20.0009 28.7481 20.4505 29.6527 21.0309C30.4229 21.5371 31.0661 22.214 31.5324 23.0089C32.0095 23.9065 32.2482 24.9115 32.2255 25.9277C32.2846 27.2892 31.8836 28.6309 31.0872 29.7368Z" fill="url(#paint0_linear_6618_60051)"/>
<defs>
<linearGradient id="paint0_linear_6618_60051" x1="-12.8066" y1="13.9189" x2="14.3261" y2="55.9189" gradientUnits="userSpaceOnUse">
<stop stop-color="#00CFDE"/>
<stop offset="1" stop-color="#05A660"/>
</linearGradient>
</defs>
</svg>
