<svg width="66" height="66" viewBox="0 0 66 66" fill="none" xmlns="http://www.w3.org/2000/svg">
<path d="M15.9677 61.7419H3.19355C1.43284 61.7419 0 60.3091 0 58.5484V50.0322C0 48.2715 1.43284 46.8387 3.19355 46.8387H15.9677C17.7284 46.8387 19.1613 48.2715 19.1613 50.0322V58.5484C19.1613 60.3091 17.7284 61.7419 15.9677 61.7419ZM3.19355 48.9677C2.607 48.9677 2.12903 49.4446 2.12903 50.0322V58.5484C2.12903 59.136 2.607 59.6129 3.19355 59.6129H15.9677C16.5543 59.6129 17.0323 59.136 17.0323 58.5484V50.0322C17.0323 49.4446 16.5543 48.9677 15.9677 48.9677H3.19355Z" fill="black"/>
<path d="M5.32227 60.6774H7.4513V64.9354H5.32227V60.6774Z" fill="black"/>
<path d="M11.709 60.6774H13.838V64.9354H11.709V60.6774Z" fill="black"/>
<path d="M1.06445 55.3547H18.0967V57.4838H1.06445V55.3547Z" fill="#1C1C28"/>
<path d="M3.19434 63.871H15.9675V66H3.19434V63.871Z" fill="#1C1C28"/>
<path d="M39.3867 61.7419H26.6125C24.8518 61.7419 23.4189 60.3091 23.4189 58.5484V50.0322C23.4189 48.2715 24.8518 46.8387 26.6125 46.8387H39.3867C41.1474 46.8387 42.5802 48.2715 42.5802 50.0322V58.5484C42.5802 60.3091 41.1474 61.7419 39.3867 61.7419ZM26.6125 48.9677C26.0259 48.9677 25.548 49.4446 25.548 50.0322V58.5484C25.548 59.136 26.0259 59.6129 26.6125 59.6129H39.3867C39.9732 59.6129 40.4512 59.136 40.4512 58.5484V50.0322C40.4512 49.4446 39.9732 48.9677 39.3867 48.9677H26.6125Z" fill="black"/>
<path d="M28.7432 60.6775H30.8722V64.9356H28.7432V60.6775Z" fill="#1C1C28"/>
<path d="M35.1299 60.6774H37.2589V64.9355H35.1299V60.6774Z" fill="#1C1C28"/>
<path d="M24.4834 55.3549H41.5156V57.4839H24.4834V55.3549Z" fill="#1C1C28"/>
<path d="M26.6133 63.871H39.3864V66H26.6133V63.871Z" fill="#1C1C28"/>
<path d="M62.8076 61.7419H50.0334C48.2727 61.7419 46.8398 60.3091 46.8398 58.5484V50.0322C46.8398 48.2715 48.2727 46.8387 50.0334 46.8387H62.8076C64.5683 46.8387 66.0011 48.2715 66.0011 50.0322V58.5484C66.0011 60.3091 64.5683 61.7419 62.8076 61.7419ZM50.0334 48.9677C49.4468 48.9677 48.9689 49.4446 48.9689 50.0322V58.5484C48.9689 59.136 49.4468 59.6129 50.0334 59.6129H62.8076C63.3941 59.6129 63.8721 59.136 63.8721 58.5484V50.0322C63.8721 49.4446 63.3941 48.9677 62.8076 48.9677H50.0334Z" fill="black"/>
<path d="M52.1602 60.6774H54.2892V64.9355H52.1602V60.6774Z" fill="#1C1C28"/>
<path d="M58.5488 60.6774H60.6779V64.9355H58.5488V60.6774Z" fill="#1C1C28"/>
<path d="M47.9033 55.3549H64.9356V57.4839H47.9033V55.3549Z" fill="black"/>
<path d="M50.0322 63.871H62.8054V66H50.0322V63.871Z" fill="#1C1C28"/>
<path d="M47.9032 4.25806C40.2599 4.25806 34.0645 10.4535 34.0645 18.0968C34.0645 18.2831 34.0847 18.464 34.0921 18.6492C34.6553 19.9118 35.0108 21.2882 35.0949 22.7391C35.7709 22.4943 36.4969 22.3548 37.258 22.3548C40.7858 22.3548 43.6451 25.2141 43.6451 28.7419C43.6451 29.5733 43.4812 30.3664 43.1916 31.0956C44.6649 31.6289 46.2457 31.9355 47.9032 31.9355C55.5464 31.9355 61.7419 25.74 61.7419 18.0968C61.7419 10.4535 55.5464 4.25806 47.9032 4.25806Z" fill="#FF3B3B"/>
<path d="M18.0967 51.0968H24.4838V53.2258H18.0967V51.0968Z" fill="#1C1C28"/>
<path d="M41.5166 51.0968H47.9037V53.2258H41.5166V51.0968Z" fill="#1C1C28"/>
<path d="M65.9988 18.0968C65.9988 8.118 57.8808 0 47.902 0C39.8904 0 32.8561 5.31832 30.5781 12.8604C28.5299 11.4659 26.0656 10.6452 23.4181 10.6452C17.0757 10.6452 11.8128 15.1832 10.8174 21.3435C7.12677 21.7853 4.25684 24.9352 4.25684 28.7419C4.25684 32.8499 7.59942 36.1935 11.7084 36.1935H14.902V40.4516H8.5149V47.9032H10.6439V42.5806H17.031V36.1935H31.9342V47.9032H34.0633V36.1935H37.2568C38.7738 36.1935 40.1853 35.7358 41.3637 34.9534C43.4481 35.7635 45.641 36.1935 47.902 36.1935C48.2618 36.1935 48.612 36.1605 48.9665 36.1392V42.5806H55.3536V47.9032H57.4826V40.4516H51.0955V35.8944C59.5542 34.3796 65.9988 26.9844 65.9988 18.0968ZM53.3289 33.0947C54.4339 31.6821 55.36 29.8309 56.0604 27.6774H60.6464C58.7973 30.1301 56.2659 32.0281 53.3289 33.0947ZM40.7165 22.1483C40.593 21.1722 40.5196 20.1736 40.4876 19.1613H55.328C55.2535 21.4415 54.9512 23.6099 54.4594 25.5484H43.9792C43.2852 24.0943 42.1387 22.8977 40.7165 22.1483ZM38.3586 19.1613C38.381 19.9171 38.4257 20.6633 38.497 21.4021C38.0925 21.334 37.6805 21.2903 37.2568 21.2903C36.8427 21.2903 36.4286 21.3254 36.0177 21.3968C35.8953 20.6261 35.7026 19.8788 35.4493 19.1613H38.3586ZM47.902 2.12903C50.278 2.12903 52.4304 4.67003 53.8058 8.51613H41.9982C43.3735 4.67003 45.526 2.12903 47.902 2.12903ZM54.4583 10.6452C54.9501 12.5836 55.2525 14.7521 55.327 17.0323H40.4759C40.5504 14.7521 40.8528 12.5836 41.3446 10.6452H54.4583ZM63.8154 17.0323H57.4549C57.3879 14.7553 57.1122 12.6039 56.6544 10.6452H62.0132C63.0362 12.5741 63.6632 14.7382 63.8154 17.0323ZM57.4549 19.1613H63.8154C63.6632 21.4553 63.0362 23.6195 62.0132 25.5484H56.6544C57.1122 23.5897 57.3879 21.4383 57.4549 19.1613ZM60.6464 8.51613H56.0604C55.36 6.36261 54.4339 4.51142 53.3289 3.09881C56.2659 4.16545 58.7973 6.06348 60.6464 8.51613ZM42.4879 3.08071C41.3776 4.49545 40.4472 6.35303 39.7435 8.51613H35.1406C37.0056 6.04539 39.5594 4.14203 42.4879 3.08071ZM33.7908 10.6452H39.1495C38.6918 12.6039 38.4161 14.7553 38.349 17.0323H34.4646C33.894 16.0454 33.1946 15.1459 32.392 14.3507C32.7071 13.0403 33.1776 11.7991 33.7908 10.6452ZM11.7084 34.0645C8.77358 34.0645 6.38587 31.6768 6.38587 28.7419C6.38587 25.8081 8.77251 23.4204 11.6989 23.4204H11.701L12.7293 23.48L12.8219 22.4538C13.3191 16.9354 17.8741 12.7742 23.4181 12.7742C29.0452 12.7742 33.7067 17.1781 34.0303 22.7998L34.1122 24.2231L35.4535 23.7408C36.0454 23.5279 36.6522 23.4193 37.2568 23.4193C40.1917 23.4193 42.5794 25.8071 42.5794 28.7419C42.5794 31.6768 40.1917 34.0645 37.2568 34.0645H11.7084ZM43.1138 33.3332C44.1091 32.0664 44.7084 30.4739 44.7084 28.7419C44.7084 28.38 44.6733 28.0266 44.6233 27.6774H53.8058C52.4304 31.5235 50.278 34.0645 47.902 34.0645C46.2594 34.0645 44.6541 33.8186 43.1138 33.3332Z" fill="#1C1C28"/>
<path d="M15.966 25.5483C14.2053 25.5483 12.7725 26.9812 12.7725 28.7419C12.7725 30.5026 14.2053 31.9354 15.966 31.9354C17.7267 31.9354 19.1596 30.5026 19.1596 28.7419C19.1596 26.9812 17.7267 25.5483 15.966 25.5483ZM15.966 29.8064C15.3795 29.8064 14.9015 29.3295 14.9015 28.7419C14.9015 28.1543 15.3795 27.6774 15.966 27.6774C16.5526 27.6774 17.0305 28.1543 17.0305 28.7419C17.0305 29.3295 16.5526 29.8064 15.966 29.8064Z" fill="#1C1C28"/>
<path d="M24.4826 25.5483C22.7219 25.5483 21.2891 26.9812 21.2891 28.7419C21.2891 30.5026 22.7219 31.9354 24.4826 31.9354C26.2433 31.9354 27.6762 30.5026 27.6762 28.7419C27.6762 26.9812 26.2433 25.5483 24.4826 25.5483ZM24.4826 29.8064C23.8961 29.8064 23.4181 29.3295 23.4181 28.7419C23.4181 28.1543 23.8961 27.6774 24.4826 27.6774C25.0692 27.6774 25.5471 28.1543 25.5471 28.7419C25.5471 29.3295 25.0692 29.8064 24.4826 29.8064Z" fill="#1C1C28"/>
<path d="M32.9982 25.5484C31.2375 25.5484 29.8047 26.9812 29.8047 28.7419C29.8047 30.5027 31.2375 31.9355 32.9982 31.9355C34.7589 31.9355 36.1918 30.5027 36.1918 28.7419C36.1918 26.9812 34.7589 25.5484 32.9982 25.5484ZM32.9982 29.8065C32.4117 29.8065 31.9337 29.3296 31.9337 28.7419C31.9337 28.1543 32.4117 27.6774 32.9982 27.6774C33.5848 27.6774 34.0628 28.1543 34.0628 28.7419C34.0628 29.3296 33.5848 29.8065 32.9982 29.8065Z" fill="#1C1C28"/>
<path d="M23.4189 14.9032V17.0322C26.225 17.0322 28.7426 18.9079 29.541 21.5937L31.5817 20.9869C30.5161 17.4048 27.1597 14.9032 23.4189 14.9032Z" fill="#1C1C28"/>
</svg>
