<svg width="69" height="69" viewBox="0 0 69 69" fill="none" xmlns="http://www.w3.org/2000/svg">
<path d="M49.755 8.11646L41.1055 16.7659L41.14 16.8004C46.2493 18.7169 50.3081 22.7689 52.2189 27.8794L52.2334 27.8939L60.8829 19.2444L49.755 8.11646Z" fill="#F7A93B"/>
<path d="M17.8068 62.3226L26.9203 53.209C26.9014 53.1689 26.878 53.1311 26.858 53.091L21.8288 46.8666C20.0125 45.0859 18.2052 43.2952 17.0055 40.8981L16.991 40.8802L6.67773 51.1935L17.8068 62.3226Z" fill="#F7A93B"/>
<path d="M66.7136 52.3065H69.0006V45.6291H66.7136C65.8477 45.6291 65.0742 45.1116 64.7259 44.2691C64.3887 43.4611 64.5679 42.543 65.1811 41.9287L66.8004 40.3083L62.0772 35.5851L60.4557 37.2055C59.8436 37.8198 58.9243 37.9957 58.1854 37.693L58.073 37.6418C57.275 37.3124 56.7586 36.54 56.7586 35.6742V33.3871H53.3643C53.3854 33.7577 53.4199 34.1239 53.4199 34.5C53.4199 38.1915 52.307 40.7701 50.7523 42.908L50.8447 42.8068C51.6371 42.474 52.5073 42.2904 53.4199 42.2904C57.1036 42.2904 60.0973 45.2841 60.0973 48.9678C60.0973 52.6515 57.1036 55.6452 53.4199 55.6452C49.7362 55.6452 46.7425 52.6515 46.7425 48.9678C46.7425 48.2756 46.8482 47.6078 47.0441 46.979C44.7404 49.226 42.4434 51.4785 41.3694 54.9552L41.3227 54.933C41.9069 55.3325 42.2909 55.998 42.2909 56.7581C42.2909 57.6039 41.8146 58.3295 41.1201 58.7068L44.7615 62.3493L46.383 60.729C46.9951 60.1135 47.9122 59.9355 48.6534 60.2415L48.7658 60.2905C49.5637 60.6232 50.0812 61.3956 50.0812 62.2614V64.5484H56.7586V62.2614C56.7586 61.3956 57.2761 60.6221 58.1186 60.2738C58.9266 59.9377 59.8447 60.1146 60.4579 60.729L62.0783 62.3493L66.8015 57.6262L65.1822 56.0058C64.569 55.3915 64.3898 54.4733 64.7448 53.6231C65.0754 52.824 65.8477 52.3065 66.7136 52.3065Z" fill="#F7A93B"/>
<path d="M41.3229 54.9329C41.1237 54.7971 40.9022 54.6914 40.6641 54.6246L41.3229 54.9329Z" fill="#F0BC5E"/>
<path d="M53.4198 52.3064C55.2605 52.3064 56.7585 50.8085 56.7585 48.9677C56.7585 47.127 55.2605 45.629 53.4198 45.629C51.579 45.629 50.0811 47.127 50.0811 48.9677C50.0811 50.8085 51.579 52.3064 53.4198 52.3064ZM53.4198 47.8548C54.033 47.8548 54.5327 48.3534 54.5327 48.9677C54.5327 49.5821 54.033 50.0806 53.4198 50.0806C52.8066 50.0806 52.3069 49.5821 52.3069 48.9677C52.3069 48.3534 52.8066 47.8548 53.4198 47.8548Z" fill="#1C1C28"/>
<path d="M69 8.98224C69 4.02982 64.9702 0 60.0178 0C57.6183 0 55.3625 0.934839 53.6664 2.6309L40.8013 15.4972C39.1375 14.9385 37.3735 14.6135 35.5517 14.5167C34.0159 11.8335 31.1301 10.0161 27.8226 10.0161C26.9757 10.0161 26.1588 10.143 25.3809 10.3645C23.46 6.7531 19.7284 4.45161 15.5806 4.45161C9.4441 4.45161 4.45161 9.4441 4.45161 15.5806C4.45161 16.4331 4.55623 17.2723 4.74653 18.0936C2.00323 18.9238 0 21.4735 0 24.4839C0 28.1665 2.99482 31.1613 6.67742 31.1613H14.7504C14.5657 32.262 14.4677 33.3793 14.4677 34.5C14.4677 36.9495 14.9207 38.9427 15.6519 40.6455L5.72366 50.5748L0.19921 64.9379C0.0667742 65.2807 0 65.6413 0 66.0096C0 67.659 1.34216 69 2.99037 69C3.35874 69 3.71932 68.9321 4.06321 68.8008L18.4263 63.2763L25.6858 56.0158C25.6313 56.255 25.5968 56.5021 25.5968 56.7581C25.5968 57.6161 25.9318 58.3918 26.4648 58.9839C25.9306 59.5759 25.5968 60.3516 25.5968 61.2097C25.5968 62.7566 26.6596 64.0498 28.0897 64.426C29.0379 67.1414 31.5775 69 34.5 69C37.4225 69 39.9621 67.1414 40.9103 64.426C42.3404 64.0498 43.4032 62.7566 43.4032 61.2097C43.4032 60.3516 43.0682 59.5759 42.5352 58.9839C43.0694 58.3918 43.4032 57.6161 43.4032 56.7581C43.4032 55.9679 43.1161 55.2512 42.6554 54.6781C43.3476 52.8095 44.4327 51.3149 45.6958 49.9349C46.1744 53.7744 49.4519 56.7581 53.4194 56.7581C57.7152 56.7581 61.2097 53.2624 61.2097 48.9677C61.2097 44.673 57.7152 41.1774 53.4194 41.1774C53.3103 41.1774 53.2046 41.1885 53.0966 41.193C53.9725 39.3723 54.5323 37.2188 54.5323 34.5C54.5323 32.3065 54.1561 30.1964 53.4906 28.2132L66.3691 15.3347C68.0652 13.6375 69 11.3817 69 8.98224ZM2.22581 24.4839C2.22581 22.0288 4.22235 20.0323 6.67742 20.0323C9.13248 20.0323 11.129 22.0288 11.129 24.4839H13.3548C13.3548 20.8981 10.5114 17.9712 6.96232 17.8209C6.77313 17.0931 6.67742 16.3419 6.67742 15.5806C6.67742 10.6716 10.6716 6.67742 15.5806 6.67742C18.8359 6.67742 21.774 8.44694 23.3365 11.2414C20.9638 12.6337 19.2877 15.0854 18.975 17.9467C17.0319 18.4252 15.5806 20.1691 15.5806 22.2581H17.8065C17.8065 21.0305 18.8047 20.0323 20.0323 20.0323C21.2598 20.0323 22.2581 21.0305 22.2581 22.2581H24.4839C24.4839 20.2159 23.095 18.5098 21.2175 17.9867C21.6738 14.746 24.4572 12.2419 27.8226 12.2419C31.5052 12.2419 34.5 15.2368 34.5 18.9194C34.5 19.5047 34.4043 20.0779 34.2552 20.6366C32.43 21.5503 31.1613 23.4199 31.1613 25.5968H33.3871C33.3871 23.756 34.8851 22.2581 36.7258 22.2581C38.5665 22.2581 40.0645 23.756 40.0645 25.5968C40.0645 27.4375 38.5665 28.9355 36.7258 28.9355H6.67742C4.22235 28.9355 2.22581 26.9389 2.22581 24.4839ZM28.9355 31.1613V34.5C28.9355 36.3407 30.4335 37.8387 32.2742 37.8387H41.1774C41.7906 37.8387 42.2903 38.3373 42.2903 38.9516C42.2903 39.5659 41.7906 40.0645 41.1774 40.0645H30.0484C28.2076 40.0645 26.7097 41.5625 26.7097 43.4032C26.7097 45.244 28.2076 46.7419 30.0484 46.7419H32.2742C32.8874 46.7419 33.3871 47.2405 33.3871 47.8548V53.4194H28.9355C28.7096 53.4194 28.4892 53.4427 28.2766 53.4861C27.0057 50.3622 24.8222 48.2188 22.6965 46.1454C19.6094 43.135 16.6935 40.2904 16.6935 34.5C16.6935 33.3749 16.8282 32.2597 17.0363 31.1613H28.9355ZM41.1774 56.7581C41.1774 57.3724 40.6777 57.871 40.0645 57.871H28.9355C28.3223 57.871 27.8226 57.3724 27.8226 56.7581C27.8226 56.1437 28.3223 55.6452 28.9355 55.6452H40.0645C40.6777 55.6452 41.1774 56.1437 41.1774 56.7581ZM3.26526 66.723C2.78337 66.91 2.22581 66.526 2.22581 66.0096C2.22581 65.915 2.24361 65.8227 2.27589 65.7359L3.39102 62.8356L6.16326 65.6079L3.26526 66.723ZM17.1866 61.3688L8.43692 64.7342L4.26576 60.5631L7.63118 51.8134L16.7425 42.7021C17.7875 44.3436 19.083 45.7125 20.4073 47.0191L11.4551 55.9712L13.0288 57.5449L21.9965 48.5771C23.3654 49.9349 24.6363 51.3082 25.5734 52.9809L17.1866 61.3688ZM34.5 66.7742C32.8562 66.7742 31.3905 65.8995 30.5781 64.5484H38.4219C37.6095 65.8995 36.1438 66.7742 34.5 66.7742ZM40.0645 62.3226H28.9355C28.3223 62.3226 27.8226 61.824 27.8226 61.2097C27.8226 60.5954 28.3223 60.0968 28.9355 60.0968H40.0645C40.6777 60.0968 41.1774 60.5954 41.1774 61.2097C41.1774 61.824 40.6777 62.3226 40.0645 62.3226ZM40.7234 53.4861C40.5108 53.4427 40.2904 53.4194 40.0645 53.4194H35.6129V47.8548C35.6129 46.0141 34.1149 44.5161 32.2742 44.5161H30.0484C29.4352 44.5161 28.9355 44.0175 28.9355 43.4032C28.9355 42.7889 29.4352 42.2903 30.0484 42.2903H41.1774C43.0182 42.2903 44.5161 40.7924 44.5161 38.9516C44.5161 37.1109 43.0182 35.6129 41.1774 35.6129H32.2742C31.661 35.6129 31.1613 35.1143 31.1613 34.5V31.1613H36.7258C39.7941 31.1613 42.2903 28.665 42.2903 25.5968C42.2903 22.5285 39.7941 20.0323 36.7258 20.0323C36.6946 20.0323 36.6657 20.0412 36.6345 20.0412C36.6824 19.6695 36.7258 19.2977 36.7258 18.9194C36.7258 18.1915 36.6279 17.487 36.4632 16.8093C45.3352 17.7975 52.3065 25.412 52.3065 34.5C52.3065 40.2904 49.3906 43.135 46.3035 46.1454C44.1778 48.2188 41.9943 50.3622 40.7234 53.4861ZM53.4194 43.4032C56.4876 43.4032 58.9839 45.8995 58.9839 48.9677C58.9839 52.036 56.4876 54.5323 53.4194 54.5323C50.3511 54.5323 47.8548 52.036 47.8548 48.9677C47.8548 48.4859 47.9294 48.0118 48.0507 47.5499C49.2649 46.3647 50.4813 45.1538 51.5308 43.7538C52.1362 43.5334 52.7661 43.4032 53.4194 43.4032ZM49.3873 21.1875L56.1059 14.4677L54.5323 12.8941L47.8159 19.6105C46.3869 18.3284 44.7788 17.25 43.0293 16.4153L52.3065 7.13816L61.8618 16.6935L52.5791 25.9763C51.7455 24.2268 50.6683 22.6175 49.3873 21.1875ZM63.4355 15.1199L53.8801 5.56452L55.2401 4.20455C56.5166 2.92916 58.2126 2.22581 60.0178 2.22581C63.7426 2.22581 66.7742 5.25736 66.7742 8.98224C66.7742 10.7863 66.072 12.4834 64.7955 13.7599L63.4355 15.1199Z" fill="#1C1C28"/>
</svg>
