<svg width="65" height="65" viewBox="0 0 65 65" fill="none" xmlns="http://www.w3.org/2000/svg">
<path d="M47.1774 12.5806C45.4434 12.5806 44.0322 11.1695 44.0322 9.43544C44.0322 7.70141 45.4434 6.29028 47.1774 6.29028C48.9114 6.29028 50.3225 7.70141 50.3225 9.43544C50.3225 11.1695 48.9114 12.5806 47.1774 12.5806Z" fill="#64D09C"/>
<path d="M36.693 18.871C34.959 18.871 33.5479 17.4599 33.5479 15.7259C33.5479 13.9918 34.959 12.5807 36.693 12.5807C38.427 12.5807 39.8382 13.9918 39.8382 15.7259C39.8382 17.4599 38.427 18.871 36.693 18.871Z" fill="#64D09C"/>
<path d="M57.6608 14.6775C55.9268 14.6775 54.5156 13.2664 54.5156 11.5324C54.5156 9.79834 55.9268 8.38721 57.6608 8.38721C59.3948 8.38721 60.8059 9.79834 60.8059 11.5324C60.8059 13.2664 59.3948 14.6775 57.6608 14.6775Z" fill="#64D09C"/>
<path d="M36.876 41.9355H23.0635V48.2258H38.8574C37.8373 46.2611 37.1685 44.135 36.876 41.9355Z" fill="#64D09C"/>
<path d="M23.0635 50.3226H37.7409V60.8064H23.0635V50.3226Z" fill="#64D09C"/>
<path d="M35.6455 12.7735C35.9747 12.6561 36.3249 12.5806 36.6939 12.5806C37.0629 12.5806 37.4131 12.6561 37.7423 12.7735V6.29028H35.6455V12.7735Z" fill="#1C1C28"/>
<path d="M56.6123 8.57996C56.9415 8.46254 57.2917 8.38706 57.6607 8.38706C58.0297 8.38706 58.3799 8.46254 58.7091 8.57996V6.29028H56.6123V8.57996Z" fill="#1C1C28"/>
<path d="M35.6455 18.6781V25.1613H37.7423V18.6781C37.4131 18.7955 37.0629 18.871 36.6939 18.871C36.3249 18.871 35.9747 18.7955 35.6455 18.6781Z" fill="#1C1C28"/>
<path d="M56.6123 14.4845V25.1613H58.7091V14.4845C58.3799 14.6019 58.0297 14.6774 57.6607 14.6774C57.2917 14.6774 56.9415 14.6019 56.6123 14.4845Z" fill="#1C1C28"/>
<path d="M61.8548 0H32.5C30.766 0 29.3548 1.41113 29.3548 3.14516V8.3871H3.14516C1.41113 8.3871 0 9.79823 0 11.5323V61.8548C0 63.5889 1.41113 65 3.14516 65H59.7581V51.6572C61.8171 48.1252 62.9032 44.1067 62.9032 40.0159V33.3555C64.1204 32.9215 65 31.7682 65 30.4032V3.14516C65 1.41113 63.5889 0 61.8548 0ZM35.6452 37.7419H6.29032V27.2581H29.3548V30.4032C29.3548 32.1373 30.766 33.5484 32.5 33.5484H35.6452V37.7419ZM3.14516 10.4839H29.3548V20.9677H2.09677V11.5323C2.09677 10.9535 2.56645 10.4839 3.14516 10.4839ZM2.09677 61.8548V23.0645H29.3548V25.1613H4.19355V39.8387H35.663C35.7542 44.1339 37.2177 48.3285 39.8387 51.7337V62.9032H3.14516C2.56645 62.9032 2.09677 62.4335 2.09677 61.8548ZM41.9355 62.9032V52.4194H57.6613V62.9032H41.9355ZM60.8064 40.0159C60.8064 43.6307 59.8629 47.1785 58.0932 50.3226H41.4186C39.0514 47.1931 37.7419 43.3445 37.7419 39.4162V29.3548C38.8983 29.3548 39.8387 30.2952 39.8387 31.4516V37.7419C39.8387 39.476 41.2498 40.8871 42.9839 40.8871C44.7179 40.8871 46.129 39.476 46.129 37.7419V22.0161C46.129 21.4374 46.5987 20.9677 47.1774 20.9677C47.7561 20.9677 48.2258 21.4374 48.2258 22.0161V38.7903H50.3226V28.3064C50.3226 27.7277 50.7923 27.2581 51.371 27.2581C51.9497 27.2581 52.4194 27.7277 52.4194 28.3064V38.7903H54.5161V30.4032C54.5161 29.8245 54.9858 29.3548 55.5645 29.3548C56.1432 29.3548 56.6129 29.8245 56.6129 30.4032V38.7903H58.7097V32.5C58.7097 31.9213 59.1794 31.4516 59.7581 31.4516C60.3368 31.4516 60.8064 31.9213 60.8064 32.5V40.0159ZM41.9355 33.5484H44.0323V37.7419C44.0323 38.3206 43.5626 38.7903 42.9839 38.7903C42.4052 38.7903 41.9355 38.3206 41.9355 37.7419V33.5484ZM62.9032 30.4032C62.9032 30.6968 62.7816 30.9599 62.5866 31.1507C62.0802 30.0929 61.0077 29.3548 59.7581 29.3548C59.3439 29.3548 58.9508 29.4398 58.5881 29.5855C58.2264 28.2488 57.0144 27.2581 55.5645 27.2581C55.1504 27.2581 54.7573 27.343 54.3945 27.4887C54.0328 26.152 52.8209 25.1613 51.371 25.1613C51.0019 25.1613 50.6518 25.2368 50.3226 25.3542V22.0161C50.3226 20.6511 49.443 19.4979 48.2258 19.0639V12.3867C47.8966 12.5052 47.5464 12.5806 47.1774 12.5806C46.8084 12.5806 46.4582 12.5052 46.129 12.3877V19.0649C44.9119 19.499 44.0323 20.6522 44.0323 22.0172V31.4527H41.9355C41.9355 29.1399 40.0547 27.2591 37.7419 27.2591C36.5856 27.2591 35.6452 28.1995 35.6452 29.3559V31.4527H32.5C31.9213 31.4527 31.4516 30.983 31.4516 30.4043V3.14516C31.4516 2.56645 31.9213 2.09677 32.5 2.09677H61.8548C62.4335 2.09677 62.9032 2.56645 62.9032 3.14516V30.4032Z" fill="#1C1C28"/>
<path d="M11.5321 44.0322C7.48634 44.0322 4.19336 47.3252 4.19336 51.3709C4.19336 55.4167 7.48634 58.7096 11.5321 58.7096C15.5778 58.7096 18.8708 55.4167 18.8708 51.3709C18.8708 47.3252 15.5778 44.0322 11.5321 44.0322ZM16.6681 50.3225H12.5805V46.2349C14.6311 46.6532 16.2498 48.2719 16.6681 50.3225ZM10.4837 46.2349V50.9369L7.16344 54.2571C6.61409 53.4279 6.29013 52.4371 6.29013 51.3709C6.29013 48.8401 8.09441 46.7224 10.4837 46.2349ZM11.5321 56.6129C10.4659 56.6129 9.47513 56.2889 8.64586 55.7396L11.9661 52.4193H16.6681C16.1806 54.8086 14.0629 56.6129 11.5321 56.6129Z" fill="#1C1C28"/>
<path d="M23.0645 50.3226H27.258V52.4194H23.0645V50.3226Z" fill="#1C1C28"/>
<path d="M29.3545 50.3226H37.7416V52.4194H29.3545V50.3226Z" fill="#1C1C28"/>
<path d="M23.0645 58.7097H27.258V60.8065H23.0645V58.7097Z" fill="#1C1C28"/>
<path d="M29.3545 58.7097H37.7416V60.8065H29.3545V58.7097Z" fill="#1C1C28"/>
<path d="M23.0645 54.5161H37.7419V56.6129H23.0645V54.5161Z" fill="#1C1C28"/>
<path d="M10.4837 12.5807H4.19336V18.871H10.4837V12.5807ZM8.38691 16.7742H6.29013V14.6775H8.38691V16.7742Z" fill="#1C1C28"/>
<path d="M18.8714 12.5807H12.5811V18.871H18.8714V12.5807ZM16.7746 16.7742H14.6778V14.6775H16.7746V16.7742Z" fill="#1C1C28"/>
<path d="M27.2581 12.5807H20.9678V18.871H27.2581V12.5807ZM25.1613 16.7742H23.0645V14.6775H25.1613V16.7742Z" fill="#1C1C28"/>
</svg>
