<svg width="77" height="68" viewBox="0 0 77 68" fill="none" xmlns="http://www.w3.org/2000/svg">
<path fill-rule="evenodd" clip-rule="evenodd" d="M44.8067 0.499756H49.7987C50.6184 0.499756 51.2831 1.08561 51.2831 1.80835V5.40906C51.2831 8.18917 49.0169 10.5102 46.028 11.0153C45.2269 13.7443 42.6748 15.8567 39.4968 16.3664V18.9072H41.8283C42.648 18.9072 43.3127 19.493 43.3127 20.2158C43.3127 20.9385 42.648 21.5244 41.8283 21.5244H34.1968C33.3771 21.5244 32.7124 20.9385 32.7124 20.2158C32.7124 19.493 33.3771 18.9072 34.1968 18.9072H36.5281V16.3706C33.3379 15.8684 30.774 13.7517 29.9707 11.0153C26.9817 10.5102 24.7157 8.18917 24.7157 5.40906V1.80835C24.7157 1.08561 25.3804 0.499756 26.2001 0.499756H31.1921H44.8067ZM27.6844 5.40906C27.6844 6.64673 28.5135 7.7169 29.7078 8.21063V3.11694H27.6844V5.40906ZM43.3223 9.18762H43.3225V3.11694H32.6765V9.18762C32.6765 11.7691 35.0586 13.8692 37.9868 13.8692H38.012C40.9401 13.8692 43.3223 11.7691 43.3223 9.18762ZM46.291 8.21063C47.4853 7.7169 48.3144 6.64673 48.3144 5.40906V3.11694H46.291V8.21063ZM51.7893 19.3723C50.0943 17.8638 47.322 17.8077 45.6105 19.2479C44.7505 19.9713 44.2693 20.9463 44.2553 21.9932C44.2414 23.0402 44.6963 24.0246 45.536 24.765C47.6383 26.6183 48.7961 29.0825 48.7961 31.7035L48.7958 31.7824C48.7737 34.2925 47.1127 36.4721 44.7109 37.5466C45.4284 36.5032 45.8421 35.2802 45.8421 33.9736V32.9547C45.8421 29.1433 42.3248 26.0425 38.0014 26.0425C33.6781 26.0425 30.1608 29.1433 30.1608 32.9547V33.9736C30.1608 35.2804 30.5744 36.5034 31.292 37.5467C28.8901 36.4726 27.229 34.2939 27.2069 31.7868L27.2066 31.7036C27.2066 29.0825 28.3644 26.6184 30.4667 24.765C31.3064 24.0246 31.7613 23.0403 31.7474 21.9932C31.7334 20.9463 31.2522 19.9714 30.3922 19.2479C28.6805 17.8077 25.9087 17.8637 24.2134 19.3723C20.5028 22.6747 18.4593 27.054 18.4593 31.7035C18.4593 36.3844 20.527 40.785 24.2815 44.0948C24.8613 44.6056 25.8009 44.6056 26.3808 44.0948C26.9605 43.5838 26.9605 42.7552 26.3808 42.244C23.1869 39.4285 21.4281 35.6851 21.4281 31.7033C21.4281 27.7482 23.1663 24.0231 26.3226 21.2141C26.8873 20.7117 27.7932 20.679 28.3429 21.1412C28.6195 21.374 28.7744 21.6874 28.779 22.0237C28.7834 22.3603 28.6374 22.6765 28.3676 22.9143C25.7047 25.2619 24.2382 28.3833 24.2382 31.7035L24.2385 31.8028C24.2828 36.8057 28.9606 40.8759 34.6665 40.8759H37.5864C37.724 40.8823 37.8623 40.8857 38.0016 40.8857C38.1408 40.8857 38.2793 40.8822 38.4168 40.8759H41.3366C47.0424 40.8759 51.7203 36.8057 51.7647 31.7979L51.765 31.7035C51.765 28.3833 50.2984 25.2619 47.6355 22.9143C47.3658 22.6765 47.2196 22.3603 47.2242 22.0237C47.2286 21.6875 47.3835 21.3741 47.6603 21.1412C48.2098 20.6791 49.1163 20.7117 49.6805 21.2141C52.8368 24.0231 54.575 27.7482 54.575 31.7033C54.575 35.6851 52.8161 39.4285 49.6223 42.244C49.0427 42.755 49.0427 43.5836 49.6223 44.0948C49.9122 44.3502 50.2921 44.4781 50.6719 44.4781C51.0518 44.4781 51.4316 44.3502 51.7215 44.0948C55.476 40.785 57.5438 36.3843 57.5438 31.7035C57.5433 27.054 55.4999 22.6747 51.7893 19.3723ZM42.8732 33.9736C42.8732 36.249 40.8554 38.1158 38.3146 38.2588H37.6878C35.147 38.1158 33.1292 36.2491 33.1292 33.9736V32.9547H33.1293C33.1293 30.5864 35.3149 28.6597 38.0013 28.6597C40.6877 28.6597 42.8732 30.5864 42.8732 32.9547V33.9736ZM45.8689 56.3771C45.0492 56.3771 44.3845 56.9631 44.3845 57.6857V64.8829H38.0794L38.0695 64.8832L38.0581 64.8838L38.0463 64.8845L38.0405 64.8846C38.0347 64.8845 38.0289 64.8842 38.0231 64.8838L38.0081 64.883L38.0018 64.8829H31.6967V44.7465C31.6967 44.0239 31.032 43.4379 30.2123 43.4379C29.3926 43.4379 28.7279 44.0239 28.7279 44.7465V66.1915C28.7279 66.9141 29.3926 67.5001 30.2123 67.5001H38.0018L38.0124 67.4998L38.0211 67.4994L38.0234 67.4992L38.0239 67.4992L38.0324 67.4987L38.0407 67.4984C38.0465 67.4985 38.0523 67.4989 38.058 67.4992L38.0689 67.4998L38.0795 67.5001H45.8689C46.6885 67.5001 47.3532 66.9141 47.3532 66.1915V57.6857C47.3532 56.9631 46.6885 56.3771 45.8689 56.3771ZM46.9161 51.962C46.6401 51.7185 46.2572 51.5786 45.8668 51.5786C45.4764 51.5786 45.0934 51.7185 44.8173 51.962C44.5412 52.2056 44.3824 52.543 44.3824 52.8872C44.3824 53.2314 44.5411 53.569 44.8173 53.8122C45.0934 54.057 45.4764 54.1958 45.8668 54.1958C46.2572 54.1958 46.6401 54.057 46.9161 53.8122C47.1922 53.569 47.3511 53.2314 47.3511 52.8872C47.3511 52.543 47.1923 52.2054 46.9161 51.962ZM44.3824 44.7465C44.3824 44.0239 45.0471 43.4379 45.8668 43.4379C46.6864 43.4379 47.3511 44.0239 47.3511 44.7465V47.8277C47.3511 48.5503 46.6864 49.1363 45.8668 49.1363C45.0471 49.1363 44.3824 48.5503 44.3824 47.8277V44.7465ZM18.7029 47.2487C18.7029 49.0653 17.8225 50.7035 16.4194 51.8514C20.3917 53.4706 23.156 57.0149 23.156 61.1197V66.1915C23.156 66.9141 22.4913 67.5001 21.6716 67.5001H1.48436C0.664696 67.5001 0 66.9141 0 66.1915V61.1197C0 57.0149 2.76432 53.4706 6.73661 51.8514C5.33345 50.7035 4.45308 49.0655 4.45308 47.2487V46.3446C4.45308 42.8811 7.6492 40.0634 11.578 40.0634C15.5068 40.0634 18.7029 42.8811 18.7029 46.3446V47.2487ZM11.578 42.6804C9.28629 42.6804 7.42179 44.3242 7.42179 46.3445V47.2486C7.42179 49.2691 9.28629 50.9127 11.578 50.9127C13.8697 50.9127 15.7342 49.2689 15.7342 47.2486V46.3445C15.7342 44.3242 13.8697 42.6804 11.578 42.6804ZM2.96872 61.1197V64.8829H20.1873V61.1197C20.1873 56.9347 16.3251 53.5298 11.578 53.5298C6.83087 53.5298 2.96872 56.9347 2.96872 61.1197ZM69.2626 51.8514C70.6658 50.7035 71.5462 49.0653 71.5462 47.2487V46.3446C71.5462 42.881 68.3501 40.0634 64.4213 40.0634C60.4925 40.0634 57.2963 42.881 57.2963 46.3446V47.2487C57.2963 49.0654 58.1767 50.7035 59.5799 51.8514C55.6076 53.4705 52.8433 57.0148 52.8433 61.1196V66.1915C52.8433 66.9141 53.508 67.5001 54.3276 67.5001H74.5149C75.3346 67.5001 75.9993 66.9141 75.9993 66.1915V61.1196C75.9993 57.0148 73.2349 53.4705 69.2626 51.8514ZM60.2651 46.3445C60.2651 44.3241 62.1296 42.6804 64.4213 42.6804C66.713 42.6804 68.5775 44.3241 68.5775 46.3445V47.2486C68.5775 49.2689 66.713 50.9126 64.4213 50.9126C62.1296 50.9126 60.2651 49.269 60.2651 47.2486V46.3445ZM73.0305 64.8829H55.812V61.1196C55.812 56.9346 59.6741 53.5298 64.4213 53.5298C69.1684 53.5298 73.0305 56.9346 73.0305 61.1196V64.8829ZM69.1712 15.9413C68.3516 15.9413 67.6869 16.5271 67.6869 17.2499V18.8765C67.6869 19.5992 68.3516 20.185 69.1712 20.185C69.9909 20.185 70.6556 19.5992 70.6556 18.8765V17.2499C70.6556 16.5271 69.9909 15.9413 69.1712 15.9413ZM67.6869 25.0453C67.6869 24.3225 68.3516 23.7367 69.1712 23.7367C69.9909 23.7367 70.6556 24.3225 70.6556 25.0453V26.6719C70.6556 27.3946 69.9909 27.9805 69.1712 27.9805C68.3516 27.9805 67.6869 27.3946 67.6869 26.6719V25.0453ZM74.5167 20.6523H72.6717C71.852 20.6523 71.1873 21.2382 71.1873 21.9609C71.1873 22.6837 71.852 23.2695 72.6717 23.2695H74.5167C75.3364 23.2695 76.0011 22.6837 76.0011 21.9609C76.0011 21.2382 75.3364 20.6523 74.5167 20.6523ZM63.8275 20.6523H65.6726C66.4923 20.6523 67.157 21.2382 67.157 21.9609C67.157 22.6837 66.4923 23.2695 65.6726 23.2695H63.8275C63.0079 23.2695 62.3432 22.6837 62.3432 21.9609C62.3432 21.2382 63.0079 20.6523 63.8275 20.6523ZM6.82806 2.85522C6.0084 2.85522 5.3437 3.44108 5.3437 4.16382V5.79039C5.3437 6.51313 6.0084 7.09899 6.82806 7.09899C7.64772 7.09899 8.31242 6.51313 8.31242 5.79039V4.16382C8.31242 3.44108 7.64772 2.85522 6.82806 2.85522ZM5.3437 11.9591C5.3437 11.2364 6.0084 10.6505 6.82806 10.6505C7.64772 10.6505 8.31242 11.2364 8.31242 11.9591V13.5857C8.31242 14.3084 7.64772 14.8943 6.82806 14.8943C6.0084 14.8943 5.3437 14.3084 5.3437 13.5857V11.9591ZM12.1713 7.56616H10.3263C9.50662 7.56616 8.84192 8.15202 8.84192 8.87475C8.84192 9.59749 9.50662 10.1833 10.3263 10.1833H12.1713C12.991 10.1833 13.6557 9.59749 13.6557 8.87475C13.6557 8.15202 12.991 7.56616 12.1713 7.56616ZM1.48436 7.56613H3.32942C4.14908 7.56613 4.81377 8.15199 4.81377 8.87472C4.81377 9.59746 4.14908 10.1833 3.32942 10.1833H1.48436C0.664696 10.1833 0 9.59746 0 8.87472C0 8.15199 0.664696 7.56613 1.48436 7.56613Z" fill="url(#paint0_linear_3272_30964)"/>
<defs>
<linearGradient id="paint0_linear_3272_30964" x1="0" y1="33.9999" x2="76.0011" y2="33.9999" gradientUnits="userSpaceOnUse">
<stop stop-color="#FF6900"/>
<stop offset="1" stop-color="#E63535"/>
</linearGradient>
</defs>
</svg>
