<svg width="77" height="76" viewBox="0 0 77 76" fill="none" xmlns="http://www.w3.org/2000/svg">
<path fill-rule="evenodd" clip-rule="evenodd" d="M22.1303 72.8746C17.7587 71.0522 13.7914 68.3817 10.4575 65.0175C10.0948 64.6522 9.74544 64.2723 9.39614 63.891C4.69929 58.7244 1.6001 52.3075 0.473463 45.4165C-0.653178 38.5256 0.240991 31.4558 3.04781 25.0623C5.85463 18.6689 10.4539 13.2256 16.2892 9.39109C22.1245 5.55652 28.9458 3.4949 35.9282 3.45558C39.264 3.46199 42.5821 3.9398 45.7842 4.87483C46.6744 3.49392 47.8961 2.35779 49.3379 1.57001C50.7797 0.78223 52.3958 0.367854 54.0388 0.364656C56.2507 0.359448 58.3983 1.108 60.1278 2.48695C61.8571 1.10762 64.0049 0.359014 66.2168 0.364656C68.816 0.37263 71.3066 1.40796 73.1455 3.24489C74.9845 5.08181 76.0225 7.5713 76.0333 10.1705C76.0001 13.0329 75.3394 15.8532 74.0977 18.4325C72.856 21.0118 71.0636 23.2873 68.8468 25.0985C71.6269 31.4857 72.5061 38.5389 71.3792 45.4131C70.2523 52.2872 67.1671 58.6906 62.4934 63.8558C62.1287 64.2544 61.7707 64.6435 61.3981 65.0181C58.0641 68.3823 54.0968 71.0526 49.7251 72.875C45.3534 74.6973 40.664 75.6356 35.9277 75.6355C31.1913 75.6354 26.502 74.6971 22.1303 72.8746ZM14.4101 63.1658C20.2651 68.5814 27.9525 71.581 35.9281 71.562C43.904 71.5813 51.5917 68.5816 57.4467 63.1655C55.3481 59.2876 52.2406 56.0488 48.4528 53.7918C44.665 51.5347 40.3376 50.3432 35.9283 50.3432C31.519 50.3432 27.1916 51.5348 23.4038 53.792C19.616 56.0491 16.5086 59.2878 14.4101 63.1658ZM49.9712 6.14059C48.8943 7.22433 48.2913 8.69102 48.2945 10.2188C48.2733 10.7407 47.9802 20.4742 60.1279 25.6894C72.3881 20.4205 71.9691 10.437 71.9625 10.3349L71.9598 10.2188C71.963 8.69122 71.3602 7.22468 70.2836 6.14096C69.2069 5.05724 67.7444 4.44483 66.2168 4.4381C65.3518 4.43615 64.4977 4.63163 63.7197 5.00963C62.9416 5.38763 62.2601 5.93819 61.7269 6.61939L60.1291 8.64751L58.5286 6.62005C57.9953 5.93898 57.3138 5.38847 56.5357 5.01038C55.7577 4.63229 54.9038 4.43657 54.0387 4.4381C52.5109 4.44456 51.0481 5.05684 49.9712 6.14059ZM44.34 8.69106C41.6017 7.9241 38.7718 7.53315 35.9281 7.52897V7.52908C29.8545 7.56018 23.9151 9.31813 18.8029 12.5978C13.6908 15.8774 9.61699 20.5434 7.05689 26.0511C4.49679 31.5589 3.55605 37.6812 4.34448 43.7035C5.1329 49.7258 7.61797 55.3996 11.5096 60.0627C14.0462 55.8543 17.6274 52.3729 21.9057 49.9562C26.1841 47.5396 31.0144 46.2696 35.9282 46.2696C40.8419 46.2696 45.6723 47.5394 49.9507 49.9561C54.229 52.3727 57.8103 55.8541 60.3469 60.0625C65.1489 54.3036 67.7801 47.0436 67.7828 39.5454C67.7943 35.4266 67.0028 31.3451 65.4524 27.5293C63.993 28.4063 62.4635 29.1611 60.8796 29.786L60.1278 30.0844L59.3759 29.786C43.6455 23.5378 44.1931 10.6491 44.2236 10.1034C44.2272 9.63039 44.2661 9.15829 44.34 8.69106ZM41.8366 39.2345C40.0855 40.396 38.029 41.0117 35.9278 41.0035C33.1189 40.9946 30.4282 39.8721 28.4459 37.882C26.4636 35.892 25.3515 33.197 25.3535 30.3881C25.3535 28.2869 25.9771 26.2328 27.1454 24.4862C28.3137 22.7397 29.974 21.3791 31.9161 20.5768C33.8582 19.7746 35.9947 19.5668 38.0551 19.9797C40.1154 20.3926 42.0068 21.4078 43.4897 22.8965C44.9727 24.3852 45.9805 26.2805 46.3854 28.3424C46.7903 30.4043 46.5742 32.54 45.7645 34.479C44.9547 36.418 43.5877 38.073 41.8366 39.2345ZM39.5735 24.9287C38.4923 24.2148 37.2234 23.8381 35.9278 23.8463C34.1988 23.8536 32.5434 24.5466 31.3246 25.773C30.1059 26.9994 29.4235 28.6592 29.427 30.3881C29.427 31.6838 29.8117 32.9503 30.5324 34.027C31.2531 35.1037 32.2772 35.9422 33.475 36.4362C34.6728 36.9301 35.9903 37.0573 37.2605 36.8015C38.5306 36.5457 39.6962 35.9185 40.6095 34.9995C41.5228 34.0805 42.1426 32.9109 42.3904 31.6392C42.6381 30.3674 42.5027 29.0508 42.0012 27.8561C41.4997 26.6614 40.6548 25.6426 39.5735 24.9287Z" fill="url(#paint0_linear_3272_30948)"/>
<defs>
<linearGradient id="paint0_linear_3272_30948" x1="-24.5594" y1="24.6778" x2="23.8638" y2="100.394" gradientUnits="userSpaceOnUse">
<stop stop-color="#00CFDE"/>
<stop offset="1" stop-color="#05A660"/>
</linearGradient>
</defs>
</svg>
