<svg width="76" height="68" viewBox="0 0 76 68" fill="none" xmlns="http://www.w3.org/2000/svg">
<path fill-rule="evenodd" clip-rule="evenodd" d="M37.9986 3.01795C38.389 3.01795 38.772 2.85912 39.048 2.58287C39.3241 2.30691 39.4831 1.92392 39.4831 1.53351C39.4831 1.14311 39.3242 0.76012 39.048 0.484014C38.772 0.207907 38.389 0.0490723 37.9986 0.0490723C37.6082 0.0490723 37.2252 0.207759 36.9491 0.484014C36.673 0.760268 36.5142 1.14311 36.5142 1.53351C36.5142 1.92392 36.6729 2.30542 36.9491 2.58287C37.2252 2.85912 37.6082 3.01795 37.9986 3.01795ZM66.2499 43.9088C65.7988 44.0297 65.3617 44.1842 64.9396 44.3674C65.2906 42.8717 65.5183 41.3317 65.6149 39.7598C65.9133 39.788 66.2118 39.8024 66.5097 39.8024C68.9965 39.8024 71.4309 38.8258 73.2271 37.0295C75.6113 34.6452 76.5515 31.137 75.6806 27.8736C75.5436 27.3601 75.1425 26.959 74.629 26.822C71.3661 25.9517 67.8574 26.8915 65.4731 29.2755C65.1433 29.6054 64.8422 29.9575 64.5685 30.3266C64.1941 29.0341 63.7282 27.7694 63.1696 26.5462C65.6216 25.3563 67.4851 23.1455 68.2026 20.468C69.0753 17.211 68.1352 13.7027 65.7495 11.312C65.3743 10.936 64.8267 10.7887 64.3132 10.9272C61.0516 11.8047 58.4833 14.3729 57.6106 17.6298C56.7592 20.808 57.6344 24.2253 59.8943 26.6101C61.7292 30.1154 62.7001 34.066 62.7001 38.0503C62.7001 50.4897 53.4067 61.0264 41.0829 62.5597C40.2694 62.661 39.6918 63.4025 39.793 64.216C39.8866 64.9674 40.5261 65.5174 41.2643 65.5174C41.3254 65.5174 41.3872 65.5137 41.4494 65.506C44.2812 65.1536 46.9697 64.3765 49.4554 63.2443C51.1517 66.1479 54.2855 67.9503 57.6445 67.9503C61.0164 67.9503 64.1618 66.1343 65.8536 63.2109C66.1198 62.7509 66.1198 62.1838 65.8536 61.7238C64.2471 58.9479 61.3293 57.1716 58.152 56.9995C59.2815 55.7967 60.3037 54.4944 61.2045 53.1078C62.805 54.2233 64.7119 54.8208 66.6503 54.8208C67.4644 54.8208 68.2838 54.7157 69.0879 54.5003C72.3448 53.6278 74.9131 51.0595 75.7906 47.7979C75.9288 47.2848 75.7818 46.737 75.4058 46.3616C73.0153 43.9761 69.507 43.0357 66.2499 43.9088ZM67.5726 31.375C68.9974 29.95 71.0065 29.2766 72.9829 29.5197C73.2261 31.4955 72.5524 33.5056 71.1277 34.93C69.7031 36.3548 67.6928 37.0283 65.7173 36.7853C65.4742 34.8098 66.1478 32.7996 67.5726 31.375ZM60.4784 18.3984C60.9999 16.4525 62.4041 14.8638 64.2365 14.0867C65.4348 15.676 65.8564 17.7536 65.3349 19.6998C64.8133 21.6461 63.4093 23.2346 61.5771 24.0117C60.3787 22.4224 59.957 20.3448 60.4784 18.3984ZM62.7821 62.4676C61.5572 64.0365 59.6595 64.9817 57.6446 64.9817C55.6298 64.9817 53.7321 64.0367 52.5071 62.4676C53.7321 60.8989 55.6298 59.9537 57.6446 59.9537C59.6595 59.9537 61.5572 60.8989 62.7821 62.4676ZM68.3195 51.633C66.3733 52.1545 64.2958 51.7329 62.7064 50.5345C63.4835 48.702 65.0722 47.298 67.0183 46.7766C68.9651 46.2553 71.0423 46.6769 72.6314 47.8751C71.8543 49.7075 70.2658 51.1115 68.3195 51.633ZM34.917 62.5599C22.5932 61.0267 13.2999 50.49 13.2999 38.0506C13.2999 34.0662 14.2708 30.1157 16.1056 26.6103C18.3655 24.2256 19.2407 20.8084 18.3893 17.6301C17.5166 14.3732 14.9482 11.805 11.6867 10.9275C11.1737 10.7893 10.6258 10.9363 10.2504 11.3123C7.86473 13.7028 6.92463 17.2111 7.79733 20.4685C8.51476 23.1456 10.3783 25.3566 12.8303 26.5465C12.2717 27.7695 11.8058 29.0344 11.4314 30.3269C11.1578 29.9576 10.8566 29.6056 10.5268 29.2758C8.14247 26.8916 4.63429 25.9514 1.37089 26.8223C0.857423 26.9593 0.456327 27.3604 0.319313 27.8739C-0.551461 31.1371 0.388785 34.6455 2.7728 37.0298C4.56912 38.8262 7.00316 39.8027 9.49019 39.8027C9.78797 39.8027 10.0866 39.7883 10.385 39.7601C10.4816 41.332 10.7094 42.8721 11.0603 44.3677C10.6383 44.1845 10.2009 44.03 9.74997 43.9091C6.4934 43.0361 2.98478 43.9762 0.593934 46.3622C0.217925 46.7374 0.0711143 47.2853 0.209167 47.7985C1.08662 51.0603 3.655 53.6284 6.91187 54.5009C7.71614 54.7164 8.53525 54.8214 9.34947 54.8214C11.2877 54.8213 13.1946 54.2238 14.7951 53.1082C15.696 54.4948 16.7182 55.7973 17.8477 57.0001C14.6704 57.1722 11.7526 58.9484 10.1462 61.7244C9.88 62.1844 9.88 62.7514 10.1462 63.2115C11.8378 66.1348 14.9834 67.9508 18.3553 67.9508C21.7141 67.9508 24.8479 66.1484 26.5443 63.2449C29.03 64.3771 31.7185 65.1543 34.5504 65.5066C34.6126 65.5143 34.6743 65.518 34.7355 65.518C35.4736 65.518 36.1132 64.968 36.2067 64.2166C36.3081 63.4028 35.7305 62.6613 34.917 62.5599ZM7.68036 51.633C5.73426 51.1115 4.14561 49.7075 3.3685 47.8751C4.9576 46.6767 7.03463 46.2547 8.98162 46.7766C10.9277 47.2981 12.5164 48.7021 13.2935 50.5345C11.7042 51.7329 9.62631 52.1545 7.68036 51.633ZM10.665 19.7C10.1435 17.7537 10.5651 15.6761 11.7635 14.0868C13.596 14.8639 15.0001 16.4526 15.5215 18.3986C16.043 20.3448 15.6212 22.4224 14.4228 24.0117C12.5904 23.2344 11.1865 21.6461 10.665 19.7ZM4.87224 34.9302C3.44748 33.5056 2.77384 31.4955 3.01699 29.5198C4.99293 29.277 7.00271 29.9503 8.42733 31.3751C9.8521 32.7997 10.5257 34.8099 10.2826 36.7854C8.3065 37.028 6.29701 36.3548 4.87224 34.9302ZM18.3554 64.9817C16.3406 64.9817 14.4429 64.0367 13.2179 62.4676C14.4429 60.8989 16.3406 59.9537 18.3554 59.9537C20.3703 59.9537 22.268 60.8987 23.4929 62.4676C22.2681 64.0367 20.3703 64.9817 18.3554 64.9817ZM48.6162 48.9851C49.024 50.2311 48.6023 51.5342 47.5417 52.3047C46.4809 53.0753 45.1113 53.074 44.0525 52.3009L37.9986 47.8822L31.9448 52.3009C31.4144 52.688 30.8061 52.8816 30.1976 52.8816C29.5913 52.8816 28.9849 52.6894 28.4556 52.3047C27.3951 51.5342 26.9732 50.2313 27.381 48.9852L29.7126 41.8623L23.6257 37.46C22.5644 36.6927 22.1394 35.3919 22.5428 34.146C22.9461 32.9001 24.0529 32.0951 25.3623 32.0951H32.8776L35.1786 24.9765C35.5817 23.73 36.6885 22.9244 37.9986 22.9244C39.3088 22.9244 40.4156 23.73 40.8186 24.9766L43.1197 32.0951H50.6349C51.9444 32.0951 53.0512 32.9 53.4545 34.146C53.8578 35.3918 53.4327 36.6927 52.3716 37.4602L46.2846 41.8623L48.6162 48.9851ZM37.1234 44.8456C37.3841 44.6553 37.6915 44.5601 37.9986 44.5601C38.3059 44.5601 38.6132 44.6551 38.8736 44.8456L45.7894 49.8933L43.1259 41.7563C42.9252 41.1428 43.1438 40.4699 43.6668 40.0917L50.6186 35.064H42.0393C41.3953 35.064 40.8249 34.6488 40.6267 34.0362L37.9985 25.9053L35.3703 34.0362C35.1721 34.6488 34.6016 35.064 33.9577 35.064H25.3783L32.3301 40.0917C32.8533 40.4699 33.0719 41.1428 32.8711 41.7563L30.2075 49.8933L37.1234 44.8456ZM27.714 17.477C27.1549 17.477 26.6195 17.1598 26.3676 16.6197L22.4929 8.31042C22.1464 7.56731 22.468 6.68407 23.2109 6.3376C23.9545 5.99143 24.8373 6.31296 25.1838 7.05563L29.0584 15.3649C29.4049 16.108 29.0834 16.9913 28.3404 17.3378C28.1375 17.4322 27.9239 17.477 27.714 17.477ZM37.9967 17.0458H37.9986C38.8177 17.0458 39.482 16.3824 39.4831 15.5633L39.4924 8.22467C39.4935 7.40497 38.8298 6.73934 38.0099 6.7383H38.008C37.1889 6.7383 36.5246 7.4017 36.5235 8.22081L36.5142 15.5594C36.5131 16.3793 37.1768 17.0448 37.9967 17.0458ZM48.2855 17.4771C48.0754 17.4771 47.862 17.4324 47.659 17.3378C46.9161 16.9914 46.5946 16.1081 46.941 15.365L50.8157 7.05569C51.1623 6.31287 52.0453 5.99164 52.7885 6.33766C53.5315 6.68413 53.853 7.56737 53.5066 8.31049L49.6319 16.6198C49.38 17.1597 48.8447 17.4771 48.2855 17.4771Z" fill="url(#paint0_linear_3272_30981)"/>
<defs>
<linearGradient id="paint0_linear_3272_30981" x1="-24.5487" y1="23.3785" x2="20.0226" y2="95.9782" gradientUnits="userSpaceOnUse">
<stop stop-color="#AC5DD9"/>
<stop offset="1" stop-color="#004FC4"/>
</linearGradient>
</defs>
</svg>
