<?xml version="1.0" encoding="UTF-8"?>
<svg xmlns="http://www.w3.org/2000/svg" width="54" height="54" viewBox="0 0 54 54" fill="none">
  <g clip-path="url(#clip0_343_1626)">
    <path d="M9.5625 0.00598145H44.4375C49.725 0.00598145 54 4.3897 54 9.81166V44.1892C54 49.6112 49.725 53.9949 44.4375 53.9949H9.5625C4.275 53.9949 0 49.6112 0 44.1892V9.81166C0 4.3897 4.275 0.00598145 9.5625 0.00598145Z" fill="#470137"></path>
    <path d="M28.3948 14.195L21.6448 25.6157L28.8448 37.7286C28.8898 37.8209 28.9123 37.9132 28.8898 38.0055C28.8673 38.0977 28.7773 38.0285 28.6423 38.0516H23.4898C23.1298 38.0516 22.8823 38.0285 22.7248 37.7978C22.2523 36.8288 21.7573 35.8828 21.2848 34.9138C20.8123 33.9678 20.2948 32.9988 19.7548 32.0067C19.2148 31.0146 18.6748 30.0225 18.1348 29.0073H18.0898C17.6173 29.9994 17.0998 30.9915 16.5823 31.9836C16.0648 32.9757 15.5473 33.9678 15.0523 34.9369C14.5348 35.9059 14.0173 36.898 13.4998 37.844C13.4098 38.0747 13.2298 38.0978 12.9823 38.0978H8.03229C7.94229 38.0978 7.87479 38.1439 7.87479 38.0285C7.85229 37.9362 7.87479 37.844 7.91979 37.7747L14.9173 26.0079L8.09979 14.1719C8.03229 14.0796 8.00979 13.9873 8.05479 13.9412C8.09979 13.872 8.18979 13.8489 8.27979 13.8489H13.3873C13.4998 13.8489 13.6123 13.872 13.7023 13.895C13.7923 13.9412 13.8598 14.0104 13.9273 14.1027C14.3548 15.0948 14.8498 16.0869 15.3673 17.079C15.9073 18.0711 16.4248 19.0401 16.9873 20.0092C17.5273 20.9782 18.0223 21.9472 18.4948 22.9393H18.5398C19.0123 21.9241 19.5073 20.932 20.0023 19.963C20.4973 18.994 21.0148 18.0249 21.5323 17.0559C22.0498 16.0869 22.5448 15.0948 23.0398 14.1488C23.0623 14.0565 23.1073 13.9642 23.1748 13.9181C23.2648 13.872 23.3548 13.8489 23.4673 13.872H28.2148C28.3273 13.8489 28.4398 13.9181 28.4623 14.0335C28.4848 14.0565 28.4398 14.1488 28.3948 14.195ZM38.7898 38.5361C37.1248 38.5592 35.4598 38.2131 33.9523 37.4979C32.5348 36.8288 31.3648 35.7213 30.5548 34.3601C29.7223 32.9527 29.3173 31.1992 29.3173 29.0996C29.2948 27.3923 29.7223 25.708 30.5548 24.2314C31.4098 22.7317 32.6473 21.4858 34.1323 20.6552C35.7073 19.7554 37.5973 19.317 39.8248 19.317C39.9373 19.317 40.0948 19.317 40.2973 19.3401C40.4998 19.3631 40.7248 19.3631 40.9948 19.3862V12.0954C40.9948 11.9339 41.0623 11.8416 41.2198 11.8416H45.7873C45.8998 11.8185 45.9898 11.9108 46.0123 12.0031V34.014C46.0123 34.4293 46.0348 34.8907 46.0573 35.3983C46.1023 35.8828 46.1248 36.3443 46.1473 36.7365C46.1473 36.898 46.0798 37.0364 45.9223 37.1056C44.7523 37.6132 43.5148 37.9824 42.2548 38.2131C41.1073 38.4208 39.9598 38.5361 38.7898 38.5361ZM40.9948 33.9217V23.7699C40.7923 23.7238 40.5898 23.6776 40.3873 23.6546C40.1398 23.6315 39.8923 23.6084 39.6448 23.6084C38.7673 23.6084 37.8898 23.793 37.1023 24.2083C36.3373 24.6005 35.6848 25.1773 35.1898 25.9156C34.6948 26.6539 34.4473 27.646 34.4473 28.8458C34.4248 29.6533 34.5598 30.4609 34.8298 31.2222C35.0548 31.8452 35.3923 32.3989 35.8423 32.8604C36.2698 33.2757 36.7873 33.5987 37.3723 33.7832C37.9798 33.9909 38.6098 34.0832 39.2398 34.0832C39.5773 34.0832 39.8923 34.0601 40.1848 34.037C40.4773 34.0601 40.7248 34.014 40.9948 33.9217Z" fill="#FF61F6"></path>
  </g>
  <defs>
    <clipPath id="clip0_343_1626">
      <rect width="54" height="54" fill="white"></rect>
    </clipPath>
  </defs>
</svg>
