<?xml version="1.0" encoding="UTF-8"?>
<svg xmlns="http://www.w3.org/2000/svg" width="50" height="50" viewBox="0 0 50 50" fill="none">
  <path fill-rule="evenodd" clip-rule="evenodd" d="M43.9733 29.7697H38.341V45.3523H43.9733C44.5186 45.3518 45.0414 45.1349 45.427 44.7493C45.8126 44.3637 46.0295 43.8409 46.0301 43.2956V31.8266C46.0293 31.2813 45.8124 30.7586 45.4268 30.3731C45.0413 29.9875 44.5186 29.7705 43.9733 29.7697ZM14.0111 26.9614C20.0663 26.9614 24.9927 22.0359 24.9927 15.9805C24.9927 9.92505 20.0661 5.00004 14.0111 5.00004C12.5665 4.99605 11.1354 5.27712 9.79962 5.82716C8.46388 6.3772 7.24979 7.1854 6.22692 8.20544C5.20405 9.22549 4.3925 10.4373 3.83876 11.7716C3.28503 13.1058 3 14.5361 3 15.9807C3 17.4253 3.28503 18.8556 3.83876 20.1899C4.3925 21.5241 5.20405 22.7359 6.22692 23.756C7.24979 24.776 8.46388 25.5842 9.79962 26.1342C11.1354 26.6843 12.5665 26.9654 14.0111 26.9614ZM15.0189 21.9218V22.6029C15.0189 22.8702 14.9127 23.1265 14.7237 23.3155C14.5347 23.5045 14.2784 23.6107 14.0111 23.6107C13.7438 23.6107 13.4874 23.5045 13.2984 23.3155C13.1094 23.1265 13.0033 22.8702 13.0033 22.6029V21.9218C12.366 21.7761 11.7971 21.4186 11.3893 20.9077C10.9816 20.3968 10.7591 19.7627 10.7583 19.1091V17.8577C10.7583 17.5904 10.8645 17.3341 11.0535 17.1451C11.2425 16.9561 11.4988 16.8499 11.7661 16.8499C12.0334 16.8499 12.2897 16.9561 12.4787 17.1451C12.6677 17.3341 12.7739 17.5904 12.7739 17.8577V19.1091C12.7742 19.3396 12.8659 19.5606 13.029 19.7236C13.192 19.8866 13.4131 19.9782 13.6436 19.9783H14.379C14.6096 19.9781 14.8306 19.8865 14.9937 19.7236C15.1568 19.5606 15.2487 19.3396 15.2491 19.1091V17.8577C15.2488 17.6271 15.157 17.4061 14.9938 17.2431C14.8307 17.0801 14.6096 16.9885 14.379 16.9884H13.6436C12.8788 16.9874 12.1456 16.6831 11.6047 16.1424C11.0638 15.6016 10.7595 14.8684 10.7584 14.1035V12.8522C10.7591 12.1985 10.9815 11.5644 11.3893 11.0535C11.7971 10.5426 12.3661 10.1851 13.0033 10.0394V9.35833C13.0033 9.09104 13.1095 8.8347 13.2985 8.6457C13.4875 8.45669 13.7439 8.35051 14.0112 8.35051C14.2784 8.35051 14.5348 8.45669 14.7238 8.6457C14.9128 8.8347 15.019 9.09104 15.019 9.35833V10.0394C15.6564 10.1849 16.2256 10.5423 16.6335 11.0532C17.0415 11.5641 17.264 12.1984 17.2647 12.8522V14.1035C17.2647 14.3708 17.1585 14.6272 16.9695 14.8162C16.7805 15.0052 16.5242 15.1113 16.2569 15.1113C15.9896 15.1113 15.7333 15.0052 15.5443 14.8162C15.3553 14.6272 15.2491 14.3708 15.2491 14.1035V12.8522C15.2488 12.6215 15.157 12.4004 14.9939 12.2373C14.8308 12.0742 14.6097 11.9824 14.379 11.9821H13.6436C13.413 11.9823 13.1919 12.0741 13.0288 12.2372C12.8657 12.4003 12.7741 12.6215 12.7739 12.8522V14.1035C12.7743 14.334 12.8661 14.555 13.0291 14.7179C13.1921 14.8808 13.4131 14.9725 13.6436 14.9728H14.379C15.144 14.9735 15.8775 15.2776 16.4185 15.8185C16.9594 16.3593 17.2638 17.0927 17.2646 17.8577V19.1091C17.2638 19.7628 17.0412 20.397 16.6333 20.9079C16.2254 21.4188 15.6562 21.7762 15.0189 21.9218ZM36.3257 29.3487V44.17C35.7684 44.3665 35.228 44.6081 34.7099 44.8923C33.8232 45.3515 32.9067 45.8262 31.644 45.8262H22.2179C21.7167 45.8264 21.2243 45.6939 20.791 45.4419C20.3576 45.19 19.9987 44.8278 19.7509 44.3921C19.503 43.9564 19.3751 43.4629 19.38 42.9616C19.3849 42.4604 19.5225 41.9694 19.7789 41.5387C19.2467 41.1103 18.887 40.5042 18.7659 39.8319C18.6447 39.1595 18.7703 38.466 19.1195 37.8788C18.5873 37.4505 18.2276 36.8445 18.1065 36.1721C17.9855 35.4998 18.1112 34.8064 18.4606 34.2193C18.0032 33.8511 17.6712 33.3501 17.5106 32.7853C17.3499 32.2206 17.3685 31.6199 17.5636 31.0661C17.7588 30.5123 18.1209 30.0327 18.6002 29.6934C19.0794 29.3541 19.6521 29.1719 20.2393 29.1718H25.3992C24.4075 25.6185 25.1999 22.471 27.7282 20.0045C27.7492 19.9843 27.771 19.9641 27.7944 19.9457C28.032 19.7504 28.311 19.6117 28.6101 19.5401C28.9092 19.4685 29.2208 19.4659 29.5211 19.5324C30.4062 19.7256 31.0085 20.4184 31.0204 21.2561C31.0303 22.0422 31.1607 23.415 31.4068 25.3377C31.4173 25.4213 31.4175 25.506 31.4075 25.5897C31.3739 25.8559 31.2748 26.6578 33.1292 27.4266C34.2337 27.6847 35.2912 28.3197 36.3257 29.3487Z" fill="url(#paint0_linear_10302_19891)"></path>
  <defs>
    <linearGradient id="paint0_linear_10302_19891" x1="3" y1="25.4131" x2="46.0301" y2="25.4131" gradientUnits="userSpaceOnUse">
      <stop stop-color="#FF6900"></stop>
      <stop offset="1" stop-color="#E63535"></stop>
    </linearGradient>
  </defs>
</svg>
