<?xml version="1.0" encoding="UTF-8"?>
<svg xmlns="http://www.w3.org/2000/svg" width="58" height="40" viewBox="0 0 58 40" fill="none">
  <path fill-rule="evenodd" clip-rule="evenodd" d="M56.2389 16.7041V37.7982H51.3073V34.5402H23.5464V37.7982H18.6148V16.7041H16.9174V13.4603H21.0665L23.3814 6.26552C24.0651 4.14857 25.2013 2.22021 27.4267 2.22021H48.2945C50.5199 2.22021 51.8023 4.10614 52.3398 6.26552L54.1267 13.4603H57.941V16.7041H56.2389ZM1.74516 28.3921C0.415587 30.146 -0.64053 32.1121 0.45802 34.9976C1.16996 36.8694 2.81071 38.4064 4.88051 39.2598C1.49999 31.8009 11.2031 29.1276 11.4954 37.9632C14.7439 35.2663 14.7156 31.2917 12.3346 28.0762C11.2125 26.5581 10.6467 25.7047 10.4016 24.8277C10.2601 24.3515 10.2318 23.8706 10.2318 23.2624C10.2224 21.2115 10.4581 19.1935 10.5053 17.02C10.5854 12.9181 16.8891 10.8483 14.6685 5.0161C13.9565 3.14432 12.3158 1.612 10.246 0.753906C13.6265 8.21274 3.92341 10.886 3.63109 2.05048C0.382583 4.74735 0.410872 8.72194 2.79185 11.9374C3.83854 13.3472 5.06911 14.2336 4.99367 17.0106C4.91352 18.9389 4.78622 20.9286 4.65892 22.8617C4.61177 23.6302 4.53633 24.1394 4.34774 24.625C4.01299 25.5019 3.33405 26.294 1.74988 28.3686L1.74516 28.3921ZM30.6988 28.0291H43.9427V31.4615H30.6988V28.0291ZM20.2649 20.0328C23.9755 20.1506 26.248 21.7065 26.828 24.9456H20.2649V20.0328ZM54.1173 20.0328C50.4067 20.1506 48.1342 21.7065 47.5543 24.9456H54.1173V20.0328ZM22.8345 13.4603H52.0145L50.7085 7.43008C50.3502 5.77518 49.3223 4.34659 47.625 4.34659H27.8511C26.1585 4.34659 25.2862 5.8129 24.7676 7.43008L22.8345 13.4603Z" fill="url(#paint0_linear_5772_59736)"></path>
  <defs>
    <linearGradient id="paint0_linear_5772_59736" x1="-18.7155" y1="13.1916" x2="1.06868" y2="59.2737" gradientUnits="userSpaceOnUse">
      <stop stop-color="#00CFDE"></stop>
      <stop offset="1" stop-color="#05A660"></stop>
    </linearGradient>
  </defs>
</svg>
