<?xml version="1.0" encoding="UTF-8"?>
<svg xmlns="http://www.w3.org/2000/svg" width="52" height="59" viewBox="0 0 52 59" fill="none">
  <g clip-path="url(#clip0_9761_2877)">
    <path d="M33.5673 58.8981H34.2797L45.9084 53.0524L46.102 52.7774V6.11722L45.9084 5.8408L34.2797 0H33.5586L33.5673 58.8981Z" fill="#5294CF"></path>
    <path d="M18.4328 58.8981H17.7105L6.09172 53.0524L5.85594 52.6447L5.73633 6.35485L6.09172 5.8408L17.7105 0H18.4418L18.4328 58.8981Z" fill="#1F5B98"></path>
    <path d="M17.7324 0H34.2686V58.8981H17.7324V0Z" fill="#2D72B8"></path>
    <path d="M51.9949 28.1259L51.6019 28.0383L45.9912 27.5124L45.9079 27.554L34.2689 27.0861H17.7319L6.09264 27.554V18.6318L6.08045 18.6383L6.09264 18.6122L17.7319 15.901H34.2689L45.9079 18.6122L50.1866 20.8985V19.4286L51.9949 19.2297L51.8077 18.8627L46.0824 14.7472L45.9079 14.8041L34.2689 11.1786H17.7319L6.09264 14.8041V5.84082L0.00585938 13.0092V19.2698L0.0529744 19.2355L1.8141 19.4286V20.9287L0.00585938 21.9015V28.1308L0.0529744 28.1259L1.8141 28.152V30.7666L0.294642 30.7894L0.00585938 30.7617V36.9934L1.8141 37.9709V39.4884L0.081609 39.6807L0.00585938 39.6235V45.883L6.09264 53.0525V44.09L17.7319 47.7155H34.2689L45.9422 44.0794L46.0974 44.1477L51.7473 40.0929L51.9949 39.6889L50.1866 39.4884V38.0013L49.9497 37.9062L46.0824 40.0018L45.9422 40.2958L34.2689 42.9912V42.9945H17.7319V42.9912L6.09264 40.2844V31.3294L17.7319 31.7957V31.8071H34.2689L45.9079 31.3294L46.1729 31.4519L51.6113 30.9812L51.9949 30.7927L50.1866 30.7666V28.152L51.9949 28.1259Z" fill="#1A476F"></path>
    <path d="M45.9082 44.09V53.0525L51.9952 45.883V39.6644L45.9433 44.0794L45.9082 44.09ZM45.9082 40.304L45.9433 40.2958L51.9952 37.0236V30.7666L45.9082 31.3294V40.304ZM45.9433 18.6203L45.9082 18.6122V27.554L51.9952 28.1259V21.8719L45.9433 18.6203ZM45.9433 14.8392L51.9952 19.2297V13.0109L45.9082 5.84082V14.8041L45.9433 14.8164V14.8392Z" fill="#2D72B8"></path>
  </g>
  <defs>
    <clipPath id="clip0_9761_2877">
      <rect width="52" height="59" fill="white"></rect>
    </clipPath>
  </defs>
</svg>
