<?xml version="1.0" encoding="UTF-8"?>
<svg xmlns="http://www.w3.org/2000/svg" width="87" height="64" viewBox="0 0 87 64" fill="none">
  <g clip-path="url(#clip0_10541_18630)">
    <mask id="mask0_10541_18630" style="mask-type:luminance" maskUnits="userSpaceOnUse" x="-1" y="0" width="87" height="64">
      <path d="M86 0H-1V64H86V0Z" fill="white"></path>
    </mask>
    <g mask="url(#mask0_10541_18630)">
      <mask id="mask1_10541_18630" style="mask-type:luminance" maskUnits="userSpaceOnUse" x="11" y="53" width="66" height="11">
        <path d="M76.002 53.0713H11.002V63.0713H76.002V53.0713Z" fill="white"></path>
      </mask>
      <g mask="url(#mask1_10541_18630)">
        <path d="M11.2785 57.7797C11.509 56.6138 12.5693 55.8066 14.0445 55.8066C15.7502 55.8066 17.0871 56.5241 17.0871 58.7663V62.9367H15.6119L15.4275 62.0398C14.9204 62.6676 14.2289 63.0712 13.2147 63.0712C11.97 63.0712 11.002 62.3089 11.002 60.9187C11.002 59.5286 12.2927 58.6318 14.0906 58.6318H15.2892V58.3179C15.2892 57.5107 14.6899 57.2865 13.9984 57.2865C13.4913 57.2865 12.9842 57.4658 12.7537 58.0936L11.2785 57.7797ZM13.6296 61.5914C14.4594 61.5914 15.2892 61.0533 15.2892 60.1564V60.0219H14.1367C13.353 59.977 12.892 60.2909 12.892 60.9187C12.892 61.2326 13.1686 61.5914 13.6296 61.5914Z" fill="black"></path>
        <path d="M46.0383 57.7797C46.2688 56.6138 47.3291 55.8066 48.8043 55.8066C50.5099 55.8066 51.8468 56.5241 51.8468 58.7663V62.9367H50.3716L50.1872 62.0398C49.6802 62.6676 48.9887 63.0712 47.9745 63.0712C46.7298 63.0712 45.7617 62.3089 45.7617 60.9187C45.7617 59.5286 47.0525 58.6318 48.8504 58.6318H50.049V58.3179C50.049 57.5107 49.4497 57.2865 48.7582 57.2865C48.2511 57.2865 47.744 57.4658 47.5135 58.0936L46.0383 57.7797ZM48.3894 61.5914C49.2192 61.5914 50.049 61.0533 50.049 60.1564V60.0219H48.8504C48.0667 60.0219 47.6057 60.2909 47.6057 60.9187C47.6518 61.2326 47.9284 61.5914 48.3894 61.5914Z" fill="black"></path>
        <path d="M53.459 62.9815V55.8963H55.2569V57.0622C55.7639 56.2102 56.5937 55.8066 57.3774 55.8066C57.7001 55.8066 57.9767 55.8515 58.2533 55.9412L57.9306 57.5555C57.7001 57.421 57.4696 57.3313 57.193 57.3313C56.1327 57.3313 55.2569 58.1833 55.2569 60.4255V62.9367L53.459 62.9815Z" fill="black"></path>
        <path d="M62.0797 55.8067C62.8173 55.8067 63.5088 56.1655 63.8315 56.569V53.0713H65.6293V62.9816H63.8315V62.2641C63.601 62.6229 62.9556 63.1161 62.0797 63.1161C59.913 63.1161 58.8066 61.6363 58.8066 59.4838C58.8066 57.3314 59.913 55.8067 62.0797 55.8067ZM62.3563 61.5915C63.2783 61.5915 64.0159 60.8291 64.0159 59.439C64.0159 58.0489 63.2783 57.2865 62.3563 57.2865C61.4343 57.2865 60.6967 58.0489 60.6967 59.439C60.6967 60.8291 61.4343 61.5915 62.3563 61.5915Z" fill="black"></path>
        <path d="M72.0826 56.9276L71.0224 57.8693C70.6997 57.4208 70.1926 57.2415 69.8238 57.2415C69.455 57.2415 69.1323 57.4657 69.1323 57.8244C69.1323 58.1383 69.4089 58.3625 69.8238 58.4971C70.838 58.8558 72.4514 59.1697 72.4514 60.6495C72.4514 61.95 71.4372 62.9814 69.8699 62.9814C68.3486 62.9814 67.3344 61.95 67.0117 61.098L68.4408 60.3356C68.7174 61.0083 69.1784 61.5016 69.916 61.5016C70.4692 61.5016 70.838 61.2325 70.838 60.7392C70.838 60.1563 69.916 60.0217 69.0401 59.663C68.2564 59.3491 67.5649 58.8558 67.5649 57.7796C67.5649 56.7033 68.4869 55.7168 69.8699 55.7168C70.7919 55.7616 71.6677 56.2549 72.0826 56.9276Z" fill="black"></path>
        <path d="M34.9274 55.8965L33.6366 60.7844L32.392 55.8965H30.7324L29.5338 60.7844L28.5196 57.9593L28.3813 58.2732L27.8281 60.1117L28.7501 62.9817H30.3175L31.5622 58.4077L32.8068 62.9817H34.4203L36.7253 55.8965H34.9274Z" fill="black"></path>
        <path d="M43.5477 55.8965L42.257 60.7844L41.0123 55.8965H39.3527L38.1541 60.7844L37.1399 57.9593L37.0016 58.2732L36.4023 60.1117L37.3704 62.9817H38.9378L40.1825 58.4077L41.4272 62.9817H42.9945L45.3456 55.8965H43.5477Z" fill="black"></path>
        <path d="M28.1051 55.8965L25.8002 62.9368H24.2328L22.9881 58.4077L21.7434 62.9817H20.1761L17.8711 55.9413H19.669L20.9597 60.7844L22.2044 55.9413H23.864L25.1087 60.7844L26.3995 55.9413L28.1051 55.8965Z" fill="black"></path>
        <path d="M74.804 60.6943C75.4955 60.6943 76.0026 61.1876 76.0026 61.8603C76.0026 62.5329 75.4955 63.0262 74.804 63.0262C74.1126 63.0262 73.6055 62.5329 73.6055 61.8603C73.6055 61.1876 74.1126 60.6943 74.804 60.6943Z" fill="#27AE60"></path>
      </g>
    </g>
    <path d="M29.4808 13.078C28.3238 13.078 27.1278 12.636 26.2048 11.648L26.9328 10.79C27.5958 11.609 28.5968 12.012 29.4938 12.012C30.6248 12.012 31.3788 11.479 31.3788 10.595C31.3788 9.555 30.5468 9.282 29.3118 8.814C27.9468 8.307 26.5558 7.722 26.5558 6.123C26.5558 4.745 27.8038 3.692 29.3768 3.679C30.4038 3.679 31.4178 4.056 32.3018 4.758L31.6128 5.642C30.8848 5.031 30.0658 4.732 29.3768 4.732C28.5188 4.732 27.7388 5.2 27.7388 6.071C27.7258 6.955 28.5578 7.267 29.7018 7.722C31.2618 8.32 32.5618 8.749 32.5618 10.478C32.5618 12.181 31.0668 13.078 29.4808 13.078ZM38.6326 13.078C35.8636 13.078 33.9916 11.05 33.9916 8.385C33.9916 5.72 35.8636 3.679 38.6326 3.679C41.2326 3.679 43.2346 5.564 43.2346 8.385C43.2346 11.193 41.2326 13.078 38.6326 13.078ZM38.6326 11.999C40.5436 11.999 42.0516 10.504 42.0516 8.385C42.0516 6.24 40.5436 4.758 38.6326 4.758C36.5656 4.758 35.1616 6.383 35.1616 8.385C35.1616 10.387 36.5656 11.999 38.6326 11.999ZM46.5402 13V4.81H43.7712V3.77H50.4532V4.81H47.6712V13H46.5402ZM52.0411 13V3.77H54.8101C57.7351 3.77 59.5941 5.668 59.5941 8.398C59.5941 11.115 57.7871 13 54.8491 13H52.0411ZM53.1721 11.973H54.7711C56.9941 11.973 58.4371 10.478 58.4371 8.398C58.4371 6.279 56.9811 4.797 54.8231 4.797H53.1721V11.973ZM24.4628 29L23.8388 27.154H20.2898L19.6658 29H17.7548L21.1738 19.77H22.9288L26.3738 29H24.4628ZM20.8228 25.594H23.3058L22.0708 21.967H22.0448L20.8228 25.594ZM36.7357 19.77H38.6857L35.7737 29H34.0837L32.3547 22.435H32.3157L30.5217 29H28.8447L25.9327 19.77H27.8827L29.6767 26.01H29.7027L31.3407 19.77H33.2777L34.9157 26.01H34.9287L36.7357 19.77ZM44.9657 29L44.3417 27.154H40.7927L40.1687 29H38.2577L41.6767 19.77H43.4317L46.8767 29H44.9657ZM41.3257 25.594H43.8087L42.5737 21.967H42.5477L41.3257 25.594ZM55.1999 29H53.0419L50.9749 25.841H49.9089V29H48.1019V19.77H51.5989C53.8219 19.77 54.8099 21.07 54.8099 22.838C54.8099 24.32 54.0949 25.23 52.9119 25.62L55.1999 29ZM49.9089 21.395V24.229H51.1829C52.3139 24.229 52.9249 23.657 52.9249 22.799C52.9249 21.954 52.3269 21.395 51.2609 21.395H49.9089ZM56.5951 29V19.77H59.6501C62.5751 19.77 64.4471 21.668 64.4471 24.398C64.4471 27.115 62.6531 29 59.6891 29H56.5951ZM58.4021 27.375H59.5721C61.3661 27.375 62.5491 26.088 62.5491 24.398C62.5491 22.669 61.3531 21.408 59.6891 21.408H58.4021V27.375ZM12.5186 35.77H13.7276L10.7766 45H9.68461L7.55261 37.434H7.53961L5.36861 45H4.27661L1.32561 35.77H2.53461L4.80961 43.141H4.83561L6.91561 35.77H8.15061L10.2306 43.167H10.2436L12.5186 35.77ZM15.423 45V35.77H16.567V45H15.423ZM25.3332 35.77H26.4642V45H25.3072L20.1332 37.72H20.1072V45H18.9762V35.77H20.0942L25.3072 43.128H25.3332V35.77ZM35.1593 35.77H36.2903V45H35.1333L29.9593 37.72H29.9333V45H28.8023V35.77H29.9203L35.1333 43.128H35.1593V35.77ZM38.6285 45V35.77H44.2835V36.81H39.7725V39.891H43.4775V40.931H39.7725V43.96H44.5565V45H38.6285ZM52.976 45H51.611L49.271 41.477H47.529V45H46.398V35.77H49.674C51.806 35.77 52.729 36.992 52.729 38.63C52.729 40.203 51.871 41.087 50.532 41.373V41.386L52.976 45ZM47.529 36.81V40.437H49.375C50.909 40.437 51.559 39.657 51.559 38.604C51.559 37.434 50.792 36.81 49.531 36.81H47.529ZM59.3961 43.999H63.3611V45H57.7451L57.7321 44.246L60.7871 41.126C61.5411 40.346 62.1521 39.618 62.1521 38.734C62.1521 37.746 61.4631 37.018 60.4751 37.018C59.6301 37.018 58.9671 37.434 58.5511 38.24L57.7451 37.681C58.2391 36.706 59.1361 35.991 60.5401 35.991C61.9571 35.991 63.2441 36.966 63.2441 38.617C63.2441 39.631 62.8281 40.502 61.7231 41.62L59.3961 43.973V43.999ZM68.0864 45.078C66.1494 45.078 64.7324 43.453 64.7324 40.541C64.7324 37.902 65.9544 35.991 68.0864 35.991C70.0234 35.991 71.4404 37.616 71.4404 40.541C71.4404 43.18 70.2184 45.078 68.0864 45.078ZM68.0864 44.064C69.5164 44.064 70.3354 42.673 70.3354 40.541C70.3354 38.253 69.4124 37.005 68.0864 37.005C66.6694 37.005 65.8374 38.396 65.8374 40.541C65.8374 42.803 66.7734 44.064 68.0864 44.064ZM74.6913 45V37.395L72.9103 38.734L72.3643 37.915L74.8733 36.069H75.7833V45H74.6913ZM81.0483 45.078C79.1113 45.078 77.6943 43.453 77.6943 40.541C77.6943 37.902 78.9163 35.991 81.0483 35.991C82.9853 35.991 84.4023 37.616 84.4023 40.541C84.4023 43.18 83.1803 45.078 81.0483 45.078ZM81.0483 44.064C82.4783 44.064 83.2973 42.673 83.2973 40.541C83.2973 38.253 82.3743 37.005 81.0483 37.005C79.6313 37.005 78.7993 38.396 78.7993 40.541C78.7993 42.803 79.7353 44.064 81.0483 44.064Z" fill="black"></path>
  </g>
  <defs>
    <clipPath id="clip0_10541_18630">
      <rect width="87" height="64" fill="white"></rect>
    </clipPath>
  </defs>
</svg>
