<?xml version="1.0" standalone="no"?>
<!DOCTYPE svg PUBLIC "-//W3C//DTD SVG 20010904//EN"
 "http://www.w3.org/TR/2001/REC-SVG-20010904/DTD/svg10.dtd">
<svg version="1.0" xmlns="http://www.w3.org/2000/svg"
 width="1920.000000pt" height="1600.000000pt" viewBox="0 0 1920.000000 1600.000000"
 preserveAspectRatio="xMidYMid meet">

<g transform="translate(0.000000,1600.000000) scale(0.100000,-0.100000)"
fill="#000000" stroke="none">
<path d="M12601 13015 c1 -19 18 -51 18 -35 0 8 -4 22 -9 30 -5 8 -9 11 -9 5z"/>
<path d="M12615 12918 c-21 -130 -107 -221 -225 -239 l-45 -6 40 -2 c79 -2
176 64 221 150 15 31 32 139 21 139 -3 0 -8 -19 -12 -42z"/>
<path d="M11540 12520 c-6 -11 -8 -20 -6 -20 3 0 10 9 16 20 6 11 8 20 6 20
-3 0 -10 -9 -16 -20z"/>
<path d="M11496 12452 c-3 -5 1 -9 9 -9 8 0 12 4 9 9 -3 4 -7 8 -9 8 -2 0 -6
-4 -9 -8z"/>
<path d="M11483 12407 c-1 -11 -1 -18 0 -16 2 2 8 11 15 20 9 12 9 16 -1 16
-7 0 -14 -9 -14 -20z"/>
<path d="M11455 12380 c-3 -5 -1 -10 4 -10 6 0 11 5 11 10 0 6 -2 10 -4 10 -3
0 -8 -4 -11 -10z"/>
<path d="M11425 12337 c-20 -17 -24 -24 -12 -24 9 0 14 4 11 9 -3 4 2 8 10 8
16 0 31 18 23 26 -3 3 -17 -6 -32 -19z"/>
<path d="M11379 12283 c-13 -16 -12 -17 4 -4 9 7 17 15 17 17 0 8 -8 3 -21
-13z"/>
<path d="M11376 12255 c-17 -18 -30 -20 -20 -3 4 7 3 8 -4 4 -7 -4 -12 -11
-12 -16 0 -6 -17 -26 -37 -46 -21 -20 -32 -33 -25 -29 6 3 12 1 12 -4 0 -6 -4
-12 -10 -12 -5 -1 -15 -2 -22 -3 -6 0 -12 -8 -14 -17 -1 -10 4 -16 12 -15 8 1
13 5 12 7 -2 3 10 17 26 32 16 15 23 27 17 27 -7 0 -10 4 -6 10 3 5 12 7 20 3
10 -3 15 1 15 12 0 10 5 14 13 9 6 -4 9 -4 5 0 -4 5 5 19 20 32 15 13 24 24
20 24 -4 0 -13 -7 -22 -15z"/>
<path d="M11195 12089 c-5 -8 -4 -10 3 -5 21 13 13 -2 -18 -32 -32 -33 -50
-31 -23 2 18 21 18 21 -4 2 -17 -14 -20 -23 -13 -31 8 -9 6 -14 -4 -18 -9 -4
-18 -2 -22 4 -9 15 -34 -9 -27 -26 4 -12 9 -11 31 3 47 29 105 93 94 104 -6 6
-12 5 -17 -3z m-85 -89 c0 -5 -5 -10 -11 -10 -5 0 -7 5 -4 10 3 6 8 10 11 10
2 0 4 -4 4 -10z"/>
<path d="M11031 11961 c-11 -7 -11 -9 0 -14 9 -4 7 -6 -6 -7 -11 -1 -23 -2
-27 -2 -3 1 -12 -5 -18 -13 -9 -11 -9 -15 -1 -15 6 0 11 5 11 11 0 5 4 7 10 4
5 -3 26 4 47 15 22 12 28 18 14 14 -16 -4 -21 -3 -17 5 9 13 6 14 -13 2z"/>
<path d="M10938 11873 c7 -3 16 -2 19 1 4 3 -2 6 -13 5 -11 0 -14 -3 -6 -6z"/>
<path d="M10885 11860 c-4 -6 -11 -7 -17 -4 -7 5 -8 2 -3 -6 6 -10 4 -12 -8
-7 -9 3 -26 -3 -39 -14 l-23 -20 25 12 c14 7 36 13 50 14 15 0 24 6 22 14 -2
9 4 11 20 6 18 -5 20 -4 8 4 -19 13 -27 14 -35 1z"/>
<path d="M10738 11793 c-44 -24 -64 -53 -37 -53 5 0 7 5 4 10 -3 6 8 18 25 28
36 20 67 41 60 41 -3 0 -26 -11 -52 -26z"/>
<path d="M10774 11784 c-19 -15 -19 -15 1 -6 11 5 27 12 35 15 13 5 13 6 -1 6
-8 1 -24 -6 -35 -15z"/>
<path d="M11370 11701 c0 -7 -8 -11 -17 -9 -10 1 -24 -1 -32 -6 -10 -6 -12 -5
-7 2 4 7 -5 6 -26 -2 -33 -14 -56 -45 -24 -33 10 4 15 3 11 -3 -4 -6 -12 -10
-18 -9 -30 4 -40 -3 -19 -12 13 -5 28 -7 32 -4 5 3 7 -4 5 -15 -3 -13 5 -29
20 -42 14 -12 25 -28 25 -35 0 -7 4 -13 9 -13 5 0 125 -117 268 -260 223 -225
271 -268 263 -234 -1 4 4 11 12 16 9 6 6 7 -9 3 -14 -4 -23 -2 -23 5 0 6 5 8
11 4 7 -4 10 -1 7 7 -3 8 -1 22 4 32 5 10 5 17 -1 17 -5 0 -12 -6 -14 -12 -3
-7 -6 -1 -6 15 -1 25 1 26 19 15 22 -14 26 -33 10 -43 -11 -7 -4 -25 10 -25 5
0 6 7 3 17 -4 11 -3 14 5 9 8 -5 10 2 6 24 -5 23 -3 30 10 30 9 0 16 3 17 8 7
56 6 62 -15 56 -21 -6 -21 -6 -1 9 19 15 19 15 -5 14 -14 0 -41 3 -60 7 -26 5
-31 4 -20 -3 12 -9 10 -11 -12 -11 -14 0 -29 -6 -31 -12 -3 -7 -6 -1 -6 13 -1
24 -41 75 -41 51 0 -6 7 -15 16 -20 25 -14 13 -44 -18 -48 -21 -2 -25 1 -21
13 5 12 2 15 -8 11 -12 -5 -15 2 -15 27 1 18 4 31 9 28 4 -2 7 0 7 5 0 16 -68
63 -75 52 -3 -5 -1 -10 5 -10 6 0 8 -5 4 -12 -5 -8 -2 -9 10 -5 11 5 15 3 10
-5 -5 -8 -1 -9 12 -4 15 6 16 5 7 -5 -16 -16 -70 -19 -70 -3 0 7 6 10 14 7 9
-4 11 0 7 11 -3 9 -11 16 -16 16 -7 0 -6 5 1 14 9 11 -1 27 -49 77 -33 34 -60
58 -61 53 0 -5 -4 1 -9 14 -5 12 -15 22 -22 21 -10 0 -10 -2 0 -6 6 -2 12 -12
12 -20 0 -13 -2 -14 -17 -2 -16 12 -17 12 -6 -2 7 -9 10 -19 6 -22 -3 -4 -1
-7 5 -7 7 0 12 6 12 13 0 8 4 7 10 -3 8 -12 10 -12 10 -1 0 9 7 6 20 -9 11
-13 18 -26 14 -29 -3 -3 -10 1 -14 10 -6 10 -21 15 -42 14 -30 -2 -33 0 -33
27 0 16 8 35 17 42 16 12 16 13 -2 26 -10 8 -17 17 -15 20 2 4 -3 19 -11 34
-7 16 -14 42 -15 60 0 17 -3 25 -6 19 -2 -7 -12 -13 -21 -12 -11 0 -12 2 -4 6
6 2 12 11 12 19 0 9 5 12 10 9 6 -3 10 -1 10 4 0 6 -7 11 -15 11 -8 0 -15 -6
-15 -14 0 -8 -7 -17 -16 -20 -14 -5 -15 -4 -4 9 7 9 10 18 6 22 -3 3 -6 1 -6
-6z m43 -78 c2 -12 0 -23 -4 -23 -5 0 -9 7 -9 15 0 8 -4 15 -10 15 -5 0 -10 4
-10 8 0 20 29 7 33 -15z m-28 -13 c3 -6 -1 -7 -9 -4 -18 7 -21 14 -7 14 6 0
13 -4 16 -10z m189 -242 c-3 -4 -11 -8 -17 -8 -7 0 -6 4 3 10 13 9 13 10 0 10
-9 0 -20 -4 -25 -9 -6 -6 -10 0 -11 17 -1 15 1 21 3 15 7 -20 23 -15 17 5 -4
11 1 8 14 -8 11 -13 18 -28 16 -32z m36 -8 c0 -5 -2 -10 -4 -10 -3 0 -8 5 -11
10 -3 6 -1 10 4 10 6 0 11 -4 11 -10z m264 -149 c3 -5 -6 -8 -20 -8 -19 0 -22
2 -13 8 18 11 26 11 33 0z m16 -41 c0 -5 -7 -10 -15 -10 -8 0 -15 5 -15 10 0
6 7 10 15 10 8 0 15 -4 15 -10z"/>
<path d="M11204 11647 c-20 -17 -23 -24 -11 -24 9 0 15 4 14 8 -1 4 7 15 18
23 11 8 17 16 13 16 -4 0 -19 -10 -34 -23z"/>
<path d="M11235 11610 c27 -12 43 -12 25 0 -8 5 -22 9 -30 9 -10 0 -8 -3 5 -9z"/>
<path d="M11700 11261 c0 -5 7 -17 16 -25 15 -15 34 -21 34 -11 0 3 -9 14 -20
25 -22 22 -30 25 -30 11z"/>
<path d="M11780 11246 c0 -9 5 -16 10 -16 6 0 10 4 10 9 0 6 -4 13 -10 16 -5
3 -10 -1 -10 -9z"/>
<path d="M11930 11229 c0 -5 5 -7 10 -4 6 3 10 8 10 11 0 2 -4 4 -10 4 -5 0
-10 -5 -10 -11z"/>
<path d="M5135 9811 c-54 -9 -64 -17 -86 -65 -26 -57 -24 -106 6 -147 13 -19
36 -55 50 -81 20 -38 31 -48 51 -48 53 0 114 49 114 91 0 16 6 32 14 36 22 12
46 91 46 150 0 42 -4 54 -19 63 -21 11 -112 11 -176 1z"/>
<path d="M9502 8652 l3 -632 30 -29 c17 -16 136 -90 265 -164 129 -74 291
-167 360 -207 233 -136 293 -170 295 -170 2 0 76 -43 165 -95 89 -52 166 -95
171 -95 4 0 9 97 11 215 l3 215 27 27 c36 35 80 34 150 -4 29 -16 222 -126
428 -245 206 -118 396 -226 422 -241 25 -14 64 -37 87 -51 l41 -26 41 26 c23
14 62 37 87 51 81 44 142 85 142 95 0 5 4 7 9 4 5 -3 30 6 55 20 33 19 44 29
37 38 -7 8 -4 12 9 12 10 0 16 -4 13 -10 -3 -5 12 1 33 13 26 14 40 30 41 44
1 12 10 27 19 34 24 18 8 30 -19 15 -22 -13 -22 -13 1 7 l22 19 -2 566 c-3
516 -2 565 13 561 9 -3 22 2 30 12 8 9 9 14 2 10 -6 -4 -13 -4 -16 0 -2 5 -2
2 0 -6 2 -8 -2 -11 -12 -7 -30 11 -71 -18 -66 -47 1 -5 -3 -6 -9 -2 -6 3 -7
11 -4 17 6 10 -36 -9 -46 -21 -3 -3 -25 -17 -50 -30 -25 -14 -48 -29 -51 -34
-3 -5 -9 -8 -13 -7 -16 5 -106 -52 -100 -62 4 -7 2 -8 -5 -4 -6 4 -28 -2 -49
-15 -20 -12 -53 -31 -72 -41 -19 -11 -106 -61 -193 -110 -87 -50 -180 -97
-205 -105 -26 -9 -87 -15 -137 -16 -74 0 -101 4 -150 24 -50 21 -1359 770
-1675 959 -58 34 -104 70 -118 90 l-23 34 3 -632z m2898 -1238 c0 -2 -9 0 -20
6 -11 6 -20 13 -20 16 0 2 9 0 20 -6 11 -6 20 -13 20 -16z"/>
<path d="M10443 9109 c16 -26 33 -30 33 -9 0 11 -5 16 -15 12 -8 -3 -12 -1 -8
5 3 5 0 10 -7 10 -11 0 -12 -4 -3 -18z"/>
<path d="M10495 9089 c2 -18 8 -36 13 -41 6 -6 8 0 5 16 -4 17 -1 26 7 26 7 0
10 -7 7 -15 -4 -8 -2 -17 4 -20 5 -4 7 -10 4 -15 -5 -7 21 -25 118 -79 22 -12
37 -16 37 -9 0 6 9 3 20 -7 11 -10 23 -15 27 -12 3 4 1 7 -5 7 -7 0 -12 5 -12
10 0 7 6 7 19 1 10 -6 21 -7 25 -4 3 4 25 8 47 9 35 2 39 1 28 -12 -8 -10 -21
-13 -36 -9 -13 3 -23 1 -23 -5 0 -6 -4 -9 -9 -5 -5 3 -13 0 -16 -6 -5 -7 6 -9
38 -4 35 6 51 3 69 -10 l23 -17 -25 7 c-57 15 -63 14 -26 -4 23 -11 55 -18 78
-17 23 2 35 -1 31 -7 -4 -7 2 -7 18 -3 40 13 104 16 88 4 -10 -7 -7 -8 11 -3
45 12 70 13 64 4 -3 -5 10 -9 28 -10 26 0 29 -2 14 -8 -16 -6 -17 -9 -5 -17
17 -11 89 -13 89 -2 0 4 7 5 15 2 8 -4 12 -10 9 -15 -3 -5 2 -6 10 -3 24 9 -8
37 -34 29 -14 -5 -20 -2 -20 10 0 12 5 15 23 9 12 -4 28 -7 35 -7 6 0 12 -4
12 -9 0 -4 9 -8 21 -8 11 0 18 4 15 8 -9 15 39 34 75 29 32 -4 31 -4 -8 -5
-54 -2 -57 -22 -3 -22 22 0 40 -4 40 -10 0 -15 -80 -13 -80 3 -1 8 -5 7 -13
-4 -7 -9 -19 -18 -27 -22 -14 -5 56 0 112 8 17 3 28 -1 32 -10 8 -22 112 -21
120 1 3 8 9 13 14 10 4 -2 14 -1 22 5 13 7 12 9 -2 9 -27 0 -22 30 5 31 25 1
83 0 145 -4 23 -1 42 1 42 5 0 5 7 8 16 8 14 0 15 -2 3 -17 -11 -13 -8 -13 16
3 16 10 26 13 22 7 -5 -7 -4 -13 2 -13 6 0 11 5 11 10 0 6 8 10 19 10 19 0
101 33 114 46 4 5 -2 13 -14 19 -19 11 -18 12 13 12 18 0 27 -2 20 -5 -6 -2
-10 -7 -7 -12 7 -11 55 12 55 28 0 6 8 12 18 12 14 0 15 2 2 10 -13 9 -13 11
0 20 19 13 40 13 40 0 0 -5 -4 -10 -10 -10 -5 0 -10 -4 -10 -10 0 -17 89 43
94 65 5 19 4 19 -9 2 -9 -13 -28 -19 -62 -20 -26 -1 -51 -6 -55 -12 -5 -6 -8
-5 -8 3 0 8 -19 12 -63 12 -37 0 -69 5 -76 13 -11 10 -14 10 -18 0 -5 -15 -80
-18 -85 -3 -3 10 -450 26 -673 23 -76 0 -122 3 -127 10 -10 16 -475 21 -481 4
-2 -6 -2 -2 0 11 3 20 1 22 -16 12 -13 -7 -22 -7 -26 0 -13 21 -24 9 -20 -21z
m100 -53 c18 3 35 2 38 -3 3 -4 -13 -8 -36 -8 -25 0 -41 5 -43 13 -1 7 0 8 3
2 3 -6 18 -8 38 -4z m40 -36 c8 -13 -15 -13 -35 0 -12 8 -11 10 7 10 12 0 25
-4 28 -10z m1311 -66 c-16 -11 -16 -13 1 -17 14 -4 13 -5 -6 -6 -17 -1 -22 3
-17 15 3 9 6 20 6 25 0 4 7 6 16 2 15 -6 15 -7 0 -19z m49 -4 c3 -5 -1 -10 -9
-10 -9 0 -16 5 -16 10 0 6 4 10 9 10 6 0 13 -4 16 -10z m-785 -58 c0 -5 -13
-7 -30 -4 -16 2 -30 6 -30 8 0 2 14 4 30 4 17 0 30 -4 30 -8z m120 4 c0 -11
-19 -15 -25 -6 -3 5 1 10 9 10 9 0 16 -2 16 -4z m170 -10 c6 -8 18 -12 26 -9
8 3 14 0 14 -6 0 -21 -30 -24 -50 -6 -11 10 -20 22 -20 27 0 13 16 9 30 -6z
m-300 -26 c0 -5 -5 -10 -11 -10 -5 0 -7 5 -4 10 3 6 8 10 11 10 2 0 4 -4 4
-10z"/>
<path d="M10985 8859 c-6 -9 -2 -11 13 -7 12 4 25 2 28 -3 7 -12 71 -12 78 0
3 5 -11 9 -32 8 -20 0 -47 3 -58 7 -14 5 -25 3 -29 -5z"/>
<path d="M11625 8859 c-16 -6 -16 -8 -3 -8 9 -1 23 -4 32 -7 9 -3 16 -2 16 4
0 15 -22 20 -45 11z"/>
<path d="M11696 8860 c-11 -3 -15 -9 -10 -13 10 -6 42 9 34 16 -3 3 -14 1 -24
-3z"/>
<path d="M11715 8844 c-11 -9 -33 -13 -48 -11 -18 2 -24 0 -18 -6 13 -13 154
11 145 24 -3 5 -12 5 -23 -1 -10 -5 -22 -5 -27 0 -5 5 -17 2 -29 -6z"/>
<path d="M11118 8833 c7 -3 16 -2 19 1 4 3 -2 6 -13 5 -11 0 -14 -3 -6 -6z"/>
<path d="M5026 8505 c-4 -86 -12 -183 -17 -214 -6 -31 -12 -181 -15 -333 l-5
-277 25 -17 c26 -16 32 -16 101 12 18 7 19 6 5 -11 -9 -11 -10 -16 -2 -11 8 5
12 1 12 -13 0 -10 -5 -21 -11 -23 -6 -2 -3 -13 9 -28 28 -34 72 -31 163 13 83
40 96 55 77 95 -12 25 -68 50 -68 31 0 -5 -14 -9 -31 -9 l-32 0 6 63 c8 82 49
285 98 479 45 180 60 274 52 323 l-6 35 -76 0 c-64 0 -148 12 -257 37 -20 5
-21 0 -28 -152z m130 -388 c-8 -78 -18 -179 -22 -224 -7 -82 -16 -103 -29 -62
-13 39 11 251 43 389 23 103 27 64 8 -103z"/>
<path d="M7047 8179 c7 -7 15 -10 18 -7 3 3 -2 9 -12 12 -14 6 -15 5 -6 -5z"/>
<path d="M7160 8140 c0 -5 6 -11 13 -14 6 -4 2 -4 -11 -2 -31 6 -19 -9 20 -24
18 -7 40 -19 49 -27 13 -11 15 -10 14 7 -1 11 -5 23 -10 27 -4 5 -5 2 0 -6 6
-10 2 -12 -16 -6 -33 10 -51 30 -21 22 30 -7 28 -1 -8 17 -16 8 -30 11 -30 6z"/>
<path d="M7260 8058 c0 -8 15 -12 37 -9 7 1 10 -5 7 -13 -4 -10 2 -17 20 -22
14 -3 26 -10 26 -15 0 -5 7 -6 15 -3 8 4 15 12 15 19 0 19 -30 27 -48 13 -13
-11 -15 -10 -9 4 3 10 1 21 -6 25 -16 10 -57 11 -57 1z m105 -38 c3 -5 1 -10
-4 -10 -6 0 -11 5 -11 10 0 6 2 10 4 10 3 0 8 -4 11 -10z"/>
<path d="M7030 8046 c0 -8 5 -18 12 -22 7 -4 8 -3 4 4 -4 7 -1 12 9 12 9 0 13
-4 10 -10 -3 -5 1 -10 10 -10 10 0 14 -5 9 -12 -5 -9 -3 -9 7 0 12 11 10 16
-10 33 -28 23 -51 25 -51 5z"/>
<path d="M7105 8000 c-3 -5 -1 -10 4 -10 6 0 11 5 11 10 0 6 -2 10 -4 10 -3 0
-8 -4 -11 -10z"/>
<path d="M7147 7972 c14 -13 32 -18 45 -15 16 3 19 2 10 -5 -10 -7 -7 -13 12
-25 14 -10 29 -17 33 -17 4 0 1 5 -7 10 -13 8 -12 10 3 10 10 0 16 4 12 10 -3
5 -13 6 -22 3 -10 -4 -14 -2 -9 5 7 13 -6 23 -37 27 -12 1 -31 6 -42 10 -18 6
-18 5 2 -13z"/>
<path d="M7030 7901 c0 -10 11 -26 25 -35 14 -9 25 -12 25 -7 0 5 -9 13 -20
16 -11 3 -20 11 -20 16 0 6 8 5 21 -1 33 -18 31 -7 -2 12 -28 16 -29 16 -29
-1z"/>
<path d="M7110 7860 c12 -8 12 -10 -5 -10 -16 0 -17 -2 -5 -10 9 -6 17 -5 22
3 8 14 1 27 -15 27 -7 0 -6 -4 3 -10z"/>
<path d="M5421 7704 c0 -11 3 -14 6 -6 3 7 2 16 -1 19 -3 4 -6 -2 -5 -13z"/>
<path d="M10855 7695 l-25 -24 0 -218 c0 -197 2 -219 18 -229 9 -6 44 -26 77
-44 33 -18 65 -36 70 -40 39 -30 108 -60 126 -55 14 5 51 -11 119 -50 94 -53
113 -69 91 -77 -5 -1 -20 -21 -35 -42 -36 -54 -34 -101 8 -184 19 -37 39 -79
45 -94 6 -16 18 -28 26 -28 26 0 103 79 111 113 9 46 14 51 29 30 12 -16 14
-14 20 22 4 22 15 52 26 67 10 15 19 32 19 38 0 29 -40 65 -109 98 -42 20 -96
48 -121 62 -163 96 -190 114 -190 126 0 8 8 14 17 14 15 0 14 2 -3 14 -15 12
-17 18 -8 33 8 13 8 23 0 36 -8 13 -8 20 3 26 9 6 10 11 2 15 -16 10 -14 36 3
36 8 0 91 -44 184 -99 93 -54 199 -115 236 -135 37 -20 79 -44 92 -52 13 -9
24 -14 24 -11 0 9 -558 337 -574 337 -3 0 -6 -49 -6 -109 0 -84 3 -113 15
-125 8 -8 65 -43 125 -77 71 -41 107 -66 100 -73 -12 -12 -34 -2 -156 70 -52
30 -99 64 -104 74 -6 12 -9 71 -8 142 3 123 3 123 28 126 17 2 86 -33 215
-107 105 -60 228 -131 274 -158 104 -59 144 -77 136 -60 -3 7 1 2 10 -10 l16
-21 35 20 c27 16 32 23 22 30 -9 7 -4 8 14 4 17 -4 32 -1 42 10 15 14 14 17
-6 33 -22 17 -45 30 -118 68 -19 10 -37 21 -40 24 -13 16 -617 369 -779 455
-55 30 -66 30 -96 -1z m915 -485 c8 -5 10 -10 5 -10 -21 0 -13 -38 11 -50 13
-8 25 -17 25 -22 1 -4 2 -14 3 -20 3 -17 -13 -38 -28 -38 -8 0 -8 2 0 8 21 13
21 37 0 53 -20 16 -22 16 -28 1 -5 -10 -7 3 -5 30 2 44 0 47 -18 42 -16 -4
-17 -3 -5 5 18 13 21 13 40 1z m55 -58 c-4 -4 -13 2 -21 12 -21 30 -17 39 7
15 11 -11 18 -24 14 -27z m40 -12 c-3 -5 1 -10 7 -13 7 -2 10 -8 6 -12 -4 -4
-14 0 -23 9 -12 12 -13 16 -3 17 10 0 10 2 1 6 -7 2 -13 9 -13 15 0 6 6 6 15
-2 8 -7 13 -16 10 -20z m-78 -35 c0 -8 -4 -15 -9 -15 -4 0 -8 7 -8 15 0 8 4
15 8 15 5 0 9 -7 9 -15z m-52 -5 c3 -6 -1 -7 -9 -4 -18 7 -21 14 -7 14 6 0 13
-4 16 -10z"/>
<path d="M6960 7518 c-97 -30 -124 -62 -136 -160 -7 -64 5 -95 60 -147 40 -39
43 -56 19 -119 -16 -42 -16 -45 1 -57 10 -8 51 -21 93 -30 69 -16 78 -16 125
0 48 15 51 15 85 -5 20 -11 38 -19 40 -16 3 2 -15 29 -39 58 -33 40 -54 82
-81 161 -20 59 -37 112 -37 119 0 7 9 28 20 46 11 18 20 49 20 70 l1 37 35
-40 c31 -35 34 -37 25 -12 -46 120 -92 139 -231 95z"/>
<path d="M12475 7499 c-11 -17 -2 -18 19 -3 17 12 17 14 4 14 -9 0 -20 -5 -23
-11z"/>
<path d="M12495 7480 c3 -5 8 -10 11 -10 2 0 4 5 4 10 0 6 -5 10 -11 10 -5 0
-7 -4 -4 -10z"/>
<path d="M12445 7459 c-10 -16 3 -23 18 -11 8 7 18 8 22 4 5 -4 5 -1 1 6 -9
15 -32 16 -41 1z"/>
<path d="M6490 7276 c-25 -6 -90 -38 -146 -69 -55 -31 -106 -57 -113 -57 -7 0
-43 18 -81 40 -70 41 -90 48 -90 30 0 -11 69 -60 85 -60 5 0 21 -9 34 -19 20
-15 21 -19 7 -24 -28 -11 -19 -30 12 -23 40 10 45 10 72 1 25 -8 25 -8 6 13
-18 21 -18 22 0 29 11 3 21 9 24 13 6 8 136 81 171 96 25 11 80 22 124 24 l20
1 -20 9 c-27 12 -52 11 -105 -4z"/>
<path d="M11210 7276 c0 -3 9 -10 20 -16 11 -6 20 -8 20 -6 0 3 -9 10 -20 16
-11 6 -20 8 -20 6z"/>
<path d="M11317 7209 c7 -7 15 -10 18 -7 3 3 -2 9 -12 12 -14 6 -15 5 -6 -5z"/>
<path d="M11350 7196 c0 -3 9 -10 20 -16 11 -6 20 -8 20 -6 0 3 -9 10 -20 16
-11 6 -20 8 -20 6z"/>
<path d="M11207 7169 c7 -7 15 -10 18 -7 3 3 -2 9 -12 12 -14 6 -15 5 -6 -5z"/>
<path d="M11400 7166 c0 -3 9 -10 20 -16 11 -6 20 -8 20 -6 0 3 -9 10 -20 16
-11 6 -20 8 -20 6z"/>
<path d="M6590 7099 c-17 -13 -18 -17 -5 -10 33 17 51 31 40 31 -5 0 -21 -10
-35 -21z"/>
<path d="M11390 7116 c0 -2 7 -7 16 -10 8 -3 12 -2 9 4 -6 10 -25 14 -25 6z"/>
<path d="M6090 7062 c-25 -16 -51 -36 -58 -45 -11 -13 -10 -15 10 -9 34 8 111
56 110 67 -1 19 -18 15 -62 -13z"/>
<path d="M6314 7076 c11 -9 24 -16 30 -16 12 0 7 5 -24 19 -24 11 -24 11 -6
-3z"/>
<path d="M11487 7059 c7 -7 15 -10 18 -7 3 3 -2 9 -12 12 -14 6 -15 5 -6 -5z"/>
<path d="M6368 7053 c7 -3 16 -2 19 1 4 3 -2 6 -13 5 -11 0 -14 -3 -6 -6z"/>
<path d="M6498 7053 c7 -3 16 -2 19 1 4 3 -2 6 -13 5 -11 0 -14 -3 -6 -6z"/>
<path d="M6418 7043 c12 -2 32 -2 45 0 12 2 2 4 -23 4 -25 0 -35 -2 -22 -4z"/>
<path d="M5958 6974 c-39 -21 -35 -28 5 -8 37 19 44 24 31 24 -5 -1 -21 -8
-36 -16z"/>
<path d="M5874 6924 c-18 -14 -18 -14 6 -3 31 14 36 19 24 19 -6 0 -19 -7 -30
-16z"/>
<path d="M5762 6863 c-24 -14 -41 -27 -39 -30 3 -2 27 9 53 26 59 37 47 40
-14 4z"/>
<path d="M5684 6815 c-10 -8 -14 -15 -8 -15 6 0 17 7 24 15 16 19 9 19 -16 0z"/>
<path d="M5640 6789 c0 -5 5 -7 10 -4 6 3 10 8 10 11 0 2 -4 4 -10 4 -5 0 -10
-5 -10 -11z"/>
<path d="M5487 6706 c-70 -40 -131 -76 -135 -81 -16 -17 46 10 96 41 29 19 54
34 56 34 7 0 126 72 126 76 0 9 -23 -2 -143 -70z"/>
<path d="M11263 6547 c-58 -67 -67 -178 -24 -313 27 -85 30 -422 5 -569 -14
-79 -18 -176 -20 -468 -2 -352 -2 -369 17 -388 25 -25 42 -24 94 7 25 14 50
22 56 18 7 -4 9 -3 6 3 -4 5 12 16 34 23 79 26 62 60 -33 69 l-63 6 3 50 c12
191 76 609 100 652 8 14 51 -183 72 -332 31 -223 65 -422 86 -505 13 -52 24
-105 24 -117 0 -22 26 -43 54 -43 19 0 46 12 126 58 51 29 66 43 68 64 4 36
-25 50 -93 44 -37 -3 -57 0 -65 9 -5 7 -12 75 -15 151 -18 506 -28 704 -38
739 -6 22 -10 43 -9 48 1 4 -9 29 -22 55 -35 69 -46 138 -46 277 0 139 8 156
48 104 58 -75 136 -149 157 -149 22 0 49 25 77 70 18 30 68 154 68 169 0 6
-13 17 -29 25 l-28 15 -34 -62 c-19 -33 -38 -61 -44 -61 -12 0 -68 81 -110
159 l-29 55 42 36 c43 36 52 60 30 82 -18 18 -32 15 -85 -22 l-49 -33 -43 17
c-25 9 -52 26 -61 38 -11 13 -42 27 -84 36 -95 23 -110 21 -143 -17z"/>
<path d="M6910 6220 c-1 -149 -20 -296 -50 -390 -26 -82 -24 -106 10 -102 111
16 259 -14 365 -73 85 -47 130 -58 171 -40 45 19 60 53 84 192 24 142 25 215
6 271 -15 42 -104 202 -113 202 -2 0 -13 -5 -24 -11 -61 -32 -328 -42 -395
-14 -21 9 -42 21 -46 28 -4 7 -8 -22 -8 -63z"/>
<path d="M7066 5455 c7 -17 -62 -64 -125 -85 -29 -9 -41 -18 -39 -29 6 -29 59
-25 123 8 33 17 77 37 98 45 70 28 54 76 -25 76 -29 0 -36 -3 -32 -15z"/>
<path d="M7429 5284 c-28 -27 -80 -34 -146 -20 -26 6 -32 4 -38 -13 -16 -51
25 -62 160 -42 106 16 110 17 113 43 2 18 -4 31 -20 42 -30 22 -39 20 -69 -10z"/>
<path d="M8490 4924 c-41 -24 -78 -44 -82 -44 -5 0 -32 -16 -60 -35 -28 -20
-66 -43 -84 -51 -49 -23 -47 -28 36 -90 75 -56 76 -57 102 -40 47 29 114 67
146 82 31 14 36 13 70 -7 36 -20 36 -20 12 0 -14 11 -28 21 -32 21 -15 0 5 30
25 36 11 4 34 15 51 26 25 16 27 19 9 15 -13 -3 -23 -2 -23 1 0 4 -14 23 -31
42 -16 19 -37 47 -45 63 -8 15 -16 27 -17 26 -1 0 -36 -20 -77 -45z"/>
<path d="M8660 4716 c0 -3 14 -12 30 -21 17 -9 30 -13 30 -11 0 3 -13 12 -30
21 -16 9 -30 13 -30 11z"/>
<path d="M8750 4661 c14 -11 30 -21 35 -21 11 0 -7 14 -40 31 -13 7 -12 3 5
-10z"/>
<path d="M8800 4636 c0 -3 9 -10 20 -16 11 -6 20 -8 20 -6 0 3 -9 10 -20 16
-11 6 -20 8 -20 6z"/>
<path d="M8927 4559 c7 -7 15 -10 18 -7 3 3 -2 9 -12 12 -14 6 -15 5 -6 -5z"/>
</g>
</svg>
