<svg width="396" height="349" viewBox="0 0 396 349" fill="none" xmlns="http://www.w3.org/2000/svg">
<path class="path3" d="M198 343.334C196.527 343.334 195.333 344.527 195.333 346C195.333 347.473 196.527 348.667 198 348.667C199.473 348.667 200.666 347.473 200.666 346C200.666 344.527 199.473 343.334 198 343.334ZM197.5 158L197.5 346L198.5 346L198.5 158L197.5 158Z" fill="#F2F2F5" style="translate: none; rotate: none; scale: none; transform-origin: 0px 0px;" data-svg-origin="197.99949645996094 158" transform="matrix(1,0,0,1,0,0)"></path>
<path class="path2" d="M394.88 1.34046C393.963 0.187861 392.286 -0.00328356 391.133 0.913525C389.981 1.83033 389.79 3.50792 390.706 4.66052C391.623 5.81312 393.301 6.00426 394.453 5.08745C395.606 4.17064 395.797 2.49306 394.88 1.34046ZM392.482 2.60918L197.689 157.553L198.311 158.336L393.105 3.39179L392.482 2.60918Z" fill="#F2F2F5" style="translate: none; rotate: none; scale: none; transform-origin: 0px 0px;" data-svg-origin="296.5744934082031 79.33485531806946" transform="matrix(1,0,0,1,0,0)"></path>
<path class="path1" d="M5.08701 4.65995C4.1702 5.81255 2.49261 6.00369 1.34001 5.08688C0.187409 4.17007 -0.00373747 2.49248 0.913071 1.33989C1.82988 0.187288 3.50747 -0.00385589 4.66007 0.912955C5.81267 1.82977 6.00381 3.50735 5.08701 4.65995ZM197.482 158.335L2.68878 3.39122L3.31129 2.60861L198.104 157.553L197.482 158.335Z" fill="#F2F2F5" style="translate: none; rotate: none; scale: none; transform-origin: 0px 0px;" data-svg-origin="99.21863389015198 79.33407735824585" transform="matrix(1,0,0,1,0,0)"></path>
<circle class="dot-ani3" opacity="0.06" cx="198.5" cy="157.5" r="45.5" fill="#F7A93B" style="translate: none; rotate: none; scale: none; transform-origin: 0px 0px;" data-svg-origin="198.5 157.5" transform="matrix(1,0,0,1,0,0)"></circle>
<circle class="dot-ani2" opacity="0.09" cx="198.5" cy="157.5" r="29.5" fill="#F7A93B" style="translate: none; rotate: none; scale: none; transform-origin: 0px 0px;" data-svg-origin="198.5 157.5" transform="matrix(1,0,0,1,0,0)"></circle>
<circle class="dot-ani1" cx="198.5" cy="157.5" r="12.5" fill="#F7A93B" style="translate: none; rotate: none; scale: none; transform-origin: 0px 0px;" data-svg-origin="198.5 157.5" transform="matrix(1,0,0,1,0,0)"></circle>
</svg>