<?xml version="1.0" encoding="UTF-8"?>
<svg xmlns="http://www.w3.org/2000/svg" width="37" height="36" viewBox="0 0 37 36" fill="none">
  <path fill-rule="evenodd" clip-rule="evenodd" d="M33.8988 5.76562C33.8988 6.41391 33.6883 7.01367 33.3328 7.50129C35.5443 10.5718 36.7109 14.1892 36.7109 18C36.7109 22.808 34.8386 27.3282 31.4389 30.7279C28.0391 34.1277 23.5189 36 18.7109 36C14.9007 36 11.2827 34.8332 8.21202 32.6216C7.72447 32.9771 7.12477 33.1875 6.47656 33.1875C4.8482 33.1875 3.52344 31.8627 3.52344 30.2344C3.52344 29.5862 3.73388 28.9865 4.08924 28.499C1.87777 25.4282 0.710938 21.8099 0.710938 18C0.710938 14.4091 1.76534 10.9418 3.76025 7.97295C3.97681 7.65063 4.41366 7.56485 4.73598 7.78148C5.05829 7.99805 5.14407 8.4349 4.92751 8.75721C4.33562 9.63802 3.83415 10.5666 3.42549 11.5312H10.3584C10.6584 10.3082 11.7219 9.38264 13.0128 9.28983C13.5035 6.7178 14.2075 4.53537 15.0605 2.95059C15.34 2.43141 15.6232 2.00032 15.9051 1.64215C13.4832 2.05355 11.1873 2.99791 9.15385 4.43313C8.8366 4.65708 8.39785 4.58142 8.17391 4.26417C7.94996 3.94685 8.02562 3.50817 8.34287 3.28423C11.387 1.13569 14.9722 0 18.7109 0C22.5222 0 26.1395 1.16677 29.21 3.37852C29.6976 3.02302 30.2974 2.8125 30.9457 2.8125C32.574 2.8125 33.8988 4.13726 33.8988 5.76562ZM27.016 23.0625H34.514C35.0267 21.4658 35.3047 19.7648 35.3047 18C35.3047 16.2552 35.0393 14.5544 34.5227 12.9376H24.9331C25.0955 14.5603 25.1797 16.2615 25.1797 18C25.1797 18.9969 25.15 19.9922 25.0945 20.9689C26.0423 21.2906 26.7752 22.0806 27.016 23.0625ZM15.3011 30.0084C16.2582 32.8796 17.5329 34.5938 18.7109 34.5938C20.1049 34.5938 21.9493 32.0828 23.019 26.494C22.1603 26.1373 21.5054 25.3867 21.2802 24.4688H14.0696C14.3497 26.519 14.7646 28.399 15.3011 30.0084ZM5.16685 27.5886C5.5618 27.3923 6.00638 27.2812 6.47656 27.2812C8.10493 27.2812 9.42969 28.606 9.42969 30.2344C9.42969 30.7046 9.31866 31.1491 9.12235 31.5442C11.162 32.993 13.4601 33.9445 15.8957 34.3576C15.173 33.4323 14.5241 32.1247 13.967 30.453C13.3875 28.7147 12.944 26.6813 12.6518 24.4688H3.42148C3.88442 25.5599 4.46766 26.6043 5.16685 27.5886ZM13.7293 15.1438C13.6766 16.0833 13.6484 17.0406 13.6484 18C13.6484 19.7439 13.7351 21.4459 13.9017 23.0625H21.2802C21.5613 21.9166 22.5123 21.0311 23.693 20.8477C23.7455 19.9107 23.7734 18.9562 23.7734 18C23.7734 16.2562 23.6868 14.5541 23.5201 12.9375H16.0941C15.8169 14.0678 14.8877 14.944 13.7293 15.1438ZM22.6013 23.7656C22.6013 24.6186 23.2952 25.3125 24.1481 25.3125C25.0011 25.3125 25.695 24.6186 25.695 23.7656C25.695 22.9127 25.0011 22.2188 24.1481 22.2188C23.2952 22.2188 22.6013 22.9127 22.6013 23.7656ZM21.526 1.64229C22.2488 2.5676 22.8977 3.87527 23.4549 5.54695C24.0343 7.28529 24.4778 9.31873 24.77 11.5313H34.0005C33.5377 10.4403 32.9546 9.39572 32.2554 8.41148C31.8604 8.60773 31.4158 8.71875 30.9457 8.71875C29.3173 8.71875 27.9925 7.39399 27.9925 5.76562C27.9925 5.29545 28.1036 4.85086 28.2999 4.45584C26.2602 3.0067 23.962 2.05538 21.526 1.64229ZM30.9457 7.3125C31.7986 7.3125 32.4925 6.61859 32.4925 5.76562C32.4925 4.91266 31.7986 4.21875 30.9457 4.21875C30.0927 4.21875 29.3988 4.91266 29.3988 5.76562C29.3988 6.61859 30.0927 7.3125 30.9457 7.3125ZM22.1208 5.99161C21.1637 3.1204 19.889 1.40625 18.7109 1.40625C17.3142 1.40625 15.4681 3.92316 14.3993 9.52481C15.2364 9.88861 15.8729 10.6291 16.0942 11.5312H23.3523C23.0722 9.48108 22.6572 7.60099 22.1208 5.99161ZM14.7732 12.2344C14.7732 11.3815 14.0792 10.6876 13.2263 10.6876C12.3733 10.6876 11.6794 11.3815 11.6794 12.2344C11.6794 13.0874 12.3733 13.7813 13.2263 13.7813C14.0792 13.7813 14.7732 13.0874 14.7732 12.2344ZM12.3264 15.0469C11.3561 14.7357 10.6032 13.9355 10.3584 12.9376H2.90377C2.38473 14.5605 2.11719 16.2644 2.11719 18C2.11719 19.7445 2.38283 21.4454 2.89955 23.0625H12.4888C12.3264 21.4398 12.2422 19.7386 12.2422 18C12.2422 17.0083 12.2716 16.0185 12.3264 15.0469ZM6.47656 28.6875C5.6236 28.6875 4.92969 29.3814 4.92969 30.2344C4.92969 31.0873 5.6236 31.7812 6.47656 31.7812C7.32952 31.7812 8.02344 31.0873 8.02344 30.2344C8.02344 29.3814 7.32952 28.6875 6.47656 28.6875ZM22.3563 33.059C22.0792 33.5725 21.7984 33.9995 21.519 34.355C27.1477 33.3915 31.818 29.5841 33.9917 24.4688H27.016C26.7199 25.6765 25.6791 26.5944 24.4099 26.7065C23.9181 29.2854 23.2119 31.4729 22.3563 33.059ZM6.83766 6.40727C6.70617 6.53875 6.52554 6.61328 6.33984 6.61328C6.15492 6.61328 5.97352 6.53875 5.8428 6.40727C5.71195 6.27648 5.63672 6.09508 5.63672 5.91016C5.63672 5.72523 5.71202 5.54453 5.8428 5.41305C5.97352 5.28227 6.15492 5.20703 6.33984 5.20703C6.52554 5.20703 6.70617 5.28227 6.83766 5.41305C6.96844 5.54453 7.04297 5.72523 7.04297 5.91016C7.04297 6.09508 6.96844 6.27648 6.83766 6.40727Z" fill="url(#paint0_linear_6665_69972)"></path>
  <defs>
    <linearGradient id="paint0_linear_6665_69972" x1="-10.9174" y1="11.6283" x2="12.3393" y2="47.6283" gradientUnits="userSpaceOnUse">
      <stop stop-color="#00CFDE"></stop>
      <stop offset="1" stop-color="#05A660"></stop>
    </linearGradient>
  </defs>
</svg>
