<svg width="57" height="63" viewBox="0 0 57 63" fill="none" xmlns="http://www.w3.org/2000/svg">
<path d="M44.1213 44.4465C40.9424 46.9896 36.492 48.8969 32.0416 48.8969C21.8692 48.8969 14.8757 41.2676 14.8757 31.0953C14.8757 20.9229 21.8692 13.9294 32.0416 13.9294C36.492 13.9294 40.9424 15.2009 44.1213 18.3798L46.0286 20.2871L56.201 10.7505L53.6579 8.84317C47.9359 3.75698 40.3067 0.578125 32.0416 0.578125C14.2399 0.578125 0.888672 13.9294 0.888672 31.731C0.888672 49.5327 14.2399 62.884 32.0416 62.884C40.3067 62.884 47.9359 59.7051 53.6579 54.6189L56.201 52.7116L46.0286 42.5392L44.1213 44.4465Z" fill="#17313B"/>
<path d="M31.4068 41.9034C37.0248 41.9034 41.5792 37.349 41.5792 31.731C41.5792 26.1129 37.0248 21.5586 31.4068 21.5586C25.7887 21.5586 21.2344 26.1129 21.2344 31.731C21.2344 37.349 25.7887 41.9034 31.4068 41.9034Z" fill="#EF4335"/>
</svg>
