<?xml version="1.0" encoding="UTF-8"?>
<svg xmlns="http://www.w3.org/2000/svg" width="71" height="57" viewBox="0 0 71 57" fill="none">
  <path d="M25.7975 10V3.07004H23.4545V2.19004H29.1085V3.07004H26.7545V10H25.7975ZM33.5117 10.066C31.1687 10.066 29.5847 8.35004 29.5847 6.09504C29.5847 3.84004 31.1687 2.11304 33.5117 2.11304C35.7117 2.11304 37.4057 3.70804 37.4057 6.09504C37.4057 8.47104 35.7117 10.066 33.5117 10.066ZM33.5117 9.15304C35.1287 9.15304 36.4047 7.88804 36.4047 6.09504C36.4047 4.28004 35.1287 3.02604 33.5117 3.02604C31.7627 3.02604 30.5747 4.40104 30.5747 6.09504C30.5747 7.78904 31.7627 9.15304 33.5117 9.15304ZM39.0458 10V2.19004H41.7848C43.6108 2.19004 44.3698 3.22404 44.3698 4.61004C44.3698 6.26004 43.2478 7.01904 41.6198 7.01904H40.0028V10H39.0458ZM40.0028 6.13904H41.5318C42.8408 6.13904 43.3688 5.47904 43.3688 4.58804C43.3688 3.59804 42.7308 3.07004 41.6858 3.07004H40.0028V6.13904ZM7.11308 35.153H10.4681V36H5.71608L5.70508 35.362L8.29008 32.722C8.92808 32.062 9.44508 31.446 9.44508 30.698C9.44508 29.862 8.86208 29.246 8.02608 29.246C7.31108 29.246 6.75008 29.598 6.39808 30.28L5.71608 29.807C6.13408 28.982 6.89308 28.377 8.08108 28.377C9.28008 28.377 10.3691 29.202 10.3691 30.599C10.3691 31.457 10.0171 32.194 9.08208 33.14L7.11308 35.131V35.153ZM14.4664 36.066C12.8274 36.066 11.6284 34.691 11.6284 32.227C11.6284 29.994 12.6624 28.377 14.4664 28.377C16.1054 28.377 17.3044 29.752 17.3044 32.227C17.3044 34.46 16.2704 36.066 14.4664 36.066ZM14.4664 35.208C15.6764 35.208 16.3694 34.031 16.3694 32.227C16.3694 30.291 15.5884 29.235 14.4664 29.235C13.2674 29.235 12.5634 30.412 12.5634 32.227C12.5634 34.141 13.3554 35.208 14.4664 35.208ZM20.0552 36V29.565L18.5482 30.698L18.0862 30.005L20.2092 28.443H20.9792V36H20.0552ZM25.1152 28.377C26.6002 28.377 27.7662 29.554 27.7662 31.347C27.7552 34.097 25.7862 35.901 23.8172 36.264L23.5532 35.472C24.9062 35.131 26.2482 34.24 26.6992 32.568L26.6772 32.557C26.2042 32.975 25.5332 33.228 24.7962 33.228C23.4982 33.228 22.4972 32.326 22.4972 30.852C22.4972 29.444 23.6192 28.377 25.1152 28.377ZM24.9942 32.37C25.7642 32.37 26.4792 31.952 26.8642 31.325V31.27C26.8642 30.038 26.1272 29.235 25.1262 29.235C24.1032 29.235 23.4322 29.983 23.4322 30.852C23.4322 31.754 24.0592 32.37 24.9942 32.37ZM37.2206 36L36.5936 35.252C36.0656 35.769 35.3726 36.066 34.4266 36.066C33.0406 36.066 31.9406 35.153 31.9406 33.767C31.9406 32.777 32.5566 31.93 33.4256 31.457L32.4796 30.324C32.5896 29.037 33.5136 28.113 34.8006 28.113C36.0546 28.113 36.7696 28.883 37.0776 29.587L36.3076 29.884C36.0766 29.378 35.6476 28.938 34.8666 28.927C33.9646 28.927 33.5026 29.488 33.4256 30.181L36.6046 33.976C36.8906 33.481 37.0226 32.898 37.0226 32.381L37.8916 32.359C37.8916 33.107 37.6936 33.987 37.1986 34.691L38.2986 36H37.2206ZM32.8756 33.723C32.8756 34.581 33.5356 35.208 34.5146 35.208C35.1746 35.208 35.6916 34.988 36.0766 34.636V34.625L33.9756 32.106C33.2826 32.436 32.8756 33.074 32.8756 33.723ZM43.4754 35.153H46.8304V36H42.0784L42.0674 35.362L44.6524 32.722C45.2904 32.062 45.8074 31.446 45.8074 30.698C45.8074 29.862 45.2244 29.246 44.3884 29.246C43.6734 29.246 43.1124 29.598 42.7604 30.28L42.0784 29.807C42.4964 28.982 43.2554 28.377 44.4434 28.377C45.6424 28.377 46.7314 29.202 46.7314 30.599C46.7314 31.457 46.3794 32.194 45.4444 33.14L43.4754 35.131V35.153ZM50.8287 36.066C49.1897 36.066 47.9907 34.691 47.9907 32.227C47.9907 29.994 49.0247 28.377 50.8287 28.377C52.4677 28.377 53.6667 29.752 53.6667 32.227C53.6667 34.46 52.6327 36.066 50.8287 36.066ZM50.8287 35.208C52.0387 35.208 52.7317 34.031 52.7317 32.227C52.7317 30.291 51.9507 29.235 50.8287 29.235C49.6297 29.235 48.9257 30.412 48.9257 32.227C48.9257 34.141 49.7177 35.208 50.8287 35.208ZM56.0867 35.153H59.4417V36H54.6897L54.6787 35.362L57.2637 32.722C57.9017 32.062 58.4187 31.446 58.4187 30.698C58.4187 29.862 57.8357 29.246 56.9997 29.246C56.2847 29.246 55.7237 29.598 55.3717 30.28L54.6897 29.807C55.1077 28.982 55.8667 28.377 57.0547 28.377C58.2537 28.377 59.3427 29.202 59.3427 30.599C59.3427 31.457 58.9907 32.194 58.0557 33.14L56.0867 35.131V35.153ZM61.823 35.153H65.178V36H60.426L60.415 35.362L63 32.722C63.638 32.062 64.155 31.446 64.155 30.698C64.155 29.862 63.572 29.246 62.736 29.246C62.021 29.246 61.46 29.598 61.108 30.28L60.426 29.807C60.844 28.982 61.603 28.377 62.791 28.377C63.99 28.377 65.079 29.202 65.079 30.599C65.079 31.457 64.727 32.194 63.792 33.14L61.823 35.131V35.153Z" fill="black"></path>
  <path d="M0.898438 23.0001V15.1901H3.48344C5.95844 15.1901 7.54244 16.7961 7.54244 19.1061C7.54244 21.4051 6.02444 23.0001 3.51644 23.0001H0.898438ZM2.42744 21.6251H3.41744C4.93544 21.6251 5.93644 20.5361 5.93644 19.1061C5.93644 17.6431 4.92444 16.5761 3.51644 16.5761H2.42744V21.6251ZM8.9336 23.0001V15.1901H13.9276V16.5761H10.4516V18.4461H13.2346V19.8101H10.4516V21.6251H14.1586V23.0001H8.9336ZM20.4133 15.1901H22.0743L19.1813 23.0001H17.8173L14.9133 15.1901H16.5963L18.4883 20.8001H18.5103L20.4133 15.1901ZM23.1455 23.0001V15.1901H28.1395V16.5761H24.6635V18.4461H27.4465V19.8101H24.6635V21.6251H28.3705V23.0001H23.1455ZM29.7412 23.0001V15.1901H31.2922V21.6251H34.7682V23.0001H29.7412ZM39.3661 23.0881C37.0011 23.0881 35.3841 21.4051 35.3841 19.0951C35.3841 16.7741 37.0011 15.0911 39.3661 15.0911C41.6651 15.0911 43.3371 16.7081 43.3371 19.0951C43.3371 21.4821 41.6651 23.0881 39.3661 23.0881ZM39.3771 21.6471C40.7191 21.6471 41.7311 20.5581 41.7311 19.0951C41.7311 17.6211 40.7191 16.5431 39.3771 16.5431C37.9691 16.5431 36.9901 17.6761 36.9901 19.0951C36.9901 20.5141 37.9691 21.6471 39.3771 21.6471ZM44.7373 23.0001V15.1901H47.6303C49.5223 15.1901 50.3473 16.2901 50.3473 17.7861C50.3473 19.5021 49.2033 20.3271 47.4873 20.3271H46.2663V23.0001H44.7373ZM46.2663 18.9521H47.2893C48.2573 18.9521 48.7413 18.4791 48.7413 17.7531C48.7413 17.0381 48.2573 16.5651 47.3553 16.5651H46.2663V18.9521ZM51.6016 23.0001V15.1901H56.5956V16.5761H53.1196V18.4461H55.9026V19.8101H53.1196V21.6251H56.8266V23.0001H51.6016ZM64.2033 23.0001H62.3773L60.6283 20.3271H59.7263V23.0001H58.1973V15.1901H61.1563C63.0373 15.1901 63.8733 16.2901 63.8733 17.7861C63.8733 19.0401 63.2683 19.8101 62.2673 20.1401L64.2033 23.0001ZM59.7263 16.5651V18.9631H60.8043C61.7613 18.9631 62.2783 18.4791 62.2783 17.7531C62.2783 17.0381 61.7723 16.5651 60.8703 16.5651H59.7263ZM67.7485 23.0881C66.7365 23.0881 65.7135 22.7031 64.8995 21.8561L65.8235 20.7121C66.4065 21.3941 67.1545 21.6911 67.7705 21.6911C68.5185 21.6911 68.8925 21.3501 68.8925 20.8661C68.8925 20.2941 68.4745 20.0851 67.5285 19.7661C66.3515 19.3481 65.1745 18.7981 65.1745 17.3241C65.1745 16.0701 66.2745 15.1131 67.6825 15.0911C68.6505 15.0801 69.5525 15.4431 70.3115 16.0811L69.4205 17.2471C68.7715 16.7081 68.1995 16.4771 67.7155 16.4771C67.1765 16.4771 66.7805 16.7631 66.7805 17.2581C66.7695 17.7421 67.1985 17.9511 68.0895 18.3031C69.4425 18.8311 70.5095 19.1831 70.5095 20.6901C70.5095 22.3951 69.0245 23.0881 67.7485 23.0881Z" fill="black"></path>
  <path d="M26.4209 44H24.2598V56.6467H26.4209V44Z" fill="black"></path>
  <path d="M33.9266 56.6468H36.0878V48.0796H33.9266V52.6041H33.9656C33.9656 54.4958 32.2369 54.6806 31.7655 54.6806C30.5081 54.6806 30.2334 53.5307 30.2334 52.8265V48.0796H28.0723V52.9009C28.0723 54.0877 28.5047 55.0519 29.1329 55.7569C29.7222 56.3131 30.665 56.6468 31.7265 56.6468C32.4734 56.6468 33.4552 56.4611 33.9266 55.9418V56.6468Z" fill="black"></path>
  <path d="M38.1695 56.6466H40.3307V50.1192H41.9026V48.0794H40.3307V45.0386H38.1695V48.0794H36.5586V50.1192H38.1695V56.6466Z" fill="black"></path>
  <path d="M46.9327 56.61C48.151 56.61 49.2905 56.2019 50.1545 55.46L50.469 55.1632L48.976 53.754L48.6614 54.1245C48.19 54.5326 47.6008 54.755 46.9327 54.755C45.4396 54.755 44.3391 53.754 44.3391 52.2703C44.3391 50.7867 45.3998 49.8225 46.9327 49.8225C47.6008 49.8225 48.19 50.0081 48.6614 50.453L48.976 50.7123L50.3902 49.3775L50.0756 49.0807C49.1718 48.3756 48.1112 47.9307 46.9318 47.9307C44.2602 47.8939 42.2949 49.7112 42.2949 52.2695C42.2958 54.6814 44.3001 56.61 46.9327 56.61Z" fill="black"></path>
  <path d="M53.6522 51.8623C53.6522 49.9706 55.1453 49.7858 55.6167 49.7858C56.874 49.7858 56.874 50.9357 56.874 51.6399V56.6469H59.0352V51.6031C59.0742 50.4908 58.7995 49.4889 58.0924 48.8215C57.5031 48.2654 56.7172 47.9317 55.7345 47.9317C54.9875 47.9317 54.2025 48.1173 53.6123 48.6367V44.001H51.4512V56.6477H53.6123V51.8632L53.6522 51.8623Z" fill="black"></path>
  <path d="M45.2812 52.2702C45.2812 53.0865 45.9885 53.7162 46.8134 53.7162C47.6782 53.7162 48.3455 53.0488 48.3455 52.2702C48.3455 51.454 47.6384 50.8242 46.8134 50.8242C45.9885 50.8242 45.2812 51.4548 45.2812 52.2702Z" fill="#E52421"></path>
  <path d="M18.1689 56.61C19.8977 56.61 21.5485 55.9795 22.6481 54.8295L22.9627 54.5327L21.5485 53.1235L21.2738 53.494C20.4878 54.2358 19.3093 54.6807 18.1698 54.6807C15.7339 54.6807 14.0043 52.9002 14.0043 50.4899C14.0043 48.042 15.7331 46.2991 18.1299 46.2991C19.2695 46.2991 20.3301 46.7441 21.2339 47.4859L21.5485 47.7828L22.9627 46.448L22.6481 46.1511C21.4696 44.9644 19.8578 44.3706 18.1689 44.3706C14.6326 44.4074 12 47.0042 12 50.4899C12 53.9757 14.6326 56.61 18.1689 56.61Z" fill="black"></path>
</svg>
