<?xml version="1.0" encoding="UTF-8"?>
<svg xmlns="http://www.w3.org/2000/svg" width="32" height="33" viewBox="0 0 32 33" fill="none">
  <path fill-rule="evenodd" clip-rule="evenodd" d="M27.4425 32.1923H4.97941C2.62461 32.1923 0.710938 30.2786 0.710938 27.9238V6.65304C0.710938 4.29824 2.62461 2.38457 4.97941 2.38457H6.67246V1.19228C6.67246 0.536508 7.20897 0 7.86475 0C8.52052 0 9.05713 0.536508 9.05713 1.19228V2.38457H23.3647V1.19228C23.3647 0.536508 23.9013 0 24.557 0C25.2128 0 25.7494 0.536508 25.7494 1.19228V2.38457H27.4425C29.7973 2.38457 31.7109 4.29824 31.7109 6.65304V27.9238C31.7109 30.2786 29.7973 32.1923 27.4425 32.1923ZM4.97941 4.76924C3.94213 4.76924 3.09561 5.61576 3.09561 6.65304V27.9238C3.09561 28.9611 3.94213 29.8076 4.97941 29.8076H27.4424C28.4796 29.8076 29.3262 28.9611 29.3262 27.9238V6.65304C29.3262 5.61576 28.4796 4.76924 27.4424 4.76924H25.7493V5.96152C25.7493 6.6173 25.2128 7.15381 24.557 7.15381C23.9013 7.15381 23.3647 6.6173 23.3647 5.96152V4.76924H9.05703V5.96152C9.05703 6.6173 8.52052 7.15381 7.86475 7.15381C7.20897 7.15381 6.67246 6.6173 6.67246 5.96152V4.76924H4.97941ZM10.8459 12.2208C10.8459 13.0439 10.1787 13.7112 9.35559 13.7112C8.53249 13.7112 7.86523 13.0439 7.86523 12.2208C7.86523 11.3977 8.53249 10.7305 9.35559 10.7305C10.1787 10.7305 10.8459 11.3977 10.8459 12.2208ZM15.9122 13.7112C16.7353 13.7112 17.4026 13.0439 17.4026 12.2208C17.4026 11.3977 16.7353 10.7305 15.9122 10.7305C15.0891 10.7305 14.4219 11.3977 14.4219 12.2208C14.4219 13.0439 15.0891 13.7112 15.9122 13.7112ZM23.9612 12.2208C23.9612 13.0439 23.2939 13.7112 22.4708 13.7112C21.6477 13.7112 20.9805 13.0439 20.9805 12.2208C20.9805 11.3977 21.6477 10.7305 22.4708 10.7305C23.2939 10.7305 23.9612 11.3977 23.9612 12.2208ZM9.35559 19.6721C10.1787 19.6721 10.8459 19.0049 10.8459 18.1818C10.8459 17.3587 10.1787 16.6914 9.35559 16.6914C8.53249 16.6914 7.86523 17.3587 7.86523 18.1818C7.86523 19.0049 8.53249 19.6721 9.35559 19.6721ZM17.4026 18.1818C17.4026 19.0049 16.7353 19.6721 15.9122 19.6721C15.0891 19.6721 14.4219 19.0049 14.4219 18.1818C14.4219 17.3587 15.0891 16.6914 15.9122 16.6914C16.7353 16.6914 17.4026 17.3587 17.4026 18.1818ZM22.4708 19.6721C23.2939 19.6721 23.9612 19.0049 23.9612 18.1818C23.9612 17.3587 23.2939 16.6914 22.4708 16.6914C21.6477 16.6914 20.9805 17.3587 20.9805 18.1818C20.9805 19.0049 21.6477 19.6721 22.4708 19.6721ZM10.8459 24.1447C10.8459 24.9678 10.1787 25.635 9.35559 25.635C8.53249 25.635 7.86523 24.9678 7.86523 24.1447C7.86523 23.3216 8.53249 22.6543 9.35559 22.6543C10.1787 22.6543 10.8459 23.3216 10.8459 24.1447ZM15.9122 25.635C16.7353 25.635 17.4026 24.9678 17.4026 24.1447C17.4026 23.3216 16.7353 22.6543 15.9122 22.6543C15.0891 22.6543 14.4219 23.3216 14.4219 24.1447C14.4219 24.9678 15.0891 25.635 15.9122 25.635ZM23.9612 24.1447C23.9612 24.9678 23.2939 25.635 22.4708 25.635C21.6477 25.635 20.9805 24.9678 20.9805 24.1447C20.9805 23.3216 21.6477 22.6543 22.4708 22.6543C23.2939 22.6543 23.9612 23.3216 23.9612 24.1447Z" fill="url(#paint0_linear_6665_69955)"></path>
  <defs>
    <linearGradient id="paint0_linear_6665_69955" x1="-9.30234" y1="11.0605" x2="13.1059" y2="42.4631" gradientUnits="userSpaceOnUse">
      <stop stop-color="#AC5DD9"></stop>
      <stop offset="1" stop-color="#004FC4"></stop>
    </linearGradient>
  </defs>
</svg>
