<?xml version="1.0" encoding="UTF-8"?>
<svg xmlns="http://www.w3.org/2000/svg" width="40" height="39" viewBox="0 0 40 39" fill="none">
  <path fill-rule="evenodd" clip-rule="evenodd" d="M17.0638 35.935C15.6829 35.687 14.3582 35.2648 13.1021 34.676C13.0992 34.6745 13.0964 34.6729 13.0936 34.6714C13.0908 34.6698 13.0879 34.6681 13.0851 34.6665L13.0851 34.6665C13.0764 34.6615 13.0678 34.6566 13.0583 34.6523C12.7623 34.5129 12.4668 34.3637 12.1804 34.2078C12.18 34.2072 12.1793 34.2068 12.1787 34.2064L12.176 34.2052C11.6505 33.9158 11.1376 33.5956 10.6393 33.2448C3.37364 28.1267 1.62667 18.0516 6.74516 10.786C7.85816 9.20665 9.20505 7.88908 10.7066 6.8448L10.7193 6.836L10.762 6.80614C16.0533 3.16025 23.2382 2.91454 28.8567 6.66103L27.65 8.40461C27.3145 8.88991 27.5209 9.24357 28.1082 9.19071L33.35 8.72143C33.9381 8.66857 34.2897 8.15989 34.1316 7.592L32.724 2.52042C32.5664 1.95186 32.1629 1.88381 31.8271 2.36903L30.6176 4.11674C26.4943 1.34887 21.5488 0.293436 16.6402 1.14462C16.1458 1.23018 15.6584 1.33491 15.1776 1.45681L15.1741 1.45741L15.168 1.45855C15.1559 1.46148 15.1438 1.46504 15.1319 1.46855L15.1125 1.47416C10.8797 2.56114 7.18661 5.02986 4.55138 8.5522L4.53739 8.56868L4.53738 8.56869C4.51968 8.58945 4.5019 8.61031 4.48531 8.63297C4.39768 8.751 4.31071 8.87174 4.22556 8.99249C4.08632 9.19038 3.94905 9.39322 3.81773 9.59607C3.80651 9.61276 3.79709 9.62965 3.78767 9.64655L3.78767 9.64656C3.78329 9.6544 3.77892 9.66224 3.77437 9.67007C1.59975 13.0399 0.550845 16.9357 0.730728 20.9019C0.730942 20.9086 0.730846 20.9154 0.730749 20.9222C0.730659 20.9286 0.730569 20.935 0.730728 20.9414C0.748155 21.3289 0.778879 21.7217 0.820587 22.1083C0.822133 22.1256 0.825269 22.1423 0.82845 22.1592L0.832563 22.1819C0.875675 22.5707 0.929772 22.9604 0.997579 23.3501C1.68672 27.3259 3.56219 30.9035 6.37252 33.6872C6.37685 33.6915 6.38129 33.6961 6.38572 33.7007C6.38796 33.703 6.3902 33.7053 6.39242 33.7076C6.39295 33.7082 6.39349 33.7087 6.39404 33.7092C6.39452 33.7096 6.39501 33.71 6.39549 33.7104C6.39644 33.7111 6.39738 33.7118 6.39829 33.7127C6.39871 33.713 6.39912 33.7134 6.39952 33.7139C7.15457 34.4586 7.97585 35.1474 8.86015 35.7702C11.1744 37.4009 13.7513 38.4788 16.5187 38.9754C17.3584 39.1263 18.1606 38.5673 18.3112 37.728C18.4618 36.8882 17.9033 36.0854 17.0638 35.935ZM35.7993 15.7854C35.5384 15.6015 35.3318 15.3353 35.2236 15.0092C35.1211 14.6991 35.0076 14.3882 34.8863 14.0853C34.5693 13.293 34.9551 12.3943 35.7467 12.0776C36.5392 11.7608 37.4376 12.1464 37.7544 12.9385C37.8987 13.2989 38.0341 13.6691 38.1562 14.0381C38.4241 14.8476 37.9853 15.7209 37.1754 15.9898C36.6924 16.1495 36.1862 16.0579 35.7993 15.7854ZM22.8413 35.9203C23.162 35.8612 23.485 35.7911 23.8018 35.7122C24.6299 35.506 25.4676 36.0098 25.6736 36.8378C25.8801 37.665 25.3759 38.5035 24.5482 38.7095C24.1706 38.8037 23.7858 38.887 23.404 38.9579C22.9787 39.037 22.5613 38.9328 22.2333 38.702C21.9151 38.4776 21.6807 38.1338 21.6041 37.7211C21.4491 36.8822 22.0032 36.0761 22.8413 35.9203ZM28.8209 33.5081C28.5484 33.688 28.2672 33.8621 27.9839 34.0252C27.2448 34.4516 26.9917 35.3963 27.4179 36.1351C27.5336 36.336 27.6877 36.5003 27.8652 36.6259C28.3416 36.9611 28.9887 37.0113 29.5275 36.7009C29.8643 36.5067 30.1992 36.3 30.5237 36.0855C31.2351 35.6154 31.431 34.6571 30.9607 33.9454C30.4905 33.2333 29.5326 33.0378 28.8209 33.5081ZM37.5147 17.841C38.3675 17.8078 39.0855 18.4713 39.1191 19.3238C39.1345 19.7125 39.1377 20.1065 39.1292 20.4954C39.1103 21.3484 38.4038 22.0245 37.5513 22.0056C37.2328 21.9983 36.939 21.8952 36.6969 21.7247C36.2906 21.4383 36.0291 20.9617 36.041 20.4271C36.0486 20.1016 36.0453 19.7709 36.0325 19.4451C35.999 18.593 36.663 17.8747 37.5147 17.841ZM34.9731 29.4443C34.2895 28.9314 33.3224 29.0706 32.8104 29.753C32.6143 30.0143 32.4078 30.2724 32.1964 30.5209C31.6439 31.1701 31.7219 32.1452 32.3711 32.6981C32.4081 32.7295 32.4455 32.7583 32.4843 32.7854C33.1297 33.2404 34.0266 33.1358 34.5484 32.5235C34.8009 32.227 35.047 31.9187 35.2813 31.6066C35.7934 30.9242 35.6548 29.9564 34.9731 29.4443ZM35.3069 24.872C35.562 24.0581 36.4288 23.605 37.2427 23.8602C38.0565 24.1154 38.5092 24.982 38.2545 25.7961C38.1381 26.1657 38.0094 26.5375 37.8707 26.9013C37.567 27.6985 36.6746 28.0984 35.8777 27.7943C35.754 27.7475 35.6402 27.686 35.5369 27.6134C34.9736 27.2162 34.7279 26.475 34.9843 25.8014C35.1011 25.4954 35.2093 25.183 35.3069 24.872ZM17.7227 8.83953C17.7227 8.14981 18.2821 7.58984 18.9728 7.58984C19.6627 7.58984 20.2215 8.14981 20.2216 8.83953V19.768L30.257 24.9562C30.8703 25.273 31.11 26.0265 30.7932 26.6398C30.5712 27.0695 30.1343 27.3158 29.6821 27.3158C29.489 27.3158 29.2927 27.2711 29.1095 27.1762L17.7227 21.2899V8.83953Z" fill="url(#paint0_linear_6665_69998)"></path>
  <defs>
    <linearGradient id="paint0_linear_6665_69998" x1="0.710937" y1="19.9287" x2="39.1338" y2="19.9287" gradientUnits="userSpaceOnUse">
      <stop stop-color="#FF6900"></stop>
      <stop offset="1" stop-color="#E63535"></stop>
    </linearGradient>
  </defs>
</svg>
