<?xml version="1.0" encoding="UTF-8"?>
<svg xmlns="http://www.w3.org/2000/svg" width="50" height="50" viewBox="0 0 50 50" fill="none">
  <g clip-path="url(#clip0_10302_19906)">
    <path d="M26.5487 7.91031C27.5158 6.70691 28.043 5.20942 28.0432 3.6656V0H14.2721V3.6656C14.2723 5.20942 14.7995 6.70693 15.7666 7.91031H26.5487ZM26.4605 41.5699C26.4605 35.306 31.5564 30.2099 37.8203 30.2099C37.9152 30.2099 38.0098 30.2111 38.1041 30.2135C36.0151 22.816 31.5016 15.4183 26.6162 10.8401H15.7011C10.752 15.4817 6.17832 23.0142 4.12623 30.5111C2.30109 37.1792 7.34777 43.7509 14.2611 43.7509H26.6713C26.531 43.0323 26.4604 42.3019 26.4605 41.5699ZM22.8754 35.7388H19.9457V33.7733C17.8414 33.4678 16.2197 31.6526 16.2197 29.4649H19.1495C19.1495 30.2504 19.7884 30.8895 20.574 30.8895H22.2185C23.0326 30.8895 23.6952 30.2271 23.6952 29.4129C23.6952 28.5987 23.0327 27.9362 22.2185 27.9362H20.6027C18.1731 27.9362 16.1964 25.9595 16.1964 23.5298C16.1964 21.3234 17.8266 19.4908 19.9458 19.1726V17.2039H22.8755V19.1786C24.9776 19.5125 26.5897 21.3371 26.5897 23.5316H23.6599C23.6599 22.7164 22.9967 22.0532 22.1815 22.0532H20.6027C19.7885 22.0532 19.1261 22.7156 19.1261 23.5298C19.1261 24.3439 19.7885 25.0064 20.6027 25.0064H22.2185C24.6481 25.0064 26.6249 26.9831 26.6249 29.4128C26.6249 31.6192 24.9947 33.4518 22.8755 33.77V35.7388H22.8754Z" fill="url(#paint0_linear_10302_19906)"></path>
    <path d="M29.3906 41.5699C29.3906 46.2183 33.1724 50 37.8208 50C42.4692 50 46.251 46.2182 46.251 41.5699C46.251 36.9215 42.4692 33.1396 37.8208 33.1396C33.1723 33.1396 29.3906 36.9215 29.3906 41.5699ZM42.7091 38.7532L39.8924 41.57L42.7091 44.3867L40.6375 46.4584L37.8208 43.6416L35.004 46.4584L32.9324 44.3867L35.7491 41.57L32.9324 38.7532L35.004 36.6816L37.8208 39.4984L40.6375 36.6816L42.7091 38.7532Z" fill="url(#paint1_linear_10302_19906)"></path>
  </g>
  <defs>
    <linearGradient id="paint0_linear_10302_19906" x1="-7.34669" y1="15.0317" x2="24.5733" y2="51.5074" gradientUnits="userSpaceOnUse">
      <stop stop-color="#AC5DD9"></stop>
      <stop offset="1" stop-color="#004FC4"></stop>
    </linearGradient>
    <linearGradient id="paint1_linear_10302_19906" x1="23.9446" y1="38.9325" x2="35.5302" y2="55.7929" gradientUnits="userSpaceOnUse">
      <stop stop-color="#AC5DD9"></stop>
      <stop offset="1" stop-color="#004FC4"></stop>
    </linearGradient>
    <clipPath id="clip0_10302_19906">
      <rect width="50" height="50" fill="white"></rect>
    </clipPath>
  </defs>
</svg>
