<?xml version="1.0" encoding="UTF-8"?>
<svg xmlns="http://www.w3.org/2000/svg" width="62" height="48" viewBox="0 0 62 48" fill="none">
  <g clip-path="url(#clip0_4585_33092)">
    <path d="M46.4394 23C42.4394 16.59 38.4395 10.19 34.5395 3.75004C34.0952 3.08995 33.9199 2.28508 34.0494 1.50004C34.1694 1.12004 35.3694 0.940037 36.0494 0.930037C39.0494 0.860037 42.0494 0.930037 45.0494 0.930037C45.9307 0.88775 46.8064 1.09176 47.5783 1.5192C48.3501 1.94663 48.9877 2.5806 49.4194 3.35004C53.1728 9.47004 56.9328 15.5867 60.6994 21.7C61.22 22.4466 61.499 23.3349 61.499 24.245C61.499 25.1552 61.22 26.0434 60.6994 26.79C58.5694 30.15 56.4695 33.51 54.3595 36.88L51.9095 31.88L49.4194 27.88L46.4394 23Z" fill="#199F59"></path>
    <path d="M15.999 24.84C19.999 31.41 23.999 38 27.999 44.55C28.359 45.16 28.769 46.25 28.489 46.61C27.9107 47.1521 27.1413 47.4433 26.349 47.42C23.409 47.51 20.459 47.42 17.519 47.42C16.6375 47.4759 15.7582 47.2822 14.9817 46.8613C14.2053 46.4403 13.5632 45.8091 13.129 45.04C9.29564 38.88 5.47564 32.7 1.66898 26.5C1.23148 25.8811 0.985852 25.1471 0.962734 24.3896C0.939616 23.632 1.14003 22.8844 1.53898 22.24C3.68898 18.72 5.91898 15.24 8.11898 11.76C8.92565 13.3267 9.74231 14.8967 10.569 16.47L13.089 20.47L15.999 24.84Z" fill="#577EBF"></path>
    <path d="M46.4409 23L49.4409 27.81C48.435 28.5771 47.4859 29.416 46.6009 30.32C46.4229 30.5771 46.3123 30.8748 46.2791 31.1858C46.2459 31.4968 46.2912 31.8111 46.4109 32.1C47.3442 32.9559 48.3477 33.732 49.4109 34.42C49.8409 34.84 50.2709 35.28 50.7209 35.69C51.6409 36.55 52.5709 37.4 53.5109 38.26C52.1109 40.67 50.7909 43.12 49.3009 45.46C48.8754 46.122 48.2793 46.657 47.5754 47.009C46.8715 47.3609 46.0858 47.5167 45.3009 47.46C42.3009 47.46 39.2109 47.46 36.1709 47.39C35.4609 47.39 34.4409 47.18 34.1709 46.7C33.9009 46.22 34.2209 45.24 34.5809 44.65C38.0009 39 41.4609 33.26 45.0009 27.63C45.9367 26.2671 46.4386 24.6532 46.4409 23Z" fill="#F7C542"></path>
    <path d="M16.0003 24.84L13.1103 20.44C13.4903 20.19 13.8903 19.96 14.2603 19.7C16.1803 18.36 16.7003 16.43 15.3503 14.89C14.4699 14.0622 13.5084 13.3252 12.4803 12.69L9.32031 9.79003C10.6503 7.52003 11.9203 5.21003 13.3203 2.99003C13.7455 2.30472 14.3485 1.74752 15.0652 1.37772C15.7819 1.00793 16.5854 0.839384 17.3903 0.89003C20.5903 0.89003 23.7903 0.89003 27.0003 0.89003C28.7103 0.89003 29.2103 1.78003 28.3103 3.27003C24.9003 8.86003 21.4203 14.42 18.0703 20.06C17.275 21.6057 16.5835 23.2025 16.0003 24.84Z" fill="#D54038"></path>
    <path d="M9.29719 9.79004L12.4572 12.69C12.1272 14.1 11.9572 15.59 10.5672 16.47C9.74719 14.8967 8.93052 13.3267 8.11719 11.76L9.29719 9.79004Z" fill="#BE3E37"></path>
    <path d="M53.4906 38.26C52.5506 37.4 51.6206 36.55 50.7006 35.69C50.2506 35.28 49.8206 34.84 49.3906 34.42L51.9306 31.83L54.3806 36.83L53.4906 38.26Z" fill="#E0B33D"></path>
    <path d="M51.9285 31.8301L49.3885 34.4201C48.3253 33.7321 47.3218 32.956 46.3885 32.1001C46.2688 31.8111 46.2235 31.4968 46.2567 31.1858C46.2899 30.8749 46.4005 30.5772 46.5785 30.3201C47.4634 29.416 48.4126 28.5772 49.4185 27.8101L51.9285 31.8301Z" fill="#EBBC3F"></path>
    <path d="M10.5703 16.47C11.9603 15.59 12.1303 14.1 12.4603 12.69C13.4884 13.3251 14.4499 14.0622 15.3303 14.89C16.6803 16.43 16.1603 18.36 14.2403 19.7C13.8703 19.96 13.4703 20.19 13.0903 20.44L10.5703 16.47Z" fill="#C93E36"></path>
  </g>
  <defs>
    <clipPath id="clip0_4585_33092">
      <rect width="62" height="48" fill="white"></rect>
    </clipPath>
  </defs>
</svg>
