<?xml version="1.0" encoding="UTF-8"?>
<svg xmlns="http://www.w3.org/2000/svg" width="106" height="19" viewBox="0 0 106 19" fill="none">
  <rect x="0.823349" y="0.111084" width="104.271" height="18" fill="#272727"></rect>
  <rect x="0.823349" y="0.111084" width="38" height="18" fill="#6BC43B"></rect>
  <path d="M5.21483 13.1112V6.01115H7.47483C9.72483 6.01115 11.1648 7.47115 11.1648 9.57115C11.1648 11.6612 9.78483 13.1112 7.50483 13.1112H5.21483ZM6.42483 12.0312H7.43483C8.93483 12.0312 9.91483 10.9812 9.91483 9.57115C9.91483 8.13115 8.92483 7.09115 7.49483 7.09115H6.42483V12.0312Z" fill="white"></path>
  <path d="M18.4881 6.01115H19.6981V13.1112H18.4881V8.35115H18.4781L16.5281 11.7412H15.7381L13.7981 8.35115H13.7881V13.1112H12.5781V6.01115H13.7881L16.1281 10.2612H16.1481L18.4881 6.01115Z" fill="white"></path>
  <path d="M24.6955 13.1712C22.7655 13.1712 21.1155 11.9112 21.1155 9.58115C21.1155 7.56115 22.3955 5.93115 24.6955 5.93115C25.6655 5.93115 26.7155 6.33115 27.4955 7.29115L26.6055 8.04115C26.1455 7.48115 25.4555 7.07115 24.6955 7.07115C23.3155 7.07115 22.3755 8.08115 22.3755 9.58115C22.3755 11.0412 23.3455 12.0412 24.6955 12.0412C25.4955 12.0412 26.1555 11.6312 26.6055 11.0712L27.4955 11.8312C26.8855 12.5912 25.9455 13.1712 24.6955 13.1712Z" fill="white"></path>
  <path d="M33.3307 13.1112L32.7907 11.5812H29.8907L29.3607 13.1112H28.1007L30.7507 6.01115H31.9307L34.5907 13.1112H33.3307ZM30.2607 10.5412H32.4307L31.3507 7.46115H31.3307L30.2607 10.5412Z" fill="white"></path>
  <path d="M43.5156 13.1112V6.01115H46.0856C47.7856 6.01115 48.5156 6.99115 48.5156 8.31115C48.5156 9.85115 47.4756 10.5812 45.9456 10.5812H44.7256V13.1112H43.5156ZM44.7256 9.49115H45.8256C46.8156 9.49115 47.2656 8.99115 47.2656 8.29115C47.2656 7.54115 46.7856 7.09115 45.9156 7.09115H44.7256V9.49115Z" fill="white"></path>
  <path d="M55.1147 13.1112H53.6647L51.9647 10.5812H51.0147V13.1112H49.8047V6.01115H52.4247C54.1147 6.01115 54.8547 6.99115 54.8547 8.31115C54.8547 9.48115 54.2547 10.1812 53.2947 10.4512V10.4812L55.1147 13.1112ZM51.0147 7.09115V9.49115H52.1647C53.1347 9.49115 53.6047 8.99115 53.6047 8.29115C53.6047 7.54115 53.1147 7.09115 52.2447 7.09115H51.0147Z" fill="white"></path>
  <path d="M59.4126 13.1912C57.2826 13.1912 55.8226 11.6512 55.8226 9.56115C55.8226 7.47115 57.2826 5.93115 59.4126 5.93115C61.4626 5.93115 62.9926 7.39115 62.9926 9.56115C62.9926 11.7212 61.4626 13.1912 59.4126 13.1912ZM59.4126 12.0612C60.7226 12.0612 61.7326 11.0112 61.7326 9.56115C61.7326 8.10115 60.7226 7.06115 59.4126 7.06115C58.0226 7.06115 57.0726 8.17115 57.0726 9.56115C57.0726 10.9512 58.0226 12.0612 59.4126 12.0612Z" fill="white"></path>
  <path d="M65.376 13.1112V7.09115H63.366V6.01115H68.626V7.09115H66.586V13.1112H65.376Z" fill="white"></path>
  <path d="M69.8047 13.1112V6.01115H74.2747V7.09115H71.0147V9.05115H73.6447V10.1312H71.0147V12.0312H74.4847V13.1112H69.8047Z" fill="white"></path>
  <path d="M78.8655 13.1712C76.9355 13.1712 75.2855 11.9112 75.2855 9.58115C75.2855 7.56115 76.5655 5.93115 78.8655 5.93115C79.8355 5.93115 80.8855 6.33115 81.6655 7.29115L80.7755 8.04115C80.3155 7.48115 79.6255 7.07115 78.8655 7.07115C77.4855 7.07115 76.5455 8.08115 76.5455 9.58115C76.5455 11.0412 77.5155 12.0412 78.8655 12.0412C79.6655 12.0412 80.3255 11.6312 80.7755 11.0712L81.6655 11.8312C81.0555 12.5912 80.1155 13.1712 78.8655 13.1712Z" fill="white"></path>
  <path d="M84.3506 13.1112V7.09115H82.3406V6.01115H87.6006V7.09115H85.5606V13.1112H84.3506Z" fill="white"></path>
  <path d="M88.7793 13.1112V6.01115H93.2493V7.09115H89.9893V9.05115H92.6193V10.1312H89.9893V12.0312H93.4593V13.1112H88.7793Z" fill="white"></path>
  <path d="M94.8535 13.1112V6.01115H97.1135C99.3635 6.01115 100.804 7.47115 100.804 9.57115C100.804 11.6612 99.4235 13.1112 97.1435 13.1112H94.8535ZM96.0635 12.0312H97.0735C98.5735 12.0312 99.5535 10.9812 99.5535 9.57115C99.5535 8.13115 98.5635 7.09115 97.1335 7.09115H96.0635V12.0312Z" fill="white"></path>
</svg>
