<?xml version="1.0" encoding="UTF-8"?>
<svg xmlns="http://www.w3.org/2000/svg" width="64" height="64" viewBox="0 0 64 64" fill="none">
  <path d="M45.9346 11.9002C42.6678 9.86406 39.5843 9.06356 36.5022 7.02883C34.5902 5.73464 31.9398 2.65115 29.7188 0C29.2879 4.25355 27.993 5.98008 26.5133 7.21361C23.3685 9.67998 21.3951 10.4205 18.6826 11.9009C16.401 13.0717 4.00781 20.4701 4.00781 36.377C4.00781 52.286 17.3877 64 32.2465 64C47.1075 64 59.9937 53.2099 59.9937 36.8707C59.9937 20.5314 47.9087 13.133 45.9346 11.9002ZM46.2922 58.1977C45.9833 58.5066 43.1467 60.4785 39.8177 60.7874C36.4874 61.0964 31.987 61.2811 29.2738 58.8148C28.8429 58.3831 28.9663 57.7667 29.2738 57.5206C29.5827 57.273 29.8296 57.0882 30.1991 57.0882C30.5687 57.0882 30.508 57.0882 30.6928 57.2117C31.9249 58.1977 33.7749 58.9996 37.7209 58.9996C41.6684 58.9996 44.4423 57.8894 45.6744 56.9648C46.2309 56.5332 46.4763 56.9035 46.5377 57.1503C46.5997 57.3965 46.7231 57.766 46.2922 58.1977ZM35.5007 52.5864C36.1799 51.97 37.29 50.984 38.3374 50.5517C39.3847 50.1208 39.9412 50.1821 40.9271 50.1821C41.9131 50.1821 42.9612 50.2428 43.7024 50.7372C44.4423 51.2295 44.8739 52.3396 45.12 52.9567C45.3669 53.5731 45.12 53.942 44.6278 54.1888C44.1961 54.4364 44.1341 54.3123 43.7024 53.5118C43.2708 52.7092 42.8998 51.908 40.7424 51.908C38.5835 51.908 37.9064 52.6485 36.8577 53.5118C35.8096 54.375 35.4401 54.6832 35.0705 54.1888C34.7002 53.6966 34.8229 53.2029 35.5007 52.5864ZM51.8414 53.0801C49.6218 52.8954 45.1814 45.9892 42.3448 45.8658C38.7697 45.7424 30.9996 53.3263 24.8961 53.3263C21.1976 53.3263 20.0868 52.7719 18.854 51.97C17.004 50.6751 16.0794 48.7018 16.1408 45.9892C16.2035 41.1799 20.7039 36.6788 26.3758 36.6168C33.5901 36.5568 38.5842 43.7704 42.2227 43.7084C45.3055 43.647 51.2249 37.6049 54.1222 37.6049C57.205 37.6049 58.0697 40.8111 58.0697 42.7224C58.0697 44.6337 57.4519 48.086 55.9722 50.2435C54.4918 52.4017 53.5672 53.2029 51.8414 53.0801Z" fill="#0073BA"></path>
</svg>
