<svg width="56" height="47" viewBox="0 0 56 47" fill="none" xmlns="http://www.w3.org/2000/svg">
<path fill-rule="evenodd" clip-rule="evenodd" d="M54.9053 9.39378L28.5459 0.0935156C28.1927 -0.0311719 27.8074 -0.0311719 27.4542 0.0935156L1.09485 9.39378C0.439471 9.625 0.000877618 10.2441 1.30716e-06 10.939C-0.000872382 11.634 0.4363 12.254 1.09113 12.4868L27.4505 21.8577C27.6282 21.9209 27.8142 21.9525 28 21.9525C28.1859 21.9525 28.3718 21.9209 28.5495 21.8577L54.9089 12.4868C55.5637 12.254 56.0008 11.634 56 10.939C55.9991 10.2441 55.5605 9.625 54.9053 9.39378ZM52.0596 31.2928V16.9822L48.7783 18.1487V31.2928C47.79 31.8617 47.124 32.9275 47.124 34.1498C47.124 35.3719 47.79 36.4379 48.7783 37.0068V45.0695C48.7783 45.9755 49.5129 46.7101 50.4189 46.7101C51.325 46.7101 52.0596 45.9755 52.0596 45.0695V37.0069C53.0479 36.4381 53.7139 35.3721 53.7139 34.1499C53.7139 32.9276 53.048 31.8617 52.0596 31.2928ZM26.3517 24.9494C26.8825 25.1381 27.4371 25.2338 28.0003 25.2338C28.5634 25.2338 29.1181 25.1381 29.649 24.9494L44.4673 19.6814V26.901C44.4673 28.6673 42.6247 30.1611 38.9906 31.3406C35.8229 32.3687 31.9198 32.9349 28.0003 32.9349C24.0807 32.9349 20.1775 32.3687 17.0099 31.3406C13.3758 30.1611 11.5332 28.6673 11.5332 26.901V19.6814L26.3517 24.9494Z" fill="url(#paint0_linear_1411_7809)"/>
<defs>
<linearGradient id="paint0_linear_1411_7809" x1="-18.0885" y1="16.0484" x2="11.579" y2="67.8098" gradientUnits="userSpaceOnUse">
<stop stop-color="#FDDD48"/>
<stop offset="1" stop-color="#00B7C4"/>
</linearGradient>
</defs>
</svg>
