<?xml version="1.0" encoding="UTF-8"?>
<svg xmlns="http://www.w3.org/2000/svg" width="85" height="17" viewBox="0 0 85 17" fill="none">
  <path d="M12.9875 8.92208C12.9377 10.5786 12.709 12.2175 11.7767 13.6717C9.93542 16.545 5.93046 17.3102 2.98098 15.3605C2.29167 14.9127 1.69972 14.3305 1.24048 13.6487C0.781246 12.967 0.464156 12.1996 0.308161 11.3926C0.152165 10.5855 0.160465 9.75524 0.332565 8.95145C0.504664 8.14766 0.837028 7.38681 1.3098 6.71437C1.37908 6.60371 1.45965 6.50055 1.55022 6.40652C1.72906 6.24234 1.8698 5.9081 2.17764 6.08695C2.42392 6.23354 2.27146 6.51207 2.23335 6.73489C2.01932 7.92524 1.96948 9.10679 2.37994 10.2708C2.45031 10.476 2.4679 10.8073 2.76109 10.7868C3.05428 10.7662 2.99271 10.4349 3.0103 10.2209C3.26244 7.10138 4.82221 4.75587 7.36709 2.99967C7.60403 2.8357 7.85756 2.69714 8.12352 2.58627C10.343 1.67738 11.4454 2.21685 12.149 4.16363C12.6846 5.69383 12.9678 7.30096 12.9875 8.92208Z" fill="#81B441"></path>
  <path d="M22.4547 11.0009C21.2526 11.0009 20.0476 11.0156 18.8426 11.0009C18.2767 11.0009 18.18 11.1915 18.3295 11.7075C19.0009 14.0179 21.9181 15.0382 24.0438 13.6748C24.3721 13.4667 24.6595 13.194 24.9732 12.9624C25.5009 12.5724 26.0404 12.5314 26.5417 12.9917C26.7479 13.2135 26.8602 13.5064 26.8553 13.8091C26.8504 14.1119 26.7286 14.401 26.5153 14.616C25.7543 15.493 24.7226 16.0914 23.5835 16.3165C19.8043 17.0641 16.5821 15.4164 15.6908 11.8659C14.7702 8.18633 16.8372 4.74429 20.4258 3.98786C24.2226 3.18746 27.3891 5.60627 27.5796 9.44704C27.6295 10.441 27.1604 10.9775 26.1547 10.9951C24.9233 11.0215 23.6919 10.9951 22.4605 10.9951L22.4547 11.0009ZM21.4842 9.03364C22.3491 9.03364 23.214 9.03364 24.0789 9.03364C24.8735 9.03364 24.9937 8.8548 24.765 8.09251C24.3311 6.62656 23.1349 5.89359 21.3406 5.99621C19.9567 6.0783 18.5435 7.27158 18.2826 8.53523C18.1917 8.96915 18.394 9.03364 18.7341 9.03364H21.4842Z" fill="black"></path>
  <path d="M77.498 16.4684C73.71 16.4684 70.9481 13.8034 70.9628 10.1531C70.9774 6.50295 73.6953 3.89063 77.454 3.88477C81.2654 3.88477 84.0273 6.50295 84.0537 10.1473C84.0801 13.7242 81.2361 16.4655 77.498 16.4684ZM77.3748 14.2314C79.7203 14.2314 81.3153 12.5632 81.3094 10.1092C81.3094 7.76366 79.647 6.03091 77.4423 6.0485C75.2375 6.06609 73.7041 7.77246 73.7012 10.118C73.6982 12.4635 75.2551 14.2255 77.3748 14.2314Z" fill="black"></path>
  <path d="M60.4901 14.8942C58.5023 16.6886 55.8841 16.9993 53.864 15.721C53.3485 15.3984 52.9266 14.9461 52.6407 14.4093C52.3547 13.8726 52.2147 13.2701 52.2346 12.6623C52.2545 12.0544 52.4336 11.4624 52.754 10.9455C53.0744 10.4285 53.5249 10.0048 54.0605 9.71652C55.2596 9.05978 56.5702 8.83695 57.91 8.73434C58.5609 8.68156 59.2147 8.62586 59.8685 8.59947C60.32 8.58188 60.4549 8.35612 60.4197 7.94272C60.3683 7.52566 60.1913 7.1341 59.9122 6.81994C59.6331 6.50577 59.2651 6.28385 58.857 6.18359C57.5963 5.81124 56.4265 6.08684 55.3094 6.70254C55.0895 6.8422 54.8614 6.96849 54.6263 7.08075C54.4205 7.17393 54.1889 7.19332 53.9704 7.13564C53.752 7.07796 53.5601 6.94674 53.4272 6.76411C53.2817 6.59354 53.1969 6.37946 53.1863 6.1555C53.1757 5.93155 53.2398 5.71041 53.3685 5.52685C53.543 5.26462 53.7838 5.05322 54.0663 4.91408C54.9388 4.3761 55.916 4.03036 56.9328 3.89992C57.9495 3.76948 58.9823 3.85734 59.9624 4.15765C60.8429 4.3879 61.6211 4.90608 62.1731 5.62971C62.7251 6.35333 63.0192 7.24082 63.0086 8.15089C63.0379 10.4114 63.0086 12.6719 63.0086 14.9324C63.0086 15.8119 62.6216 16.3221 61.9267 16.3983C61.2319 16.4745 60.7276 16.0201 60.5546 15.1171C60.5546 15.0526 60.5311 15.0057 60.4901 14.8942ZM57.1653 14.3401C59.1561 14.3401 60.4842 13.0706 60.5517 11.1473C60.5517 10.7192 60.4227 10.4964 59.9653 10.5374C58.8717 10.6342 57.7605 10.6049 56.6962 10.9127C56.3457 11.0179 56.0106 11.1687 55.6994 11.3613C55.4494 11.5081 55.2486 11.7258 55.1223 11.9867C54.996 12.2476 54.9499 12.5401 54.9899 12.8273C55.0063 13.1029 55.1023 13.3678 55.2662 13.59C55.4301 13.8122 55.6549 13.9821 55.9134 14.0792C56.3043 14.2636 56.7333 14.353 57.1653 14.3401Z" fill="black"></path>
  <path d="M31.4643 5.72268C32.8218 4.08962 34.4578 3.60293 36.3518 3.98407C38.3308 4.38281 39.659 6.0364 39.7176 8.22945C39.7762 10.4899 39.7469 12.7504 39.7176 15.0109C39.7299 15.1875 39.7052 15.3647 39.6451 15.5312C39.585 15.6977 39.4908 15.8499 39.3686 15.9779C39.2463 16.1059 39.0987 16.2071 38.9352 16.2748C38.7716 16.3425 38.5957 16.3754 38.4188 16.3713C38.2412 16.3709 38.0655 16.3341 37.9028 16.263C37.74 16.1919 37.5936 16.0881 37.4726 15.9581C37.3516 15.828 37.2587 15.6745 37.1995 15.507C37.1404 15.3396 37.1163 15.1617 37.1287 14.9845C37.1082 13.2254 37.1287 11.4516 37.1287 9.68367C37.1311 9.21616 37.0938 8.74929 37.0173 8.28808C36.8443 7.26485 36.431 6.43514 35.3286 6.18006C34.0268 5.88687 32.9156 6.31492 32.2325 7.33815C31.7724 8.03816 31.5343 8.86077 31.5494 9.69833C31.5494 11.4164 31.5494 13.1316 31.5494 14.8467C31.5494 15.7263 31.089 16.2599 30.359 16.3127C29.5117 16.3801 28.9605 15.8641 28.9576 14.9288C28.9429 12.5364 28.9576 10.144 28.9576 7.75449C28.9576 6.9746 28.9576 6.19472 28.9576 5.40897C28.9576 4.50009 29.3827 3.99286 30.1303 3.96355C30.878 3.93423 31.2826 4.37402 31.4028 5.25358L31.4643 5.72268Z" fill="black"></path>
  <path d="M46.1297 12.9679C46.461 12.7978 46.4698 12.5076 46.5607 12.2818C47.5135 9.9187 48.4547 7.55267 49.4017 5.18957C49.4709 4.96825 49.5695 4.75722 49.6949 4.56214C50.0965 4.02853 50.6389 3.80571 51.2781 4.06958C51.5548 4.16487 51.7843 4.36287 51.9191 4.62264C52.0539 4.88241 52.0837 5.18406 52.0023 5.46517C51.913 5.84387 51.7873 6.21304 51.627 6.56755C50.4542 9.31767 49.2815 12.0658 48.1087 14.812C48.059 14.932 48.0032 15.0495 47.9416 15.1639C47.5722 15.891 47.0122 16.3513 46.159 16.3542C45.7764 16.3633 45.4007 16.2519 45.085 16.0356C44.7693 15.8193 44.5296 15.5092 44.3999 15.1492C43.0786 12.0688 41.7651 8.98538 40.4594 5.89908C40.1105 5.06642 40.3978 4.35984 41.1044 4.06958C41.811 3.77933 42.5704 4.11356 42.9163 4.94915C43.878 7.33571 44.8133 9.734 45.7632 12.1235C45.8746 12.4079 46.0036 12.6805 46.1297 12.9679Z" fill="black"></path>
  <path d="M64.6444 7.54369C64.6444 5.7523 64.6444 3.96091 64.6444 2.16953C64.6444 1.17268 65.093 0.636154 65.8963 0.618562C66.6997 0.600971 67.2186 1.16682 67.2391 2.18126C67.2772 4.13976 67.2772 4.13976 69.2504 4.19546C70.0684 4.22185 70.517 4.58834 70.5404 5.24801C70.5639 5.90769 70.0801 6.31229 69.2094 6.32695C68.7901 6.32695 68.3708 6.35334 67.9545 6.32695C67.3945 6.28591 67.2274 6.54098 67.2333 7.06285C67.2538 8.90701 67.2333 10.7512 67.2538 12.5924C67.2743 13.8355 67.8402 14.2665 69.0481 14.0759C69.8309 13.9528 70.3147 14.2049 70.4759 14.8177C70.6255 15.3836 70.2824 15.9377 69.5964 16.1722C67.5675 16.8583 64.6855 16.1722 64.662 12.9208C64.662 11.1294 64.662 9.338 64.662 7.54661L64.6444 7.54369Z" fill="black"></path>
</svg>
