<svg width="46" height="48" viewBox="0 0 46 48" fill="none" xmlns="http://www.w3.org/2000/svg">
<path fill-rule="evenodd" clip-rule="evenodd" d="M38.9625 1.38977C38.9625 0.622559 38.3396 0 37.5724 0C36.8044 0 36.1826 0.622559 36.1826 1.38977V3.88623H38.9615V6.38269C38.9615 7.151 38.3386 7.77246 37.5714 7.77246C36.8035 7.77246 36.1816 7.151 36.1816 6.38269V3.88623H33.4498V1.38977C33.4498 0.622559 32.8284 0 32.0601 0C31.2928 0 30.6699 0.622559 30.6699 1.38977V3.88623H33.4497V6.38269C33.4497 7.151 32.8282 7.77246 32.0599 7.77246C31.2927 7.77246 30.6698 7.151 30.6698 6.38269V3.88623H15.3219V1.38977C15.3219 0.622559 14.6993 0 13.9321 0C13.1638 0 12.542 0.622559 12.542 1.38977V3.88623H9.81116V1.38977C9.81116 0.622559 9.18823 0 8.42102 0C7.65381 0 7.03125 0.622559 7.03125 1.38977V3.88623H9.81042V6.38269C9.81042 7.151 9.1875 7.77246 8.42029 7.77246C7.65308 7.77246 7.03052 7.151 7.03052 6.38269V3.88623H4.49524C2.01636 3.88623 0 5.90259 0 8.38147V12.6636H45.991V8.38147C45.991 5.90259 43.9746 3.88623 41.4957 3.88623H38.9625V1.38977ZM12.542 3.88623V6.38269C12.542 7.151 13.1638 7.77246 13.9321 7.77246C14.6993 7.77246 15.3219 7.151 15.3219 6.38269V3.88623H12.542ZM0 43.5046C0 45.9832 2.01672 47.9999 4.49524 47.9999H41.4965C43.975 47.9999 45.9917 45.9832 45.9917 43.5046V15.4434H0V43.5046ZM22.9962 19.2977C29.0804 19.2977 34.0302 24.2474 34.0302 30.3317C34.0302 36.4159 29.0804 41.366 22.9962 41.366C16.912 41.366 11.9619 36.4159 11.9619 30.3317C11.9619 24.2474 16.912 19.2977 22.9962 19.2977ZM22.9966 38.5861C27.5479 38.5861 31.2506 34.8833 31.2506 30.3317C31.2506 25.7804 27.5479 22.0776 22.9966 22.0776C18.4449 22.0776 14.7422 25.7804 14.7422 30.3317C14.7422 34.8833 18.4449 38.5861 22.9966 38.5861ZM18.134 29.0327C18.6768 28.4896 19.5568 28.4896 20.0999 29.0327L21.9141 30.8469L25.8933 26.8677C26.4364 26.325 27.3164 26.325 27.8591 26.8677C28.4019 27.4104 28.4019 28.2904 27.8591 28.8335L22.897 33.7957C22.6362 34.0564 22.2828 34.2025 21.9141 34.2025C21.5453 34.2025 21.1919 34.0564 20.9312 33.7957L18.134 30.9982C17.5913 30.4554 17.5913 29.5754 18.134 29.0327Z" fill="url(#paint0_linear_1411_7838)"/>
<defs>
<linearGradient id="paint0_linear_1411_7838" x1="34.4938" y1="44.7845" x2="9.99249" y2="4.1225" gradientUnits="userSpaceOnUse">
<stop stop-color="#73DFE7"/>
<stop offset="1" stop-color="#0063F7"/>
</linearGradient>
</defs>
</svg>
