<?xml version="1.0" encoding="UTF-8"?>
<svg xmlns="http://www.w3.org/2000/svg" width="50" height="50" viewBox="0 0 50 50" fill="none">
  <path fill-rule="evenodd" clip-rule="evenodd" d="M23.6741 47.3714C17.6393 47.371 11.8132 47.3704 9.69199 47.3693C9.58588 47.3693 9.48102 47.3466 9.38458 47.303C9.28815 47.2593 9.20242 47.1956 9.13325 47.1162C9.06408 47.0369 9.0131 46.9437 8.98381 46.8431C8.95451 46.7425 8.94759 46.6369 8.96352 46.5334C10.0145 40.0955 15.0213 34.9591 21.45 33.6275L18.7387 40.6279C18.5444 41.1296 18.5057 41.677 18.6276 42.2004C18.7495 42.7239 19.0264 43.1998 19.4232 43.5676L23.0966 46.9734C23.2685 47.1331 23.463 47.2671 23.6741 47.3714ZM28.0628 33.6281C30.2095 34.0734 32.1979 34.9438 33.9337 36.1454C32.7056 37.7668 31.9771 39.7759 31.9771 41.9473C31.9771 43.9534 32.5989 45.8207 33.6621 47.3717L25.8468 47.3715C26.0586 47.2668 26.2538 47.1322 26.4262 46.9719L30.0918 43.5665C30.4879 43.1985 30.7642 42.7229 30.8857 42.1998C31.0072 41.6768 30.9684 41.1299 30.7743 40.6287L28.0628 33.6281ZM24.7602 31.7278C20.2983 31.7278 16.6661 28.1456 16.6661 23.7529C16.6661 19.3602 20.2983 15.778 24.7602 15.778C29.2143 15.778 32.8466 19.3602 32.8466 23.7529C32.8466 28.1456 29.2143 31.7278 24.7602 31.7278ZM23.3897 33.2903H26.123L29.1955 41.2233C29.2702 41.4161 29.2851 41.6265 29.2384 41.8277C29.1917 42.0289 29.0854 42.2118 28.9331 42.3533L25.2675 45.7586C25.1305 45.886 24.9493 45.957 24.7609 45.9571C24.5726 45.9572 24.3913 45.8864 24.2541 45.7592L20.5807 42.3533C20.4281 42.2119 20.3215 42.0288 20.2747 41.8275C20.2278 41.6262 20.2426 41.4157 20.3174 41.2227L23.3897 33.2903ZM41.8348 50C37.3367 50 33.667 46.3833 33.667 41.9473C33.667 37.5112 37.3367 33.8921 41.8348 33.8921C46.3328 33.8921 50 37.5112 50 41.9473C50 46.3833 46.3328 50 41.8348 50ZM40.7626 42.6561L38.9376 40.8563C38.4648 40.39 37.6973 40.39 37.2246 40.8563C36.7518 41.3249 36.7518 42.0794 37.2246 42.5456L39.9074 45.1939C40.3801 45.66 41.1476 45.66 41.6204 45.1939C43.2383 43.5981 44.8368 41.9857 46.4474 40.3828C46.9176 39.9143 46.9152 39.1597 46.4424 38.6958C45.9698 38.2321 45.2022 38.2345 44.732 38.7006L40.7626 42.6561ZM25.0765 0.218359L26.7231 4.49054C26.7729 4.62034 26.8867 4.70096 27.0254 4.70804L31.6561 4.93252C31.9725 4.94648 32.1007 5.3394 31.8552 5.53231L28.2418 8.39794C28.1315 8.48211 28.0888 8.61544 28.1244 8.74867L29.3408 13.1612C29.4261 13.4593 29.0882 13.7014 28.825 13.5329L24.9449 11.0286C24.8275 10.9515 24.6853 10.9515 24.5678 11.0286L20.6913 13.5329C20.428 13.7014 20.0902 13.4593 20.1719 13.1612L21.3883 8.74867C21.4239 8.61544 21.3812 8.48211 21.2709 8.39794L17.6575 5.53231C17.4121 5.3394 17.5401 4.94648 17.8567 4.93252L22.4873 4.70804C22.6259 4.70096 22.7398 4.62034 22.7895 4.49054L24.4363 0.218359C24.5465 -0.0727864 24.9662 -0.0727864 25.0765 0.218359ZM42.6055 12.5914L44.2522 16.8636C44.3019 16.9933 44.4158 17.074 44.5544 17.081L49.185 17.3054C49.5016 17.3195 49.6296 17.7123 49.3842 17.9052L45.7708 20.771C45.6605 20.8551 45.6178 20.9883 45.6534 21.1217L46.8698 25.5342C46.9551 25.8323 46.6172 26.0743 46.354 25.9059L42.4739 23.4016C42.3564 23.3244 42.2143 23.3244 42.0968 23.4016L38.2203 25.9059C37.9571 26.0743 37.6192 25.8323 37.7009 25.5342L38.9173 21.1217C38.9529 20.9883 38.9102 20.8551 38.7999 20.771L35.1865 17.9052C34.9412 17.7123 35.0692 17.3195 35.3857 17.3054L40.0163 17.081C40.155 17.074 40.2688 16.9933 40.3186 16.8636L41.9653 12.5914C42.0755 12.3002 42.4952 12.3002 42.6055 12.5914ZM7.54744 12.5914L9.19409 16.8636C9.24384 16.9933 9.3577 17.074 9.49638 17.081L14.1271 17.3054C14.4435 17.3195 14.5716 17.7123 14.3262 17.9052L10.7127 20.771C10.6025 20.8551 10.5598 20.9883 10.5954 21.1217L11.8117 25.5342C11.8971 25.8323 11.5592 26.0743 11.296 25.9059L7.41584 23.4016C7.29849 23.3244 7.15622 23.3244 7.03887 23.4016L3.16223 25.9059C2.89902 26.0743 2.56113 25.8323 2.64299 25.5342L3.85933 21.1217C3.89482 20.9883 3.85215 20.8551 3.74188 20.771L0.128445 17.9052C-0.116915 17.7123 0.0110993 17.3195 0.327649 17.3054L4.95822 17.081C5.09691 17.074 5.21077 16.9933 5.26051 16.8636L6.90727 12.5914C7.01754 12.3002 7.43717 12.3002 7.54744 12.5914Z" fill="url(#paint0_linear_10302_19900)"></path>
  <defs>
    <linearGradient id="paint0_linear_10302_19900" x1="-16.1504" y1="16.1504" x2="16.1504" y2="66.1504" gradientUnits="userSpaceOnUse">
      <stop stop-color="#FF3B3B"></stop>
      <stop offset="1" stop-color="#6600CC"></stop>
    </linearGradient>
  </defs>
</svg>
