<?xml version="1.0" encoding="UTF-8"?>
<svg xmlns="http://www.w3.org/2000/svg" width="47" height="44" viewBox="0 0 47 44" fill="none">
  <path fill-rule="evenodd" clip-rule="evenodd" d="M39.7698 18.3734C39.3012 18.1522 38.1466 17.8523 37.783 17.4924C37.4667 17.1734 37.1989 16.8096 36.9882 16.4128C36.7776 16.8096 36.5098 17.1734 36.1935 17.4924C35.3913 18.2909 33.5694 18.7895 32.3361 18.7895C31.1028 18.7895 29.2809 18.2909 28.49 17.4924C28.1737 17.1734 27.9059 16.8096 27.6953 16.4128C27.4846 16.8096 27.2168 17.1734 26.9005 17.4924C26.0983 18.2909 24.2765 18.7895 23.0431 18.7895C21.8098 18.7895 19.988 18.2909 19.1858 17.4924C18.8615 17.1749 18.5861 16.8111 18.3685 16.4128C18.1579 16.8096 17.8901 17.1734 17.5738 17.4924C16.7716 18.2909 14.9497 18.7895 13.7164 18.7895C12.4831 18.7895 10.6613 18.2909 9.85904 17.4924C9.54275 17.1734 9.27499 16.8096 9.06432 16.4128C8.85365 16.8096 8.58589 17.1734 8.2696 17.4924C7.74103 18.0172 6.35027 18.4146 5.61553 18.617C4.1348 18.797 2.38792 18.5833 1.28956 17.4924C0.879568 17.0817 0.554629 16.5942 0.333349 16.0577C0.112068 15.5212 -0.00120749 14.9463 9.70612e-06 14.366V12.6266C0.00114855 12.5403 0.0230031 12.4554 0.0637373 12.3792L3.18264 2.389C3.43755 1.56803 4.06358 1.03947 5.2744 0.979492H40.5457C41.6328 1.0957 42.3413 1.55304 42.6337 2.3815L46.0076 12.3605C46.0504 12.4321 46.0749 12.5133 46.0788 12.5967C46.0805 12.6141 46.0805 12.6317 46.0788 12.6491V14.366C46.0785 14.9471 45.9635 15.5225 45.7402 16.059C45.517 16.5955 45.19 17.0826 44.778 17.4924C43.4734 18.797 41.4866 18.7632 39.7847 18.3734H39.7698ZM7.75603 40.9967V25.1322C7.75998 24.1651 8.14592 23.2387 8.82981 22.5548C9.51369 21.8709 10.4401 21.485 11.4072 21.481H34.3004C35.2676 21.485 36.194 21.8709 36.8779 22.5548C37.5617 23.2387 37.9477 24.1651 37.9516 25.1322V40.9967H40.5045C40.6168 40.9967 40.7246 40.952 40.804 40.8726C40.8835 40.7931 40.9281 40.6854 40.9281 40.5731V20.7725C41.6003 20.8331 42.2774 20.813 42.9449 20.7125V40.5805C42.9439 41.2275 42.6865 41.8476 42.229 42.3051C41.7716 42.7625 41.1514 43.0199 40.5045 43.0209H5.5593C5.23865 43.0203 4.92128 42.9564 4.62537 42.8329C4.32946 42.7094 4.06084 42.5287 3.83491 42.3012C3.60789 42.0751 3.42777 41.8063 3.3049 41.5104C3.18203 41.2145 3.11882 40.8972 3.11891 40.5768V20.735C3.78284 20.8544 4.45814 20.8985 5.13195 20.8662V40.5731C5.13235 40.629 5.14381 40.6843 5.16569 40.7357C5.18757 40.7872 5.21942 40.8338 5.25941 40.8729C5.299 40.9117 5.34589 40.9423 5.39736 40.9629C5.44883 40.9835 5.50387 40.9937 5.5593 40.9929L7.75603 40.9967ZM32.7747 27.164C32.0119 26.8949 31.2997 26.4996 30.668 25.9944C30.9566 26.9841 30.1394 29.2445 29.026 31.8461C28.2763 29.8256 27.3766 27.7226 27.4029 25.9944C27.1163 26.2695 26.7887 26.4984 26.4319 26.6729L25.2774 27.1828C24.9362 27.329 24.8088 27.7076 24.7863 28.1987C24.381 31.0731 24.1594 33.9705 24.1228 36.8731H25.8209L26.0571 31.4038C26.1705 31.7515 26.257 32.1074 26.3157 32.4684C26.4244 33.135 26.4244 33.8148 26.3157 34.4814L26.2408 36.8656H28.5575V40.9892H16.9365V38.0914C17.0546 38.0359 17.1664 37.9681 17.2702 37.889C17.5917 38.0391 17.9513 38.0875 18.3011 38.0277C18.6163 37.9606 18.9016 37.7936 19.1145 37.5516C19.3196 37.641 19.5443 37.6759 19.7668 37.6528C19.9072 37.6368 20.0426 37.5907 20.1636 37.5176C20.2845 37.4445 20.3883 37.3461 20.4678 37.2292C21.3375 36.0521 20.4378 33.7317 19.853 32.7308C19.3787 31.96 18.7925 31.2639 18.1136 30.6653C18.0504 30.6106 17.9949 30.5475 17.9487 30.4779C17.914 30.4246 17.8875 30.3665 17.87 30.3054C17.8532 30.215 17.8532 30.1222 17.87 30.0318C17.8882 29.925 17.9184 29.8207 17.9599 29.7206L18.3348 28.8659L18.5147 28.4648C18.5852 28.3267 18.6219 28.1738 18.6219 28.0187C18.6219 27.8636 18.5852 27.7108 18.5147 27.5726C18.4296 27.4066 18.2998 27.2677 18.1399 27.1715C18.0985 27.148 18.056 27.1268 18.0124 27.1078V26.1331C18.0124 26.0735 17.9887 26.0163 17.9465 25.9741C17.9044 25.9319 17.8471 25.9082 17.7875 25.9082C17.7278 25.9082 17.6706 25.9319 17.6285 25.9741C17.5863 26.0163 17.5626 26.0735 17.5626 26.1331V27.0216C17.1442 27.0235 16.7422 27.1843 16.438 27.4714C16.2986 27.3322 16.1332 27.2218 15.9512 27.1466C15.7691 27.0713 15.5741 27.0327 15.3771 27.0328V26.1331C15.3771 26.0735 15.3534 26.0163 15.3112 25.9741C15.269 25.9319 15.2118 25.9082 15.1522 25.9082C15.0925 25.9082 15.0353 25.9319 14.9931 25.9741C14.9509 26.0163 14.9273 26.0735 14.9273 26.1331V27.1228C14.8781 27.1415 14.8304 27.164 14.7848 27.1903C14.5979 27.2804 14.4396 27.4206 14.3275 27.5951C14.2431 27.7351 14.1936 27.8933 14.1832 28.0564C14.1727 28.2195 14.2016 28.3827 14.2675 28.5323L14.4212 28.9072L14.7023 29.6044V29.6269C15.0135 30.2342 14.796 30.4366 14.4549 30.7515C14.3575 30.8452 14.2525 30.9427 14.14 31.0626C13.8415 31.3718 13.5694 31.7053 13.3266 32.0598C12.4978 33.2353 12.0349 34.6294 11.9958 36.0671C11.9958 36.1758 11.9958 36.2433 11.9958 36.3071C11.977 36.8619 11.962 37.2405 12.7043 37.4954C12.8669 37.5514 13.0385 37.5768 13.2104 37.5704C13.3364 37.5635 13.4617 37.5472 13.5852 37.5216C13.8418 37.7783 14.172 37.9486 14.5299 38.009C14.8527 38.0527 15.181 37.9923 15.4671 37.8365C15.6446 37.9795 15.8483 38.0865 16.0669 38.1514V40.9967H9.45043V25.1322C9.45241 24.6139 9.6592 24.1173 10.0258 23.7507C10.3923 23.3842 10.8889 23.1774 11.4072 23.1754H34.2967C34.8157 23.1754 35.3134 23.3816 35.6804 23.7486C36.0473 24.1155 36.2535 24.6133 36.2535 25.1322V40.9967H29.5059V36.8731H31.8263L31.7588 34.4852C31.6727 33.8465 31.6803 33.1986 31.7813 32.5621C31.8413 32.1848 31.92 31.7986 32.0175 31.4038L32.2387 36.8918H33.9368C33.9147 34.0312 33.6956 31.1754 33.2808 28.3449C33.2808 27.6851 33.1271 27.2915 32.7747 27.1603V27.164ZM30.488 29.2295H31.8076C31.8105 29.2295 31.8134 29.2301 31.8162 29.2313C31.8189 29.2324 31.8214 29.234 31.8235 29.2361C31.8255 29.2382 31.8272 29.2407 31.8283 29.2434C31.8295 29.2462 31.83 29.2491 31.83 29.252V29.5444C31.8266 29.5464 31.8228 29.5474 31.8188 29.5474C31.8149 29.5474 31.811 29.5464 31.8076 29.5444H30.488C30.4846 29.5464 30.4807 29.5474 30.4768 29.5474C30.4728 29.5474 30.4689 29.5464 30.4655 29.5444V29.252C30.4655 29.252 30.4655 29.2295 30.488 29.2295ZM29.0335 32.0635C29.0728 32.0635 29.1112 32.0752 29.1439 32.097C29.1766 32.1189 29.2021 32.1499 29.2171 32.1862C29.2321 32.2225 29.2361 32.2624 29.2284 32.301C29.2207 32.3395 29.2018 32.3749 29.174 32.4027C29.1462 32.4305 29.1108 32.4494 29.0723 32.4571C29.0338 32.4648 28.9938 32.4608 28.9575 32.4458C28.9212 32.4307 28.8902 32.4053 28.8683 32.3726C28.8465 32.3399 28.8349 32.3015 28.8349 32.2622C28.8349 32.2095 28.8558 32.159 28.893 32.1217C28.9303 32.0845 28.9808 32.0635 29.0335 32.0635Z" fill="url(#paint0_linear_5772_59733)"></path>
  <defs>
    <linearGradient id="paint0_linear_5772_59733" x1="-14.8843" y1="14.5593" x2="11.1813" y2="58.7832" gradientUnits="userSpaceOnUse">
      <stop stop-color="#3E7BFA"></stop>
      <stop offset="1" stop-color="#6600CC"></stop>
    </linearGradient>
  </defs>
</svg>
