<?xml version="1.0" encoding="UTF-8"?>
<svg xmlns="http://www.w3.org/2000/svg" width="54" height="54" viewBox="0 0 54 54" fill="none">
  <path d="M26.4912 26.6672C26.4912 21.7691 30.1785 17.778 34.7455 17.778C39.2938 17.778 42.9999 21.7489 42.9999 26.6672C42.9999 31.5654 39.3125 35.5565 34.7455 35.5565C30.1972 35.5565 26.4912 31.5654 26.4912 26.6672Z" fill="#1ABCFE"></path>
  <path d="M10 44.4269C10 39.5287 13.6873 35.5376 18.2543 35.5376H26.5086V44.4269C26.5086 49.325 22.8213 53.3161 18.2543 53.3161C13.6873 53.3161 10 49.3452 10 44.4269Z" fill="#0ACF83"></path>
  <path d="M26.4912 0.0201571V17.7785H34.7455C39.2938 17.7785 42.9999 13.8076 42.9999 8.88927C42.9999 3.9911 39.3125 0 34.7455 0H26.4912V0.0201571Z" fill="#FF7262"></path>
  <path d="M10 8.90965C10 13.8078 13.6873 17.7989 18.2543 17.7989H26.5086V0.0203857H18.2543C13.6873 0.0203857 10 3.99133 10 8.90965Z" fill="#F24E1E"></path>
  <path d="M10 26.6672C10 31.5654 13.6873 35.5565 18.2543 35.5565H26.5086V17.778H18.2543C13.6873 17.778 10 21.7691 10 26.6672Z" fill="#A259FF"></path>
</svg>
