<?xml version="1.0" encoding="UTF-8"?>
<svg xmlns="http://www.w3.org/2000/svg" width="52" height="44" viewBox="0 0 52 44" fill="none">
  <path fill-rule="evenodd" clip-rule="evenodd" d="M12.6789 37.7962V22.2343H19.6801C22.6475 22.7653 25.6149 24.3755 28.5823 26.2428H34.0197C36.4813 26.3903 37.7711 28.8856 35.3769 30.5252C33.4717 31.9246 30.9553 31.8445 28.3757 31.6127C26.597 31.5242 26.5211 33.9141 28.3757 33.9226C29.0206 33.9731 29.7203 33.8214 30.3315 33.8214C33.5476 33.8172 36.1988 33.2018 37.8216 30.6601L38.6351 28.7591L46.7238 24.7506C50.7702 23.4187 53.6491 27.6506 50.6649 30.5969C44.806 34.8583 38.7995 38.3652 32.654 41.1977C28.1903 43.9122 23.7265 43.8195 19.267 41.1977L12.6789 37.7962ZM17.9814 0.800781L48.081 8.86415L43.8871 24.5146L13.7875 16.4512L17.9814 0.800781ZM32.1735 8.05908C34.7194 8.74191 36.2284 11.351 35.5455 13.8969C34.8627 16.4428 32.2536 17.9518 29.7077 17.2689C27.1618 16.5861 25.6528 13.977 26.3357 11.4311C27.0143 8.88523 29.6234 7.37624 32.1735 8.05908ZM22.3735 4.53109L42.3865 9.89262C42.0451 11.1656 42.8038 12.4849 44.081 12.8221L42.4245 19.0097C41.1515 18.6683 39.8322 19.427 39.495 20.7042L19.4778 15.3427C19.8192 14.0697 19.0605 12.7546 17.7833 12.4132L19.4399 6.22554C20.7128 6.56695 22.0321 5.80825 22.3735 4.53109ZM0.105469 20.7379H10.5714V39.36H0.105469V20.7379Z" fill="url(#paint0_linear_5772_59722)"></path>
  <defs>
    <linearGradient id="paint0_linear_5772_59722" x1="-16.6235" y1="15.3678" x2="10.0482" y2="62.7817" gradientUnits="userSpaceOnUse">
      <stop stop-color="#AC5DD9"></stop>
      <stop offset="1" stop-color="#004FC4"></stop>
    </linearGradient>
  </defs>
</svg>
