<?xml version="1.0" encoding="UTF-8"?>
<svg xmlns="http://www.w3.org/2000/svg" width="64" height="64" viewBox="0 0 64 64" fill="none">
  <g clip-path="url(#clip0_9761_2868)">
    <path d="M39.2406 23.1155L32.8346 29.0755L26.8906 17.0855L29.9666 10.1895C30.7666 8.78952 32.0146 8.80552 32.7946 10.1895L39.2406 23.1155Z" fill="#FFA000"></path>
    <path d="M26.8905 17.0859L32.8345 29.0759L8.89453 51.3459L26.8905 17.0859Z" fill="#F57F17"></path>
    <path d="M46.2465 14.006C47.3905 12.906 48.5745 13.282 48.8765 14.84L55.1085 51.05L34.4525 63.45C33.7325 63.85 31.8125 64.022 31.8125 64.022C31.8125 64.022 30.0645 63.814 29.3985 63.422L8.89453 51.346L46.2465 14.006Z" fill="#FFCA28"></path>
    <path d="M26.8905 17.0864L8.89648 51.3465L16.9105 1.27645C17.2065 -0.283551 18.0945 -0.433552 18.8865 0.942448L26.8905 17.0864Z" fill="#FFA000"></path>
  </g>
  <defs>
    <clipPath id="clip0_9761_2868">
      <rect width="64" height="64" fill="white"></rect>
    </clipPath>
  </defs>
</svg>
