<?xml version="1.0" encoding="UTF-8"?>
<svg xmlns="http://www.w3.org/2000/svg" width="64" height="64" viewBox="0 0 64 64" fill="none">
  <mask id="mask0_9761_2822" style="mask-type:luminance" maskUnits="userSpaceOnUse" x="6" y="0" width="52" height="64">
    <path d="M57.6827 29.5321L40.4551 46.7658L57.6827 63.9995H37.9967L20.763 46.7658L37.9967 29.5321H57.6827ZM37.9967 0L6 31.9967L15.8461 41.8427L57.6827 0H37.9967Z" fill="white"></path>
  </mask>
  <g mask="url(#mask0_9761_2822)">
    <path d="M20.7695 46.7659L30.6094 56.612L57.6831 29.5322H37.9971L20.7695 46.7659Z" fill="#39CEFD"></path>
  </g>
  <mask id="mask1_9761_2822" style="mask-type:luminance" maskUnits="userSpaceOnUse" x="6" y="0" width="52" height="64">
    <path d="M57.6827 29.5321L40.4551 46.7658L57.6827 63.9995H37.9967L20.763 46.7658L37.9967 29.5321H57.6827ZM37.9967 0L6 31.9967L15.8461 41.8427L57.6827 0H37.9967Z" fill="white"></path>
  </mask>
  <g mask="url(#mask1_9761_2822)">
    <path d="M37.9967 0H57.6827L15.8461 41.8427L6 31.9967L37.9967 0Z" fill="#39CEFD"></path>
  </g>
  <mask id="mask2_9761_2822" style="mask-type:luminance" maskUnits="userSpaceOnUse" x="6" y="0" width="52" height="64">
    <path d="M57.6827 29.5321L40.4551 46.7658L57.6827 63.9995H37.9967L20.763 46.7658L37.9967 29.5321H57.6827ZM37.9967 0L6 31.9967L15.8461 41.8427L57.6827 0H37.9967Z" fill="white"></path>
  </mask>
  <g mask="url(#mask2_9761_2822)">
    <path d="M30.6094 56.6117L37.997 63.9932H57.683L40.4555 46.7656L30.6094 56.6117Z" fill="#03569B"></path>
  </g>
  <mask id="mask3_9761_2822" style="mask-type:luminance" maskUnits="userSpaceOnUse" x="6" y="0" width="52" height="64">
    <path d="M57.6827 29.5321L40.4551 46.7658L57.6827 63.9995H37.9967L20.763 46.7658L37.9967 29.5321H57.6827ZM37.9967 0L6 31.9967L15.8461 41.8427L57.6827 0H37.9967Z" fill="white"></path>
  </mask>
  <g mask="url(#mask3_9761_2822)">
    <path d="M45.2121 51.5531L40.4555 46.7656L30.6094 56.6117L45.2121 51.5531Z" fill="url(#paint0_linear_9761_2822)"></path>
  </g>
  <mask id="mask4_9761_2822" style="mask-type:luminance" maskUnits="userSpaceOnUse" x="6" y="0" width="52" height="64">
    <path d="M57.6827 29.5321L40.4551 46.7658L57.6827 63.9995H37.9967L20.763 46.7658L37.9967 29.5321H57.6827ZM37.9967 0L6 31.9967L15.8461 41.8427L57.6827 0H37.9967Z" fill="white"></path>
  </mask>
  <g mask="url(#mask4_9761_2822)">
    <path d="M20.7676 46.7624L30.6139 36.916L40.4608 46.7624L30.6139 56.6088L20.7676 46.7624Z" fill="#16B9FD"></path>
  </g>
  <path d="M57.6827 29.5321L40.4551 46.7658L57.6827 63.9995H37.9967L20.763 46.7658L37.9967 29.5321H57.6827ZM37.9967 0L6 31.9967L15.8461 41.8427L57.6827 0H37.9967Z" fill="url(#paint1_radial_9761_2822)"></path>
  <defs>
    <linearGradient id="paint0_linear_9761_2822" x1="33.4828" y1="58.5118" x2="40.8159" y2="51.1787" gradientUnits="userSpaceOnUse">
      <stop stop-color="#1A237E" stop-opacity="0.4"></stop>
      <stop offset="1" stop-color="#1A237E" stop-opacity="0"></stop>
    </linearGradient>
    <radialGradient id="paint1_radial_9761_2822" cx="0" cy="0" r="1" gradientUnits="userSpaceOnUse" gradientTransform="translate(7.45194 4.36202) scale(78.2956)">
      <stop stop-color="white" stop-opacity="0.1"></stop>
      <stop offset="1" stop-color="white" stop-opacity="0"></stop>
    </radialGradient>
  </defs>
</svg>
