<svg width="56" height="56" viewBox="0 0 56 56" fill="none" xmlns="http://www.w3.org/2000/svg">
<path fill-rule="evenodd" clip-rule="evenodd" d="M0 27.9999C0 12.561 12.5636 0 28.0017 0C43.439 0 56 12.561 56.0001 27.9999C56.0001 43.4355 43.439 56 28.0017 56C12.5636 56 0 43.4355 0 27.9999ZM2.08749 27.9999C2.08749 42.2872 13.7128 53.9116 28.0017 53.9116C42.2888 53.9116 53.915 42.2872 53.9152 27.9999C53.9152 13.7111 42.2889 2.08573 28.0017 2.08573C13.7128 2.08573 2.08749 13.7111 2.08749 27.9999ZM28.0013 4.38525C14.9585 4.38525 4.38672 14.957 4.38672 28C4.38672 37.3977 9.89051 45.488 17.8373 49.2888L18.5764 35.0068C18.5764 35.0068 17.1861 34.5505 16.8818 34.4019C13.933 33.103 11.7908 29.2784 11.7908 24.3145C11.7908 18.898 15.9915 14.2324 20.0528 14.1939H20.0613H20.0681C24.1302 14.2323 28.3311 18.8978 28.3311 24.3145C28.3311 29.2784 26.1862 33.1014 23.2434 34.4019C23.2203 34.4121 21.5353 35.024 21.5353 35.024L22.3607 50.9039C24.1721 51.3497 26.0555 51.6114 28.0046 51.6114C30.633 51.6114 33.1503 51.1636 35.5121 50.3723L36.2436 36.2202C34.316 35.7963 32.6719 34.5692 31.6413 33.0296C30.3648 31.1173 32.6241 14.1923 32.6241 14.1923H34.0938V30.0747H35.5533V14.1941H37.1495V30.0782H38.6022V14.1941H40.2583V30.0782H41.7159V14.1941H42.8438C42.8438 14.1941 45.1031 31.119 43.8249 33.0313C42.8045 34.5558 41.1758 35.7794 39.2722 36.2135C39.2575 36.2187 39.2435 36.2238 39.2322 36.2279L39.2072 36.2373L39.8429 48.4106C46.8772 44.3209 51.6178 36.7228 51.6178 28.0002C51.6143 14.9572 41.0426 4.38525 28.0013 4.38525ZM15.2471 21.9131C15.3317 21.5687 15.4454 21.2415 15.4505 21.2356C15.4873 21.1066 15.4189 20.975 15.2787 20.8913C15.1455 20.8195 14.9831 20.8562 14.9079 20.9716C14.9079 20.9716 14.7464 21.2288 14.5122 21.6091C14.3218 21.9363 14.0398 22.4592 13.8474 23.1104C13.6807 23.6811 13.4817 24.4399 13.392 25.2892C13.3536 25.7353 13.3449 26.1378 13.3586 26.5521C13.392 27.0246 13.4636 27.4288 13.6004 27.8911C13.642 28.0091 13.6826 28.1267 13.7232 28.2441C14.1358 29.438 14.537 30.599 15.711 31.7457C16.103 32.1484 16.5053 32.4278 16.8045 32.6355L16.8398 32.66L16.9466 32.7352C17.0116 32.778 17.0739 32.8174 17.1354 32.8533C17.3893 32.9866 17.5592 33.0344 17.5901 33.0411C17.7164 33.0753 17.8465 33.0138 17.9002 32.9112C17.9506 32.8036 17.9138 32.6686 17.8088 32.5832C17.8088 32.5832 17.6617 32.4551 17.473 32.2158C17.3588 32.0872 17.2359 31.9077 17.096 31.7035L17.0959 31.7034L17.0407 31.6229C16.9873 31.5453 16.9295 31.463 16.8703 31.3787C16.8016 31.2808 16.7309 31.1802 16.663 31.081C16.1879 30.3558 15.865 29.4136 15.5191 28.4044C15.4077 28.0794 15.2939 27.7474 15.1719 27.4135C15.0737 27.1161 14.9934 26.7307 14.9634 26.4034C14.9234 26.0257 14.9045 25.6618 14.9045 25.3242C14.89 24.5398 14.925 23.8664 14.9934 23.3204C15.0719 22.7044 15.1334 22.2421 15.2471 21.9131Z" fill="url(#paint0_linear_1586_8305)"/>
<defs>
<linearGradient id="paint0_linear_1586_8305" x1="-18.0885" y1="19.2402" x2="20.3919" y2="75.2403" gradientUnits="userSpaceOnUse">
<stop stop-color="#AC5DD9"/>
<stop offset="1" stop-color="#004FC4"/>
</linearGradient>
</defs>
</svg>
