<?xml version="1.0" encoding="UTF-8"?>
<svg xmlns="http://www.w3.org/2000/svg" width="56" height="55" viewBox="0 0 56 55" fill="none">
  <g clip-path="url(#clip0_4585_32522)">
    <path fill-rule="evenodd" clip-rule="evenodd" d="M27.7043 0.960023C21.1903 0.958573 14.8885 3.27545 9.92673 7.49595C4.96498 11.7164 1.66724 17.565 0.623789 23.9949C-0.419666 30.4247 0.85928 37.016 4.2317 42.589C7.60413 48.162 12.8499 52.3529 19.03 54.4115C20.4014 54.6629 20.9043 53.8172 20.9043 53.0857C20.9043 52.3543 20.9043 50.2743 20.9043 47.9772C13.27 49.6457 11.6586 44.7429 11.6586 44.7429C10.4128 41.5772 8.61855 40.7315 8.61855 40.7315C6.12712 39.0286 8.80141 39.0629 8.80141 39.0629C9.6733 39.1797 10.5064 39.4963 11.2359 39.9879C11.9654 40.4795 12.5716 41.1329 13.0071 41.8972C15.4528 46.08 19.4186 44.8686 21.0071 44.1829C21.134 42.7907 21.7541 41.4896 22.7557 40.5143C16.6643 39.8286 10.2528 37.4743 10.2528 26.96C10.2152 24.2334 11.2304 21.5972 13.0871 19.6C12.2474 17.2358 12.3414 14.6402 13.35 12.3429C13.35 12.3429 15.6357 11.6115 20.8928 15.1543C25.3815 13.9241 30.1185 13.9241 34.6071 15.1543C39.8414 11.6115 42.1385 12.3429 42.1385 12.3429C43.1474 14.6395 43.2454 17.2338 42.4128 19.6C44.2582 21.6026 45.2646 24.2371 45.2243 26.96C45.2243 37.4972 38.8128 39.8172 32.71 40.4915C33.3614 41.1595 33.8633 41.9584 34.1825 42.8352C34.5017 43.712 34.6309 44.6467 34.5614 45.5772C34.5614 49.2457 34.5614 52.1943 34.5614 53.0972C34.5614 53.8286 35.0528 54.6857 36.4471 54.4115C42.6197 52.3463 47.8568 48.1534 51.2222 42.5822C54.5877 37.0109 55.8622 30.4243 54.818 23.9997C53.7738 17.5752 50.4789 11.7313 45.5223 7.5126C40.5656 3.29393 34.2703 0.975412 27.7614 0.971451L27.7043 0.960023Z" fill="#181616"></path>
    <path d="M6.59391 43.36C6.52776 43.4477 6.43086 43.507 6.32272 43.5261C6.21457 43.5452 6.10321 43.5226 6.01105 43.4629C5.75963 43.3486 5.62248 43.12 5.70248 42.9486C5.78248 42.7771 6.04534 42.7314 6.28534 42.8457C6.52534 42.96 6.67391 43.1886 6.59391 43.36Z" fill="#181616"></path>
    <path d="M7.99855 44.8914C7.83855 45.04 7.51855 44.9714 7.3014 44.7314C7.08426 44.4914 7.03855 44.1828 7.20998 44.0343C7.3814 43.8857 7.67855 43.9543 7.90712 44.1828C8.13569 44.4114 8.16998 44.7428 7.99855 44.8914Z" fill="#181616"></path>
    <path d="M9.3031 46.8571C9.09739 46.9943 8.75453 46.8571 8.54882 46.56C8.3431 46.2629 8.3431 45.8971 8.54882 45.7486C8.75453 45.6 9.09739 45.7486 9.31453 46.0343C9.53167 46.32 9.52025 46.7086 9.31453 46.8571H9.3031Z" fill="#181616"></path>
    <path d="M11.143 48.7429C10.9602 48.9486 10.5602 48.8914 10.2745 48.6171C9.98874 48.3429 9.88588 47.9543 10.0802 47.7486C10.2745 47.5429 10.663 47.6 10.9602 47.8743C11.2573 48.1486 11.3373 48.5371 11.143 48.7429Z" fill="#181616"></path>
    <path d="M13.7136 49.84C13.6296 49.9833 13.4956 50.0905 13.3375 50.1411C13.1793 50.1917 13.008 50.1822 12.8564 50.1143C12.4793 50 12.2279 49.6914 12.2964 49.4172C12.365 49.1429 12.765 49.0286 13.1536 49.1429C13.5421 49.2572 13.7936 49.5657 13.7136 49.84Z" fill="#181616"></path>
    <path d="M16.4553 50.0457C16.4553 50.32 16.1353 50.56 15.7353 50.56C15.3353 50.56 15.0039 50.3428 14.9925 50.0685C14.981 49.7943 15.3125 49.5543 15.7239 49.5543C16.1353 49.5543 16.4553 49.7714 16.4553 50.0457Z" fill="#181616"></path>
    <path d="M19.053 49.6C19.053 49.8743 18.813 50.16 18.413 50.2286C18.2566 50.2819 18.0857 50.2738 17.9351 50.2059C17.7844 50.138 17.6652 50.0154 17.6016 49.8629C17.6016 49.5886 17.8416 49.3029 18.2301 49.2343C18.6187 49.1657 18.9958 49.3257 19.053 49.6Z" fill="#181616"></path>
  </g>
  <defs>
    <clipPath id="clip0_4585_32522">
      <rect width="56" height="54.8571" fill="white"></rect>
    </clipPath>
  </defs>
</svg>
