<?xml version="1.0" standalone="no"?>
<!DOCTYPE svg PUBLIC "-//W3C//DTD SVG 20010904//EN"
 "http://www.w3.org/TR/2001/REC-SVG-20010904/DTD/svg10.dtd">
<svg version="1.0" xmlns="http://www.w3.org/2000/svg"
 width="1920.000000pt" height="1632.000000pt" viewBox="0 0 1920.000000 1632.000000"
 preserveAspectRatio="xMidYMid meet">

<g transform="translate(0.000000,1632.000000) scale(0.100000,-0.100000)"
fill="#000000" stroke="none">
<path d="M9285 14994 c-519 -32 -820 -75 -1280 -180 -397 -92 -834 -240 -1233
-421 -2112 -953 -3613 -2921 -3966 -5195 -80 -510 -101 -1030 -65 -1568 92
-1387 632 -2753 1518 -3840 224 -275 542 -607 788 -823 1135 -993 2486 -1567
3993 -1699 158 -14 856 -18 1030 -6 1119 77 2213 430 3160 1021 1253 781 2227
1948 2765 3312 234 591 374 1171 447 1840 20 188 23 259 23 685 0 499 -6 597
-56 960 -220 1588 -994 3048 -2194 4139 -985 896 -2221 1489 -3530 1695 -189
30 -375 53 -500 61 -49 4 -101 9 -115 11 -33 6 -709 13 -785 8z m695 -454
c1297 -88 2476 -523 3485 -1284 170 -128 415 -335 415 -350 0 -24 -36 -46
-121 -75 -217 -73 -296 -144 -306 -276 -5 -61 -5 -62 29 -89 20 -14 56 -33 82
-42 58 -20 77 -44 112 -143 l28 -79 128 44 c71 24 134 44 142 44 10 0 17 -38
28 -142 8 -79 12 -146 9 -150 -3 -4 -44 -3 -91 2 -47 6 -137 13 -201 16 -193
11 -251 -21 -367 -201 -35 -55 -76 -112 -90 -128 -34 -35 -92 -52 -237 -68
-135 -14 -124 -2 -149 -154 -9 -55 -19 -107 -22 -116 -3 -11 16 -30 61 -60 35
-24 65 -50 65 -57 0 -23 -33 -132 -41 -132 -4 0 -51 9 -105 20 -194 40 -341
37 -469 -11 -47 -17 -55 -25 -73 -67 -41 -97 -58 -224 -42 -312 27 -149 109
-223 275 -250 53 -9 119 -8 266 1 l197 12 32 73 c54 123 263 427 322 469 24
16 96 19 163 7 70 -14 101 0 179 77 39 39 77 71 83 71 6 0 34 -35 61 -77 27
-43 60 -88 73 -99 13 -12 104 -74 202 -139 172 -114 219 -157 201 -186 -16
-26 -90 -47 -162 -47 -40 1 -75 -2 -78 -5 -9 -8 29 -67 66 -102 29 -27 37 -30
98 -29 49 0 86 8 140 29 l72 29 0 73 c0 53 7 90 25 139 14 36 25 68 25 70 0 2
-60 34 -132 70 -168 84 -213 115 -249 173 -26 40 -84 200 -76 208 2 1 55 4
118 5 100 2 119 0 154 -19 59 -32 226 -183 278 -253 55 -72 69 -116 61 -186
-10 -80 25 -146 136 -257 78 -77 92 -88 106 -76 30 25 56 93 69 182 16 106 40
143 126 194 79 48 85 46 94 -34 15 -150 31 -195 107 -297 l70 -96 118 0 118 0
45 -124 c65 -178 140 -417 132 -424 -11 -12 -269 -6 -345 7 -111 20 -143 34
-249 110 -125 89 -152 102 -222 108 -63 6 -247 -14 -265 -28 -7 -6 -12 -46
-13 -96 -1 -48 -4 -89 -6 -91 -4 -4 -410 116 -651 193 -62 19 -114 42 -117 50
-4 8 -7 65 -8 127 -1 62 -4 137 -7 167 l-5 53 -211 -5 c-288 -7 -402 -29 -686
-133 -101 -37 -110 -39 -225 -38 -66 0 -142 3 -169 6 -115 14 -269 -41 -391
-139 l-60 -49 -5 -164 c-3 -94 -11 -174 -17 -185 -20 -35 -76 -81 -178 -147
-55 -36 -164 -113 -242 -171 -78 -58 -174 -127 -213 -153 -78 -52 -78 -53 -55
-152 20 -84 38 -108 108 -143 l59 -30 -6 -52 c-11 -82 -38 -134 -74 -142 -39
-8 -42 -19 -47 -140 -3 -55 -7 -157 -11 -226 -8 -185 -2 -200 162 -381 36 -40
128 -149 204 -243 131 -162 191 -219 270 -261 46 -24 181 -25 304 -1 62 12
139 17 260 17 94 0 186 4 204 10 19 5 53 27 77 49 50 46 119 71 221 78 l71 5
56 -50 c61 -55 104 -80 182 -105 57 -19 201 -44 294 -51 35 -3 66 -7 68 -10 3
-3 -4 -110 -16 -239 -24 -265 -22 -298 33 -413 18 -39 87 -163 152 -275 65
-112 137 -238 161 -279 58 -100 69 -139 55 -187 -6 -21 -49 -105 -96 -186 -96
-168 -126 -246 -126 -326 1 -74 23 -120 105 -211 100 -111 99 -107 105 -380 7
-275 7 -277 112 -408 38 -48 83 -116 101 -152 l32 -65 1 -170 c1 -197 7 -235
35 -235 10 0 19 -3 19 -7 0 -22 -322 -364 -495 -526 -1041 -972 -2310 -1558
-3707 -1712 -234 -26 -345 -30 -738 -29 -411 0 -551 10 -895 60 -2302 337
-4242 1894 -5075 4074 -454 1188 -541 2529 -244 3770 63 263 198 704 239 779
14 26 14 25 15 -20 l0 -46 66 -28 c111 -47 178 -96 204 -150 l23 -48 -18 -96
c-39 -201 -22 -286 108 -526 89 -167 122 -208 181 -230 44 -16 166 -36 179
-28 11 6 8 142 -3 185 -6 20 -29 63 -51 95 -129 186 -162 252 -193 390 -19 83
-20 142 -5 196 10 38 11 39 47 32 84 -14 104 -50 121 -218 14 -143 36 -199
124 -320 88 -120 176 -255 206 -314 26 -53 26 -77 -1 -155 -37 -106 -25 -144
95 -301 95 -126 149 -156 368 -202 68 -14 151 -33 183 -41 70 -18 101 -9 116
32 10 26 11 26 88 19 42 -4 82 -11 89 -17 6 -5 14 -27 18 -48 8 -50 41 -99 81
-122 17 -10 81 -29 143 -43 196 -43 266 -93 452 -326 92 -114 163 -167 252
-186 34 -7 140 -16 235 -20 95 -3 176 -11 179 -16 3 -5 16 -102 27 -214 l22
-204 -56 -31 c-30 -17 -107 -67 -171 -110 l-116 -78 -6 -152 c-4 -84 -14 -193
-22 -243 -34 -208 -19 -243 219 -517 152 -175 221 -293 255 -435 l18 -77 84
-26 c161 -50 279 -118 433 -250 l76 -65 0 -533 c0 -586 0 -584 59 -597 15 -3
39 -17 52 -31 l23 -25 -34 -132 c-29 -108 -35 -150 -35 -232 0 -89 3 -106 28
-156 15 -31 50 -86 78 -123 96 -127 111 -193 83 -362 -24 -151 -23 -273 5
-345 27 -70 192 -347 268 -449 74 -99 225 -246 296 -289 104 -61 173 -84 278
-89 99 -5 197 10 211 31 12 19 9 75 -6 110 -7 19 -42 58 -76 88 -35 30 -85 75
-113 100 l-49 45 36 180 c21 98 39 189 42 200 5 20 1 21 -95 26 -62 3 -106 10
-116 18 -29 24 -67 98 -61 118 4 11 29 41 57 68 54 52 88 112 89 154 0 26 -12
36 -80 73 -75 41 -86 67 -47 111 17 20 43 30 113 45 171 36 417 141 494 209
27 24 73 86 115 156 39 65 101 156 139 204 186 235 273 382 283 474 5 46 1 65
-26 125 -35 81 -39 132 -15 214 17 56 77 184 92 193 4 2 72 0 151 -6 172 -14
204 -7 303 58 106 71 164 154 193 276 8 35 20 149 26 253 19 338 45 418 188
585 45 52 92 118 105 145 24 50 66 188 66 217 0 18 -75 59 -155 84 -75 23
-128 73 -174 166 -18 37 -51 83 -72 103 l-39 35 -233 0 c-265 0 -308 7 -473
70 -60 24 -151 59 -201 78 -106 40 -97 26 -108 191 -12 172 -60 305 -143 398
l-37 42 -150 5 c-82 3 -175 6 -205 6 l-55 0 -37 73 c-46 89 -168 276 -194 298
-29 24 -166 89 -175 83 -4 -2 -20 -27 -35 -54 l-27 -50 -179 0 -178 0 -88 89
c-124 125 -191 153 -406 167 l-91 5 -42 -63 c-49 -74 -209 -257 -251 -286
l-29 -21 -243 44 c-133 24 -244 46 -246 47 -1 2 -11 129 -20 283 -10 167 -21
285 -28 291 -6 6 -87 25 -180 42 -93 17 -171 34 -174 37 -4 3 22 61 56 128 51
100 63 131 62 169 0 53 -26 128 -44 128 -40 0 -168 -78 -281 -170 -91 -74
-139 -98 -222 -110 -91 -12 -272 5 -290 28 -7 10 -29 49 -49 89 -61 121 -58
228 9 393 82 199 206 345 357 419 167 81 305 101 705 101 l275 0 0 -124 0
-124 123 -52 c67 -29 128 -55 136 -58 11 -4 12 26 6 189 l-7 194 49 46 c26 25
82 75 124 111 69 59 124 100 342 252 71 50 90 77 100 140 3 21 16 57 28 80 55
105 260 332 366 404 32 21 112 70 178 107 178 101 200 118 274 218 84 113 174
200 224 216 44 15 94 8 150 -21 21 -10 45 -17 51 -15 7 3 29 28 50 57 l37 51
-32 12 c-18 7 -64 26 -103 42 l-71 30 -3 56 -3 56 56 21 c109 42 160 28 245
-69 l46 -52 97 11 c84 9 105 16 156 47 33 21 62 43 65 51 3 9 18 12 43 10 36
-3 38 -5 41 -42 6 -71 -5 -103 -41 -112 -32 -8 -32 -9 -32 -73 l0 -64 65 -32
c81 -40 225 -82 306 -90 58 -5 61 -4 67 18 4 13 7 47 7 75 0 65 -18 88 -89
111 -66 22 -92 54 -99 121 -5 54 0 62 58 90 51 25 71 69 77 165 l6 83 -91 62
c-150 103 -161 124 -169 335 l-6 139 -26 -7 c-14 -4 -77 -31 -140 -61 -130
-62 -197 -84 -254 -84 l-40 0 6 68 c4 37 9 103 13 147 l6 80 -198 44 c-271 60
-266 60 -310 21 -20 -17 -60 -43 -90 -58 l-54 -26 0 -71 c-2 -159 -12 -380
-18 -387 -4 -3 -63 -23 -132 -43 -197 -57 -225 -80 -279 -220 -43 -112 -75
-139 -171 -147 l-35 -3 -7 140 c-8 155 -20 211 -46 219 -9 2 -52 7 -96 11
-166 14 -308 90 -354 188 -17 38 -42 148 -42 190 0 11 31 32 89 61 49 25 149
80 222 122 167 96 292 155 423 199 72 25 102 31 105 22 3 -7 14 -46 26 -87
l21 -75 39 -3 c73 -6 105 6 121 44 16 37 38 49 118 65 27 5 51 11 53 13 3 2
-12 35 -33 73 -46 85 -43 103 20 103 25 0 69 5 98 11 46 10 62 20 115 75 34
34 76 70 93 79 34 17 298 65 363 65 58 0 116 -32 177 -96 l53 -56 -64 -37
c-35 -20 -135 -77 -221 -126 -87 -49 -158 -93 -158 -97 0 -12 88 -51 162 -72
103 -30 446 -93 453 -84 1 2 12 31 24 64 39 107 81 133 227 141 l105 6 40 80
c22 44 37 83 32 87 -4 5 -43 23 -87 41 -43 18 -80 37 -81 43 -2 6 -7 59 -10
117 l-7 107 -101 37 c-55 21 -166 68 -247 105 -237 110 -339 134 -480 110
-139 -23 -429 -137 -431 -169 -3 -49 3 -231 8 -258 5 -33 5 -33 -33 -33 -51 1
-116 16 -174 41 l-47 20 -12 69 c-6 38 -11 75 -11 83 0 7 25 31 56 52 50 34
144 130 144 146 0 12 -187 34 -295 34 -61 0 -129 -6 -153 -13 -55 -17 -110
-67 -118 -108 -5 -26 -1 -34 26 -55 77 -58 90 -75 90 -121 0 -69 -3 -70 -147
-80 -97 -7 -130 -13 -138 -25 -5 -8 -19 -29 -30 -46 -35 -54 -73 -68 -177 -68
-107 0 -227 11 -232 20 -2 3 -7 51 -11 107 l-7 101 114 6 c199 11 289 55 379
188 l40 59 -46 20 c-73 31 -95 27 -151 -29 -63 -62 -120 -80 -274 -88 l-115
-5 -79 121 -78 121 -77 1 c-124 3 -203 -1 -256 -13 -52 -11 -166 -64 -219
-101 -35 -24 -176 -157 -176 -166 0 -3 66 -5 147 -3 168 3 173 1 173 -73 0
-31 -8 -53 -31 -84 -17 -24 -28 -45 -26 -47 3 -3 42 0 88 6 188 23 262 7 304
-65 46 -78 45 -79 -112 -72 -75 4 -164 7 -198 7 -60 0 -62 1 -78 35 -9 20 -17
42 -17 51 0 18 -29 30 -155 61 -55 13 -147 39 -205 58 -58 18 -132 36 -164 40
l-59 8 29 21 c161 118 536 334 804 464 619 299 1257 491 1955 587 111 15 399
42 510 48 147 8 583 6 715 -3z"/>
<path d="M12774 12435 c-143 -39 -191 -128 -116 -216 15 -18 64 -56 108 -85
96 -62 136 -101 132 -129 -3 -21 -89 -74 -121 -75 -30 0 -57 -74 -57 -156 l0
-71 61 -7 c93 -9 222 -7 278 5 64 13 128 55 176 113 l38 46 -122 117 c-137
130 -163 171 -201 313 -12 47 -29 102 -37 123 -14 33 -19 37 -52 36 -20 0 -59
-6 -87 -14z"/>
<path d="M12439 12135 c-78 -41 -139 -143 -159 -269 -14 -86 -10 -89 90 -82
74 6 77 7 189 84 131 89 151 111 150 161 -1 64 -20 103 -59 117 -60 21 -158
16 -211 -11z"/>
<path d="M9115 11393 c-11 -3 -36 -20 -55 -39 -34 -32 -114 -69 -130 -59 -15
9 -70 -17 -70 -33 1 -31 38 -100 60 -112 45 -24 88 -4 171 81 48 49 82 77 91
74 15 -6 38 32 38 61 0 25 -54 39 -105 27z"/>
<path d="M8607 11250 c5 -19 6 -20 19 -3 13 17 17 15 53 -27 22 -25 38 -46 36
-48 -2 -2 -29 -9 -60 -17 l-56 -13 6 40 c7 38 6 39 -13 29 -17 -9 -20 -18 -15
-49 3 -20 6 -38 7 -38 4 -5 91 -11 105 -7 20 5 41 56 41 100 0 35 -30 53 -90
53 -33 0 -37 -3 -33 -20z"/>
</g>
</svg>
