<?xml version="1.0" encoding="UTF-8"?>
<svg xmlns="http://www.w3.org/2000/svg" width="43" height="61" viewBox="0 0 43 61" fill="none">
  <path d="M3.87778 55.1836L0 11.2207H42.6101L38.7282 55.1768L21.279 60.0664L3.87778 55.1836Z" fill="#D45732"></path>
  <path d="M21.8242 55.9095L36.1268 52.0518L39.4918 15.3779H21.8242V55.9095Z" fill="#E16D39"></path>
  <path d="M21.4253 31.3285H14.4065L13.9218 25.897H21.4253V20.5928H21.407H8.125L8.25197 22.0158L9.55562 36.6326H21.4253V31.3285Z" fill="#EBEBEB"></path>
  <path d="M21.4257 45.1044L21.4024 45.1106L15.4951 43.5155L15.1175 39.2852H12.247H9.79297L10.5361 47.6135L21.4013 50.6297L21.4257 50.6229V45.1044Z" fill="#EBEBEB"></path>
  <path d="M4.18359 0H6.8791V2.66315H9.34485V0H12.0405V8.06467H9.34496V5.36414H6.87921V8.06467H4.18371V0H4.18359Z" fill="black"></path>
  <path d="M15.5859 2.67436H13.2129V0H20.6557V2.67436H18.2816V8.06467H15.586V2.67436H15.5859Z" fill="black"></path>
  <path d="M21.8359 0H24.6466L26.3756 2.83368L28.1027 0H30.9145V8.06467H28.2301V4.06738L26.3756 6.93482H26.3292L24.4734 4.06738V8.06467H21.8359V0Z" fill="black"></path>
  <path d="M32.2559 0H34.9522V5.39895H38.7428V8.06467H32.2559V0Z" fill="black"></path>
  <path d="M21.4062 31.3281V36.6322H27.9377L27.3221 43.5113L21.4062 45.1081V50.6264L32.2801 47.6127L32.3598 46.7166L33.6063 32.7524L33.7357 31.3281H32.3064H21.4062Z" fill="white"></path>
  <path d="M21.4062 20.5928V23.8871V25.884V25.897H34.2013H34.2183L34.3247 24.7048L34.5664 22.0158L34.6933 20.5928H21.4062Z" fill="white"></path>
</svg>
