<?xml version="1.0" encoding="UTF-8"?>
<svg xmlns="http://www.w3.org/2000/svg" width="54" height="54" viewBox="0 0 54 54" fill="none">
  <g clip-path="url(#clip0_343_1630)">
    <path d="M9.5625 0.00585938H44.4375C49.725 0.00585938 54 4.38958 54 9.81154V44.1891C54 49.6111 49.725 53.9948 44.4375 53.9948H9.5625C4.275 53.9948 0 49.6111 0 44.1891V9.81154C0 4.38958 4.275 0.00585938 9.5625 0.00585938Z" fill="#330000"></path>
    <path d="M26.1 32.3065H17.73L16.02 37.7284C15.975 37.9361 15.795 38.0745 15.5925 38.0514H11.3625C11.115 38.0514 11.0475 37.913 11.115 37.6361L18.36 16.2482C18.4275 16.0175 18.495 15.7637 18.585 15.4868C18.675 15.0023 18.72 14.4947 18.72 13.9871C18.6975 13.8718 18.7875 13.7564 18.9 13.7333H24.7275C24.9075 13.7333 24.9975 13.8026 25.02 13.9179L33.2325 37.6823C33.3 37.9361 33.2325 38.0514 33.0075 38.0514H28.305C28.1475 38.0745 27.99 37.9591 27.945 37.7976L26.1 32.3065ZM19.035 27.6228H24.75C24.615 27.1383 24.435 26.5615 24.2325 25.9616C24.03 25.3387 23.8275 24.6696 23.625 23.9774C23.4 23.2622 23.1975 22.57 22.9725 21.8548C22.7475 21.1395 22.545 20.4704 22.365 19.8013C22.185 19.1553 22.0275 18.5554 21.87 18.0017H21.825C21.6225 18.9938 21.375 19.9859 21.06 20.978C20.7225 22.0855 20.385 23.2391 20.025 24.3927C19.71 25.5694 19.3725 26.6538 19.035 27.6228ZM38.25 17.771C37.5075 17.7941 36.7875 17.4941 36.2475 16.9635C35.73 16.3866 35.46 15.6253 35.4825 14.8408C35.46 14.0564 35.7525 13.318 36.2925 12.7874C36.8325 12.2567 37.5525 11.9799 38.295 11.9799C39.1725 11.9799 39.8475 12.2567 40.3425 12.7874C40.8375 13.3411 41.1075 14.0794 41.085 14.8408C41.1075 15.6253 40.8375 16.3866 40.2975 16.9635C39.78 17.5172 39.015 17.8171 38.25 17.771ZM35.73 37.7976V20.0321C35.73 19.8013 35.82 19.709 36.0225 19.709H40.4775C40.68 19.709 40.77 19.8244 40.77 20.0321V37.7976C40.77 38.0514 40.68 38.1668 40.4775 38.1668H36.0675C35.8425 38.1668 35.73 38.0284 35.73 37.7976Z" fill="#FF9A00"></path>
  </g>
  <defs>
    <clipPath id="clip0_343_1630">
      <rect width="54" height="54" fill="white"></rect>
    </clipPath>
  </defs>
</svg>
