<?xml version="1.0" encoding="UTF-8"?>
<svg xmlns="http://www.w3.org/2000/svg" width="54" height="54" viewBox="0 0 54 54" fill="none">
  <g clip-path="url(#clip0_343_1643)">
    <path d="M49.1048 0H4.89523C2.19164 0 0 2.19164 0 4.89523V49.1048C0 51.8084 2.19164 54 4.89523 54H49.1048C51.8084 54 54 51.8084 54 49.1048V4.89523C54 2.19164 51.8084 0 49.1048 0Z" fill="#DC395F"></path>
    <path d="M18.0467 16.9898C19.8418 16.9898 21.3456 15.5829 21.3456 13.7389C21.3456 11.8961 19.8418 10.4894 18.0467 10.4894C16.2516 10.4894 14.7483 11.8961 14.7483 13.7389C14.7483 15.5827 16.2516 16.9898 18.0467 16.9898ZM11.2069 34.3964C11.013 35.2212 10.9158 36.1117 10.9158 36.8382C10.9158 39.7008 12.4681 41.6012 15.7669 41.6012C18.5028 41.6012 20.7208 39.9765 22.3178 37.3531L21.3426 41.2666H26.7753L29.8803 28.8131C30.6566 25.66 32.1603 24.0233 34.4406 24.0233C36.2354 24.0233 37.3511 25.1396 37.3511 26.9824C37.3511 27.5163 37.3026 28.0978 37.1085 28.7287L35.5075 34.4529C35.2649 35.2777 35.1683 36.1029 35.1683 36.8785C35.1683 39.596 36.7687 41.5837 40.116 41.5837C42.9783 41.5837 45.2581 39.7411 46.5195 35.3264L44.3852 34.5025C43.3179 37.4601 42.3961 37.9948 41.6683 37.9948C40.9406 37.9948 40.5525 37.51 40.5525 36.5404C40.5525 36.1037 40.6499 35.6192 40.7951 35.0358L42.3478 29.459C42.7357 28.1495 42.8814 26.9883 42.8814 25.9214C42.8814 21.7494 40.3586 19.5721 37.3026 19.5721C34.4406 19.5721 31.5296 22.1538 30.0746 24.8709L31.1415 19.994H22.8466L21.6822 24.2895H25.5633L23.1733 33.8577C21.2966 38.0296 17.8493 38.0973 17.4166 38.0005C16.7062 37.8402 16.2518 37.5704 16.2518 36.6473C16.2518 36.1147 16.3489 35.3496 16.5915 34.4272L20.2301 19.994H11.013L9.84863 24.2895H13.6807L11.2069 34.3964Z" fill="white"></path>
  </g>
  <defs>
    <clipPath id="clip0_343_1643">
      <rect width="54" height="54" fill="white"></rect>
    </clipPath>
  </defs>
</svg>
