<?xml version="1.0" encoding="UTF-8"?>
<svg xmlns="http://www.w3.org/2000/svg" width="64" height="64" viewBox="0 0 64 64" fill="none">
  <g clip-path="url(#clip0_9761_2727)">
    <path d="M11.435 32.213L10.24 31.02C6.4 27.18 5.29 21.804 6.656 16.94C2.816 16.085 0 12.672 0 8.57597C0 3.88297 3.84 0.0429688 8.533 0.0429688C12.8 0.0429688 16.3 3.11497 16.98 7.20997C21.588 6.09997 26.623 7.37997 30.207 10.965L30.719 11.477L24.404 17.792L23.892 17.28C21.844 15.232 18.516 15.232 16.468 17.28C14.42 19.328 14.42 22.656 16.468 24.704L30.635 38.87L24.32 45.185L17.664 38.529L11.435 32.213Z" fill="#7AC143"></path>
    <path d="M18.5176 25.216L32.6836 11.05C36.4376 7.29595 41.9006 6.09995 46.6776 7.46695C47.2746 3.28695 50.8576 0.126953 55.1256 0.126953C59.8186 0.126953 63.6586 3.96695 63.6586 8.65995C63.6586 13.012 60.4156 16.596 56.2346 17.108C57.5996 21.888 56.4046 27.263 52.6506 31.018L52.1386 31.53L45.9946 25.215L46.5066 24.703C48.5546 22.655 48.5546 19.327 46.5066 17.279C44.4586 15.231 41.1306 15.231 39.0826 17.279L24.9176 31.445L18.5176 25.216Z" fill="#F9A541"></path>
    <path d="M46.9329 57.0451C42.0689 58.4951 36.6079 57.3851 32.7679 53.5451L32.2559 53.0331L38.5709 46.7181L39.0829 47.2301C41.1309 49.2781 44.4589 49.2781 46.5069 47.2301C48.5549 45.1821 48.5549 41.8541 46.5069 39.8061L32.3399 25.6431L38.6549 19.3281L52.9049 33.5781C56.4889 37.1621 57.7689 42.2821 56.6599 46.9751C60.8399 47.5721 63.9999 51.1551 63.9999 55.4231C63.9999 60.1161 60.1599 63.9561 55.4669 63.9561C51.1999 63.8711 47.7019 60.8841 46.9339 57.0441L46.9329 57.0451Z" fill="#F44321"></path>
    <path d="M44.46 39.2964L30.293 53.4604C26.623 57.1304 21.503 58.3244 16.896 57.2154C16.043 61.0554 12.629 63.8714 8.533 63.8714C3.84 63.8724 0 60.0324 0 55.3404C0 51.3304 2.816 47.9164 6.57 47.0634C5.375 42.2834 6.57 37.1634 10.24 33.4954L10.752 32.9834L17.067 39.2984L16.555 39.8104C14.507 41.8584 14.507 45.1864 16.555 47.2344C18.603 49.2824 21.931 49.2824 23.979 47.2344L38.144 33.0694L44.46 39.2964Z" fill="#5091CD"></path>
  </g>
  <defs>
    <clipPath id="clip0_9761_2727">
      <rect width="64" height="64" fill="white"></rect>
    </clipPath>
  </defs>
</svg>
