<?xml version="1.0" encoding="UTF-8"?>
<svg xmlns="http://www.w3.org/2000/svg" width="64" height="64" viewBox="0 0 64 64" fill="none">
  <g clip-path="url(#clip0_9761_2785)">
    <path d="M4.28811 15.4104C-1.37189 23.5504 -0.671894 34.1384 3.65611 42.8104C3.75611 43.0184 3.86611 43.2224 3.97211 43.4264L4.17211 43.8164C4.21211 43.8924 4.25611 43.9664 4.29811 44.0404C4.37211 44.1804 4.44811 44.3084 4.52411 44.4444L4.93811 45.1524L5.17411 45.5404L5.65411 46.2904L5.85811 46.6064C6.08411 46.9424 6.31411 47.2784 6.55211 47.6064L6.68811 47.7904C6.89427 48.0738 7.10496 48.3538 7.32011 48.6304L7.56011 48.9344L8.14411 49.6544L8.36811 49.9224C8.63411 50.2364 8.90811 50.5484 9.18211 50.8524C9.21011 50.8824 9.22211 50.8924 9.23011 50.9044C9.50181 51.1991 9.77785 51.4898 10.0581 51.7764L10.3241 52.0444L10.9841 52.6924L11.2541 52.9524C11.5511 53.2325 11.8532 53.5072 12.1601 53.7764L13.1521 54.6164L13.4921 54.8884L14.1781 55.4244L14.5441 55.7044L15.3141 56.2564L15.6741 56.5104C15.9201 56.6804 16.1701 56.8424 16.4221 57.0044L16.7461 57.2204C17.1321 57.4655 17.5222 57.7042 17.9161 57.9364L18.2401 58.1364L19.1201 58.6284C19.2801 58.7144 19.4441 58.7964 19.6061 58.8784L20.2341 59.2044L20.3801 59.2744L20.6401 59.3984L21.6361 59.8584L21.8461 59.9524C22.2306 60.1199 22.618 60.2806 23.0081 60.4344L23.2881 60.5464L24.3841 60.9524L24.5241 61.0004C24.9288 61.1398 25.3355 61.2731 25.7441 61.4004L26.0401 61.4884C26.4401 61.6144 26.8721 61.7684 27.3001 61.8444C54.6881 66.8384 62.6401 45.3844 62.6401 45.3844C55.9601 54.0884 44.1001 56.3844 32.8401 53.8284C32.4141 53.7324 32.0001 53.6004 31.5861 53.4764L31.2741 53.3824C30.8692 53.258 30.4665 53.1266 30.0661 52.9884L29.9001 52.9284C29.5437 52.8019 29.189 52.6706 28.8361 52.5344L28.5361 52.4144C28.1495 52.2623 27.7661 52.1023 27.3861 51.9344L27.1561 51.8344L26.1861 51.3824L25.9061 51.2484C25.6541 51.1284 25.4061 50.9944 25.1561 50.8484L24.6561 50.5884C24.3521 50.4284 24.0561 50.2564 23.7561 50.0844L23.4521 49.9144C23.0584 49.6819 22.6683 49.4432 22.2821 49.1984C22.1761 49.1304 22.0721 49.0584 21.9661 48.9884L21.1341 48.4344C21.0421 48.3744 20.9341 48.3064 20.8661 48.2464L20.0781 47.6764L19.7281 47.4124L19.0181 46.8564L18.7021 46.6024L17.8181 45.8564C17.786 45.8283 17.7526 45.8016 17.7181 45.7764L16.7881 44.9304L16.5281 44.6784L15.8641 44.0184L15.6041 43.7584C15.3241 43.4724 15.0521 43.1844 14.8041 42.8904C14.7901 42.8764 14.7761 42.8624 14.7641 42.8464C14.4809 42.5356 14.2035 42.2196 13.9321 41.8984L13.7321 41.6384L13.1321 40.8984L12.9321 40.6244L12.2401 39.7044C5.96411 31.2004 3.72011 19.4444 8.70811 9.80443M21.8681 8.55443C17.7721 14.4484 17.9941 22.3544 21.1881 28.5704C21.7233 29.6181 22.3287 30.6284 23.0001 31.5944C23.6141 32.4744 24.2941 33.5204 25.1081 34.2264C25.4041 34.5524 25.7121 34.8664 26.0281 35.1804L26.2681 35.4204C26.5738 35.7185 26.8865 36.0093 27.2061 36.2924C27.2201 36.3024 27.2301 36.3164 27.2461 36.3264C27.6101 36.6464 27.9781 36.9264 28.3521 37.2424L28.6001 37.4364C28.9753 37.7258 29.3581 38.0052 29.7481 38.2744L29.7821 38.2984C29.9541 38.4184 30.1301 38.5284 30.3061 38.6444C30.3901 38.6984 30.4701 38.7564 30.5541 38.8084C30.8337 38.9878 31.1171 39.1612 31.4041 39.3284L31.5241 39.3984L32.2761 39.7984C32.3641 39.8484 32.4761 39.8904 32.5441 39.9384L33.0701 40.2104C33.0961 40.2244 33.1241 40.2344 33.1501 40.2464C33.5109 40.4261 33.8763 40.5962 34.2461 40.7564L34.4861 40.8564C34.784 40.9829 35.084 41.1043 35.3861 41.2204L35.7701 41.3604C36.044 41.46 36.3193 41.5553 36.5961 41.6464L36.9701 41.7664C37.3641 41.8864 37.7701 42.0464 38.1641 42.1124C59.3101 45.6164 64.1921 29.3124 64.1921 29.3124C59.7921 35.6524 51.2721 38.6724 42.1761 36.3124C41.7741 36.2066 41.3746 36.0913 40.9781 35.9664C40.8581 35.9304 40.7381 35.8904 40.6181 35.8504L39.7781 35.5624L39.3781 35.4224C39.0762 35.3059 38.7761 35.1846 38.4781 35.0584L38.2341 34.9584C37.862 34.7967 37.4939 34.626 37.1301 34.4464L36.5761 34.1664L36.2561 34.0024C36.0208 33.8747 35.7874 33.7433 35.5561 33.6084L35.3881 33.5144C35.102 33.3468 34.8193 33.1734 34.5401 32.9944C34.4541 32.9404 34.3701 32.8804 34.2841 32.8244L33.7341 32.4604C33.3467 32.192 32.9666 31.9132 32.5941 31.6244L32.3341 31.4244C28.3341 28.2804 25.1981 23.9844 23.6981 19.1164C22.1261 14.0664 22.4641 8.39643 25.1881 3.79643M36.6521 3.43043C34.2401 7.00043 34.0001 11.3964 35.6761 15.3204C37.4421 19.4864 41.0621 22.7524 45.2881 24.3204L45.8121 24.5204L46.0441 24.5924L46.7981 24.7924C58.4741 27.0484 61.6381 18.8004 62.4841 17.5864C59.7101 21.5804 55.0481 22.5384 49.3281 21.1504C48.8761 21.0404 48.3801 20.8764 47.9441 20.7224C47.3845 20.5241 46.8358 20.2964 46.3001 20.0404C45.2835 19.5515 44.3181 18.9626 43.4181 18.2824C38.3001 14.4004 35.1201 6.97243 38.4601 0.94043" fill="#0868AC"></path>
  </g>
  <defs>
    <clipPath id="clip0_9761_2785">
      <rect width="64" height="64" fill="white"></rect>
    </clipPath>
  </defs>
</svg>
