<?xml version="1.0" encoding="UTF-8"?>
<svg xmlns="http://www.w3.org/2000/svg" width="64" height="64" viewBox="0 0 64 64" fill="none">
  <g clip-path="url(#clip0_9761_2758)">
    <path d="M39.7551 53.7769C39.5845 53.7773 39.4168 53.7333 39.2683 53.6493C39.1198 53.5654 38.9957 53.4443 38.9081 53.2979L31.4531 40.8629L17.5101 44.6529C17.2978 44.704 17.0745 44.6831 16.8754 44.5935C16.6763 44.5039 16.5126 44.3507 16.4101 44.1579L0.117066 13.5339C0.0417944 13.3937 0.00164278 13.2372 4.93535e-05 13.0781C-0.00154407 12.9189 0.0354682 12.7617 0.107916 12.6199C0.180365 12.4782 0.28609 12.3561 0.416039 12.2641C0.545987 12.1722 0.696286 12.1131 0.854066 12.0919L14.6871 10.2319C14.8781 10.2055 15.0728 10.2358 15.2468 10.319C15.4209 10.4022 15.5666 10.5346 15.6661 10.6999L32.3661 38.5699L51.7721 33.2929L45.3021 24.1529C45.2083 24.0231 45.1476 23.8724 45.1252 23.7138C45.1028 23.5552 45.1194 23.3936 45.1736 23.2429C45.2277 23.0922 45.3178 22.957 45.4361 22.8489C45.5543 22.7409 45.6971 22.6633 45.8521 22.6229L54.9321 20.4769C55.1133 20.4337 55.3031 20.4429 55.4794 20.5032C55.6557 20.5636 55.8113 20.6727 55.9281 20.8179L63.7851 30.6179C63.8876 30.7456 63.9567 30.8968 63.9861 31.0579C64.0155 31.219 64.0043 31.3849 63.9535 31.5405C63.9026 31.6962 63.8138 31.8367 63.695 31.9494C63.5762 32.0621 63.4312 32.1434 63.2731 32.1859L55.0201 34.4359L62.2441 44.6159C62.3328 44.7405 62.3914 44.8841 62.415 45.0353C62.4387 45.1864 62.4268 45.341 62.3803 45.4868C62.3338 45.6325 62.254 45.7654 62.1472 45.875C62.0404 45.9846 61.9096 46.0677 61.7651 46.1179L40.0701 53.7059C39.9694 53.7433 39.8634 53.7639 39.7561 53.7669L39.7551 53.7769ZM33.4271 40.3239L40.1841 51.5919L59.8761 44.6979L52.9981 35.0029L33.4271 40.3239ZM2.52007 13.8419L17.7671 42.5419L30.4221 39.1089L14.3061 12.2749L2.52007 13.8419ZM47.7701 24.2079L53.8221 32.7419L61.3491 30.6949L54.8011 22.5409L47.7701 24.2079Z" fill="#EF533F"></path>
  </g>
  <defs>
    <clipPath id="clip0_9761_2758">
      <rect width="64" height="64" fill="white"></rect>
    </clipPath>
  </defs>
</svg>
