<svg width="46" height="46" viewBox="0 0 46 46" fill="none" xmlns="http://www.w3.org/2000/svg">
<path fill-rule="evenodd" clip-rule="evenodd" d="M37.2179 0H8.74499C3.92273 0 0 3.92319 0 8.74499V37.2183C0 42.0402 3.92273 45.9629 8.74499 45.9629H37.2179C42.0402 45.9629 45.9629 42.0402 45.9629 37.2183V8.74499C45.9629 3.92319 42.0402 0 37.2179 0ZM44.5701 37.2183C44.5701 41.2721 41.2721 44.5701 37.2179 44.5701H8.74499C4.69078 44.5701 1.39281 41.2721 1.39281 37.2183V8.74499C1.39281 4.69078 4.69077 1.39281 8.74499 1.39281H37.2179C41.2721 1.39281 44.5701 4.69077 44.5701 8.74499V37.2183ZM36.0092 5.33918H9.95427C7.40077 5.33918 5.33938 7.40058 5.33938 9.95406V28.6085C5.33938 31.1527 7.40078 33.2234 9.95427 33.2234H36.0092C38.5627 33.2234 40.624 31.1527 40.624 28.6085V9.95406C40.624 7.40058 38.5627 5.33918 36.0092 5.33918ZM28.7016 21.3566L22.3596 25.9621C20.6696 27.1878 18.2833 25.9807 18.2833 23.8822V14.6803C18.2833 12.5818 20.6696 11.3654 22.3689 12.6004L28.7016 17.206C30.1129 18.2274 30.1129 20.3352 28.7016 21.3566ZM17.5035 38.1447H38.535C38.925 38.1447 39.2314 38.451 39.2314 38.8411C39.2314 39.2217 38.925 39.5375 38.535 39.5375H17.5035C17.1971 40.7167 16.12 41.5895 14.8478 41.5895C13.5757 41.5895 12.4986 40.7167 12.1922 39.5375H8.72874C8.33877 39.5375 8.03233 39.2217 8.03233 38.8411C8.03233 38.451 8.33877 38.1447 8.72874 38.1447H12.1922C12.4986 36.9654 13.5757 36.0925 14.8478 36.0925C16.12 36.0925 17.1971 36.9654 17.5035 38.1447Z" fill="url(#paint0_linear_1411_7823)"/>
<defs>
<linearGradient id="paint0_linear_1411_7823" x1="-14.8464" y1="14.8464" x2="14.8464" y2="60.8093" gradientUnits="userSpaceOnUse">
<stop stop-color="#FF3B3B"/>
<stop offset="1" stop-color="#6600CC"/>
</linearGradient>
</defs>
</svg>
