<?xml version="1.0" standalone="no"?>
<!DOCTYPE svg PUBLIC "-//W3C//DTD SVG 20010904//EN"
 "http://www.w3.org/TR/2001/REC-SVG-20010904/DTD/svg10.dtd">
<svg version="1.0" xmlns="http://www.w3.org/2000/svg"
 width="1920.000000pt" height="1551.000000pt" viewBox="0 0 1920.000000 1551.000000"
 preserveAspectRatio="xMidYMid meet">

<g transform="translate(0.000000,1551.000000) scale(0.100000,-0.100000)"
fill="#000000" stroke="none">
<path d="M12250 14330 c-106 -21 -208 -122 -256 -254 l-22 -61 -53 -5 c-101
-9 -170 -79 -204 -205 -21 -75 -40 -84 -68 -32 -10 18 -31 41 -47 50 -47 28
-86 21 -160 -28 -38 -25 -93 -54 -122 -64 -29 -10 -172 -36 -318 -57 l-265
-39 918 -3 c505 -1 1329 -1 1830 0 l912 3 -505 89 -505 89 -60 57 c-112 106
-239 150 -435 150 -101 0 -196 -10 -251 -26 -11 -3 -20 10 -33 53 -59 190
-212 312 -356 283z"/>
<path d="M6215 13787 c-51 -17 -102 -44 -142 -74 -68 -52 -133 -185 -133 -273
l0 -36 -73 -22 c-126 -37 -231 -121 -298 -239 -30 -51 -30 -51 -97 -63 -71
-12 -152 -44 -204 -81 -23 -17 -82 -31 -242 -60 l-211 -37 1930 0 c1062 1
1921 2 1910 4 -11 2 -131 15 -267 29 -262 26 -329 39 -424 81 -32 15 -72 30
-88 35 -42 12 -99 -6 -133 -41 -37 -40 -59 -38 -73 4 -32 98 -125 166 -227
166 -53 0 -53 0 -77 48 -24 47 -88 115 -136 144 -169 103 -413 32 -506 -147
-28 -54 -30 -55 -64 -49 -19 4 -36 8 -38 9 -2 2 12 31 30 66 31 59 33 68 33
168 0 94 -3 112 -27 163 -34 74 -108 147 -183 182 -71 34 -194 45 -260 23z"/>
<path d="M3816 13624 c-3 -9 -6 -37 -6 -62 0 -88 58 -142 150 -142 l41 0 -28
52 c-27 51 -127 168 -143 168 -4 0 -11 -7 -14 -16z"/>
<path d="M16488 13583 c-47 -50 -119 -163 -112 -175 10 -16 93 -2 123 19 35
26 61 79 61 125 0 78 -19 86 -72 31z"/>
<path d="M9862 13145 c-33 -15 -50 -44 -56 -98 -3 -34 10 -96 25 -111 11 -12
40 24 83 104 19 37 44 74 55 84 11 10 18 23 15 27 -8 14 -85 10 -122 -6z"/>
<path d="M9460 11619 c-726 -32 -1409 -432 -1799 -1056 -566 -907 -425 -2075
342 -2823 271 -264 589 -449 952 -554 66 -19 123 -32 128 -29 4 2 7 17 7 32 0
26 -4 28 -102 56 -616 170 -1149 628 -1411 1210 -488 1086 -30 2357 1037 2879
781 383 1694 273 2374 -287 70 -58 73 -59 92 -42 11 10 20 22 20 26 0 14 -158
139 -268 213 -283 189 -588 305 -932 355 -162 24 -249 28 -440 20z"/>
<path d="M14677 11363 c-16 -4 -15 -8 9 -31 14 -15 39 -52 54 -83 16 -31 41
-71 57 -89 l27 -33 13 29 c16 38 16 122 0 154 -22 45 -97 69 -160 53z"/>
<path d="M9385 11174 c-22 -3 -89 -14 -148 -25 -524 -97 -990 -436 -1252 -909
-118 -214 -186 -428 -216 -685 -15 -123 -6 -388 16 -508 123 -670 592 -1208
1237 -1418 70 -23 134 -39 143 -36 8 4 15 17 15 31 0 21 -7 27 -57 41 -973
272 -1524 1287 -1213 2236 115 352 332 654 628 873 501 370 1157 446 1731 200
129 -55 286 -147 391 -231 44 -35 84 -63 88 -63 5 0 16 8 25 18 16 17 15 20
-16 49 -130 123 -393 272 -606 342 -183 61 -315 82 -531 86 -107 1 -213 1
-235 -1z"/>
<path d="M11371 10683 c-21 -18 -21 -18 53 -130 171 -263 284 -561 333 -883
26 -174 23 -474 -6 -649 -137 -817 -694 -1478 -1463 -1740 -117 -39 -128 -45
-128 -67 0 -14 6 -27 13 -30 18 -7 154 37 284 92 273 114 530 290 738 506 127
130 172 186 267 329 244 365 363 741 375 1189 11 387 -59 713 -227 1055 -64
131 -195 345 -211 345 -4 0 -16 -8 -28 -17z"/>
<path d="M2046 10555 c-12 -31 -6 -107 11 -142 11 -24 30 -42 57 -54 42 -19
101 -25 110 -11 7 12 -105 172 -140 199 -28 21 -32 22 -38 8z"/>
<path d="M11053 10365 l-22 -16 33 -52 c50 -79 129 -242 164 -337 193 -539
123 -1102 -199 -1586 -100 -151 -312 -363 -463 -463 -136 -90 -273 -160 -408
-206 -103 -36 -104 -36 -100 -66 2 -16 10 -29 17 -29 27 0 193 63 290 110 740
358 1146 1149 1006 1960 -25 145 -79 315 -142 450 -51 107 -135 250 -147 250
-4 0 -17 -7 -29 -15z"/>
<path d="M4515 10041 c-48 -22 -108 -81 -125 -122 -12 -28 -16 -29 -54 -25
-121 15 -160 16 -240 6 -56 -7 -125 -25 -189 -49 -149 -57 -165 -60 -482 -101
l-290 -38 1280 0 c704 0 1276 1 1270 3 -5 2 -86 11 -180 20 -109 11 -190 24
-225 37 -30 11 -72 26 -93 34 -32 12 -43 12 -70 1 -17 -8 -38 -21 -46 -31 -10
-12 -17 -14 -27 -5 -8 6 -14 17 -14 24 0 22 -52 77 -87 91 -18 8 -48 14 -66
14 -29 0 -37 5 -47 30 -17 42 -90 104 -138 118 -57 17 -131 14 -177 -7z"/>
<path d="M14605 9961 c-52 -23 -96 -74 -125 -145 -21 -50 -27 -56 -52 -56 -63
0 -112 -43 -139 -122 -19 -56 -43 -73 -54 -38 -3 11 -20 27 -36 36 -28 14 -33
14 -67 -6 -107 -60 -139 -69 -312 -96 -96 -14 -177 -28 -179 -30 -2 -2 546 -4
1219 -4 673 0 1221 2 1219 4 -2 2 -153 30 -334 62 l-330 58 -47 43 c-102 93
-233 119 -440 86 -30 -4 -38 -2 -38 10 0 29 -38 104 -71 142 -38 43 -99 75
-144 75 -16 0 -48 -9 -70 -19z"/>
<path d="M6489 9355 c-4 -3 4 -17 16 -29 13 -13 36 -48 50 -77 31 -62 72 -119
85 -119 16 0 32 72 28 122 -7 71 -39 100 -115 106 -32 2 -61 1 -64 -3z"/>
<path d="M12400 8517 c0 -22 44 -85 70 -100 53 -32 153 -17 190 28 12 14 12
18 -1 26 -42 27 -259 66 -259 46z"/>
<path d="M9545 8491 c-88 -40 -112 -99 -88 -213 17 -82 50 -141 93 -163 16 -9
30 -13 30 -9 0 4 6 2 13 -4 21 -17 73 -6 116 24 51 37 68 76 88 211 5 38 2 49
-32 97 -31 45 -44 56 -80 65 -61 15 -94 13 -140 -8z"/>
<path d="M9965 8240 c-4 -6 -11 -7 -17 -4 -7 4 -8 2 -4 -5 6 -9 11 -9 22 0 14
11 18 19 10 19 -3 0 -8 -5 -11 -10z"/>
<path d="M17383 8093 c-26 -28 -63 -76 -82 -107 -39 -65 -33 -80 29 -70 82 15
124 66 124 151 0 80 -14 85 -71 26z"/>
<path d="M2838 7448 l-3 -313 -87 -3 -88 -3 0 -289 0 -290 -60 0 c-57 0 -60
-1 -60 -25 0 -23 -4 -25 -45 -25 l-45 0 0 -55 c0 -30 -4 -56 -10 -56 -5 -1
-16 -2 -22 -3 -7 0 -14 -13 -16 -28 -3 -24 0 -28 22 -28 25 0 26 -3 26 -54 0
-49 -2 -55 -22 -58 -17 -2 -24 -11 -26 -30 -3 -24 0 -28 22 -28 25 0 26 -3 26
-54 0 -49 -2 -55 -22 -58 -17 -2 -24 -11 -26 -30 -3 -24 0 -28 22 -28 25 0 26
-3 26 -54 0 -49 -2 -55 -22 -58 -17 -2 -24 -11 -26 -30 -3 -24 0 -28 22 -28
25 0 26 -2 26 -60 l0 -60 -80 0 -80 0 0 135 c0 112 -2 135 -15 135 -12 0 -15
30 -18 183 l-2 182 -3 -182 -2 -183 -35 0 -35 0 0 89 c0 50 -4 93 -10 96 -6 4
-10 -28 -10 -88 0 -75 -3 -96 -15 -101 -12 -4 -15 -29 -15 -136 l0 -130 -85 0
-85 0 0 -34 c0 -34 1 -35 43 -38 l42 -3 3 -457 2 -458 -135 0 -135 0 0 -35 c0
-32 2 -35 30 -35 l30 0 0 -1580 0 -1580 -260 0 c-167 0 -260 -4 -260 -10 0 -7
2767 -10 8280 -10 5513 0 8280 3 8280 10 0 6 -93 10 -260 10 l-260 0 0 1580 0
1580 30 0 c28 0 30 3 30 35 l0 35 -135 0 -135 0 2 458 3 457 43 3 c41 3 42 4
42 38 l0 34 -85 0 -85 0 0 130 c0 107 -3 132 -15 136 -12 5 -15 26 -15 101 0
60 -4 92 -10 88 -5 -3 -10 -46 -10 -96 l0 -89 -35 0 -35 0 -3 183 -2 182 -3
-182 c-2 -155 -4 -183 -17 -183 -13 0 -15 -22 -15 -135 l0 -135 -80 0 -80 0 0
60 c0 58 1 60 26 60 22 0 25 4 22 28 -2 19 -9 28 -25 30 -21 3 -23 9 -23 58 0
51 1 54 26 54 22 0 25 4 22 28 -2 19 -9 28 -25 30 -21 3 -23 9 -23 58 0 51 1
54 26 54 22 0 25 4 22 28 -2 19 -9 28 -25 30 -21 3 -23 9 -23 58 0 51 1 54 26
54 22 0 25 4 22 28 -2 15 -9 28 -15 28 -7 1 -17 2 -23 3 -5 0 -10 26 -10 56
l0 55 -45 0 c-41 0 -45 2 -45 25 0 24 -3 25 -60 25 l-60 0 0 290 0 289 -87 3
-88 3 -3 313 c-2 304 -3 312 -22 312 -20 0 -20 -7 -20 -315 l0 -315 -85 0 -85
0 0 -290 0 -290 -60 0 c-57 0 -60 -1 -60 -25 0 -23 -4 -25 -45 -25 l-45 0 0
-55 c0 -52 -1 -55 -25 -55 -21 0 -25 -5 -25 -30 0 -25 4 -30 25 -30 24 0 25
-3 25 -55 0 -52 -1 -55 -25 -55 -21 0 -25 -5 -25 -30 0 -25 4 -30 25 -30 25 0
26 -2 23 -57 -3 -54 -5 -58 -25 -55 -20 3 -23 -1 -23 -27 0 -26 4 -31 25 -31
24 0 25 -3 25 -55 0 -52 -1 -55 -25 -55 -21 0 -25 -5 -25 -30 0 -25 4 -30 25
-30 25 0 26 -2 23 -57 l-3 -58 -80 0 -80 0 -3 133 c-2 107 -5 132 -17 132 -12
0 -15 31 -18 183 l-2 182 -3 -182 -2 -183 -35 0 -34 0 -4 98 -3 97 -2 -97 c-2
-79 -5 -98 -17 -98 -12 0 -15 -24 -17 -132 l-3 -133 -82 -3 -83 -3 0 -34 c0
-34 1 -35 40 -35 l40 0 0 -361 0 -360 -37 3 -38 3 -3 58 -3 57 -54 0 -55 0 -2
268 -3 267 -87 3 -88 3 0 44 0 45 -85 0 -85 0 -2 133 c-1 72 -3 113 -5 90 l-4
-43 -85 0 -84 0 -2 43 c-2 23 -5 -158 -8 -403 l-5 -445 -87 -3 -88 -3 0 269
c0 183 4 272 11 279 22 22 -2 33 -69 33 l-67 0 3 -290 3 -290 -56 0 -56 0 3
290 3 290 -65 0 -65 0 3 -290 3 -290 -105 0 -106 0 0 -60 0 -60 -80 0 -81 0 3
-57 3 -58 42 -3 43 -3 2 -667 c2 -367 2 -805 0 -974 l-2 -308 -150 0 -150 0 0
305 0 305 -392 2 -393 3 -3 302 -2 303 -388 2 -387 3 -3 308 -2 307 -390 0
-390 0 -2 243 -3 242 -1735 0 -1735 0 -3 -242 -2 -243 -390 0 -390 0 -2 -307
-3 -308 -392 -3 -393 -2 0 -305 0 -305 -390 0 -390 0 0 -305 0 -305 -110 0
-110 0 0 970 0 970 30 0 c28 0 30 2 30 40 l0 40 45 0 45 0 0 40 0 40 -115 0
-115 0 0 120 0 120 -90 0 -90 0 0 80 0 80 -60 0 -60 0 0 -80 0 -80 -30 0 -30
0 0 170 c0 94 0 173 0 178 0 4 28 10 62 13 l63 6 -62 1 c-60 2 -63 3 -63 27 0
24 3 25 60 25 33 0 60 4 60 10 0 6 -26 10 -59 10 -52 0 -60 3 -66 23 l-8 22
-4 -22 c-4 -19 -11 -23 -39 -23 -21 0 -33 -4 -29 -10 3 -5 19 -10 36 -10 24 0
29 -4 29 -24 0 -21 -5 -25 -37 -29 l-38 -4 38 -1 37 -2 0 -180 0 -180 -35 0
-35 0 0 160 0 160 -227 -2 -228 -3 -3 -157 -3 -158 -79 0 -80 0 0 80 0 80 -55
0 -55 0 0 -80 0 -80 -90 0 -90 0 0 -120 0 -120 -90 0 -90 0 0 345 0 345 40 0
c39 0 40 1 40 35 l0 34 -82 3 -83 3 -3 133 c-1 77 -7 132 -12 132 -6 0 -10 40
-10 95 0 57 -4 95 -10 95 -6 0 -10 -38 -10 -95 l0 -95 -35 0 -35 0 -3 183 -2
182 -3 -182 c-2 -153 -4 -183 -17 -183 -12 0 -15 -24 -17 -132 l-3 -133 -80 0
-80 0 -3 58 c-3 55 -2 57 23 57 21 0 25 5 25 30 0 25 -4 30 -25 30 -24 0 -25
3 -25 55 0 52 1 55 25 55 21 0 25 5 25 31 0 26 -3 30 -22 27 -21 -3 -23 1 -26
55 -3 55 -2 57 23 57 21 0 25 5 25 30 0 25 -4 30 -25 30 -24 0 -25 3 -25 55 0
52 1 55 25 55 21 0 25 5 25 30 0 25 -4 30 -25 30 -24 0 -25 3 -25 55 l0 55
-45 0 c-41 0 -45 2 -45 25 0 24 -3 25 -60 25 l-60 0 0 290 0 290 -85 0 -85 0
0 315 c0 308 0 315 -20 315 -19 0 -20 -8 -22 -312z m12142 -1663 l0 -35 -85 0
-85 0 0 35 0 35 85 0 85 0 0 -35z m-2 -87 l-3 -33 -82 -3 -83 -3 0 36 0 35 86
0 85 0 -3 -32z m-11868 -299 l0 -129 -65 0 -65 0 0 130 0 129 58 3 c31 2 60 2
65 0 4 -2 7 -61 7 -133z m13110 0 l0 -129 -65 0 -65 0 0 128 c0 71 2 131 4
133 2 2 32 2 65 1 l61 -4 0 -129z m-13850 1 l0 -130 -65 0 -65 0 0 130 0 130
65 0 65 0 0 -130z m370 0 l0 -130 -65 0 -65 0 0 130 0 130 65 0 65 0 0 -130z
m735 0 l0 -130 -67 0 -68 0 0 130 0 130 68 0 67 0 0 -130z m12385 0 l0 -130
-67 0 -68 0 0 130 0 130 68 0 67 0 0 -130z m730 0 l0 -130 -65 0 -65 0 0 130
0 130 65 0 65 0 0 -130z m370 0 l0 -130 -65 0 -65 0 0 130 0 130 65 0 65 0 0
-130z m-14590 -415 l0 -135 -65 0 -65 0 0 135 0 135 65 0 65 0 0 -135z m370 0
l0 -135 -65 0 -65 0 0 135 0 135 65 0 65 0 0 -135z m368 3 l-3 -133 -62 -3
-63 -3 0 136 0 135 65 0 66 0 -3 -132z m362 -3 l0 -136 -62 3 -63 3 -3 133 -3
132 66 0 65 0 0 -135z m12388 3 l-3 -133 -62 -3 -63 -3 0 136 0 135 65 0 66 0
-3 -132z m362 -3 l0 -136 -62 3 -63 3 -3 133 -3 132 66 0 65 0 0 -135z m370 0
l0 -135 -65 0 -65 0 0 135 0 135 65 0 65 0 0 -135z m370 0 l0 -135 -65 0 -65
0 0 135 0 135 65 0 65 0 0 -135z m-13252 -167 c3 -32 7 -37 30 -40 23 -2 27
-8 27 -33 0 -29 -2 -30 -47 -33 l-48 -3 0 76 c0 67 2 76 18 73 12 -2 18 -14
20 -40z m11819 -90 c-2 -13 -4 -3 -4 22 0 25 2 35 4 23 2 -13 2 -33 0 -45z
m-13357 -448 l0 -191 -92 3 -93 3 -3 179 c-2 137 1 181 10 188 7 4 50 8 96 8
l82 0 0 -190z m520 0 l0 -191 -92 3 -93 3 -3 175 c-1 96 -1 179 2 186 3 7 37
12 95 13 l91 2 0 -191z m520 0 l0 -190 -90 0 c-65 0 -90 3 -90 13 0 6 0 89 -1
182 0 94 0 173 0 178 1 4 42 7 91 7 l90 0 0 -190z m520 0 l0 -191 -92 3 -93 3
-3 175 c-1 96 -1 179 2 186 3 7 37 12 95 13 l91 2 0 -191z m11925 0 l0 -185
-92 -3 -93 -3 0 191 0 191 93 -3 92 -3 0 -185z m517 10 c-1 -96 -2 -181 -2
-187 0 -10 -25 -13 -90 -13 l-90 0 0 190 0 191 92 -3 92 -3 -2 -175z m523 -10
l0 -185 -92 -3 -93 -3 0 191 0 191 93 -3 92 -3 0 -185z m509 184 c14 -5 16
-32 16 -190 l0 -184 -95 0 -95 0 0 190 0 190 79 0 c44 0 86 -3 95 -6z m-15034
-784 l0 -191 -92 3 -93 3 -3 188 -2 187 95 0 95 0 0 -190z m520 0 l0 -191 -92
3 -93 3 -3 175 c-1 96 0 180 2 187 4 9 31 13 96 13 l90 0 0 -190z m520 0 l0
-190 -90 0 -89 0 -3 174 c-2 95 -2 181 0 190 3 13 18 16 93 16 l89 0 0 -190z
m520 0 l0 -191 -92 3 -93 3 -3 188 -2 187 95 0 95 0 0 -190z m11928 3 l-3
-188 -92 -3 -93 -3 0 191 0 190 95 0 95 0 -2 -187z m514 171 c2 -9 2 -95 0
-190 l-3 -174 -89 0 -90 0 0 190 0 190 89 0 c75 0 90 -3 93 -16z m523 -174 l0
-185 -92 -3 -93 -3 0 191 0 191 93 -3 92 -3 0 -185z m523 3 l-3 -188 -92 -3
-93 -3 0 191 0 190 95 0 95 0 -2 -187z m-15048 -593 l0 -191 -92 3 -93 3 -3
175 c-1 96 0 180 2 187 4 9 31 13 96 13 l90 0 0 -190z m520 0 l0 -191 -92 3
-93 3 -3 175 c-1 96 0 180 2 187 4 9 31 13 96 13 l90 0 0 -190z m520 0 l0
-190 -89 0 c-107 0 -97 -22 -93 213 l3 167 89 0 90 0 0 -190z m520 0 l0 -191
-92 3 -93 3 -3 175 c-1 96 0 180 2 187 4 9 31 13 96 13 l90 0 0 -190z m11925
0 l0 -185 -92 -3 -93 -3 0 191 0 191 93 -3 92 -3 0 -185z m517 23 c4 -235 14
-213 -93 -213 l-89 0 0 190 0 190 90 0 89 0 3 -167z m523 -23 l0 -185 -92 -3
-93 -3 0 191 0 191 93 -3 92 -3 0 -185z m520 0 l0 -185 -92 -3 -93 -3 0 191 0
191 93 -3 92 -3 0 -185z m-15045 -595 l0 -185 -95 0 -95 0 0 185 0 185 95 0
95 0 0 -185z m520 0 l0 -185 -95 0 -95 0 0 185 0 185 95 0 95 0 0 -185z m520
0 l0 -185 -90 0 c-65 0 -90 4 -91 13 -1 9 0 258 1 345 0 9 25 12 90 12 l90 0
0 -185z m520 0 l0 -185 -95 0 -95 0 0 185 0 185 95 0 95 0 0 -185z m11930 0
l0 -185 -95 0 -95 0 0 185 0 185 95 0 95 0 0 -185z m510 173 c1 -87 2 -336 1
-345 -1 -9 -26 -13 -91 -13 l-90 0 0 185 0 185 90 0 c65 0 90 -3 90 -12z m530
-173 l0 -185 -95 0 -95 0 0 185 0 185 95 0 95 0 0 -185z m520 0 l0 -185 -95 0
-95 0 0 185 0 185 95 0 95 0 0 -185z m-15050 -595 l0 -191 -92 3 -93 3 -3 188
-2 187 95 0 95 0 0 -190z m520 0 l0 -191 -92 3 -93 3 -3 175 c-1 96 0 180 2
187 4 9 31 13 96 13 l90 0 0 -190z m520 0 l0 -190 -89 0 c-75 0 -90 3 -93 16
-2 9 -2 95 0 190 l3 174 89 0 90 0 0 -190z m520 0 l0 -191 -92 3 -93 3 -3 188
-2 187 95 0 95 0 0 -190z m11928 3 l-3 -188 -92 -3 -93 -3 0 191 0 190 95 0
95 0 -2 -187z m514 13 c2 -95 2 -181 0 -190 -3 -13 -18 -16 -93 -16 l-89 0 0
190 0 190 90 0 89 0 3 -174z m523 -16 l0 -185 -92 -3 -93 -3 0 191 0 191 93
-3 92 -3 0 -185z m523 3 l-3 -188 -92 -3 -93 -3 0 191 0 190 95 0 95 0 -2
-187z"/>
<path d="M4237 7436 c-59 -64 -80 -119 -80 -209 0 -43 3 -81 7 -84 10 -11 62
45 91 98 30 57 43 144 28 199 l-10 35 -36 -39z"/>
<path d="M9954 7194 c-17 -7 -4 -64 15 -64 30 0 44 16 37 44 -6 25 -24 31 -52
20z"/>
<path d="M9256 7164 c-12 -30 -6 -42 23 -46 29 -4 40 9 41 50 0 18 -57 15 -64
-4z"/>
<path d="M5935 6734 c-20 -19 -38 -48 -41 -63 l-6 -27 -96 0 c-103 1 -138 -10
-192 -59 -20 -18 -58 -28 -185 -50 -88 -15 -173 -31 -190 -35 -16 -5 290 -8
680 -8 700 0 709 1 610 17 -61 11 -120 28 -153 44 l-52 28 -25 -26 -26 -25 -9
26 c-6 14 -10 29 -10 33 0 15 -47 51 -68 51 -15 0 -29 14 -48 51 -48 88 -126
106 -189 43z"/>
<path d="M13129 6755 c-14 -7 -37 -36 -53 -64 -20 -38 -33 -51 -50 -51 -28 0
-50 -23 -71 -72 l-15 -37 -25 25 -26 25 -47 -26 c-31 -18 -82 -33 -152 -45
l-105 -18 715 0 c393 0 699 3 680 8 -19 4 -107 20 -195 35 -127 22 -165 32
-185 50 -54 49 -89 60 -192 59 l-96 0 -6 27 c-3 15 -21 44 -41 63 -28 29 -43
36 -73 36 -20 -1 -48 -7 -63 -15z"/>
<path d="M9060 6735 c0 -23 4 -25 40 -25 23 0 55 8 73 17 l32 17 -40 7 c-22 4
-55 8 -72 8 -29 1 -33 -2 -33 -24z"/>
<path d="M10090 6732 c0 -14 80 -34 125 -30 30 2 41 8 43 22 3 15 0 17 -14 10
-24 -11 -113 -11 -136 0 -11 5 -18 4 -18 -2z"/>
<path d="M9055 6668 c-2 -7 -5 -22 -7 -33 -3 -19 -12 -20 -136 -23 l-132 -3 0
-44 c0 -24 5 -47 10 -50 6 -4 10 -80 10 -196 l0 -189 188 0 c104 0 223 -3 265
-6 l77 -7 0 -61 c0 -34 9 -178 20 -321 20 -245 20 -262 4 -297 -16 -35 -16
-39 0 -63 22 -34 59 -41 125 -24 l56 14 13 135 c8 86 11 197 7 305 -5 161 -3
186 36 473 23 166 44 300 46 298 3 -2 20 -118 40 -258 30 -219 34 -278 33
-438 0 -102 5 -241 11 -310 7 -69 11 -149 11 -177 l-2 -53 68 0 c89 0 139 25
133 66 -2 16 -5 162 -7 324 -3 239 1 354 19 605 13 171 21 314 19 319 -3 5
-64 6 -141 3 -136 -6 -433 6 -484 18 -26 7 -27 5 -27 -30 0 -45 -20 -43 -32 3
-7 27 -13 32 -38 32 -17 0 -30 -4 -30 -10 0 -5 12 -10 26 -10 21 0 25 -4 22
-22 -3 -22 -8 -23 -95 -26 l-93 -3 0 26 c0 21 5 25 30 25 17 0 30 5 30 10 0
15 -70 12 -75 -2z m-135 -163 c0 -24 -5 -35 -15 -35 -10 0 -15 11 -15 35 0 24
5 35 15 35 10 0 15 -11 15 -35z"/>
<path d="M7186 5389 c-25 -20 -120 -151 -132 -184 -5 -12 3 -15 37 -15 58 0
108 27 131 70 25 47 24 150 -2 150 -4 0 -19 -9 -34 -21z"/>
<path d="M13126 4859 c-56 -61 -76 -112 -76 -194 0 -97 8 -105 54 -54 56 61
76 112 76 194 0 97 -8 105 -54 54z"/>
</g>
</svg>
