<?xml version="1.0" encoding="UTF-8"?>
<svg xmlns="http://www.w3.org/2000/svg" width="64" height="64" viewBox="0 0 64 64" fill="none">
  <g clip-path="url(#clip0_9761_2873)">
    <path d="M31.8007 0.173828L33.5087 3.38183C33.8927 3.97383 34.3087 4.49783 34.7987 4.98583C36.2287 6.41583 37.5867 7.91383 38.8067 9.51783C41.7007 13.3178 43.6527 17.5378 45.0467 22.1018C45.8827 24.8898 46.3367 27.7498 46.3707 30.6418C46.5107 39.2878 43.5467 46.7118 37.5707 52.8818C36.5947 53.8578 35.5507 54.7618 34.4307 55.5658C33.8387 55.5658 33.5587 55.1118 33.3147 54.6938C32.8607 53.9278 32.5827 53.0538 32.4427 52.1838C32.2327 51.1378 32.0947 50.0918 32.1627 49.0118V48.5238C32.1147 48.4198 31.5927 0.419828 31.8007 0.173828Z" fill="#599636"></path>
    <path d="M31.7992 0.0678295C31.7292 -0.0721705 31.6592 0.0338295 31.5892 0.101829C31.6232 0.801829 31.3792 1.42583 30.9972 2.02183C30.5772 2.61383 30.0212 3.06783 29.4632 3.55583C26.3632 6.23983 23.9232 9.48183 21.9692 13.1078C19.3692 17.9878 18.0292 23.2178 17.6492 28.7238C17.4752 30.7098 18.2772 37.7178 18.9032 39.7398C20.6112 45.1078 23.6792 49.6058 27.6532 53.5098C28.6292 54.4498 29.6732 55.3218 30.7532 56.1598C31.0672 56.1598 31.1012 55.8798 31.1732 55.6718C31.3108 55.2268 31.4158 54.7722 31.4872 54.3118L32.1872 49.0838L31.7992 0.0678295Z" fill="#6CAC48"></path>
    <path d="M33.5079 57.6904C33.5779 56.8904 33.9619 56.2264 34.3799 55.5644C33.9599 55.3904 33.6479 55.0444 33.4039 54.6584C33.1939 54.3104 33.0199 53.8924 32.8839 53.5084C32.3959 52.0444 32.2919 50.5084 32.1519 49.0124V48.1064C31.9779 48.2464 31.9419 49.4304 31.9419 49.6064C31.8401 51.1876 31.6303 52.7599 31.3139 54.3124C31.2099 54.9404 31.1399 55.5664 30.7539 56.1244C30.7539 56.1944 30.7539 56.2644 30.7879 56.3684C31.4159 58.2164 31.5879 60.0984 31.6939 62.0164V62.7164C31.6939 63.5524 31.6599 63.3764 32.3539 63.6564C32.6339 63.7604 32.9459 63.7964 33.2259 64.0044C33.4359 64.0044 33.4699 63.8304 33.4699 63.6904L33.3659 62.5404V59.3324C33.3319 58.7724 33.4359 58.2164 33.5059 57.6924L33.5079 57.6904Z" fill="#C2BFBF"></path>
  </g>
  <defs>
    <clipPath id="clip0_9761_2873">
      <rect width="64" height="64" fill="white"></rect>
    </clipPath>
  </defs>
</svg>
