<?xml version="1.0" encoding="UTF-8"?>
<svg xmlns="http://www.w3.org/2000/svg" width="64" height="64" viewBox="0 0 64 64" fill="none">
  <g clip-path="url(#clip0_9761_2866)">
    <path fill-rule="evenodd" clip-rule="evenodd" d="M58.9525 49.8529C55.4716 49.7559 52.7713 50.1127 50.5079 51.0648C49.8562 51.3265 48.8104 51.3265 48.7246 52.1468C49.0729 52.4909 49.1148 53.0542 49.4202 53.5312C49.9421 54.397 50.8572 55.5634 51.6835 56.1683L54.4688 58.1588C56.1662 59.1962 58.0813 59.8021 59.7349 60.8405C60.6929 61.4464 61.6499 62.225 62.6079 62.8745C63.0957 63.2207 63.3913 63.784 64.0011 63.9992V63.8683C63.6967 63.4805 63.6089 62.9182 63.3055 62.4838L61.9982 61.2302C60.7368 59.5433 59.1691 58.0715 57.4716 56.8616C56.0784 55.9095 53.0327 54.6123 52.4669 53.0125L52.381 52.9156C53.3371 52.8186 54.4688 52.4822 55.3838 52.2224C56.8648 51.8346 58.213 51.9199 59.7349 51.5311L61.8255 50.9251V50.5373C61.0422 49.7588 60.4763 48.7205 59.65 47.9855C57.4306 46.0824 54.9917 44.2219 52.4669 42.6648C51.1177 41.8 49.3763 41.2367 47.9402 40.5028C47.4163 40.2429 46.5471 40.113 46.2427 39.6806C45.4574 38.7305 45.0233 37.4749 44.4574 36.3493L40.8888 28.8229C40.1054 27.1359 39.6254 25.4489 38.6694 23.8919C34.1856 16.538 29.3097 12.0831 21.8232 7.71342C20.2135 6.80498 18.2984 6.41426 16.2624 5.93919L12.9981 5.76468C12.3006 5.46218 11.605 4.64003 10.9953 4.25028C8.51441 2.69322 2.11563 -0.680727 0.286436 3.76552C-0.889129 6.57714 2.02783 9.34513 3.01803 10.7732C3.75947 11.768 4.71553 12.8926 5.23941 14.0173C5.53208 14.7522 5.62965 15.5317 5.935 16.3102C6.63058 18.2134 7.28422 20.3337 8.19833 22.108C8.68612 23.0164 9.19829 23.9695 9.80802 24.7906C10.1563 25.2754 10.766 25.4829 10.8958 26.2614C10.286 27.1272 10.2441 28.4234 9.89582 29.5064C8.32808 34.3948 8.93781 40.4504 11.1572 44.0493C11.8548 45.1303 13.4986 47.5105 15.7288 46.6011C17.6877 45.8225 17.2507 43.357 17.8165 41.194C17.9482 40.6753 17.8604 40.3292 18.1209 39.9821V40.0791L19.9062 43.6692C21.2554 45.7886 23.6065 47.9952 25.5645 49.467C26.6084 50.2455 27.4356 51.5873 28.741 52.0624V51.9315H28.6551C28.3937 51.5437 28.0015 51.3692 27.6532 51.0667C26.8698 50.2882 25.9996 49.3361 25.3899 48.4713C23.5626 46.0494 21.9529 43.3667 20.5159 40.5987C19.8184 39.2579 19.2086 37.7871 18.6448 36.4463C18.3814 35.9266 18.3814 35.1471 17.9472 34.8892C17.2936 35.8393 16.3375 36.6634 15.8566 37.8307C15.0293 39.6903 14.9434 41.9832 14.6391 44.3624C14.4635 44.4061 14.5415 44.3624 14.4635 44.4594C13.0723 44.1142 12.5923 42.6852 12.0704 41.4752C10.7651 38.4037 10.5465 33.4727 11.6782 29.9252C11.9826 29.0168 13.2898 26.1615 12.7679 25.2967C12.5045 24.4746 11.6362 23.9995 11.1563 23.3499C10.5904 22.5278 9.98265 21.4904 9.59046 20.5819C8.5466 18.1581 8.02467 15.4774 6.89203 13.0545C6.36815 11.9299 5.45502 10.7616 4.71456 9.72422C3.88728 8.55594 2.97511 7.73378 2.32148 6.35027C2.10393 5.86551 1.79955 5.09571 2.14783 4.57604C2.23368 4.22992 2.40928 4.09128 2.75561 4.01371C3.32144 3.52895 4.93308 4.14363 5.49891 4.40153C7.10861 5.05111 8.45783 5.65609 9.80704 6.56357C10.4168 6.99597 11.0704 7.81813 11.8538 8.03531H12.7689C14.162 8.3378 15.7278 8.13226 17.0321 8.52007C19.3394 9.25691 21.4281 10.337 23.3012 11.5062C29.0024 15.0964 33.7047 20.2009 36.8811 26.3012C37.4031 27.2959 37.6206 28.2043 38.1006 29.2427C39.0157 31.363 40.1474 33.5251 41.0595 35.6028C41.9746 37.6359 42.8448 39.7136 44.1501 41.4005C44.8038 42.309 47.4144 42.784 48.589 43.2601C49.4602 43.6479 50.8084 43.9969 51.5937 44.472C53.0727 45.3804 54.5527 46.4188 55.9448 47.4135C56.6404 47.9313 58.8179 49.0133 58.9476 49.8761L58.9525 49.8529ZM14.5639 12.2624C13.9626 12.2571 13.3631 12.3298 12.7806 12.4786V12.5756H12.8664C13.2147 13.2678 13.8245 13.7439 14.2596 14.3498L15.2615 16.4265L15.3473 16.3296C15.9571 15.8972 16.2624 15.2049 16.2624 14.1675C16.001 13.8651 15.958 13.5616 15.7405 13.2591C15.479 12.8267 14.9132 12.6095 14.5639 12.2644V12.2624Z" fill="#00678C"></path>
  </g>
  <defs>
    <clipPath id="clip0_9761_2866">
      <rect width="64" height="64" fill="white"></rect>
    </clipPath>
  </defs>
</svg>
