<?xml version="1.0" encoding="UTF-8"?>
<svg xmlns="http://www.w3.org/2000/svg" width="61" height="61" viewBox="0 0 61 61" fill="none">
  <g clip-path="url(#clip0_9761_2794)">
    <path d="M28.5024 0.0164153C28.3713 0.0283393 27.9539 0.0700731 27.5782 0.099883C18.9142 0.880902 10.7987 5.55509 5.65875 12.7393C2.79658 16.7338 0.965982 21.2649 0.274291 26.0643C0.0298143 27.7396 0 28.2345 0 30.506C0 32.7775 0.0298143 33.2723 0.274291 34.9476C1.93196 46.4006 10.0832 56.0232 21.1383 59.5885C23.118 60.2264 25.205 60.6617 27.5782 60.924C28.5024 61.0253 32.4976 61.0253 33.4218 60.924C37.5183 60.4709 40.9887 59.4573 44.4113 57.7105C44.9361 57.4422 45.0374 57.3706 44.9659 57.311C44.9182 57.2753 42.6821 54.2764 39.9988 50.6515L35.1212 44.0635L29.0093 35.0192C25.6462 30.0469 22.8795 25.9808 22.8556 25.9808C22.8318 25.9749 22.8079 29.9932 22.796 34.8999C22.7781 43.4912 22.7721 43.837 22.6648 44.0397C22.5098 44.3318 22.3905 44.451 22.1401 44.5822C21.9493 44.6776 21.7823 44.6955 20.8819 44.6955H19.8503L19.576 44.5226C19.3972 44.4093 19.266 44.2603 19.1765 44.0874L19.0513 43.8191L19.0632 31.8653L19.0811 19.9056L19.266 19.6731C19.3614 19.5479 19.5641 19.3869 19.7072 19.3094C19.9517 19.1901 20.0471 19.1782 21.0787 19.1782C22.2951 19.1782 22.4979 19.2259 22.8139 19.5717C22.9033 19.6671 26.2127 24.6513 30.172 30.655C34.1314 36.6587 39.5457 44.8565 42.2051 48.8808L47.035 56.1961L47.2795 56.0352C49.444 54.6281 51.7337 52.6249 53.5464 50.5382C57.4044 46.1085 59.8909 40.7069 60.7257 34.9476C60.9702 33.2723 61 32.7775 61 30.506C61 28.2345 60.9702 27.7396 60.7257 26.0643C59.068 14.6113 50.9168 4.98871 39.8617 1.42344C37.9118 0.791472 35.8368 0.356248 33.5112 0.093921C32.9388 0.0343013 28.9974 -0.0312805 28.5024 0.0164153ZM40.9887 18.4628C41.2749 18.6059 41.5074 18.8801 41.5909 19.1663C41.6386 19.3213 41.6505 22.6362 41.6386 30.1065L41.6207 40.8262L39.7305 37.9286L37.8343 35.0311V27.2388C37.8343 22.2009 37.8582 19.369 37.8939 19.2319C37.9893 18.898 38.198 18.6357 38.4843 18.4807C38.7287 18.3555 38.8182 18.3435 39.7543 18.3435C40.6369 18.3435 40.7919 18.3555 40.9887 18.4628Z" fill="black"></path>
  </g>
  <defs>
    <clipPath id="clip0_9761_2794">
      <rect width="61" height="61" fill="white"></rect>
    </clipPath>
  </defs>
</svg>
