<?xml version="1.0" encoding="UTF-8"?>
<svg xmlns="http://www.w3.org/2000/svg" width="64" height="64" viewBox="0 0 64 64" fill="none">
  <path d="M29.3123 0.853852C30.9123 -0.0521476 32.9523 -0.0561476 34.5123 0.853852L58.4003 14.3199C59.8943 15.1599 60.8943 16.8259 60.8803 18.5479V45.5479C60.8903 47.3419 59.7923 49.0438 58.2163 49.8679L34.4563 63.2719C33.6436 63.7209 32.7255 63.9443 31.7973 63.9186C30.8692 63.8929 29.9649 63.6192 29.1783 63.1259L22.0483 59.0059C21.5623 58.7159 21.0163 58.4859 20.6723 58.0159C20.9763 57.6078 21.5163 57.5559 21.9563 57.3759C22.9483 57.0598 23.8563 56.5759 24.7683 56.0639C24.9983 55.9039 25.2803 55.9639 25.5003 56.1079L31.5803 59.6239C32.0143 59.8739 32.4543 59.5438 32.8263 59.3339L56.1563 46.1679C56.4443 46.0279 56.6043 45.7239 56.5803 45.4079V18.6679C56.6123 18.3079 56.4063 17.9799 56.0803 17.8339L32.3803 4.48785C32.2437 4.39339 32.0816 4.34262 31.9156 4.34226C31.7495 4.3419 31.5872 4.39198 31.4503 4.48585L7.78426 17.8599C7.46426 18.0059 7.24426 18.3299 7.28426 18.6899V45.4299C7.25626 45.7459 7.42426 46.0438 7.71426 46.1799L14.0383 49.7499C15.2263 50.3899 16.6843 50.7499 17.9923 50.2799C18.5646 50.0641 19.0574 49.6786 19.4045 49.1749C19.7516 48.6713 19.9364 48.0735 19.9343 47.4619L19.9403 20.8819C19.9123 20.4879 20.2843 20.1619 20.6663 20.2019H23.7063C24.1063 20.1919 24.4203 20.6159 24.3663 21.0119L24.3603 47.7598C24.3623 50.1358 23.3863 52.7199 21.1883 53.8859C18.4803 55.2859 15.1323 54.9919 12.4563 53.6459L5.65626 49.8859C4.05626 49.0859 2.98226 47.3579 2.99226 45.5659V18.5659C2.99891 17.6883 3.24016 16.8285 3.69099 16.0756C4.14182 15.3227 4.78583 14.7041 5.55626 14.2839L29.3123 0.853852ZM36.2003 19.5699C39.6543 19.3699 43.3523 19.4379 46.4603 21.1399C48.8663 22.4439 50.2003 25.1799 50.2443 27.8559C50.1763 28.2159 49.8003 28.4159 49.4563 28.3899C48.4563 28.3879 47.4523 28.4039 46.4483 28.3839C46.0223 28.3999 45.7763 28.0079 45.7223 27.6319C45.4343 26.3519 44.7363 25.0859 43.5323 24.4679C41.6843 23.5419 39.5403 23.5879 37.5243 23.6079C36.0523 23.6879 34.4703 23.8139 33.2243 24.6779C32.2643 25.3339 31.9763 26.6779 32.3183 27.7219C32.6383 28.4879 33.5243 28.7339 34.2463 28.9619C38.4103 30.0499 42.8203 29.9619 46.9063 31.3759C48.5963 31.9599 50.2503 33.0959 50.8303 34.8659C51.5863 37.2379 51.2563 40.0739 49.5703 41.9779C48.2023 43.5459 46.2103 44.3778 44.2203 44.8619C41.5743 45.4519 38.8303 45.4659 36.1443 45.2019C33.6183 44.9139 30.9903 44.2499 29.0403 42.5299C27.3723 41.0818 26.5603 38.8259 26.6403 36.6499C26.6603 36.2819 27.0263 36.0259 27.3803 36.0559H30.3803C30.7843 36.0279 31.0803 36.3759 31.1003 36.7559C31.2863 37.9559 31.7443 39.2559 32.8083 39.9559C34.8603 41.2799 37.4343 41.1879 39.7823 41.2259C41.7283 41.1399 43.9123 41.1138 45.5023 39.8259C46.3423 39.0919 46.5883 37.8659 46.3623 36.8099C46.1163 35.9179 45.1623 35.5038 44.3623 35.2099C40.2523 33.9099 35.7923 34.3819 31.7223 32.9099C30.0703 32.3259 28.4723 31.2219 27.8383 29.5239C26.9523 27.1239 27.3583 24.1499 29.2243 22.3099C31.0243 20.4799 33.6643 19.7739 36.1643 19.5219L36.2003 19.5699Z" fill="#8CC84B"></path>
</svg>
