<?xml version="1.0" encoding="UTF-8"?>
<svg xmlns="http://www.w3.org/2000/svg" width="93" height="93" viewBox="0 0 93 93" fill="none">
  <path d="M28.5379 77.7852C28.4704 77.666 28.4102 77.5428 28.3577 77.4163C27.9952 76.5768 27.8839 75.6503 28.037 74.7489H6.56973L38.4727 18.6048L48.9467 37.0172L51.983 31.644L42.8527 15.5599C42.4152 14.7361 41.7782 14.0352 40.9999 13.5211C40.2216 13.0071 39.3269 12.6963 38.3975 12.6172C37.47 12.6593 36.573 12.961 35.8085 13.4877C35.0439 14.0144 34.4426 14.7452 34.0728 15.5968L1.75272 72.4219C1.26961 73.2242 0.99106 74.1329 0.941578 75.0682C0.892095 76.0034 1.07319 76.9364 1.46894 77.7852C1.96598 78.569 2.67245 79.1981 3.50844 79.6013C4.34443 80.0045 5.27657 80.1657 6.19941 80.0667H33.2698C32.3468 80.1673 31.4141 80.0067 30.5778 79.6034C29.7415 79.2001 29.0338 78.5701 28.5379 77.7852Z" fill="#00C492"></path>
  <path d="M90.7739 72.4207L64.2144 25.6368C63.7787 24.8043 63.1403 24.095 62.3582 23.5742C61.5761 23.0535 60.6754 22.7381 59.7393 22.6572C58.813 22.6974 57.9166 22.9971 57.1525 23.5222C56.3883 24.0473 55.7871 24.7766 55.4175 25.6269L51.9824 31.6428L55.0386 37.0175L59.7677 28.6448L86.0435 74.7477H76.0519C76.1796 75.5097 76.1077 76.2918 75.8433 77.0178C75.7876 77.1783 75.7178 77.3336 75.6347 77.4818L75.5496 77.6521C75.0068 78.4187 74.2835 79.0399 73.4436 79.4606C72.6037 79.8813 71.6731 80.0886 70.734 80.0641H86.3641C87.3033 80.0893 88.2342 79.8824 89.0742 79.4616C89.9142 79.0408 90.6375 78.4193 91.1797 77.6521C91.6078 76.8293 91.7966 75.903 91.7249 74.9784C91.6532 74.0537 91.3237 73.1677 90.7739 72.4207Z" fill="#008776"></path>
  <path d="M75.5524 77.6528L75.6375 77.4825C75.7201 77.3343 75.7894 77.179 75.8447 77.0186C76.1091 76.2925 76.1809 75.5104 76.0532 74.7484C75.9057 73.9265 75.6106 73.1381 75.1821 72.4215L55.0599 37.0168L51.9852 31.6436L48.929 37.0168L28.8139 72.4215C28.4234 73.1467 28.1608 73.9339 28.0378 74.7484C27.8758 75.6477 27.9778 76.5747 28.3315 77.4172C28.3839 77.5438 28.4441 77.667 28.5117 77.7862C29.0089 78.5697 29.7154 79.1985 30.5514 79.6015C31.3874 80.0044 32.3194 80.1654 33.2421 80.0662H70.707C71.6506 80.0942 72.5865 79.8886 73.4315 79.4678C74.2766 79.047 75.0046 78.424 75.551 77.6542L75.5524 77.6528ZM51.9838 42.3914L70.3764 74.747H33.5997L51.9838 42.3914Z" fill="#2D4A5D"></path>
</svg>
