<?xml version="1.0" encoding="UTF-8"?>
<svg xmlns="http://www.w3.org/2000/svg" width="54" height="54" viewBox="0 0 54 54" fill="none">
  <g clip-path="url(#clip0_343_1622)">
    <path d="M9.5625 0.00500488H44.4375C49.725 0.00500488 54 4.38872 54 9.81068V44.1882C54 49.6102 49.725 53.9939 44.4375 53.9939H9.5625C4.275 53.9939 0 49.6102 0 44.1882V9.81068C0 4.38872 4.275 0.00500488 9.5625 0.00500488Z" fill="#001E36"></path>
    <path d="M12.1497 37.8669V14.1256C12.1497 13.9641 12.2172 13.8718 12.3747 13.8718C12.7572 13.8718 13.1172 13.8718 13.6347 13.8488C14.1747 13.8257 14.7372 13.8257 15.3447 13.8026C15.9522 13.7795 16.6047 13.7795 17.3022 13.7565C17.9997 13.7334 18.6747 13.7334 19.3497 13.7334C21.1947 13.7334 22.7247 13.9641 23.9847 14.4486C25.1097 14.8409 26.1447 15.4869 26.9997 16.3406C27.7197 17.0789 28.2822 17.9787 28.6422 18.9708C28.9797 19.9398 29.1597 20.9319 29.1597 21.9702C29.1597 23.9544 28.7097 25.5925 27.8097 26.8845C26.9097 28.1766 25.6497 29.1456 24.1872 29.6994C22.6572 30.2762 20.9697 30.4838 19.1247 30.4838C18.5847 30.4838 18.2247 30.4838 17.9997 30.4607C17.7747 30.4377 17.4597 30.4377 17.0322 30.4377V37.8438C17.0547 38.0053 16.9422 38.1438 16.7847 38.1668H12.4197C12.2397 38.1668 12.1497 38.0746 12.1497 37.8669ZM17.0547 18.3248V26.077C17.3697 26.1001 17.6622 26.1232 17.9322 26.1232H19.1247C20.0022 26.1232 20.8797 25.9847 21.7122 25.7079C22.4322 25.5002 23.0622 25.0618 23.5572 24.485C24.0297 23.9082 24.2547 23.1238 24.2547 22.1086C24.2772 21.3934 24.0972 20.6781 23.7372 20.0552C23.3547 19.4553 22.8147 18.9939 22.1622 18.7401C21.3297 18.394 20.4297 18.2555 19.5072 18.2786C18.9222 18.2786 18.4047 18.2786 17.9772 18.3017C17.5272 18.2786 17.2122 18.3017 17.0547 18.3248ZM43.1997 24.6696C42.5247 24.3005 41.8047 24.0467 41.0397 23.8852C40.2072 23.7006 39.3747 23.5852 38.5197 23.5852C38.0697 23.5622 37.5972 23.6314 37.1697 23.7467C36.8772 23.8159 36.6297 23.9775 36.4722 24.2082C36.3597 24.3928 36.2922 24.6235 36.2922 24.8311C36.2922 25.0388 36.3822 25.2464 36.5172 25.431C36.7197 25.6848 36.9897 25.8924 37.2822 26.0539C37.7997 26.3308 38.3397 26.5846 38.8797 26.8153C40.0947 27.2306 41.2647 27.8074 42.3447 28.4996C43.0872 28.9841 43.6947 29.6301 44.1222 30.4146C44.4822 31.1529 44.6622 31.9604 44.6397 32.791C44.6622 33.8754 44.3472 34.9598 43.7622 35.8596C43.1322 36.7825 42.2547 37.4978 41.2422 37.9131C40.1397 38.3976 38.7897 38.6514 37.1697 38.6514C36.1347 38.6514 35.1222 38.5591 34.1097 38.3514C33.3222 38.213 32.5347 37.9592 31.8147 37.6131C31.6572 37.5208 31.5447 37.3593 31.5672 37.1747V33.1602C31.5672 33.091 31.5897 32.9987 31.6572 32.9525C31.7247 32.9064 31.7922 32.9295 31.8597 32.9756C32.7372 33.5063 33.6597 33.8754 34.6497 34.1061C35.5047 34.3369 36.4047 34.4522 37.3047 34.4522C38.1597 34.4522 38.7672 34.3369 39.1722 34.1292C39.5322 33.9677 39.7797 33.5755 39.7797 33.1602C39.7797 32.8372 39.5997 32.5372 39.2397 32.2373C38.8797 31.9374 38.1372 31.5913 37.0347 31.1529C35.8872 30.7376 34.8297 30.1839 33.8397 29.4917C33.1422 28.9841 32.5572 28.315 32.1297 27.5306C31.7697 26.7923 31.5897 25.9847 31.6122 25.1772C31.6122 24.1851 31.8822 23.2391 32.3772 22.3855C32.9397 21.4626 33.7722 20.7243 34.7397 20.2628C35.7972 19.7091 37.1247 19.4553 38.7222 19.4553C39.6447 19.4553 40.5897 19.5245 41.5122 19.663C42.1872 19.7552 42.8397 19.9398 43.4472 20.1936C43.5372 20.2167 43.6272 20.309 43.6722 20.4013C43.6947 20.4936 43.7172 20.5858 43.7172 20.6781V24.4389C43.7172 24.5312 43.6722 24.6235 43.6047 24.6696C43.4022 24.7158 43.2897 24.7158 43.1997 24.6696Z" fill="#31A8FF"></path>
  </g>
  <defs>
    <clipPath id="clip0_343_1622">
      <rect width="54" height="54" fill="white"></rect>
    </clipPath>
  </defs>
</svg>
