<?xml version="1.0" encoding="UTF-8"?>
<svg xmlns="http://www.w3.org/2000/svg" width="116" height="60" viewBox="0 0 116 60" fill="none">
  <mask id="mask0_9761_2736" style="mask-type:luminance" maskUnits="userSpaceOnUse" x="10" y="5" width="97" height="50">
    <path d="M10 29.9999C10 43.8068 31.5732 55 58.1841 55C84.795 55 106.368 43.8068 106.368 29.9999C106.368 16.1929 84.795 4.99976 58.1841 4.99976C31.5732 4.99976 10 16.1931 10 29.9999Z" fill="white"></path>
  </mask>
  <g mask="url(#mask0_9761_2736)">
    <path d="M10 29.9999C10 43.8068 31.5732 55 58.1841 55C84.795 55 106.368 43.8068 106.368 29.9999C106.368 16.1929 84.795 4.99976 58.1841 4.99976C31.5732 4.99976 10 16.1931 10 29.9999Z" fill="url(#paint0_radial_9761_2736)"></path>
  </g>
  <mask id="mask1_9761_2736" style="mask-type:luminance" maskUnits="userSpaceOnUse" x="7" y="2" width="102" height="56">
    <path d="M7.99219 2.15335H108.376V57.8467H7.99219V2.15335Z" fill="white"></path>
  </mask>
  <g mask="url(#mask1_9761_2736)">
    <path d="M58.1847 53.1436C83.7564 53.1436 104.487 42.7818 104.487 29.9999C104.487 17.2179 83.7564 6.8562 58.1847 6.8562C32.6131 6.8562 11.8828 17.2179 11.8828 29.9999C11.8828 42.7818 32.6131 53.1436 58.1847 53.1436Z" fill="#777BB3"></path>
  </g>
  <mask id="mask2_9761_2736" style="mask-type:luminance" maskUnits="userSpaceOnUse" x="7" y="2" width="102" height="56">
    <path d="M7.99219 2.15335H108.376V57.8467H7.99219V2.15335Z" fill="white"></path>
  </mask>
  <g mask="url(#mask2_9761_2736)">
    <path d="M36.1793 32.8695C38.2819 32.8695 39.8516 32.4871 40.8447 31.7333C41.8272 30.9873 42.5059 29.6943 42.8616 27.891C43.1932 26.2054 43.0669 25.0285 42.4862 24.3933C41.8924 23.7446 40.6087 23.4156 38.6707 23.4156H35.3107L33.4477 32.8697H36.1791L36.1793 32.8695ZM25.1887 44.5153C25.0327 44.5153 24.8846 44.4465 24.7854 44.3276C24.7364 44.2689 24.7011 44.2003 24.6821 44.1266C24.6631 44.0529 24.6609 43.9759 24.6756 43.9013L29.6125 18.8479C29.6357 18.7304 29.6996 18.6245 29.7932 18.5484C29.8869 18.4723 30.0044 18.4307 30.1258 18.4307H40.7661C44.1101 18.4307 46.5991 19.3245 48.1636 21.0928C49.7365 22.8685 50.2222 25.3509 49.6071 28.4704C49.3569 29.7414 48.9264 30.9216 48.328 31.9788C47.7284 33.0368 46.9365 34.0157 45.9735 34.8889C44.8205 35.9533 43.5155 36.7251 42.0982 37.1792C40.7035 37.6274 38.9125 37.8548 36.7744 37.8548H32.466L31.2356 44.0983C31.2124 44.2157 31.1486 44.3216 31.055 44.3978C30.9614 44.4739 30.8438 44.5156 30.7225 44.5156H25.1887V44.5153Z" fill="black"></path>
    <path d="M35.7409 23.9312H38.6701C41.0089 23.9312 41.8216 24.4374 42.0977 24.7391C42.5557 25.24 42.6421 26.2961 42.3477 27.7931C42.017 29.4691 41.4039 30.6574 40.5252 31.3247C39.6255 32.0078 38.163 32.354 36.1787 32.354H34.0811L35.7409 23.9312ZM40.7653 17.915H30.125C29.8823 17.915 29.6472 17.9983 29.46 18.1505C29.2727 18.3028 29.145 18.5145 29.0987 18.7495L24.1618 43.8032C24.1324 43.9526 24.1368 44.1064 24.1748 44.2538C24.2127 44.4012 24.2833 44.5386 24.3814 44.6559C24.4795 44.7733 24.6027 44.8678 24.7421 44.9327C24.8816 44.9976 25.0339 45.0312 25.1881 45.0312H30.7214C30.9641 45.0313 31.1992 44.948 31.3865 44.7957C31.5738 44.6435 31.7015 44.4317 31.7479 44.1967L32.896 38.3704H36.7737C38.9664 38.3704 40.8124 38.1346 42.2599 37.6696C43.7482 37.1926 45.118 36.3838 46.33 35.2658C47.3324 34.3562 48.1599 33.3351 48.7838 32.2307C49.4077 31.1263 49.8591 29.894 50.1201 28.5691C50.7676 25.2852 50.2416 22.6556 48.5569 20.7538C46.8887 18.8702 44.2672 17.9151 40.7657 17.9151M32.8129 33.3855H36.1787C38.4094 33.3855 40.0713 32.9712 41.163 32.142C42.2547 31.3128 42.9915 29.9289 43.3742 27.9896C43.7402 26.1277 43.5736 24.8137 42.8741 24.0481C42.1745 23.2825 40.7723 22.8999 38.6705 22.8999H34.8793L32.813 33.3853M40.7658 18.9463C43.9668 18.9463 46.3019 19.7748 47.7697 21.4319C49.2374 23.0889 49.6792 25.4023 49.0937 28.3721C48.8526 29.5954 48.445 30.7139 47.8711 31.7274C47.2972 32.7409 46.5462 33.6686 45.6191 34.5093C44.5142 35.5292 43.2867 36.2558 41.9361 36.6889C40.5855 37.123 38.8653 37.339 36.774 37.339H32.0344L30.7221 43.9999H25.1888L30.125 18.9463H40.7655" fill="white"></path>
    <path d="M62.2936 37.8543C62.1374 37.8543 61.9895 37.7856 61.8903 37.6666C61.7911 37.5477 61.7505 37.3916 61.7805 37.2403L63.9642 26.1549C64.1719 25.1007 64.1207 24.344 63.8201 24.0243C63.636 23.8289 63.0832 23.5011 61.4487 23.5011H57.4922L54.7465 37.4368C54.7234 37.5543 54.6595 37.6602 54.5659 37.7364C54.4722 37.8125 54.3546 37.8542 54.2333 37.8541H48.7435C48.6664 37.8541 48.5903 37.8373 48.5205 37.8049C48.4508 37.7724 48.3892 37.7252 48.3401 37.6665C48.2911 37.6078 48.2558 37.5392 48.2368 37.4655C48.2178 37.3917 48.2156 37.3148 48.2303 37.2401L53.1672 12.1867C53.1904 12.0693 53.2543 11.9634 53.3479 11.8873C53.4416 11.8112 53.5591 11.7695 53.6805 11.7696H59.1702C59.2473 11.7696 59.3234 11.7864 59.3932 11.8188C59.4629 11.8513 59.5245 11.8985 59.5736 11.9572C59.6226 12.0159 59.6579 12.0845 59.6769 12.1582C59.6959 12.232 59.6981 12.3089 59.6834 12.3836L58.4921 18.4304H62.7483C65.9907 18.4304 68.1892 18.9942 69.4701 20.1542C70.7772 21.3375 71.1828 23.2293 70.6808 25.7785L68.3839 37.4371C68.3607 37.5546 68.2969 37.6606 68.2032 37.7367C68.1096 37.8128 67.992 37.8545 67.8706 37.8545H62.2938L62.2936 37.8543Z" fill="black"></path>
    <path d="M59.1696 11.2542H53.6799C53.4372 11.2542 53.202 11.3374 53.0147 11.4897C52.8274 11.6419 52.6997 11.8537 52.6534 12.0887L47.7164 37.1421C47.687 37.2914 47.6915 37.4453 47.7295 37.5927C47.7674 37.7402 47.838 37.8775 47.9361 37.9948C48.0342 38.1122 48.1574 38.2067 48.2969 38.2716C48.4364 38.3365 48.5887 38.3701 48.7429 38.3701H54.2327C54.4754 38.3701 54.7105 38.2869 54.8978 38.1346C55.0851 37.9823 55.2128 37.7706 55.2592 37.5356L57.9226 24.0171H61.4483C63.08 24.0171 63.4225 24.3608 63.4362 24.3756C63.5352 24.4805 63.6654 24.9669 63.4505 26.0567L61.2668 37.1421C61.2374 37.2914 61.2419 37.4453 61.2799 37.5927C61.3178 37.7402 61.3884 37.8775 61.4865 37.9948C61.5846 38.1122 61.7078 38.2067 61.8473 38.2716C61.9868 38.3365 62.1391 38.3701 62.2933 38.3701H67.8702C68.1129 38.3701 68.348 38.2869 68.5353 38.1346C68.7226 37.9823 68.8504 37.7706 68.8967 37.5356L71.1936 25.8769C71.7327 23.1404 71.2716 21.0873 69.8238 19.7747C68.4422 18.5233 66.1278 17.9149 62.7482 17.9149H59.126L60.1966 12.4822C60.226 12.3328 60.2216 12.1789 60.1836 12.0315C60.1457 11.884 60.0751 11.7467 59.977 11.6293C59.8789 11.5119 59.7557 11.4174 59.6162 11.3525C59.4767 11.2876 59.3243 11.254 59.1701 11.254M59.1701 12.2854L57.8578 18.9462H62.7484C65.8256 18.9462 67.9481 19.476 69.1164 20.5342C70.2848 21.5923 70.6344 23.3085 70.1677 25.6803L67.8707 37.3388H62.2938L64.4775 26.2537C64.7261 24.9927 64.6347 24.1326 64.2032 23.674C63.7717 23.2153 62.8533 22.9857 61.4488 22.9857H57.0608L54.233 37.3388H48.7433L53.6802 12.2854H59.1699" fill="white"></path>
    <path d="M79.3666 32.8695C81.4692 32.8695 83.0389 32.4871 84.032 31.7333C85.0145 30.9873 85.6932 29.6947 86.0491 27.891C86.3807 26.2054 86.2544 25.0285 85.6735 24.3933C85.0797 23.7446 83.796 23.4156 81.858 23.4156H78.498L76.635 32.8697H79.3664L79.3666 32.8695ZM68.3763 44.5153C68.2203 44.5153 68.0722 44.4465 67.973 44.3276C67.924 44.2689 67.8887 44.2003 67.8697 44.1266C67.8506 44.0529 67.8484 43.9759 67.8631 43.9013L72.8 18.8479C72.8232 18.7304 72.8871 18.6245 72.9808 18.5484C73.0744 18.4722 73.192 18.4306 73.3134 18.4307H83.9535C87.2979 18.4307 89.7866 19.3245 91.3513 21.0928C92.9241 22.8685 93.4095 25.3506 92.7948 28.4704C92.5442 29.7414 92.1139 30.9216 91.5152 31.9788C90.9157 33.0368 90.1238 34.0157 89.1608 34.8889C88.0077 35.9533 86.7028 36.7251 85.2855 37.1792C83.8908 37.6274 82.0998 37.8548 79.9617 37.8548H75.6527L74.4229 44.0983C74.3997 44.2158 74.3358 44.3217 74.2421 44.3979C74.1485 44.474 74.0308 44.5157 73.9094 44.5156H68.3761L68.3763 44.5153Z" fill="black"></path>
    <path d="M78.9302 23.9312H81.8594C84.1982 23.9312 85.0109 24.4374 85.2869 24.7391C85.7453 25.24 85.8315 26.2961 85.537 27.793C85.2062 29.4689 84.593 30.6574 83.7144 31.3247C82.8148 32.0078 81.3523 32.354 79.368 32.354H77.2709L78.9302 23.9312ZM83.9546 17.915H73.3143C73.0716 17.915 72.8365 17.9983 72.6492 18.1505C72.462 18.3028 72.3343 18.5145 72.288 18.7495L67.3512 43.8032C67.3218 43.9526 67.3263 44.1064 67.3642 44.2538C67.4022 44.4012 67.4727 44.5386 67.5708 44.6559C67.6689 44.7733 67.7921 44.8678 67.9316 44.9327C68.071 44.9976 68.2233 45.0312 68.3775 45.0312H73.9108C74.1535 45.0313 74.3887 44.948 74.576 44.7957C74.7632 44.6435 74.891 44.4317 74.9373 44.1967L76.0853 38.3704H79.9629C82.1557 38.3704 84.0016 38.1346 85.4492 37.6696C86.9375 37.1926 88.3073 36.3838 89.5196 35.2655C90.522 34.3562 91.3474 33.3351 91.9731 32.2307C92.5987 31.1263 93.0484 29.894 93.3094 28.5691C93.9569 25.285 93.4309 22.6554 91.7462 20.7536C90.078 18.8702 87.4567 17.9151 83.9549 17.9151M76.0023 33.3855H79.368C81.5987 33.3855 83.2606 32.9712 84.3523 32.142C85.444 31.3128 86.1808 29.9289 86.5635 27.9896C86.9298 26.1277 86.7631 24.8137 86.0633 24.0481C85.3636 23.2825 83.9616 22.8999 81.8598 22.8999H78.0686L76.0025 33.3853M83.9551 18.9463C87.156 18.9463 89.4912 19.7748 90.959 21.4319C92.4267 23.0889 92.8685 25.4023 92.2829 28.3721C92.0419 29.5954 91.6343 30.7139 91.0604 31.7274C90.4865 32.7409 89.7355 33.6686 88.8084 34.5093C87.7035 35.5292 86.476 36.2558 85.1254 36.6889C83.7747 37.123 82.0546 37.339 79.9633 37.339H75.2237L73.9113 43.9999H68.3781L73.315 18.9465H83.9553" fill="white"></path>
  </g>
  <defs>
    <radialGradient id="paint0_radial_9761_2736" cx="0" cy="0" r="1" gradientUnits="userSpaceOnUse" gradientTransform="translate(38.93 13.7891) scale(63.2726 62.4071)">
      <stop stop-color="#AEB2D5"></stop>
      <stop offset="0.3" stop-color="#AEB2D5"></stop>
      <stop offset="0.75" stop-color="#484C89"></stop>
      <stop offset="1" stop-color="#484C89"></stop>
    </radialGradient>
  </defs>
</svg>
