<?xml version="1.0" encoding="UTF-8"?>
<svg xmlns="http://www.w3.org/2000/svg" width="701" height="700" viewBox="0 0 701 700" fill="none">
  <path d="M481.853 699.973C474.273 699.97 466.751 698.642 459.628 696.048L43.5031 544.973C35.4144 542.039 27.9836 537.539 21.6364 531.73C15.2892 525.921 10.1501 518.917 6.51357 511.119C2.87699 503.321 0.814288 494.882 0.44357 486.286C0.0728514 477.69 1.4014 469.105 4.35314 461.023L157.053 42.9478C163.021 26.6882 175.184 13.4527 190.882 6.13515C206.581 -1.18242 224.538 -1.98681 240.828 3.89784L656.978 154.973C665.067 157.906 672.498 162.406 678.845 168.215C685.192 174.024 690.331 181.029 693.968 188.827C697.604 196.625 699.667 205.063 700.038 213.66C700.408 222.256 699.08 230.841 696.128 238.923L683.003 274.848C681.279 279.644 678.317 283.9 674.419 287.184C670.52 290.468 665.823 292.663 660.803 293.548C655.878 294.48 650.795 294.095 646.066 292.431C641.338 290.767 637.134 287.884 633.878 284.073C625.578 274.569 615.324 266.969 603.817 261.791C592.31 256.614 579.821 253.981 567.203 254.073H566.878C544.451 253.698 522.79 262.229 506.642 277.796C490.493 293.363 481.175 314.697 480.728 337.123C481.311 359.498 490.725 380.734 506.914 396.192C523.102 411.649 544.75 420.073 567.128 419.623H567.453C573.092 419.606 578.716 419.062 584.253 417.998C589.227 417.009 594.376 417.379 599.158 419.068C603.94 420.757 608.179 423.704 611.428 427.598C614.783 431.539 617.034 436.299 617.951 441.393C618.869 446.487 618.421 451.733 616.653 456.598L543.353 657.298C538.68 669.836 530.284 680.645 519.291 688.273C508.297 695.901 495.234 699.984 481.853 699.973ZM218.578 21.7728C209.63 21.7767 200.898 24.5259 193.562 29.6492C186.226 34.7725 180.638 42.0233 177.553 50.4228L24.8281 468.623C22.864 474.01 21.9812 479.731 22.2301 485.46C22.4791 491.189 23.8549 496.812 26.279 502.009C28.7031 507.205 32.1279 511.873 36.3574 515.744C40.5869 519.616 45.5382 522.616 50.9281 524.573L467.078 675.523C477.94 679.447 489.914 678.91 500.381 674.028C510.848 669.146 518.955 660.317 522.928 649.473L596.228 448.773C596.67 447.533 596.778 446.199 596.541 444.904C596.304 443.61 595.73 442.401 594.878 441.398C594.119 440.457 593.116 439.742 591.979 439.332C590.841 438.922 589.613 438.832 588.428 439.073C581.548 440.396 574.559 441.074 567.553 441.098H567.153C539.017 441.54 511.847 430.835 491.576 411.317C471.304 391.8 459.577 365.056 458.953 336.923C459.368 308.705 470.958 281.803 491.181 262.119C511.404 242.435 538.609 231.576 566.828 231.923H567.228C582.993 231.846 598.588 235.174 612.948 241.681C627.308 248.188 640.092 257.719 650.428 269.623C651.215 270.54 652.232 271.231 653.374 271.627C654.516 272.022 655.742 272.107 656.928 271.873C658.201 271.655 659.392 271.103 660.381 270.272C661.369 269.442 662.119 268.364 662.553 267.148L675.678 231.248C677.646 225.859 678.532 220.135 678.285 214.404C678.038 208.672 676.663 203.046 674.238 197.847C671.814 192.647 668.388 187.977 664.157 184.104C659.925 180.23 654.971 177.229 649.578 175.273L233.403 24.3978C228.652 22.6653 223.635 21.777 218.578 21.7728Z" fill="black"></path>
  <path d="M567.178 387.473C553.682 387.496 540.729 382.157 531.17 372.63C521.61 363.104 516.226 350.169 516.203 336.673C516.18 323.177 521.519 310.224 531.046 300.665C540.573 291.105 553.507 285.721 567.003 285.698C573.691 285.626 580.325 286.897 586.513 289.435C592.701 291.973 598.317 295.726 603.028 300.473C610.165 307.567 615.039 316.617 617.035 326.479C619.03 336.342 618.058 346.575 614.24 355.885C610.422 365.195 603.931 373.165 595.585 378.787C587.24 384.409 577.416 387.432 567.353 387.473H567.178ZM567.178 311.148C560.57 311.355 554.301 314.126 549.7 318.874C545.099 323.622 542.526 329.974 542.526 336.586C542.526 343.197 545.099 349.55 549.7 354.297C554.301 359.045 560.57 361.816 567.178 362.023C573.787 361.816 580.055 359.045 584.656 354.297C589.258 349.55 591.831 343.197 591.831 336.586C591.831 329.974 589.258 323.622 584.656 318.874C580.055 314.126 573.787 311.355 567.178 311.148Z" fill="black"></path>
  <path d="M482.478 680.574C477.311 680.573 472.183 679.668 467.328 677.899L49.228 526.024C38.1441 521.963 29.1264 513.667 24.1571 502.96C19.1878 492.252 18.6738 480.01 22.728 468.924L175.903 48.5485C179.961 37.4769 188.239 28.4628 198.925 23.478C209.611 18.4931 221.837 17.9432 232.928 21.9485L651.028 173.824C656.534 175.814 661.594 178.872 665.917 182.82C670.24 186.769 673.741 191.532 676.221 196.836C678.701 202.139 680.111 207.88 680.37 213.73C680.628 219.579 679.731 225.422 677.728 230.924L664.353 267.474C663.865 268.811 663.035 269.996 661.946 270.913C660.856 271.83 659.546 272.445 658.145 272.698C656.745 272.951 655.302 272.832 653.961 272.354C652.62 271.876 651.428 271.056 650.503 269.974C640.176 258.021 627.383 248.446 613.003 241.908C598.624 235.37 582.999 232.024 567.203 232.099C539.018 231.657 511.809 242.41 491.54 261.999C471.271 281.588 459.597 308.415 459.078 336.599C459.597 364.782 471.271 391.609 491.54 411.198C511.809 430.788 539.018 441.54 567.203 441.099C574.386 441.101 581.552 440.415 588.603 439.049C590.021 438.77 591.489 438.873 592.854 439.348C594.219 439.823 595.433 440.653 596.372 441.752C597.311 442.851 597.941 444.18 598.197 445.603C598.452 447.026 598.325 448.491 597.828 449.849L524.353 651.349C521.202 659.919 515.497 667.317 508.009 672.543C500.521 677.769 491.61 680.572 482.478 680.574ZM217.728 28.3485C210.456 28.3512 203.359 30.5873 197.399 34.7545C191.439 38.9218 186.902 44.819 184.403 51.6485L31.153 472.049C29.5589 476.421 28.8421 481.066 29.0436 485.716C29.2452 490.366 30.361 494.93 32.3275 499.149C34.294 503.367 37.0726 507.157 40.5044 510.301C43.9362 513.446 47.9539 515.883 52.328 517.474L470.428 669.349C479.257 672.547 488.994 672.113 497.504 668.144C506.015 664.175 512.604 656.993 515.828 648.174L588.753 448.174C581.649 449.453 574.446 450.097 567.228 450.099C536.634 450.54 507.114 438.832 485.14 417.541C463.165 396.251 450.529 367.116 450.003 336.524C450.536 305.936 463.174 276.807 485.148 255.522C507.122 234.237 536.639 222.532 567.228 222.974C584.066 222.902 600.726 226.42 616.098 233.291C631.47 240.162 645.201 250.23 656.378 262.824L669.128 227.824C672.323 218.998 671.885 209.265 667.91 200.763C663.935 192.26 656.749 185.682 647.928 182.474L229.828 30.4735C225.95 29.0629 221.855 28.3437 217.728 28.3485Z" fill="#6873CF"></path>
  <path d="M454.553 336.548C455.033 307.143 467.173 279.133 488.303 258.678C509.433 238.223 537.823 226.998 567.228 227.473C583.681 227.398 599.954 230.888 614.929 237.703C629.905 244.517 643.226 254.494 653.978 266.948C654.39 267.427 654.92 267.789 655.516 267.998C656.111 268.207 656.752 268.256 657.372 268.139C657.993 268.023 658.572 267.745 659.051 267.334C659.53 266.923 659.893 266.393 660.103 265.798L673.403 229.323C675.201 224.387 676.009 219.145 675.781 213.897C675.552 208.649 674.293 203.497 672.073 198.735C669.854 193.974 666.718 189.696 662.846 186.147C658.973 182.597 654.439 179.845 649.503 178.048L231.403 26.223C221.466 22.6157 210.505 23.0889 200.915 27.5393C191.326 31.9896 183.888 40.0552 180.228 49.973L26.8781 470.473C25.0803 475.409 24.2725 480.651 24.5006 485.899C24.7288 491.147 25.9885 496.299 28.2079 501.061C30.4272 505.822 33.5628 510.1 37.4354 513.649C41.308 517.199 45.8418 519.951 50.7781 521.748L468.878 673.623C478.837 677.239 489.825 676.757 499.429 672.281C509.033 667.804 516.468 659.701 520.103 649.748L593.578 448.248C593.796 447.647 593.852 446.999 593.739 446.37C593.625 445.741 593.348 445.152 592.934 444.665C592.52 444.178 591.985 443.808 591.382 443.595C590.78 443.381 590.131 443.33 589.503 443.448C582.164 444.877 574.705 445.597 567.228 445.598C537.827 446.073 509.441 434.852 488.312 414.402C467.183 393.952 455.04 365.949 454.553 336.548Z" fill="url(#paint0_linear_7817_37509)"></path>
  <path d="M645.498 353.479L632.752 379.611L669.805 397.683L682.55 371.551L645.498 353.479Z" fill="black"></path>
  <defs>
    <linearGradient id="paint0_linear_7817_37509" x1="350.128" y1="23.798" x2="350.128" y2="676.048" gradientUnits="userSpaceOnUse">
      <stop stop-color="#808DFF"></stop>
      <stop offset="0.298" stop-color="#838FFF"></stop>
      <stop offset="0.478" stop-color="#8B96FF"></stop>
      <stop offset="0.626" stop-color="#99A2FF"></stop>
      <stop offset="0.756" stop-color="#ADB2FF"></stop>
      <stop offset="0.875" stop-color="#C7C8FF"></stop>
      <stop offset="0.9" stop-color="#CECDFF"></stop>
    </linearGradient>
  </defs>
</svg>
