<?xml version="1.0" encoding="UTF-8"?>
<svg xmlns="http://www.w3.org/2000/svg" width="50" height="50" viewBox="0 0 50 50" fill="none">
  <path d="M28.7498 5H9.58329C7.04998 5 5 7.04998 5 9.58329V35.4164C5 37.9497 7.04998 39.9997 9.58329 39.9997H23.1665C21.7665 37.783 20.8332 35.1664 20.8332 32.1664V28.0998C20.5832 28.2498 20.2998 28.3331 19.9998 28.3331H11.6666C10.7499 28.3331 9.99995 27.5831 9.99995 26.6665C9.99995 25.7498 10.7499 24.9998 11.6666 24.9998H19.9998C20.3165 24.9998 20.5998 25.0831 20.8498 25.2331C20.9165 23.8165 21.5832 22.5165 22.6332 21.6665H11.6666C10.7499 21.6665 9.99995 20.9165 9.99995 19.9999C9.99995 19.0832 10.7499 18.3332 11.6666 18.3332H26.6664C27.3664 18.3332 27.9664 18.7665 28.2164 19.3832L32.9664 17.7665C33.0831 17.7165 33.1997 17.6832 33.333 17.6665V9.58329C33.333 7.04998 31.2831 5 28.7498 5ZM18.3332 14.9999H11.6666C10.7499 14.9999 9.99995 14.2499 9.99995 13.3333C9.99995 12.4166 10.7499 11.6666 11.6666 11.6666H18.3332C19.2499 11.6666 19.9998 12.4166 19.9998 13.3333C19.9998 14.2499 19.2499 14.9999 18.3332 14.9999Z" fill="url(#paint0_linear_10302_19902)"></path>
  <path d="M43.8708 23.8984L35.1209 20.9218C34.7724 20.8034 34.3945 20.8034 34.0459 20.9218L25.296 23.8984C24.9665 24.0107 24.6805 24.2233 24.4778 24.5063C24.2752 24.7893 24.1662 25.1286 24.166 25.4767V32.1733C24.166 40.6182 33.5309 44.6982 33.9293 44.8682C34.1365 44.9549 34.3589 44.9994 34.5836 44.9991C34.8082 44.9988 35.0306 44.9538 35.2376 44.8665C35.6359 44.6965 45.0008 40.6182 45.0008 32.1733V25.4767C45.0011 25.1285 44.8923 24.789 44.6896 24.5059C44.4869 24.2227 44.2006 24.0103 43.8708 23.8984ZM40.5009 30.1667L35.5009 36.8333C35.346 37.0407 35.1448 37.2089 34.9133 37.3247C34.6818 37.4405 34.4264 37.5005 34.1676 37.4999C33.9487 37.5004 33.7318 37.4574 33.5296 37.3736C33.3274 37.2898 33.1437 37.1668 32.9893 37.0116L29.656 33.6783C29.5012 33.5236 29.3785 33.3399 29.2947 33.1377C29.211 32.9355 29.1679 32.7188 29.1679 32.5C29.1679 32.2812 29.211 32.0645 29.2947 31.8623C29.3785 31.6601 29.5012 31.4764 29.656 31.3217C29.8107 31.1669 29.9944 31.0442 30.1966 30.9604C30.3988 30.8767 30.6154 30.8336 30.8343 30.8336C31.0531 30.8336 31.2698 30.8767 31.472 30.9604C31.6742 31.0442 31.8579 31.1669 32.0126 31.3217L33.9876 33.2967L37.8342 28.1667C38.0994 27.8131 38.4943 27.5793 38.9318 27.5168C39.1485 27.4858 39.3691 27.4979 39.5812 27.5522C39.7932 27.6065 39.9924 27.7021 40.1675 27.8334C40.3426 27.9647 40.4901 28.1292 40.6016 28.3175C40.7132 28.5059 40.7865 28.7143 40.8174 28.931C40.8484 29.1477 40.8364 29.3683 40.782 29.5803C40.7277 29.7923 40.6322 29.9916 40.5009 30.1667Z" fill="url(#paint1_linear_10302_19902)"></path>
  <defs>
    <linearGradient id="paint0_linear_10302_19902" x1="-4.15183" y1="17.025" x2="21.2688" y2="46.9728" gradientUnits="userSpaceOnUse">
      <stop stop-color="#FDDD48"></stop>
      <stop offset="1" stop-color="#00B7C4"></stop>
    </linearGradient>
    <linearGradient id="paint1_linear_10302_19902" x1="17.4362" y1="29.1359" x2="34.7764" y2="50.8922" gradientUnits="userSpaceOnUse">
      <stop stop-color="#FDDD48"></stop>
      <stop offset="1" stop-color="#00B7C4"></stop>
    </linearGradient>
  </defs>
</svg>
