<?xml version="1.0" encoding="UTF-8"?>
<svg xmlns="http://www.w3.org/2000/svg" width="51" height="50" viewBox="0 0 51 50" fill="none">
  <rect x="0.695709" y="6.43555" width="49.3711" height="15.4302" fill="#FA0F00"></rect>
  <path fill-rule="evenodd" clip-rule="evenodd" d="M5.80566 1.0957H44.9568C45.5091 1.0957 45.9568 1.54342 45.9568 2.0957V4.26953H46.9568V2.0957C46.9568 0.991134 46.0614 0.0957031 44.9568 0.0957031H5.80566C4.70109 0.0957031 3.80566 0.991133 3.80566 2.0957V4.26953H4.80566V2.0957C4.80566 1.54342 5.25338 1.0957 5.80566 1.0957Z" fill="#FA0F00"></path>
  <path fill-rule="evenodd" clip-rule="evenodd" d="M4.80566 24.0312V33.7213C4.80566 34.0466 4.96385 34.3515 5.22974 34.5388L24.7403 48.2839C25.0848 48.5266 25.5445 48.5273 25.8897 48.2856L45.5303 34.5367C45.7976 34.3496 45.9568 34.0438 45.9568 33.7175V24.0312H46.9568V33.7175C46.9568 34.3701 46.6384 34.9817 46.1038 35.3559L26.4632 49.1048C25.7728 49.5882 24.8534 49.5868 24.1644 49.1014L4.65381 35.3563C4.12203 34.9817 3.80566 34.3718 3.80566 33.7213V24.0312H4.80566Z" fill="#FA0F00"></path>
  <path d="M26.4228 24.9927C26.8197 24.9927 27.1791 25.2274 27.3385 25.5909L31.926 36.0482C32.0709 36.3786 31.8289 36.749 31.4681 36.749H28.9003C28.7017 36.749 28.522 36.6316 28.4423 36.4498L25.3856 29.4764L23.4419 33.9086H25.3934C25.5919 33.9086 25.7717 34.0261 25.8514 34.208L26.6576 36.0484C26.8023 36.3788 26.5603 36.749 26.1996 36.749H18.5291L23.424 25.5909C23.5835 25.2274 23.9428 24.9927 24.3398 24.9927H26.4228Z" fill="#FA0F00"></path>
  <path d="M2.84926 16.2793V12.0193H4.42726C5.45926 12.0193 5.90926 12.6193 5.90926 13.4353C5.90926 14.3713 5.28526 14.8213 4.34926 14.8213H3.68326V16.2793H2.84926ZM3.68326 14.0713H4.24126C4.76926 14.0713 5.03326 13.8133 5.03326 13.4173C5.03326 13.0273 4.76926 12.7693 4.27726 12.7693H3.68326V14.0713ZM9.8694 16.2793H8.8734L7.9194 14.8213H7.4274V16.2793H6.5934V12.0193H8.2074C9.2334 12.0193 9.6894 12.6193 9.6894 13.4353C9.6894 14.1193 9.3594 14.5393 8.8134 14.7193L9.8694 16.2793ZM7.4274 12.7693V14.0773H8.0154C8.5374 14.0773 8.8194 13.8133 8.8194 13.4173C8.8194 13.0273 8.5434 12.7693 8.0514 12.7693H7.4274ZM12.3883 16.3273C11.0983 16.3273 10.2163 15.4093 10.2163 14.1493C10.2163 12.8833 11.0983 11.9653 12.3883 11.9653C13.6423 11.9653 14.5543 12.8473 14.5543 14.1493C14.5543 15.4513 13.6423 16.3273 12.3883 16.3273ZM12.3943 15.5413C13.1263 15.5413 13.6783 14.9473 13.6783 14.1493C13.6783 13.3453 13.1263 12.7573 12.3943 12.7573C11.6263 12.7573 11.0923 13.3753 11.0923 14.1493C11.0923 14.9233 11.6263 15.5413 12.3943 15.5413ZM15.318 16.2793V12.0193H18.144V12.7753H16.152V13.9093H17.814V14.6653H16.152V16.2793H15.318ZM18.8453 16.2793V12.0193H21.5693V12.7753H19.6733V13.7953H21.1913V14.5393H19.6733V15.5293H21.6954V16.2793H18.8453ZM23.727 16.3273C23.175 16.3273 22.617 16.1173 22.173 15.6553L22.677 15.0313C22.995 15.4033 23.403 15.5653 23.739 15.5653C24.147 15.5653 24.351 15.3793 24.351 15.1153C24.351 14.8033 24.123 14.6893 23.607 14.5153C22.965 14.2873 22.323 13.9873 22.323 13.1833C22.323 12.4993 22.923 11.9773 23.691 11.9653C24.219 11.9593 24.711 12.1573 25.125 12.5053L24.639 13.1413C24.285 12.8473 23.973 12.7213 23.709 12.7213C23.415 12.7213 23.199 12.8773 23.199 13.1473C23.193 13.4113 23.427 13.5253 23.913 13.7173C24.651 14.0053 25.233 14.1973 25.233 15.0193C25.233 15.9493 24.423 16.3273 23.727 16.3273ZM27.2309 16.3273C26.6789 16.3273 26.1209 16.1173 25.6769 15.6553L26.1809 15.0313C26.4989 15.4033 26.9069 15.5653 27.2429 15.5653C27.6509 15.5653 27.8549 15.3793 27.8549 15.1153C27.8549 14.8033 27.6269 14.6893 27.1109 14.5153C26.4689 14.2873 25.8269 13.9873 25.8269 13.1833C25.8269 12.4993 26.4269 11.9773 27.1949 11.9653C27.7229 11.9593 28.2149 12.1573 28.6289 12.5053L28.1429 13.1413C27.7889 12.8473 27.4769 12.7213 27.2129 12.7213C26.9189 12.7213 26.7029 12.8773 26.7029 13.1473C26.6969 13.4113 26.9309 13.5253 27.4169 13.7173C28.1549 14.0053 28.7369 14.1973 28.7369 15.0193C28.7369 15.9493 27.9269 16.3273 27.2309 16.3273ZM29.4808 16.2793V12.0193H30.3268V16.2793H29.4808ZM33.2887 16.3273C31.9987 16.3273 31.1167 15.4093 31.1167 14.1493C31.1167 12.8833 31.9987 11.9653 33.2887 11.9653C34.5427 11.9653 35.4547 12.8473 35.4547 14.1493C35.4547 15.4513 34.5427 16.3273 33.2887 16.3273ZM33.2947 15.5413C34.0267 15.5413 34.5787 14.9473 34.5787 14.1493C34.5787 13.3453 34.0267 12.7573 33.2947 12.7573C32.5267 12.7573 31.9927 13.3753 31.9927 14.1493C31.9927 14.9233 32.5267 15.5413 33.2947 15.5413ZM38.9664 12.0193H39.8124V16.2793H38.9484L37.0704 13.4533H37.0584V16.2793H36.2184V12.0193H37.0584L38.9604 14.8993H38.9664V12.0193ZM43.4721 16.2793L43.1841 15.4273H41.5461L41.2581 16.2793H40.3761L41.9541 12.0193H42.7641L44.3541 16.2793H43.4721ZM41.7921 14.7073H42.9381L42.3681 13.0333H42.3561L41.7921 14.7073ZM44.9196 16.2793V12.0193H45.7656V15.5293H47.6616V16.2793H44.9196Z" fill="white"></path>
</svg>
