<svg width="44" height="37" viewBox="0 0 44 37" fill="none" xmlns="http://www.w3.org/2000/svg">
<path fill-rule="evenodd" clip-rule="evenodd" d="M29.3337 5.5V3.66667C29.3337 1.6445 27.6892 0 25.667 0H18.3337C16.3115 0 14.667 1.6445 14.667 3.66667V5.5H5.04167C2.255 5.5 0 7.755 0 10.5417V14.74L21.56 21.9267C21.7067 21.9817 21.8533 22 22 22C22.1467 22 22.2933 21.9817 22.44 21.9267L44 14.74V10.5417C44 7.755 41.745 5.5 38.9583 5.5H29.3337ZM18.3337 5.5H25.667V3.66667H18.3337V5.5ZM23.3017 24.5301C22.9717 24.6584 22.495 24.7501 22 24.7501C21.505 24.7501 21.0283 24.6584 20.5883 24.4934L0 17.6367V31.6251C0 34.4117 2.255 36.6667 5.04167 36.6667H38.9583C41.745 36.6667 44 34.4117 44 31.6251V17.6367L23.3017 24.5301Z" fill="url(#paint0_linear_1411_7793)"/>
<defs>
<linearGradient id="paint0_linear_1411_7793" x1="-14.2124" y1="11.8437" x2="7.47866" y2="52.1355" gradientUnits="userSpaceOnUse">
<stop stop-color="#00CFDE"/>
<stop offset="1" stop-color="#05A660"/>
</linearGradient>
</defs>
</svg>
