<?xml version="1.0" encoding="UTF-8"?>
<svg xmlns="http://www.w3.org/2000/svg" width="64" height="64" viewBox="0 0 64 64" fill="none">
  <g clip-path="url(#clip0_9761_2769)">
    <path d="M16.5621 8.83145C16.5621 4.52416 17.7435 2.18097 24.2662 1.06517C28.6945 0.306346 34.3724 0.211493 39.6687 1.06517C43.8519 1.74021 47.3728 4.78658 47.3728 8.83145V23.0421C47.3728 27.2099 43.9544 30.624 39.6687 30.624H24.2662C19.0387 30.624 14.633 34.9816 14.633 39.908V46.726H9.33705C4.85731 46.726 2.24909 43.568 1.15341 39.1491C-0.324525 33.2126 -0.261785 29.6755 1.15341 23.99C2.38039 19.0301 6.30098 16.4131 10.781 16.4131H31.9702V14.516H16.5618V8.83114L16.5621 8.83145Z" fill="url(#paint0_linear_9761_2769)"></path>
    <path d="M47.3731 54.3086C47.3731 58.6159 43.5496 60.7975 39.6691 61.8855C33.8311 63.5258 29.1457 63.2748 24.2665 61.8855C20.1917 60.7251 16.5625 58.3538 16.5625 54.3086V40.098C16.5625 36.0082 20.0494 32.5161 24.2665 32.5161H39.6691C44.7995 32.5161 49.3022 28.1813 49.3022 23.0424V16.4141H55.0775C59.5631 16.4141 61.6749 19.6723 62.7815 23.9909C64.3222 29.9888 64.3908 34.4745 62.7815 39.1501C61.2237 43.6917 59.5572 46.727 55.0775 46.727H31.9706V48.6241H47.3731V54.3086Z" fill="url(#paint1_linear_9761_2769)"></path>
    <path d="M20.4141 7.88857C20.4141 6.31527 21.7038 5.04297 23.302 5.04297C24.8941 5.04297 26.19 6.31495 26.19 7.88857C26.19 9.45681 24.8944 10.7285 23.302 10.7285C21.7044 10.7285 20.4141 9.4565 20.4141 7.88857ZM37.7451 55.2514C37.7451 53.6832 39.0406 52.4115 40.633 52.4115C42.2306 52.4115 43.521 53.6835 43.521 55.2514C43.521 56.8247 42.2313 58.097 40.633 58.097C39.0409 58.097 37.7451 56.825 37.7451 55.2514Z" fill="white"></path>
  </g>
  <defs>
    <linearGradient id="paint0_linear_9761_2769" x1="47.3731" y1="18.4458" x2="0.068866" y2="18.0611" gradientUnits="userSpaceOnUse">
      <stop stop-color="#366A96"></stop>
      <stop offset="1" stop-color="#3679B0"></stop>
    </linearGradient>
    <linearGradient id="paint1_linear_9761_2769" x1="63.9626" y1="39.7189" x2="-29.6772" y2="39.7189" gradientUnits="userSpaceOnUse">
      <stop stop-color="#FFC836"></stop>
      <stop offset="1" stop-color="#FFE873"></stop>
    </linearGradient>
    <clipPath id="clip0_9761_2769">
      <rect width="64" height="64" fill="white"></rect>
    </clipPath>
  </defs>
</svg>
