<?xml version="1.0" encoding="UTF-8"?>
<svg xmlns="http://www.w3.org/2000/svg" width="50" height="50" viewBox="0 0 50 50" fill="none">
  <path d="M21.5769 39.2047L19.3187 46.3548C19.2513 46.5687 19.0533 46.7143 18.8286 46.7143H9.57143C9.40789 46.7143 9.2536 46.6361 9.1564 46.5039C9.0592 46.3718 9.03143 46.2015 9.08131 46.0452L12.7297 34.4923C12.8536 34.7813 12.9667 35.1053 13.0783 35.4257C13.4563 36.5129 13.8847 37.7446 14.9689 38.3721C16.0381 38.9907 17.3099 38.7495 18.4305 38.5382C19.1387 38.4039 19.8705 38.2661 20.3401 38.3916C20.6985 38.4867 21.1362 38.8298 21.5769 39.2047ZM37.2703 34.4918C37.1464 34.7808 37.0327 35.1053 36.9211 35.4262C36.5431 36.5129 36.1147 37.7451 35.0311 38.3721C33.9619 38.9907 32.6901 38.7506 31.5695 38.5382C30.8603 38.4039 30.1285 38.2671 29.6599 38.3911C29.3015 38.4873 28.8638 38.8298 28.4231 39.2047L30.6808 46.3548C30.7487 46.5687 30.9467 46.7143 31.1714 46.7143H40.4286C40.5921 46.7143 40.7464 46.6361 40.8436 46.5039C40.9408 46.3718 40.9686 46.2015 40.9187 46.0452L37.2703 34.4918ZM35.8 21C35.8 26.9549 30.9549 31.8 25 31.8C19.0451 31.8 14.2 26.9549 14.2 21C14.2 15.0451 19.0451 10.2 25 10.2C30.9549 10.2 35.8 15.0451 35.8 21ZM31.659 18.8657C31.5978 18.6831 31.4394 18.5499 31.2491 18.5206L27.2557 17.9102L25.4654 14.0957C25.3806 13.9157 25.1995 13.8 25 13.8C24.8005 13.8 24.6194 13.9157 24.5346 14.0957L22.7443 17.9102L18.7509 18.5206C18.5606 18.5499 18.4022 18.6826 18.341 18.8657C18.2798 19.0488 18.3261 19.2499 18.4603 19.3882L21.3501 22.35L20.3843 26.5419C20.3395 26.7369 20.4121 26.94 20.5694 27.0634C20.7268 27.1863 20.9423 27.2069 21.1197 27.1154L25 25.1266L28.8798 27.1143C28.9533 27.1529 29.0346 27.1714 29.1143 27.1714C29.2269 27.1714 29.3385 27.1349 29.4301 27.0629C29.5879 26.94 29.6599 26.7363 29.6152 26.5414L28.6494 22.3495L31.5391 19.3877C31.6744 19.2499 31.7202 19.0483 31.659 18.8657ZM40.4034 25.1302C40.157 26.0508 40.3396 27.0171 40.5165 27.9521C40.6621 28.721 40.8271 29.5932 40.5911 30.001C40.3468 30.4227 39.4987 30.7185 38.7499 30.9782C37.8602 31.2878 36.9391 31.6077 36.2747 32.2721C35.6082 32.9391 35.2883 33.8597 34.9787 34.7499C34.7179 35.4987 34.4233 36.3463 34.0021 36.5906C33.9506 36.6199 33.7969 36.7089 33.3973 36.7089C32.973 36.7089 32.4546 36.6111 31.9531 36.516C31.3782 36.407 30.7276 36.2841 30.1022 36.2841C29.7484 36.2841 29.4311 36.3226 29.1338 36.4013C28.2405 36.641 27.5133 37.2694 26.8098 37.8778C26.1715 38.4302 25.5127 39 25 39C24.4862 39 23.8274 38.4302 23.1897 37.8778C22.4862 37.2694 21.7585 36.6405 20.8693 36.4034C20.571 36.3237 20.2516 36.2851 19.8947 36.2851C19.2714 36.2851 18.6208 36.408 18.0469 36.517C17.5429 36.6122 17.0245 36.7099 16.6007 36.7099C16.2026 36.7099 16.0483 36.6204 15.9979 36.5916C15.5757 36.3468 15.28 35.4987 15.0203 34.7499C14.7107 33.8602 14.3908 32.9391 13.7263 32.2747C13.0593 31.6082 12.1387 31.2883 11.2485 30.9787C10.4997 30.7179 9.65217 30.4233 9.40789 30.0021C9.17234 29.5942 9.33691 28.723 9.48246 27.9537C9.65989 27.0135 9.84143 26.0498 9.59611 25.1307C9.358 24.2415 8.72903 23.5138 8.12114 22.8108C7.56983 22.1715 7 21.5127 7 21C7 20.4862 7.56983 19.8274 8.12217 19.1897C8.73057 18.4862 9.35954 17.7585 9.59663 16.8693C9.84297 15.9487 9.6604 14.9823 9.48349 14.0474C9.33794 13.2785 9.17286 12.4063 9.40891 11.9985C9.6532 11.5767 10.5013 11.281 11.2501 11.0213C12.1398 10.7117 13.0609 10.3918 13.7253 9.72737C14.3918 9.06034 14.7117 8.13977 15.0213 7.24954C15.2821 6.50074 15.5767 5.6532 15.9979 5.40891C16.0494 5.3796 16.2037 5.29011 16.6033 5.29011C17.0286 5.29011 17.5459 5.38834 18.0463 5.48349C18.6203 5.592 19.2693 5.71491 19.8978 5.71491C20.2506 5.71491 20.5653 5.67737 20.8615 5.5992C21.7595 5.35851 22.4867 4.73006 23.1897 4.12166C23.8285 3.56983 24.4873 3 25 3C25.5138 3 26.1726 3.56983 26.8103 4.12217C27.5138 4.73057 28.2415 5.35954 29.1307 5.59663C29.4285 5.67583 29.7469 5.71491 30.1038 5.71491C30.7245 5.71491 31.3766 5.592 31.9516 5.48349C32.4551 5.38783 32.9745 5.29011 33.3983 5.29011C33.7963 5.29011 33.9511 5.3796 34.0015 5.4084C34.4238 5.6532 34.7195 6.50126 34.9792 7.25006C35.2888 8.13977 35.6087 9.06086 36.2731 9.72531C36.9402 10.3918 37.8607 10.7117 38.751 11.0213C39.4998 11.2821 40.3473 11.5767 40.5916 11.9979C40.8271 12.4058 40.6626 13.277 40.517 14.0463C40.3396 14.9865 40.1581 15.9502 40.4034 16.8693C40.6415 17.7585 41.2705 18.4862 41.8783 19.1892C42.4302 19.8285 43 20.4873 43 21C43 21.5138 42.4302 22.1726 41.8778 22.8103C41.2699 23.5138 40.6405 24.2415 40.4034 25.1302ZM37.8571 21C37.8571 13.9106 32.0894 8.14286 25 8.14286C17.9106 8.14286 12.1429 13.9106 12.1429 21C12.1429 28.0894 17.9106 33.8571 25 33.8571C32.0894 33.8571 37.8571 28.0894 37.8571 21Z" fill="url(#paint0_linear_10302_19895)"></path>
  <defs>
    <linearGradient id="paint0_linear_10302_19895" x1="-4.6283" y1="17.1201" x2="25.4596" y2="55.4756" gradientUnits="userSpaceOnUse">
      <stop stop-color="#5B8DEF"></stop>
      <stop offset="1" stop-color="#0063F7"></stop>
    </linearGradient>
  </defs>
</svg>
