<?xml version="1.0" encoding="UTF-8"?>
<svg xmlns="http://www.w3.org/2000/svg" width="64" height="64" viewBox="0 0 64 64" fill="none">
  <g clip-path="url(#clip0_9761_2787)">
    <path d="M32.0002 37.6625C35.1565 37.6625 37.7152 35.1038 37.7152 31.9474C37.7152 28.7911 35.1565 26.2324 32.0002 26.2324C28.8439 26.2324 26.2852 28.7911 26.2852 31.9474C26.2852 35.1038 28.8439 37.6625 32.0002 37.6625Z" fill="#00D8FF"></path>
    <path fill-rule="evenodd" clip-rule="evenodd" d="M31.9995 20.3271C39.6727 20.3271 46.8009 21.4282 52.1755 23.2785C58.6512 25.5079 62.6327 28.8871 62.6327 31.947C62.6327 35.1356 58.4131 38.7256 51.459 41.0296C46.2016 42.7714 39.2833 43.6807 31.9995 43.6807C24.5316 43.6807 17.4599 42.8273 12.1432 41.0105C5.41669 38.7113 1.36523 35.0749 1.36523 31.947C1.36523 28.9119 5.16675 25.5588 11.5514 23.3328C16.9461 21.452 24.2503 20.3271 31.9984 20.3271H31.9995Z" stroke="#00D8FF" stroke-width="2.73408"></path>
    <path fill-rule="evenodd" clip-rule="evenodd" d="M21.8847 26.171C25.7181 19.524 30.2327 13.8991 34.5207 10.1675C39.6869 5.67156 44.6034 3.91081 47.254 5.43927C50.0163 7.03222 51.0181 12.4811 49.54 19.656C48.4236 25.0807 45.754 31.5279 42.1151 37.8377C38.3843 44.307 34.1123 50.0066 29.8827 53.7035C24.5308 58.382 19.3565 60.0751 16.647 58.5124C14.0177 56.9973 13.0122 52.0281 14.2735 45.3851C15.3393 39.7723 18.0138 32.8829 21.8834 26.1709L21.8847 26.171Z" stroke="#00D8FF" stroke-width="2.73408"></path>
    <path fill-rule="evenodd" clip-rule="evenodd" d="M21.8938 37.8551C18.0496 31.2156 15.4323 24.4938 14.3398 18.9153C13.0247 12.1941 13.9545 7.05513 16.6027 5.52222C19.3623 3.92461 24.5834 5.77786 30.0612 10.6418C34.2029 14.3191 38.4558 19.8507 42.1052 26.1546C45.8468 32.6176 48.651 39.1654 49.7419 44.676C51.1223 51.6493 50.0051 56.9775 47.298 58.5446C44.6714 60.0652 39.8647 58.4553 34.7395 54.0447C30.409 50.3184 25.776 44.5606 21.8938 37.855V37.8551Z" stroke="#00D8FF" stroke-width="2.73408"></path>
  </g>
  <defs>
    <clipPath id="clip0_9761_2787">
      <rect width="64" height="64" fill="white"></rect>
    </clipPath>
  </defs>
</svg>
