<?xml version="1.0" encoding="UTF-8"?>
<svg xmlns="http://www.w3.org/2000/svg" width="40" height="44" viewBox="0 0 40 44" fill="none">
  <path fill-rule="evenodd" clip-rule="evenodd" d="M0.00976562 35.3015H5.16425V14.5083L0.112855 15.2883L0.00976562 8.70091L5.16425 7.87963V1.96915C5.16425 1.42278 5.60753 0.979492 6.15391 0.979492H15.6004C16.1467 0.979492 16.59 1.42278 16.59 1.96915V6.06181L35.184 3.10314L36.2355 9.694L34.074 10.0273V11.8073L37.9708 16.0753C38.0361 16.144 38.0842 16.223 38.1254 16.3021H39.3316C39.445 16.3021 39.5378 16.3948 39.5378 16.5082V21.1816C39.5378 21.295 39.445 21.3878 39.3316 21.3878H26.0777C25.9643 21.3878 25.8715 21.295 25.8715 21.1816V16.5117C25.8715 16.3983 25.9643 16.3055 26.0777 16.3055H27.3251C27.3698 16.2299 27.4282 16.1577 27.4969 16.0924L32.1806 11.7489V10.3229L16.5969 12.7351V35.3015H21.8648V43.1157H0.00976562V35.3015ZM7.14701 7.56348L10.5558 7.02055L7.14701 4.33678V7.56348ZM13.1056 6.6185L14.6107 6.37795V2.96225H8.46312L13.1056 6.6185ZM14.6107 13.0444L12.8925 13.309L14.6107 14.6629V13.0444ZM10.329 13.7076L7.14357 14.199V15.5014H12.6073L10.329 13.7076ZM30.0157 16.3055H35.641L33.0603 13.4808L30.0157 16.3055ZM9.3978 31.0817L14.6107 35.1846V31.0817H9.3978ZM11.6933 35.3015L7.14701 31.7243V35.3049H11.6933V35.3015ZM9.3978 24.2434L14.6107 28.3464V24.2434H9.3978ZM7.14701 29.1848H12.6108L7.14701 24.886V29.1848ZM9.39436 17.3982L14.6107 21.5046V17.3982H9.39436ZM7.14701 22.3431H12.6108L7.14701 18.0443V22.3431ZM25.4489 24.7451C25.4489 24.508 25.6447 24.3156 25.8784 24.3156H39.5515C39.7886 24.3156 39.9811 24.5114 39.9811 24.7451C39.9811 34.9372 39.9776 33.0129 39.9914 43.205H25.4214L25.4489 24.7451ZM33.641 35.3874H36.4382C36.5241 35.3874 36.5928 35.4595 36.5928 35.542V38.9302C36.5928 39.0161 36.5207 39.0849 36.4382 39.0849H33.641C33.5551 39.0849 33.4864 39.0127 33.4864 38.9302V35.542C33.4864 35.4561 33.5586 35.3874 33.641 35.3874ZM28.9024 35.3874H31.6995C31.7854 35.3874 31.8542 35.4595 31.8542 35.542V38.9302C31.8542 39.0161 31.782 39.0849 31.6995 39.0849H28.9024C28.8164 39.0849 28.7477 39.0127 28.7477 38.9302V35.542C28.7477 35.4561 28.8199 35.3874 28.9024 35.3874ZM33.641 29.1367H36.4382C36.5241 29.1367 36.5928 29.2089 36.5928 29.2913V32.6796C36.5928 32.7655 36.5207 32.8342 36.4382 32.8342H33.641C33.5551 32.8342 33.4864 32.762 33.4864 32.6796V29.2913C33.4864 29.2089 33.5586 29.1367 33.641 29.1367ZM28.9024 29.1367H31.6995C31.7854 29.1367 31.8542 29.2089 31.8542 29.2913V32.6796C31.8542 32.7655 31.782 32.8342 31.6995 32.8342H28.9024C28.8164 32.8342 28.7477 32.762 28.7477 32.6796V29.2913C28.7477 29.2089 28.8199 29.1367 28.9024 29.1367ZM27.7649 26.3224H37.6169C37.7852 26.3224 37.9261 26.4907 37.9261 26.6935V40.4319C37.9261 40.6346 37.7852 40.803 37.6169 40.803H27.7649C27.5966 40.803 27.4557 40.6346 27.4557 40.4319V26.6935C27.4557 26.4907 27.5966 26.3224 27.7649 26.3224Z" fill="url(#paint0_linear_5772_59728)"></path>
  <defs>
    <linearGradient id="paint0_linear_5772_59728" x1="-12.9046" y1="14.6187" x2="14.958" y2="55.4566" gradientUnits="userSpaceOnUse">
      <stop stop-color="#00CFDE"></stop>
      <stop offset="1" stop-color="#05A660"></stop>
    </linearGradient>
  </defs>
</svg>
