<svg width="52" height="44" viewBox="0 0 52 44" fill="none" xmlns="http://www.w3.org/2000/svg">
<path fill-rule="evenodd" clip-rule="evenodd" d="M46.1473 32.2616H5.85413C4.47 32.2616 3.32351 31.1525 3.31685 29.7684L3.31675 29.7412V5.54497C3.31675 2.48253 5.79928 0 8.86172 0H43.1397C46.2021 0 48.6847 2.48253 48.6847 5.54497V29.7412L48.6846 29.7684C48.6779 31.1525 47.5314 32.2616 46.1473 32.2616ZM13.9026 24.1962H17.9353C18.7705 24.1962 19.4476 23.5191 19.4476 22.684C19.4476 21.8488 18.7705 21.1717 17.9353 21.1717H13.9026C13.0674 21.1717 12.3903 21.8488 12.3903 22.684C12.3903 23.5191 13.0674 24.1962 13.9026 24.1962ZM25.4966 7.05723H21.968C21.1328 7.05723 20.4557 7.73432 20.4557 8.56949C20.4557 9.40467 21.1328 10.0818 21.968 10.0818H24.2155L26.0213 20.9162C26.1428 21.6454 26.7737 22.1799 27.513 22.1799H28.0171V23.6921C28.0171 24.5273 28.6942 25.2044 29.5293 25.2044C30.3645 25.2044 31.0416 24.5273 31.0416 23.6921V22.1799H36.0825V23.6921C36.0825 24.5273 36.7596 25.2044 37.5947 25.2044C38.4299 25.2044 39.107 24.5273 39.107 23.6921V22.1799H39.6111C40.3504 22.1799 40.9813 21.6454 41.1028 20.9162L42.615 11.8426C42.688 11.4041 42.5645 10.9557 42.2772 10.6165C41.99 10.2773 41.5679 10.0818 41.1233 10.0818H27.2818L26.9883 8.32088C26.8668 7.59166 26.2359 7.05723 25.4966 7.05723ZM17.9353 9.07358H13.9026C13.0674 9.07358 12.3903 9.75067 12.3903 10.5858C12.3903 11.421 13.0674 12.0981 13.9026 12.0981H17.9353C18.7705 12.0981 19.4476 11.421 19.4476 10.5858C19.4476 9.75067 18.7705 9.07358 17.9353 9.07358ZM17.9353 15.1226H10.8781C10.0429 15.1226 9.36581 15.7997 9.36581 16.6349C9.36581 17.4701 10.0429 18.1472 10.8781 18.1472H17.9353C18.7705 18.1472 19.4476 17.4701 19.4476 16.6349C19.4476 15.7997 18.7705 15.1226 17.9353 15.1226ZM38.3297 19.1553L39.3378 13.1063H27.7856L28.7937 19.1553H38.3297ZM50.2977 35.2862H1.70367C0.868497 35.2862 0.191406 35.9632 0.191406 36.7984V37.8066C0.191406 40.869 2.67394 43.3516 5.73637 43.3516H46.265C49.3275 43.3516 51.81 40.869 51.81 37.8066V36.7984C51.81 35.9632 51.1329 35.2862 50.2977 35.2862Z" fill="url(#paint0_linear_1411_7752)"/>
<defs>
<linearGradient id="paint0_linear_1411_7752" x1="0.191406" y1="21.6758" x2="51.81" y2="21.6758" gradientUnits="userSpaceOnUse">
<stop stop-color="#FF6900"/>
<stop offset="1" stop-color="#E63535"/>
</linearGradient>
</defs>
</svg>
