<?xml version="1.0" encoding="UTF-8"?>
<svg xmlns="http://www.w3.org/2000/svg" width="584" height="611" viewBox="0 0 584 611" fill="none">
  <path d="M385.011 386.131C373.806 385.79 362.883 389.677 354.412 397.019C345.941 404.36 340.541 414.62 339.286 425.759C339.23 425.975 339.225 426.201 339.272 426.419C339.319 426.637 339.415 426.841 339.555 427.015C339.694 427.189 339.872 427.328 340.074 427.422C340.276 427.515 340.498 427.56 340.72 427.553H429.481C429.685 427.554 429.888 427.512 430.075 427.429C430.262 427.346 430.429 427.224 430.564 427.071C430.7 426.918 430.802 426.738 430.862 426.543C430.923 426.348 430.941 426.142 430.916 425.939C430.043 414.598 424.734 404.058 416.14 396.605C407.547 389.153 396.362 385.39 385.011 386.131Z" fill="#01A71C"></path>
  <path d="M575.264 88.469L386.984 299.88C386.447 300.462 385.795 300.926 385.07 301.243C384.345 301.56 383.562 301.724 382.77 301.724C381.979 301.724 381.196 301.56 380.471 301.243C379.745 300.926 379.094 300.462 378.556 299.88L282.444 200.72C281.629 199.702 281.185 198.437 281.185 197.133C281.185 195.83 281.629 194.565 282.444 193.547L314.183 152.843C314.714 152.102 315.414 151.499 316.225 151.083C317.035 150.667 317.933 150.45 318.845 150.45C319.756 150.45 320.654 150.667 321.465 151.083C322.276 151.499 322.976 152.102 323.507 152.843L377.301 212.375C377.84 213.016 378.512 213.532 379.271 213.885C380.03 214.239 380.857 214.422 381.694 214.422C382.532 214.422 383.359 214.239 384.118 213.885C384.877 213.532 385.549 213.016 386.088 212.375L535.994 6.88109C536.411 6.27381 536.658 5.56591 536.709 4.83098C536.76 4.09605 536.613 3.36092 536.283 2.702C535.954 2.04309 535.454 1.48445 534.835 1.08416C534.217 0.683864 533.503 0.456527 532.767 0.425781L4.86567 0.425781C3.67674 0.425781 2.53651 0.898081 1.69581 1.73878C0.855112 2.57948 0.382813 3.71971 0.382812 4.90864L0.382813 605.611C0.382813 606.8 0.855112 607.94 1.69581 608.781C2.53651 609.622 3.67674 610.094 4.86567 610.094H578.671C579.86 610.094 581 609.622 581.841 608.781C582.682 607.94 583.154 606.8 583.154 605.611V91.1588C583.511 90.1125 583.437 88.9674 582.949 87.9754C582.462 86.9834 581.6 86.2257 580.554 85.869C579.508 85.5123 578.363 85.5859 577.37 86.0735C576.378 86.5611 575.621 87.4228 575.264 88.469ZM162.841 543.21C125.173 545.108 88.2482 532.242 59.9151 507.347C59.02 506.332 58.5262 505.025 58.5262 503.671C58.5262 502.317 59.02 501.01 59.9151 499.995L82.3294 468.615C82.6995 467.972 83.1945 467.41 83.7852 466.962C84.3759 466.513 85.0504 466.187 85.7689 466.004C86.4874 465.82 87.2355 465.782 87.969 465.891C88.7025 466.001 89.4066 466.257 90.0399 466.643C110.516 485.626 137.43 496.135 165.352 496.05C194.759 496.05 209.105 482.422 209.105 468.077C209.105 423.607 64.2187 454.091 64.2187 359.413C64.2187 317.633 100.081 282.846 159.614 282.846C193.778 281.631 227.225 292.843 253.754 314.405C254.751 315.441 255.308 316.822 255.308 318.26C255.308 319.698 254.751 321.08 253.754 322.115L231.698 352.778C231.243 353.388 230.667 353.898 230.006 354.276C229.346 354.654 228.615 354.893 227.858 354.977C227.102 355.061 226.336 354.989 225.608 354.765C224.881 354.541 224.207 354.17 223.629 353.675C204.067 338.127 179.759 329.771 154.772 330.005C131.82 330.005 118.909 340.226 118.909 355.289C118.909 395.276 263.437 368.558 263.437 462.877C263.437 508.423 230.622 543.21 162.662 543.21H162.841ZM478.793 455.884C478.818 456.55 478.706 457.214 478.462 457.835C478.219 458.455 477.85 459.019 477.378 459.49C476.907 459.961 476.344 460.33 475.723 460.574C475.102 460.817 474.438 460.93 473.772 460.905H341.08C340.867 460.927 340.661 460.991 340.474 461.094C340.287 461.196 340.121 461.335 339.988 461.501C339.854 461.668 339.755 461.86 339.697 462.065C339.638 462.271 339.62 462.486 339.645 462.698C341.797 475.097 348.511 486.243 358.466 493.941C368.422 501.64 380.897 505.335 393.439 504.299C409.898 503.95 425.879 498.706 439.344 489.236C439.869 488.796 440.482 488.472 441.142 488.286C441.802 488.1 442.494 488.057 443.173 488.158C443.851 488.26 444.499 488.505 445.076 488.876C445.652 489.247 446.143 489.737 446.516 490.312L462.655 513.802C463.327 514.846 463.589 516.101 463.391 517.326C463.192 518.551 462.547 519.66 461.579 520.437C440.274 535.985 414.427 544.054 388.06 543.389C374.889 544.124 361.709 542.098 349.366 537.442C337.024 532.785 325.79 525.6 316.386 516.349C306.983 507.097 299.616 495.982 294.759 483.717C289.902 471.451 287.662 458.307 288.182 445.125C287.817 432.26 290.063 419.454 294.786 407.481C299.509 395.508 306.61 384.617 315.661 375.466C324.711 366.315 335.523 359.094 347.443 354.239C359.363 349.384 372.143 346.996 385.012 347.219C440.778 347.219 478.614 389 478.614 450.146L478.793 455.884Z" fill="#01A71C"></path>
</svg>
