<?xml version="1.0" encoding="UTF-8"?>
<svg xmlns="http://www.w3.org/2000/svg" width="64" height="64" viewBox="0 0 64 64" fill="none">
  <path d="M53.1378 12.484C53.0908 12.201 52.8598 11.984 52.5738 11.957C52.3488 11.92 47.4038 11.581 47.4038 11.581L43.6338 7.811C43.2938 7.435 42.5418 7.545 42.2578 7.623C42.2208 7.623 41.5058 7.848 40.3358 8.228C39.1988 4.938 37.1858 1.922 33.6398 1.922H33.3368C32.3208 0.605 31.0768 0 30.0268 0C21.7708 0.037 17.8368 10.333 16.5928 15.594L10.8228 17.364C9.05281 17.928 8.98781 17.969 8.74981 19.657L3.88281 57.175L40.3508 64L60.1138 59.74C60.1138 59.703 53.1738 12.842 53.1378 12.484ZM38.3138 8.86C37.3968 9.163 36.3508 9.465 35.2238 9.805V9.125C35.2572 7.42816 35.0029 5.73792 34.4718 4.126C36.3198 4.41 37.5618 6.483 38.3148 8.859L38.3138 8.86ZM32.2458 4.562C32.8488 6.34 33.1288 8.212 33.0718 10.089V10.429L26.6968 12.392C27.9448 7.732 30.2458 5.43 32.2458 4.562ZM29.7958 2.269C30.173 2.27702 30.5396 2.39483 30.8508 2.608C28.1908 3.846 25.3788 6.974 24.1728 13.235L19.1278 14.781C20.5508 10.03 23.8708 2.26 29.7928 2.26L29.7958 2.269Z" fill="#95BF47"></path>
  <path d="M52.5725 11.9569C52.3475 11.9199 47.4025 11.5809 47.4025 11.5809L43.6325 7.81094C43.4925 7.66894 43.3025 7.58794 43.1055 7.58594L40.3535 63.9999L60.1165 59.7399L53.1365 12.5219C53.1139 12.3805 53.0472 12.2498 52.9459 12.1486C52.8446 12.0473 52.7139 11.9806 52.5725 11.9579V11.9569Z" fill="#5E8E3E"></path>
  <path d="M33.6398 22.8905L31.1858 30.1325C29.7028 29.4145 28.0818 29.0285 26.4338 28.9995C22.5858 28.9995 22.3978 31.4115 22.3978 32.0175C22.3978 35.3155 31.0338 36.5815 31.0338 44.3505C31.0338 50.4605 27.1488 54.3805 21.9338 54.3805C15.6738 54.3805 12.4668 50.4955 12.4668 50.4955L14.1318 44.9455C14.1318 44.9455 17.4118 47.7755 20.2048 47.7755C20.5387 47.7882 20.8717 47.733 21.1836 47.6134C21.4956 47.4937 21.78 47.312 22.0197 47.0792C22.2594 46.8464 22.4494 46.5674 22.5781 46.2591C22.7069 45.9508 22.7717 45.6196 22.7688 45.2855C22.7688 40.9455 15.6788 40.7585 15.6788 33.6675C15.6788 27.7055 19.9768 21.8975 28.6128 21.8975C32.0068 21.9475 33.6308 22.8875 33.6308 22.8875L33.6398 22.8905Z" fill="white"></path>
</svg>
