<?xml version="1.0" encoding="UTF-8"?>
<svg xmlns="http://www.w3.org/2000/svg" width="92" height="18" viewBox="0 0 92 18" fill="none">
  <path d="M0.663025 12.2492H4.04857V15.1662C4.04857 15.6348 4.22993 15.8615 4.6229 15.8615C5.00075 15.8615 5.19723 15.4232 5.19723 14.5163C5.19723 13.3526 4.97052 12.5969 4.50199 12.2644C2.73365 11.3424 1.67566 10.6925 1.31293 10.3298C0.950192 9.96702 0.768823 9.4078 0.768823 8.68233V6.83841C0.768823 4.90382 2.08374 3.93652 4.69847 3.93652C7.25274 3.93652 8.53743 4.85848 8.53743 6.73262V9.45314H5.24257L5.31814 7.80571C5.31814 6.65705 5.10655 6.08271 4.68336 6.08271C4.26016 6.08271 4.04857 6.44545 4.04857 7.15581C4.04857 7.8964 4.13925 8.45562 4.32062 8.83347C4.50199 9.21132 5.54486 9.87633 7.41899 10.7983C8.20492 11.3575 8.59789 12.0981 8.59789 13.0352V15.0907C8.59789 17.0253 7.26785 17.9926 4.59267 17.9926C1.97794 17.9926 0.67814 17.0555 0.67814 15.1965V12.2492H0.663025Z" fill="black"></path>
  <path d="M10.2002 17.7962H13.5858V4.02735H10.2002V17.7962ZM10.2002 3.25653H13.5858V0.777832H10.2002V3.25653Z" fill="black"></path>
  <path d="M18.649 0.777832H15.2634V17.7811H18.649V0.777832Z" fill="black"></path>
  <path d="M20.3266 17.7962H23.7122V4.02735H20.3266V17.7962ZM20.3266 3.25653H23.7122V0.777832H20.3266V3.25653Z" fill="black"></path>
  <path d="M33.264 10.1182H29.8785V6.73262C29.8785 6.2792 29.6971 6.05249 29.3041 6.05249C28.9112 6.05249 28.7147 6.2792 28.7147 6.73262V15.1662C28.7147 15.6348 28.9112 15.8615 29.3041 15.8615C29.682 15.8615 29.8785 15.6348 29.8785 15.1662V11.826H33.264V15.1814C33.264 17.0404 31.9642 17.9774 29.3646 17.9774C26.6894 17.9774 25.3594 17.0101 25.3594 15.0756V6.83841C25.3594 4.90382 26.6894 3.93652 29.3646 3.93652C31.9642 3.93652 33.264 4.85848 33.264 6.7175V10.1182Z" fill="black"></path>
  <path d="M39.4761 15.1662V6.73262C39.4761 6.2792 39.2796 6.05249 38.9018 6.05249C38.5088 6.05249 38.3123 6.2792 38.3123 6.73262V15.1662C38.3123 15.6348 38.5088 15.8615 38.9018 15.8615C39.2796 15.8615 39.4761 15.6348 39.4761 15.1662ZM34.9117 15.0756V6.83841C34.9117 4.90382 36.2568 3.93652 38.932 3.93652C39.9748 3.93652 40.8817 4.16323 41.6676 4.61665C42.4535 5.07008 42.8465 5.76532 42.8465 6.7175V15.1965C42.8465 17.0555 41.5467 17.9926 38.932 17.9926C36.2568 17.9775 34.9117 17.0101 34.9117 15.0756Z" fill="black"></path>
  <path d="M52.3985 17.7961H49.013V6.73262C49.013 6.30943 48.8165 6.11294 48.4235 6.11294C48.0306 6.11294 47.8341 6.30942 47.8341 6.7175V17.7961H44.4485V4.02721H47.8341V4.49574C48.2875 4.11789 48.9828 3.93652 49.9349 3.93652C50.5395 3.93652 51.1138 4.10278 51.6277 4.43528C52.1416 4.76779 52.3985 5.25144 52.3985 5.88623V17.7961Z" fill="black"></path>
  <path d="M54.1215 17.7962H57.507V4.02735H54.1215V17.7962ZM54.1215 3.25653H57.507V0.777832H54.1215V3.25653Z" fill="#EE1C25"></path>
  <path d="M67.0742 17.7961H63.6886V6.73262C63.6886 6.30943 63.4922 6.11294 63.0992 6.11294C62.7062 6.11294 62.5097 6.30942 62.5097 6.7175V17.7961H59.1242V4.02721H62.5097V4.49574C62.9632 4.11789 63.6584 3.93652 64.6106 3.93652C65.2152 3.93652 65.7895 4.10278 66.3034 4.43528C66.8172 4.76779 67.0742 5.25144 67.0742 5.88623V17.7961Z" fill="#EE1C25"></path>
  <path d="M73.301 15.2117V6.65719C73.301 6.26422 73.1045 6.05263 72.7267 6.05263C72.3337 6.05263 72.1372 6.26422 72.1372 6.68741V15.2117C72.1372 15.6349 72.3337 15.8465 72.7267 15.8465C73.1197 15.8465 73.301 15.6349 73.301 15.2117ZM76.6866 17.7962H74.1323L73.8451 17.3277C73.2708 17.766 72.6058 17.9776 71.8652 17.9776C71.0037 17.9776 70.2631 17.7811 69.6586 17.373C69.054 16.965 68.7517 16.4208 68.7517 15.7256V5.82592C68.7517 5.23647 68.9935 4.78305 69.4772 4.43543C69.9608 4.0878 70.5352 3.92155 71.2153 3.92155C72.1524 3.92155 72.8476 4.0878 73.301 4.43543V0.777832H76.6866V17.7962Z" fill="#EE1C25"></path>
  <path d="M78.334 17.7962H81.7196V4.02735H78.334V17.7962ZM78.334 3.25653H81.7196V0.777832H78.334V3.25653Z" fill="#EE1C25"></path>
  <path d="M87.9618 15.2116V11.6598C87.191 11.8563 86.798 12.2039 86.798 12.7026V15.2116C86.798 15.6348 86.9945 15.8463 87.4026 15.8463C87.7805 15.8463 87.9618 15.6348 87.9618 15.2116ZM91.3474 17.7961H88.3548V17.2671C88.0978 17.7507 87.3875 17.9925 86.1935 17.9925C84.3496 17.9925 83.4276 17.2671 83.4276 15.8312V13.0654C83.4276 12.4457 83.6543 11.9167 84.0926 11.4482C84.5461 10.9947 85.4378 10.4204 86.798 9.72517C87.584 9.33221 87.9769 9.01481 87.9769 8.77299V6.7326C87.9769 6.27918 87.7805 6.05246 87.3875 6.05246C86.9492 6.05246 86.7225 6.59657 86.7225 7.69989C86.7225 7.89637 86.7376 8.19865 86.7527 8.5765C86.7829 8.96947 86.8132 9.25664 86.8132 9.45312H83.5485V6.71748C83.5485 4.85846 84.8937 3.92139 87.584 3.92139C90.108 3.92139 91.3625 4.88869 91.3625 6.82328V17.7961H91.3474Z" fill="#EE1C25"></path>
</svg>
