<?xml version="1.0" encoding="UTF-8"?>
<svg xmlns="http://www.w3.org/2000/svg" width="78" height="53" viewBox="0 0 78 53" fill="none">
  <path d="M31.0392 2.19004H31.9962V10H31.0392V4.01604H31.0172L28.4762 8.42704H27.8272L25.2862 4.01604H25.2642V10H24.3072V2.19004H25.2752L28.1462 7.23904H28.1682L31.0392 2.19004ZM37.5612 10.066C36.4025 10.066 35.4565 9.69204 34.7232 8.94404C33.9972 8.18871 33.6342 7.23904 33.6342 6.09504C33.6342 4.95104 33.9972 4.00137 34.7232 3.24604C35.4565 2.49071 36.4025 2.11304 37.5612 2.11304C38.6758 2.11304 39.6035 2.48337 40.3442 3.22404C41.0848 3.95737 41.4552 4.91437 41.4552 6.09504C41.4552 7.26837 41.0848 8.22537 40.3442 8.96604C39.6035 9.69937 38.6758 10.066 37.5612 10.066ZM37.5612 9.15304C38.3825 9.15304 39.0682 8.86704 39.6182 8.29504C40.1755 7.71571 40.4542 6.98237 40.4542 6.09504C40.4542 5.20037 40.1755 4.46704 39.6182 3.89504C39.0682 3.31571 38.3825 3.02604 37.5612 3.02604C36.7032 3.02604 35.9992 3.32304 35.4492 3.91704C34.8992 4.50371 34.6242 5.22971 34.6242 6.09504C34.6242 6.96037 34.8992 7.68637 35.4492 8.27304C35.9992 8.85971 36.7032 9.15304 37.5612 9.15304ZM45.3183 10.066C44.2257 10.066 43.3017 9.66271 42.5463 8.85604L43.1623 8.13004C43.4337 8.46737 43.7637 8.72404 44.1523 8.90004C44.541 9.07604 44.9333 9.16404 45.3293 9.16404C45.8133 9.16404 46.1983 9.05771 46.4843 8.84504C46.7777 8.63237 46.9243 8.33904 46.9243 7.96504C46.9243 7.75971 46.8877 7.58371 46.8143 7.43704C46.7483 7.29037 46.631 7.16204 46.4623 7.05204C46.2937 6.93471 46.1287 6.84304 45.9673 6.77704C45.8133 6.70371 45.5897 6.61204 45.2963 6.50204C45.245 6.48004 45.2047 6.46537 45.1753 6.45804C44.8893 6.35537 44.6547 6.26737 44.4713 6.19404C44.2953 6.11337 44.09 6.00337 43.8553 5.86404C43.628 5.72471 43.4483 5.58537 43.3163 5.44604C43.1917 5.29937 43.0817 5.11971 42.9863 4.90704C42.891 4.68704 42.8433 4.44504 42.8433 4.18104C42.8433 3.60171 43.0743 3.11404 43.5363 2.71804C43.9983 2.32204 44.563 2.12037 45.2303 2.11304C46.1103 2.11304 46.9353 2.41737 47.7053 3.02604L47.1223 3.77404C46.5137 3.26071 45.883 3.00404 45.2303 3.00404C44.849 3.00404 44.5227 3.10671 44.2513 3.31204C43.98 3.51004 43.8443 3.78504 43.8443 4.13704C43.8443 4.28371 43.8737 4.41937 43.9323 4.54404C43.991 4.66137 44.057 4.76037 44.1303 4.84104C44.2037 4.91437 44.332 4.99871 44.5153 5.09404C44.6987 5.18937 44.8417 5.26271 44.9443 5.31404C45.0543 5.35804 45.2413 5.43137 45.5053 5.53404C46.312 5.84204 46.8437 6.08404 47.1003 6.26004C47.6503 6.63404 47.9253 7.16937 47.9253 7.86604C47.9253 8.55537 47.6687 9.09437 47.1553 9.48304C46.6493 9.87171 46.037 10.066 45.3183 10.066ZM51.0198 10V3.07004H48.6768V2.19004H54.3308V3.07004H51.9768V10H51.0198ZM4.66744 36.055C3.56011 36.055 2.63244 35.7067 1.88444 35.01C1.14378 34.3133 0.773438 33.3527 0.773438 32.128C0.773438 30.9693 1.11811 30.0123 1.80744 29.257C2.50411 28.4943 3.45744 28.113 4.66744 28.113C5.89944 28.113 6.91511 28.6117 7.71444 29.609L6.99944 30.203C6.37611 29.4183 5.59878 29.026 4.66744 29.026C3.78744 29.026 3.08344 29.3157 2.55544 29.895C2.03478 30.467 1.77444 31.2113 1.77444 32.128C1.77444 33.0447 2.04578 33.778 2.58844 34.328C3.13111 34.8707 3.82411 35.142 4.66744 35.142C5.59878 35.142 6.37611 34.7533 6.99944 33.976L7.71444 34.581C6.92244 35.5637 5.90678 36.055 4.66744 36.055ZM12.3733 36.066C11.2147 36.066 10.2687 35.692 9.53537 34.944C8.80937 34.1887 8.44637 33.239 8.44637 32.095C8.44637 30.951 8.80937 30.0013 9.53537 29.246C10.2687 28.4907 11.2147 28.113 12.3733 28.113C13.488 28.113 14.4157 28.4833 15.1563 29.224C15.897 29.9573 16.2673 30.9143 16.2673 32.095C16.2673 33.2683 15.897 34.2253 15.1563 34.966C14.4157 35.6993 13.488 36.066 12.3733 36.066ZM12.3733 35.153C13.1947 35.153 13.8803 34.867 14.4303 34.295C14.9877 33.7157 15.2663 32.9823 15.2663 32.095C15.2663 31.2003 14.9877 30.467 14.4303 29.895C13.8803 29.3157 13.1947 29.026 12.3733 29.026C11.5153 29.026 10.8113 29.323 10.2613 29.917C9.71137 30.5037 9.43637 31.2297 9.43637 32.095C9.43637 32.9603 9.71137 33.6863 10.2613 34.273C10.8113 34.8597 11.5153 35.153 12.3733 35.153ZM24.3094 28.19H25.2664V36H24.3094V30.016H24.2874L21.7464 34.427H21.0974L18.5564 30.016H18.5344V36H17.5774V28.19H18.5454L21.4164 33.239H21.4384L24.3094 28.19ZM26.9154 36V28.19H29.6544C30.5271 28.19 31.1761 28.41 31.6014 28.85C32.0267 29.29 32.2394 29.8767 32.2394 30.61C32.2394 31.4093 31.9901 32.0107 31.4914 32.414C31.0001 32.8173 30.3327 33.019 29.4894 33.019H27.8724V36H26.9154ZM27.8724 32.139H29.4014C30.0247 32.139 30.4867 31.9997 30.7874 31.721C31.0881 31.4423 31.2384 31.0647 31.2384 30.588C31.2384 30.0967 31.0881 29.7227 30.7874 29.466C30.4941 29.202 30.0834 29.07 29.5554 29.07H27.8724V32.139ZM37.8685 36L37.1755 34.097H33.6885L32.9955 36H31.9835L34.9425 28.19H35.8995L38.8805 36H37.8685ZM33.9965 33.261H36.8675L35.4375 29.356H35.4155L33.9965 33.261ZM45.2125 28.19H46.1695V36H45.1905L40.8125 29.84H40.7905V36H39.8335V28.19H40.7795L45.1905 34.416H45.2125V28.19ZM52.174 28.19H53.285L50.623 32.513V36H49.666V32.513L47.015 28.19H48.115L50.139 31.556H50.161L52.174 28.19ZM57.673 35.153H61.028V36H56.276L56.265 35.362L58.85 32.722C59.2313 32.326 59.5173 31.974 59.708 31.666C59.906 31.358 60.005 31.0353 60.005 30.698C60.005 30.28 59.873 29.9353 59.609 29.664C59.345 29.3853 59.004 29.246 58.586 29.246C57.86 29.246 57.3173 29.5907 56.958 30.28L56.276 29.807C56.76 28.8537 57.5483 28.377 58.641 28.377C59.2716 28.377 59.8106 28.5787 60.258 28.982C60.7053 29.3853 60.929 29.9243 60.929 30.599C60.929 31.0317 60.83 31.446 60.632 31.842C60.434 32.238 60.104 32.6707 59.642 33.14L57.673 35.131V35.153ZM64.6964 36.066C63.853 36.066 63.1673 35.7287 62.6393 35.054C62.1186 34.372 61.8583 33.4297 61.8583 32.227C61.8583 31.083 62.1113 30.1553 62.6173 29.444C63.1233 28.7327 63.8164 28.377 64.6964 28.377C65.5397 28.377 66.2216 28.718 66.7423 29.4C67.2703 30.0747 67.5343 31.017 67.5343 32.227C67.5343 33.371 67.2813 34.2987 66.7753 35.01C66.2766 35.714 65.5837 36.066 64.6964 36.066ZM64.6964 35.208C65.2977 35.208 65.7633 34.9403 66.0933 34.405C66.4306 33.8697 66.5993 33.1437 66.5993 32.227C66.5993 31.281 66.4234 30.5477 66.0714 30.027C65.7267 29.499 65.2684 29.235 64.6964 29.235C64.1024 29.235 63.6366 29.5063 63.2993 30.049C62.9619 30.5843 62.7933 31.3103 62.7933 32.227C62.7933 33.1657 62.9656 33.899 63.3103 34.427C63.6623 34.9477 64.1244 35.208 64.6964 35.208ZM69.9551 36V29.565L68.4482 30.698L67.9861 30.005L70.1091 28.443H70.8792V36H69.9551ZM75.9281 31.908C76.3607 32.0473 76.7091 32.293 76.9731 32.645C77.2371 32.997 77.3691 33.4223 77.3691 33.921C77.3691 34.559 77.1161 35.076 76.6101 35.472C76.1041 35.868 75.4697 36.066 74.7071 36.066C73.9371 36.066 73.3027 35.8643 72.8041 35.461C72.3054 35.0503 72.0561 34.537 72.0561 33.921C72.0561 33.4223 72.1881 32.997 72.4521 32.645C72.7161 32.293 73.0607 32.0473 73.4861 31.908V31.897C73.2074 31.809 72.9617 31.6183 72.7491 31.325C72.5364 31.0317 72.4301 30.6907 72.4301 30.302C72.4301 29.708 72.6427 29.2387 73.0681 28.894C73.4934 28.5493 74.0397 28.377 74.7071 28.377C75.3891 28.377 75.9391 28.553 76.3571 28.905C76.7824 29.257 76.9951 29.7227 76.9951 30.302C76.9951 30.6833 76.8851 31.0243 76.6651 31.325C76.4524 31.6183 76.2067 31.809 75.9281 31.897V31.908ZM74.7071 29.202C74.2964 29.202 73.9627 29.3157 73.7061 29.543C73.4494 29.7703 73.3211 30.0453 73.3211 30.368C73.3211 30.7127 73.4494 30.9913 73.7061 31.204C73.9627 31.4093 74.2964 31.512 74.7071 31.512C75.1251 31.512 75.4624 31.4093 75.7191 31.204C75.9831 30.9913 76.1152 30.7127 76.1152 30.368C76.1152 30.0307 75.9794 29.752 75.7081 29.532C75.4441 29.312 75.1104 29.202 74.7071 29.202ZM74.7071 35.23C75.2131 35.23 75.6237 35.0943 75.9391 34.823C76.2544 34.5443 76.4121 34.2107 76.4121 33.822C76.4121 33.3893 76.2544 33.041 75.9391 32.777C75.6237 32.5057 75.2131 32.37 74.7071 32.37C74.1937 32.37 73.7794 32.5057 73.4641 32.777C73.1487 33.041 72.9911 33.3893 72.9911 33.822C72.9911 34.2253 73.1561 34.5627 73.4861 34.834C73.8161 35.098 74.2231 35.23 74.7071 35.23Z" fill="black"></path>
  <path d="M8.73242 22.9999V15.1899H11.6254C12.5347 15.1899 13.2131 15.4282 13.6604 15.9049C14.1151 16.3742 14.3424 17.0012 14.3424 17.7859C14.3424 18.6219 14.0857 19.2562 13.5724 19.6889C13.0664 20.1142 12.3697 20.3269 11.4824 20.3269H10.2614V22.9999H8.73242ZM10.2614 18.9519H11.2844C11.7611 18.9519 12.1204 18.8456 12.3624 18.6329C12.6117 18.4202 12.7364 18.1269 12.7364 17.7529C12.7364 17.3862 12.6154 17.0966 12.3734 16.8839C12.1314 16.6712 11.7904 16.5649 11.3504 16.5649H10.2614V18.9519ZM21.6027 22.9999H19.7767L18.0277 20.3269H17.1257V22.9999H15.5967V15.1899H18.5557C19.4577 15.1899 20.136 15.4282 20.5907 15.9049C21.0453 16.3742 21.2727 17.0012 21.2727 17.7859C21.2727 19.0032 20.7373 19.7879 19.6667 20.1399L21.6027 22.9999ZM17.1257 16.5649V18.9629H18.2037C18.673 18.9629 19.036 18.8566 19.2927 18.6439C19.5493 18.4239 19.6777 18.1269 19.6777 17.7529C19.6777 17.3862 19.553 17.0966 19.3037 16.8839C19.0617 16.6712 18.717 16.5649 18.2697 16.5649H17.1257ZM26.2206 23.0879C25.0473 23.0879 24.0903 22.7139 23.3496 21.9659C22.6089 21.2106 22.2386 20.2536 22.2386 19.0949C22.2386 17.9289 22.6089 16.9719 23.3496 16.2239C24.0903 15.4686 25.0473 15.0909 26.2206 15.0909C27.3793 15.0909 28.3289 15.4612 29.0696 16.2019C29.8176 16.9426 30.1916 17.9069 30.1916 19.0949C30.1916 20.2829 29.8176 21.2472 29.0696 21.9879C28.3289 22.7212 27.3793 23.0879 26.2206 23.0879ZM26.2316 21.6469C26.9063 21.6469 27.4673 21.4049 27.9146 20.9209C28.3619 20.4369 28.5856 19.8282 28.5856 19.0949C28.5856 18.3616 28.3619 17.7529 27.9146 17.2689C27.4673 16.7849 26.9063 16.5429 26.2316 16.5429C25.5349 16.5429 24.9629 16.7886 24.5156 17.2799C24.0683 17.7712 23.8446 18.3762 23.8446 19.0949C23.8446 19.8136 24.0683 20.4186 24.5156 20.9099C24.9629 21.4012 25.5349 21.6469 26.2316 21.6469ZM37.9608 15.1899H39.5118V22.9999H37.9828V18.1489H37.9608L36.0578 21.5149H35.0568L33.1538 18.1489H33.1318V22.9999H31.5918V15.1899H33.1538L35.5518 19.6339H35.5738L37.9608 15.1899ZM41.2825 22.9999V15.1899H42.8335V22.9999H41.2825ZM46.9546 23.0879C45.8472 23.0879 44.8976 22.6772 44.1056 21.8559L45.0296 20.7119C45.3082 21.0346 45.6199 21.2802 45.9646 21.4489C46.3092 21.6102 46.6466 21.6909 46.9766 21.6909C47.3432 21.6909 47.6219 21.6176 47.8126 21.4709C48.0032 21.3169 48.0986 21.1152 48.0986 20.8659C48.0986 20.5946 47.9996 20.3892 47.8016 20.2499C47.6036 20.1032 47.2479 19.9419 46.7346 19.7659C46.3826 19.6412 46.0892 19.5239 45.8546 19.4139C45.6199 19.2966 45.3779 19.1426 45.1286 18.9519C44.8792 18.7612 44.6922 18.5302 44.5676 18.2589C44.4429 17.9876 44.3806 17.6759 44.3806 17.3239C44.3806 16.7006 44.6226 16.1762 45.1066 15.7509C45.5906 15.3256 46.1846 15.1056 46.8886 15.0909C47.8419 15.0836 48.7182 15.4136 49.5176 16.0809L48.6266 17.2469C48.0106 16.7336 47.4422 16.4769 46.9216 16.4769C46.6429 16.4769 46.4156 16.5466 46.2396 16.6859C46.0709 16.8252 45.9866 17.0159 45.9866 17.2579C45.9792 17.4852 46.0709 17.6686 46.2616 17.8079C46.4522 17.9399 46.7969 18.1049 47.2956 18.3029C48.1022 18.6182 48.6302 18.8602 48.8796 19.0289C49.4369 19.4102 49.7156 19.9639 49.7156 20.6899C49.7156 21.4746 49.4369 22.0722 48.8796 22.4829C48.3222 22.8862 47.6806 23.0879 46.9546 23.0879ZM51.0794 22.9999V15.1899H52.6304V22.9999H51.0794ZM59.4355 15.1899H60.9865V22.9999H59.4025L55.9595 17.8189H55.9375V22.9999H54.3975V15.1899H55.9375L59.4245 20.4699H59.4355V15.1899ZM66.3752 23.0769C65.2165 23.0769 64.2595 22.7212 63.5042 22.0099C62.7562 21.2986 62.3822 20.3306 62.3822 19.1059C62.3822 17.9399 62.7378 16.9792 63.4492 16.2239C64.1605 15.4686 65.1138 15.0909 66.3092 15.0909C66.8885 15.0909 67.4532 15.2046 68.0032 15.4319C68.5532 15.6592 69.0225 15.9929 69.4112 16.4329L68.3112 17.3569C67.7538 16.8216 67.0865 16.5539 66.3092 16.5539C65.6492 16.5539 65.0992 16.7849 64.6592 17.2469C64.2192 17.7089 63.9992 18.3286 63.9992 19.1059C63.9992 19.8392 64.2155 20.4479 64.6482 20.9319C65.0808 21.4159 65.6565 21.6579 66.3752 21.6579C66.9472 21.6579 67.4752 21.5112 67.9592 21.2179V20.0629H66.1992V18.7429H69.4442V22.1089C69.0848 22.4022 68.6302 22.6369 68.0802 22.8129C67.5302 22.9889 66.9618 23.0769 66.3752 23.0769Z" fill="black"></path>
  <mask id="mask0_9447_9339" style="mask-type:luminance" maskUnits="userSpaceOnUse" x="11" y="42" width="56" height="11">
    <path d="M67 42H11V53H67V42Z" fill="white"></path>
  </mask>
  <g mask="url(#mask0_9447_9339)">
    <path d="M11 49.3302H13.0903V51.1941C13.0903 51.4935 13.2023 51.6384 13.4449 51.6384C13.6876 51.6384 13.7995 51.3583 13.7995 50.7789C13.7995 50.0352 13.6596 49.5524 13.3703 49.3399C12.2785 48.7508 11.6252 48.3355 11.4013 48.1037C11.1773 47.8719 11.0653 47.5146 11.0653 47.051V45.8728C11.0653 44.6366 11.8772 44.0186 13.4916 44.0186C15.0687 44.0186 15.8619 44.6077 15.8619 45.8052V47.5436H13.8275L13.8742 46.4909C13.8742 45.7569 13.7435 45.3899 13.4823 45.3899C13.221 45.3899 13.0903 45.6217 13.0903 46.0756C13.0903 46.5488 13.1463 46.9062 13.2583 47.1476C13.3703 47.3891 14.0142 47.814 15.1713 48.4031C15.3998 48.5579 15.5864 48.7704 15.7138 49.0204C15.8411 49.2704 15.9049 49.5499 15.8992 49.8324V51.1459C15.8992 52.382 15.078 53.0001 13.4263 53.0001C11.8119 53.0001 11.0093 52.4013 11.0093 51.2135V49.3302H11Z" fill="black"></path>
    <path d="M16.8887 52.8745H18.979V44.0764H16.8887V52.8745ZM16.8887 43.5838H18.979V42H16.8887V43.5838Z" fill="black"></path>
    <path d="M22.104 42H20.0137V52.8648H22.104V42Z" fill="black"></path>
    <path d="M23.1406 52.8745H25.2309V44.0764H23.1406V52.8745ZM23.1406 43.5838H25.2309V42H23.1406V43.5838Z" fill="black"></path>
    <path d="M31.1286 47.9685H29.0382V45.8052C29.0382 45.5155 28.9263 45.3706 28.6836 45.3706C28.441 45.3706 28.3197 45.5155 28.3197 45.8052V51.1941C28.3197 51.4935 28.441 51.6384 28.6836 51.6384C28.9263 51.6384 29.0382 51.4935 29.0382 51.1941V49.0598H31.1286V51.2038C31.1286 52.3917 30.326 52.9905 28.721 52.9905C27.0692 52.9905 26.248 52.3724 26.248 51.1362V45.8728C26.248 44.6366 27.0692 44.0186 28.721 44.0186C30.326 44.0186 31.1286 44.6077 31.1286 45.7956V47.9685Z" fill="black"></path>
    <path d="M34.9647 51.194V45.8051C34.9647 45.5154 34.8434 45.3705 34.6101 45.3705C34.3768 45.3705 34.2461 45.5154 34.2461 45.8051V51.194C34.2461 51.4934 34.3674 51.6383 34.6101 51.6383C34.8527 51.6383 34.9647 51.4934 34.9647 51.194ZM32.1465 51.1361V45.8727C32.1465 44.6365 32.977 44.0184 34.6287 44.0184C35.2191 44.0049 35.8023 44.1549 36.3178 44.453C36.803 44.7427 37.0457 45.187 37.0457 45.7954V51.2133C37.0457 52.4012 36.2431 53 34.6287 53C32.977 52.9903 32.1465 52.3722 32.1465 51.1361Z" fill="black"></path>
    <path d="M42.9417 52.8746H40.8514V45.8052C40.8514 45.5348 40.7301 45.4093 40.4875 45.4093C40.2448 45.4093 40.1235 45.5348 40.1235 45.7956V52.8746H38.0332V44.0765H40.1235V44.3759C40.4035 44.1345 40.8327 44.0186 41.4206 44.0186C41.7916 44.0169 42.1549 44.1277 42.4658 44.3373C42.6177 44.4339 42.7419 44.5709 42.8256 44.7338C42.9093 44.8968 42.9494 45.08 42.9417 45.2644V52.8746Z" fill="black"></path>
    <path d="M44.0059 52.8745H46.0962V44.0764H44.0059V52.8745ZM44.0059 43.5838H46.0962V42H44.0059V43.5838Z" fill="#EE1C25"></path>
    <path d="M52.0042 52.8746H49.9139V45.8052C49.9139 45.5348 49.7926 45.4093 49.55 45.4093C49.3073 45.4093 49.186 45.5348 49.186 45.7956V52.8746H47.0957V44.0765H49.186V44.3759C49.466 44.1345 49.8952 44.0186 50.4831 44.0186C50.8541 44.0169 51.2174 44.1277 51.5283 44.3373C51.6802 44.4339 51.8044 44.5709 51.8881 44.7338C51.9718 44.8968 52.0119 45.08 52.0042 45.2644V52.8746Z" fill="#EE1C25"></path>
    <path d="M55.8482 51.223V45.7568C55.8482 45.5057 55.7269 45.3705 55.4936 45.3705C55.2603 45.3705 55.1297 45.5057 55.1297 45.7761V51.223C55.1297 51.4934 55.251 51.6286 55.4936 51.6286C55.7363 51.6286 55.8482 51.4934 55.8482 51.223ZM57.9386 52.8745H56.3615L56.1842 52.5751C55.8335 52.8519 55.4028 52.9982 54.9617 52.9903C54.4298 52.9903 53.9726 52.8648 53.5993 52.604C53.4253 52.4944 53.282 52.3396 53.1838 52.1549C53.0856 51.9702 53.0358 51.7621 53.0394 51.5514V45.2256C53.0351 45.0504 53.0739 44.8769 53.1523 44.7214C53.2307 44.566 53.3459 44.4338 53.4873 44.3371C53.8016 44.1112 54.1779 43.996 54.5605 44.0088C55.139 44.0088 55.5683 44.115 55.8482 44.3371V42H57.9386V52.8745Z" fill="#EE1C25"></path>
    <path d="M58.9551 52.8745H61.0454V44.0764H58.9551V52.8745ZM58.9551 43.5838H61.0454V42H58.9551V43.5838Z" fill="#EE1C25"></path>
    <path d="M64.9011 51.223V48.9535C64.4252 49.079 64.1826 49.3012 64.1826 49.6199V51.223C64.1826 51.4934 64.3039 51.6286 64.5558 51.6286C64.7891 51.6286 64.9011 51.4934 64.9011 51.223ZM66.9914 52.8745H65.1437V52.5364C64.9851 52.8455 64.5465 53 63.8093 53C62.6708 53 62.1016 52.5364 62.1016 51.619V49.8516C62.1009 49.4645 62.2485 49.0929 62.5122 48.8183C62.7921 48.5285 63.3427 48.1616 64.1826 47.7173C64.6678 47.4662 64.9104 47.2634 64.9104 47.1089V45.8051C64.9104 45.5154 64.7891 45.3705 64.5465 45.3705C64.2759 45.3705 64.1359 45.7182 64.1359 46.4232C64.1359 46.5487 64.1452 46.7419 64.1546 46.9833C64.1639 47.2248 64.1919 47.4179 64.1919 47.5435H62.1762V45.7954C62.1762 44.6076 63.0067 44.0088 64.6678 44.0088C66.2262 44.0088 67.0007 44.6269 67.0007 45.863V52.8745H66.9914Z" fill="#EE1C25"></path>
  </g>
</svg>
