<?xml version="1.0" encoding="UTF-8"?>
<svg xmlns="http://www.w3.org/2000/svg" width="86" height="69" viewBox="0 0 86 69" fill="none">
  <g clip-path="url(#clip0_9761_2732)">
    <path d="M54.7336 13.7559C53.1135 12.1243 50.4864 12.1243 48.8673 13.7559L22.4661 40.3406C19.2243 43.6022 13.972 43.6022 10.7326 40.3406C7.48974 37.0776 7.48974 31.7883 10.7326 28.5236L36.6255 2.45212C33.3854 -0.811511 28.1312 -0.811511 24.891 2.45212L4.86362 22.6177C-1.616 29.1436 -1.616 39.7223 4.86362 46.2489C11.3449 52.7751 21.8504 52.7751 28.3317 46.2489L54.7336 19.6639C56.3526 18.0326 56.3526 15.3873 54.7336 13.7559ZM63.534 4.8952C57.0527 -1.63173 46.5472 -1.63173 40.0659 4.8952L13.6654 31.4785C12.0463 33.1088 12.0463 35.7558 13.6654 37.3864C15.2854 39.0177 17.9112 39.0177 19.5316 37.3864L45.9345 10.8032C49.1746 7.53952 54.4269 7.53952 57.6664 10.8032C59.2881 12.4334 61.9142 12.4334 63.5343 10.8032C65.1544 9.17015 65.154 6.5265 63.534 4.8952ZM72.335 31.4785C70.715 29.8488 68.0872 29.8488 66.4671 31.4785L40.0659 58.0627C36.8257 61.3254 31.5718 61.3254 28.3317 58.0627C26.7126 56.4324 24.0862 56.4324 22.4661 58.0627C20.8437 59.6947 20.8437 62.3401 22.4661 63.9697C28.9447 70.4959 39.4529 70.4959 45.9342 63.9697L72.335 37.3864C73.9541 35.7561 73.9541 33.1091 72.335 31.4785ZM81.1364 22.618C74.6551 16.0928 64.148 16.0928 57.6684 22.618L31.2655 49.203C29.6454 50.8326 29.6454 53.4797 31.2655 55.1099C32.8866 56.7423 35.5137 56.7423 37.1328 55.1099L63.534 28.5257C66.7731 25.2624 72.028 25.2624 75.2675 28.5257C78.5076 31.7886 78.5076 37.0779 75.2675 40.3409L49.3745 66.4141C52.6147 69.6757 57.8662 69.6757 61.109 66.4141L81.1364 46.2485C87.6161 39.7216 87.6161 29.1433 81.1364 22.618Z" fill="#1A1918"></path>
  </g>
  <defs>
    <clipPath id="clip0_9761_2732">
      <rect width="86" height="69" fill="white"></rect>
    </clipPath>
  </defs>
</svg>
