<?xml version="1.0" standalone="no"?>
<!DOCTYPE svg PUBLIC "-//W3C//DTD SVG 20010904//EN"
 "http://www.w3.org/TR/2001/REC-SVG-20010904/DTD/svg10.dtd">
<svg version="1.0" xmlns="http://www.w3.org/2000/svg"
 width="2000.000000pt" height="2000.000000pt" viewBox="0 0 2000.000000 2000.000000"
 preserveAspectRatio="xMidYMid meet">

<g transform="translate(0.000000,2000.000000) scale(0.100000,-0.100000)"
fill="#000000" stroke="none">
<path d="M9990 10484 c-271 -49 -530 -196 -695 -394 -37 -44 -73 -80 -80 -80
-39 0 -130 -46 -178 -90 -104 -95 -151 -221 -152 -405 0 -132 13 -206 72 -390
38 -122 181 -465 193 -465 5 0 8 32 9 71 1 126 28 192 131 314 77 92 115 153
144 235 12 32 26 57 31 58 6 0 28 -21 50 -47 164 -191 413 -352 645 -416 128
-36 344 -45 473 -21 106 20 239 66 327 112 35 19 68 34 72 34 9 0 47 -72 60
-115 6 -16 13 -70 17 -120 l7 -90 21 46 c155 339 234 771 189 1027 -41 236
-147 387 -376 537 -146 95 -334 170 -505 199 -110 19 -349 19 -455 0z"/>
<path d="M9303 7144 c-3 -9 -1 -45 6 -78 28 -134 123 -312 244 -456 l67 -80
30 -218 c89 -654 208 -1231 369 -1791 28 -96 49 -176 47 -178 -2 -2 -43 1 -92
7 -49 5 -156 14 -238 20 -82 5 -153 13 -157 17 -20 22 -173 301 -259 473 -145
290 -307 674 -456 1087 -34 94 -34 95 -12 90 73 -18 423 -87 443 -87 27 0 38
22 22 43 -7 8 -70 63 -142 122 -71 59 -131 112 -133 119 -1 7 38 202 88 434
50 232 88 427 85 432 -9 14 -45 12 -50 -2 -13 -35 -192 -884 -188 -893 2 -5
48 -46 102 -90 54 -44 97 -81 96 -83 -1 -1 -91 16 -200 38 -171 36 -200 39
-212 27 -12 -12 -2 -47 76 -254 226 -606 399 -990 609 -1353 l61 -105 -202 -2
c-222 -2 -763 -22 -788 -29 -13 -4 -15 25 -11 260 5 269 -3 435 -39 856 l-19
235 -41 84 c-112 237 -370 606 -571 819 -50 53 -80 63 -86 30 -2 -10 36 -62
90 -125 210 -243 451 -598 529 -780 46 -107 103 -999 80 -1262 l-10 -124 -140
-139 c-153 -151 -275 -304 -335 -421 -40 -78 -42 -107 -6 -107 14 0 29 18 54
68 60 119 157 243 311 398 l150 151 150 8 c651 33 1172 18 1589 -45 71 -11
137 -20 147 -20 16 0 37 36 27 46 -4 3 -93 21 -200 38 l-36 7 39 117 c157 465
275 990 405 1791 l44 274 44 46 c24 26 71 85 105 131 127 171 230 446 176 466
-26 10 -41 -12 -55 -83 -16 -83 -100 -252 -172 -348 -78 -104 -238 -264 -245
-245 -4 8 -30 62 -59 120 -62 123 -113 192 -220 301 l-77 79 -76 -82 c-116
-125 -156 -180 -218 -306 -32 -65 -60 -119 -62 -122 -7 -10 -208 209 -259 283
-72 104 -128 220 -148 303 -9 38 -20 76 -24 84 -10 22 -39 24 -47 4z m947
-779 c0 -22 -42 -35 -110 -35 -67 0 -90 7 -90 26 0 10 21 14 83 17 45 1 90 4
100 5 9 1 17 -5 17 -13z"/>
<path d="M11034 7147 c-3 -8 40 -216 96 -462 55 -246 100 -451 98 -455 -2 -5
-67 -61 -146 -126 -207 -170 -198 -177 133 -110 121 25 220 44 221 43 3 -3
-51 -144 -161 -422 -186 -468 -354 -826 -549 -1167 -53 -92 -96 -171 -96 -177
0 -18 46 -13 62 7 23 25 115 186 207 360 183 345 385 810 562 1290 51 140 57
169 36 177 -7 3 -100 -13 -206 -35 -107 -22 -195 -39 -197 -38 -1 2 42 39 96
83 77 62 99 86 99 105 1 14 -46 230 -102 480 -96 423 -105 455 -125 458 -13 2
-25 -3 -28 -11z"/>
<path d="M12377 6548 c-257 -367 -512 -882 -580 -1173 -70 -296 -109 -646
-123 -1092 l-7 -221 -241 -120 c-249 -124 -425 -224 -654 -369 -155 -99 -417
-287 -516 -369 -196 -164 -716 -366 -1141 -444 -288 -53 -436 -64 -878 -65
-327 -1 -420 -4 -426 -14 -5 -8 -24 -11 -52 -9 l-43 3 -37 -150 c-20 -82 -34
-153 -32 -157 2 -5 115 -8 251 -8 909 1 1597 113 2155 353 l126 54 43 -25 c70
-42 305 -147 448 -200 243 -89 498 -151 775 -189 186 -25 755 -25 974 0 85 10
157 19 160 22 7 3 -5 213 -14 272 l-6 31 -152 -3 c-84 -2 -245 -8 -358 -13
-582 -27 -1036 48 -1474 245 -101 45 -316 162 -340 185 -28 26 410 343 785
569 126 76 639 344 691 361 11 4 15 57 21 254 12 400 44 710 104 1004 41 202
95 343 254 665 114 231 233 428 382 632 45 61 50 93 14 93 -19 0 -41 -24 -109
-122z"/>
</g>
</svg>
