<?xml version="1.0" encoding="UTF-8"?>
<svg xmlns="http://www.w3.org/2000/svg" width="56" height="56" viewBox="0 0 56 56" fill="none">
  <g clip-path="url(#clip0_4585_32617)">
    <path d="M28.1756 55.9853C43.5338 55.9853 55.984 43.535 55.984 28.1768C55.984 12.8187 43.5338 0.368408 28.1756 0.368408C12.8174 0.368408 0.367188 12.8187 0.367188 28.1768C0.367188 43.535 12.8174 55.9853 28.1756 55.9853Z" fill="#4D4D4E"></path>
    <path d="M16.2539 19.3789L39.4497 12.0105C39.4497 12.0105 41.0929 11.1484 40.7023 12.7474L40.7613 19.8432C40.7613 19.8432 41.0486 20.8821 39.6192 21.14L30.2097 24.0947L16.2539 19.3789Z" fill="#F89820"></path>
    <path d="M16.2519 19.3789C16.2519 19.3789 15.3382 19.6 15.6108 21.1547L15.5593 28C15.5593 28 15.4782 28.8621 17.114 29.2084L40.1035 36.5768C40.1035 36.5768 40.8403 36.8789 40.7887 35.9284V28.3389C40.7887 28.3389 41.0098 27.5579 39.5803 27.0421L30.2077 24.0947L16.2519 19.3789Z" fill="#F89820"></path>
    <path d="M26.3865 32.1779L16.6013 35.1694C16.6013 35.1694 15.4223 35.2063 15.5623 37.4168C15.7023 39.6273 15.5623 44.0484 15.5623 44.0484C15.5623 44.0484 15.6581 44.8736 16.7855 44.3947L39.9813 37.0263C39.9813 37.0263 40.8065 36.8126 40.1139 36.5842C39.4213 36.3558 26.3865 32.1779 26.3865 32.1779Z" fill="url(#paint0_linear_4585_32617)"></path>
  </g>
  <defs>
    <linearGradient id="paint0_linear_4585_32617" x1="19.2602" y1="38.4528" x2="42.6971" y2="30.3385" gradientUnits="userSpaceOnUse">
      <stop offset="0.23" stop-color="#F89822"></stop>
      <stop offset="1" stop-color="#C27818"></stop>
    </linearGradient>
    <clipPath id="clip0_4585_32617">
      <rect width="56" height="56" fill="white"></rect>
    </clipPath>
  </defs>
</svg>
