<?xml version="1.0" encoding="UTF-8"?>
<svg xmlns="http://www.w3.org/2000/svg" width="38" height="34" viewBox="0 0 38 34" fill="none">
  <path d="M35.4719 0H2.20779C0.990416 0 0 0.990416 0 2.20779V24.1385C0 25.3559 0.990416 26.3463 2.20779 26.3463H13.026V31.7922H7.06493C6.45529 31.7922 5.96104 32.2865 5.96104 32.8961C5.96104 33.5057 6.45529 34 7.06493 34H30.6147C31.2244 34 31.7186 33.5057 31.7186 32.8961C31.7186 32.2865 31.2244 31.7922 30.6147 31.7922H24.6537V26.3463H35.4719C36.6892 26.3463 37.6797 25.3559 37.6797 24.1385V2.20779C37.6797 0.990416 36.6892 0 35.4719 0ZM22.4459 31.7922H15.2338V26.3463H22.4459V31.7922ZM35.4719 24.1385C34.5036 24.1385 2.98376 24.1385 2.20779 24.1385V2.20779H35.4719C35.4733 24.6148 35.4792 24.1385 35.4719 24.1385Z" fill="url(#paint0_linear_7742_37504)"></path>
  <defs>
    <linearGradient id="paint0_linear_7742_37504" x1="-12.1709" y1="11.6816" x2="10.2464" y2="47.8358" gradientUnits="userSpaceOnUse">
      <stop stop-color="#FDDD48"></stop>
      <stop offset="1" stop-color="#00B7C4"></stop>
    </linearGradient>
  </defs>
</svg>
