<?xml version="1.0" encoding="UTF-8"?>
<svg xmlns="http://www.w3.org/2000/svg" width="50" height="50" viewBox="0 0 50 50" fill="none">
  <path d="M41.2083 21.7031V19.6458C41.2083 10.4671 33.7412 3 24.5625 3C15.3838 3 7.91667 10.4671 7.91667 19.6458V21.7031C5.68466 22.1579 4 24.1358 4 26.5V31.8854C4 34.585 6.19627 36.7812 8.89583 36.7812H12.8125C13.8925 36.7812 14.7708 35.9029 14.7708 34.8229V23.5625C14.7708 22.4825 13.8925 21.6042 12.8125 21.6042H9.875V19.6458C9.875 16.701 10.7494 13.9579 12.248 11.6563L12.7097 12.1185C13.2683 12.6771 14.0081 12.9836 14.7963 12.9836H14.8124C15.5928 12.9797 16.3213 12.6722 16.8633 12.1175C18.9068 10.027 21.6412 8.875 24.5625 8.875C27.4838 8.875 30.2182 10.027 32.2622 12.118C32.8037 12.6722 33.5326 12.9797 34.3126 12.9836H34.3287C35.1164 12.9836 35.8572 12.6766 36.4153 12.1185L36.877 11.6563C38.3756 13.9579 39.25 16.701 39.25 19.6458V21.6042H36.3125C35.2325 21.6042 34.3542 22.4825 34.3542 23.5625V34.8229C34.3542 35.9029 35.2325 36.7812 36.3125 36.7812H39.25V38.7396C39.25 40.3596 37.9325 41.6771 36.3125 41.6771H28.8243C28.4018 40.2632 27.0907 39.2292 25.5417 39.2292H23.5833C21.694 39.2292 20.1562 40.7669 20.1562 42.6562C20.1562 44.5456 21.694 46.0833 23.5833 46.0833H25.5417C27.0907 46.0833 28.4018 45.0488 28.8243 43.6354H36.3125C39.0121 43.6354 41.2083 41.4391 41.2083 38.7396V36.6824C43.4403 36.2275 45.125 34.2491 45.125 31.8854V26.5C45.125 24.1358 43.4403 22.1579 41.2083 21.7031Z" fill="url(#paint0_linear_10302_19893)"></path>
  <defs>
    <linearGradient id="paint0_linear_10302_19893" x1="-9.28374" y1="16.9163" x2="19.0604" y2="58.7972" gradientUnits="userSpaceOnUse">
      <stop stop-color="#5B8DEF"></stop>
      <stop offset="1" stop-color="#0063F7"></stop>
    </linearGradient>
  </defs>
</svg>
