<?xml version="1.0" encoding="UTF-8"?>
<svg xmlns="http://www.w3.org/2000/svg" width="39" height="45" viewBox="0 0 39 45" fill="none">
  <path fill-rule="evenodd" clip-rule="evenodd" d="M28.1896 11.3957C30.9666 11.3957 33.2248 9.13749 33.2248 6.36047C33.2248 3.58344 30.9666 1.3252 28.1896 1.3252C25.4125 1.3252 23.1543 3.58344 23.1543 6.36047C23.1543 9.13749 25.4125 11.3957 28.1896 11.3957ZM28.1896 3.32986C29.8641 3.32986 31.2202 4.69183 31.2202 6.36047C31.2202 8.0291 29.8582 9.39107 28.1896 9.39107C26.5151 9.39107 25.159 8.0291 25.159 6.36047C25.159 4.69183 26.5151 3.32986 28.1896 3.32986ZM26.9289 22.7223C26.9289 25.4993 24.6707 27.7576 21.8937 27.7576C19.1165 27.7576 16.8584 25.4993 16.8584 22.7223C16.8584 19.9453 19.1166 17.687 21.8937 17.687C24.6707 17.687 26.9289 19.9453 26.9289 22.7223ZM24.9243 22.7223C24.9243 21.0536 23.5682 19.6917 21.8937 19.6917C20.225 19.6917 18.8631 21.0536 18.8631 22.7223C18.8631 24.3909 20.2192 25.7529 21.8937 25.7529C23.5623 25.7529 24.9243 24.3968 24.9243 22.7223ZM18.5962 29.2783H25.1762C28.8435 29.2783 31.827 32.2617 31.821 35.929V42.0904C31.821 43.0869 31.0427 43.8651 30.0463 43.8651H13.7083C12.7118 43.8651 11.9336 43.0869 11.9336 42.0904V35.9231C11.9336 32.2617 14.9229 29.2783 18.5962 29.2783ZM27.9708 41.8664H29.8162V35.9231C29.8162 33.3643 27.735 31.283 25.176 31.283H18.596C16.0312 31.283 13.944 33.3702 13.944 35.9291V41.8664H15.7601V35.9526C15.7601 35.4987 16.1316 35.1272 16.5855 35.1272C17.0395 35.1272 17.411 35.4987 17.411 35.9526V41.8664H26.3199V35.9526C26.3199 35.4987 26.6914 35.1272 27.1453 35.1272C27.5993 35.1272 27.9708 35.4987 27.9708 35.9526V41.8664ZM31.4665 12.911C33.2412 12.911 34.9097 13.6067 36.1656 14.8626C37.4274 16.1185 38.1172 17.787 38.1171 19.5619H38.1112V25.7351C38.1112 26.7315 37.3329 27.5098 36.3365 27.5098H27.4452C26.8909 27.5098 26.4428 27.0617 26.4428 26.5075C26.4428 25.9532 26.8909 25.5051 27.4452 25.5051H32.616V19.5913C32.616 19.1374 32.9875 18.7659 33.4414 18.7659C33.8954 18.7659 34.2669 19.1374 34.2669 19.5913V25.5051H36.1124V19.5618C36.1124 18.3295 35.629 17.1622 34.7504 16.2836C33.8719 15.4051 32.7104 14.9217 31.4722 14.9217H24.7743C23.3122 14.9217 21.9206 15.6292 21.0539 16.8143C20.8594 17.0796 20.5527 17.2211 20.2462 17.2211C20.0457 17.2211 19.8335 17.1562 19.6566 17.0265C19.2144 16.6962 19.1142 16.0713 19.4444 15.6232C20.6884 13.9251 22.6813 12.911 24.7803 12.911H31.4665ZM9.95324 18.1174C12.7303 18.1174 14.9885 15.8592 14.9885 13.0821C14.9885 10.3051 12.7303 8.04688 9.95324 8.04688C7.17621 8.04688 4.91797 10.3051 4.91797 13.0821C4.91797 15.8592 7.1761 18.1174 9.95324 18.1174ZM9.95324 10.0457C11.6277 10.0457 12.9838 11.4076 12.9838 13.0763C12.9838 14.7508 11.6219 16.1069 9.95324 16.1069C8.27873 16.1069 6.92263 14.7449 6.92263 13.0763C6.92263 11.4076 8.2846 10.0457 9.95324 10.0457ZM5.49498 32.2262H10.5892C11.1435 32.2262 11.5915 32.6743 11.5917 33.2226C11.5917 33.7768 11.1436 34.2249 10.5893 34.2249H1.7747C0.778236 34.2249 0 33.4467 0 32.4502V26.2829C0 22.6215 2.98926 19.6381 6.66256 19.6381L13.2839 19.644C14.1388 19.644 14.9407 19.8031 15.7366 20.1216C16.2497 20.3279 16.4973 20.9116 16.2909 21.4246C16.1316 21.8137 15.7543 22.0495 15.3593 22.0495C15.2295 22.0495 15.1057 22.026 14.9819 21.9788C14.4276 21.7548 13.8734 21.6487 13.2779 21.6487L6.65658 21.6428C4.08591 21.6428 1.99868 23.724 1.99868 26.2829V32.2262H3.84408V26.3066C3.84408 25.8526 4.21558 25.4811 4.66953 25.4811C5.12348 25.4811 5.49498 25.8526 5.49498 26.3066V32.2262Z" fill="url(#paint0_linear_8297_37254)"></path>
  <defs>
    <linearGradient id="paint0_linear_8297_37254" x1="-12.3122" y1="15.066" x2="16.2903" y2="54.7377" gradientUnits="userSpaceOnUse">
      <stop stop-color="#3E7BFA"></stop>
      <stop offset="1" stop-color="#6600CC"></stop>
    </linearGradient>
  </defs>
</svg>
