<svg width="55" height="53" viewBox="0 0 55 53" fill="none" xmlns="http://www.w3.org/2000/svg">
<path fill-rule="evenodd" clip-rule="evenodd" d="M46.6236 0.133975L41.25 3.35816C41.0707 3.46575 40.8607 3.51035 40.6532 3.48487C40.4457 3.45939 40.2527 3.36529 40.1048 3.21753L39.4419 2.5546C39.2659 2.37863 39.0567 2.23945 38.8264 2.14516C38.5961 2.05088 38.3493 2.00339 38.1005 2.00545C37.8517 2.00751 37.6057 2.05909 37.377 2.15717C37.1483 2.25526 36.9414 2.39789 36.7684 2.57675C36.061 3.3073 36.0913 4.5073 36.8358 5.2519L37.4531 5.86925C37.6009 6.01713 37.695 6.21014 37.7204 6.41763C37.7459 6.62512 37.7013 6.83517 37.5937 7.01441L34.3694 12.3882C34.2616 12.5673 34.2168 12.7775 34.2423 12.985C34.2678 13.1926 34.3621 13.3857 34.5101 13.5334L35.4636 14.4871L40.1042 9.84648C40.28 9.67069 40.5185 9.57193 40.7671 9.57193C41.0157 9.57193 41.2542 9.67069 41.43 9.84648L44.0817 12.4981C44.2575 12.6739 44.3562 12.9123 44.3562 13.1609C44.3562 13.4096 44.2575 13.648 44.0817 13.8238L43.791 14.1146C43.643 14.2623 43.5487 14.4553 43.5232 14.6629C43.4977 14.8705 43.5425 15.0806 43.6503 15.2597L44.2681 16.2894L50.525 10.0326L49.4953 9.41476C49.3161 9.30692 49.106 9.26218 48.8985 9.28767C48.6909 9.31316 48.4979 9.4074 48.3501 9.55538L48.0594 9.84612C47.8836 10.0219 47.6451 10.1207 47.3965 10.1207C47.1479 10.1207 46.9095 10.0219 46.7337 9.84612L44.082 7.19476C43.9063 7.01895 43.8075 6.78051 43.8075 6.53189C43.8075 6.28327 43.9063 6.04483 44.082 5.86901L48.7227 1.22839L47.769 0.274835C47.6212 0.126819 47.4282 0.0325323 47.2206 0.00700347C47.013 -0.0185254 46.8028 0.0261735 46.6236 0.133975ZM25.1516 6.23775C25.8549 6.94102 26.25 7.89484 26.25 8.8894C26.25 10.3308 24.1886 13.9775 22.5 16.5778C20.8114 13.9775 18.75 10.3308 18.75 8.8894C18.75 7.89484 19.1451 6.94102 19.8484 6.23775C20.5516 5.53449 21.5054 5.1394 22.5 5.1394C23.4946 5.1394 24.4484 5.53449 25.1516 6.23775ZM20.941 7.84771C20.735 8.15605 20.625 8.51856 20.625 8.8894C20.6256 9.3865 20.8233 9.86308 21.1748 10.2146C21.5263 10.5661 22.0029 10.7638 22.5 10.7644C22.8708 10.7644 23.2334 10.6544 23.5417 10.4484C23.85 10.2424 24.0904 9.94955 24.2323 9.60694C24.3742 9.26432 24.4113 8.88732 24.339 8.52361C24.2666 8.1599 24.088 7.8258 23.8258 7.56358C23.5636 7.30136 23.2295 7.12278 22.8658 7.05043C22.5021 6.97808 22.1251 7.01522 21.7825 7.15713C21.4399 7.29904 21.147 7.53937 20.941 7.84771ZM33.9099 44.2833C35.7834 41.7178 36.9704 38.7163 37.3583 35.5633C36.8786 35.6253 36.3954 35.6573 35.9117 35.6592C33.9391 35.6592 32.3647 35.0804 31.2114 33.9273C29.9832 32.699 29.2289 31.5633 28.6229 30.6506C27.3501 28.7341 26.8736 28.017 23.591 28.5641C23.0262 28.6628 22.4542 28.7149 21.8809 28.7198C19.1656 28.7198 18.4417 27.2917 17.8899 26.2031L17.8897 26.2028C17.5052 25.4444 17.2548 25.0044 16.5779 24.7787C15.02 24.2594 14.0232 23.4602 13.6141 22.4034C12.9676 20.7316 13.967 18.9491 14.6968 17.6476L14.6977 17.646L14.6977 17.646C14.8473 17.3793 14.9885 17.1274 15.0984 16.9076C15.3072 16.4905 15.312 15.768 15.1229 14.8677C11.3464 15.615 7.89177 17.5073 5.22875 20.2874C5.69425 20.6104 6.09326 21.02 6.40402 21.4938C7.03245 22.4364 8.06967 23.1671 9.16774 23.9407L9.16801 23.9409L9.16819 23.941C11.0225 25.2475 13.1244 26.7284 13.1244 29.5144C13.1244 31.9347 12.0609 32.8386 11.1227 33.636C10.3668 34.2784 9.7141 34.8331 9.34637 36.3042C9.21746 36.8198 9.12277 37.3541 9.03125 37.8708C8.59121 40.3551 8.09691 43.1414 3.47656 44.1294C5.1077 46.4265 7.2361 48.326 9.70322 49.6864C12.1703 51.0468 14.9126 51.833 17.7257 51.9866C20.5389 52.1401 23.3504 51.6569 25.9509 50.5731C28.3938 49.5549 30.5914 48.0313 32.4002 46.1045C32.6732 46.1374 33.1557 46.1676 33.5928 46.195L33.5929 46.195H33.593C33.9566 46.2178 34.2888 46.2387 34.4425 46.2574C34.8841 46.3112 35.3325 46.3489 35.7755 46.3698C35.7905 46.3707 35.8053 46.3707 35.8202 46.3707C36.0648 46.3704 36.2997 46.2744 36.4746 46.1033C36.6494 45.9321 36.7505 45.6994 36.7561 45.4548C36.7617 45.2102 36.6715 44.973 36.5047 44.7941C36.3379 44.6151 36.1077 44.5084 35.8633 44.4968C35.4661 44.4781 35.0649 44.4443 34.6693 44.3961C34.531 44.3793 34.2132 44.3606 33.8641 44.3401L33.9099 44.2833ZM15.4248 33.4625C16.2648 32.689 17.2614 32.105 18.3468 31.7503C19.9946 31.226 22.4904 31.108 25.0216 33.5236C25.0716 33.5713 25.1161 33.6243 25.1544 33.6818C25.8233 34.6852 26.5623 34.8147 27.4977 34.9786L27.4981 34.9787C28.6177 35.1747 30.1511 35.4433 30.8885 37.6554C31.388 39.1538 31.0654 41.1345 30.0042 43.0912C30.22 43.2028 30.3841 43.3938 30.4618 43.624C30.5395 43.8542 30.5249 44.1056 30.4209 44.3252C30.3169 44.5448 30.1318 44.7154 29.9044 44.8012C29.6771 44.8869 29.4254 44.8811 29.2023 44.7848C29.1524 44.762 29.1028 44.738 29.0534 44.7139C29.0234 44.6994 28.9934 44.6848 28.9633 44.6706C27.5988 46.3988 25.7641 47.661 23.815 48.165C23.2628 48.3141 22.6938 48.3929 22.1218 48.3994C21.1804 48.3994 20.3778 48.1455 19.7234 47.6388C18.4194 46.6295 17.8119 44.7428 17.8119 41.7019C17.8119 40.8518 16.989 39.9825 16.1932 39.1418L16.1916 39.1402L16.1916 39.1401C15.4934 38.4024 14.7718 37.6398 14.4534 36.7472C14.0432 35.5964 14.3701 34.4914 15.4248 33.4625ZM19.6874 41.7018C19.6874 44.0492 20.0858 45.5481 20.872 46.1568C21.4071 46.571 22.2395 46.636 23.3464 46.3497C24.8113 45.9711 26.2018 45.0414 27.2864 43.7599C27.2578 43.7423 27.2291 43.7249 27.2004 43.7075L27.1998 43.7072C27.143 43.6728 27.0862 43.6384 27.0303 43.6027C26.9266 43.5365 26.8368 43.4504 26.7663 43.3495C26.6958 43.2486 26.6458 43.1348 26.6193 43.0146C26.5927 42.8944 26.5901 42.7701 26.6116 42.6488C26.6331 42.5276 26.6783 42.4118 26.7445 42.308C26.8108 42.2043 26.8968 42.1145 26.9977 42.044C27.0986 41.9735 27.2124 41.9235 27.3327 41.897C27.4529 41.8704 27.5772 41.8678 27.6984 41.8893C27.8196 41.9108 27.9354 41.956 28.0392 42.0222C28.1234 42.076 28.2091 42.1278 28.2947 42.1796L28.2948 42.1796L28.2948 42.1796L28.2948 42.1796L28.2949 42.1796L28.2949 42.1797L28.295 42.1797L28.2951 42.1798L28.2953 42.1799L28.3485 42.2121C28.3499 42.2097 28.3513 42.2074 28.3526 42.2049C29.1467 40.7443 29.4371 39.2283 29.1105 38.2481C28.7267 37.0971 28.2082 37.0059 27.1753 36.8253C26.1541 36.6465 24.7624 36.4027 23.6576 34.8138C22.4528 33.6921 21.2801 33.3181 20.2531 33.3181C18.2714 33.3181 16.8313 34.7091 16.7404 34.7987L16.7355 34.8035C15.7598 35.7546 16.0197 36.2303 17.5558 37.8525L17.5577 37.8544C18.556 38.9099 19.6874 40.106 19.6874 41.7018ZM22.3432 37.6399C22.5454 37.4952 22.7968 37.4368 23.0421 37.4775C23.2874 37.5182 23.5065 37.6547 23.6511 37.8569C24.0809 38.4572 24.5514 39.0273 25.0595 39.563C25.146 39.652 25.2139 39.7572 25.2595 39.8726C25.305 39.9881 25.3271 40.1114 25.3246 40.2354C25.3222 40.3595 25.2951 40.4818 25.2449 40.5953C25.1948 40.7088 25.1227 40.8112 25.0327 40.8966C24.9427 40.982 24.8366 41.0487 24.7207 41.0928C24.6047 41.137 24.4811 41.1576 24.3571 41.1536C24.2331 41.1496 24.1111 41.121 23.9982 41.0695C23.8854 41.018 23.7838 40.9446 23.6995 40.8536C23.1319 40.2553 22.6063 39.6186 22.1263 38.9479C22.0546 38.8478 22.0034 38.7345 21.9755 38.6146C21.9476 38.4947 21.9437 38.3704 21.9638 38.249C21.9839 38.1275 22.0278 38.0112 22.0929 37.9067C22.158 37.8022 22.243 37.7115 22.3432 37.6399ZM17.1716 23.0001C18.6124 23.4805 19.1393 24.5198 19.5628 25.3555C20.1199 26.4549 20.4886 27.1808 23.2835 26.7149C25.3376 26.3726 26.738 26.4816 27.8242 27.0682C28.8704 27.6333 29.4797 28.5508 30.1853 29.6131L30.1856 29.6137C30.7746 30.5006 31.4422 31.5059 32.5381 32.6019C33.5879 33.6519 35.2549 34.0019 37.4951 33.6503C37.4977 33.522 37.5 33.3937 37.5 33.2649C37.5001 29.4358 36.3282 25.6984 34.1419 22.5549C31.9556 19.4114 28.8595 17.0123 25.2697 15.6799C24.3322 17.2481 23.4757 18.5016 23.2716 18.7971C23.1854 18.922 23.0701 19.0241 22.9357 19.0946C22.8014 19.1651 22.6519 19.2019 22.5001 19.2019C22.3484 19.2019 22.1989 19.1651 22.0645 19.0946C21.9302 19.0241 21.8149 18.922 21.7287 18.7971C21.476 18.4313 20.2247 16.5986 19.056 14.5174C18.9539 14.5158 18.8517 14.5143 18.7501 14.5143C18.154 14.5143 17.5648 14.5435 16.9827 14.5982C17.2405 15.8977 17.1726 16.9544 16.776 17.7465C16.6464 18.0055 16.4946 18.2763 16.3339 18.5629L16.333 18.5645L16.3324 18.5656C15.7544 19.5967 15.0356 20.8789 15.3636 21.7271C15.5611 22.2376 16.1693 22.666 17.1716 23.0001ZM7.18535 37.5438C6.73348 40.0946 6.42528 41.8189 2.39403 42.4229C0.585878 39.2008 -0.227999 35.5156 0.0549753 31.8318C0.33795 28.1479 1.70511 24.6303 3.98414 21.7222C4.3327 21.9191 4.62807 22.1979 4.84477 22.5345C5.66684 23.7676 6.89766 24.6348 8.088 25.4736L8.08852 25.4739C9.78492 26.6689 11.2498 27.7011 11.2498 29.5144C11.2498 31.0676 10.745 31.4967 9.90879 32.2074C9.07688 32.9144 8.04164 33.7944 7.52778 35.8495C7.383 36.4282 7.2826 36.9949 7.1855 37.543L7.18535 37.5438ZM39.8983 46.0645C39.6656 46.0645 39.4412 45.9779 39.2688 45.8216C39.0964 45.6653 38.9883 45.4505 38.9655 45.2189C38.9426 44.9873 39.0068 44.7555 39.1454 44.5686C39.284 44.3817 39.4872 44.253 39.7154 44.2076C40.4381 44.0628 41.1498 43.8678 41.8454 43.624C42.08 43.5416 42.3378 43.5558 42.562 43.6635C42.7861 43.7712 42.9583 43.9635 43.0407 44.1982C43.123 44.4328 43.1088 44.6906 43.0011 44.9148C42.8934 45.1389 42.7011 45.3111 42.4665 45.3935C41.6884 45.6663 40.8922 45.8844 40.0837 46.0463C40.0226 46.0585 39.9605 46.0646 39.8983 46.0645ZM45.2618 43.4489C45.4239 43.5694 45.6205 43.6344 45.8224 43.6342C46.0049 43.6342 46.1833 43.5807 46.3357 43.4804C47.0251 43.0281 47.6825 42.5288 48.3033 41.986C48.3962 41.9051 48.4723 41.8066 48.5271 41.6961C48.5819 41.5857 48.6145 41.4656 48.6228 41.3426C48.6311 41.2196 48.6152 41.0962 48.5757 40.9794C48.5363 40.8626 48.4743 40.7547 48.3931 40.6619C48.3119 40.5692 48.2133 40.4933 48.1028 40.4387C47.9923 40.3841 47.8721 40.3518 47.7491 40.3437C47.6261 40.3356 47.5027 40.3518 47.3859 40.3915C47.2692 40.4311 47.1615 40.4934 47.0688 40.5747C46.5131 41.0607 45.9246 41.5077 45.3074 41.9126C45.1385 42.0233 45.0099 42.1855 44.9406 42.3752C44.8714 42.5649 44.8652 42.7719 44.9231 42.9654C44.981 43.1588 45.0998 43.3284 45.2618 43.4489ZM50.4162 39.1714C50.2449 39.1713 50.0769 39.1242 49.9305 39.0353C49.784 38.9464 49.6648 38.8191 49.5856 38.6672C49.5064 38.5152 49.4704 38.3445 49.4814 38.1736C49.4925 38.0026 49.5501 37.838 49.6482 37.6975C50.0703 37.0921 50.4497 36.4581 50.7836 35.8C50.8393 35.6902 50.916 35.5924 51.0095 35.5122C51.1029 35.4321 51.2113 35.3711 51.3283 35.3329C51.4453 35.2946 51.5687 35.2797 51.6914 35.2891C51.8142 35.2985 51.9339 35.332 52.0437 35.3877C52.1535 35.4434 52.2513 35.5201 52.3314 35.6136C52.4116 35.707 52.4725 35.8154 52.5108 35.9324C52.5491 36.0494 52.564 36.1728 52.5546 36.2955C52.5452 36.4183 52.5117 36.538 52.456 36.6478C52.0825 37.3839 51.6581 38.0931 51.1859 38.7702C51.0995 38.8942 50.9844 38.9955 50.8504 39.0654C50.7163 39.1353 50.5674 39.1716 50.4162 39.1714ZM52.6036 33.2203C52.7305 33.2814 52.8695 33.3132 53.0104 33.3133C53.2227 33.3129 53.4285 33.2407 53.5944 33.1082C53.7602 32.9758 53.8763 32.791 53.9236 32.5841C54.0612 31.9802 54.1676 31.3697 54.2425 30.7548C54.2671 30.553 54.2886 30.3475 54.3064 30.144C54.3281 29.8963 54.2504 29.6502 54.0906 29.4597C53.9307 29.2692 53.7018 29.1501 53.454 29.1284C53.2063 29.1068 52.9602 29.1844 52.7697 29.3443C52.5792 29.5041 52.4601 29.7331 52.4384 29.9808C52.4226 30.1631 52.4033 30.3471 52.3813 30.5281C52.3143 31.0789 52.2189 31.6259 52.0956 32.1668C52.0644 32.3042 52.0645 32.4468 52.096 32.5842C52.1274 32.7215 52.1894 32.85 52.2772 32.9601C52.3651 33.0702 52.4767 33.1591 52.6036 33.2203ZM53.2317 26.9111C53.0086 26.9109 52.7928 26.831 52.6233 26.6859C52.4537 26.5408 52.3415 26.34 52.3068 26.1195C52.1916 25.391 52.0257 24.6715 51.8102 23.9661C51.7409 23.7293 51.7677 23.4748 51.8848 23.2576C52.002 23.0404 52.2 22.8782 52.4359 22.8061C52.6718 22.734 52.9267 22.7578 53.1452 22.8723C53.3638 22.9869 53.5283 23.1829 53.6032 23.418C53.8442 24.2072 54.0298 25.0123 54.1587 25.8274C54.1779 25.949 54.1729 26.0732 54.1441 26.1929C54.1153 26.3126 54.0632 26.4255 53.9907 26.525C53.9183 26.6246 53.827 26.7089 53.722 26.7731C53.6169 26.8374 53.5003 26.8804 53.3787 26.8995C53.3301 26.9072 53.2809 26.9111 53.2317 26.9111ZM50.5823 20.7705C50.7234 20.8504 50.8829 20.8923 51.045 20.8921H51.0455C51.2113 20.892 51.3741 20.8478 51.5173 20.7642C51.6605 20.6806 51.7789 20.5605 51.8606 20.4162C51.9422 20.2719 51.9841 20.1085 51.982 19.9427C51.9799 19.7769 51.9338 19.6146 51.8485 19.4724C51.4242 18.7651 50.9515 18.088 50.434 17.4458C50.2779 17.2522 50.0513 17.1285 49.8041 17.102C49.5569 17.0755 49.3092 17.1483 49.1157 17.3044C48.9221 17.4604 48.7985 17.687 48.7719 17.9342C48.7454 18.1815 48.8182 18.4291 48.9743 18.6227C49.4374 19.1974 49.8603 19.8035 50.2399 20.4365C50.3232 20.5756 50.4412 20.6907 50.5823 20.7705Z" fill="url(#paint0_linear_1411_7768)"/>
<defs>
<linearGradient id="paint0_linear_1411_7768" x1="-17.5426" y1="16.8011" x2="15.443" y2="70.1145" gradientUnits="userSpaceOnUse">
<stop stop-color="#3E7BFA"/>
<stop offset="1" stop-color="#6600CC"/>
</linearGradient>
</defs>
</svg>
