<?xml version="1.0" standalone="no"?>
<!DOCTYPE svg PUBLIC "-//W3C//DTD SVG 20010904//EN"
 "http://www.w3.org/TR/2001/REC-SVG-20010904/DTD/svg10.dtd">
<svg version="1.0" xmlns="http://www.w3.org/2000/svg"
 width="1920.000000pt" height="1530.000000pt" viewBox="0 0 1920.000000 1530.000000"
 preserveAspectRatio="xMidYMid meet">

<g transform="translate(0.000000,1530.000000) scale(0.100000,-0.100000)"
fill="#000000" stroke="none">
<path d="M13040 9754 c-117 -31 -211 -124 -226 -223 -8 -51 8 -143 33 -196 15
-31 15 -38 0 -92 -27 -96 -22 -175 24 -347 l11 -39 38 83 c21 46 46 111 55
145 l17 62 62 -22 c180 -66 523 -56 859 24 62 15 77 16 77 5 0 -8 -14 -96 -30
-196 -17 -101 -33 -220 -37 -265 -5 -72 -4 -83 10 -83 9 0 26 23 42 58 38 79
51 92 97 92 38 0 97 -23 109 -43 6 -8 35 77 79 228 20 68 21 115 6 167 -21 72
-69 142 -127 185 -40 30 -48 43 -54 78 -12 83 -84 163 -197 221 -58 29 -78 30
-85 4 -3 -11 -9 -20 -14 -20 -5 0 -49 20 -98 44 -240 121 -495 172 -651 130z"/>
<path d="M13017 8950 c-82 -11 -123 -56 -82 -90 18 -15 212 -5 233 12 15 13
16 60 0 76 -13 13 -60 14 -151 2z"/>
<path d="M13472 8915 c-23 -17 -29 -49 -13 -74 6 -9 44 -17 115 -23 113 -10
136 -5 136 32 0 33 -45 57 -121 64 -39 4 -76 9 -83 12 -6 2 -21 -3 -34 -11z"/>
<path d="M13006 8694 c-23 -23 -20 -61 7 -78 30 -20 66 -10 78 22 20 52 -46
96 -85 56z"/>
<path d="M13497 8672 c-22 -24 -21 -45 1 -65 35 -32 92 -11 92 33 0 45 -62 66
-93 32z"/>
<path d="M13391 8307 c-2 -41 -230 -107 -266 -77 -25 20 -29 4 -8 -32 21 -38
92 -78 138 -78 39 0 94 28 117 61 25 33 39 96 28 123 -7 18 -9 18 -9 3z"/>
<path d="M13595 7803 c-16 -2 -104 -13 -195 -24 -91 -11 -170 -26 -176 -32 -8
-9 -9 -35 -3 -91 8 -68 7 -82 -7 -97 -9 -10 -20 -16 -25 -13 -5 3 -19 -1 -31
-8 -13 -7 -30 -13 -38 -14 -25 -3 -101 -41 -100 -50 1 -5 -4 -10 -11 -13 -7
-2 -9 1 -5 8 5 8 0 8 -18 -1 -24 -10 -31 -20 -27 -41 1 -5 -3 -6 -9 -2 -6 3
-7 11 -4 17 4 6 -7 3 -25 -8 -17 -10 -31 -25 -31 -34 0 -8 -5 -22 -10 -30 -8
-11 -9 -7 -5 15 3 17 2 24 -1 18 -3 -7 -14 -13 -24 -13 -10 0 -21 -4 -24 -9
-3 -4 -56 -33 -119 -64 -62 -31 -120 -64 -128 -73 -13 -17 -13 -17 12 0 29 18
69 29 69 18 0 -4 -13 -16 -28 -27 -21 -15 -24 -15 -13 -2 16 20 3 22 -22 2
-11 -7 -24 -12 -31 -9 -16 6 -53 -22 -42 -33 5 -4 11 -2 13 5 3 6 10 12 16 12
7 -1 2 -9 -11 -20 -13 -11 -21 -24 -17 -30 5 -8 11 -6 19 5 11 15 12 14 12 -3
0 -11 -5 -19 -11 -18 -21 3 -36 19 -31 32 3 8 1 14 -4 14 -9 0 -14 -14 -11
-32 0 -5 -4 -7 -10 -5 -25 5 -73 -114 -153 -379 -167 -552 -218 -719 -225
-732 -6 -10 -212 -12 -1024 -12 -679 0 -1032 -3 -1064 -10 -109 -24 -176 -106
-177 -214 0 -56 17 -105 207 -592 114 -292 207 -534 207 -538 0 -3 -64 -6
-142 -6 -171 0 -248 -15 -354 -67 -92 -44 -194 -140 -236 -219 -57 -107 -73
-252 -43 -384 21 -89 101 -247 179 -351 130 -175 367 -399 626 -591 124 -92
363 -251 473 -314 37 -21 67 -41 67 -44 0 -3 -13 -14 -30 -23 -27 -16 -39 -17
-137 -6 -162 19 -443 17 -525 -4 -72 -18 -428 -181 -537 -246 -36 -22 -81 -55
-99 -74 -68 -70 -31 -110 170 -184 l102 -38 -3704 -5 -3705 -5 -40 -21 c-76
-41 -113 -108 -95 -173 13 -50 72 -103 130 -119 35 -10 1672 -12 7525 -10
l7480 3 48 28 c60 35 92 92 84 151 -7 53 -75 118 -141 135 -30 7 -204 11 -535
11 -321 0 -491 3 -491 10 0 6 4 10 10 10 15 0 28 32 34 90 4 30 9 71 12 90 3
19 7 54 9 77 2 23 11 89 20 148 9 58 14 117 11 131 -4 13 -2 24 3 24 9 0 33
161 25 170 -3 2 -14 -1 -24 -8 -25 -15 -695 -18 -685 -2 3 6 1 10 -5 10 -13 0
-11 -48 3 -67 14 -20 0 -43 -25 -42 -22 0 -22 1 -3 9 14 5 3 8 -35 7 -60 -1
-95 -17 -103 -48 -3 -11 -9 -18 -14 -17 -4 2 -9 0 -11 -4 -5 -17 -1 -25 13
-25 8 0 15 9 15 19 0 12 4 16 12 12 7 -4 8 -3 4 4 -4 7 7 13 29 18 19 3 35 10
35 16 0 5 5 6 12 2 11 -7 37 -13 73 -16 6 -1 11 -31 13 -67 1 -36 7 -91 13
-123 5 -31 10 -73 11 -93 1 -27 7 -39 25 -49 23 -12 23 -13 7 -27 -16 -12 -17
-12 -11 4 3 9 2 17 -3 17 -14 0 -12 -34 2 -48 17 -17 28 -15 21 6 -3 9 -3 14
1 10 11 -9 15 -59 5 -52 -5 3 -9 1 -9 -5 0 -5 5 -13 10 -16 6 -3 10 -11 10
-17 0 -5 -9 0 -19 13 -14 17 -16 26 -8 32 8 5 4 7 -8 4 -11 -2 -19 -8 -18 -15
2 -7 -4 -9 -14 -5 -11 4 -13 8 -5 11 20 6 14 17 -28 45 -23 14 -38 22 -35 17
7 -11 -8 -21 -20 -12 -6 4 -17 16 -25 27 l-15 20 24 -20 c17 -14 23 -16 19 -5
-2 8 -14 20 -26 26 -12 6 -19 14 -15 18 4 4 0 4 -10 0 -12 -4 -16 -2 -12 8 3
8 -7 26 -25 41 -20 18 -32 40 -36 68 -4 26 -10 36 -15 28 -4 -7 -3 -21 2 -32
7 -12 7 -22 0 -31 -15 -18 22 -60 46 -52 16 5 16 4 2 -6 -14 -9 -12 -14 10
-38 43 -47 211 -165 196 -138 -5 7 -4 10 0 5 7 -6 13 -45 15 -110 1 -10 10
-23 21 -30 10 -6 19 -15 19 -19 0 -5 -333 -8 -741 -8 l-740 0 78 78 c161 159
268 369 310 607 18 105 13 390 -11 588 -8 65 -13 124 -10 131 2 6 -2 31 -11
55 -24 70 -29 167 -11 249 8 40 13 79 9 87 -3 8 -1 15 5 15 5 0 12 24 15 53 4
28 9 67 13 86 4 22 3 32 -4 27 -13 -8 -42 3 -42 17 0 7 4 7 12 -1 7 -7 16 -12
20 -12 9 0 4 52 -7 70 -5 9 -4 11 3 6 7 -4 16 -21 22 -39 l10 -32 -3 35 -2 35
140 0 c150 0 191 11 256 67 44 39 99 132 93 159 -5 19 -4 21 5 9 9 -13 11 -12
12 5 0 11 3 31 6 45 17 69 -1 473 -22 503 -8 12 -15 26 -15 32 0 5 5 3 10 -5
7 -11 9 -1 7 33 -3 64 -29 62 -38 -3 -5 -35 -6 -38 -7 -14 -1 17 -4 47 -7 65
-4 29 -3 30 4 9 5 -14 9 -20 10 -14 1 7 11 15 24 19 19 6 19 8 5 12 -10 2 -18
8 -18 13 0 5 7 7 16 3 15 -6 16 0 10 43 -4 27 -7 78 -7 114 0 45 -3 57 -8 40
-4 -14 -7 19 -7 80 1 58 -3 181 -7 275 -7 137 -12 174 -25 189 -9 11 -11 16
-4 12 11 -6 13 10 10 82 -1 50 -5 87 -8 82 -3 -4 -6 66 -7 157 -1 101 -6 169
-13 177 -6 9 -8 34 -4 70 6 50 5 56 -12 57 -15 0 -16 2 -4 7 10 5 15 21 15 50
0 23 -2 42 -5 42 -4 0 -4 16 -2 36 3 26 1 35 -7 30 -8 -5 -8 0 -1 18 6 16 6
70 0 148 -13 165 -19 194 -46 253 -30 65 -50 89 -65 79 -7 -4 -10 -3 -5 4 8
13 -31 42 -57 42 -10 0 -16 4 -13 8 2 4 -4 14 -16 21 -11 7 -18 8 -14 3 6 -11
-80 -9 -91 2 -16 16 21 24 44 9 13 -9 27 -12 31 -8 4 4 1 10 -6 12 -7 3 -33
16 -59 29 -32 17 -49 22 -56 15 -6 -6 -7 -14 -3 -18 4 -4 10 -2 14 4 5 8 12 8
25 -2 16 -12 16 -13 -5 -18 -27 -8 -50 10 -43 33 4 13 -1 19 -20 24 -14 4 -31
3 -37 0 -22 -14 -105 -10 -105 4 0 7 6 10 14 7 7 -3 20 -8 28 -11 11 -5 13 -2
9 10 -4 11 -1 16 12 16 14 0 16 -2 6 -9 -11 -7 -11 -9 1 -14 13 -5 46 8 37 15
-24 18 -59 25 -70 15 -10 -9 -12 -8 -7 4 7 22 -26 36 -80 34 -28 0 -43 4 -43
12 0 9 7 10 26 2 15 -5 29 -8 31 -6 8 9 -77 36 -93 30 -12 -4 -15 -3 -10 5 5
8 1 10 -10 5 -12 -4 -15 -3 -10 5 5 8 2 10 -8 6 -9 -3 -16 -1 -16 5 0 12 -26
15 -33 4 -2 -5 -2 -3 -1 4 3 13 -97 51 -143 55 -7 1 -13 5 -13 9 0 5 -7 5 -17
2 -10 -4 -14 -2 -10 4 8 13 -39 27 -55 17 -7 -4 -8 -3 -4 4 5 8 0 12 -13 12
-10 0 -22 -6 -24 -12 -4 -10 -6 -10 -6 0 -1 7 -14 12 -33 12 -26 0 -30 -3 -18
-11 13 -9 13 -10 0 -6 -12 3 -16 27 -18 119 -2 76 -7 119 -15 126 -12 10 -408
23 -462 15z m412 -259 c-3 -3 -12 -4 -19 -1 -8 3 -5 6 6 6 11 1 17 -2 13 -5z
m-170 -20 c-3 -3 -12 -4 -19 -1 -8 3 -5 6 6 6 11 1 17 -2 13 -5z m-697 -21 c0
-3 -6 -3 -13 0 -7 3 -21 -1 -32 -9 -10 -8 -26 -14 -34 -14 -9 0 0 8 19 19 31
16 60 18 60 4z m253 10 c-7 -2 -19 -2 -25 0 -7 3 -2 5 12 5 14 0 19 -2 13 -5z
m-183 -23 c0 -5 -7 -7 -15 -4 -8 4 -15 1 -15 -5 0 -6 5 -11 12 -11 6 0 9 -2 6
-5 -3 -3 -13 -3 -22 1 -16 6 -16 8 0 25 16 18 34 17 34 -1z m350 10 l-45 -7
45 -3 c28 -2 36 -4 21 -7 -13 -3 -40 -2 -60 2 -31 6 -33 9 -16 15 11 5 38 8
60 8 l40 -1 -45 -7z m731 0 c23 0 25 -25 3 -34 -9 -4 -19 -4 -22 -1 -3 3 0 5
6 5 20 0 13 16 -10 26 -13 6 -17 9 -10 7 8 -2 22 -3 33 -3z m-1026 -10 c3 -5
-1 -10 -10 -10 -9 0 -13 5 -10 10 3 6 8 10 10 10 2 0 7 -4 10 -10z m195 -14
c8 -3 4 -4 -10 -1 -14 2 -34 5 -45 6 -16 1 -15 2 5 8 14 4 27 4 30 1 3 -4 12
-10 20 -14z m405 15 c-6 -6 -25 -6 -45 -1 l-35 8 45 1 c27 1 40 -3 35 -8z
m-724 -19 c-7 -2 -18 1 -23 6 -8 8 -4 9 13 5 13 -4 18 -8 10 -11z m187 1 c-10
-2 -26 -2 -35 0 -10 3 -2 5 17 5 19 0 27 -2 18 -5z m475 0 c-7 -2 -21 -2 -30
0 -10 3 -4 5 12 5 17 0 24 -2 18 -5z m676 -54 c29 -10 43 -29 21 -29 -5 0 -10
5 -10 10 0 6 -3 9 -7 9 -22 -4 -43 2 -43 11 0 12 0 12 39 -1z m-1524 -28 c-3
-6 -11 -11 -16 -11 -5 0 -4 6 3 14 14 16 24 13 13 -3z m1475 9 c0 -5 -2 -10
-4 -10 -3 0 -8 5 -11 10 -3 6 -1 10 4 10 6 0 11 -4 11 -10z m-1600 -54 c0 -7
-40 -14 -44 -7 -3 4 6 8 20 9 13 1 24 0 24 -2z m36 -21 c-11 -8 -24 -15 -30
-15 -5 0 -1 7 10 15 10 8 24 14 29 14 6 0 1 -6 -9 -14z m-58 -5 c7 0 11 -4 8
-8 -2 -4 -22 -7 -43 -6 -21 1 -44 -3 -50 -9 -8 -6 -13 -6 -13 0 0 15 42 33 65
28 11 -3 26 -5 33 -5z m-126 -42 c-7 -7 -12 -8 -12 -2 0 14 12 26 19 19 2 -3
-1 -11 -7 -17z m28 -27 c-12 -23 -29 -35 -36 -28 -6 6 27 45 39 46 4 1 3 -8
-3 -18z m2135 -21 c3 -4 -6 -7 -18 -6 -13 0 -24 6 -24 12 0 12 34 7 42 -6z
m132 -54 c-3 -8 -1 -17 6 -20 9 -3 9 -5 0 -5 -15 -1 -26 16 -18 29 9 15 18 12
12 -4z m43 -16 c0 -5 -2 -10 -4 -10 -3 0 -8 5 -11 10 -3 6 -1 10 4 10 6 0 11
-4 11 -10z m-2505 -49 c-3 -12 -13 -21 -21 -21 -13 0 -13 2 0 16 9 8 16 20 16
26 0 6 3 9 6 5 3 -3 3 -15 -1 -26z m2580 2 l18 -28 -21 19 c-12 11 -22 23 -22
28 0 14 7 9 25 -19z m-2538 -15 c-3 -8 -6 -5 -6 6 -1 11 2 17 5 13 3 -3 4 -12
1 -19z m2498 12 c3 -5 1 -10 -4 -10 -6 0 -11 5 -11 10 0 6 2 10 4 10 3 0 8 -4
11 -10z m45 -43 c0 -6 -7 -2 -16 9 -13 15 -15 16 -10 2 3 -12 1 -15 -10 -11
-11 4 -12 8 -3 19 9 11 15 11 25 3 8 -6 14 -16 14 -22z m40 -59 c0 -19 -2 -20
-10 -8 -13 19 -13 30 0 30 6 0 10 -10 10 -22z m4 -76 c-8 -42 -19 -41 -18 1 1
48 3 52 14 41 6 -6 7 -25 4 -42z m-4 -76 c0 -3 -4 -8 -10 -11 -5 -3 -10 -1
-10 4 0 6 5 11 10 11 6 0 10 -2 10 -4z m7 -63 c-3 -10 -5 -4 -5 12 0 17 2 24
5 18 2 -7 2 -21 0 -30z m5 -123 c-2 -16 -6 -30 -8 -30 -2 0 -4 14 -4 30 0 17
4 30 8 30 5 0 7 -13 4 -30z m-25 -22 c-3 -8 -6 -5 -6 6 -1 11 2 17 5 13 3 -3
4 -12 1 -19z m13 -128 c-4 -33 -8 -43 -9 -25 -1 17 -4 41 -7 55 -4 20 -3 22 5
10 9 -13 11 -12 11 4 0 11 2 17 4 15 3 -2 1 -29 -4 -59z m35 -50 c3 -5 -1 -10
-10 -10 -9 0 -13 5 -10 10 3 6 8 10 10 10 2 0 7 -4 10 -10z m-44 -61 c-9 -21
-10 -20 -6 11 5 44 6 49 12 29 2 -8 -1 -26 -6 -40z m26 -1 c-3 -7 -5 -2 -5 12
0 14 2 19 5 13 2 -7 2 -19 0 -25z m-2650 -470 c-1 -90 -3 -17 -3 162 0 179 2
252 3 163 2 -90 2 -236 0 -325z m1770 430 c-2 -13 -4 -5 -4 17 -1 22 1 32 4
23 2 -10 2 -28 0 -40z m40 20 c-3 -7 -5 -2 -5 12 0 14 2 19 5 13 2 -7 2 -19 0
-25z m-70 -70 c-3 -8 -6 -5 -6 6 -1 11 2 17 5 13 3 -3 4 -12 1 -19z m20 -15
c-3 -10 -5 -4 -5 12 0 17 2 24 5 18 2 -7 2 -21 0 -30z m33 -30 c0 -20 -3 -24
-11 -16 -7 7 -9 19 -6 27 10 24 17 19 17 -11z m67 -45 c-3 -7 -5 -2 -5 12 0
14 2 19 5 13 2 -7 2 -19 0 -25z m-100 -35 c-3 -10 -5 -4 -5 12 0 17 2 24 5 18
2 -7 2 -21 0 -30z m92 -82 c1 -51 -5 -34 -12 29 -4 36 -3 46 3 30 4 -14 8 -40
9 -59z m29 -21 c0 -22 -1 -22 -8 5 -4 17 -8 39 -8 50 0 16 2 15 8 -5 4 -14 8
-36 8 -50z m-141 18 c-3 -8 -6 -5 -6 6 -1 11 2 17 5 13 3 -3 4 -12 1 -19z m50
0 c-3 -8 -6 -5 -6 6 -1 11 2 17 5 13 3 -3 4 -12 1 -19z m-1742 -90 c3 -46 5
-155 3 -243 l-4 -160 -2 203 c-1 126 -6 202 -12 202 -5 0 -10 18 -10 40 0 73
18 42 25 -42z m1772 -20 c-3 -8 -6 -5 -6 6 -1 11 2 17 5 13 3 -3 4 -12 1 -19z
m10 -50 c-3 -8 -6 -5 -6 6 -1 11 2 17 5 13 3 -3 4 -12 1 -19z m60 -80 c-3 -7
-5 -2 -5 12 0 14 2 19 5 13 2 -7 2 -19 0 -25z m-50 -25 c-3 -10 -5 -2 -5 17 0
19 2 27 5 18 2 -10 2 -26 0 -35z m-1820 -200 c-2 -27 -3 -5 -3 47 0 52 1 74 3
48 2 -27 2 -69 0 -95z m1920 115 c-3 -8 -6 -5 -6 6 -1 11 2 17 5 13 3 -3 4
-12 1 -19z m770 -10 c-3 -7 -5 -2 -5 12 0 14 2 19 5 13 2 -7 2 -19 0 -25z
m-844 -28 c3 -11 1 -20 -4 -20 -5 0 -9 9 -9 20 0 11 2 20 4 20 2 0 6 -9 9 -20z
m54 -32 c-3 -7 -5 -2 -5 12 0 14 2 19 5 13 2 -7 2 -19 0 -25z m28 2 c-4 -12
-9 -19 -12 -17 -3 3 -2 15 2 27 4 12 9 19 12 17 3 -3 2 -15 -2 -27z m22 -12
c-3 -8 -6 -5 -6 6 -1 11 2 17 5 13 3 -3 4 -12 1 -19z m753 11 c0 -5 -4 -7 -10
-4 -5 3 -10 1 -10 -6 0 -7 -3 -10 -6 -6 -8 7 4 27 17 27 5 0 9 -5 9 -11z
m-883 -56 c-3 -10 -5 -4 -5 12 0 17 2 24 5 18 2 -7 2 -21 0 -30z m90 -5 c-3
-7 -5 -2 -5 12 0 14 2 19 5 13 2 -7 2 -19 0 -25z m30 0 c-3 -7 -5 -2 -5 12 0
14 2 19 5 13 2 -7 2 -19 0 -25z m753 18 c0 -3 -4 -8 -10 -11 -5 -3 -10 -1 -10
4 0 6 5 11 10 11 6 0 10 -2 10 -4z m-2717 -63 c4 -19 2 -33 -3 -33 -6 0 -10
17 -10 37 0 43 5 41 13 -4z m1874 15 c-3 -8 -6 -5 -6 6 -1 11 2 17 5 13 3 -3
4 -12 1 -19z m-1830 -45 c-3 -10 -5 -4 -5 12 0 17 2 24 5 18 2 -7 2 -21 0 -30z
m-34 -33 c-3 -12 -8 -19 -11 -16 -5 6 5 36 12 36 2 0 2 -9 -1 -20z m2717 -35
c0 -27 -4 -35 -17 -34 -11 0 -13 3 -5 6 6 2 12 18 12 34 0 16 2 29 5 29 3 0 5
-16 5 -35z m-2680 12 c0 -7 -7 -22 -15 -33 -13 -17 -13 -16 -3 14 13 34 18 40
18 19z m60 -127 c0 -5 -4 -10 -9 -10 -6 0 -13 5 -16 10 -3 6 1 10 9 10 9 0 16
-4 16 -10z m27 -12 c-3 -8 -6 -5 -6 6 -1 11 2 17 5 13 3 -3 4 -12 1 -19z
m2593 6 c0 -8 -4 -12 -10 -9 -5 3 -10 10 -10 16 0 5 5 9 10 9 6 0 10 -7 10
-16z m-2633 -57 c0 -8 -6 -14 -13 -14 -7 0 -10 6 -7 13 2 6 0 15 -6 19 -6 3
-11 11 -11 17 0 6 8 4 18 -5 10 -10 19 -23 19 -30z m1826 18 c4 -8 2 -17 -3
-20 -6 -4 -10 3 -10 14 0 25 6 27 13 6z m-1797 -80 c-5 -21 -9 -23 -20 -13 -8
7 -12 17 -9 22 3 4 9 2 14 -5 6 -10 9 -7 9 10 0 13 3 22 6 18 4 -3 4 -18 0
-32z m2619 -44 c1 -22 -3 -37 -7 -35 -10 7 -11 74 0 74 4 0 7 -18 7 -39z
m-708 -13 c-3 -7 -5 -2 -5 12 0 14 2 19 5 13 2 -7 2 -19 0 -25z m680 -25 c-3
-10 -5 -2 -5 17 0 19 2 27 5 18 2 -10 2 -26 0 -35z m-710 -30 c-3 -10 -5 -2
-5 17 0 19 2 27 5 18 2 -10 2 -26 0 -35z m720 -15 c-3 -8 -6 -5 -6 6 -1 11 2
17 5 13 3 -3 4 -12 1 -19z m-2510 -20 c-3 -8 -6 -5 -6 6 -1 11 2 17 5 13 3 -3
4 -12 1 -19z m-38 -25 c16 -17 18 -24 8 -20 -9 3 -18 1 -20 -6 -2 -7 -6 3 -9
21 -2 17 -4 32 -3 32 1 0 12 -12 24 -27z m1845 -17 c-3 -15 -8 -25 -11 -23 -2
3 -1 17 3 31 3 15 8 25 11 23 2 -3 1 -17 -3 -31z m-47 -12 c-3 -3 -12 -4 -19
-1 -8 3 -5 6 6 6 11 1 17 -2 13 -5z m-1771 -46 c0 -24 -1 -35 -4 -25 -2 9 -7
15 -12 12 -5 -3 -4 8 1 25 6 16 12 30 13 30 1 0 2 -19 2 -42z m1701 34 c6 -4
-10 -8 -35 -8 -33 -1 -41 1 -27 6 26 11 47 12 62 2z m-1727 -12 c0 -5 -2 -10
-4 -10 -3 0 -8 5 -11 10 -3 6 -1 10 4 10 6 0 11 -4 11 -10z m1805 0 c-3 -5
-12 -10 -18 -10 -7 0 -6 4 3 10 19 12 23 12 15 0z m-120 -20 c-27 -12 -43 -12
-25 0 8 5 22 9 30 9 10 0 8 -3 -5 -9z m190 -28 c-3 -3 -11 0 -18 7 -9 10 -8
11 6 5 10 -3 15 -9 12 -12z m-378 2 c-3 -3 -12 -4 -19 -1 -8 3 -5 6 6 6 11 1
17 -2 13 -5z m13 -18 c0 -2 -9 -6 -20 -9 -11 -3 -18 -1 -14 4 5 9 34 13 34 5z
m318 -3 c-10 -2 -26 -2 -35 0 -10 3 -2 5 17 5 19 0 27 -2 18 -5z m-1798 -47
c0 -26 -6 -18 -14 19 -5 22 -4 26 4 15 5 -8 10 -24 10 -34z m1400 29 c-46 -18
-74 -18 -35 0 17 7 39 13 50 13 13 0 7 -5 -15 -13z m389 -15 c-6 -5 -18 -6
-26 -3 -19 8 -16 11 13 11 17 0 22 -3 13 -8z m-166 -7 c-7 -2 -19 -2 -25 0 -7
3 -2 5 12 5 14 0 19 -2 13 -5z m77 -3 c-8 -5 -19 -10 -25 -10 -5 0 -3 5 5 10
8 5 20 10 25 10 6 0 3 -5 -5 -10z m-121 -4 c-2 -2 -20 -6 -39 -10 -25 -4 -31
-3 -20 4 14 9 69 15 59 6z m-517 -18 c-9 -9 -15 -9 -24 0 -9 9 -7 12 12 12 19
0 21 -3 12 -12z m421 -15 c-13 -2 -35 -2 -50 0 -16 2 -5 4 22 4 28 0 40 -2 28
-4z m-1428 -13 c3 -5 2 -10 -4 -10 -5 0 -13 5 -16 10 -3 6 -2 10 4 10 5 0 13
-4 16 -10z m1005 -10 c-8 -5 -19 -10 -25 -10 -5 0 -3 5 5 10 8 5 20 10 25 10
6 0 3 -5 -5 -10z m404 -12 c-3 -4 -11 -5 -19 -1 -21 7 -19 12 4 10 11 0 18 -5
15 -9z m-221 -5 c-7 -2 -19 -2 -25 0 -7 3 -2 5 12 5 14 0 19 -2 13 -5z m157 3
c0 -2 -9 -6 -20 -9 -11 -3 -18 -1 -14 4 5 9 34 13 34 5z m-93 -12 c-3 -3 -12
-4 -19 -1 -8 3 -5 6 6 6 11 1 17 -2 13 -5z m-637 -28 c0 -3 -4 -8 -10 -11 -5
-3 -10 -1 -10 4 0 6 5 11 10 11 6 0 10 -2 10 -4z m85 -16 c-3 -5 -12 -10 -18
-10 -7 0 -6 4 3 10 19 12 23 12 15 0z m275 -4 c0 -2 -7 -6 -15 -10 -8 -3 -15
-1 -15 4 0 6 7 10 15 10 8 0 15 -2 15 -4z m93 -13 c-7 -2 -19 -2 -25 0 -7 3
-2 5 12 5 14 0 19 -2 13 -5z m-180 -10 c-7 -2 -19 -2 -25 0 -7 3 -2 5 12 5 14
0 19 -2 13 -5z m-406 -19 c-3 -3 -12 -4 -19 -1 -8 3 -5 6 6 6 11 1 17 -2 13
-5z m38 -4 c-3 -5 -12 -10 -18 -10 -7 0 -6 4 3 10 19 12 23 12 15 0z m204 -14
c-2 -2 -22 -6 -44 -9 -28 -5 -34 -4 -20 3 19 8 73 14 64 6z m-292 -22 c-3 -3
-12 -4 -19 -1 -8 3 -5 6 6 6 11 1 17 -2 13 -5z m323 -4 c0 -5 -2 -10 -4 -10
-3 0 -8 5 -11 10 -3 6 -1 10 4 10 6 0 11 -4 11 -10z m-370 -10 c-8 -5 -19 -10
-25 -10 -5 0 -3 5 5 10 8 5 20 10 25 10 6 0 3 -5 -5 -10z m195 0 c-3 -5 -16
-10 -28 -10 -18 0 -19 2 -7 10 20 13 43 13 35 0z m110 -10 c8 -13 -15 -13 -35
0 -12 8 -11 10 7 10 12 0 25 -4 28 -10z m-320 -40 c3 -5 1 -10 -4 -10 -6 0
-11 5 -11 10 0 6 2 10 4 10 3 0 8 -4 11 -10z m65 0 c0 -5 -5 -10 -11 -10 -5 0
-7 5 -4 10 3 6 8 10 11 10 2 0 4 -4 4 -10z m2087 -42 c-3 -8 -6 -5 -6 6 -1 11
2 17 5 13 3 -3 4 -12 1 -19z m-2457 -28 c0 -11 -2 -20 -4 -20 -2 0 -6 9 -9 20
-3 11 -1 20 4 20 5 0 9 -9 9 -20z m156 -6 c-24 -21 -37 -25 -73 -22 -26 2 -42
-1 -40 -7 2 -5 24 -8 48 -6 100 8 93 10 95 -34 1 -22 6 -69 12 -105 6 -36 8
-68 4 -72 -4 -4 -9 18 -10 49 -3 72 -12 83 -12 16 0 -64 10 -114 21 -107 5 3
6 -2 3 -10 -3 -9 -1 -16 6 -16 6 0 8 -5 5 -10 -7 -12 18 -40 37 -41 10 0 10
-2 0 -6 -6 -2 -9 -10 -5 -16 4 -7 0 -7 -10 1 -10 9 -37 12 -74 11 l-58 -3 -52
149 c-53 153 -61 189 -43 200 5 3 7 0 4 -8 -3 -8 1 -14 10 -14 11 0 12 6 5 25
-5 14 -7 27 -4 30 3 3 5 -1 5 -9 0 -11 2 -11 10 1 5 8 10 10 10 4 0 -7 16 -10
38 -9 52 3 54 4 46 17 -5 8 -2 9 9 5 9 -3 19 -2 22 3 4 6 9 10 13 10 4 0 -6
-12 -22 -26z m2301 -16 c-3 -8 -6 -5 -6 6 -1 11 2 17 5 13 3 -3 4 -12 1 -19z
m-2249 -19 c-3 -8 -7 -3 -11 10 -4 17 -3 21 5 13 5 -5 8 -16 6 -23z m2182
-124 c0 -8 -3 -16 -7 -18 -5 -3 -8 5 -8 18 0 13 3 21 8 18 4 -2 7 -10 7 -18z
m24 -28 c-3 -9 -10 -17 -16 -17 -5 0 -7 -4 -3 -9 3 -5 1 -12 -4 -15 -10 -7 -9
20 2 30 4 4 7 16 7 28 0 14 3 17 10 10 6 -6 8 -18 4 -27z m-2167 -113 c-3 -3
-12 -4 -19 -1 -8 3 -5 6 6 6 11 1 17 -2 13 -5z m37 -33 c-9 -10 -26 18 -18 30
5 9 9 8 14 -7 4 -10 6 -21 4 -23z m96 29 c-8 -5 -33 -9 -55 -8 l-40 1 45 7
c25 4 50 8 55 8 6 1 3 -3 -5 -8z m1888 -4 c-7 -8 -16 -12 -21 -9 -11 7 2 23
19 23 12 0 12 -2 2 -14z m37 4 c-7 -12 7 -13 21 -2 5 4 1 -1 -9 -10 -22 -21
-44 -14 -26 8 13 16 23 19 14 4z m-1895 -20 c0 -5 -8 -10 -17 -10 -15 0 -16 2
-3 10 19 12 20 12 20 0z m1850 -14 c0 -3 -4 -8 -10 -11 -5 -3 -10 -1 -10 4 0
6 5 11 10 11 6 0 10 -2 10 -4z m-1875 -16 c-11 -5 -38 -8 -60 -8 l-40 1 45 7
c64 10 78 10 55 0z m1336 -36 c2 2 5 -7 5 -20 l2 -24 -19 24 c-22 28 -25 44
-6 27 8 -6 16 -9 18 -7z m187 -25 c-3 -8 -7 -3 -11 10 -4 17 -3 21 5 13 5 -5
8 -16 6 -23z m-1731 6 c0 -8 -7 -15 -14 -15 -8 0 -12 4 -9 9 4 5 0 12 -6 14
-7 3 -4 6 8 6 12 1 21 -5 21 -14z m1623 -57 c0 -5 -4 -6 -10 -3 -5 3 -10 -2
-10 -12 -1 -17 -1 -17 -14 -1 -7 10 -17 14 -21 10 -5 -4 -6 -2 -3 3 8 13 58
16 58 3z m109 -38 c0 -10 -3 -8 -9 5 -12 27 -12 43 0 25 5 -8 9 -22 9 -30z
m-109 -10 c0 -5 -2 -10 -4 -10 -3 0 -8 5 -11 10 -3 6 -1 10 4 10 6 0 11 -4 11
-10z m9 -69 c0 -14 -1 -14 -6 -1 -3 8 -10 24 -15 35 -9 20 -9 20 6 1 9 -11 16
-27 15 -35z m98 -3 c-3 -8 -6 -5 -6 6 -1 11 2 17 5 13 3 -3 4 -12 1 -19z m-41
-65 c-11 -11 -17 4 -9 23 7 18 8 18 11 1 2 -10 1 -21 -2 -24z m11 -35 c-3 -8
-6 -5 -6 6 -1 11 2 17 5 13 3 -3 4 -12 1 -19z m-20 -20 c-3 -7 -5 -2 -5 12 0
14 2 19 5 13 2 -7 2 -19 0 -25z m33 -2 c0 -2 -8 -10 -17 -17 -16 -13 -17 -12
-4 4 13 16 21 21 21 13z m1725 -1003 c-4 -10 -7 -31 -7 -48 0 -29 0 -29 -7 -5
-7 22 5 70 17 70 2 0 1 -8 -3 -17z m-28 -110 c-3 -10 -5 -2 -5 17 0 19 2 27 5
18 2 -10 2 -26 0 -35z m-767 33 c0 -2 -7 -7 -16 -10 -8 -3 -12 -2 -9 4 6 10
25 14 25 6z m759 -160 c-9 -8 -10 -7 -5 7 3 10 7 24 7 30 1 7 3 4 6 -7 3 -10
-1 -23 -8 -30z m-3623 -31 c21 -30 35 -57 33 -59 -2 -2 -18 -6 -35 -9 -26 -5
-39 1 -80 35 -27 22 -50 44 -52 48 -3 7 67 37 90 39 4 1 24 -24 44 -54z m3034
-11 c0 -8 -4 -12 -10 -9 -5 3 -10 10 -10 16 0 5 5 9 10 9 6 0 10 -7 10 -16z
m17 -36 c-3 -8 -6 -5 -6 6 -1 11 2 17 5 13 3 -3 4 -12 1 -19z m-25 -17 c7 10
8 8 3 -7 -3 -11 2 -37 10 -57 8 -21 12 -37 8 -37 -8 0 -44 100 -42 116 1 5 4
0 6 -10 4 -15 7 -16 15 -5z m-242 -11 c0 -5 -2 -10 -4 -10 -3 0 -8 5 -11 10
-3 6 -1 10 4 10 6 0 11 -4 11 -10z m812 -122 c-7 -7 -12 -8 -12 -2 0 14 12 26
19 19 2 -3 -1 -11 -7 -17z m-35 -55 c-2 -16 -4 -5 -4 22 0 28 2 40 4 28 2 -13
2 -35 0 -50z m-612 29 c6 -4 11 -13 13 -20 2 -10 -2 -10 -18 -2 -11 6 -20 15
-20 20 0 12 11 13 25 2z m632 -24 c-3 -7 -5 -2 -5 12 0 14 2 19 5 13 2 -7 2
-19 0 -25z m0 -50 c-3 -8 -6 -5 -6 6 -1 11 2 17 5 13 3 -3 4 -12 1 -19z
m-4577 -13 c14 -17 165 -115 178 -115 4 0 17 -7 28 -15 17 -13 -19 -14 -311
-14 -293 0 -327 2 -300 15 27 12 370 140 386 143 4 0 12 -6 19 -14z m4560 5
c0 -5 -5 -10 -11 -10 -5 0 -7 5 -4 10 3 6 8 10 11 10 2 0 4 -4 4 -10z m0 -48
c0 -15 -2 -15 -10 -2 -13 20 -13 33 0 25 6 -3 10 -14 10 -23z m-513 -14 c-3
-7 -5 -2 -5 12 0 14 2 19 5 13 2 -7 2 -19 0 -25z m500 -60 c-14 -8 -27 -1 -27
15 0 7 4 6 10 -3 8 -12 10 -10 11 10 0 23 1 23 8 5 5 -12 4 -23 -2 -27z m-418
18 c-2 -2 -18 -7 -34 -10 l-30 -6 30 14 c26 12 46 14 34 2z m378 8 c-3 -3 -12
-4 -19 -1 -8 3 -5 6 6 6 11 1 17 -2 13 -5z m-3077 -29 c17 -9 30 -18 30 -20 0
-3 -28 -5 -62 -5 l-63 0 25 20 c30 24 33 24 70 5z m2943 -2 c-45 -2 -122 -2
-170 0 -48 1 -11 3 82 3 94 0 133 -2 88 -3z m-253 -13 c18 -12 2 -12 -25 0
-13 6 -15 9 -5 9 8 0 22 -4 30 -9z m360 -16 c0 -2 -7 -4 -15 -4 -8 0 -15 4
-15 10 0 5 7 7 15 4 8 -4 15 -8 15 -10z m47 10 c-3 -3 -12 -4 -19 -1 -8 3 -5
6 6 6 11 1 17 -2 13 -5z"/>
<path d="M15131 6954 c0 -11 3 -14 6 -6 3 7 2 16 -1 19 -3 4 -6 -2 -5 -13z"/>
<path d="M14880 7240 c0 -5 5 -10 11 -10 5 0 7 5 4 10 -3 6 -8 10 -11 10 -2 0
-4 -4 -4 -10z"/>
<path d="M2640 3829 c-230 -18 -449 -59 -514 -97 -20 -12 -32 -27 -34 -45 -3
-25 3 -30 52 -53 343 -157 1768 -127 1870 39 39 63 -200 128 -570 156 -160 12
-647 12 -804 0z"/>
<path d="M15923 2863 c93 -2 241 -2 330 0 89 1 14 3 -168 3 -181 0 -254 -2
-162 -3z"/>
<path d="M15527 2661 c-13 -64 -5 -141 15 -141 6 0 7 8 3 18 -14 35 -15 61 -2
69 19 11 29 66 11 59 -7 -3 -14 3 -16 12 -2 10 -7 3 -11 -17z"/>
</g>
</svg>
