<?xml version="1.0" encoding="UTF-8"?>
<svg xmlns="http://www.w3.org/2000/svg" xmlns:xlink="http://www.w3.org/1999/xlink" width="4856.46" height="3985.55" viewBox="0 0 4856.46 3985.55">
<defs>
<clipPath id="clip-0">
<path clip-rule="nonzero" d="M 4856.460938 3985.550781 L 3378.609375 3985.550781 C 3333.199219 3799.941406 3174.921875 3658.621094 2980.640625 3638.46875 C 2964.898438 3636.839844 2948.921875 3636 2932.738281 3636 C 2910.46875 3636 2888.570312 3637.589844 2867.148438 3640.660156 C 2846.640625 3595.449219 2801.121094 3564 2748.238281 3564 C 2743.03125 3564 2737.898438 3564.308594 2732.859375 3564.910156 C 2717.789062 3442.648438 2613.570312 3348 2487.238281 3348 C 2485.980469 3348 2484.730469 3348.03125 2483.480469 3348.050781 C 2488.839844 3330.988281 2491.738281 3312.828125 2491.738281 3294 C 2491.738281 3257.480469 2480.851562 3223.511719 2462.160156 3195.128906 C 2596.511719 3133.101562 2689.738281 2997.191406 2689.738281 2839.5 C 2689.738281 2636.949219 2535.910156 2470.320312 2338.710938 2450.070312 C 2337.699219 2345.738281 2272.160156 2256.871094 2180.078125 2221.441406 C 2194.621094 2200.761719 2203.28125 2175.679688 2203.699219 2148.589844 C 2607.609375 1351.738281 3030.921875 1161.769531 3073.269531 1144.378906 C 2575.558594 1342.109375 2167.339844 1915.738281 2097.351562 2018.230469 C 2089.53125 2016.769531 2081.480469 2016 2073.238281 2016 C 2026.128906 2016 1984.851562 2040.96875 1961.898438 2078.398438 C 1935.339844 2064.421875 1905.089844 2056.5 1872.988281 2056.5 C 1778.730469 2056.5 1700.398438 2124.691406 1684.640625 2214.429688 C 1654.480469 2202.539062 1621.621094 2196 1587.238281 2196 C 1514.96875 2196 1449.460938 2224.890625 1401.589844 2271.730469 C 1331.941406 2207.929688 1239.140625 2169 1137.238281 2169 C 937.191406 2169 772.191406 2319.039062 748.632812 2512.730469 C 737.324219 2511.589844 725.851562 2511 714.242188 2511 C 640.523438 2511 572.332031 2534.648438 516.824219 2574.761719 C 441.164062 2475.820312 321.910156 2412 187.742188 2412 C 165.554688 2412 143.761719 2413.75 122.511719 2417.121094 L 122.511719 3985.550781 L 0 3985.550781 L 0 0 L 4856.460938 0 L 4856.460938 3985.550781 M 3628.660156 1192.398438 L 3754.640625 1277.929688 L 4063.601562 943.21875 L 4063.628906 943.191406 L 3763.589844 990.75 L 3440.660156 1041.941406 L 3342.21875 1057.539062 L 3515.859375 1112 L 3915.75 988.761719 L 3515.859375 1112 L 3537.011719 1247.910156 L 3628.660156 1192.398438 M 3076.738281 1143 C 3076.738281 1143 3075.558594 1143.441406 3073.269531 1144.378906 C 3074.429688 1143.921875 3075.589844 1143.460938 3076.738281 1143 M 3547.960938 1137.601562 L 4063.621094 943.191406 L 4063.628906 943.191406 L 3547.960938 1137.601562 M 4063.628906 943.191406 L 4063.628906 943.191406 "/>
</clipPath>
<clipPath id="clip-1">
<path clip-rule="nonzero" d="M 4856.460938 3985.550781 L 3378.609375 3985.550781 C 3333.199219 3799.941406 3174.921875 3658.621094 2980.640625 3638.46875 C 2964.898438 3636.839844 2948.921875 3636 2932.738281 3636 C 2910.46875 3636 2888.570312 3637.589844 2867.148438 3640.660156 C 2846.640625 3595.449219 2801.121094 3564 2748.238281 3564 C 2743.03125 3564 2737.898438 3564.308594 2732.859375 3564.910156 C 2717.789062 3442.648438 2613.570312 3348 2487.238281 3348 C 2485.980469 3348 2484.730469 3348.03125 2483.480469 3348.050781 C 2488.839844 3330.988281 2491.738281 3312.828125 2491.738281 3294 C 2491.738281 3257.480469 2480.851562 3223.511719 2462.160156 3195.128906 C 2596.511719 3133.101562 2689.738281 2997.191406 2689.738281 2839.5 C 2689.738281 2636.949219 2535.910156 2470.320312 2338.710938 2450.070312 C 2337.699219 2345.738281 2272.160156 2256.871094 2180.078125 2221.441406 C 2194.621094 2200.761719 2203.28125 2175.679688 2203.699219 2148.589844 C 2607.609375 1351.738281 3030.921875 1161.769531 3073.269531 1144.378906 C 2575.558594 1342.109375 2167.339844 1915.738281 2097.351562 2018.230469 C 2089.53125 2016.769531 2081.480469 2016 2073.238281 2016 C 2026.128906 2016 1984.851562 2040.96875 1961.898438 2078.398438 C 1935.339844 2064.421875 1905.089844 2056.5 1872.988281 2056.5 C 1778.730469 2056.5 1700.398438 2124.691406 1684.640625 2214.429688 C 1654.480469 2202.539062 1621.621094 2196 1587.238281 2196 C 1514.96875 2196 1449.460938 2224.890625 1401.589844 2271.730469 C 1331.941406 2207.929688 1239.140625 2169 1137.238281 2169 C 937.191406 2169 772.191406 2319.039062 748.632812 2512.730469 C 737.324219 2511.589844 725.851562 2511 714.242188 2511 C 640.523438 2511 572.332031 2534.648438 516.824219 2574.761719 C 441.164062 2475.820312 321.910156 2412 187.742188 2412 C 165.554688 2412 143.761719 2413.75 122.511719 2417.121094 L 122.511719 3985.550781 L 0 3985.550781 L 0 0 L 4856.460938 0 L 4856.460938 3985.550781 M 3628.660156 1192.398438 L 3754.640625 1277.929688 L 4063.601562 943.21875 L 4063.628906 943.191406 L 3763.589844 990.75 L 3440.660156 1041.941406 L 3342.21875 1057.539062 L 3515.859375 1112 L 3915.75 988.761719 L 3515.859375 1112 L 3537.011719 1247.910156 L 3628.660156 1192.398438 M 3076.738281 1143 C 3076.738281 1143 3075.558594 1143.441406 3073.269531 1144.378906 C 3074.429688 1143.921875 3075.589844 1143.460938 3076.738281 1143 M 3547.960938 1137.601562 L 4063.621094 943.191406 L 4063.628906 943.191406 L 3547.960938 1137.601562 M 4063.628906 943.191406 L 4063.628906 943.191406 "/>
</clipPath>
<linearGradient id="linear-pattern-0" gradientUnits="userSpaceOnUse" x1="-0.0379416" y1="0" x2="1.08757" y2="0" gradientTransform="matrix(3490.38, -4222.63, 4222.63, 3490.38, 596.426, 4208.87)">
<stop offset="0" stop-color="rgb(17.254639%, 72.940063%, 85.881042%)" stop-opacity="1"/>
<stop offset="0.0625" stop-color="rgb(17.137146%, 72.775269%, 85.719299%)" stop-opacity="1"/>
<stop offset="0.078125" stop-color="rgb(16.906738%, 72.453308%, 85.404968%)" stop-opacity="1"/>
<stop offset="0.09375" stop-color="rgb(16.68396%, 72.137451%, 85.096741%)" stop-opacity="1"/>
<stop offset="0.109375" stop-color="rgb(16.459656%, 71.82312%, 84.790039%)" stop-opacity="1"/>
<stop offset="0.125" stop-color="rgb(16.235352%, 71.508789%, 84.481812%)" stop-opacity="1"/>
<stop offset="0.140625" stop-color="rgb(16.012573%, 71.194458%, 84.173584%)" stop-opacity="1"/>
<stop offset="0.15625" stop-color="rgb(15.788269%, 70.878601%, 83.866882%)" stop-opacity="1"/>
<stop offset="0.171875" stop-color="rgb(15.563965%, 70.56427%, 83.558655%)" stop-opacity="1"/>
<stop offset="0.1875" stop-color="rgb(15.339661%, 70.249939%, 83.250427%)" stop-opacity="1"/>
<stop offset="0.203125" stop-color="rgb(15.116882%, 69.935608%, 82.9422%)" stop-opacity="1"/>
<stop offset="0.21875" stop-color="rgb(14.892578%, 69.619751%, 82.635498%)" stop-opacity="1"/>
<stop offset="0.234375" stop-color="rgb(14.668274%, 69.30542%, 82.327271%)" stop-opacity="1"/>
<stop offset="0.25" stop-color="rgb(14.445496%, 68.991089%, 82.019043%)" stop-opacity="1"/>
<stop offset="0.265625" stop-color="rgb(14.221191%, 68.676758%, 81.712341%)" stop-opacity="1"/>
<stop offset="0.28125" stop-color="rgb(13.996887%, 68.360901%, 81.404114%)" stop-opacity="1"/>
<stop offset="0.296875" stop-color="rgb(13.774109%, 68.04657%, 81.095886%)" stop-opacity="1"/>
<stop offset="0.3125" stop-color="rgb(13.549805%, 67.732239%, 80.789185%)" stop-opacity="1"/>
<stop offset="0.328125" stop-color="rgb(13.3255%, 67.416382%, 80.480957%)" stop-opacity="1"/>
<stop offset="0.34375" stop-color="rgb(13.102722%, 67.102051%, 80.172729%)" stop-opacity="1"/>
<stop offset="0.359375" stop-color="rgb(12.878418%, 66.78772%, 79.866028%)" stop-opacity="1"/>
<stop offset="0.375" stop-color="rgb(12.654114%, 66.473389%, 79.5578%)" stop-opacity="1"/>
<stop offset="0.390625" stop-color="rgb(12.431335%, 66.157532%, 79.249573%)" stop-opacity="1"/>
<stop offset="0.40625" stop-color="rgb(12.207031%, 65.843201%, 78.942871%)" stop-opacity="1"/>
<stop offset="0.421875" stop-color="rgb(11.982727%, 65.52887%, 78.634644%)" stop-opacity="1"/>
<stop offset="0.4375" stop-color="rgb(11.759949%, 65.214539%, 78.326416%)" stop-opacity="1"/>
<stop offset="0.453125" stop-color="rgb(11.535645%, 64.898682%, 78.019714%)" stop-opacity="1"/>
<stop offset="0.46875" stop-color="rgb(11.31134%, 64.584351%, 77.711487%)" stop-opacity="1"/>
<stop offset="0.484375" stop-color="rgb(11.088562%, 64.27002%, 77.403259%)" stop-opacity="1"/>
<stop offset="0.5" stop-color="rgb(10.864258%, 63.955688%, 77.095032%)" stop-opacity="1"/>
<stop offset="0.515625" stop-color="rgb(10.639954%, 63.639832%, 76.78833%)" stop-opacity="1"/>
<stop offset="0.53125" stop-color="rgb(10.417175%, 63.3255%, 76.480103%)" stop-opacity="1"/>
<stop offset="0.546875" stop-color="rgb(10.192871%, 63.011169%, 76.171875%)" stop-opacity="1"/>
<stop offset="0.5625" stop-color="rgb(9.968567%, 62.695312%, 75.865173%)" stop-opacity="1"/>
<stop offset="0.578125" stop-color="rgb(9.744263%, 62.380981%, 75.556946%)" stop-opacity="1"/>
<stop offset="0.59375" stop-color="rgb(9.521484%, 62.06665%, 75.248718%)" stop-opacity="1"/>
<stop offset="0.609375" stop-color="rgb(9.29718%, 61.752319%, 74.942017%)" stop-opacity="1"/>
<stop offset="0.625" stop-color="rgb(9.072876%, 61.436462%, 74.633789%)" stop-opacity="1"/>
<stop offset="0.640625" stop-color="rgb(8.850098%, 61.122131%, 74.325562%)" stop-opacity="1"/>
<stop offset="0.65625" stop-color="rgb(8.625793%, 60.8078%, 74.01886%)" stop-opacity="1"/>
<stop offset="0.671875" stop-color="rgb(8.401489%, 60.493469%, 73.710632%)" stop-opacity="1"/>
<stop offset="0.6875" stop-color="rgb(8.178711%, 60.177612%, 73.402405%)" stop-opacity="1"/>
<stop offset="0.703125" stop-color="rgb(7.954407%, 59.863281%, 73.095703%)" stop-opacity="1"/>
<stop offset="0.71875" stop-color="rgb(7.730103%, 59.54895%, 72.787476%)" stop-opacity="1"/>
<stop offset="0.734375" stop-color="rgb(7.507324%, 59.233093%, 72.479248%)" stop-opacity="1"/>
<stop offset="0.75" stop-color="rgb(7.28302%, 58.918762%, 72.172546%)" stop-opacity="1"/>
<stop offset="0.765625" stop-color="rgb(7.058716%, 58.604431%, 71.864319%)" stop-opacity="1"/>
<stop offset="0.78125" stop-color="rgb(6.835938%, 58.2901%, 71.556091%)" stop-opacity="1"/>
<stop offset="0.796875" stop-color="rgb(6.611633%, 57.974243%, 71.24939%)" stop-opacity="1"/>
<stop offset="0.8125" stop-color="rgb(6.387329%, 57.659912%, 70.941162%)" stop-opacity="1"/>
<stop offset="0.828125" stop-color="rgb(6.164551%, 57.345581%, 70.632935%)" stop-opacity="1"/>
<stop offset="0.84375" stop-color="rgb(5.940247%, 57.03125%, 70.324707%)" stop-opacity="1"/>
<stop offset="0.859375" stop-color="rgb(5.715942%, 56.715393%, 70.018005%)" stop-opacity="1"/>
<stop offset="0.875" stop-color="rgb(5.493164%, 56.401062%, 69.709778%)" stop-opacity="1"/>
<stop offset="0.890625" stop-color="rgb(5.26886%, 56.086731%, 69.40155%)" stop-opacity="1"/>
<stop offset="0.90625" stop-color="rgb(5.044556%, 55.7724%, 69.094849%)" stop-opacity="1"/>
<stop offset="0.9375" stop-color="rgb(4.818726%, 55.453491%, 68.783569%)" stop-opacity="1"/>
<stop offset="1" stop-color="rgb(4.705811%, 55.293274%, 68.626404%)" stop-opacity="1"/>
</linearGradient>
<clipPath id="clip-2">
<path clip-rule="nonzero" d="M 122 1144 L 3379 1144 L 3379 3985.550781 L 122 3985.550781 Z M 122 1144 "/>
</clipPath>
<clipPath id="clip-3">
<path clip-rule="nonzero" d="M 3378.609375 3985.550781 L 122.511719 3985.550781 L 122.511719 2417.121094 C 143.761719 2413.75 165.554688 2412 187.742188 2412 C 321.910156 2412 441.164062 2475.820312 516.824219 2574.761719 C 572.332031 2534.648438 640.523438 2511 714.242188 2511 C 725.851562 2511 737.324219 2511.589844 748.632812 2512.730469 C 772.191406 2319.039062 937.191406 2169 1137.238281 2169 C 1239.140625 2169 1331.941406 2207.929688 1401.589844 2271.730469 C 1449.460938 2224.890625 1514.96875 2196 1587.238281 2196 C 1621.621094 2196 1654.480469 2202.539062 1684.640625 2214.429688 C 1700.398438 2124.691406 1778.730469 2056.5 1872.988281 2056.5 C 1905.089844 2056.5 1935.339844 2064.421875 1961.898438 2078.398438 C 1984.851562 2040.96875 2026.128906 2016 2073.238281 2016 C 2081.480469 2016 2089.53125 2016.769531 2097.351562 2018.230469 C 2167.339844 1915.738281 2575.558594 1342.109375 3073.269531 1144.378906 C 3030.921875 1161.769531 2607.609375 1351.738281 2203.699219 2148.589844 C 2203.28125 2175.679688 2194.621094 2200.761719 2180.078125 2221.441406 C 2272.160156 2256.871094 2337.699219 2345.738281 2338.710938 2450.070312 C 2535.910156 2470.320312 2689.738281 2636.949219 2689.738281 2839.5 C 2689.738281 2997.191406 2596.511719 3133.101562 2462.160156 3195.128906 C 2480.851562 3223.511719 2491.738281 3257.480469 2491.738281 3294 C 2491.738281 3312.828125 2488.839844 3330.988281 2483.480469 3348.050781 C 2484.730469 3348.03125 2485.980469 3348 2487.238281 3348 C 2613.570312 3348 2717.789062 3442.648438 2732.859375 3564.910156 C 2737.898438 3564.308594 2743.03125 3564 2748.238281 3564 C 2801.121094 3564 2846.640625 3595.449219 2867.148438 3640.660156 C 2888.570312 3637.589844 2910.46875 3636 2932.738281 3636 C 2948.921875 3636 2964.898438 3636.839844 2980.640625 3638.46875 C 3174.921875 3658.621094 3333.199219 3799.941406 3378.609375 3985.550781 "/>
</clipPath>
<clipPath id="clip-4">
<path clip-rule="nonzero" d="M 3378.609375 3985.550781 L 122.511719 3985.550781 L 122.511719 2417.121094 C 143.761719 2413.75 165.554688 2412 187.742188 2412 C 321.910156 2412 441.164062 2475.820312 516.824219 2574.761719 C 572.332031 2534.648438 640.523438 2511 714.242188 2511 C 725.851562 2511 737.324219 2511.589844 748.632812 2512.730469 C 772.191406 2319.039062 937.191406 2169 1137.238281 2169 C 1239.140625 2169 1331.941406 2207.929688 1401.589844 2271.730469 C 1449.460938 2224.890625 1514.96875 2196 1587.238281 2196 C 1621.621094 2196 1654.480469 2202.539062 1684.640625 2214.429688 C 1700.398438 2124.691406 1778.730469 2056.5 1872.988281 2056.5 C 1905.089844 2056.5 1935.339844 2064.421875 1961.898438 2078.398438 C 1984.851562 2040.96875 2026.128906 2016 2073.238281 2016 C 2081.480469 2016 2089.53125 2016.769531 2097.351562 2018.230469 C 2167.339844 1915.738281 2575.558594 1342.109375 3073.269531 1144.378906 C 3030.921875 1161.769531 2607.609375 1351.738281 2203.699219 2148.589844 C 2203.28125 2175.679688 2194.621094 2200.761719 2180.078125 2221.441406 C 2272.160156 2256.871094 2337.699219 2345.738281 2338.710938 2450.070312 C 2535.910156 2470.320312 2689.738281 2636.949219 2689.738281 2839.5 C 2689.738281 2997.191406 2596.511719 3133.101562 2462.160156 3195.128906 C 2480.851562 3223.511719 2491.738281 3257.480469 2491.738281 3294 C 2491.738281 3312.828125 2488.839844 3330.988281 2483.480469 3348.050781 C 2484.730469 3348.03125 2485.980469 3348 2487.238281 3348 C 2613.570312 3348 2717.789062 3442.648438 2732.859375 3564.910156 C 2737.898438 3564.308594 2743.03125 3564 2748.238281 3564 C 2801.121094 3564 2846.640625 3595.449219 2867.148438 3640.660156 C 2888.570312 3637.589844 2910.46875 3636 2932.738281 3636 C 2948.921875 3636 2964.898438 3636.839844 2980.640625 3638.46875 C 3174.921875 3658.621094 3333.199219 3799.941406 3378.609375 3985.550781 "/>
</clipPath>
<linearGradient id="linear-pattern-1" gradientUnits="userSpaceOnUse" x1="-0.0236941" y1="0" x2="0.7547" y2="0" gradientTransform="matrix(3490.38, -4222.63, 4222.63, 3490.38, 596.426, 4208.87)">
<stop offset="0" stop-color="rgb(10.980225%, 59.214783%, 70.195007%)" stop-opacity="1"/>
<stop offset="0.0625" stop-color="rgb(10.945129%, 59.164429%, 70.146179%)" stop-opacity="1"/>
<stop offset="0.09375" stop-color="rgb(10.832214%, 59.002686%, 69.992065%)" stop-opacity="1"/>
<stop offset="0.125" stop-color="rgb(10.676575%, 58.779907%, 69.779968%)" stop-opacity="1"/>
<stop offset="0.15625" stop-color="rgb(10.522461%, 58.558655%, 69.566345%)" stop-opacity="1"/>
<stop offset="0.1875" stop-color="rgb(10.366821%, 58.335876%, 69.354248%)" stop-opacity="1"/>
<stop offset="0.21875" stop-color="rgb(10.212708%, 58.113098%, 69.140625%)" stop-opacity="1"/>
<stop offset="0.25" stop-color="rgb(10.058594%, 57.89032%, 68.928528%)" stop-opacity="1"/>
<stop offset="0.28125" stop-color="rgb(9.902954%, 57.667542%, 68.714905%)" stop-opacity="1"/>
<stop offset="0.3125" stop-color="rgb(9.74884%, 57.444763%, 68.502808%)" stop-opacity="1"/>
<stop offset="0.34375" stop-color="rgb(9.593201%, 57.223511%, 68.289185%)" stop-opacity="1"/>
<stop offset="0.375" stop-color="rgb(9.439087%, 57.000732%, 68.077087%)" stop-opacity="1"/>
<stop offset="0.40625" stop-color="rgb(9.283447%, 56.777954%, 67.863464%)" stop-opacity="1"/>
<stop offset="0.4375" stop-color="rgb(9.129333%, 56.555176%, 67.651367%)" stop-opacity="1"/>
<stop offset="0.46875" stop-color="rgb(8.973694%, 56.332397%, 67.437744%)" stop-opacity="1"/>
<stop offset="0.5" stop-color="rgb(8.81958%, 56.111145%, 67.225647%)" stop-opacity="1"/>
<stop offset="0.53125" stop-color="rgb(8.665466%, 55.888367%, 67.012024%)" stop-opacity="1"/>
<stop offset="0.5625" stop-color="rgb(8.509827%, 55.665588%, 66.799927%)" stop-opacity="1"/>
<stop offset="0.59375" stop-color="rgb(8.355713%, 55.44281%, 66.586304%)" stop-opacity="1"/>
<stop offset="0.625" stop-color="rgb(8.200073%, 55.220032%, 66.374207%)" stop-opacity="1"/>
<stop offset="0.65625" stop-color="rgb(8.045959%, 54.997253%, 66.160583%)" stop-opacity="1"/>
<stop offset="0.6875" stop-color="rgb(7.89032%, 54.776001%, 65.948486%)" stop-opacity="1"/>
<stop offset="0.71875" stop-color="rgb(7.736206%, 54.553223%, 65.736389%)" stop-opacity="1"/>
<stop offset="0.75" stop-color="rgb(7.582092%, 54.330444%, 65.522766%)" stop-opacity="1"/>
<stop offset="0.78125" stop-color="rgb(7.426453%, 54.107666%, 65.310669%)" stop-opacity="1"/>
<stop offset="0.8125" stop-color="rgb(7.272339%, 53.884888%, 65.097046%)" stop-opacity="1"/>
<stop offset="0.84375" stop-color="rgb(7.116699%, 53.662109%, 64.884949%)" stop-opacity="1"/>
<stop offset="0.875" stop-color="rgb(6.962585%, 53.440857%, 64.671326%)" stop-opacity="1"/>
<stop offset="0.90625" stop-color="rgb(6.806946%, 53.218079%, 64.459229%)" stop-opacity="1"/>
<stop offset="0.9375" stop-color="rgb(6.652832%, 52.9953%, 64.245605%)" stop-opacity="1"/>
<stop offset="0.96875" stop-color="rgb(6.497192%, 52.772522%, 64.033508%)" stop-opacity="1"/>
<stop offset="1" stop-color="rgb(6.343079%, 52.549744%, 63.819885%)" stop-opacity="1"/>
</linearGradient>
<clipPath id="clip-5">
<path clip-rule="nonzero" d="M 3073 1143 L 3077 1143 L 3077 1145 L 3073 1145 Z M 3073 1143 "/>
</clipPath>
<clipPath id="clip-6">
<path clip-rule="nonzero" d="M 3073.269531 1144.378906 C 3075.558594 1143.441406 3076.738281 1143 3076.738281 1143 C 3075.589844 1143.460938 3074.429688 1143.921875 3073.269531 1144.378906 "/>
</clipPath>
<clipPath id="clip-7">
<path clip-rule="nonzero" d="M 3073.269531 1144.378906 C 3075.558594 1143.441406 3076.738281 1143 3076.738281 1143 C 3075.589844 1143.460938 3074.429688 1143.921875 3073.269531 1144.378906 "/>
</clipPath>
<linearGradient id="linear-pattern-2" gradientUnits="userSpaceOnUse" x1="0.719191" y1="0" x2="0.719789" y2="0" gradientTransform="matrix(3490.38, -4222.63, 4222.63, 3490.38, 596.426, 4208.87)">
<stop offset="0" stop-color="rgb(6.492615%, 52.763367%, 64.024353%)" stop-opacity="1"/>
<stop offset="0.5" stop-color="rgb(6.491089%, 52.761841%, 64.022827%)" stop-opacity="1"/>
<stop offset="1" stop-color="rgb(6.488037%, 52.760315%, 64.021301%)" stop-opacity="1"/>
</linearGradient>
<clipPath id="clip-8">
<path clip-rule="nonzero" d="M 0 1144 L 3257 1144 L 3257 3985.550781 L 0 3985.550781 Z M 0 1144 "/>
</clipPath>
<clipPath id="clip-9">
<path clip-rule="nonzero" d="M 0 2637 L 3 2637 L 3 2654 L 0 2654 Z M 0 2637 "/>
</clipPath>
<clipPath id="clip-10">
<path clip-rule="nonzero" d="M 2.21875 2637.03125 C 2.140625 2637.5 1.148438 2643.230469 0 2653.25 L 0 2643.289062 Z M 2.21875 2637.03125 "/>
</clipPath>
<clipPath id="clip-11">
<path clip-rule="nonzero" d="M 2.21875 2637.03125 C 2.140625 2637.5 1.148438 2643.230469 0 2653.25 L 0 2643.289062 L 2.21875 2637.03125 "/>
</clipPath>
<linearGradient id="linear-pattern-3" gradientUnits="userSpaceOnUse" x1="0.176268" y1="0" x2="1.095867" y2="0" gradientTransform="matrix(-8.27486, 14.23, -14.23, -8.27486, 6.37547, 2636.09)">
<stop offset="0" stop-color="rgb(91.923523%, 92.247009%, 92.56897%)" stop-opacity="1"/>
<stop offset="0.03125" stop-color="rgb(92.063904%, 92.381287%, 92.698669%)" stop-opacity="1"/>
<stop offset="0.0625" stop-color="rgb(92.346191%, 92.651367%, 92.958069%)" stop-opacity="1"/>
<stop offset="0.09375" stop-color="rgb(92.626953%, 92.921448%, 93.217468%)" stop-opacity="1"/>
<stop offset="0.125" stop-color="rgb(92.909241%, 93.193054%, 93.476868%)" stop-opacity="1"/>
<stop offset="0.15625" stop-color="rgb(93.191528%, 93.463135%, 93.736267%)" stop-opacity="1"/>
<stop offset="0.1875" stop-color="rgb(93.47229%, 93.733215%, 93.995667%)" stop-opacity="1"/>
<stop offset="0.21875" stop-color="rgb(93.754578%, 94.003296%, 94.25354%)" stop-opacity="1"/>
<stop offset="0.25" stop-color="rgb(94.035339%, 94.274902%, 94.512939%)" stop-opacity="1"/>
<stop offset="0.28125" stop-color="rgb(94.317627%, 94.544983%, 94.772339%)" stop-opacity="1"/>
<stop offset="0.3125" stop-color="rgb(94.599915%, 94.815063%, 95.031738%)" stop-opacity="1"/>
<stop offset="0.34375" stop-color="rgb(94.880676%, 95.085144%, 95.291138%)" stop-opacity="1"/>
<stop offset="0.375" stop-color="rgb(95.162964%, 95.35675%, 95.550537%)" stop-opacity="1"/>
<stop offset="0.40625" stop-color="rgb(95.445251%, 95.626831%, 95.809937%)" stop-opacity="1"/>
<stop offset="0.4375" stop-color="rgb(95.726013%, 95.896912%, 96.069336%)" stop-opacity="1"/>
<stop offset="0.46875" stop-color="rgb(96.008301%, 96.166992%, 96.327209%)" stop-opacity="1"/>
<stop offset="0.5" stop-color="rgb(96.290588%, 96.438599%, 96.586609%)" stop-opacity="1"/>
<stop offset="0.53125" stop-color="rgb(96.57135%, 96.708679%, 96.846008%)" stop-opacity="1"/>
<stop offset="0.5625" stop-color="rgb(96.853638%, 96.97876%, 97.105408%)" stop-opacity="1"/>
<stop offset="0.59375" stop-color="rgb(97.134399%, 97.24884%, 97.364807%)" stop-opacity="1"/>
<stop offset="0.625" stop-color="rgb(97.416687%, 97.520447%, 97.624207%)" stop-opacity="1"/>
<stop offset="0.65625" stop-color="rgb(97.698975%, 97.790527%, 97.883606%)" stop-opacity="1"/>
<stop offset="0.6875" stop-color="rgb(97.979736%, 98.060608%, 98.141479%)" stop-opacity="1"/>
<stop offset="0.71875" stop-color="rgb(98.262024%, 98.332214%, 98.400879%)" stop-opacity="1"/>
<stop offset="0.75" stop-color="rgb(98.544312%, 98.602295%, 98.660278%)" stop-opacity="1"/>
<stop offset="0.78125" stop-color="rgb(98.825073%, 98.872375%, 98.919678%)" stop-opacity="1"/>
<stop offset="0.8125" stop-color="rgb(99.107361%, 99.142456%, 99.179077%)" stop-opacity="1"/>
<stop offset="0.84375" stop-color="rgb(99.389648%, 99.414062%, 99.438477%)" stop-opacity="1"/>
<stop offset="0.875" stop-color="rgb(99.67041%, 99.684143%, 99.697876%)" stop-opacity="1"/>
<stop offset="1" stop-color="rgb(99.905396%, 99.909973%, 99.913025%)" stop-opacity="1"/>
</linearGradient>
<clipPath id="clip-12">
<path clip-rule="nonzero" d="M 0 2511 L 3257 2511 L 3257 3985.550781 L 0 3985.550781 Z M 0 2511 "/>
</clipPath>
<clipPath id="clip-13">
<path clip-rule="nonzero" d="M 3256.101562 3985.550781 L 0 3985.550781 L 0 2795.148438 C 18.269531 2965.230469 112.921875 3216.910156 506.230469 3258 C 1109.230469 3321 1091.230469 2511 1091.230469 2511 C 1091.230469 2511 1217.230469 3276 1640.230469 3240 C 2060.75 3204.210938 2169.949219 2937.160156 2171.21875 2934.03125 C 2169.648438 2939.75 1957.019531 3717.429688 2441.230469 3834 C 2787.859375 3917.449219 2850.640625 3744.519531 2858.128906 3638.46875 C 3052.410156 3658.621094 3210.691406 3799.941406 3256.101562 3985.550781 Z M 3256.101562 3985.550781 "/>
</clipPath>
<clipPath id="clip-14">
<path clip-rule="nonzero" d="M 3256.101562 3985.550781 L 0 3985.550781 L 0 2795.148438 C 18.269531 2965.230469 112.921875 3216.910156 506.230469 3258 C 1109.230469 3321 1091.230469 2511 1091.230469 2511 C 1091.230469 2511 1217.230469 3276 1640.230469 3240 C 2060.75 3204.210938 2169.949219 2937.160156 2171.21875 2934.03125 C 2169.648438 2939.75 1957.019531 3717.429688 2441.230469 3834 C 2787.859375 3917.449219 2850.640625 3744.519531 2858.128906 3638.46875 C 3052.410156 3658.621094 3210.691406 3799.941406 3256.101562 3985.550781 "/>
</clipPath>
<linearGradient id="linear-pattern-4" gradientUnits="userSpaceOnUse" x1="-0.242287" y1="0" x2="1.096122" y2="0" gradientTransform="matrix(-1093.54, 1880.52, -1880.52, -1093.54, 2156.64, 2481.35)">
<stop offset="0" stop-color="rgb(90.194702%, 90.586853%, 90.979004%)" stop-opacity="1"/>
<stop offset="0.125" stop-color="rgb(90.194702%, 90.586853%, 90.979004%)" stop-opacity="1"/>
<stop offset="0.1875" stop-color="rgb(90.237427%, 90.628052%, 91.018677%)" stop-opacity="1"/>
<stop offset="0.203125" stop-color="rgb(90.382385%, 90.766907%, 91.151428%)" stop-opacity="1"/>
<stop offset="0.21875" stop-color="rgb(90.586853%, 90.963745%, 91.340637%)" stop-opacity="1"/>
<stop offset="0.234375" stop-color="rgb(90.792847%, 91.160583%, 91.52832%)" stop-opacity="1"/>
<stop offset="0.25" stop-color="rgb(90.997314%, 91.357422%, 91.717529%)" stop-opacity="1"/>
<stop offset="0.265625" stop-color="rgb(91.203308%, 91.55426%, 91.906738%)" stop-opacity="1"/>
<stop offset="0.28125" stop-color="rgb(91.407776%, 91.751099%, 92.094421%)" stop-opacity="1"/>
<stop offset="0.296875" stop-color="rgb(91.612244%, 91.947937%, 92.28363%)" stop-opacity="1"/>
<stop offset="0.3125" stop-color="rgb(91.818237%, 92.144775%, 92.472839%)" stop-opacity="1"/>
<stop offset="0.328125" stop-color="rgb(92.022705%, 92.341614%, 92.660522%)" stop-opacity="1"/>
<stop offset="0.34375" stop-color="rgb(92.227173%, 92.538452%, 92.849731%)" stop-opacity="1"/>
<stop offset="0.359375" stop-color="rgb(92.433167%, 92.735291%, 93.037415%)" stop-opacity="1"/>
<stop offset="0.375" stop-color="rgb(92.637634%, 92.932129%, 93.226624%)" stop-opacity="1"/>
<stop offset="0.390625" stop-color="rgb(92.842102%, 93.128967%, 93.415833%)" stop-opacity="1"/>
<stop offset="0.40625" stop-color="rgb(93.048096%, 93.325806%, 93.603516%)" stop-opacity="1"/>
<stop offset="0.421875" stop-color="rgb(93.252563%, 93.522644%, 93.792725%)" stop-opacity="1"/>
<stop offset="0.4375" stop-color="rgb(93.458557%, 93.719482%, 93.980408%)" stop-opacity="1"/>
<stop offset="0.453125" stop-color="rgb(93.663025%, 93.916321%, 94.169617%)" stop-opacity="1"/>
<stop offset="0.46875" stop-color="rgb(93.867493%, 94.113159%, 94.358826%)" stop-opacity="1"/>
<stop offset="0.484375" stop-color="rgb(94.073486%, 94.309998%, 94.546509%)" stop-opacity="1"/>
<stop offset="0.5" stop-color="rgb(94.277954%, 94.506836%, 94.735718%)" stop-opacity="1"/>
<stop offset="0.515625" stop-color="rgb(94.482422%, 94.703674%, 94.924927%)" stop-opacity="1"/>
<stop offset="0.53125" stop-color="rgb(94.688416%, 94.900513%, 95.11261%)" stop-opacity="1"/>
<stop offset="0.546875" stop-color="rgb(94.892883%, 95.097351%, 95.301819%)" stop-opacity="1"/>
<stop offset="0.5625" stop-color="rgb(95.097351%, 95.294189%, 95.489502%)" stop-opacity="1"/>
<stop offset="0.578125" stop-color="rgb(95.303345%, 95.491028%, 95.678711%)" stop-opacity="1"/>
<stop offset="0.59375" stop-color="rgb(95.507812%, 95.687866%, 95.86792%)" stop-opacity="1"/>
<stop offset="0.609375" stop-color="rgb(95.713806%, 95.884705%, 96.055603%)" stop-opacity="1"/>
<stop offset="0.625" stop-color="rgb(95.918274%, 96.081543%, 96.244812%)" stop-opacity="1"/>
<stop offset="0.640625" stop-color="rgb(96.122742%, 96.278381%, 96.434021%)" stop-opacity="1"/>
<stop offset="0.65625" stop-color="rgb(96.328735%, 96.47522%, 96.621704%)" stop-opacity="1"/>
<stop offset="0.671875" stop-color="rgb(96.533203%, 96.672058%, 96.810913%)" stop-opacity="1"/>
<stop offset="0.6875" stop-color="rgb(96.737671%, 96.868896%, 96.998596%)" stop-opacity="1"/>
<stop offset="0.703125" stop-color="rgb(96.943665%, 97.065735%, 97.187805%)" stop-opacity="1"/>
<stop offset="0.71875" stop-color="rgb(97.148132%, 97.262573%, 97.377014%)" stop-opacity="1"/>
<stop offset="0.734375" stop-color="rgb(97.354126%, 97.459412%, 97.564697%)" stop-opacity="1"/>
<stop offset="0.75" stop-color="rgb(97.558594%, 97.65625%, 97.753906%)" stop-opacity="1"/>
<stop offset="0.765625" stop-color="rgb(97.763062%, 97.853088%, 97.941589%)" stop-opacity="1"/>
<stop offset="0.78125" stop-color="rgb(97.969055%, 98.049927%, 98.130798%)" stop-opacity="1"/>
<stop offset="0.796875" stop-color="rgb(98.173523%, 98.246765%, 98.320007%)" stop-opacity="1"/>
<stop offset="0.8125" stop-color="rgb(98.377991%, 98.442078%, 98.50769%)" stop-opacity="1"/>
<stop offset="0.828125" stop-color="rgb(98.583984%, 98.638916%, 98.696899%)" stop-opacity="1"/>
<stop offset="0.84375" stop-color="rgb(98.788452%, 98.835754%, 98.886108%)" stop-opacity="1"/>
<stop offset="0.859375" stop-color="rgb(98.99292%, 99.032593%, 99.073792%)" stop-opacity="1"/>
<stop offset="0.875" stop-color="rgb(99.198914%, 99.229431%, 99.263%)" stop-opacity="1"/>
<stop offset="0.890625" stop-color="rgb(99.403381%, 99.42627%, 99.450684%)" stop-opacity="1"/>
<stop offset="0.90625" stop-color="rgb(99.609375%, 99.623108%, 99.639893%)" stop-opacity="1"/>
<stop offset="0.9375" stop-color="rgb(99.855042%, 99.861145%, 99.867249%)" stop-opacity="1"/>
<stop offset="1" stop-color="rgb(100%, 100%, 100%)" stop-opacity="1"/>
</linearGradient>
<clipPath id="clip-15">
<path clip-rule="nonzero" d="M 3342 943 L 4064 943 L 4064 1278 L 3342 1278 Z M 3342 943 "/>
</clipPath>
<clipPath id="clip-16">
<path clip-rule="nonzero" d="M 3754.640625 1277.929688 L 3628.660156 1192.398438 L 3537.011719 1247.910156 L 3515.859375 1112 L 3915.75 988.761719 L 3515.859375 1112 L 3342.21875 1057.539062 L 3440.660156 1041.941406 L 3763.589844 990.75 L 4063.628906 943.191406 L 4063.621094 943.191406 L 3547.960938 1137.601562 L 4063.628906 943.191406 L 4063.601562 943.21875 L 3754.640625 1277.929688 M 3547.960938 1137.601562 L 3547.960938 1137.601562 M 4063.628906 943.191406 L 4063.628906 943.191406 "/>
</clipPath>
<clipPath id="clip-17">
<path clip-rule="nonzero" d="M 3754.640625 1277.929688 L 3628.660156 1192.398438 L 3537.011719 1247.910156 L 3515.859375 1112 L 3915.75 988.761719 L 3515.859375 1112 L 3342.21875 1057.539062 L 3440.660156 1041.941406 L 3763.589844 990.75 L 4063.628906 943.191406 L 4063.621094 943.191406 L 3547.960938 1137.601562 L 4063.628906 943.191406 L 4063.601562 943.21875 L 3754.640625 1277.929688 M 3547.960938 1137.601562 L 3547.960938 1137.601562 M 4063.628906 943.191406 L 4063.628906 943.191406 "/>
</clipPath>
<linearGradient id="linear-pattern-5" gradientUnits="userSpaceOnUse" x1="0.731679" y1="0" x2="0.86267" y2="0" gradientTransform="matrix(3490.38, -4222.63, 4222.63, 3490.38, 596.426, 4208.87)">
<stop offset="0" stop-color="rgb(6.413269%, 52.650452%, 63.916016%)" stop-opacity="1"/>
<stop offset="0.25" stop-color="rgb(6.307983%, 52.49939%, 63.772583%)" stop-opacity="1"/>
<stop offset="0.5" stop-color="rgb(6.098938%, 52.200317%, 63.485718%)" stop-opacity="1"/>
<stop offset="0.75" stop-color="rgb(5.891418%, 51.901245%, 63.198853%)" stop-opacity="1"/>
<stop offset="1" stop-color="rgb(5.682373%, 51.600647%, 62.911987%)" stop-opacity="1"/>
</linearGradient>
<clipPath id="clip-18">
<path clip-rule="nonzero" d="M 3158 486 L 4134 486 L 4134 1150 L 3158 1150 Z M 3158 486 "/>
</clipPath>
<clipPath id="clip-19">
<path clip-rule="nonzero" d="M 4133.03125 486.050781 L 3520.210938 1149.941406 L 3158.789062 904.539062 L 3158.738281 904.320312 C 3158.738281 904.320312 3420.941406 1009.621094 3633.171875 881.421875 C 3843.730469 754.238281 4128.578125 490.171875 4133.03125 486.050781 Z M 4133.03125 486.050781 "/>
</clipPath>
<clipPath id="clip-20">
<path clip-rule="nonzero" d="M 4133.03125 486.050781 L 3520.210938 1149.941406 L 3158.789062 904.539062 L 3158.738281 904.320312 C 3158.738281 904.320312 3420.941406 1009.621094 3633.171875 881.421875 C 3843.730469 754.238281 4128.578125 490.171875 4133.03125 486.050781 "/>
</clipPath>
<linearGradient id="linear-pattern-6" gradientUnits="userSpaceOnUse" x1="-0.553621" y1="0" x2="1.52864" y2="0" gradientTransform="matrix(269.667, 440.254, -440.254, 269.667, 3569.09, 569.88)">
<stop offset="0" stop-color="rgb(90.194702%, 90.586853%, 90.979004%)" stop-opacity="1"/>
<stop offset="0.25" stop-color="rgb(90.194702%, 90.586853%, 90.979004%)" stop-opacity="1"/>
<stop offset="0.28125" stop-color="rgb(90.351868%, 90.737915%, 91.123962%)" stop-opacity="1"/>
<stop offset="0.296875" stop-color="rgb(90.667725%, 91.041565%, 91.415405%)" stop-opacity="1"/>
<stop offset="0.3125" stop-color="rgb(90.986633%, 91.348267%, 91.708374%)" stop-opacity="1"/>
<stop offset="0.328125" stop-color="rgb(91.305542%, 91.653442%, 92.001343%)" stop-opacity="1"/>
<stop offset="0.34375" stop-color="rgb(91.624451%, 91.960144%, 92.295837%)" stop-opacity="1"/>
<stop offset="0.359375" stop-color="rgb(91.943359%, 92.266846%, 92.588806%)" stop-opacity="1"/>
<stop offset="0.375" stop-color="rgb(92.262268%, 92.572021%, 92.881775%)" stop-opacity="1"/>
<stop offset="0.390625" stop-color="rgb(92.581177%, 92.878723%, 93.17627%)" stop-opacity="1"/>
<stop offset="0.40625" stop-color="rgb(92.900085%, 93.185425%, 93.469238%)" stop-opacity="1"/>
<stop offset="0.421875" stop-color="rgb(93.218994%, 93.490601%, 93.762207%)" stop-opacity="1"/>
<stop offset="0.4375" stop-color="rgb(93.539429%, 93.797302%, 94.056702%)" stop-opacity="1"/>
<stop offset="0.453125" stop-color="rgb(93.858337%, 94.104004%, 94.34967%)" stop-opacity="1"/>
<stop offset="0.46875" stop-color="rgb(94.177246%, 94.40918%, 94.642639%)" stop-opacity="1"/>
<stop offset="0.484375" stop-color="rgb(94.496155%, 94.715881%, 94.935608%)" stop-opacity="1"/>
<stop offset="0.5" stop-color="rgb(94.815063%, 95.022583%, 95.230103%)" stop-opacity="1"/>
<stop offset="0.515625" stop-color="rgb(95.133972%, 95.327759%, 95.523071%)" stop-opacity="1"/>
<stop offset="0.53125" stop-color="rgb(95.452881%, 95.63446%, 95.81604%)" stop-opacity="1"/>
<stop offset="0.546875" stop-color="rgb(95.77179%, 95.941162%, 96.110535%)" stop-opacity="1"/>
<stop offset="0.5625" stop-color="rgb(96.090698%, 96.246338%, 96.403503%)" stop-opacity="1"/>
<stop offset="0.578125" stop-color="rgb(96.409607%, 96.55304%, 96.696472%)" stop-opacity="1"/>
<stop offset="0.59375" stop-color="rgb(96.728516%, 96.859741%, 96.990967%)" stop-opacity="1"/>
<stop offset="0.609375" stop-color="rgb(97.047424%, 97.164917%, 97.283936%)" stop-opacity="1"/>
<stop offset="0.625" stop-color="rgb(97.366333%, 97.471619%, 97.576904%)" stop-opacity="1"/>
<stop offset="0.640625" stop-color="rgb(97.685242%, 97.77832%, 97.871399%)" stop-opacity="1"/>
<stop offset="0.65625" stop-color="rgb(98.00415%, 98.085022%, 98.164368%)" stop-opacity="1"/>
<stop offset="0.671875" stop-color="rgb(98.323059%, 98.390198%, 98.457336%)" stop-opacity="1"/>
<stop offset="0.6875" stop-color="rgb(98.641968%, 98.696899%, 98.751831%)" stop-opacity="1"/>
<stop offset="0.703125" stop-color="rgb(98.960876%, 99.003601%, 99.0448%)" stop-opacity="1"/>
<stop offset="0.71875" stop-color="rgb(99.279785%, 99.308777%, 99.337769%)" stop-opacity="1"/>
<stop offset="0.734375" stop-color="rgb(99.598694%, 99.615479%, 99.632263%)" stop-opacity="1"/>
<stop offset="0.75" stop-color="rgb(99.879456%, 99.884033%, 99.888611%)" stop-opacity="1"/>
<stop offset="1" stop-color="rgb(100%, 100%, 100%)" stop-opacity="1"/>
</linearGradient>
<clipPath id="clip-21">
<path clip-rule="nonzero" d="M 2702 486 L 4134 486 L 4134 821 L 2702 821 Z M 2702 486 "/>
</clipPath>
<clipPath id="clip-22">
<path clip-rule="nonzero" d="M 4133.078125 486 L 3046.621094 820.820312 L 2702.230469 712.808594 L 2897.46875 681.859375 C 2889.28125 700.539062 2896.039062 723.421875 2942.550781 747.28125 C 3053.511719 804.199219 3487.289062 668.070312 3537.980469 580.339844 Z M 4133.078125 486 "/>
</clipPath>
<clipPath id="clip-23">
<path clip-rule="nonzero" d="M 4133.078125 486 L 3046.621094 820.820312 L 2702.230469 712.808594 L 2897.46875 681.859375 C 2889.28125 700.539062 2896.039062 723.421875 2942.550781 747.28125 C 3053.511719 804.199219 3487.289062 668.070312 3537.980469 580.339844 L 4133.078125 486 "/>
</clipPath>
<linearGradient id="linear-pattern-7" gradientUnits="userSpaceOnUse" x1="-0.304312" y1="0" x2="1.558435" y2="0" gradientTransform="matrix(713.346, -307.045, 307.045, 713.346, 2950.73, 800.38)">
<stop offset="0" stop-color="rgb(90.194702%, 90.586853%, 90.979004%)" stop-opacity="1"/>
<stop offset="0.125" stop-color="rgb(90.194702%, 90.586853%, 90.979004%)" stop-opacity="1"/>
<stop offset="0.15625" stop-color="rgb(90.194702%, 90.586853%, 90.979004%)" stop-opacity="1"/>
<stop offset="0.171875" stop-color="rgb(90.272522%, 90.661621%, 91.05072%)" stop-opacity="1"/>
<stop offset="0.1875" stop-color="rgb(90.492249%, 90.873718%, 91.253662%)" stop-opacity="1"/>
<stop offset="0.203125" stop-color="rgb(90.777588%, 91.146851%, 91.516113%)" stop-opacity="1"/>
<stop offset="0.21875" stop-color="rgb(91.062927%, 91.421509%, 91.778564%)" stop-opacity="1"/>
<stop offset="0.234375" stop-color="rgb(91.348267%, 91.694641%, 92.041016%)" stop-opacity="1"/>
<stop offset="0.25" stop-color="rgb(91.633606%, 91.969299%, 92.303467%)" stop-opacity="1"/>
<stop offset="0.265625" stop-color="rgb(91.918945%, 92.242432%, 92.565918%)" stop-opacity="1"/>
<stop offset="0.28125" stop-color="rgb(92.204285%, 92.51709%, 92.828369%)" stop-opacity="1"/>
<stop offset="0.296875" stop-color="rgb(92.489624%, 92.790222%, 93.09082%)" stop-opacity="1"/>
<stop offset="0.3125" stop-color="rgb(92.774963%, 93.06488%, 93.353271%)" stop-opacity="1"/>
<stop offset="0.328125" stop-color="rgb(93.060303%, 93.338013%, 93.615723%)" stop-opacity="1"/>
<stop offset="0.34375" stop-color="rgb(93.345642%, 93.612671%, 93.8797%)" stop-opacity="1"/>
<stop offset="0.359375" stop-color="rgb(93.630981%, 93.885803%, 94.142151%)" stop-opacity="1"/>
<stop offset="0.375" stop-color="rgb(93.916321%, 94.160461%, 94.404602%)" stop-opacity="1"/>
<stop offset="0.390625" stop-color="rgb(94.20166%, 94.433594%, 94.667053%)" stop-opacity="1"/>
<stop offset="0.40625" stop-color="rgb(94.487%, 94.708252%, 94.929504%)" stop-opacity="1"/>
<stop offset="0.421875" stop-color="rgb(94.772339%, 94.98291%, 95.191956%)" stop-opacity="1"/>
<stop offset="0.4375" stop-color="rgb(95.057678%, 95.256042%, 95.454407%)" stop-opacity="1"/>
<stop offset="0.453125" stop-color="rgb(95.343018%, 95.530701%, 95.716858%)" stop-opacity="1"/>
<stop offset="0.46875" stop-color="rgb(95.628357%, 95.803833%, 95.979309%)" stop-opacity="1"/>
<stop offset="0.484375" stop-color="rgb(95.913696%, 96.078491%, 96.24176%)" stop-opacity="1"/>
<stop offset="0.5" stop-color="rgb(96.199036%, 96.351624%, 96.504211%)" stop-opacity="1"/>
<stop offset="0.515625" stop-color="rgb(96.484375%, 96.626282%, 96.766663%)" stop-opacity="1"/>
<stop offset="0.53125" stop-color="rgb(96.769714%, 96.899414%, 97.029114%)" stop-opacity="1"/>
<stop offset="0.546875" stop-color="rgb(97.055054%, 97.174072%, 97.291565%)" stop-opacity="1"/>
<stop offset="0.5625" stop-color="rgb(97.340393%, 97.447205%, 97.554016%)" stop-opacity="1"/>
<stop offset="0.578125" stop-color="rgb(97.625732%, 97.721863%, 97.816467%)" stop-opacity="1"/>
<stop offset="0.59375" stop-color="rgb(97.911072%, 97.994995%, 98.078918%)" stop-opacity="1"/>
<stop offset="0.609375" stop-color="rgb(98.196411%, 98.269653%, 98.34137%)" stop-opacity="1"/>
<stop offset="0.625" stop-color="rgb(98.48175%, 98.542786%, 98.603821%)" stop-opacity="1"/>
<stop offset="0.640625" stop-color="rgb(98.76709%, 98.817444%, 98.866272%)" stop-opacity="1"/>
<stop offset="0.65625" stop-color="rgb(99.052429%, 99.090576%, 99.128723%)" stop-opacity="1"/>
<stop offset="0.671875" stop-color="rgb(99.337769%, 99.365234%, 99.391174%)" stop-opacity="1"/>
<stop offset="0.6875" stop-color="rgb(99.623108%, 99.638367%, 99.655151%)" stop-opacity="1"/>
<stop offset="0.75" stop-color="rgb(99.882507%, 99.887085%, 99.893188%)" stop-opacity="1"/>
<stop offset="1" stop-color="rgb(100%, 100%, 100%)" stop-opacity="1"/>
</linearGradient>
</defs>
<g clip-path="url(#clip-0)">
<g clip-path="url(#clip-1)">
<path fill-rule="nonzero" fill="url(#linear-pattern-0)" d="M -1957.175781 2367.769531 L 2885.167969 6370.398438 L 6813.632812 1617.777344 L 1971.289062 -2384.847656 Z M -1957.175781 2367.769531 "/>
</g>
</g>
<g clip-path="url(#clip-2)">
<g clip-path="url(#clip-3)">
<g clip-path="url(#clip-4)">
<path fill-rule="nonzero" fill="url(#linear-pattern-1)" d="M -1272.691406 2832.289062 L 2056.925781 5584.511719 L 4773.816406 2297.640625 L 1444.199219 -454.582031 Z M -1272.691406 2832.289062 "/>
</g>
</g>
</g>
<g clip-path="url(#clip-5)">
<g clip-path="url(#clip-6)">
<g clip-path="url(#clip-7)">
<path fill-rule="nonzero" fill="url(#linear-pattern-2)" d="M 3072.59375 1143.820312 L 3075.332031 1146.085938 L 3077.417969 1143.558594 L 3074.679688 1141.296875 Z M 3072.59375 1143.820312 "/>
</g>
</g>
</g>
<g clip-path="url(#clip-8)">
<path fill-rule="nonzero" fill="rgb(100%, 100%, 100%)" fill-opacity="1" d="M 2858.128906 3638.46875 C 2842.390625 3636.839844 2826.410156 3636 2810.230469 3636 C 2787.960938 3636 2766.058594 3637.589844 2744.640625 3640.660156 C 2724.128906 3595.449219 2678.609375 3564 2625.730469 3564 C 2620.519531 3564 2615.390625 3564.308594 2610.351562 3564.910156 C 2595.28125 3442.648438 2491.058594 3348 2364.730469 3348 C 2363.46875 3348 2362.21875 3348.03125 2360.96875 3348.050781 C 2366.328125 3330.988281 2369.230469 3312.828125 2369.230469 3294 C 2369.230469 3257.480469 2358.339844 3223.511719 2339.648438 3195.128906 C 2474 3133.101562 2567.230469 2997.191406 2567.230469 2839.5 C 2567.230469 2636.949219 2413.398438 2470.320312 2216.199219 2450.070312 C 2215.191406 2345.738281 2149.648438 2256.871094 2057.570312 2221.441406 C 2072.109375 2200.761719 2080.761719 2175.679688 2081.191406 2148.589844 C 2485.101562 1351.738281 2908.410156 1161.769531 2950.761719 1144.378906 C 2453.050781 1342.109375 2044.828125 1915.738281 1974.839844 2018.230469 C 1967.019531 2016.769531 1958.96875 2016 1950.730469 2016 C 1903.621094 2016 1862.339844 2040.96875 1839.390625 2078.398438 C 1812.828125 2064.421875 1782.578125 2056.5 1750.480469 2056.5 C 1656.21875 2056.5 1577.890625 2124.691406 1562.128906 2214.429688 C 1531.96875 2202.539062 1499.109375 2196 1464.730469 2196 C 1392.460938 2196 1326.949219 2224.890625 1279.078125 2271.730469 C 1209.429688 2207.929688 1116.628906 2169 1014.730469 2169 C 814.679688 2169 649.679688 2319.039062 626.121094 2512.730469 C 614.808594 2511.589844 603.339844 2511 591.730469 2511 C 518.011719 2511 449.820312 2534.648438 394.308594 2574.761719 C 318.648438 2475.820312 199.398438 2412 65.230469 2412 C 43.039062 2412 21.25 2413.75 0 2417.121094 L 0 3985.550781 L 3256.101562 3985.550781 C 3210.691406 3799.941406 3052.410156 3658.621094 2858.128906 3638.46875 "/>
</g>
<path fill-rule="nonzero" fill="rgb(100%, 100%, 100%)" fill-opacity="1" d="M 2950.761719 1144.378906 C 2951.921875 1143.921875 2953.070312 1143.460938 2954.230469 1143 C 2954.230469 1143 2953.050781 1143.441406 2950.761719 1144.378906 "/>
<g clip-path="url(#clip-9)">
<g clip-path="url(#clip-10)">
<g clip-path="url(#clip-11)">
<path fill-rule="nonzero" fill="url(#linear-pattern-3)" d="M 9.269531 2641.128906 L 0.5625 2636.066406 L -7.046875 2649.152344 L 1.660156 2654.214844 Z M 9.269531 2641.128906 "/>
</g>
</g>
</g>
<g clip-path="url(#clip-12)">
<g clip-path="url(#clip-13)">
<g clip-path="url(#clip-14)">
<path fill-rule="nonzero" fill="url(#linear-pattern-4)" d="M 3896.882812 2883.621094 L 822.820312 1096.027344 L -640.78125 3612.929688 L 2433.277344 5400.523438 Z M 3896.882812 2883.621094 "/>
</g>
</g>
</g>
<g clip-path="url(#clip-15)">
<g clip-path="url(#clip-16)">
<g clip-path="url(#clip-17)">
<path fill-rule="nonzero" fill="url(#linear-pattern-5)" d="M 3177.839844 1142.054688 L 3770.800781 1632.191406 L 4228.011719 1079.066406 L 3635.046875 588.929688 Z M 3177.839844 1142.054688 "/>
</g>
</g>
</g>
<path fill-rule="nonzero" fill="rgb(68.554688%, 68.554688%, 68.554688%)" fill-opacity="1" d="M 3088.570312 1090.378906 L 3323.640625 948.011719 L 3110.289062 871.601562 Z M 3088.570312 1090.378906 "/>
<path fill-rule="nonzero" fill="rgb(100%, 100%, 100%)" fill-opacity="1" d="M 4133.078125 486 L 4133.03125 486.050781 L 3520.210938 1149.941406 L 3158.789062 904.539062 L 3110.289062 871.601562 L 4133.078125 486 "/>
<path fill-rule="nonzero" fill="rgb(89.84375%, 89.84375%, 89.84375%)" fill-opacity="1" d="M 4133.078125 486 L 3046.621094 820.820312 L 3088.570312 1090.378906 L 3110.289062 871.601562 L 4133.078125 486 "/>
<path fill-rule="nonzero" fill="rgb(100%, 100%, 100%)" fill-opacity="1" d="M 4133.078125 486 L 3046.621094 820.820312 L 2702.230469 712.808594 L 2897.46875 681.859375 L 3537.980469 580.339844 L 4133.078125 486 "/>
<g clip-path="url(#clip-18)">
<g clip-path="url(#clip-19)">
<g clip-path="url(#clip-20)">
<path fill-rule="nonzero" fill="url(#linear-pattern-6)" d="M 3867.21875 52.089844 L 2863.035156 667.175781 L 3424.550781 1583.902344 L 4428.734375 968.8125 Z M 3867.21875 52.089844 "/>
</g>
</g>
</g>
<g clip-path="url(#clip-21)">
<g clip-path="url(#clip-22)">
<g clip-path="url(#clip-23)">
<path fill-rule="nonzero" fill="url(#linear-pattern-7)" d="M 2580.640625 538.335938 L 2925.886719 1340.429688 L 4254.667969 768.484375 L 3909.425781 -33.613281 Z M 2580.640625 538.335938 "/>
</g>
</g>
</g>
</svg>
