<?xml version="1.0" encoding="UTF-8"?>
<svg xmlns="http://www.w3.org/2000/svg" width="56" height="56" viewBox="0 0 56 56" fill="none">
  <path d="M0.718411 19.4782C0.718411 19.4782 -0.62072 18.5165 0.986236 17.2382L4.72363 13.8904C5.00109 13.5864 5.38533 13.4015 5.79599 13.3743C6.20665 13.3471 6.61194 13.4796 6.92711 13.7443L41.3915 39.833V52.3478C41.3915 52.3478 41.3915 54.32 38.8471 54.1008L0.718411 19.4782Z" fill="#2489CA"></path>
  <path d="M9.61743 27.5374L0.718297 35.6209C0.718297 35.6209 -0.194746 36.2905 0.718297 37.5079L4.8696 41.2696C5.03782 41.4224 5.2349 41.5401 5.44925 41.6156C5.6636 41.6911 5.8909 41.723 6.11776 41.7094C6.34463 41.6958 6.56648 41.637 6.77026 41.5363C6.97405 41.4357 7.15565 41.2953 7.30438 41.1235L16.727 33.9774L9.61743 27.5374Z" fill="#1070B3"></path>
  <path d="M25.2249 27.5983L41.5257 15.1444L41.3918 2.69046C41.3918 2.69046 40.6857 -0.0243215 38.3727 1.38785L16.7031 21.1339L25.2249 27.5983Z" fill="#0877B9"></path>
  <path d="M38.8831 54.1252C39.1464 54.4053 39.4773 54.6128 39.844 54.7279C40.2108 54.8431 40.6009 54.8619 40.977 54.7826L53.6866 48.5131C54.1207 48.2745 54.4808 47.9212 54.7277 47.4918C54.9746 47.0624 55.0988 46.5734 55.0866 46.0783V8.6435C55.0554 8.14819 54.878 7.67327 54.5768 7.27886C54.2755 6.88445 53.8641 6.58828 53.3944 6.42785L42.4379 1.12002C41.8524 0.680242 41.1284 0.465369 40.3977 0.514525C39.6671 0.563682 38.9784 0.873598 38.457 1.38785C38.457 1.38785 40.4779 -0.0730236 41.4762 2.69045V52.1287C41.479 52.4659 41.404 52.7992 41.257 53.1026C40.9649 53.687 40.3318 54.2348 38.8222 54.0157L38.8831 54.1252Z" fill="#3C99D4"></path>
</svg>
