<?xml version="1.0" encoding="UTF-8"?>
<svg xmlns="http://www.w3.org/2000/svg" width="64" height="64" viewBox="0 0 64 64" fill="none">
  <g clip-path="url(#clip0_9761_2723)">
    <path d="M32 64C49.6731 64 64 49.6731 64 32C64 14.3269 49.6731 0 32 0C14.3269 0 0 14.3269 0 32C0 49.6731 14.3269 64 32 64Z" fill="#4353FF"></path>
    <path d="M41.4009 28.2005L38.5009 37.3405C38.5009 36.6405 36.5009 21.4805 36.5009 21.4805C31.9009 21.4805 29.4609 24.7405 28.1809 28.2005L24.6409 37.3605C24.6409 36.7005 24.1409 28.2805 24.1409 28.2805C23.9701 26.4577 23.1368 24.7609 21.7988 23.5113C20.4608 22.2618 18.711 21.5463 16.8809 21.5005L20.6409 44.4605C25.4409 44.4605 28.0409 41.2005 29.3809 37.7405L32.3809 29.9405C32.3809 30.2605 34.3809 44.4605 34.3809 44.4605C36.3436 44.4579 38.2546 43.8305 39.8368 42.669C41.4191 41.5075 42.5903 39.8723 43.1809 38.0005L49.9809 21.4805C45.1809 21.4805 42.6609 24.7405 41.3809 28.2005H41.4009Z" fill="white"></path>
  </g>
  <defs>
    <clipPath id="clip0_9761_2723">
      <rect width="64" height="64" fill="white"></rect>
    </clipPath>
  </defs>
</svg>
