<?xml version="1.0" encoding="UTF-8"?>
<svg xmlns="http://www.w3.org/2000/svg" width="118" height="71" viewBox="0 0 118 71" fill="none">
  <g clip-path="url(#clip0_9761_2714)">
    <path d="M10.9561 0H106.996C113.075 0 117.995 4.95376 117.995 11.0737V47.9849C117.995 54.1048 113.075 59.0585 106.996 59.0585H72.5551L77.2825 70.7146L56.492 59.0585H11.0041C4.92626 59.0585 0.00621338 54.1048 0.00621338 47.9849V11.0737C-0.0421805 5.00248 4.8774 0 10.9561 0Z" fill="#9B5C8F"></path>
    <path d="M6.7239 10.0927C7.39542 9.17477 8.40248 8.69216 9.74552 8.59563C12.1919 8.40212 13.5829 9.56086 13.9185 12.0723C15.4053 22.1654 17.0359 30.7133 18.7625 37.7154L29.2662 17.5778C30.2258 15.7425 31.4251 14.7768 32.864 14.6803C34.9744 14.5355 36.2691 15.8873 36.7968 18.7366C37.996 25.159 39.5308 30.6163 41.3532 35.2522C42.6004 22.9864 44.7108 14.1489 47.6845 8.69216C48.4035 7.33991 49.4589 6.66378 50.8499 6.5668C51.9533 6.47074 52.9603 6.80857 53.8715 7.53295C54.7827 8.25734 55.2625 9.17477 55.3584 10.2857C55.4063 11.1549 55.2625 11.8793 54.879 12.6037C53.0083 16.0808 51.473 21.9241 50.2263 30.0367C49.0275 37.9084 48.5957 44.0418 48.8833 48.4364C48.9796 49.6429 48.7874 50.7056 48.3081 51.6235C47.732 52.6857 46.8692 53.2653 45.7658 53.3618C44.5186 53.4583 43.2239 52.8792 41.9768 51.5752C37.5162 46.9871 33.9669 40.1298 31.3771 31.0029C28.2592 37.184 25.957 41.8199 24.4702 44.9105C21.6403 50.3678 19.2422 53.1688 17.2277 53.3136C15.9326 53.4101 14.8296 52.2991 13.8705 49.9817C11.4246 43.6552 8.7864 31.4372 5.95697 13.328C5.76478 12.0723 6.05238 10.9614 6.7239 10.0927ZM109.796 17.6744C108.07 14.632 105.528 12.7972 102.123 12.0723C101.211 11.8793 100.348 11.7827 99.5323 11.7827C94.928 11.7827 91.1869 14.1972 88.2611 19.0266C85.7668 23.1311 84.5201 27.6705 84.5201 32.6447C84.5201 36.3631 85.2874 39.5502 86.8222 42.2065C88.5487 45.2488 91.091 47.0837 94.4961 47.808C95.4073 48.0016 96.2706 48.0981 97.0863 48.0981C101.739 48.0981 105.48 45.6836 108.357 40.8542C110.851 36.701 112.099 32.1616 112.099 27.1879C112.147 23.4212 111.331 20.2819 109.796 17.6744ZM103.753 31.0511C103.082 34.2382 101.882 36.6044 100.107 38.198C98.717 39.4537 97.4219 39.9846 96.2231 39.7433C95.0718 39.502 94.1122 38.488 93.3932 36.6044C92.8171 35.1074 92.5299 33.6104 92.5299 32.2099C92.5299 31.0029 92.6258 29.7954 92.8655 28.6849C93.2973 26.7048 94.1126 24.773 95.4073 22.9381C96.9905 20.5714 98.669 19.6062 100.396 19.944C101.547 20.1853 102.506 21.1998 103.225 23.0829C103.801 24.5799 104.089 26.0769 104.089 27.4775C104.089 28.7332 103.993 29.9406 103.753 31.0511ZM79.7715 17.6744C78.045 14.632 75.4547 12.7972 72.0976 12.0723C71.1864 11.8793 70.3231 11.7827 69.5074 11.7827C64.903 11.7827 61.1619 14.1972 58.2362 19.0266C55.7423 23.1311 54.4951 27.6705 54.4951 32.6447C54.4951 36.3631 55.2625 39.5502 56.7973 42.2065C58.5238 45.2488 61.0661 47.0837 64.4712 47.808C65.3828 48.0016 66.2456 48.0981 67.0614 48.0981C71.7137 48.0981 75.4547 45.6836 78.3326 40.8542C80.8269 36.701 82.0736 32.1616 82.0736 27.1879C82.0736 23.4212 81.3062 20.2819 79.7715 17.6744ZM73.6803 31.0511C73.0088 34.2382 71.8095 36.6044 70.0351 38.198C68.6441 39.4537 67.349 39.9846 66.1497 39.7433C64.9989 39.502 64.0398 38.488 63.3199 36.6044C62.7447 35.1074 62.4571 33.6104 62.4571 32.2099C62.4571 31.0029 62.5529 29.7954 62.7926 28.6849C63.2244 26.7048 64.0398 24.773 65.3349 22.9381C66.9176 20.5714 68.5962 19.6062 70.3227 19.944C71.474 20.1853 72.4336 21.1998 73.1526 23.0829C73.7287 24.5799 74.0158 26.0769 74.0158 27.4775C74.0642 28.7332 73.92 29.9406 73.6803 31.0511Z" fill="white"></path>
  </g>
  <defs>
    <clipPath id="clip0_9761_2714">
      <rect width="118" height="71" fill="white"></rect>
    </clipPath>
  </defs>
</svg>
