<?xml version="1.0" encoding="UTF-8"?>
<svg xmlns="http://www.w3.org/2000/svg" width="81" height="27" viewBox="0 0 81 27" fill="none">
  <path fill-rule="evenodd" clip-rule="evenodd" d="M32.4017 18.1174C32.6267 17.5789 33.1892 17.1932 33.7759 17.1932C38.204 17.1932 42.6321 17.1932 47.0682 17.1932C47.454 17.1852 47.8397 17.3298 48.121 17.587C48.4425 17.8763 48.6273 18.3103 48.6193 18.7442C48.6193 20.4399 48.6193 22.1356 48.6193 23.8394C48.6112 24.6028 47.9442 25.294 47.1807 25.31C45.5654 25.3181 43.9501 25.31 42.3347 25.31C42.5517 25.8485 42.7687 26.3789 42.9857 26.9173C42.0213 26.3869 41.073 25.8404 40.1006 25.3181C37.979 25.302 35.8493 25.3181 33.7196 25.31C32.9562 25.2859 32.2891 24.6028 32.2811 23.8394C32.2731 22.1758 32.2811 20.5123 32.2731 18.8567C32.2731 18.6076 32.2972 18.3504 32.4017 18.1174Z" fill="#945C87"></path>
  <path fill-rule="evenodd" clip-rule="evenodd" d="M38.8952 18.2374C39.1363 17.9802 39.6024 18.0606 39.7872 18.358C39.8837 18.5107 39.8917 18.7196 39.8114 18.8803C39.4738 19.5554 39.3292 20.3028 39.2006 21.0341C39.0479 21.9905 38.9193 22.9629 38.9675 23.9353C38.9836 24.1844 38.863 24.4818 38.5978 24.546C38.3487 24.6023 38.1157 24.4335 37.9549 24.2567C37.2316 23.4772 36.8218 22.4726 36.5244 21.4681C36.2271 22.0547 35.9297 22.6494 35.6404 23.2361C35.4395 23.6379 35.2225 24.0478 34.9011 24.3692C34.7644 24.5059 34.5314 24.6264 34.3546 24.4898C34.0894 24.2567 34.0251 23.8871 33.9126 23.5736C33.4866 22.103 33.2456 20.5841 32.9964 19.0732C32.9402 18.8241 33.0446 18.5187 33.2938 18.4223C33.4947 18.3499 33.7599 18.3339 33.9287 18.4865C34.0492 18.591 34.0813 18.7598 34.1055 18.9125C34.2823 20.0858 34.4832 21.2511 34.7725 22.4003C35.2547 21.4842 35.7369 20.568 36.219 19.6438C36.2914 19.5072 36.3798 19.3706 36.5084 19.2902C36.6852 19.1777 36.9423 19.1857 37.095 19.3465C37.2156 19.475 37.2638 19.6599 37.2959 19.8286C37.4406 20.5841 37.6335 21.3395 37.9147 22.0547C38.0353 20.9698 38.188 19.8688 38.5818 18.8482C38.6702 18.6312 38.7505 18.4142 38.8952 18.2374ZM41.6196 18.8241C42.1419 18.7598 42.7045 18.9366 43.0581 19.3304C43.3474 19.6599 43.5081 20.0858 43.5644 20.5117C43.6528 21.2431 43.5162 22.0146 43.1626 22.6655C42.9616 23.0352 42.7045 23.3968 42.3348 23.6138C41.7964 23.9433 41.0731 23.9031 40.5507 23.5576C40.1328 23.2682 39.8998 22.7861 39.8033 22.3039C39.6104 21.2029 39.9399 19.9813 40.7677 19.2179C41.0088 19.0009 41.3061 18.8643 41.6196 18.8241ZM41.724 19.9492C41.4749 20.0296 41.3142 20.2626 41.1776 20.4716C40.84 21.018 40.7436 21.7333 41.0168 22.3199C41.0892 22.4726 41.2017 22.6414 41.3865 22.6735C41.5794 22.7057 41.7562 22.5932 41.8928 22.4726C42.1982 22.2074 42.3509 21.8136 42.4312 21.4199C42.5116 20.9779 42.4714 20.4876 42.2143 20.1019C42.1098 19.9572 41.9008 19.8929 41.724 19.9492ZM45.7905 18.8241C46.2968 18.7598 46.8513 18.9205 47.2049 19.2982C47.5264 19.6438 47.6951 20.1019 47.7434 20.568C47.8157 21.2752 47.6871 22.0146 47.3496 22.6414C47.1487 23.0191 46.8834 23.3888 46.4977 23.6138C45.9834 23.9272 45.2922 23.8951 44.7779 23.5897C44.4323 23.3808 44.1993 23.0272 44.0626 22.6494C43.701 21.5002 44.0064 20.1501 44.8422 19.2822C45.1154 19.0411 45.4449 18.8643 45.7905 18.8241ZM45.903 19.9492C45.6298 20.0456 45.469 20.3108 45.3244 20.5439C45.019 21.0823 44.9386 21.7815 45.2199 22.3521C45.2922 22.5128 45.4288 22.6655 45.6137 22.6735C45.8146 22.6816 45.9914 22.553 46.1361 22.4164C46.4495 22.111 46.5861 21.677 46.6343 21.2511C46.6825 20.8573 46.6182 20.4314 46.3852 20.0938C46.2887 19.9572 46.0798 19.8929 45.903 19.9492Z" fill="white"></path>
  <path fill-rule="evenodd" clip-rule="evenodd" d="M51.3678 18.9775C51.8098 18.8811 52.2759 18.8891 52.7179 18.9936C52.7179 19.3552 52.7179 19.7169 52.7179 20.0785C52.3563 19.9901 51.9464 19.9098 51.6008 20.0785C51.1829 20.2875 50.9499 20.7616 50.9499 21.2117C50.9258 21.6617 51.0785 22.168 51.4803 22.4252C51.85 22.6663 52.3241 22.6181 52.7259 22.5055C52.7259 22.8672 52.7259 23.2288 52.7259 23.5905C52.1875 23.7432 51.6008 23.7271 51.0785 23.5342C50.4516 23.3012 49.9534 22.7547 49.7605 22.1118C49.6158 21.6215 49.5998 21.0992 49.7123 20.6009C49.8971 19.8053 50.5722 19.1543 51.3678 18.9775ZM54.6306 18.9213C55.1771 18.857 55.7718 18.9454 56.2138 19.291C56.6397 19.6204 56.8486 20.1589 56.929 20.6732C57.0013 21.2438 56.9853 21.8385 56.8085 22.385C56.6558 22.8511 56.3424 23.2851 55.8923 23.5021C55.4342 23.719 54.8958 23.7351 54.4056 23.6226C53.9555 23.5181 53.5537 23.2208 53.3287 22.8109C53.0153 22.2645 52.959 21.6135 52.9831 20.9947C53.0072 20.4643 53.1438 19.9098 53.4974 19.4999C53.7868 19.1704 54.2046 18.9695 54.6306 18.9213ZM54.7993 19.958C54.5663 20.0142 54.4297 20.2473 54.3734 20.4643C54.2609 20.8982 54.277 21.3483 54.3091 21.7903C54.3413 22.0314 54.3654 22.2886 54.5341 22.4814C54.7592 22.7386 55.2172 22.7065 55.4182 22.4413C55.5548 22.2725 55.595 22.0555 55.6191 21.8466C55.6673 21.4769 55.6753 21.0992 55.6191 20.7295C55.5789 20.5045 55.5146 20.2714 55.3539 20.1026C55.2092 19.958 54.9922 19.9098 54.7993 19.958ZM76.2326 18.9936C76.6987 18.8731 77.189 18.8891 77.6551 18.9856C77.6631 19.3472 77.6551 19.7089 77.6631 20.0785C77.3095 19.9901 76.9157 19.9098 76.5702 20.0625C76.1683 20.2473 75.9272 20.6732 75.8951 21.0992C75.8469 21.5813 75.9755 22.1278 76.4014 22.4091C76.7711 22.6663 77.2533 22.6181 77.6631 22.4975C77.6551 22.8591 77.6712 23.2288 77.6551 23.5905C77.0845 23.7351 76.4576 23.7191 75.9192 23.486C75.3245 23.2288 74.8584 22.6823 74.6896 22.0555C74.561 21.5733 74.545 21.059 74.6655 20.5688C74.8423 19.8133 75.4772 19.1945 76.2326 18.9936ZM57.6443 19.0258C58.1586 19.0258 58.681 19.0258 59.1953 19.0258C59.3801 19.8615 59.5569 20.7054 59.7177 21.5492C59.8623 20.6973 60.0632 19.8615 60.2642 19.0258C60.7946 19.0258 61.325 19.0258 61.8554 19.0258C62.0643 20.5446 62.2652 22.0635 62.4661 23.5744C62.0643 23.5744 61.6545 23.5744 61.2526 23.5744C61.1401 22.5377 61.0437 21.4929 60.9231 20.4562C60.674 21.4929 60.4168 22.5377 60.1677 23.5744C59.8945 23.5744 59.6132 23.5744 59.34 23.5744C59.0748 22.5377 58.8176 21.4929 58.5443 20.4482C58.4399 21.4849 58.3354 22.5297 58.2309 23.5744C57.8452 23.5744 57.4594 23.5744 57.0656 23.5744C57.2585 22.0635 57.4514 20.5446 57.6443 19.0258ZM63.2055 19.0258C63.7198 19.0258 64.2422 19.0258 64.7565 19.0258C64.9414 19.8615 65.1182 20.7054 65.2789 21.5492C65.4316 20.7054 65.6245 19.8615 65.8254 19.0258H67.4086C67.6175 20.5446 67.8184 22.0635 68.0193 23.5744C67.6175 23.5744 67.2077 23.5744 66.8058 23.5744C66.6933 22.5377 66.5889 21.4929 66.4763 20.4562C66.2272 21.4929 65.9781 22.5377 65.7209 23.5744C65.4477 23.5744 65.1664 23.5744 64.8932 23.5744C64.628 22.5297 64.3628 21.4929 64.0975 20.4482C63.9931 21.4929 63.8886 22.5297 63.7841 23.5744C63.3984 23.5744 63.0126 23.5744 62.6188 23.5744C62.8197 22.0635 63.0126 20.5446 63.2055 19.0258ZM68.373 19.0418C69.2007 19.0257 70.0365 19.0418 70.8643 19.0338C70.8643 19.3552 70.8643 19.6767 70.8643 20.0062C70.4464 20.0142 70.0285 20.0062 69.6106 20.0062C69.6106 20.2875 69.6106 20.5607 69.6106 20.842C69.9722 20.842 70.3339 20.842 70.6955 20.842C70.6955 21.1554 70.6955 21.4688 70.6955 21.7823C70.3339 21.7823 69.9722 21.7823 69.6106 21.7823C69.6106 22.0555 69.6106 22.3368 69.6106 22.6181C70.0285 22.6181 70.4544 22.6181 70.8723 22.6181C70.8723 22.9395 70.8723 23.261 70.8723 23.5905C70.0445 23.5905 69.2087 23.5905 68.381 23.5905C68.373 22.0716 68.389 20.5607 68.373 19.0418ZM71.2179 19.0258C71.7402 19.0258 72.2546 19.0177 72.7769 19.0258C73.2672 19.0418 73.7895 19.1624 74.1512 19.5079C74.4807 19.8133 74.5932 20.3196 74.4646 20.7456C74.3601 21.0911 74.103 21.3724 73.7815 21.5251C74.103 22.2082 74.4325 22.8913 74.7619 23.5744C74.328 23.5744 73.894 23.5744 73.4681 23.5744C73.1305 22.8752 72.801 22.176 72.4555 21.4849C72.4474 22.1841 72.4555 22.8833 72.4555 23.5744C72.0456 23.5744 71.6358 23.5744 71.2259 23.5744C71.2179 22.0635 71.2179 20.5446 71.2179 19.0258ZM72.4474 19.9017C72.4474 20.2634 72.4474 20.625 72.4474 20.9867C72.6725 20.9706 72.9136 20.9625 73.0984 20.8259C73.3154 20.6652 73.2913 20.3357 73.1547 20.1267C72.9859 19.9258 72.6885 19.9258 72.4474 19.9017ZM78.0087 19.0338C78.8364 19.0338 79.6642 19.0338 80.492 19.0338C80.492 19.3552 80.492 19.6847 80.492 20.0062C80.0741 20.0062 79.6481 20.0062 79.2302 20.0062C79.2302 20.2875 79.2302 20.5607 79.2302 20.842C79.5919 20.842 79.9535 20.842 80.3152 20.842C80.3152 21.1554 80.3152 21.4688 80.3152 21.7823H79.2302C79.2302 22.0635 79.2302 22.3368 79.2302 22.6181C79.6562 22.6181 80.0741 22.6181 80.5 22.6181C80.5 22.9395 80.5 23.261 80.5 23.5905C79.6722 23.5905 78.8364 23.5905 78.0087 23.5905C78.0006 22.0635 78.0087 20.5446 78.0087 19.0338Z" fill="black"></path>
  <path d="M46.8398 7.99658H43.6859V8.33204C44.6728 8.33204 44.8311 8.54366 44.8311 9.79489V12.0522C44.8311 13.3034 44.6744 13.5329 43.6859 13.5329C42.9284 13.4269 42.4171 13.0216 41.7107 12.2475L40.9003 11.3662C41.9926 11.1721 42.5741 10.4849 42.5741 9.7093C42.5741 8.74023 41.7462 8.00003 40.1949 8.00003H37.093V8.33204C38.08 8.33204 38.2386 8.54366 38.2386 9.79489V12.0522C38.2386 13.3037 38.0818 13.5329 37.093 13.5329V13.8655H40.6003V13.5307C39.6137 13.5307 39.455 13.3015 39.455 12.05V11.4157H39.7547L41.7107 13.8655H46.8395C49.3595 13.8655 50.4524 12.5262 50.4524 10.922C50.4524 9.31772 49.3604 7.99658 46.8398 7.99658ZM39.4553 10.869V8.52516H40.1764C40.9693 8.52516 41.322 9.07161 41.322 9.70616C41.322 10.3228 40.9693 10.869 40.1764 10.869H39.4553ZM46.8928 13.3188H46.7692C46.135 13.3188 46.0482 13.1604 46.0482 12.35V8.52516H46.8947C48.7274 8.52516 49.062 9.86449 49.062 10.9044C49.0604 11.9794 48.7256 13.3188 46.8928 13.3188Z" fill="#00749A"></path>
  <path d="M27.2773 11.5211L28.4931 7.92413C28.8458 6.88421 28.6872 6.58512 27.5592 6.58512V6.23368H30.8724V6.58638C29.7625 6.58638 29.4979 6.85035 29.0575 8.13701L27.0482 14.1646H26.819L25.0213 8.64678L23.1885 14.1646H22.9593L21.003 8.13701C20.5801 6.85161 20.2979 6.58638 19.2759 6.58638V6.23368H23.1885V6.58638C22.1476 6.58638 21.8655 6.83311 22.2367 7.92413L23.4174 11.5201L25.1972 6.23242H25.5336L27.2773 11.5211Z" fill="#00749A"></path>
  <path d="M33.2691 14.0944C31.3306 14.0944 29.7443 12.667 29.7443 10.922C29.7443 9.19451 31.3306 7.76709 33.2691 7.76709C35.2075 7.76709 36.7939 9.19451 36.7939 10.922C36.7939 12.667 35.2078 14.0944 33.2691 14.0944ZM33.2691 8.31385C31.6479 8.31385 31.0836 9.77607 31.0836 10.922C31.0836 12.0854 31.6479 13.5304 33.2691 13.5304C34.9084 13.5304 35.4724 12.0854 35.4724 10.922C35.4718 9.77607 34.9075 8.31385 33.2691 8.31385V8.31385Z" fill="#00749A"></path>
  <path d="M54.8058 13.5125V13.8649H50.7712V13.5125C51.9522 13.5125 52.1639 13.2128 52.1639 11.4502V8.63051C52.1639 6.86795 51.9522 6.58641 50.7712 6.58641V6.2334H54.4196C56.2345 6.2334 57.2412 7.16766 57.2412 8.4192C57.2412 9.63532 56.2379 10.5868 54.4196 10.5868H53.4163V11.4502C53.4132 13.2131 53.6242 13.5125 54.8058 13.5125ZM54.4177 6.86795H53.4145V9.93472H54.4177C55.4046 9.93472 55.863 9.2475 55.863 8.4192C55.863 7.57303 55.4049 6.86795 54.4177 6.86795Z" fill="#464342"></path>
  <path d="M69.3456 12.2088L69.2572 12.5261C69.1004 13.1076 68.9045 13.3189 67.6532 13.3189H67.4065C66.4901 13.3189 66.3315 13.1076 66.3315 11.8564V11.046C67.7062 11.046 67.8122 11.1692 67.8122 12.0856H68.147V9.46086H67.8122C67.8122 10.3773 67.7062 10.5008 66.3315 10.5008V8.52565H67.3005C68.5524 8.52565 68.7458 8.73727 68.9045 9.31884L68.9929 9.65367H69.275L69.1518 7.99707H63.9701V8.33221C64.957 8.33221 65.1157 8.54352 65.1157 9.79475V12.052C65.1157 13.1967 64.9812 13.4851 64.203 13.5255C63.4635 13.4124 62.9559 13.0092 62.2612 12.2452L61.4504 11.3639C62.543 11.1698 63.1246 10.4826 63.1246 9.70696C63.1246 8.7379 62.2963 7.9977 60.7453 7.9977H57.6434V8.33221C58.6301 8.33221 58.789 8.54384 58.789 9.79506V12.0523C58.789 13.3036 58.6304 13.5331 57.6434 13.5331V13.8657H61.1507V13.5309C60.1638 13.5309 60.0051 13.3017 60.0051 12.0502V11.4162H60.3048L62.2612 13.8657H69.5033L69.6089 12.2091L69.3456 12.2088ZM60.0048 10.8692V8.52534H60.7259C61.5194 8.52534 61.8718 9.07179 61.8718 9.70634C61.8718 10.323 61.5194 10.8692 60.7259 10.8692H60.0048Z" fill="#464342"></path>
  <path d="M72.9231 14.0942C72.2183 14.0942 71.6013 13.7239 71.3367 13.4947C71.2486 13.5832 71.0903 13.8474 71.0545 14.0942H70.72V11.662H71.0724C71.2135 12.8254 72.0242 13.5117 73.0638 13.5117C73.6282 13.5117 74.0862 13.1944 74.0862 12.6652C74.0862 12.2071 73.6811 11.8544 72.9576 11.5196L71.9543 11.0437C71.2492 10.7089 70.7207 10.1267 70.7207 9.35074C70.7207 8.50426 71.5138 7.78318 72.6064 7.78318C73.188 7.78318 73.6815 7.99512 73.9812 8.24154C74.0693 8.171 74.1574 7.97725 74.2104 7.76562H74.5452V9.84546H74.1749C74.0517 9.01685 73.5934 8.32963 72.6594 8.32963C72.1659 8.32963 71.7079 8.61179 71.7079 9.05259C71.7079 9.51063 72.0779 9.75737 72.924 10.1449L73.8928 10.6205C74.7393 11.0261 75.0738 11.6783 75.0738 12.2071C75.0738 13.317 74.1044 14.0926 72.9237 14.0926L72.9231 14.0942Z" fill="#464342"></path>
  <path d="M78.3512 14.0942C77.6461 14.0942 77.0291 13.7239 76.7652 13.4947C76.6767 13.5832 76.5184 13.8474 76.483 14.0942H76.1482V11.662H76.5005C76.6416 12.8254 77.4521 13.5117 78.492 13.5117C79.0563 13.5117 79.5143 13.1944 79.5143 12.6652C79.5143 12.2071 79.109 11.8544 78.3857 11.5196L77.3809 11.0437C76.6758 10.7089 76.1472 10.1267 76.1472 9.35074C76.1472 8.50426 76.9404 7.78318 78.033 7.78318C78.6146 7.78318 79.108 7.99512 79.4077 8.24154C79.4958 8.171 79.5839 7.97725 79.6366 7.76562H79.9717V9.84546H79.6018C79.4783 9.01685 79.0199 8.32963 78.086 8.32963C77.5925 8.32963 77.1342 8.61179 77.1342 9.05259C77.1342 9.51063 77.5044 9.75737 78.3503 10.1449L79.3193 10.6205C80.1658 11.0261 80.5 11.6783 80.5 12.2071C80.5 13.317 79.531 14.0926 78.3503 14.0926L78.3512 14.0942Z" fill="#464342"></path>
  <path d="M1.65082 9.93097C1.65082 13.0184 3.44505 15.6864 6.04688 16.9508L2.32612 6.75635C1.8802 7.75527 1.65009 8.83704 1.65082 9.93097V9.93097Z" fill="#00749A"></path>
  <path d="M14.7174 9.53746C14.7174 8.57341 14.3725 7.9072 14.0737 7.38645C13.6775 6.74375 13.3066 6.20044 13.3066 5.55711C13.3066 4.84042 13.8502 4.17296 14.6161 4.17296C14.6506 4.17296 14.6835 4.17734 14.7174 4.17923C13.8846 3.41654 12.8962 2.84381 11.8204 2.50064C10.7445 2.15747 9.60701 2.05205 8.48644 2.19167C7.36588 2.33128 6.289 2.71261 5.33028 3.30927C4.37155 3.90593 3.55385 4.70369 2.93372 5.6474C3.11681 5.65273 3.28955 5.65649 3.43533 5.65649C4.25047 5.65649 5.51423 5.55742 5.51423 5.55742C5.93465 5.53266 5.9845 6.15027 5.56439 6.19981C5.56439 6.19981 5.14147 6.24966 4.67151 6.27411L7.51193 14.7226L9.21869 9.60329L8.00352 6.27411C7.58372 6.24934 7.18588 6.19981 7.18588 6.19981C6.76546 6.17504 6.81468 5.53234 7.2351 5.55711C7.2351 5.55711 8.52301 5.65618 9.28954 5.65618C10.1047 5.65618 11.3681 5.55711 11.3681 5.55711C11.7889 5.53234 11.8384 6.14996 11.418 6.19981C11.418 6.19981 10.9947 6.24934 10.5254 6.27411L13.3442 14.6587L14.1217 12.0587C14.4594 10.9799 14.7174 10.2052 14.7174 9.53746Z" fill="#00749A"></path>
  <path d="M9.58737 10.6123L7.24731 17.4124C8.81863 17.8748 10.4956 17.8309 12.0406 17.287C12.0188 17.2529 12.0002 17.2169 11.9851 17.1794L9.58737 10.6123Z" fill="#00749A"></path>
  <path d="M16.2943 6.18848C16.33 6.4543 16.3478 6.72223 16.3476 6.99044C16.3476 7.78206 16.1996 8.6718 15.7544 9.78446L13.3714 16.6714C15.6914 15.3192 17.2499 12.807 17.2499 9.93087C17.2518 8.6228 16.9231 7.33546 16.2943 6.18848V6.18848Z" fill="#00749A"></path>
  <path d="M9.45037 0.838867C4.43731 0.838867 0.358521 4.91734 0.358521 9.93071C0.358521 14.9441 4.437 19.0226 9.45037 19.0226C14.4637 19.0226 18.5422 14.9444 18.5422 9.93071C18.5422 4.91703 14.4637 0.838867 9.45037 0.838867ZM9.45037 18.6059C4.66743 18.6059 0.775491 14.714 0.775491 9.93071C0.775491 5.14746 4.66711 1.25584 9.45037 1.25584C14.2336 1.25584 18.1252 5.14715 18.1252 9.93071C18.1252 14.7143 14.2336 18.6059 9.45037 18.6059Z" fill="#00749A"></path>
</svg>
