<?xml version="1.0" encoding="UTF-8"?>
<svg xmlns="http://www.w3.org/2000/svg" width="50" height="50" viewBox="0 0 50 50" fill="none">
  <path fill-rule="evenodd" clip-rule="evenodd" d="M12.4519 40.8424V27.1615H18.6043C21.2139 27.6298 23.82 29.0418 26.4296 30.6863H31.2092C33.3719 30.815 34.5052 33.0099 32.4032 34.4506C30.7266 35.6803 28.5173 35.6088 26.2508 35.4051C24.6886 35.3264 24.6207 37.4284 26.2508 37.4356C26.8157 37.4785 27.4305 37.3462 27.9703 37.3462C30.7981 37.3426 33.1289 36.8028 34.5552 34.5685L35.2738 32.8955L42.3841 29.3707C45.9411 28.1982 48.4685 31.9196 45.8482 34.5078C40.7004 38.2542 35.4168 41.3357 30.0152 43.8274C26.0936 46.2118 22.1684 46.1332 18.2468 43.8274L12.4519 40.8424ZM35.3095 4.85081C39.5814 6.62036 42.3806 10.7886 42.3806 15.436C42.3806 18.5997 41.0972 21.4632 39.0273 23.5366C36.9539 25.61 34.0905 26.8934 30.9267 26.8934C27.7666 26.8934 24.9031 25.61 22.8297 23.5366C20.7563 21.4632 19.4729 18.5997 19.4729 15.436C19.4729 10.8244 22.34 6.52384 26.6012 4.77574C29.243 3.69613 32.682 3.76405 35.3095 4.85081ZM29.1679 15.1321C29.3109 14.9748 29.4861 14.8425 29.672 14.7389V9.7555C29.672 9.24787 30.0831 8.83676 30.5907 8.83676C31.0983 8.83676 31.513 9.24787 31.513 9.7555V14.7389C31.8491 14.9212 32.1243 15.1965 32.3066 15.5325H36.0853C36.5929 15.5325 37.004 15.9436 37.004 16.4512C37.004 16.9589 36.5929 17.37 36.0853 17.37H32.3066C31.9778 17.9813 31.3343 18.3959 30.5943 18.3959C30.0116 18.3959 29.4897 18.1386 29.1322 17.731C28.4708 16.9767 28.4994 15.8506 29.1679 15.1321ZM37.7261 8.81531C32.9823 4.07149 24.9782 5.41206 22.2041 11.3892C21.6321 12.6189 21.314 13.9882 21.314 15.436C21.314 18.0921 22.39 20.4944 24.1274 22.2353C25.8683 23.9763 28.2706 25.0523 30.9267 25.0523C33.5829 25.0523 35.9887 23.9727 37.7261 22.2318C39.4671 20.4944 40.5431 18.0885 40.5431 15.4324C40.5431 13.9274 40.1963 12.501 39.5779 11.2319C39.1096 10.2738 38.484 9.57318 37.7261 8.81531ZM3 25.8459H10.6001V42.2151H3V25.8459Z" fill="url(#paint0_linear_10302_19897)"></path>
  <defs>
    <linearGradient id="paint0_linear_10302_19897" x1="-11.1896" y1="17.4327" x2="15.0449" y2="60.3307" gradientUnits="userSpaceOnUse">
      <stop stop-color="#00CFDE"></stop>
      <stop offset="1" stop-color="#05A660"></stop>
    </linearGradient>
  </defs>
</svg>
