<?xml version="1.0" standalone="no"?>
<!DOCTYPE svg PUBLIC "-//W3C//DTD SVG 20010904//EN"
 "http://www.w3.org/TR/2001/REC-SVG-20010904/DTD/svg10.dtd">
<svg version="1.0" xmlns="http://www.w3.org/2000/svg"
 width="1920.000000pt" height="1280.000000pt" viewBox="0 0 1920.000000 1280.000000"
 preserveAspectRatio="xMidYMid meet">

<g transform="translate(0.000000,1280.000000) scale(0.100000,-0.100000)"
fill="#000000" stroke="none">
<path d="M12264 11573 c-424 -756 -826 -1394 -1289 -2048 -120 -169 -369 -513
-406 -560 -4 -6 26 -55 70 -116 l78 -106 399 -12 c219 -7 402 -16 406 -19 6
-7 -73 -339 -86 -360 -3 -5 -19 -12 -35 -15 -40 -8 -62 -35 -106 -126 -42 -87
-45 -89 -175 -116 -47 -9 -155 -40 -240 -68 l-155 -50 -124 12 c-199 19 -431
64 -431 84 0 5 20 30 45 54 41 41 48 45 80 39 43 -8 70 5 91 45 24 46 2 59
-24 15 -20 -34 -24 -36 -74 -36 -50 0 -54 -2 -102 -52 l-49 -53 -70 72 c-65
68 -69 75 -59 98 6 14 16 25 21 25 6 0 26 14 46 31 27 24 39 29 48 20 10 -10
47 -16 47 -7 0 3 -14 19 -31 36 -17 17 -28 34 -24 38 3 4 13 -1 20 -12 18 -24
39 -12 25 14 -11 21 0 33 23 24 18 -7 47 47 46 85 0 14 -3 20 -6 14 -2 -7 -9
-13 -15 -13 -12 0 -38 -26 -38 -38 0 -5 -11 -7 -24 -5 -43 9 -65 -12 -68 -64
-3 -41 -8 -50 -37 -70 -18 -12 -37 -20 -41 -18 -5 3 -11 -1 -13 -7 -3 -8 -6
-6 -6 5 -1 10 -5 15 -11 12 -6 -4 -7 1 -3 11 4 11 2 15 -4 11 -6 -4 -15 -1
-21 6 -14 17 1 42 19 32 11 -6 12 -5 2 6 -10 10 -16 10 -24 2 -15 -15 -40 15
-57 66 -23 67 -9 183 20 165 6 -4 8 -3 4 4 -3 6 2 16 11 22 17 11 17 11 -1 6
-16 -6 -17 -4 -6 9 7 9 19 14 27 11 8 -3 11 -1 8 4 -3 5 25 23 62 41 65 30 71
30 128 20 33 -6 74 -13 92 -16 49 -8 78 -21 108 -49 21 -20 24 -26 11 -26 -12
0 -16 -9 -16 -37 0 -27 -3 -34 -9 -23 -6 8 -7 18 -4 23 3 5 -4 4 -16 -2 -11
-7 -21 -15 -22 -19 -3 -32 -12 -60 -25 -80 -21 -32 -13 -37 38 -23 24 7 50 13
57 15 24 5 24 26 1 26 -19 0 -21 2 -9 16 11 14 13 14 21 0 13 -24 28 -19 28 8
0 14 5 28 10 31 21 13 10 64 -20 99 -32 36 -110 78 -138 75 -10 -1 -24 1 -32
4 -8 3 -42 11 -74 17 -62 13 -71 10 -195 -49 -102 -49 -139 -196 -79 -316 36
-72 93 -154 106 -154 7 -1 10 -6 7 -11 -4 -6 -11 -8 -16 -4 -5 3 -21 -1 -34
-10 -13 -9 -37 -16 -52 -16 -72 0 -238 -112 -343 -232 -82 -93 -174 -237 -245
-383 -145 -301 -215 -453 -215 -466 0 -8 -13 -46 -30 -86 -61 -145 -131 -517
-150 -798 -16 -241 -33 -344 -94 -576 -73 -271 -95 -385 -106 -537 -8 -117
-15 -389 -11 -472 2 -58 -8 -88 -32 -92 -27 -4 -45 -62 -54 -170 l-6 -77 59
-28 c50 -24 63 -36 84 -78 17 -33 36 -56 58 -67 19 -9 36 -19 39 -22 6 -6 14
1 -147 -146 -1220 -1119 -2770 -2029 -4550 -2673 -409 -148 -1090 -367 -1141
-367 -28 0 -75 -26 -83 -45 -3 -9 -6 -128 -6 -265 0 -229 1 -250 19 -271 l19
-24 1699 -3 1698 -2 155 126 c1083 886 2185 2014 3170 3244 441 551 744 966
962 1316 l103 166 26 -139 c35 -180 83 -368 117 -457 32 -84 53 -105 227 -230
91 -65 130 -99 129 -112 -1 -11 -11 -107 -22 -214 -47 -425 -76 -1052 -52
-1109 18 -45 44 -40 66 11 13 31 19 81 23 183 l6 140 13 -72 c15 -89 8 -126
-145 -748 -123 -502 -131 -548 -121 -669 17 -198 181 -1054 205 -1073 13 -10
9 -19 -33 -67 -47 -53 -74 -69 -195 -119 -78 -32 -104 -100 -52 -134 36 -24
231 -24 313 -1 30 9 81 18 114 21 87 9 98 22 92 123 -6 101 -22 164 -41 164
-17 0 -20 31 -5 46 17 17 -8 637 -37 935 -19 193 -19 191 67 342 98 171 161
262 171 246 4 -9 34 -85 65 -170 32 -86 97 -233 150 -334 177 -343 254 -532
315 -774 21 -85 43 -158 50 -161 7 -5 -13 -33 -55 -77 -56 -59 -77 -73 -142
-98 -91 -35 -134 -71 -134 -112 0 -48 33 -58 179 -58 90 1 142 6 180 18 30 9
75 17 101 17 72 0 90 19 90 94 0 93 -16 168 -41 189 -19 15 -20 20 -9 47 15
36 5 160 -36 450 -33 235 -51 302 -143 531 -88 217 -100 265 -103 389 -2 131
11 576 18 595 9 21 -7 106 -67 377 -27 119 -53 256 -59 303 -6 51 -10 229 -8
438 3 347 3 353 -20 401 -12 27 -40 68 -62 92 -22 24 -40 54 -40 66 0 13 -7
36 -15 52 -8 15 -15 42 -15 60 1 29 6 34 83 70 141 68 210 154 210 260 0 59
-8 78 -67 156 -52 70 -60 76 -123 95 -29 9 -53 19 -53 23 0 11 -70 34 -121 39
-41 4 -50 1 -82 -27 -20 -17 -39 -45 -42 -63 -4 -18 -11 -37 -16 -42 -4 -6 -7
-22 -5 -35 3 -31 51 -86 61 -70 4 7 -5 25 -21 41 -27 28 -27 29 -8 50 10 11
27 25 36 30 16 9 18 4 17 -53 -1 -94 5 -146 19 -160 6 -6 12 -20 12 -29 0 -10
8 -20 18 -22 16 -4 16 -5 0 -6 -10 0 -18 -8 -18 -16 0 -12 7 -14 28 -9 24 7
26 6 13 -9 -7 -10 -26 -17 -42 -17 -19 0 -29 -5 -29 -15 0 -8 7 -15 15 -15 8
0 21 -15 28 -33 8 -17 25 -45 39 -62 22 -26 24 -36 19 -75 -5 -38 -10 -44 -26
-41 -11 2 -58 11 -105 21 l-84 17 -2 37 c-1 52 -21 83 -65 100 -40 16 -42 21
-39 70 1 20 -2 27 -12 24 -8 -3 -13 -21 -13 -49 0 -40 3 -45 35 -61 45 -22 60
-35 60 -54 0 -40 -130 73 -220 191 -53 71 -78 119 -160 311 -66 156 -123 266
-154 297 -31 31 -37 56 -21 88 9 17 14 37 11 45 -3 8 38 101 90 207 347 691
636 1452 848 2226 52 189 135 525 153 621 l9 45 109 -3 c61 -2 234 -7 385 -12
151 -6 299 -10 329 -10 l54 0 -6 293 c-14 651 -73 1118 -233 1842 -48 220
-165 688 -186 747 -9 26 -35 55 -88 98 -41 33 -78 60 -82 60 -3 0 -41 -62 -84
-137z m95 5 c32 -136 133 -588 141 -633 5 -27 19 -95 30 -150 20 -96 29 -145
70 -377 63 -354 133 -984 155 -1400 6 -110 5 -118 -12 -118 -10 0 -119 5 -243
10 -271 11 -519 15 -526 8 -3 -3 -25 -82 -49 -174 -100 -386 -241 -837 -393
-1254 -33 -91 -65 -176 -70 -190 -6 -14 -40 -99 -76 -190 -81 -207 -203 -492
-303 -708 -83 -180 -270 -559 -286 -579 -7 -9 -14 -10 -29 -2 -16 8 -24 8 -35
-4 -13 -12 -12 -19 1 -52 l16 -37 -40 36 c-22 20 -48 36 -59 36 -21 0 -45 -23
-34 -33 3 -4 -4 -7 -16 -7 -29 0 -36 -22 -17 -57 13 -27 13 -30 -5 -41 -29
-18 -23 -35 26 -81 24 -22 40 -41 35 -41 -6 0 -9 -4 -7 -8 3 -11 -220 -385
-332 -554 -49 -76 -125 -183 -168 -239 -43 -55 -87 -113 -98 -128 -123 -164
-680 -817 -969 -1136 -522 -576 -1148 -1209 -1561 -1580 -60 -55 -112 -102
-115 -105 -62 -67 -550 -470 -775 -639 -260 -196 -282 -209 -335 -206 -25 2
-740 4 -1590 5 l-1545 2 110 34 c1003 317 1725 602 2515 995 343 170 686 355
895 482 893 542 1509 1003 2177 1630 39 36 43 37 114 37 61 0 78 4 94 20 26
26 26 72 0 95 -11 10 -19 22 -18 26 2 4 78 85 169 180 237 249 423 459 598
677 71 88 76 92 113 92 22 0 53 -7 70 -16 39 -20 298 -32 341 -15 22 9 27 17
27 47 0 50 -40 88 -109 103 -48 10 -111 43 -119 63 -2 4 -14 23 -27 43 l-24
35 72 103 c359 505 689 1084 927 1628 l73 166 59 0 c33 -1 63 4 70 11 20 20
-4 46 -51 56 -42 9 -55 31 -23 40 9 2 36 8 60 11 49 8 74 28 69 58 -4 33 -16
47 -39 47 l-21 0 21 23 c28 29 28 57 1 64 -25 7 -25 7 35 178 25 72 46 137 46
145 0 8 20 28 44 44 24 16 52 43 61 60 10 17 31 45 48 63 32 34 31 61 -3 70
-19 5 -18 6 6 25 33 26 48 66 33 84 -6 8 -27 14 -46 14 -32 0 -35 2 -29 23 19
66 97 391 107 448 7 37 9 73 6 82 -7 19 -108 25 -740 43 -169 5 -227 10 -224
18 3 7 36 55 73 107 92 127 421 589 437 613 6 10 25 37 41 60 141 197 534 806
694 1076 142 238 308 523 378 647 43 79 82 143 85 143 3 0 11 -24 18 -52z
m-944 -3308 c-10 -11 -21 -18 -23 -15 -3 3 3 12 14 20 27 20 30 18 9 -5z m5
-59 c-10 -22 -25 -41 -32 -43 -15 -5 -1 -28 18 -28 9 0 30 16 47 35 17 19 35
35 41 35 5 0 0 -10 -11 -22 -11 -13 -28 -37 -37 -54 -13 -28 -102 -94 -124
-94 -4 0 -15 18 -25 40 l-18 39 31 61 31 62 39 -6 c22 -3 41 -2 45 4 16 26 13
5 -5 -29z m-1417 -27 c52 -41 131 -138 125 -154 -2 -7 -27 16 -56 49 -29 33
-73 75 -97 92 -24 18 -42 36 -39 40 9 15 19 11 67 -27z m-46 -32 c62 -50 128
-123 274 -303 137 -170 122 -160 389 -240 96 -28 187 -58 203 -65 27 -14 27
-15 12 -52 -28 -67 -46 -75 -156 -68 -110 7 -299 38 -377 61 -40 12 -85 42
-180 119 -70 56 -153 119 -184 140 -58 39 -127 68 -140 59 -17 -10 -6 -19 42
-36 52 -19 230 -144 230 -163 0 -6 -43 -64 -96 -130 -161 -200 -175 -224 -219
-399 -22 -86 -24 -90 -56 -98 -49 -13 -323 -1 -398 18 -84 20 -179 71 -196
105 -16 30 -11 43 124 325 189 395 289 542 453 668 139 107 198 119 275 59z
m1316 -81 c18 -31 22 -67 9 -75 -10 -6 -53 90 -44 98 10 11 18 6 35 -23z m-49
-30 c28 -62 20 -81 -52 -119 -67 -36 -342 -139 -427 -162 -28 -7 -126 -14
-221 -16 l-170 -4 -97 119 c-69 85 -97 128 -97 147 0 23 3 26 28 21 235 -43
401 -68 471 -69 77 -2 101 3 219 41 161 51 268 80 303 80 21 1 29 -7 43 -38z
m58 -192 c-63 -183 -62 -179 -77 -179 -7 0 -27 -3 -45 -7 -22 -4 -31 -3 -27 5
11 17 -3 42 -24 42 -10 0 -26 -12 -35 -27 -10 -16 -48 -57 -85 -92 l-68 -63
-53 25 c-29 14 -100 39 -158 57 -58 17 -154 48 -215 68 l-110 37 180 6 c196 6
179 3 424 94 157 58 233 96 290 144 25 22 47 38 49 36 2 -1 -19 -67 -46 -146z
m-19 -200 c-5 -5 -39 -17 -74 -25 -35 -8 -71 -21 -79 -29 -9 -8 -22 -15 -29
-15 -7 0 -11 -6 -8 -12 2 -7 13 -12 23 -11 140 13 143 13 62 -3 -89 -18 -107
-40 -25 -31 28 3 75 8 102 11 l50 6 -55 -13 c-69 -17 -143 -54 -137 -70 2 -7
26 -20 53 -29 57 -19 44 -23 -22 -7 -38 10 -53 9 -107 -10 -67 -22 -112 -27
-121 -12 -12 19 37 103 86 149 28 26 55 46 61 44 5 -1 21 5 35 14 15 10 60 25
102 34 94 22 96 22 83 9z m-1096 -119 c41 -31 90 -58 128 -69 78 -24 284 -59
394 -66 46 -3 91 -9 100 -14 9 -5 50 -11 91 -14 59 -4 88 -1 130 14 54 19 100
25 100 13 0 -4 -32 -78 -70 -166 -230 -519 -458 -931 -782 -1413 -228 -338
-232 -344 -240 -344 -11 -1 -10 26 2 47 5 9 16 64 25 121 22 150 74 388 166
758 43 177 79 339 79 360 -1 132 -108 189 -399 214 -69 6 -127 12 -128 13 -6
6 52 208 72 251 20 42 250 345 262 345 2 0 34 -23 70 -50z m733 -30 c0 -17
-37 -85 -54 -99 -28 -24 -36 -1 -11 35 13 20 27 44 30 55 7 20 35 27 35 9z
m-1050 -996 c-6 -14 -17 -67 -26 -117 -33 -191 -27 -876 7 -898 9 -5 7 -24 -9
-73 -26 -79 -29 -148 -6 -170 19 -19 20 -17 -85 -146 -196 -240 -375 -440
-605 -677 l-138 -143 -30 18 c-38 22 -53 51 -66 131 -7 38 -22 80 -37 101 -20
29 -24 44 -19 71 4 19 12 41 19 49 7 8 52 197 100 418 47 222 98 436 112 475
14 40 67 155 118 257 52 102 112 230 135 285 59 138 141 312 172 361 21 33 36
44 73 54 56 16 146 27 232 29 l63 1 -10 -26z m970 -815 c27 -69 65 -119 91
-119 25 0 24 -4 -11 -61 -16 -27 -32 -59 -36 -73 -5 -19 -13 -25 -45 -28 -34
-3 -39 -1 -39 17 0 33 -35 80 -102 135 -77 64 -90 88 -21 37 58 -43 63 -44 63
-18 0 11 -25 47 -56 80 -73 79 -56 79 21 1 33 -33 63 -60 67 -60 23 0 2 45
-43 95 -29 30 -49 58 -47 61 3 3 33 -26 67 -63 48 -53 63 -65 73 -55 10 10 8
22 -6 60 -10 26 -20 56 -23 67 -10 37 24 -17 47 -76z m-840 -224 c0 -33 -17
-39 -65 -22 -54 19 -55 35 -3 40 24 2 49 4 56 5 7 1 12 -9 12 -23z m943 -17
c-21 -23 -34 -23 -26 0 11 32 25 44 34 30 5 -7 1 -20 -8 -30z m-45 -85 c3 -19
-1 -23 -22 -23 -13 0 -36 -4 -50 -10 -24 -9 -26 -7 -26 16 0 45 92 61 98 17z
m892 -176 c14 -6 28 -10 33 -9 4 1 7 -2 7 -7 0 -5 -3 -11 -7 -14 -5 -2 -2 -2
6 0 8 2 20 -6 28 -17 8 -11 19 -20 25 -20 7 0 3 7 -8 16 -10 8 -14 13 -8 10 6
-3 26 -8 45 -11 46 -7 124 -93 116 -127 -5 -16 -3 -17 11 -6 9 7 13 8 9 2 -4
-7 0 -17 8 -24 19 -16 14 -94 -9 -139 -23 -43 -76 -102 -87 -95 -5 3 -9 0 -9
-5 0 -15 -62 -39 -93 -36 -20 2 -24 0 -20 -13 5 -14 3 -15 -8 -4 -19 17 -34
15 -19 -3 7 -8 10 -15 6 -15 -7 0 -55 75 -58 92 -2 7 3 12 10 10 6 -1 11 1 10
5 -1 5 5 19 14 33 10 15 14 36 11 53 -5 28 -36 53 -52 43 -19 -12 -30 38 -35
164 -4 99 -4 100 -28 100 -21 0 -21 1 -5 18 16 15 19 15 27 2 8 -13 10 -12 10
3 0 19 11 18 70 -6z m80 -491 c0 -3 -4 -8 -10 -11 -5 -3 -10 -1 -10 4 0 6 5
11 10 11 6 0 10 -2 10 -4z m-3065 -46 c22 -8 25 -16 25 -54 0 -40 -3 -46 -37
-66 l-36 -21 -24 23 c-22 22 -22 26 -11 81 13 63 14 63 83 37z m2867 -101 c51
-11 103 -22 116 -25 18 -3 22 -11 22 -39 l0 -34 -67 28 c-38 16 -98 36 -135
46 -42 11 -68 23 -68 31 0 19 22 18 132 -7z m-367 -615 c4 -269 11 -428 31
-696 6 -75 4 -88 -9 -88 -8 0 -17 7 -20 14 -10 26 -30 902 -22 991 4 47 9 85
11 82 2 -2 6 -138 9 -303z m-64 -437 c-6 -81 -11 -210 -11 -286 0 -123 -11
-236 -25 -249 -16 -16 -17 34 -6 275 12 287 14 307 33 543 l13 155 3 -145 c2
-80 -2 -211 -7 -293z m1089 -2697 c0 -17 -42 -22 -68 -9 l-25 14 39 5 c42 6
54 4 54 -10z m-960 -104 c0 -19 -39 -31 -53 -17 -7 7 -3 13 14 20 34 14 39 13
39 -3z"/>
<path d="M11711 5164 c0 -11 3 -14 6 -6 3 7 2 16 -1 19 -3 4 -6 -2 -5 -13z"/>
<path d="M11726 5043 c-6 -15 -8 -15 -16 -3 -7 11 -9 10 -7 -7 1 -15 5 -19 13
-13 6 6 13 8 15 5 3 -2 5 5 6 15 2 25 -3 26 -11 3z"/>
<path d="M11720 5000 c0 -5 5 -10 11 -10 5 0 7 5 4 10 -3 6 -8 10 -11 10 -2 0
-4 -4 -4 -10z"/>
<path d="M11725 4939 c-4 -6 -5 -12 -2 -15 2 -3 7 2 10 11 7 17 1 20 -8 4z"/>
<path d="M11800 4930 c0 -5 5 -10 11 -10 5 0 7 5 4 10 -3 6 -8 10 -11 10 -2 0
-4 -4 -4 -10z"/>
<path d="M11748 4918 c5 -5 16 -8 23 -6 8 3 3 7 -10 11 -17 4 -21 3 -13 -5z"/>
<path d="M11790 4896 c0 -8 4 -17 9 -20 5 -4 7 3 4 14 -6 23 -13 26 -13 6z"/>
<path d="M11822 4885 c0 -16 2 -22 5 -12 2 9 2 23 0 30 -3 6 -5 -1 -5 -18z"/>
<path d="M13106 8698 c-27 -134 -52 -227 -81 -296 -28 -69 -31 -83 -17 -80 44
9 154 398 112 398 -5 0 -12 -10 -14 -22z"/>
<path d="M10246 8688 c4 -5 13 -7 21 -4 8 3 24 1 36 -5 18 -9 20 -9 10 1 -14
15 -75 22 -67 8z"/>
<path d="M10266 8661 c-4 -5 3 -7 14 -4 23 6 26 13 6 13 -8 0 -17 -4 -20 -9z"/>
<path d="M13026 8629 c-25 -76 -56 -233 -48 -241 7 -7 17 11 30 53 32 105 45
180 33 192 -7 7 -12 6 -15 -4z"/>
<path d="M10169 8539 c-8 -16 -8 -24 1 -33 8 -8 10 -7 5 5 -3 9 1 24 10 33 9
9 12 16 6 16 -6 0 -15 -9 -22 -21z"/>
<path d="M10216 8551 c-3 -4 6 -7 19 -7 14 0 22 2 19 5 -8 8 -34 10 -38 2z"/>
<path d="M10374 8455 c-4 -10 3 -29 15 -46 14 -19 20 -37 16 -49 -4 -14 -2
-20 9 -20 27 0 31 48 7 74 -11 12 -21 27 -21 34 0 19 -20 24 -26 7z"/>
<path d="M10325 8450 c-7 -12 2 -30 16 -30 5 0 9 9 9 20 0 21 -15 27 -25 10z"/>
<path d="M10047 8389 c7 -7 15 -10 18 -7 3 3 -2 9 -12 12 -14 6 -15 5 -6 -5z"/>
<path d="M9985 8380 c-3 -6 1 -7 9 -4 18 7 21 14 7 14 -6 0 -13 -4 -16 -10z"/>
<path d="M10332 8308 c3 -7 19 -14 37 -16 23 -2 32 0 29 9 -2 6 -19 13 -37 15
-23 3 -31 0 -29 -8z"/>
<path d="M11515 5010 c-4 -6 -22 -17 -41 -25 -29 -12 -35 -19 -32 -40 3 -29
21 -35 26 -8 2 10 17 25 35 33 18 8 33 23 35 33 4 18 -13 24 -23 7z"/>
<path d="M11553 4975 c-3 -9 -3 -18 0 -21 9 -9 27 6 27 22 0 19 -19 18 -27 -1z"/>
<path d="M11440 4876 c0 -17 45 -40 61 -30 14 9 11 21 -8 27 -10 2 -26 8 -35
12 -13 5 -18 2 -18 -9z"/>
<path d="M9729 3609 c-61 -77 -138 -193 -133 -201 10 -16 22 -6 59 50 21 31
58 83 83 115 29 39 41 62 35 68 -7 7 -22 -4 -44 -32z"/>
<path d="M9738 3498 c-146 -164 -198 -226 -198 -237 0 -23 26 -8 64 37 21 26
82 96 135 156 104 117 110 126 88 126 -8 0 -48 -37 -89 -82z"/>
</g>
</svg>
