<svg xmlns:xlink="http://www.w3.org/1999/xlink" xmlns="http://www.w3.org/2000/svg" width="34" height="25" viewBox="0 0 34 25" fill="none">
  <g clip-path="url(#clip0_30_15760)">
    <path d="M0.960938 0.707031H33.1979V24.8848H0.960938V0.707031Z" fill="#012169"/>
    <path d="M4.73871 0.707031L17.029 9.82405L29.269 0.707031H33.1979V3.82999L21.109 12.8463L33.1979 21.8122V24.8848H29.1683L17.0794 15.8685L5.04093 24.8848H0.960938V21.8625L12.9994 12.8966L0.960938 3.93073V0.707031H4.73871Z" fill="white"/>
    <path d="M22.3179 14.8611L33.1979 22.8699V24.8848L19.5476 14.8611H22.3179ZM13.0498 15.8685L13.352 17.6314L3.68093 24.8848H0.960938L13.0498 15.8685ZM33.1979 0.707031V0.858142L20.6557 10.3277L20.7564 8.11146L30.6794 0.707031H33.1979ZM0.960938 0.707031L12.9994 9.5722H9.97721L0.960938 2.82258V0.707031Z" fill="#C8102E"/>
    <path d="M13.1002 0.707031V24.8848H21.1594V0.707031H13.1002ZM0.960938 8.76627V16.8255H33.1979V8.76627H0.960938Z" fill="white"/>
    <path d="M0.960938 10.4285V15.264H33.1979V10.4285H0.960938ZM14.712 0.707031V24.8848H19.5476V0.707031H14.712Z" fill="#C8102E"/>
    <path d="M-1.22852 0.591797H35.3855V25.0006H-1.22852V0.591797Z" fill="#FFDA44"/>
    <path d="M-1.22852 0.591797H10.9759V25.0014H-1.22852V0.591797Z" fill="black"/>
    <path d="M23.1807 0.591797H35.3851V25.0014H23.1807V0.591797Z" fill="#D80027"/>
  </g>
  <defs>
    <clipPath id="clip0_30_15760">
      <rect width="32.237" height="24.1777" fill="white" transform="translate(0.960449 0.707031)"/>
    </clipPath>
  </defs>
</svg>