<svg xmlns:xlink="http://www.w3.org/1999/xlink" xmlns="http://www.w3.org/2000/svg" width="41" height="30" viewBox="0 0 41 30" fill="none">
  <g clip-path="url(#clip0_22_18068)">
    <path d="M0.25 0H40.25V30H0.25V0Z" fill="#21468B"/>
    <path d="M0.25 0H40.25V20H0.25V0Z" fill="white"/>
    <path d="M0.25 0H40.25V10H0.25V0Z" fill="#AE1C28"/>
    <g clip-path="url(#clip1_22_18068)">
      <path d="M42.9282 30.3878H-2.42782C-2.64263 30.3878 -2.84864 30.3024 -3.00053 30.1505C-3.15243 29.9986 -3.23777 29.7926 -3.23779 29.5778V0.42032C-3.23777 0.20551 -3.15243 -0.000494033 -3.00053 -0.152387C-2.84864 -0.304281 -2.64263 -0.389624 -2.42782 -0.389648H42.9283C43.1431 -0.389624 43.3491 -0.304281 43.501 -0.152387C43.6529 -0.000494033 43.7383 0.20551 43.7383 0.42032V29.5778C43.7382 29.7926 43.6529 29.9986 43.501 30.1505C43.3491 30.3024 43.143 30.3878 42.9282 30.3878Z" fill="#41479B"/>
      <path d="M-3.23779 5.28027H43.7382V24.7184H-3.23779V5.28027Z" fill="#F5F5F5"/>
      <path d="M24.459 14.9993L26.5631 11.3549H22.355L20.2505 7.70996L18.1461 11.3549H13.938L16.0421 14.9993L13.938 18.6437H18.1461L20.2505 22.2887L22.3549 18.6437H26.563L24.459 14.9993ZM24.4987 12.5468L23.7709 13.8075L23.043 12.5468H24.4987ZM23.0827 14.9993L21.6667 17.4518H18.8341L17.4183 14.9993L18.8342 12.5468H21.6668L23.0827 14.9993ZM20.2505 10.0938L20.9786 11.355H19.5224L20.2505 10.0938ZM16.0023 12.5468H17.4579L16.73 13.8075L16.0023 12.5468ZM16.0023 17.4518L16.7301 16.1912L17.458 17.4518H16.0023ZM20.2505 19.9048L19.5224 18.6436H20.9786L20.2505 19.9048ZM23.7709 16.1912L24.4987 17.4518H23.0431L23.7709 16.1912Z" fill="#41479B"/>
    </g>
  </g>
  <defs>
    <clipPath id="clip0_22_18068">
      <rect width="40" height="30" fill="white" transform="translate(0.25)"/>
    </clipPath>
    <clipPath id="clip1_22_18068">
      <rect width="46.9761" height="46.9761" fill="white" transform="translate(-3.23779 -8.48828)"/>
    </clipPath>
  </defs>
</svg>