<svg xmlns:xlink="http://www.w3.org/1999/xlink" xmlns="http://www.w3.org/2000/svg" width="41" height="30" viewBox="0 0 41 30" fill="none">
  <g clip-path="url(#clip0_22_16908)">
    <path d="M1.75 0H41.75V30H1.75V0Z" fill="#000066"/>
    <path fill-rule="evenodd" clip-rule="evenodd" d="M18.9867 24.5314L16.2555 24.7689L16.6305 27.4814L14.7492 25.5002L12.868 27.4814L13.243 24.7689L10.5117 24.5314L12.868 23.1377L11.3492 20.8564L13.9117 21.8252L14.7492 19.2189L15.593 21.8252L18.1555 20.8564L16.6367 23.1377M30.6617 27.0314L29.9992 26.0439L31.1117 26.4627L31.4742 25.3314L31.8367 26.4627L32.9492 26.0439L32.293 27.0314L33.318 27.6377L32.1305 27.7439L32.293 28.9252L31.4805 28.0564L30.6555 28.9252L30.818 27.7439L29.6305 27.6439M30.6555 9.4002L29.9992 8.4127L31.1117 8.83145L31.4742 7.7002L31.8367 8.83145L32.9492 8.4127L32.293 9.4002L33.318 10.0127L32.1305 10.1127L32.293 11.2939L31.4805 10.4314L30.6555 11.2877L30.818 10.1127L29.6305 10.0127M24.0492 16.5627L23.393 15.5752L24.5055 15.9939L24.868 14.8627L25.2367 15.9939L26.3492 15.5752L25.6867 16.5627L26.7117 17.1689L25.5242 17.2752L25.693 18.4564L24.868 17.5877L24.0555 18.4564L24.2117 17.2752L23.0242 17.1752M36.543 14.8002L35.8742 13.8127L36.9867 14.2314L37.3492 13.1002L37.718 14.2314L38.8305 13.8127L38.1742 14.8002L39.193 15.4064L38.0055 15.5127L38.168 16.6877L37.3555 15.8252L36.5305 16.6877L36.693 15.5127L35.5055 15.4064M34.1242 20.0002L33.4805 20.4064L33.6617 19.6627L33.0805 19.1752L33.8367 19.1127L34.1242 18.4127L34.418 19.1189L35.1742 19.1752L34.593 19.6627L34.7742 20.4064" fill="white"/>
    <path d="M0.25 0H20.25V15H0.25V0Z" fill="#000066"/>
    <path d="M2.59375 0L10.2188 5.65625L17.8125 0H20.25V1.9375L12.75 7.53125L20.25 13.0938V15H17.75L10.25 9.40625L2.78125 15H0.25V13.125L7.71875 7.5625L0.25 2V0H2.59375Z" fill="white"/>
    <path d="M13.5 8.78125L20.25 13.75V15L11.7812 8.78125H13.5ZM7.75 9.40625L7.9375 10.5L1.9375 15H0.25L7.75 9.40625ZM20.25 0V0.09375L12.4688 5.96875L12.5312 4.59375L18.6875 0H20.25ZM0.25 0L7.71875 5.5H5.84375L0.25 1.3125V0Z" fill="#C8102E"/>
    <path d="M7.78125 0V15H12.7812V0H7.78125ZM0.25 5V10H20.25V5H0.25Z" fill="white"/>
    <path d="M0.25 6.03125V9.03125H20.25V6.03125H0.25ZM8.78125 0V15H11.7812V0H8.78125Z" fill="#C8102E"/>
    <g clip-path="url(#clip1_22_16908)">
      <path d="M0.25 -0.363281H46.3457V30.3675H0.25V-0.363281Z" fill="#D80027"/>
      <path d="M17.5359 -0.364258H11.7739V12.1199H0.25V17.8819H11.7739V30.3661H17.5359V17.8819H46.3457V12.1199H17.5359V-0.364258Z" fill="#F0F0F0"/>
    </g>
  </g>
  <defs>
    <clipPath id="clip0_22_16908">
      <rect width="40" height="30" fill="white" transform="translate(0.25)"/>
    </clipPath>
    <clipPath id="clip1_22_16908">
      <rect width="46.0957" height="46.0957" fill="white" transform="translate(0.25 -8.04785)"/>
    </clipPath>
  </defs>
</svg>