<svg xmlns:xlink="http://www.w3.org/1999/xlink" xmlns="http://www.w3.org/2000/svg" width="33" height="25" viewBox="0 0 33 25" fill="none">
  <g clip-path="url(#clip0_30_16987)">
    <path d="M0.487305 0.0615234H32.7243V24.2392H0.487305V0.0615234Z" fill="#012169"/>
    <path d="M4.26507 0.0615234L16.5554 9.17854L28.7954 0.0615234H32.7243V3.18448L20.6354 12.2008L32.7243 21.1667V24.2392H28.6946L16.6058 15.223L4.5673 24.2392H0.487305V21.217L12.5258 12.2511L0.487305 3.28522V0.0615234H4.26507Z" fill="white"/>
    <path d="M21.8443 14.2156L32.7243 22.2244V24.2392L19.0739 14.2156H21.8443ZM12.5762 15.223L12.8784 16.9859L3.2073 24.2392H0.487305L12.5762 15.223ZM32.7243 0.0615234V0.212634L20.1821 9.68224L20.2828 7.46595L30.2058 0.0615234H32.7243ZM0.487305 0.0615234L12.5258 8.92669H9.50358L0.487305 2.17707V0.0615234Z" fill="#C8102E"/>
    <path d="M12.6265 0.0615234V24.2392H20.6858V0.0615234H12.6265ZM0.487305 8.12076V16.18H32.7243V8.12076H0.487305Z" fill="white"/>
    <path d="M0.487305 9.78298V14.6185H32.7243V9.78298H0.487305ZM14.2384 0.0615234V24.2392H19.0739V0.0615234H14.2384Z" fill="#C8102E"/>
    <g clip-path="url(#clip1_30_16987)">
      <path d="M-3.14551 -1.01758H36.357V25.3168H-3.14551V-1.01758Z" fill="#F0F0F0"/>
      <path d="M5.65182 12.1509L-3.14551 3.34961V20.9537L5.65182 12.1509Z" fill="black"/>
      <path d="M9.29099 12.1479L-3.14551 -0.296875V3.34677L5.65182 12.148L-3.14551 20.9508V24.5877L9.29099 12.1479Z" fill="#FFDA44"/>
      <path d="M36.1898 14.7259C36.1943 14.6919 36.2518 14.6581 36.357 14.6242V9.57341H14.029L3.43798 -1.01758H-3.14551V-0.295192L9.29098 12.1496L-3.14551 24.5894V25.3168H3.43798L14.029 14.7259H36.1898Z" fill="#6DA544"/>
      <path d="M35.6763 17.3018H15.0958L7.08105 25.3164H36.3567V17.3018H35.6763Z" fill="#0052B4"/>
      <path d="M35.6763 6.9971H36.3567V-1.01758H7.08105L15.0958 6.9971H35.6763Z" fill="#D80027"/>
    </g>
  </g>
  <defs>
    <clipPath id="clip0_30_16987">
      <rect width="32.237" height="24.1777" fill="white" transform="translate(0.486816 0.0625)"/>
    </clipPath>
    <clipPath id="clip1_30_16987">
      <rect width="39.5025" height="39.5025" fill="white" transform="translate(-3.146 -7.60254)"/>
    </clipPath>
  </defs>
</svg>