<svg xmlns:xlink="http://www.w3.org/1999/xlink" xmlns="http://www.w3.org/2000/svg" width="40" height="30" viewBox="0 0 40 30" fill="none">
  <path d="M0 2.51532e-05L40.0002 0V27.6314L37.8029 30.0004H2.18441H0.000163317V27.6314L0 2.51532e-05Z" fill="#FF9933"/>
  <path d="M0 9.99805H40V20.0004H0V9.99805Z" fill="white"/>
  <path d="M0 20H40V28.0846C40 29.1374 40 30 40 30C40 30 1.1844 30 0.000155806 30C0.000155806 30 7.21216e-05 29.1345 7.21216e-05 28.0846L0 20Z" fill="#128807"/>
  <path d="M24 15C24 12.7895 22.2105 11 20 11C17.7895 11 16 12.7895 16 15C16 17.207 17.7895 19 20 19C22.2105 19 24 17.2105 24 15Z" fill="#000088"/>
  <path d="M23.4984 15.0002C23.4984 13.0669 21.9335 11.502 20.0002 11.502C18.0669 11.502 16.502 13.0669 16.502 15.0002C16.502 16.9335 18.0669 18.4984 20.0002 18.4984C21.9335 18.4984 23.4984 16.9335 23.4984 15.0002Z" fill="white"/>
  <path d="M20.6982 15.0006C20.6982 14.6146 20.386 14.2988 20 14.2988C19.614 14.2988 19.3018 14.6111 19.3018 15.0006C19.3018 15.3865 19.614 15.6988 20 15.6988C20.386 15.6988 20.6982 15.3865 20.6982 15.0006Z" fill="#000088"/>
  <path d="M23.6421 15.4815C23.6562 15.3867 23.586 15.299 23.4912 15.285C23.3965 15.271 23.3088 15.3411 23.2948 15.4359C23.2807 15.5306 23.3509 15.6183 23.4456 15.6324C23.5439 15.6429 23.6316 15.5762 23.6421 15.4815Z" fill="#000088"/>
  <path d="M20.0002 18.4986L20.1195 16.4004L20.0002 15.4004L19.8809 16.4004L20.0002 18.4986Z" fill="#000088"/>
  <path d="M23.3928 16.4069C23.4314 16.3192 23.3858 16.214 23.298 16.1789C23.2103 16.1403 23.1051 16.1859 23.07 16.2736C23.0314 16.3613 23.077 16.4666 23.1647 16.5017C23.2559 16.5368 23.3577 16.4947 23.3928 16.4069Z" fill="black"/>
  <path d="M19.0947 18.3787L19.7544 16.3822L19.8982 15.3857L19.5228 16.3226L19.0947 18.3787Z" fill="black"/>
  <path d="M22.9157 17.2386C22.9754 17.1614 22.9613 17.0526 22.8841 16.993C22.8069 16.9334 22.6982 16.9474 22.6385 17.0246C22.5789 17.1018 22.5929 17.2105 22.6701 17.2702C22.7473 17.3298 22.8561 17.3123 22.9157 17.2386Z" fill="black"/>
  <path d="M18.249 18.0319L19.4034 16.274L19.7999 15.3477L19.1964 16.1512L18.249 18.0319Z" fill="black"/>
  <path d="M22.2352 17.9157C22.3124 17.8561 22.3264 17.7473 22.2668 17.6701C22.2071 17.5929 22.0984 17.5789 22.0212 17.6385C21.944 17.6982 21.9299 17.8069 21.9896 17.8841C22.0492 17.9578 22.1615 17.9754 22.2352 17.9157Z" fill="black"/>
  <path d="M17.5264 17.4737L19.0948 16.0737L19.7158 15.2842L18.9264 15.9052L17.5264 17.4737Z" fill="black"/>
  <path d="M21.4069 18.3972C21.4947 18.3586 21.5403 18.2568 21.5017 18.1691C21.4631 18.0814 21.3613 18.0358 21.2736 18.0744C21.1859 18.1095 21.1403 18.2147 21.1789 18.3024C21.214 18.3902 21.3157 18.4323 21.4069 18.3972Z" fill="black"/>
  <path d="M16.9683 16.7511L18.849 15.8037L19.6525 15.2002L18.7262 15.5967L16.9683 16.7511Z" fill="black"/>
  <path d="M20.4808 18.6424C20.5755 18.6284 20.6422 18.5407 20.6317 18.4459C20.6176 18.3512 20.5299 18.2845 20.4352 18.295C20.3404 18.3091 20.2738 18.3968 20.2843 18.4915C20.2948 18.5898 20.3825 18.6564 20.4808 18.6424Z" fill="black"/>
  <path d="M16.6211 15.9055L18.6807 15.4774L19.6141 15.1055L18.6176 15.2458L16.6211 15.9055Z" fill="black"/>
  <path d="M19.5192 18.6421C19.6139 18.6562 19.7016 18.586 19.7156 18.4912C19.7297 18.3965 19.6595 18.3088 19.5648 18.2948C19.47 18.2807 19.3823 18.3509 19.3683 18.4456C19.3578 18.5439 19.4244 18.6316 19.5192 18.6421Z" fill="black"/>
  <path d="M16.502 15.0002L18.6002 15.1195L19.6002 15.0002L18.6002 14.8809L16.502 15.0002Z" fill="black"/>
  <path d="M18.5929 18.3972C18.6807 18.4358 18.7859 18.3902 18.821 18.3024C18.8561 18.2147 18.814 18.1095 18.7263 18.0744C18.6386 18.0358 18.5333 18.0814 18.4982 18.1691C18.4631 18.2568 18.5052 18.3586 18.5929 18.3972Z" fill="black"/>
  <path d="M16.6211 14.0947L18.6176 14.7544L19.6141 14.8982L18.6807 14.5228L16.6211 14.0947Z" fill="black"/>
  <path d="M17.7613 17.9157C17.8385 17.9754 17.9472 17.9613 18.0069 17.8841C18.0665 17.8069 18.0525 17.6982 17.9753 17.6385C17.8981 17.5789 17.7894 17.5929 17.7297 17.6701C17.6736 17.7473 17.6876 17.8561 17.7613 17.9157Z" fill="black"/>
  <path d="M16.9683 13.249L18.7262 14.4034L19.6525 14.7999L18.849 14.1964L16.9683 13.249Z" fill="black"/>
  <path d="M17.0842 17.2386C17.1439 17.3158 17.2527 17.3298 17.3298 17.2702C17.407 17.2105 17.4211 17.1018 17.3614 17.0246C17.3018 16.9474 17.193 16.9334 17.1158 16.993C17.0421 17.0491 17.0246 17.1614 17.0842 17.2386Z" fill="black"/>
  <path d="M17.5264 12.5264L18.9264 14.0948L19.7158 14.7194L19.0948 13.9264L17.5264 12.5264Z" fill="black"/>
  <path d="M16.6032 16.4069C16.6418 16.4947 16.7435 16.5403 16.8313 16.5017C16.919 16.4631 16.9646 16.3613 16.926 16.2736C16.8874 16.1859 16.7856 16.1403 16.6979 16.1789C16.6102 16.214 16.5681 16.3157 16.6032 16.4069Z" fill="black"/>
  <path d="M18.249 11.9678L19.1964 13.8485L19.7999 14.652L19.4034 13.7292L18.249 11.9678Z" fill="black"/>
  <path d="M16.3578 15.4808C16.3719 15.5755 16.4596 15.6422 16.5543 15.6317C16.649 15.6176 16.7157 15.5299 16.7052 15.4352C16.6912 15.3404 16.6034 15.2738 16.5087 15.2843C16.4105 15.2948 16.3438 15.3825 16.3578 15.4808Z" fill="black"/>
  <path d="M19.0947 11.6211L19.5228 13.6807L19.8982 14.6141L19.7544 13.6176L19.0947 11.6211Z" fill="black"/>
  <path d="M16.3577 14.5192C16.3437 14.6139 16.4139 14.7016 16.5086 14.7156C16.6034 14.7297 16.6911 14.6595 16.7051 14.5648C16.7192 14.47 16.649 14.3823 16.5542 14.3683C16.456 14.3578 16.3683 14.4244 16.3577 14.5192Z" fill="black"/>
  <path d="M20.0002 11.502L19.8809 13.6002L20.0002 14.6002L20.1195 13.6002L20.0002 11.502Z" fill="black"/>
  <path d="M16.6066 13.5934C16.568 13.6811 16.6136 13.7864 16.7013 13.8215C16.7891 13.8566 16.8943 13.8145 16.9294 13.7268C16.968 13.639 16.9224 13.5338 16.8347 13.4987C16.7434 13.4636 16.6417 13.5057 16.6066 13.5934Z" fill="black"/>
  <path d="M20.9051 11.6211L20.2454 13.6176L20.1016 14.6141L20.477 13.6807L20.9051 11.6211Z" fill="black"/>
  <path d="M17.0843 12.7648C17.0247 12.842 17.0387 12.9508 17.1159 13.0104C17.1931 13.0701 17.3019 13.056 17.3615 12.9788C17.4212 12.9017 17.4071 12.7929 17.3299 12.7332C17.2527 12.6736 17.144 12.6876 17.0843 12.7648Z" fill="black"/>
  <path d="M21.7511 11.9678L20.5967 13.7292L20.2002 14.652L20.8037 13.8485L21.7511 11.9678Z" fill="black"/>
  <path d="M17.7648 12.0843C17.6876 12.1439 17.6736 12.2527 17.7332 12.3299C17.7929 12.4071 17.9017 12.4211 17.9788 12.3615C18.056 12.3018 18.0701 12.1931 18.0104 12.1159C17.9508 12.0387 17.8385 12.0281 17.7648 12.0843Z" fill="black"/>
  <path d="M22.4737 12.5264L20.9052 13.9264L20.2842 14.7194L21.0737 14.0948L22.4737 12.5264Z" fill="black"/>
  <path d="M18.5929 11.6071C18.5052 11.6457 18.4631 11.7474 18.4982 11.8352C18.5368 11.9229 18.6386 11.9685 18.7263 11.9299C18.814 11.8913 18.8596 11.7895 18.821 11.7018C18.7859 11.6106 18.6842 11.5685 18.5929 11.6071Z" fill="black"/>
  <path d="M23.0314 13.249L21.1507 14.1964L20.3472 14.7999L21.2735 14.4034L23.0314 13.249Z" fill="black"/>
  <path d="M19.5192 11.3582C19.4244 11.3723 19.3578 11.46 19.3683 11.5547C19.3823 11.6495 19.47 11.7161 19.5648 11.7056C19.6595 11.6916 19.7297 11.6039 19.7156 11.5091C19.7051 11.4144 19.6174 11.3442 19.5192 11.3582Z" fill="black"/>
  <path d="M23.3787 14.0947L21.3191 14.5228L20.3857 14.8982L21.3822 14.7544L23.3787 14.0947Z" fill="black"/>
  <path d="M20.4805 11.3582C20.3858 11.3442 20.2981 11.4144 20.284 11.5091C20.27 11.6039 20.3402 11.6916 20.4349 11.7056C20.5296 11.7196 20.6174 11.6495 20.6314 11.5547C20.6419 11.46 20.5752 11.3688 20.4805 11.3582Z" fill="black"/>
  <path d="M23.4981 15.0002L21.3999 14.8809L20.3999 15.0002L21.3999 15.1195L23.4981 15.0002Z" fill="black"/>
  <path d="M21.4069 11.6066C21.3192 11.568 21.214 11.6136 21.1789 11.7013C21.1403 11.7891 21.1859 11.8943 21.2736 11.9294C21.3613 11.9645 21.4666 11.9224 21.5017 11.8347C21.5368 11.7434 21.4947 11.6417 21.4069 11.6066Z" fill="black"/>
  <path d="M23.3787 15.9055L21.3822 15.2458L20.3857 15.1055L21.3191 15.4774L23.3787 15.9055Z" fill="black"/>
  <path d="M22.2352 12.0838C22.158 12.0242 22.0492 12.0382 21.9896 12.1154C21.9299 12.1926 21.944 12.3014 22.0212 12.361C22.0984 12.4207 22.2071 12.4066 22.2668 12.3294C22.3264 12.2522 22.3124 12.1435 22.2352 12.0838Z" fill="black"/>
  <path d="M23.0314 16.7511L21.2735 15.5967L20.3472 15.2002L21.1507 15.8037L23.0314 16.7511Z" fill="black"/>
  <path d="M22.9157 12.7648C22.8561 12.6876 22.7473 12.6736 22.6701 12.7332C22.5929 12.7929 22.5789 12.9017 22.6385 12.9788C22.6982 13.056 22.8069 13.0701 22.8841 13.0104C22.9578 12.9508 22.9754 12.8385 22.9157 12.7648Z" fill="black"/>
  <path d="M22.4737 17.4737L21.0737 15.9052L20.2842 15.2842L20.9052 16.0737L22.4737 17.4737Z" fill="black"/>
  <path d="M23.3962 13.5929C23.3576 13.5052 23.2559 13.4596 23.1681 13.4982C23.0804 13.5368 23.0348 13.6386 23.0734 13.7263C23.112 13.814 23.2137 13.8561 23.3015 13.821C23.3892 13.7859 23.4313 13.6842 23.3962 13.5929Z" fill="black"/>
  <path d="M21.7511 18.0319L20.8037 16.1512L20.2002 15.3477L20.5967 16.274L21.7511 18.0319Z" fill="black"/>
  <path d="M23.6419 14.5192C23.6279 14.4244 23.5402 14.3578 23.4454 14.3683C23.3507 14.3823 23.284 14.47 23.2945 14.5648C23.3086 14.6595 23.3963 14.7262 23.491 14.7156C23.5893 14.7051 23.656 14.6174 23.6419 14.5192Z" fill="black"/>
  <path d="M20.9051 18.3787L20.477 16.3226L20.1016 15.3857L20.2454 16.3822L20.9051 18.3787Z" fill="black"/>
</svg>