<svg xmlns="http://www.w3.org/2000/svg" xmlns:xlink="http://www.w3.org/1999/xlink" version="1.1" id="Layer_1" x="0px" y="0px" viewBox="0 0 33 25" style="enable-background:new 0 0 33 25;" xml:space="preserve" width="33"  height="25" >
<style type="text/css">
	.st0{fill:#ED2224;}
	.st1{fill:#FFFFFF;}
</style>
<path class="st0" d="M0,0h8.2l0.3,0.5h15.8L24.8,0H33v25h-8.2l-0.3-0.5H8.6L8.2,25H0V0z"/>
<path class="st1" d="M8.1,0h16.5v25H8.1V0z M16.7,18.9l-0.2-2.7c0-0.2,0.1-0.3,0.3-0.3c0,0,0,0,0.1,0l3,0.5l-0.4-1  c0-0.1,0-0.2,0.1-0.2l3.2-2.4l-0.7-0.3c-0.1,0-0.2-0.2-0.1-0.2l0.6-1.8l-1.9,0.4c-0.1,0-0.2,0-0.3-0.1l-0.4-0.8l-1.5,1.4  c-0.1,0.1-0.2,0.1-0.3,0c-0.1,0-0.1-0.1-0.1-0.2L19,7.8l-1.1,0.6c-0.1,0.1-0.2,0-0.3-0.1c0,0,0,0,0,0l-1.1-2.1l-1.1,2.1  c-0.1,0.1-0.2,0.1-0.3,0.1c0,0,0,0,0,0l-1.1-0.6l0.7,3.3c0,0.1-0.1,0.2-0.2,0.2c-0.1,0-0.2,0-0.2-0.1l-1.5-1.4l-0.4,0.8  c0,0.1-0.1,0.1-0.3,0.1l-1.9-0.4l0.6,1.8c0,0.1,0,0.2-0.1,0.2L10,12.7l3.2,2.4c0.1,0.1,0.1,0.1,0.1,0.2l-0.4,1l3-0.5  c0.2,0,0.3,0.1,0.4,0.2c0,0,0,0,0,0.1l-0.2,2.7H16.7z"/>
</svg>