<svg xmlns:xlink="http://www.w3.org/1999/xlink" xmlns="http://www.w3.org/2000/svg" width="33" height="25" viewBox="0 0 33 25" fill="none">
  <g clip-path="url(#clip0_30_16929)">
    <path fill-rule="evenodd" clip-rule="evenodd" d="M0.249023 0.0615234H46.1867V1.9221H0.249023V0.0615234ZM0.249023 3.78263H46.1867V5.6432H0.249023V3.78263ZM0.249023 7.49899H46.1867V9.36425H0.249023V7.49899ZM0.249023 11.2201H46.1867V13.0807H0.249023V11.2201ZM0.249023 14.9412H46.1867V16.8018H0.249023V14.9412ZM0.249023 18.6576H46.1867V20.5181H0.249023V18.6576ZM0.249023 22.3787H46.1867V24.2392H0.249023V22.3787Z" fill="#BD3D44"/>
    <path fill-rule="evenodd" clip-rule="evenodd" d="M0.249023 1.92285H46.1867V3.78338H0.249023V1.92285ZM0.249023 5.6439H46.1867V7.49975H0.249023V5.6439ZM0.249023 9.36032H46.1867V11.2208H0.249023V9.36032ZM0.249023 13.0814H46.1867V14.942H0.249023V13.0814ZM0.249023 16.8025H46.1867V18.6631H0.249023V16.8025ZM0.249023 20.5189H46.1867V22.3795H0.249023V20.5189Z" fill="white"/>
    <path fill-rule="evenodd" clip-rule="evenodd" d="M0.249023 0.0625H18.6231V13.0817H0.249023V0.0625Z" fill="#192F5D"/>
    <path fill-rule="evenodd" clip-rule="evenodd" d="M1.7796 0.619141L1.9496 1.13377H2.48795L2.05346 1.4502L2.21877 1.96962L1.7796 1.64851L1.34515 1.96488L1.51042 1.4502L1.07129 1.13377H1.61907L1.7796 0.619141ZM4.84432 0.619141L5.00959 1.13377H5.55263L5.11345 1.4502L5.27877 1.96962L4.84432 1.64851L4.40515 1.96488L4.57041 1.4502L4.13597 1.13377H4.67432L4.84432 0.619141ZM7.90432 0.619141L8.07432 1.13382H8.60794L8.1735 1.45025L8.33871 1.96967L7.89958 1.64856L7.46514 1.96493L7.6304 1.45025L7.19122 1.13382H7.73432L7.90432 0.619141ZM10.969 0.619141L11.1343 1.13382H11.6774L11.2382 1.45025L11.4082 1.96967L10.969 1.64856L10.5299 1.96493L10.6999 1.45025L10.2607 1.13382H10.799L10.969 0.619141ZM14.029 0.619141L14.199 1.13382H14.7373L14.3029 1.45025L14.4682 1.96967L14.029 1.64856L13.5945 1.96493L13.7599 1.45025L13.3254 1.13382H13.8637L14.029 0.619141ZM17.0937 0.619141L17.259 1.13382H17.8021L17.3629 1.45025L17.5329 1.96967L17.0937 1.64856L16.6545 1.96493L16.8245 1.45025L16.3854 1.13382H16.9285L17.0937 0.619141ZM3.31433 1.92237L3.47959 2.43715H4.02263L3.58346 2.75348L3.74404 3.26826L3.31901 2.95184L2.87988 3.26821L3.03568 2.75353L2.6107 2.4371H3.14906L3.31433 1.92237ZM6.37432 1.92237L6.54432 2.43715H7.08263L6.64345 2.75348L6.8135 3.26826L6.37427 2.95184L5.93514 3.26821L6.10514 2.75353L5.66596 2.4371H6.209L6.37432 1.92237ZM9.43905 1.92237L9.60426 2.43715H10.1474L9.70818 2.75348L9.87344 3.26826L9.439 2.95184L8.99987 3.26821L9.16513 2.75358L8.73069 2.43715H9.26905L9.43905 1.92237ZM12.499 1.92237L12.669 2.43715H13.2073L12.7682 2.75348L12.9382 3.26826L12.499 2.95184L12.0645 3.26821L12.2299 2.75353L11.7907 2.4371H12.3385L12.499 1.92237ZM15.5637 1.92237L15.729 2.43715H16.2721L15.8329 2.75348L15.9982 3.26826L15.5637 2.95184L15.1245 3.26821L15.2899 2.75353L14.8554 2.4371H15.3937L15.5637 1.92237ZM1.7796 3.22112L1.9496 3.74527H2.48795L2.05346 4.06165L2.21877 4.57638L1.7796 4.25527L1.34515 4.57638L1.51042 4.05691L1.07129 3.74059H1.61907L1.7796 3.22112ZM4.84432 3.22112L5.00959 3.74043H5.55263L5.11345 4.05681L5.27877 4.57159L4.84432 4.25043L4.40515 4.57154L4.57041 4.05213L4.13597 3.73575H4.67432L4.84432 3.22112ZM7.90432 3.22112L8.07432 3.74054H8.60794L8.1735 4.05691L8.33871 4.57169L7.89958 4.25053L7.46514 4.57164L7.6304 4.05223L7.19122 3.73585H7.73432L7.90432 3.22112ZM10.969 3.22112L11.1343 3.74054H11.6774L11.2382 4.05691L11.4082 4.57169L10.969 4.25053L10.5299 4.57164L10.6999 4.05223L10.2607 3.73585H10.799L10.969 3.22112ZM14.029 3.22112L14.199 3.74054H14.7373L14.3029 4.05686L14.4682 4.57164L14.029 4.25048L13.5945 4.57159L13.7599 4.05218L13.3254 3.7358H13.8637L14.029 3.22112ZM17.0937 3.22112L17.259 3.74054H17.8021L17.3629 4.05691L17.5329 4.57169L17.0937 4.25053L16.6545 4.57164L16.8245 4.05223L16.3854 3.73585H16.9285L17.0937 3.22112ZM3.31433 4.5244L3.47959 5.03913H4.02263L3.58346 5.35546L3.74877 5.87492L3.31433 5.55381L2.87515 5.87019L3.04041 5.35551L2.60597 5.03913H3.14438L3.31433 4.5244ZM6.37432 4.5244L6.54432 5.03913H7.08263L6.64345 5.35546L6.8135 5.87492L6.37427 5.55381L5.93514 5.87019L6.10514 5.35551L5.66596 5.03913H6.209L6.37432 4.5244ZM9.43905 4.5244L9.60426 5.03913H10.1474L9.70818 5.35546L9.87344 5.87492L9.439 5.55381L8.99987 5.87019L9.16513 5.35551L8.73069 5.03913H9.26905L9.43905 4.5244ZM12.499 4.5244L12.669 5.03913H13.2073L12.7729 5.35546L12.9382 5.87492L12.499 5.55381L12.0645 5.87019L12.2299 5.35551L11.7907 5.03913H12.3385L12.499 4.5244ZM15.5637 4.5244L15.729 5.03913H16.2721L15.8329 5.35546L15.9982 5.87492L15.5637 5.55381L15.1245 5.87019L15.2899 5.35551L14.8554 5.03913H15.3937L15.5637 4.5244ZM1.7796 5.82773L1.9496 6.34246H2.48795L2.05346 6.65879L2.21877 7.17826L1.7796 6.85714L1.34515 7.17352L1.51042 6.65884L1.07129 6.34246H1.61907L1.7796 5.82773ZM4.84432 5.82773L5.00959 6.34246H5.55263L5.11345 6.65879L5.27877 7.17357L4.84432 6.85714L4.40515 7.17352L4.57041 6.65884L4.13597 6.34246H4.67432L4.84432 5.82773ZM7.90432 5.82773L8.07432 6.34246H8.60794L8.1735 6.65879L8.33871 7.17826L7.89958 6.85714L7.46514 7.17352L7.6304 6.65884L7.19122 6.34246H7.73432L7.90432 5.82773ZM10.969 5.82773L11.1343 6.34246H11.6774L11.2382 6.65879L11.4082 7.17826L10.969 6.85714L10.5299 7.17352L10.6999 6.65884L10.2607 6.34246H10.799L10.969 5.82773ZM14.029 5.82773L14.199 6.34246H14.7373L14.3029 6.65879L14.4682 7.17826L14.029 6.85714L13.5945 7.17352L13.7599 6.65884L13.3254 6.34246H13.8637L14.029 5.82773ZM17.0937 5.82773L17.259 6.34246H17.8021L17.3629 6.65879L17.5329 7.17826L17.0937 6.85714L16.6545 7.17352L16.8245 6.65884L16.3854 6.34246H16.9285L17.0937 5.82773ZM3.31433 7.13106L3.47959 7.64579H4.02263L3.58346 7.96212L3.74877 8.4769L3.31433 8.15579L2.87515 8.4769L3.04041 7.95743L2.60597 7.64106H3.14438L3.31433 7.13106ZM6.37432 7.13106L6.54432 7.64579H7.08263L6.64345 7.96212L6.8135 8.4769L6.37427 8.15579L5.93514 8.4769L6.10514 7.95743L5.66596 7.64106H6.209L6.37432 7.13106ZM9.43905 7.13106L9.60426 7.64579H10.1474L9.70818 7.96212L9.87344 8.4769L9.439 8.15579L8.99987 8.4769L9.16513 7.95743L8.73069 7.64106H9.26905L9.43905 7.13106ZM12.499 7.13106L12.669 7.64579H13.2073L12.7729 7.96212L12.9382 8.4769L12.499 8.15579L12.0645 8.4769L12.2299 7.95743L11.7907 7.64106H12.3385L12.499 7.13106ZM15.5637 7.13106L15.729 7.64579H16.2721L15.8329 7.96212L15.9982 8.4769L15.5637 8.15579L15.1245 8.4769L15.2899 7.95743L14.8554 7.64106H15.3937L15.5637 7.13106ZM1.7796 8.42965L1.9496 8.94912H2.48795L2.05346 9.26545L2.21877 9.7755L1.7796 9.45912L1.34515 9.77545L1.51042 9.26076L1.07129 8.94439H1.61907L1.7796 8.42965ZM4.84432 8.42965L5.00959 8.94912H5.55263L5.11345 9.26545L5.2835 9.7755L4.84427 9.45912L4.40515 9.77545L4.57514 9.26076L4.13597 8.94439H4.67432L4.84432 8.42965ZM7.90432 8.42965L8.07432 8.94912H8.60794L8.1735 9.26545L8.33871 9.7755L7.89958 9.45912L7.46514 9.77545L7.6304 9.26076L7.19122 8.94439H7.73432L7.90432 8.42965ZM10.969 8.42965L11.1343 8.94912H11.6774L11.2382 9.26545L11.4082 9.7755L10.969 9.45912L10.5299 9.77545L10.6999 9.26076L10.2607 8.94439H10.799L10.969 8.42965ZM14.029 8.42965L14.199 8.94912H14.7373L14.3029 9.26545L14.4682 9.7755L14.029 9.45912L13.5945 9.77545L13.7599 9.26076L13.3254 8.94439H13.8637L14.029 8.42965ZM17.0937 8.42965L17.259 8.94912H17.8021L17.3629 9.26545L17.5329 9.7755L17.0937 9.45912L16.6545 9.77545L16.8245 9.26076L16.3854 8.94439H16.9285L17.0937 8.42965ZM3.31433 9.73298L3.47959 10.2477H4.02263L3.58346 10.5641L3.74877 11.0836L3.31433 10.7625L2.87515 11.0788L3.04041 10.5641L2.60597 10.2477H3.14438L3.31433 9.73298ZM6.37432 9.73298L6.54432 10.2477H7.08263L6.64345 10.5641L6.8135 11.0836L6.37427 10.7625L5.93514 11.0788L6.10514 10.5641L5.66596 10.2477H6.209L6.37432 9.73298ZM9.43905 9.73298L9.60426 10.2477H10.1474L9.70818 10.5641L9.87344 11.0836L9.439 10.7625L8.99987 11.0788L9.16513 10.5641L8.73069 10.2477H9.26905L9.43905 9.73298ZM12.499 9.73298L12.669 10.2477H13.2073L12.7729 10.5641L12.9382 11.0836L12.499 10.7625L12.0645 11.0788L12.2299 10.5641L11.7907 10.2477H12.3385L12.499 9.73298ZM15.5637 9.73298L15.729 10.2477H16.2721L15.8329 10.5641L15.9982 11.0836L15.5637 10.7625L15.1245 11.0788L15.2899 10.5641L14.8554 10.2477H15.3937L15.5637 9.73298ZM1.7796 11.0363L1.9496 11.551H2.48795L2.05346 11.8674L2.21877 12.3822L1.7796 12.0658L1.34515 12.3821L1.51042 11.8627L1.07129 11.5463H1.61907L1.7796 11.0363ZM4.84432 11.0363L5.00959 11.551H5.55263L5.11345 11.8674L5.2835 12.3822L4.84427 12.0658L4.40515 12.3821L4.57514 11.8627L4.13597 11.5463H4.67432L4.84432 11.0363ZM7.90432 11.0363L8.07432 11.551H8.60794L8.18291 11.8674L8.34818 12.3822L7.909 12.0658L7.47456 12.3821L7.63987 11.8627L7.20069 11.5463H7.74374L7.90432 11.0363ZM10.969 11.0363L11.1343 11.551H11.6774L11.2382 11.8674L11.4082 12.3822L10.969 12.0658L10.5299 12.3821L10.6999 11.8627L10.2607 11.5463H10.799L10.969 11.0363ZM14.029 11.0363L14.199 11.551H14.7373L14.3029 11.8674L14.4682 12.3822L14.029 12.0658L13.5945 12.3821L13.7599 11.8627L13.3254 11.5463H13.8637L14.029 11.0363ZM17.0937 11.0363L17.259 11.551H17.8021L17.3629 11.8674L17.5329 12.3822L17.0937 12.0658L16.6545 12.3821L16.8245 11.8627L16.3854 11.5463H16.9285L17.0937 11.0363Z" fill="white"/>
    <mask id="mask0_30_16929" style="mask-type:luminance" maskUnits="userSpaceOnUse" x="-5" y="0" width="43" height="25">
      <path d="M-4.38184 0.0478516H37.1171V24.2555H-4.38184V0.0478516Z" fill="white"/>
    </mask>
    <g mask="url(#mask0_30_16929)">
      <path d="M16.3761 0.0498047V1.20663L11.7695 3.50806H16.3761V6.96746H11.7695L16.3761 9.27137V10.4958H14.1845L7.72204 7.26331V10.4958H4.26258V7.26331L-2.19865 10.4958H-4.38184V24.2574H37.117V0.0498047H16.3761ZM-4.38184 6.96746V9.26656L0.215088 6.96746H-4.38184ZM7.72204 0.0498047V3.21588L14.0481 0.0498047H7.72204ZM4.26258 0.0498047H-2.06224L4.26258 3.21588V0.0498047ZM-4.38184 3.50806H0.215088L-4.38184 1.21258V3.50806Z" fill="#004281"/>
    </g>
    <mask id="mask1_30_16929" style="mask-type:luminance" maskUnits="userSpaceOnUse" x="-5" y="0" width="43" height="25">
      <path d="M-4.38184 0.0498047H37.1171V24.2574H-4.38184V0.0498047Z" fill="white"/>
    </mask>
    <g mask="url(#mask1_30_16929)">
      <path d="M16.3677 0.0507812L9.45114 3.50904H7.90192L14.8185 0.0507812H14.0481L7.72204 3.21686V0.0507812H7.02899V4.2021H16.3761V3.50904H11.7695L16.3761 1.2076V0.0507812H16.3677ZM4.26258 0.0507812V3.21686L-2.06224 0.0507812H-4.38184L2.53468 3.50904H0.987867L-4.38184 0.827166V1.21355L0.215089 3.50904H-4.38184V4.2021H4.9557V0.0507812H4.26258ZM9.61419 6.27785H7.02899V10.4968H7.72204V7.26429L14.1845 10.4968H16.3761V10.4304L9.45114 6.96844H10.9967L16.3761 9.65873V9.27235L11.7695 6.96844H16.3761V6.27785H10.3858H9.61419ZM3.91605 6.27785H-4.38184V6.96844H0.215089L-4.38184 9.26754V10.4254L2.53468 6.96844H4.0803L-2.97263 10.4968H-2.19865L4.26258 7.26429V10.4968H4.9557V6.27785H3.91605Z" fill="#FFF5F5"/>
    </g>
    <mask id="mask2_30_16929" style="mask-type:luminance" maskUnits="userSpaceOnUse" x="-5" y="0" width="43" height="25">
      <path d="M-4.38184 0.0498047H37.1171V24.2574H-4.38184V0.0498047Z" fill="white"/>
    </mask>
    <g mask="url(#mask2_30_16929)">
      <path d="M2.53468 6.96844L-4.38184 10.4254V10.4968H-2.97263L4.0803 6.96844H2.53468ZM-4.38184 0.827166L0.987867 3.50904H2.53468L-4.38184 0.0507812V0.827166ZM16.3677 0.0507812H14.8185L7.90192 3.50904H9.45114L16.3677 0.0507812ZM9.45114 6.96844L16.3761 10.4304V9.65873L10.9967 6.96844H9.45114Z" fill="#F32837"/>
    </g>
    <mask id="mask3_30_16929" style="mask-type:luminance" maskUnits="userSpaceOnUse" x="-5" y="0" width="43" height="25">
      <path d="M-4.38184 0.0498047H37.1171V24.2574H-4.38184V0.0498047Z" fill="white"/>
    </mask>
    <g mask="url(#mask3_30_16929)">
      <path d="M4.9557 0.0507812V4.2021H-4.38184V6.27785H4.9557V10.4968H7.02899V6.27785H16.3761V4.2021H7.02899V0.0507812H4.9557Z" fill="#F32837"/>
    </g>
    <mask id="mask4_30_16929" style="mask-type:luminance" maskUnits="userSpaceOnUse" x="-5" y="0" width="43" height="25">
      <path d="M-4.38184 0.0498047H37.1171V24.2574H-4.38184V0.0498047Z" fill="white"/>
    </mask>
    <g mask="url(#mask4_30_16929)">
      <path d="M24.4248 7.11618H25.5501L25.9016 6.04395L26.2494 7.11618H27.3735L26.4642 7.78032L26.8108 8.85255L25.9016 8.18847L24.9851 8.85255L25.3365 7.78032L24.4248 7.11618Z" fill="#FFF5F5"/>
    </g>
    <mask id="mask5_30_16929" style="mask-type:luminance" maskUnits="userSpaceOnUse" x="-5" y="0" width="43" height="25">
      <path d="M-4.38184 0.0498047H37.1171V24.2574H-4.38184V0.0498047Z" fill="white"/>
    </mask>
    <g mask="url(#mask5_30_16929)">
      <path d="M24.9243 7.27711H25.6681L25.9011 6.56836L26.1294 7.27711H26.8732L26.273 7.71538L26.5013 8.42539L25.9011 7.98706L25.2962 8.42539L25.5268 7.71538L24.9243 7.27711Z" fill="#F32837"/>
    </g>
    <mask id="mask6_30_16929" style="mask-type:luminance" maskUnits="userSpaceOnUse" x="-5" y="0" width="43" height="25">
      <path d="M-4.38184 0.0498047H37.1171V24.2574H-4.38184V0.0498047Z" fill="white"/>
    </mask>
    <g mask="url(#mask6_30_16929)">
      <path d="M19.9111 11.6538H21.0377L21.3891 10.5791L21.7368 11.6538H22.8647L21.9541 12.3142L22.2994 13.3877L21.3891 12.7248L20.4787 13.3877L20.8253 12.3142L19.9111 11.6538Z" fill="#FFF5F5"/>
    </g>
    <mask id="mask7_30_16929" style="mask-type:luminance" maskUnits="userSpaceOnUse" x="-5" y="0" width="43" height="25">
      <path d="M-4.38184 0.0498047H37.1171V24.2574H-4.38184V0.0498047Z" fill="white"/>
    </mask>
    <g mask="url(#mask7_30_16929)">
      <path d="M20.4126 11.8174H21.1576L21.3894 11.1074L21.6189 11.8174H22.3674L21.7626 12.2558L21.9932 12.9657L21.3894 12.525L20.7846 12.9657L21.0175 12.2558L20.4126 11.8174Z" fill="#F32837"/>
    </g>
    <mask id="mask8_30_16929" style="mask-type:luminance" maskUnits="userSpaceOnUse" x="-5" y="0" width="43" height="25">
      <path d="M-4.38184 0.0498047H37.1171V24.2574H-4.38184V0.0498047Z" fill="white"/>
    </mask>
    <g mask="url(#mask8_30_16929)">
      <path d="M28.4517 10.5284H29.4563L29.7679 9.57324L30.0771 10.5284H31.0779L30.2678 11.114L30.5793 12.0704L29.7679 11.4823L28.9541 12.0704L29.2655 11.114L28.4517 10.5284Z" fill="#FFF5F5"/>
    </g>
    <mask id="mask9_30_16929" style="mask-type:luminance" maskUnits="userSpaceOnUse" x="-5" y="0" width="43" height="25">
      <path d="M-4.38184 0.0498047H37.1171V24.2574H-4.38184V0.0498047Z" fill="white"/>
    </mask>
    <g mask="url(#mask9_30_16929)">
      <path d="M28.897 10.6744H29.5634L29.7676 10.043L29.9716 10.6744H30.6369L30.0984 11.0657L30.3024 11.696L29.7676 11.306L29.229 11.696L29.4355 11.0657L28.897 10.6744Z" fill="#F32837"/>
    </g>
    <mask id="mask10_30_16929" style="mask-type:luminance" maskUnits="userSpaceOnUse" x="-5" y="0" width="43" height="25">
      <path d="M-4.38184 0.0498047H37.1171V24.2574H-4.38184V0.0498047Z" fill="white"/>
    </mask>
    <g mask="url(#mask10_30_16929)">
      <path d="M24.2598 18.7768H25.5107L25.9007 17.585L26.2859 18.7768H27.5392L26.5262 19.5145L26.9114 20.7063L25.9007 19.9697L24.8877 20.7063L25.2728 19.5145L24.2598 18.7768Z" fill="#FFF5F5"/>
    </g>
    <mask id="mask11_30_16929" style="mask-type:luminance" maskUnits="userSpaceOnUse" x="-5" y="0" width="43" height="25">
      <path d="M-4.38184 0.0498047H37.1171V24.2574H-4.38184V0.0498047Z" fill="white"/>
    </mask>
    <g mask="url(#mask11_30_16929)">
      <path d="M24.8159 18.9584H25.6442L25.9014 18.1699L26.1562 18.9584H26.9833L26.3157 19.4451L26.5716 20.2359L25.9014 19.7469L25.2313 20.2359L25.4885 19.4451L24.8159 18.9584Z" fill="#F32837"/>
    </g>
  </g>
  <defs>
    <clipPath id="clip0_30_16929">
      <rect width="32.237" height="24.1777" fill="white" transform="translate(0.25 0.0625)"/>
    </clipPath>
  </defs>
</svg>